<?xml version="1.0" encoding="UTF-8" standalone="no"?>
<!DOCTYPE svg PUBLIC "-//W3C//DTD SVG 1.1//EN"
 "http://www.w3.org/Graphics/SVG/1.1/DTD/svg11.dtd">
<!-- Generated by graphviz version 2.40.1 (20161225.0304)
 -->
<!-- Title: ViennaRNA/alifold.h Pages: 1 -->
<!--zoomable 464 -->
<svg id="main" version="1.1" xmlns="http://www.w3.org/2000/svg" xmlns:xlink="http://www.w3.org/1999/xlink" xml:space="preserve" onload="init(evt)">
<style type="text/css"><![CDATA[
.edge:hover path { stroke: red; }
.edge:hover polygon { stroke: red; fill: red; }
]]></style>
<script type="text/javascript"><![CDATA[
var edges = document.getElementsByTagName('g');
if (edges && edges.length) {
  for (var i=0;i<edges.length;i++) {
    if (edges[i].id.substr(0,4)=='edge') {
      edges[i].setAttribute('class','edge');
    }
  }
}
]]></script>
        <defs>
                <circle id="rim" cx="0" cy="0" r="7"/>
                <circle id="rim2" cx="0" cy="0" r="3.5"/>
                <g id="zoomPlus">
                        <use xlink:href="#rim" fill="#404040">
                                <set attributeName="fill" to="#808080" begin="zoomplus.mouseover" end="zoomplus.mouseout"/>
                        </use>
                        <path d="M-4,0h8M0,-4v8" fill="none" stroke="white" stroke-width="1.5" pointer-events="none"/>
                </g>
                <g id="zoomMin">
                        <use xlink:href="#rim" fill="#404040">
                                <set attributeName="fill" to="#808080" begin="zoomminus.mouseover" end="zoomminus.mouseout"/>
                        </use>
                        <path d="M-4,0h8" fill="none" stroke="white" stroke-width="1.5" pointer-events="none"/>
                </g>
                <g id="dirArrow">
                        <path fill="none" stroke="white" stroke-width="1.5" d="M0,-3.0v7 M-2.5,-0.5L0,-3.0L2.5,-0.5"/>
                </g>
               <g id="resetDef">
                       <use xlink:href="#rim2" fill="#404040">
                               <set attributeName="fill" to="#808080" begin="reset.mouseover" end="reset.mouseout"/>
                       </use>
               </g>
        </defs>

<script type="text/javascript">
var viewWidth = 1384;
var viewHeight = 464;
var sectionId = 'dynsection-0';
</script>
<script xlink:href="svgpan.js"/>
<svg id="graph" class="graph">
<g id="viewport">
<title>ViennaRNA/alifold.h</title>
<!-- Node0 -->
<g id="node1" class="node">
<title>Node0</title>
<polygon fill="#bfbfbf" stroke="#000000" points="175.5,-436.5 175.5,-455.5 280.5,-455.5 280.5,-436.5 175.5,-436.5"/>
<text text-anchor="middle" x="228" y="-443.5" font-family="Helvetica,sans-Serif" font-size="10.00" fill="#000000">ViennaRNA/alifold.h</text>
</g>
<!-- Node1 -->
<g id="node2" class="node">
<title>Node1</title>
<g id="a_node2"><a xlink:href="datastructures_2basic_8h.html" target="_top" xlink:title="Various data structures and pre&#45;processor macros. ">
<polygon fill="none" stroke="#000000" points="409,-246.5 409,-276.5 543,-276.5 543,-246.5 409,-246.5"/>
<text text-anchor="start" x="417" y="-264.5" font-family="Helvetica,sans-Serif" font-size="10.00" fill="#000000">ViennaRNA/datastructures</text>
<text text-anchor="middle" x="476" y="-253.5" font-family="Helvetica,sans-Serif" font-size="10.00" fill="#000000">/basic.h</text>
</a>
</g>
</g>
<!-- Node0&#45;&gt;Node1 -->
<g id="edge1" class="edge">
<title>Node0&#45;&gt;Node1</title>
<path fill="none" stroke="#191970" d="M226.0989,-436.4497C221.8894,-412.2813 214.5563,-348.1247 247,-313 267.4525,-290.8574 340.7439,-277.1079 398.973,-269.4457"/>
<polygon fill="#191970" stroke="#191970" points="399.4383,-272.9148 408.9145,-268.1765 398.5518,-265.9711 399.4383,-272.9148"/>
</g>
<!-- Node6 -->
<g id="node7" class="node">
<title>Node6</title>
<g id="a_node7"><a xlink:href="params_2basic_8h.html" target="_top" xlink:title="Functions to deal with sets of energy parameters. ">
<polygon fill="none" stroke="#000000" points="73,-129 73,-148 211,-148 211,-129 73,-129"/>
<text text-anchor="middle" x="142" y="-136" font-family="Helvetica,sans-Serif" font-size="10.00" fill="#000000">ViennaRNA/params/basic.h</text>
</a>
</g>
</g>
<!-- Node0&#45;&gt;Node6 -->
<g id="edge37" class="edge">
<title>Node0&#45;&gt;Node6</title>
<path fill="none" stroke="#191970" d="M175.3267,-436.8141C119.0972,-423.6281 38,-393.3666 38,-328.5 38,-328.5 38,-328.5 38,-261.5 38,-213.1414 85.4562,-173.9899 116.2546,-153.673"/>
<polygon fill="#191970" stroke="#191970" points="118.2702,-156.5389 124.8265,-148.2163 114.5112,-150.6339 118.2702,-156.5389"/>
</g>
<!-- Node17 -->
<g id="node18" class="node">
<title>Node17</title>
<g id="a_node18"><a xlink:href="ribo_8h.html" target="_top" xlink:title="Parse RiboSum Scoring Matrices for Covariance Scoring of Alignments. ">
<polygon fill="none" stroke="#000000" points="104.5,-380.5 104.5,-399.5 199.5,-399.5 199.5,-380.5 104.5,-380.5"/>
<text text-anchor="middle" x="152" y="-387.5" font-family="Helvetica,sans-Serif" font-size="10.00" fill="#000000">ViennaRNA/ribo.h</text>
</a>
</g>
</g>
<!-- Node0&#45;&gt;Node17 -->
<g id="edge38" class="edge">
<title>Node0&#45;&gt;Node17</title>
<path fill="none" stroke="#191970" d="M214.7618,-436.2455C203.319,-427.814 186.5704,-415.4729 173.2525,-405.6598"/>
<polygon fill="#191970" stroke="#191970" points="175.2133,-402.757 165.0865,-399.6427 171.0609,-408.3924 175.2133,-402.757"/>
</g>
<!-- Node18 -->
<g id="node19" class="node">
<title>Node18</title>
<g id="a_node19"><a xlink:href="mfe_8h.html" target="_top" xlink:title="Compute Minimum Free energy (MFE) and backtrace corresponding secondary structures from RNA sequence ...">
<polygon fill="none" stroke="#000000" points="66,-319 66,-338 162,-338 162,-319 66,-319"/>
<text text-anchor="middle" x="114" y="-326" font-family="Helvetica,sans-Serif" font-size="10.00" fill="#000000">ViennaRNA/mfe.h</text>
</a>
</g>
</g>
<!-- Node0&#45;&gt;Node18 -->
<g id="edge39" class="edge">
<title>Node0&#45;&gt;Node18</title>
<path fill="none" stroke="#191970" d="M183.9278,-436.4185C149.759,-427.9919 106.5069,-414.788 96,-400 84.8258,-384.2727 93.0483,-362.2807 101.7013,-346.8521"/>
<polygon fill="#191970" stroke="#191970" points="104.7544,-348.568 106.975,-338.2085 98.7788,-344.9221 104.7544,-348.568"/>
</g>
<!-- Node19 -->
<g id="node20" class="node">
<title>Node19</title>
<g id="a_node20"><a xlink:href="part__func_8h.html" target="_top" xlink:title="Partition function implementations. ">
<polygon fill="none" stroke="#000000" points="277,-380.5 277,-399.5 397,-399.5 397,-380.5 277,-380.5"/>
<text text-anchor="middle" x="337" y="-387.5" font-family="Helvetica,sans-Serif" font-size="10.00" fill="#000000">ViennaRNA/part_func.h</text>
</a>
</g>
</g>
<!-- Node0&#45;&gt;Node19 -->
<g id="edge42" class="edge">
<title>Node0&#45;&gt;Node19</title>
<path fill="none" stroke="#191970" d="M246.9864,-436.2455C264.1792,-427.4125 289.7238,-414.2887 309.2132,-404.2758"/>
<polygon fill="#191970" stroke="#191970" points="310.9359,-407.3257 318.2312,-399.6427 307.737,-401.0993 310.9359,-407.3257"/>
</g>
<!-- Node22 -->
<g id="node23" class="node">
<title>Node22</title>
<g id="a_node23"><a xlink:href="boltzmann__sampling_8h.html" target="_top" xlink:title="Boltzmann Sampling of secondary structures from the ensemble. ">
<polygon fill="none" stroke="#000000" points="430,-313.5 430,-343.5 546,-343.5 546,-313.5 430,-313.5"/>
<text text-anchor="start" x="438" y="-331.5" font-family="Helvetica,sans-Serif" font-size="10.00" fill="#000000">ViennaRNA/boltzmann</text>
<text text-anchor="middle" x="488" y="-320.5" font-family="Helvetica,sans-Serif" font-size="10.00" fill="#000000">_sampling.h</text>
</a>
</g>
</g>
<!-- Node0&#45;&gt;Node22 -->
<g id="edge55" class="edge">
<title>Node0&#45;&gt;Node22</title>
<path fill="none" stroke="#191970" d="M280.5651,-438.988C317.293,-432.5524 366.6092,-420.7581 406,-400 429.6938,-387.5138 452.2974,-366.9236 467.7493,-351.0376"/>
<polygon fill="#191970" stroke="#191970" points="470.3919,-353.3374 474.7337,-343.6731 465.3128,-348.5205 470.3919,-353.3374"/>
</g>
<!-- Node23 -->
<g id="node24" class="node">
<title>Node23</title>
<g id="a_node24"><a xlink:href="utils_2alignments_8h.html" target="_top" xlink:title="Various utility&#45; and helper&#45;functions for sequence alignments and comparative structure prediction...">
<polygon fill="none" stroke="#000000" points="678,-252 678,-271 826,-271 826,-252 678,-252"/>
<text text-anchor="middle" x="752" y="-259" font-family="Helvetica,sans-Serif" font-size="10.00" fill="#000000">ViennaRNA/utils/alignments.h</text>
</a>
</g>
</g>
<!-- Node0&#45;&gt;Node23 -->
<g id="edge53" class="edge">
<title>Node0&#45;&gt;Node23</title>
<path fill="none" stroke="#191970" d="M280.6599,-438.8322C386.1926,-423.744 619.2666,-386.5674 687,-344 712.1107,-328.219 731.5516,-299.1885 742.391,-280.1148"/>
<polygon fill="#191970" stroke="#191970" points="745.5526,-281.6273 747.2597,-271.1709 739.4045,-278.2805 745.5526,-281.6273"/>
</g>
<!-- Node2 -->
<g id="node3" class="node">
<title>Node2</title>
<g id="a_node3"><a xlink:href="constants_8h.html" target="_top" xlink:title="Energy parameter constants. ">
<polygon fill="none" stroke="#000000" points="42,-62 42,-81 200,-81 200,-62 42,-62"/>
<text text-anchor="middle" x="121" y="-69" font-family="Helvetica,sans-Serif" font-size="10.00" fill="#000000">ViennaRNA/params/constants.h</text>
</a>
</g>
</g>
<!-- Node1&#45;&gt;Node2 -->
<g id="edge2" class="edge">
<title>Node1&#45;&gt;Node2</title>
<path fill="none" stroke="#191970" d="M408.9276,-254.6526C302.203,-242.1261 101.8716,-211.3762 64,-154 48.4219,-130.3989 75.5623,-103.5327 97.4816,-87.0471"/>
<polygon fill="#191970" stroke="#191970" points="99.7377,-89.7361 105.8224,-81.0627 95.6569,-84.0486 99.7377,-89.7361"/>
</g>
<!-- Node4 -->
<g id="node5" class="node">
<title>Node4</title>
<g id="a_node5"><a xlink:href="fold__compound_8h.html" target="_top" xlink:title="The Basic Fold Compound API. ">
<polygon fill="none" stroke="#000000" points="691,-190.5 691,-209.5 837,-209.5 837,-190.5 691,-190.5"/>
<text text-anchor="middle" x="764" y="-197.5" font-family="Helvetica,sans-Serif" font-size="10.00" fill="#000000">ViennaRNA/fold_compound.h</text>
</a>
</g>
</g>
<!-- Node1&#45;&gt;Node4 -->
<g id="edge4" class="edge">
<title>Node1&#45;&gt;Node4</title>
<path fill="none" stroke="#191970" d="M543.1597,-247.1586C593.6415,-236.3786 661.9412,-221.7938 709.1565,-211.7114"/>
<polygon fill="#191970" stroke="#191970" points="710.1453,-215.0792 719.1939,-209.568 708.6834,-208.2336 710.1453,-215.0792"/>
</g>
<!-- Node5 -->
<g id="node6" class="node">
<title>Node5</title>
<g id="a_node6"><a xlink:href="model_8h.html" target="_top" xlink:title="The model details data structure and its corresponding modifiers. ">
<polygon fill="none" stroke="#000000" points="499,-62 499,-81 605,-81 605,-62 499,-62"/>
<text text-anchor="middle" x="552" y="-69" font-family="Helvetica,sans-Serif" font-size="10.00" fill="#000000">ViennaRNA/model.h</text>
</a>
</g>
</g>
<!-- Node1&#45;&gt;Node5 -->
<g id="edge28" class="edge">
<title>Node1&#45;&gt;Node5</title>
<path fill="none" stroke="#191970" d="M485.6287,-246.427C498.1897,-226.1539 520.0829,-188.6376 533,-154 540.7517,-133.2138 545.9675,-108.2594 548.9431,-91.2778"/>
<polygon fill="#191970" stroke="#191970" points="552.399,-91.831 550.5791,-81.3937 545.493,-90.6879 552.399,-91.831"/>
</g>
<!-- Node1&#45;&gt;Node6 -->
<g id="edge29" class="edge">
<title>Node1&#45;&gt;Node6</title>
<path fill="none" stroke="#191970" d="M408.9688,-256.6299C356.1725,-250.7013 282.0587,-237.7805 223,-210 194.3984,-196.5462 166.7366,-172.3698 151.9322,-155.8895"/>
<polygon fill="#191970" stroke="#191970" points="154.5124,-153.5183 145.4256,-148.0704 149.1317,-157.9959 154.5124,-153.5183"/>
</g>
<!-- Node8 -->
<g id="node9" class="node">
<title>Node8</title>
<g id="a_node9"><a xlink:href="dp__matrices_8h.html" target="_top" xlink:title="Functions to deal with standard dynamic programming (DP) matrices. ">
<polygon fill="none" stroke="#000000" points="713.5,-129 713.5,-148 846.5,-148 846.5,-129 713.5,-129"/>
<text text-anchor="middle" x="780" y="-136" font-family="Helvetica,sans-Serif" font-size="10.00" fill="#000000">ViennaRNA/dp_matrices.h</text>
</a>
</g>
</g>
<!-- Node1&#45;&gt;Node8 -->
<g id="edge30" class="edge">
<title>Node1&#45;&gt;Node8</title>
<path fill="none" stroke="#191970" d="M508.6621,-246.4178C565.8101,-222.1111 683.1276,-174.6769 743.1088,-151.6584"/>
<polygon fill="#191970" stroke="#191970" points="744.4764,-154.8828 752.5729,-148.0493 741.9821,-148.3422 744.4764,-154.8828"/>
</g>
<!-- Node9 -->
<g id="node10" class="node">
<title>Node9</title>
<g id="a_node10"><a xlink:href="hard_8h.html" target="_top" xlink:title="Functions and data structures for handling of secondary structure hard constraints. ">
<polygon fill="none" stroke="#000000" points="267.5,-123.5 267.5,-153.5 386.5,-153.5 386.5,-123.5 267.5,-123.5"/>
<text text-anchor="start" x="275.5" y="-141.5" font-family="Helvetica,sans-Serif" font-size="10.00" fill="#000000">ViennaRNA/constraints</text>
<text text-anchor="middle" x="327" y="-130.5" font-family="Helvetica,sans-Serif" font-size="10.00" fill="#000000">/hard.h</text>
</a>
</g>
</g>
<!-- Node1&#45;&gt;Node9 -->
<g id="edge31" class="edge">
<title>Node1&#45;&gt;Node9</title>
<path fill="none" stroke="#191970" d="M453.1154,-246.4178C424.5003,-224.9317 376.3443,-185.3741 348.4279,-160.5837"/>
<polygon fill="#191970" stroke="#191970" points="350.5637,-157.797 340.7907,-153.7056 345.8792,-162.9985 350.5637,-157.797"/>
</g>
<!-- Node11 -->
<g id="node12" class="node">
<title>Node11</title>
<g id="a_node12"><a xlink:href="soft_8h.html" target="_top" xlink:title="Functions and data structures for secondary structure soft constraints. ">
<polygon fill="none" stroke="#000000" points="404.5,-123.5 404.5,-153.5 523.5,-153.5 523.5,-123.5 404.5,-123.5"/>
<text text-anchor="start" x="412.5" y="-141.5" font-family="Helvetica,sans-Serif" font-size="10.00" fill="#000000">ViennaRNA/constraints</text>
<text text-anchor="middle" x="464" y="-130.5" font-family="Helvetica,sans-Serif" font-size="10.00" fill="#000000">/soft.h</text>
</a>
</g>
</g>
<!-- Node1&#45;&gt;Node11 -->
<g id="edge32" class="edge">
<title>Node1&#45;&gt;Node11</title>
<path fill="none" stroke="#191970" d="M469.9143,-246.4178C465.4318,-225.8539 461.4876,-188.7363 460.8905,-163.8546"/>
<polygon fill="#191970" stroke="#191970" points="464.3901,-163.693 460.8544,-153.7056 457.3901,-163.718 464.3901,-163.693"/>
</g>
<!-- Node12 -->
<g id="node13" class="node">
<title>Node12</title>
<g id="a_node13"><a xlink:href="grammar_8h.html" target="_top" xlink:title="Implementations for the RNA folding grammar. ">
<polygon fill="none" stroke="#000000" points="1043.5,-129 1043.5,-148 1160.5,-148 1160.5,-129 1043.5,-129"/>
<text text-anchor="middle" x="1102" y="-136" font-family="Helvetica,sans-Serif" font-size="10.00" fill="#000000">ViennaRNA/grammar.h</text>
</a>
</g>
</g>
<!-- Node1&#45;&gt;Node12 -->
<g id="edge33" class="edge">
<title>Node1&#45;&gt;Node12</title>
<path fill="none" stroke="#191970" d="M543.3062,-254.8749C617.8141,-246.9057 741.2365,-231.8184 846,-210 923.9777,-193.7601 1013.1837,-166.9148 1063.0268,-151.1484"/>
<polygon fill="#191970" stroke="#191970" points="1064.2831,-154.4216 1072.7513,-148.0546 1062.1608,-147.7511 1064.2831,-154.4216"/>
</g>
<!-- Node13 -->
<g id="node14" class="node">
<title>Node13</title>
<g id="a_node14"><a xlink:href="structured__domains_8h.html" target="_top" xlink:title="This module provides interfaces that deal with additional structured domains in the folding grammar...">
<polygon fill="none" stroke="#000000" points="580.5,-123.5 580.5,-153.5 695.5,-153.5 695.5,-123.5 580.5,-123.5"/>
<text text-anchor="start" x="588.5" y="-141.5" font-family="Helvetica,sans-Serif" font-size="10.00" fill="#000000">ViennaRNA/structured</text>
<text text-anchor="middle" x="638" y="-130.5" font-family="Helvetica,sans-Serif" font-size="10.00" fill="#000000">_domains.h</text>
</a>
</g>
</g>
<!-- Node1&#45;&gt;Node13 -->
<g id="edge34" class="edge">
<title>Node1&#45;&gt;Node13</title>
<path fill="none" stroke="#191970" d="M506.8315,-246.4397C524.8157,-237.0366 547.5243,-224.0695 566,-210 585.0389,-195.5016 604.1458,-176.2572 617.8877,-161.3861"/>
<polygon fill="#191970" stroke="#191970" points="620.7994,-163.3863 624.9356,-153.6322 615.6194,-158.678 620.7994,-163.3863"/>
</g>
<!-- Node14 -->
<g id="node15" class="node">
<title>Node14</title>
<g id="a_node15"><a xlink:href="unstructured__domains_8h.html" target="_top" xlink:title="Functions to modify unstructured domains, e.g. to incorporate ligands binding to unpaired stretches...">
<polygon fill="none" stroke="#000000" points="1235.5,-123.5 1235.5,-153.5 1360.5,-153.5 1360.5,-123.5 1235.5,-123.5"/>
<text text-anchor="start" x="1243.5" y="-141.5" font-family="Helvetica,sans-Serif" font-size="10.00" fill="#000000">ViennaRNA/unstructured</text>
<text text-anchor="middle" x="1298" y="-130.5" font-family="Helvetica,sans-Serif" font-size="10.00" fill="#000000">_domains.h</text>
</a>
</g>
</g>
<!-- Node1&#45;&gt;Node14 -->
<g id="edge35" class="edge">
<title>Node1&#45;&gt;Node14</title>
<path fill="none" stroke="#191970" d="M543.426,-255.1643C578.2094,-252.2477 621.2772,-248.8175 660,-246 782.6032,-237.0794 1099.1023,-258.6335 1212,-210 1236.1889,-199.58 1257.5847,-178.172 1273.2588,-161.4839"/>
<polygon fill="#191970" stroke="#191970" points="1276.2205,-163.4399 1280.4809,-153.7395 1271.1011,-158.6658 1276.2205,-163.4399"/>
</g>
<!-- Node15 -->
<g id="node16" class="node">
<title>Node15</title>
<g id="a_node16"><a xlink:href="utils_2structures_8h.html" target="_top" xlink:title="Various utility&#45; and helper&#45;functions for secondary structure parsing, converting, etc. ">
<polygon fill="none" stroke="#000000" points="1126,-62 1126,-81 1270,-81 1270,-62 1126,-62"/>
<text text-anchor="middle" x="1198" y="-69" font-family="Helvetica,sans-Serif" font-size="10.00" fill="#000000">ViennaRNA/utils/structures.h</text>
</a>
</g>
</g>
<!-- Node1&#45;&gt;Node15 -->
<g id="edge36" class="edge">
<title>Node1&#45;&gt;Node15</title>
<path fill="none" stroke="#191970" d="M543.0503,-254.7929C706.4214,-238.4533 1114.6892,-194.9208 1161,-154 1179.0971,-138.0092 1185.5119,-109.8735 1189.9606,-90.9624"/>
<polygon fill="#191970" stroke="#191970" points="1193.4075,-91.6047 1192.4262,-81.0554 1186.6147,-89.9141 1193.4075,-91.6047"/>
</g>
<!-- Node3 -->
<g id="node4" class="node">
<title>Node3</title>
<polygon fill="none" stroke="#bfbfbf" points="97,-.5 97,-19.5 145,-19.5 145,-.5 97,-.5"/>
<text text-anchor="middle" x="121" y="-7.5" font-family="Helvetica,sans-Serif" font-size="10.00" fill="#000000">limits.h</text>
</g>
<!-- Node2&#45;&gt;Node3 -->
<g id="edge3" class="edge">
<title>Node2&#45;&gt;Node3</title>
<path fill="none" stroke="#191970" d="M121,-61.8906C121,-53.3657 121,-40.6392 121,-29.9235"/>
<polygon fill="#191970" stroke="#191970" points="124.5001,-29.7448 121,-19.7449 117.5001,-29.7449 124.5001,-29.7448"/>
</g>
<!-- Node4&#45;&gt;Node5 -->
<g id="edge5" class="edge">
<title>Node4&#45;&gt;Node5</title>
<path fill="none" stroke="#191970" d="M804.2925,-190.4495C823.4658,-183.6623 844.6402,-172.3805 856,-154 863.2434,-142.2799 864.8916,-133.5246 856,-123 840.6259,-104.8024 699.6388,-87.0108 615.1666,-77.8597"/>
<polygon fill="#191970" stroke="#191970" points="615.4735,-74.3726 605.1575,-76.7871 614.7276,-81.3328 615.4735,-74.3726"/>
</g>
<!-- Node4&#45;&gt;Node6 -->
<g id="edge6" class="edge">
<title>Node4&#45;&gt;Node6</title>
<path fill="none" stroke="#191970" d="M690.7286,-194.2708C592.3911,-186.3655 412.3299,-171.1326 259,-154 246.5474,-152.6086 233.3678,-150.9975 220.5191,-149.351"/>
<polygon fill="#191970" stroke="#191970" points="220.673,-145.8417 210.3059,-148.0265 219.7727,-152.7836 220.673,-145.8417"/>
</g>
<!-- Node7 -->
<g id="node8" class="node">
<title>Node7</title>
<g id="a_node8"><a xlink:href="sequence_8h.html" target="_top" xlink:title="Functions and data structures related to sequence representations ,. ">
<polygon fill="none" stroke="#000000" points="903,-129 903,-148 1025,-148 1025,-129 903,-129"/>
<text text-anchor="middle" x="964" y="-136" font-family="Helvetica,sans-Serif" font-size="10.00" fill="#000000">ViennaRNA/sequence.h</text>
</a>
</g>
</g>
<!-- Node4&#45;&gt;Node7 -->
<g id="edge10" class="edge">
<title>Node4&#45;&gt;Node7</title>
<path fill="none" stroke="#191970" d="M795.25,-190.3906C829.7411,-179.7846 885.3812,-162.6753 923.2662,-151.0257"/>
<polygon fill="#191970" stroke="#191970" points="924.4399,-154.3266 932.9694,-148.0419 922.3824,-147.6357 924.4399,-154.3266"/>
</g>
<!-- Node4&#45;&gt;Node8 -->
<g id="edge11" class="edge">
<title>Node4&#45;&gt;Node8</title>
<path fill="none" stroke="#191970" d="M766.5,-190.3906C768.7412,-181.776 772.0986,-168.8708 774.9045,-158.0858"/>
<polygon fill="#191970" stroke="#191970" points="778.3341,-158.804 777.4648,-148.2449 771.5596,-157.0414 778.3341,-158.804"/>
</g>
<!-- Node4&#45;&gt;Node9 -->
<g id="edge13" class="edge">
<title>Node4&#45;&gt;Node9</title>
<path fill="none" stroke="#191970" d="M690.7258,-192.948C618.4895,-185.5173 504.7844,-172.5422 396.8579,-154.0457"/>
<polygon fill="#191970" stroke="#191970" points="397.2191,-150.5562 386.7683,-152.2973 396.0238,-157.4534 397.2191,-150.5562"/>
</g>
<!-- Node4&#45;&gt;Node11 -->
<g id="edge17" class="edge">
<title>Node4&#45;&gt;Node11</title>
<path fill="none" stroke="#191970" d="M717.4542,-190.4581C668.2377,-180.3687 590.0497,-164.3402 533.5229,-152.7522"/>
<polygon fill="#191970" stroke="#191970" points="534.0854,-149.2948 523.5863,-150.7152 532.6796,-156.1522 534.0854,-149.2948"/>
</g>
<!-- Node4&#45;&gt;Node12 -->
<g id="edge20" class="edge">
<title>Node4&#45;&gt;Node12</title>
<path fill="none" stroke="#191970" d="M818.7412,-190.4629C871.6801,-181.7674 953.8801,-168.1527 1025,-154 1030.7819,-152.8494 1036.8241,-151.5758 1042.8804,-150.2677"/>
<polygon fill="#191970" stroke="#191970" points="1044.0193,-153.6016 1053.0426,-148.0491 1042.5261,-146.7626 1044.0193,-153.6016"/>
</g>
<!-- Node4&#45;&gt;Node13 -->
<g id="edge22" class="edge">
<title>Node4&#45;&gt;Node13</title>
<path fill="none" stroke="#191970" d="M744.3125,-190.3906C726.6284,-181.7591 700.1194,-168.8202 677.997,-158.0224"/>
<polygon fill="#191970" stroke="#191970" points="679.345,-154.7857 668.8231,-153.5446 676.2745,-161.0763 679.345,-154.7857"/>
</g>
<!-- Node4&#45;&gt;Node14 -->
<g id="edge23" class="edge">
<title>Node4&#45;&gt;Node14</title>
<path fill="none" stroke="#191970" d="M837.3644,-191.8594C918.6924,-182.7952 1053.7494,-167.624 1170,-154 1187.8315,-151.9102 1207.0539,-149.6085 1225.0454,-147.4327"/>
<polygon fill="#191970" stroke="#191970" points="1225.6794,-150.8816 1235.1857,-146.204 1224.8373,-143.9324 1225.6794,-150.8816"/>
</g>
<!-- Node6&#45;&gt;Node1 -->
<g id="edge8" class="edge">
<title>Node6&#45;&gt;Node1</title>
<path fill="none" stroke="#191970" d="M156.5217,-148.0704C175.1216,-163.6156 207.4128,-194.201 241,-210 290.9117,-233.4779 351.5762,-246.3425 398.82,-253.3429"/>
<polygon fill="#191970" stroke="#191970" points="398.5998,-256.8467 408.9933,-254.791 399.5863,-249.9166 398.5998,-256.8467"/>
</g>
<!-- Node6&#45;&gt;Node2 -->
<g id="edge7" class="edge">
<title>Node6&#45;&gt;Node2</title>
<path fill="none" stroke="#191970" d="M138.9912,-128.9005C135.9036,-119.0495 131.0126,-103.4451 127.1092,-90.9912"/>
<polygon fill="#191970" stroke="#191970" points="130.3339,-89.5771 124.0032,-81.0817 123.6543,-91.6707 130.3339,-89.5771"/>
</g>
<!-- Node6&#45;&gt;Node5 -->
<g id="edge9" class="edge">
<title>Node6&#45;&gt;Node5</title>
<path fill="none" stroke="#191970" d="M200.3076,-128.9717C276.5829,-116.5072 409.7554,-94.7449 488.5107,-81.8751"/>
<polygon fill="#191970" stroke="#191970" points="489.4748,-85.264 498.7794,-80.197 488.3458,-78.3557 489.4748,-85.264"/>
</g>
<!-- Node8&#45;&gt;Node1 -->
<g id="edge12" class="edge">
<title>Node8&#45;&gt;Node1</title>
<path fill="none" stroke="#191970" d="M760.2243,-148.0493C713.5541,-168.3266 596.1217,-216.0023 527.6271,-242.6452"/>
<polygon fill="#191970" stroke="#191970" points="525.9506,-239.5412 517.8906,-246.4178 528.4797,-246.0684 525.9506,-239.5412"/>
</g>
<!-- Node9&#45;&gt;Node1 -->
<g id="edge14" class="edge">
<title>Node9&#45;&gt;Node1</title>
<path fill="none" stroke="#191970" d="M349.7924,-153.513C378.4431,-175.0185 426.784,-214.7293 454.7095,-239.5384"/>
<polygon fill="#191970" stroke="#191970" points="452.5721,-242.3237 462.3439,-246.4178 457.258,-237.1235 452.5721,-242.3237"/>
</g>
<!-- Node10 -->
<g id="node11" class="node">
<title>Node10</title>
<g id="a_node11"><a xlink:href="constraints_2basic_8h.html" target="_top" xlink:title="Functions and data structures for constraining secondary structure predictions and evaluation...">
<polygon fill="none" stroke="#000000" points="267.5,-56.5 267.5,-86.5 386.5,-86.5 386.5,-56.5 267.5,-56.5"/>
<text text-anchor="start" x="275.5" y="-74.5" font-family="Helvetica,sans-Serif" font-size="10.00" fill="#000000">ViennaRNA/constraints</text>
<text text-anchor="middle" x="327" y="-63.5" font-family="Helvetica,sans-Serif" font-size="10.00" fill="#000000">/basic.h</text>
</a>
</g>
</g>
<!-- Node9&#45;&gt;Node10 -->
<g id="edge15" class="edge">
<title>Node9&#45;&gt;Node10</title>
<path fill="none" stroke="#191970" d="M327,-123.2967C327,-115.5013 327,-105.7991 327,-96.9064"/>
<polygon fill="#191970" stroke="#191970" points="330.5001,-96.6431 327,-86.6432 323.5001,-96.6432 330.5001,-96.6431"/>
</g>
<!-- Node10&#45;&gt;Node1 -->
<g id="edge16" class="edge">
<title>Node10&#45;&gt;Node1</title>
<path fill="none" stroke="#191970" d="M295.8046,-86.6198C281.8335,-95.1874 266.7783,-107.3517 259,-123 252.8673,-135.3376 251.735,-142.2933 259,-154 289.5002,-203.1471 349.8906,-230.517 399.2355,-245.3221"/>
<polygon fill="#191970" stroke="#191970" points="398.367,-248.7142 408.945,-248.1183 400.3042,-241.9876 398.367,-248.7142"/>
</g>
<!-- Node11&#45;&gt;Node1 -->
<g id="edge18" class="edge">
<title>Node11&#45;&gt;Node1</title>
<path fill="none" stroke="#191970" d="M470.1125,-153.7056C474.5929,-174.3355 478.5293,-211.4615 479.113,-236.2943"/>
<polygon fill="#191970" stroke="#191970" points="475.6133,-236.4282 479.1428,-246.4178 482.6133,-236.4075 475.6133,-236.4282"/>
</g>
<!-- Node11&#45;&gt;Node10 -->
<g id="edge19" class="edge">
<title>Node11&#45;&gt;Node10</title>
<path fill="none" stroke="#191970" d="M433.2545,-123.4639C413.7376,-113.9191 388.2743,-101.4663 367.1675,-91.144"/>
<polygon fill="#191970" stroke="#191970" points="368.6378,-87.9669 358.1169,-86.7177 365.5625,-94.2552 368.6378,-87.9669"/>
</g>
<!-- Node12&#45;&gt;Node4 -->
<g id="edge21" class="edge">
<title>Node12&#45;&gt;Node4</title>
<path fill="none" stroke="#191970" d="M1070.5716,-148.0491C1061.6851,-150.1082 1052.0254,-152.204 1043,-154 976.0473,-167.3234 899.2749,-180.1701 843.1655,-188.8846"/>
<polygon fill="#191970" stroke="#191970" points="842.2855,-185.4789 832.9361,-190.4629 843.3529,-192.397 842.2855,-185.4789"/>
</g>
<!-- Node14&#45;&gt;Node1 -->
<g id="edge24" class="edge">
<title>Node14&#45;&gt;Node1</title>
<path fill="none" stroke="#191970" d="M1293.3937,-153.7395C1282.5122,-170.8716 1258.1471,-197.875 1230,-210 1117.1023,-258.6335 800.6032,-237.0794 678,-246 637.0889,-248.9767 591.3277,-252.6374 553.661,-255.6537"/>
<polygon fill="#191970" stroke="#191970" points="552.9512,-252.1992 543.2624,-256.4862 553.5099,-259.1769 552.9512,-252.1992"/>
</g>
<!-- Node14&#45;&gt;Node15 -->
<g id="edge25" class="edge">
<title>Node14&#45;&gt;Node15</title>
<path fill="none" stroke="#191970" d="M1275.3085,-123.2967C1258.9717,-112.351 1237.0241,-97.6462 1220.6881,-86.701"/>
<polygon fill="#191970" stroke="#191970" points="1222.517,-83.7135 1212.2612,-81.055 1218.6207,-89.5289 1222.517,-83.7135"/>
</g>
<!-- Node15&#45;&gt;Node1 -->
<g id="edge27" class="edge">
<title>Node15&#45;&gt;Node1</title>
<path fill="none" stroke="#191970" d="M1202.9505,-81.0554C1205.5799,-98.3618 1200.6488,-134.8708 1179,-154 1132.7819,-194.8389 726.054,-238.279 553.1457,-254.6945"/>
<polygon fill="#191970" stroke="#191970" points="552.7224,-251.2188 543.0955,-255.6431 553.3802,-258.1878 552.7224,-251.2188"/>
</g>
<!-- Node16 -->
<g id="node17" class="node">
<title>Node16</title>
<polygon fill="none" stroke="#bfbfbf" points="669,-.5 669,-19.5 715,-19.5 715,-.5 669,-.5"/>
<text text-anchor="middle" x="692" y="-7.5" font-family="Helvetica,sans-Serif" font-size="10.00" fill="#000000">stdio.h</text>
</g>
<!-- Node15&#45;&gt;Node16 -->
<g id="edge26" class="edge">
<title>Node15&#45;&gt;Node16</title>
<path fill="none" stroke="#191970" d="M1125.7714,-62.7212C1014.5775,-49.2065 805.8661,-23.8395 725.0958,-14.0225"/>
<polygon fill="#191970" stroke="#191970" points="725.3599,-10.5289 715.0106,-12.7967 724.5153,-17.4778 725.3599,-10.5289"/>
</g>
<!-- Node18&#45;&gt;Node1 -->
<g id="edge41" class="edge">
<title>Node18&#45;&gt;Node1</title>
<path fill="none" stroke="#191970" d="M150.2851,-318.9447C158.6999,-316.8635 167.64,-314.76 176,-313 251.314,-297.1446 338.0326,-282.6613 398.803,-273.1206"/>
<polygon fill="#191970" stroke="#191970" points="399.3646,-276.5754 408.7046,-271.5738 398.2841,-269.6593 399.3646,-276.5754"/>
</g>
<!-- Node18&#45;&gt;Node16 -->
<g id="edge40" class="edge">
<title>Node18&#45;&gt;Node16</title>
<path fill="none" stroke="#191970" d="M95.6839,-318.8709C63.4588,-300.4561 0,-256.9617 0,-200 0,-200 0,-200 0,-138.5 0,-99.0088 1.0898,-79.2657 33,-56 83.8205,-18.9468 531.3948,-11.6188 658.4833,-10.2801"/>
<polygon fill="#191970" stroke="#191970" points="658.7964,-13.7773 668.761,-10.1777 658.7266,-6.7776 658.7964,-13.7773"/>
</g>
<!-- Node19&#45;&gt;Node1 -->
<g id="edge43" class="edge">
<title>Node19&#45;&gt;Node1</title>
<path fill="none" stroke="#191970" d="M347.4476,-380.3416C369.4715,-359.9814 421.1564,-312.2007 451.863,-283.8137"/>
<polygon fill="#191970" stroke="#191970" points="454.5891,-286.06 459.5562,-276.7016 449.8373,-280.9199 454.5891,-286.06"/>
</g>
<!-- Node19&#45;&gt;Node6 -->
<g id="edge44" class="edge">
<title>Node19&#45;&gt;Node6</title>
<path fill="none" stroke="#191970" d="M308.2884,-380.4912C289.0997,-372.9894 264.2982,-360.9462 247,-344 191.0177,-289.1566 159.2834,-198.1442 147.4266,-158.2563"/>
<polygon fill="#191970" stroke="#191970" points="150.7302,-157.0795 144.6058,-148.4341 144.0021,-159.0117 150.7302,-157.0795"/>
</g>
<!-- Node20 -->
<g id="node21" class="node">
<title>Node20</title>
<g id="a_node21"><a xlink:href="centroid_8h.html" target="_top" xlink:title="Centroid structure computation. ">
<polygon fill="none" stroke="#000000" points="564,-319 564,-338 678,-338 678,-319 564,-319"/>
<text text-anchor="middle" x="621" y="-326" font-family="Helvetica,sans-Serif" font-size="10.00" fill="#000000">ViennaRNA/centroid.h</text>
</a>
</g>
</g>
<!-- Node19&#45;&gt;Node20 -->
<g id="edge45" class="edge">
<title>Node19&#45;&gt;Node20</title>
<path fill="none" stroke="#191970" d="M383.8442,-380.436C428.0355,-371.3377 496.1036,-357.1279 555,-344 560.1104,-342.8609 565.4377,-341.6496 570.7521,-340.4257"/>
<polygon fill="#191970" stroke="#191970" points="571.9457,-343.7418 580.8958,-338.072 570.3635,-336.923 571.9457,-343.7418"/>
</g>
<!-- Node21 -->
<g id="node22" class="node">
<title>Node21</title>
<g id="a_node22"><a xlink:href="equilibrium__probs_8h.html" target="_top" xlink:title="Equilibrium Probability implementations. ">
<polygon fill="none" stroke="#000000" points="256,-313.5 256,-343.5 374,-343.5 374,-313.5 256,-313.5"/>
<text text-anchor="start" x="264" y="-331.5" font-family="Helvetica,sans-Serif" font-size="10.00" fill="#000000">ViennaRNA/equilibrium</text>
<text text-anchor="middle" x="315" y="-320.5" font-family="Helvetica,sans-Serif" font-size="10.00" fill="#000000">_probs.h</text>
</a>
</g>
</g>
<!-- Node19&#45;&gt;Node21 -->
<g id="edge48" class="edge">
<title>Node19&#45;&gt;Node21</title>
<path fill="none" stroke="#191970" d="M333.5625,-380.3906C330.9435,-373.0692 327.2158,-362.6488 323.7874,-353.0647"/>
<polygon fill="#191970" stroke="#191970" points="327.0456,-351.7814 320.3818,-343.5446 320.4546,-354.1392 327.0456,-351.7814"/>
</g>
<!-- Node19&#45;&gt;Node22 -->
<g id="edge51" class="edge">
<title>Node19&#45;&gt;Node22</title>
<path fill="none" stroke="#191970" d="M360.5938,-380.3906C382.1651,-371.6049 414.6933,-358.3567 441.4822,-347.446"/>
<polygon fill="#191970" stroke="#191970" points="443.1201,-350.5581 451.0612,-343.5446 440.4797,-344.0752 443.1201,-350.5581"/>
</g>
<!-- Node20&#45;&gt;Node1 -->
<g id="edge46" class="edge">
<title>Node20&#45;&gt;Node1</title>
<path fill="none" stroke="#191970" d="M600.225,-318.9005C578.79,-308.9961 544.7681,-293.2756 517.7444,-280.7888"/>
<polygon fill="#191970" stroke="#191970" points="519.0557,-277.5392 508.5098,-276.5218 516.1194,-283.8936 519.0557,-277.5392"/>
</g>
<!-- Node20&#45;&gt;Node15 -->
<g id="edge47" class="edge">
<title>Node20&#45;&gt;Node15</title>
<path fill="none" stroke="#191970" d="M678.0303,-325.167C840.1221,-314.2794 1296.5545,-273.3166 1370,-154 1395.344,-112.8271 1335.8505,-91.7841 1280.0357,-81.3017"/>
<polygon fill="#191970" stroke="#191970" points="1280.4991,-77.8293 1270.041,-79.5257 1279.2744,-84.7213 1280.4991,-77.8293"/>
</g>
<!-- Node21&#45;&gt;Node1 -->
<g id="edge49" class="edge">
<title>Node21&#45;&gt;Node1</title>
<path fill="none" stroke="#191970" d="M351.1315,-313.4639C374.561,-303.7137 405.2828,-290.9289 430.3901,-280.4805"/>
<polygon fill="#191970" stroke="#191970" points="431.8231,-283.6752 439.7109,-276.6017 429.1336,-277.2125 431.8231,-283.6752"/>
</g>
<!-- Node21&#45;&gt;Node6 -->
<g id="edge50" class="edge">
<title>Node21&#45;&gt;Node6</title>
<path fill="none" stroke="#191970" d="M297.8819,-313.1631C273.8316,-291.2753 229.1604,-249.3605 195,-210 179.9032,-192.605 164.418,-171.2257 154.1152,-156.3996"/>
<polygon fill="#191970" stroke="#191970" points="156.9672,-154.3699 148.4198,-148.1094 151.1975,-158.3337 156.9672,-154.3699"/>
</g>
<!-- Node22&#45;&gt;Node1 -->
<g id="edge52" class="edge">
<title>Node22&#45;&gt;Node1</title>
<path fill="none" stroke="#191970" d="M485.277,-313.2967C483.8655,-305.4156 482.1049,-295.5857 480.4979,-286.6135"/>
<polygon fill="#191970" stroke="#191970" points="483.9205,-285.8695 478.7122,-276.6432 477.0301,-287.1036 483.9205,-285.8695"/>
</g>
<!-- Node23&#45;&gt;Node4 -->
<g id="edge54" class="edge">
<title>Node23&#45;&gt;Node4</title>
<path fill="none" stroke="#191970" d="M753.875,-251.8906C755.5559,-243.276 758.074,-230.3708 760.1784,-219.5858"/>
<polygon fill="#191970" stroke="#191970" points="763.6186,-220.2301 762.0986,-209.7449 756.7482,-218.8895 763.6186,-220.2301"/>
</g>
</g>
</svg>
        <g id="navigator" transform="translate(0 0)" fill="#404254">
                <rect fill="#f2f5e9" fill-opacity="0.5" stroke="#606060" stroke-width=".5" x="0" y="0" width="60" height="60"/>
                <use id="zoomplus" xlink:href="#zoomPlus" x="17" y="9" onmousedown="handleZoom(evt,'in')"/>
                <use id="zoomminus" xlink:href="#zoomMin" x="42" y="9" onmousedown="handleZoom(evt,'out')"/>
                <use id="reset" xlink:href="#resetDef" x="30" y="36" onmousedown="handleReset()"/>
                <g id="arrowUp" xlink:href="#dirArrow" transform="translate(30 24)" onmousedown="handlePan(0,-1)">
                  <use xlink:href="#rim" fill="#404040">
                        <set attributeName="fill" to="#808080" begin="arrowUp.mouseover" end="arrowUp.mouseout"/>
                  </use>
                  <path fill="none" stroke="white" stroke-width="1.5" d="M0,-3.0v7 M-2.5,-0.5L0,-3.0L2.5,-0.5"/>
                </g>
                <g id="arrowRight" xlink:href="#dirArrow" transform="rotate(90) translate(36 -43)" onmousedown="handlePan(1,0)">
                  <use xlink:href="#rim" fill="#404040">
                        <set attributeName="fill" to="#808080" begin="arrowRight.mouseover" end="arrowRight.mouseout"/>
                  </use>
                  <path fill="none" stroke="white" stroke-width="1.5" d="M0,-3.0v7 M-2.5,-0.5L0,-3.0L2.5,-0.5"/>
                </g>
                <g id="arrowDown" xlink:href="#dirArrow" transform="rotate(180) translate(-30 -48)" onmousedown="handlePan(0,1)">
                  <use xlink:href="#rim" fill="#404040">
                        <set attributeName="fill" to="#808080" begin="arrowDown.mouseover" end="arrowDown.mouseout"/>
                  </use>
                  <path fill="none" stroke="white" stroke-width="1.5" d="M0,-3.0v7 M-2.5,-0.5L0,-3.0L2.5,-0.5"/>
                </g>
                <g id="arrowLeft" xlink:href="#dirArrow" transform="rotate(270) translate(-36 17)" onmousedown="handlePan(-1,0)">
                  <use xlink:href="#rim" fill="#404040">
                        <set attributeName="fill" to="#808080" begin="arrowLeft.mouseover" end="arrowLeft.mouseout"/>
                  </use>
                  <path fill="none" stroke="white" stroke-width="1.5" d="M0,-3.0v7 M-2.5,-0.5L0,-3.0L2.5,-0.5"/>
                </g>
        </g>
        <svg viewBox="0 0 15 15" width="100%" height="30px" preserveAspectRatio="xMaxYMin meet">
         <g id="arrow_out" transform="scale(0.3 0.3)">
          <a xlink:href="alifold_8h__incl_org.svg" target="_base">
           <rect id="button" ry="5" rx="5" y="6" x="6" height="38" width="38"
                fill="#f2f5e9" fill-opacity="0.5" stroke="#606060" stroke-width="1.0"/>
           <path id="arrow"
             d="M 11.500037,31.436501 C 11.940474,20.09759 22.043105,11.32322 32.158766,21.979434 L 37.068811,17.246167 C 37.068811,17.246167 37.088388,32 37.088388,32 L 22.160133,31.978069 C 22.160133,31.978069 26.997745,27.140456 26.997745,27.140456 C 18.528582,18.264221 13.291696,25.230495 11.500037,31.436501 z"
             style="fill:#404040;"/>
          </a>
         </g>
        </svg>
</svg>
