<?xml version="1.0" encoding="UTF-8" standalone="no"?>
<!DOCTYPE svg PUBLIC "-//W3C//DTD SVG 1.1//EN"
 "http://www.w3.org/Graphics/SVG/1.1/DTD/svg11.dtd">
<!-- Generated by graphviz version 2.40.1 (20161225.0304)
 -->
<!-- Title: ViennaRNA/centroid.h Pages: 1 -->
<!--zoomable 341 -->
<svg id="main" version="1.1" xmlns="http://www.w3.org/2000/svg" xmlns:xlink="http://www.w3.org/1999/xlink" xml:space="preserve" onload="init(evt)">
<style type="text/css"><![CDATA[
.edge:hover path { stroke: red; }
.edge:hover polygon { stroke: red; fill: red; }
]]></style>
<script type="text/javascript"><![CDATA[
var edges = document.getElementsByTagName('g');
if (edges && edges.length) {
  for (var i=0;i<edges.length;i++) {
    if (edges[i].id.substr(0,4)=='edge') {
      edges[i].setAttribute('class','edge');
    }
  }
}
]]></script>
        <defs>
                <circle id="rim" cx="0" cy="0" r="7"/>
                <circle id="rim2" cx="0" cy="0" r="3.5"/>
                <g id="zoomPlus">
                        <use xlink:href="#rim" fill="#404040">
                                <set attributeName="fill" to="#808080" begin="zoomplus.mouseover" end="zoomplus.mouseout"/>
                        </use>
                        <path d="M-4,0h8M0,-4v8" fill="none" stroke="white" stroke-width="1.5" pointer-events="none"/>
                </g>
                <g id="zoomMin">
                        <use xlink:href="#rim" fill="#404040">
                                <set attributeName="fill" to="#808080" begin="zoomminus.mouseover" end="zoomminus.mouseout"/>
                        </use>
                        <path d="M-4,0h8" fill="none" stroke="white" stroke-width="1.5" pointer-events="none"/>
                </g>
                <g id="dirArrow">
                        <path fill="none" stroke="white" stroke-width="1.5" d="M0,-3.0v7 M-2.5,-0.5L0,-3.0L2.5,-0.5"/>
                </g>
               <g id="resetDef">
                       <use xlink:href="#rim2" fill="#404040">
                               <set attributeName="fill" to="#808080" begin="reset.mouseover" end="reset.mouseout"/>
                       </use>
               </g>
        </defs>

<script type="text/javascript">
var viewWidth = 1366;
var viewHeight = 341;
var sectionId = 'dynsection-0';
</script>
<script xlink:href="svgpan.js"/>
<svg id="graph" class="graph">
<g id="viewport">
<title>ViennaRNA/centroid.h</title>
<!-- Node0 -->
<g id="node1" class="node">
<title>Node0</title>
<polygon fill="#bfbfbf" stroke="#000000" points="1043.6566,-313.5 1043.6566,-332.5 1157.6566,-332.5 1157.6566,-313.5 1043.6566,-313.5"/>
<text text-anchor="middle" x="1100.6566" y="-320.5" font-family="Helvetica,sans-Serif" font-size="10.00" fill="#000000">ViennaRNA/centroid.h</text>
</g>
<!-- Node1 -->
<g id="node2" class="node">
<title>Node1</title>
<g id="a_node2"><a xlink:href="datastructures_2basic_8h.html" target="_top" xlink:title="Various data structures and pre&#45;processor macros. ">
<polygon fill="none" stroke="#000000" points="802.6566,-246.5 802.6566,-276.5 936.6566,-276.5 936.6566,-246.5 802.6566,-246.5"/>
<text text-anchor="start" x="810.6566" y="-264.5" font-family="Helvetica,sans-Serif" font-size="10.00" fill="#000000">ViennaRNA/datastructures</text>
<text text-anchor="middle" x="869.6566" y="-253.5" font-family="Helvetica,sans-Serif" font-size="10.00" fill="#000000">/basic.h</text>
</a>
</g>
</g>
<!-- Node0&#45;&gt;Node1 -->
<g id="edge1" class="edge">
<title>Node0&#45;&gt;Node1</title>
<path fill="none" stroke="#191970" d="M1064.8163,-313.4581C1030.5588,-304.3376 978.0719,-290.3638 936.1552,-279.2042"/>
<polygon fill="#191970" stroke="#191970" points="936.8565,-275.769 926.2926,-276.5784 935.0556,-282.5334 936.8565,-275.769"/>
</g>
<!-- Node15 -->
<g id="node16" class="node">
<title>Node15</title>
<g id="a_node16"><a xlink:href="utils_2structures_8h.html" target="_top" xlink:title="Various utility&#45; and helper&#45;functions for secondary structure parsing, converting, etc. ">
<polygon fill="none" stroke="#000000" points="1213.6566,-62 1213.6566,-81 1357.6566,-81 1357.6566,-62 1213.6566,-62"/>
<text text-anchor="middle" x="1285.6566" y="-69" font-family="Helvetica,sans-Serif" font-size="10.00" fill="#000000">ViennaRNA/utils/structures.h</text>
</a>
</g>
</g>
<!-- Node0&#45;&gt;Node15 -->
<g id="edge37" class="edge">
<title>Node0&#45;&gt;Node15</title>
<path fill="none" stroke="#191970" d="M1119.1789,-313.4603C1159.2218,-291.6439 1253.1011,-233.7719 1288.6566,-154 1297.5593,-134.0261 1294.7841,-108.5553 1291.0889,-91.2352"/>
<polygon fill="#191970" stroke="#191970" points="1294.4051,-90.0599 1288.6412,-81.1702 1287.6034,-91.714 1294.4051,-90.0599"/>
</g>
<!-- Node2 -->
<g id="node3" class="node">
<title>Node2</title>
<g id="a_node3"><a xlink:href="constants_8h.html" target="_top" xlink:title="Energy parameter constants. ">
<polygon fill="none" stroke="#000000" points="33.6566,-62 33.6566,-81 191.6566,-81 191.6566,-62 33.6566,-62"/>
<text text-anchor="middle" x="112.6566" y="-69" font-family="Helvetica,sans-Serif" font-size="10.00" fill="#000000">ViennaRNA/params/constants.h</text>
</a>
</g>
</g>
<!-- Node1&#45;&gt;Node2 -->
<g id="edge2" class="edge">
<title>Node1&#45;&gt;Node2</title>
<path fill="none" stroke="#191970" d="M802.3496,-258.3315C608.1064,-248.4831 57.1746,-215.3279 6.6566,-154 -17.6048,-124.5472 32.457,-99.0397 71.741,-84.4673"/>
<polygon fill="#191970" stroke="#191970" points="73.2038,-87.6614 81.4444,-81.0023 70.8498,-81.0691 73.2038,-87.6614"/>
</g>
<!-- Node4 -->
<g id="node5" class="node">
<title>Node4</title>
<g id="a_node5"><a xlink:href="fold__compound_8h.html" target="_top" xlink:title="The Basic Fold Compound API. ">
<polygon fill="none" stroke="#000000" points="536.6566,-190.5 536.6566,-209.5 682.6566,-209.5 682.6566,-190.5 536.6566,-190.5"/>
<text text-anchor="middle" x="609.6566" y="-197.5" font-family="Helvetica,sans-Serif" font-size="10.00" fill="#000000">ViennaRNA/fold_compound.h</text>
</a>
</g>
</g>
<!-- Node1&#45;&gt;Node4 -->
<g id="edge4" class="edge">
<title>Node1&#45;&gt;Node4</title>
<path fill="none" stroke="#191970" d="M806.0535,-246.4554C761.0545,-235.8114 701.5469,-221.7356 659.8737,-211.8783"/>
<polygon fill="#191970" stroke="#191970" points="660.4845,-208.4262 649.9474,-209.5303 658.8732,-215.2383 660.4845,-208.4262"/>
</g>
<!-- Node5 -->
<g id="node6" class="node">
<title>Node5</title>
<g id="a_node6"><a xlink:href="model_8h.html" target="_top" xlink:title="The model details data structure and its corresponding modifiers. ">
<polygon fill="none" stroke="#000000" points="556.6566,-62 556.6566,-81 662.6566,-81 662.6566,-62 556.6566,-62"/>
<text text-anchor="middle" x="609.6566" y="-69" font-family="Helvetica,sans-Serif" font-size="10.00" fill="#000000">ViennaRNA/model.h</text>
</a>
</g>
</g>
<!-- Node1&#45;&gt;Node5 -->
<g id="edge28" class="edge">
<title>Node1&#45;&gt;Node5</title>
<path fill="none" stroke="#191970" d="M861.8479,-246.2049C846.6041,-217.8275 810.1767,-156.8425 762.6566,-123 735.6852,-103.7916 701.0219,-91.344 671.5109,-83.508"/>
<polygon fill="#191970" stroke="#191970" points="672.2725,-80.0904 661.7189,-81.0242 670.5514,-86.8755 672.2725,-80.0904"/>
</g>
<!-- Node6 -->
<g id="node7" class="node">
<title>Node6</title>
<g id="a_node7"><a xlink:href="params_2basic_8h.html" target="_top" xlink:title="Functions to deal with sets of energy parameters. ">
<polygon fill="none" stroke="#000000" points="167.6566,-129 167.6566,-148 305.6566,-148 305.6566,-129 167.6566,-129"/>
<text text-anchor="middle" x="236.6566" y="-136" font-family="Helvetica,sans-Serif" font-size="10.00" fill="#000000">ViennaRNA/params/basic.h</text>
</a>
</g>
</g>
<!-- Node1&#45;&gt;Node6 -->
<g id="edge29" class="edge">
<title>Node1&#45;&gt;Node6</title>
<path fill="none" stroke="#191970" d="M802.3376,-256.6322C721.5063,-249.7053 582.4818,-234.9914 465.6566,-210 393.2469,-194.51 310.9526,-167.6522 267.2864,-151.6317"/>
<polygon fill="#191970" stroke="#191970" points="268.4011,-148.3119 257.8084,-148.0957 265.9542,-154.8704 268.4011,-148.3119"/>
</g>
<!-- Node8 -->
<g id="node9" class="node">
<title>Node8</title>
<g id="a_node9"><a xlink:href="dp__matrices_8h.html" target="_top" xlink:title="Functions to deal with standard dynamic programming (DP) matrices. ">
<polygon fill="none" stroke="#000000" points="16.1566,-129 16.1566,-148 149.1566,-148 149.1566,-129 16.1566,-129"/>
<text text-anchor="middle" x="82.6566" y="-136" font-family="Helvetica,sans-Serif" font-size="10.00" fill="#000000">ViennaRNA/dp_matrices.h</text>
</a>
</g>
</g>
<!-- Node1&#45;&gt;Node8 -->
<g id="edge30" class="edge">
<title>Node1&#45;&gt;Node8</title>
<path fill="none" stroke="#191970" d="M802.3695,-257.2524C707.9096,-250.4052 531.2085,-235.0961 382.6566,-210 287.902,-193.9923 178.7333,-166.5808 121.6918,-150.7535"/>
<polygon fill="#191970" stroke="#191970" points="122.5692,-147.3646 111.9954,-148.0329 120.6781,-154.1043 122.5692,-147.3646"/>
</g>
<!-- Node9 -->
<g id="node10" class="node">
<title>Node9</title>
<g id="a_node10"><a xlink:href="hard_8h.html" target="_top" xlink:title="Functions and data structures for handling of secondary structure hard constraints. ">
<polygon fill="none" stroke="#000000" points="810.1566,-123.5 810.1566,-153.5 929.1566,-153.5 929.1566,-123.5 810.1566,-123.5"/>
<text text-anchor="start" x="818.1566" y="-141.5" font-family="Helvetica,sans-Serif" font-size="10.00" fill="#000000">ViennaRNA/constraints</text>
<text text-anchor="middle" x="869.6566" y="-130.5" font-family="Helvetica,sans-Serif" font-size="10.00" fill="#000000">/hard.h</text>
</a>
</g>
</g>
<!-- Node1&#45;&gt;Node9 -->
<g id="edge31" class="edge">
<title>Node1&#45;&gt;Node9</title>
<path fill="none" stroke="#191970" d="M865.0424,-246.4178C862.5661,-225.8539 862.2431,-188.7363 864.0735,-163.8546"/>
<polygon fill="#191970" stroke="#191970" points="867.5762,-163.9893 865.0276,-153.7056 860.6069,-163.3341 867.5762,-163.9893"/>
</g>
<!-- Node11 -->
<g id="node12" class="node">
<title>Node11</title>
<g id="a_node12"><a xlink:href="soft_8h.html" target="_top" xlink:title="Functions and data structures for secondary structure soft constraints. ">
<polygon fill="none" stroke="#000000" points="947.1566,-123.5 947.1566,-153.5 1066.1566,-153.5 1066.1566,-123.5 947.1566,-123.5"/>
<text text-anchor="start" x="955.1566" y="-141.5" font-family="Helvetica,sans-Serif" font-size="10.00" fill="#000000">ViennaRNA/constraints</text>
<text text-anchor="middle" x="1006.6566" y="-130.5" font-family="Helvetica,sans-Serif" font-size="10.00" fill="#000000">/soft.h</text>
</a>
</g>
</g>
<!-- Node1&#45;&gt;Node11 -->
<g id="edge32" class="edge">
<title>Node1&#45;&gt;Node11</title>
<path fill="none" stroke="#191970" d="M881.8413,-246.4178C903.2772,-224.8395 947.3857,-185.0342 977.1174,-160.2653"/>
<polygon fill="#191970" stroke="#191970" points="979.5922,-162.7616 985.0913,-153.7056 975.145,-157.3558 979.5922,-162.7616"/>
</g>
<!-- Node12 -->
<g id="node13" class="node">
<title>Node12</title>
<g id="a_node13"><a xlink:href="grammar_8h.html" target="_top" xlink:title="Implementations for the RNA folding grammar. ">
<polygon fill="none" stroke="#000000" points="324.1566,-129 324.1566,-148 441.1566,-148 441.1566,-129 324.1566,-129"/>
<text text-anchor="middle" x="382.6566" y="-136" font-family="Helvetica,sans-Serif" font-size="10.00" fill="#000000">ViennaRNA/grammar.h</text>
</a>
</g>
</g>
<!-- Node1&#45;&gt;Node12 -->
<g id="edge33" class="edge">
<title>Node1&#45;&gt;Node12</title>
<path fill="none" stroke="#191970" d="M802.4058,-257.5122C732.4277,-251.952 620.3313,-239.0528 527.6566,-210 482.9005,-195.9693 434.7894,-169.7894 406.7745,-153.3002"/>
<polygon fill="#191970" stroke="#191970" points="408.4589,-150.2296 398.078,-148.1113 404.8722,-156.2409 408.4589,-150.2296"/>
</g>
<!-- Node13 -->
<g id="node14" class="node">
<title>Node13</title>
<g id="a_node14"><a xlink:href="structured__domains_8h.html" target="_top" xlink:title="This module provides interfaces that deal with additional structured domains in the folding grammar...">
<polygon fill="none" stroke="#000000" points="638.1566,-123.5 638.1566,-153.5 753.1566,-153.5 753.1566,-123.5 638.1566,-123.5"/>
<text text-anchor="start" x="646.1566" y="-141.5" font-family="Helvetica,sans-Serif" font-size="10.00" fill="#000000">ViennaRNA/structured</text>
<text text-anchor="middle" x="695.6566" y="-130.5" font-family="Helvetica,sans-Serif" font-size="10.00" fill="#000000">_domains.h</text>
</a>
</g>
</g>
<!-- Node1&#45;&gt;Node13 -->
<g id="edge34" class="edge">
<title>Node1&#45;&gt;Node13</title>
<path fill="none" stroke="#191970" d="M833.1458,-246.4563C812.9568,-237.3236 787.9307,-224.6193 767.6566,-210 748.1254,-195.9163 728.9247,-176.4885 715.2697,-161.4384"/>
<polygon fill="#191970" stroke="#191970" points="717.5489,-158.7346 708.2873,-153.5894 712.3189,-163.3872 717.5489,-158.7346"/>
</g>
<!-- Node14 -->
<g id="node15" class="node">
<title>Node14</title>
<g id="a_node15"><a xlink:href="unstructured__domains_8h.html" target="_top" xlink:title="Functions to modify unstructured domains, e.g. to incorporate ligands binding to unpaired stretches...">
<polygon fill="none" stroke="#000000" points="1123.1566,-123.5 1123.1566,-153.5 1248.1566,-153.5 1248.1566,-123.5 1123.1566,-123.5"/>
<text text-anchor="start" x="1131.1566" y="-141.5" font-family="Helvetica,sans-Serif" font-size="10.00" fill="#000000">ViennaRNA/unstructured</text>
<text text-anchor="middle" x="1185.6566" y="-130.5" font-family="Helvetica,sans-Serif" font-size="10.00" fill="#000000">_domains.h</text>
</a>
</g>
</g>
<!-- Node1&#45;&gt;Node14 -->
<g id="edge35" class="edge">
<title>Node1&#45;&gt;Node14</title>
<path fill="none" stroke="#191970" d="M936.8341,-255.7085C984.446,-249.4926 1048.5564,-236.6233 1099.6566,-210 1122.7363,-197.9755 1144.0043,-177.1495 1159.8703,-161.0653"/>
<polygon fill="#191970" stroke="#191970" points="1162.6885,-163.1915 1167.2093,-153.6096 1157.6999,-158.2809 1162.6885,-163.1915"/>
</g>
<!-- Node1&#45;&gt;Node15 -->
<g id="edge36" class="edge">
<title>Node1&#45;&gt;Node15</title>
<path fill="none" stroke="#191970" d="M936.8828,-253.3081C991.6567,-245.7574 1070.3501,-232.2725 1136.6566,-210 1189.4131,-192.279 1212.0782,-195.944 1248.6566,-154 1264.2896,-136.0739 1271.282,-109.041 1276.4365,-90.8535"/>
<polygon fill="#191970" stroke="#191970" points="1279.8512,-91.6525 1279.3894,-81.0677 1273.1496,-89.6302 1279.8512,-91.6525"/>
</g>
<!-- Node3 -->
<g id="node4" class="node">
<title>Node3</title>
<polygon fill="none" stroke="#bfbfbf" points="88.6566,-.5 88.6566,-19.5 136.6566,-19.5 136.6566,-.5 88.6566,-.5"/>
<text text-anchor="middle" x="112.6566" y="-7.5" font-family="Helvetica,sans-Serif" font-size="10.00" fill="#000000">limits.h</text>
</g>
<!-- Node2&#45;&gt;Node3 -->
<g id="edge3" class="edge">
<title>Node2&#45;&gt;Node3</title>
<path fill="none" stroke="#191970" d="M112.6566,-61.8906C112.6566,-53.3657 112.6566,-40.6392 112.6566,-29.9235"/>
<polygon fill="#191970" stroke="#191970" points="116.1567,-29.7448 112.6566,-19.7449 109.1567,-29.7449 116.1567,-29.7448"/>
</g>
<!-- Node4&#45;&gt;Node5 -->
<g id="edge5" class="edge">
<title>Node4&#45;&gt;Node5</title>
<path fill="none" stroke="#191970" d="M609.6566,-190.3416C609.6566,-169.4114 609.6566,-119.504 609.6566,-91.4762"/>
<polygon fill="#191970" stroke="#191970" points="613.1567,-91.2704 609.6566,-81.2705 606.1567,-91.2705 613.1567,-91.2704"/>
</g>
<!-- Node4&#45;&gt;Node6 -->
<g id="edge6" class="edge">
<title>Node4&#45;&gt;Node6</title>
<path fill="none" stroke="#191970" d="M543.3294,-190.4605C483.4551,-181.6583 393.001,-167.8863 314.6566,-154 307.6469,-152.7576 300.2966,-151.3868 293.0273,-149.9898"/>
<polygon fill="#191970" stroke="#191970" points="293.6888,-146.553 283.2044,-148.0782 292.3516,-153.4241 293.6888,-146.553"/>
</g>
<!-- Node7 -->
<g id="node8" class="node">
<title>Node7</title>
<g id="a_node8"><a xlink:href="sequence_8h.html" target="_top" xlink:title="Functions and data structures related to sequence representations ,. ">
<polygon fill="none" stroke="#000000" points="459.6566,-129 459.6566,-148 581.6566,-148 581.6566,-129 459.6566,-129"/>
<text text-anchor="middle" x="520.6566" y="-136" font-family="Helvetica,sans-Serif" font-size="10.00" fill="#000000">ViennaRNA/sequence.h</text>
</a>
</g>
</g>
<!-- Node4&#45;&gt;Node7 -->
<g id="edge10" class="edge">
<title>Node4&#45;&gt;Node7</title>
<path fill="none" stroke="#191970" d="M595.7504,-190.3906C581.6428,-180.6421 559.5842,-165.3994 543.0181,-153.9521"/>
<polygon fill="#191970" stroke="#191970" points="544.6819,-150.8474 534.4652,-148.0419 540.7024,-156.6063 544.6819,-150.8474"/>
</g>
<!-- Node4&#45;&gt;Node8 -->
<g id="edge11" class="edge">
<title>Node4&#45;&gt;Node8</title>
<path fill="none" stroke="#191970" d="M536.337,-194.7773C446.8626,-187.8849 291.1185,-174.2116 158.6566,-154 151.1593,-152.856 143.2823,-151.4652 135.5557,-149.9915"/>
<polygon fill="#191970" stroke="#191970" points="136.0168,-146.5152 125.5294,-148.0202 134.6663,-153.3837 136.0168,-146.5152"/>
</g>
<!-- Node4&#45;&gt;Node9 -->
<g id="edge13" class="edge">
<title>Node4&#45;&gt;Node9</title>
<path fill="none" stroke="#191970" d="M649.9963,-190.4581C689.9453,-181.0086 751.9189,-166.3495 799.8666,-155.008"/>
<polygon fill="#191970" stroke="#191970" points="800.9465,-158.3493 809.8723,-152.6413 799.3351,-151.5372 800.9465,-158.3493"/>
</g>
<!-- Node4&#45;&gt;Node11 -->
<g id="edge17" class="edge">
<title>Node4&#45;&gt;Node11</title>
<path fill="none" stroke="#191970" d="M682.7945,-191.5869C747.371,-183.7439 844.2585,-170.9696 937.1648,-154.1938"/>
<polygon fill="#191970" stroke="#191970" points="937.8023,-157.6354 947.0119,-152.3978 936.5462,-150.749 937.8023,-157.6354"/>
</g>
<!-- Node4&#45;&gt;Node12 -->
<g id="edge20" class="edge">
<title>Node4&#45;&gt;Node12</title>
<path fill="none" stroke="#191970" d="M569.3876,-190.4581C527.9485,-179.7984 463.9721,-162.5091 422.6415,-150.8315"/>
<polygon fill="#191970" stroke="#191970" points="423.4812,-147.4316 412.9052,-148.0643 421.5674,-154.1649 423.4812,-147.4316"/>
</g>
<!-- Node4&#45;&gt;Node13 -->
<g id="edge22" class="edge">
<title>Node4&#45;&gt;Node13</title>
<path fill="none" stroke="#191970" d="M623.0941,-190.3906C634.6254,-182.1444 651.6542,-169.9669 666.3177,-159.4807"/>
<polygon fill="#191970" stroke="#191970" points="668.5204,-162.2084 674.6187,-153.5446 664.4486,-156.5145 668.5204,-162.2084"/>
</g>
<!-- Node4&#45;&gt;Node14 -->
<g id="edge23" class="edge">
<title>Node4&#45;&gt;Node14</title>
<path fill="none" stroke="#191970" d="M682.8047,-193.7274C774.6577,-185.6328 937.0214,-170.6027 1075.6566,-154 1087.6248,-152.5667 1100.3056,-150.9094 1112.6378,-149.2229"/>
<polygon fill="#191970" stroke="#191970" points="1113.4659,-152.6417 1122.8915,-147.8036 1112.5061,-145.7078 1113.4659,-152.6417"/>
</g>
<!-- Node6&#45;&gt;Node1 -->
<g id="edge8" class="edge">
<title>Node6&#45;&gt;Node1</title>
<path fill="none" stroke="#191970" d="M269.0153,-148.0957C316.072,-163.399 405.6066,-193.3034 483.6566,-210 589.6371,-232.6715 713.8867,-246.885 792.2579,-254.4998"/>
<polygon fill="#191970" stroke="#191970" points="792.2421,-258.0143 802.5308,-255.4858 792.9109,-251.0463 792.2421,-258.0143"/>
</g>
<!-- Node6&#45;&gt;Node2 -->
<g id="edge7" class="edge">
<title>Node6&#45;&gt;Node2</title>
<path fill="none" stroke="#191970" d="M218.8904,-128.9005C198.0804,-117.6564 163.3978,-98.9166 139.3479,-85.9219"/>
<polygon fill="#191970" stroke="#191970" points="140.8515,-82.7561 130.3898,-81.0817 137.5239,-88.9147 140.8515,-82.7561"/>
</g>
<!-- Node6&#45;&gt;Node5 -->
<g id="edge9" class="edge">
<title>Node6&#45;&gt;Node5</title>
<path fill="none" stroke="#191970" d="M283.6434,-128.9787C293.8587,-126.9602 304.6132,-124.8743 314.6566,-123 394.4931,-108.1008 486.74,-92.2087 546.5241,-82.0831"/>
<polygon fill="#191970" stroke="#191970" points="547.2889,-85.5036 556.5653,-80.385 546.1216,-78.6016 547.2889,-85.5036"/>
</g>
<!-- Node8&#45;&gt;Node1 -->
<g id="edge12" class="edge">
<title>Node8&#45;&gt;Node1</title>
<path fill="none" stroke="#191970" d="M123.2023,-148.0329C183.572,-163.248 300.2128,-193.0312 400.6566,-210 537.8914,-233.1842 699.1499,-248.0159 792.4233,-255.5396"/>
<polygon fill="#191970" stroke="#191970" points="792.3744,-259.0468 802.6216,-256.355 792.9323,-252.069 792.3744,-259.0468"/>
</g>
<!-- Node9&#45;&gt;Node1 -->
<g id="edge14" class="edge">
<title>Node9&#45;&gt;Node1</title>
<path fill="none" stroke="#191970" d="M874.2857,-153.7056C876.7534,-174.3355 877.0677,-211.4615 875.2287,-236.2943"/>
<polygon fill="#191970" stroke="#191970" points="871.7285,-236.1325 874.2709,-246.4178 878.6974,-236.792 871.7285,-236.1325"/>
</g>
<!-- Node10 -->
<g id="node11" class="node">
<title>Node10</title>
<g id="a_node11"><a xlink:href="constraints_2basic_8h.html" target="_top" xlink:title="Functions and data structures for constraining secondary structure predictions and evaluation...">
<polygon fill="none" stroke="#000000" points="947.1566,-56.5 947.1566,-86.5 1066.1566,-86.5 1066.1566,-56.5 947.1566,-56.5"/>
<text text-anchor="start" x="955.1566" y="-74.5" font-family="Helvetica,sans-Serif" font-size="10.00" fill="#000000">ViennaRNA/constraints</text>
<text text-anchor="middle" x="1006.6566" y="-63.5" font-family="Helvetica,sans-Serif" font-size="10.00" fill="#000000">/basic.h</text>
</a>
</g>
</g>
<!-- Node9&#45;&gt;Node10 -->
<g id="edge15" class="edge">
<title>Node9&#45;&gt;Node10</title>
<path fill="none" stroke="#191970" d="M900.4021,-123.4639C919.919,-113.9191 945.3823,-101.4663 966.4891,-91.144"/>
<polygon fill="#191970" stroke="#191970" points="968.0941,-94.2552 975.5398,-86.7177 965.0188,-87.9669 968.0941,-94.2552"/>
</g>
<!-- Node10&#45;&gt;Node1 -->
<g id="edge16" class="edge">
<title>Node10&#45;&gt;Node1</title>
<path fill="none" stroke="#191970" d="M1038.2987,-86.5161C1052.4724,-95.0591 1067.7501,-107.2327 1075.6566,-123 1081.8325,-135.3161 1082.7982,-142.2176 1075.6566,-154 1047.4477,-200.5396 991.7636,-227.8817 945.3951,-243.3354"/>
<polygon fill="#191970" stroke="#191970" points="944.1109,-240.0715 935.6552,-246.4553 946.2463,-246.7379 944.1109,-240.0715"/>
</g>
<!-- Node11&#45;&gt;Node1 -->
<g id="edge18" class="edge">
<title>Node11&#45;&gt;Node1</title>
<path fill="none" stroke="#191970" d="M994.3494,-153.7056C972.8273,-175.3531 928.7031,-215.1643 899.0263,-239.8759"/>
<polygon fill="#191970" stroke="#191970" points="896.5712,-237.3633 891.0698,-246.4178 901.017,-242.7703 896.5712,-237.3633"/>
</g>
<!-- Node11&#45;&gt;Node10 -->
<g id="edge19" class="edge">
<title>Node11&#45;&gt;Node10</title>
<path fill="none" stroke="#191970" d="M1006.6566,-123.2967C1006.6566,-115.5013 1006.6566,-105.7991 1006.6566,-96.9064"/>
<polygon fill="#191970" stroke="#191970" points="1010.1567,-96.6431 1006.6566,-86.6432 1003.1567,-96.6432 1010.1567,-96.6431"/>
</g>
<!-- Node12&#45;&gt;Node4 -->
<g id="edge21" class="edge">
<title>Node12&#45;&gt;Node4</title>
<path fill="none" stroke="#191970" d="M422.9256,-148.0419C464.3108,-158.6877 528.1748,-175.9459 569.5104,-187.6229"/>
<polygon fill="#191970" stroke="#191970" points="568.6745,-191.0239 579.2504,-190.3906 570.5879,-184.2904 568.6745,-191.0239"/>
</g>
<!-- Node14&#45;&gt;Node1 -->
<g id="edge24" class="edge">
<title>Node14&#45;&gt;Node1</title>
<path fill="none" stroke="#191970" d="M1180.3016,-153.6096C1168.9162,-170.0981 1144.5129,-196.0078 1117.6566,-210 1064.7213,-237.5793 997.8246,-250.3992 946.7863,-256.3527"/>
<polygon fill="#191970" stroke="#191970" points="946.3549,-252.879 936.7989,-257.4542 947.1223,-259.8368 946.3549,-252.879"/>
</g>
<!-- Node14&#45;&gt;Node15 -->
<g id="edge25" class="edge">
<title>Node14&#45;&gt;Node15</title>
<path fill="none" stroke="#191970" d="M1208.3482,-123.2967C1224.685,-112.351 1246.6325,-97.6462 1262.9685,-86.701"/>
<polygon fill="#191970" stroke="#191970" points="1265.0359,-89.5289 1271.3955,-81.055 1261.1396,-83.7135 1265.0359,-89.5289"/>
</g>
<!-- Node15&#45;&gt;Node1 -->
<g id="edge27" class="edge">
<title>Node15&#45;&gt;Node1</title>
<path fill="none" stroke="#191970" d="M1290.1461,-81.0677C1291.7531,-97.7551 1285.4455,-132.455 1266.6566,-154 1230.0782,-195.944 1207.4131,-192.279 1154.6566,-210 1086.5481,-232.8778 1005.3703,-246.4838 947.0348,-253.9106"/>
<polygon fill="#191970" stroke="#191970" points="946.2751,-250.4779 936.782,-255.1822 947.1368,-257.4247 946.2751,-250.4779"/>
</g>
<!-- Node16 -->
<g id="node17" class="node">
<title>Node16</title>
<polygon fill="none" stroke="#bfbfbf" points="1262.6566,-.5 1262.6566,-19.5 1308.6566,-19.5 1308.6566,-.5 1262.6566,-.5"/>
<text text-anchor="middle" x="1285.6566" y="-7.5" font-family="Helvetica,sans-Serif" font-size="10.00" fill="#000000">stdio.h</text>
</g>
<!-- Node15&#45;&gt;Node16 -->
<g id="edge26" class="edge">
<title>Node15&#45;&gt;Node16</title>
<path fill="none" stroke="#191970" d="M1285.6566,-61.8906C1285.6566,-53.3657 1285.6566,-40.6392 1285.6566,-29.9235"/>
<polygon fill="#191970" stroke="#191970" points="1289.1567,-29.7448 1285.6566,-19.7449 1282.1567,-29.7449 1289.1567,-29.7448"/>
</g>
</g>
</svg>
        <g id="navigator" transform="translate(0 0)" fill="#404254">
                <rect fill="#f2f5e9" fill-opacity="0.5" stroke="#606060" stroke-width=".5" x="0" y="0" width="60" height="60"/>
                <use id="zoomplus" xlink:href="#zoomPlus" x="17" y="9" onmousedown="handleZoom(evt,'in')"/>
                <use id="zoomminus" xlink:href="#zoomMin" x="42" y="9" onmousedown="handleZoom(evt,'out')"/>
                <use id="reset" xlink:href="#resetDef" x="30" y="36" onmousedown="handleReset()"/>
                <g id="arrowUp" xlink:href="#dirArrow" transform="translate(30 24)" onmousedown="handlePan(0,-1)">
                  <use xlink:href="#rim" fill="#404040">
                        <set attributeName="fill" to="#808080" begin="arrowUp.mouseover" end="arrowUp.mouseout"/>
                  </use>
                  <path fill="none" stroke="white" stroke-width="1.5" d="M0,-3.0v7 M-2.5,-0.5L0,-3.0L2.5,-0.5"/>
                </g>
                <g id="arrowRight" xlink:href="#dirArrow" transform="rotate(90) translate(36 -43)" onmousedown="handlePan(1,0)">
                  <use xlink:href="#rim" fill="#404040">
                        <set attributeName="fill" to="#808080" begin="arrowRight.mouseover" end="arrowRight.mouseout"/>
                  </use>
                  <path fill="none" stroke="white" stroke-width="1.5" d="M0,-3.0v7 M-2.5,-0.5L0,-3.0L2.5,-0.5"/>
                </g>
                <g id="arrowDown" xlink:href="#dirArrow" transform="rotate(180) translate(-30 -48)" onmousedown="handlePan(0,1)">
                  <use xlink:href="#rim" fill="#404040">
                        <set attributeName="fill" to="#808080" begin="arrowDown.mouseover" end="arrowDown.mouseout"/>
                  </use>
                  <path fill="none" stroke="white" stroke-width="1.5" d="M0,-3.0v7 M-2.5,-0.5L0,-3.0L2.5,-0.5"/>
                </g>
                <g id="arrowLeft" xlink:href="#dirArrow" transform="rotate(270) translate(-36 17)" onmousedown="handlePan(-1,0)">
                  <use xlink:href="#rim" fill="#404040">
                        <set attributeName="fill" to="#808080" begin="arrowLeft.mouseover" end="arrowLeft.mouseout"/>
                  </use>
                  <path fill="none" stroke="white" stroke-width="1.5" d="M0,-3.0v7 M-2.5,-0.5L0,-3.0L2.5,-0.5"/>
                </g>
        </g>
        <svg viewBox="0 0 15 15" width="100%" height="30px" preserveAspectRatio="xMaxYMin meet">
         <g id="arrow_out" transform="scale(0.3 0.3)">
          <a xlink:href="centroid_8h__incl_org.svg" target="_base">
           <rect id="button" ry="5" rx="5" y="6" x="6" height="38" width="38"
                fill="#f2f5e9" fill-opacity="0.5" stroke="#606060" stroke-width="1.0"/>
           <path id="arrow"
             d="M 11.500037,31.436501 C 11.940474,20.09759 22.043105,11.32322 32.158766,21.979434 L 37.068811,17.246167 C 37.068811,17.246167 37.088388,32 37.088388,32 L 22.160133,31.978069 C 22.160133,31.978069 26.997745,27.140456 26.997745,27.140456 C 18.528582,18.264221 13.291696,25.230495 11.500037,31.436501 z"
             style="fill:#404040;"/>
          </a>
         </g>
        </svg>
</svg>
