<?xml version="1.0" encoding="UTF-8" standalone="no"?>
<!DOCTYPE svg PUBLIC "-//W3C//DTD SVG 1.1//EN"
 "http://www.w3.org/Graphics/SVG/1.1/DTD/svg11.dtd">
<!-- Generated by graphviz version 2.40.1 (20161225.0304)
 -->
<!-- Title: ViennaRNA/cofold.h Pages: 1 -->
<!--zoomable 397 -->
<svg id="main" version="1.1" xmlns="http://www.w3.org/2000/svg" xmlns:xlink="http://www.w3.org/1999/xlink" xml:space="preserve" onload="init(evt)">
<style type="text/css"><![CDATA[
.edge:hover path { stroke: red; }
.edge:hover polygon { stroke: red; fill: red; }
]]></style>
<script type="text/javascript"><![CDATA[
var edges = document.getElementsByTagName('g');
if (edges && edges.length) {
  for (var i=0;i<edges.length;i++) {
    if (edges[i].id.substr(0,4)=='edge') {
      edges[i].setAttribute('class','edge');
    }
  }
}
]]></script>
        <defs>
                <circle id="rim" cx="0" cy="0" r="7"/>
                <circle id="rim2" cx="0" cy="0" r="3.5"/>
                <g id="zoomPlus">
                        <use xlink:href="#rim" fill="#404040">
                                <set attributeName="fill" to="#808080" begin="zoomplus.mouseover" end="zoomplus.mouseout"/>
                        </use>
                        <path d="M-4,0h8M0,-4v8" fill="none" stroke="white" stroke-width="1.5" pointer-events="none"/>
                </g>
                <g id="zoomMin">
                        <use xlink:href="#rim" fill="#404040">
                                <set attributeName="fill" to="#808080" begin="zoomminus.mouseover" end="zoomminus.mouseout"/>
                        </use>
                        <path d="M-4,0h8" fill="none" stroke="white" stroke-width="1.5" pointer-events="none"/>
                </g>
                <g id="dirArrow">
                        <path fill="none" stroke="white" stroke-width="1.5" d="M0,-3.0v7 M-2.5,-0.5L0,-3.0L2.5,-0.5"/>
                </g>
               <g id="resetDef">
                       <use xlink:href="#rim2" fill="#404040">
                               <set attributeName="fill" to="#808080" begin="reset.mouseover" end="reset.mouseout"/>
                       </use>
               </g>
        </defs>

<script type="text/javascript">
var viewWidth = 1434;
var viewHeight = 397;
var sectionId = 'dynsection-0';
</script>
<script xlink:href="svgpan.js"/>
<svg id="graph" class="graph">
<g id="viewport">
<title>ViennaRNA/cofold.h</title>
<!-- Node0 -->
<g id="node1" class="node">
<title>Node0</title>
<polygon fill="#bfbfbf" stroke="#000000" points="781,-369.5 781,-388.5 887,-388.5 887,-369.5 781,-369.5"/>
<text text-anchor="middle" x="834" y="-376.5" font-family="Helvetica,sans-Serif" font-size="10.00" fill="#000000">ViennaRNA/cofold.h</text>
</g>
<!-- Node1 -->
<g id="node2" class="node">
<title>Node1</title>
<g id="a_node2"><a xlink:href="datastructures_2basic_8h.html" target="_top" xlink:title="Various data structures and pre&#45;processor macros. ">
<polygon fill="none" stroke="#000000" points="805,-246.5 805,-276.5 939,-276.5 939,-246.5 805,-246.5"/>
<text text-anchor="start" x="813" y="-264.5" font-family="Helvetica,sans-Serif" font-size="10.00" fill="#000000">ViennaRNA/datastructures</text>
<text text-anchor="middle" x="872" y="-253.5" font-family="Helvetica,sans-Serif" font-size="10.00" fill="#000000">/basic.h</text>
</a>
</g>
</g>
<!-- Node0&#45;&gt;Node1 -->
<g id="edge1" class="edge">
<title>Node0&#45;&gt;Node1</title>
<path fill="none" stroke="#191970" d="M836.6095,-369.0913C840.081,-356.1198 846.5353,-332.7143 853,-313 855.8711,-304.2444 859.2838,-294.7562 862.4193,-286.3378"/>
<polygon fill="#191970" stroke="#191970" points="865.7925,-287.3125 866.0516,-276.7209 859.244,-284.8392 865.7925,-287.3125"/>
</g>
<!-- Node6 -->
<g id="node7" class="node">
<title>Node6</title>
<g id="a_node7"><a xlink:href="params_2basic_8h.html" target="_top" xlink:title="Functions to deal with sets of energy parameters. ">
<polygon fill="none" stroke="#000000" points="85,-129 85,-148 223,-148 223,-129 85,-129"/>
<text text-anchor="middle" x="154" y="-136" font-family="Helvetica,sans-Serif" font-size="10.00" fill="#000000">ViennaRNA/params/basic.h</text>
</a>
</g>
</g>
<!-- Node0&#45;&gt;Node6 -->
<g id="edge37" class="edge">
<title>Node0&#45;&gt;Node6</title>
<path fill="none" stroke="#191970" d="M780.5161,-369.6978C645.8602,-345.5039 296.8354,-277.7658 202,-210 183.4643,-196.7551 169.9886,-173.9462 162.1161,-157.6511"/>
<polygon fill="#191970" stroke="#191970" points="165.2739,-156.14 157.9434,-148.4905 158.9036,-159.0417 165.2739,-156.14"/>
</g>
<!-- Node17 -->
<g id="node18" class="node">
<title>Node17</title>
<g id="a_node18"><a xlink:href="mfe_8h.html" target="_top" xlink:title="Compute Minimum Free energy (MFE) and backtrace corresponding secondary structures from RNA sequence ...">
<polygon fill="none" stroke="#000000" points="862,-313.5 862,-332.5 958,-332.5 958,-313.5 862,-313.5"/>
<text text-anchor="middle" x="910" y="-320.5" font-family="Helvetica,sans-Serif" font-size="10.00" fill="#000000">ViennaRNA/mfe.h</text>
</a>
</g>
</g>
<!-- Node0&#45;&gt;Node17 -->
<g id="edge38" class="edge">
<title>Node0&#45;&gt;Node17</title>
<path fill="none" stroke="#191970" d="M847.2382,-369.2455C858.681,-360.814 875.4296,-348.4729 888.7475,-338.6598"/>
<polygon fill="#191970" stroke="#191970" points="890.9391,-341.3924 896.9135,-332.6427 886.7867,-335.757 890.9391,-341.3924"/>
</g>
<!-- Node2 -->
<g id="node3" class="node">
<title>Node2</title>
<g id="a_node3"><a xlink:href="constants_8h.html" target="_top" xlink:title="Energy parameter constants. ">
<polygon fill="none" stroke="#000000" points="0,-62 0,-81 158,-81 158,-62 0,-62"/>
<text text-anchor="middle" x="79" y="-69" font-family="Helvetica,sans-Serif" font-size="10.00" fill="#000000">ViennaRNA/params/constants.h</text>
</a>
</g>
</g>
<!-- Node1&#45;&gt;Node2 -->
<g id="edge2" class="edge">
<title>Node1&#45;&gt;Node2</title>
<path fill="none" stroke="#191970" d="M804.9859,-259.2471C658.6954,-253.8585 314.8257,-238.5052 202,-210 142.5851,-194.9889 109.3933,-205.3843 76,-154 63.7836,-135.2019 67.6162,-108.5746 72.4462,-90.7041"/>
<polygon fill="#191970" stroke="#191970" points="75.8095,-91.6738 75.3696,-81.0881 69.1122,-89.6377 75.8095,-91.6738"/>
</g>
<!-- Node4 -->
<g id="node5" class="node">
<title>Node4</title>
<g id="a_node5"><a xlink:href="fold__compound_8h.html" target="_top" xlink:title="The Basic Fold Compound API. ">
<polygon fill="none" stroke="#000000" points="625,-190.5 625,-209.5 771,-209.5 771,-190.5 625,-190.5"/>
<text text-anchor="middle" x="698" y="-197.5" font-family="Helvetica,sans-Serif" font-size="10.00" fill="#000000">ViennaRNA/fold_compound.h</text>
</a>
</g>
</g>
<!-- Node1&#45;&gt;Node4 -->
<g id="edge4" class="edge">
<title>Node1&#45;&gt;Node4</title>
<path fill="none" stroke="#191970" d="M829.4348,-246.4554C800.4025,-236.194 762.3459,-222.7429 734.6591,-212.9571"/>
<polygon fill="#191970" stroke="#191970" points="735.5586,-209.5629 724.9638,-209.5303 733.2259,-216.1628 735.5586,-209.5629"/>
</g>
<!-- Node5 -->
<g id="node6" class="node">
<title>Node5</title>
<g id="a_node6"><a xlink:href="model_8h.html" target="_top" xlink:title="The model details data structure and its corresponding modifiers. ">
<polygon fill="none" stroke="#000000" points="198,-62 198,-81 304,-81 304,-62 198,-62"/>
<text text-anchor="middle" x="251" y="-69" font-family="Helvetica,sans-Serif" font-size="10.00" fill="#000000">ViennaRNA/model.h</text>
</a>
</g>
</g>
<!-- Node1&#45;&gt;Node5 -->
<g id="edge28" class="edge">
<title>Node1&#45;&gt;Node5</title>
<path fill="none" stroke="#191970" d="M804.7907,-258.9377C663.9515,-252.1209 344.7764,-228.6235 271,-154 254.6199,-137.4318 250.8433,-109.866 250.3506,-91.2031"/>
<polygon fill="#191970" stroke="#191970" points="253.8506,-91.1617 250.377,-81.1525 246.8506,-91.1432 253.8506,-91.1617"/>
</g>
<!-- Node1&#45;&gt;Node6 -->
<g id="edge29" class="edge">
<title>Node1&#45;&gt;Node6</title>
<path fill="none" stroke="#191970" d="M804.9061,-258.6292C650.5504,-251.4457 279.9153,-231.7059 228,-210 200.1658,-198.3625 174.9583,-173.6951 161.9502,-156.6134"/>
<polygon fill="#191970" stroke="#191970" points="164.5953,-154.2835 156.0393,-148.0349 158.8311,-158.2553 164.5953,-154.2835"/>
</g>
<!-- Node8 -->
<g id="node9" class="node">
<title>Node8</title>
<g id="a_node9"><a xlink:href="dp__matrices_8h.html" target="_top" xlink:title="Functions to deal with standard dynamic programming (DP) matrices. ">
<polygon fill="none" stroke="#000000" points="1000.5,-129 1000.5,-148 1133.5,-148 1133.5,-129 1000.5,-129"/>
<text text-anchor="middle" x="1067" y="-136" font-family="Helvetica,sans-Serif" font-size="10.00" fill="#000000">ViennaRNA/dp_matrices.h</text>
</a>
</g>
</g>
<!-- Node1&#45;&gt;Node8 -->
<g id="edge30" class="edge">
<title>Node1&#45;&gt;Node8</title>
<path fill="none" stroke="#191970" d="M891.2966,-246.4178C926.1704,-222.6123 999.0992,-176.6231 1039.2762,-153.1129"/>
<polygon fill="#191970" stroke="#191970" points="1041.1295,-156.0843 1048.0352,-148.0493 1037.6261,-150.0241 1041.1295,-156.0843"/>
</g>
<!-- Node9 -->
<g id="node10" class="node">
<title>Node9</title>
<g id="a_node10"><a xlink:href="hard_8h.html" target="_top" xlink:title="Functions and data structures for handling of secondary structure hard constraints. ">
<polygon fill="none" stroke="#000000" points="863.5,-123.5 863.5,-153.5 982.5,-153.5 982.5,-123.5 863.5,-123.5"/>
<text text-anchor="start" x="871.5" y="-141.5" font-family="Helvetica,sans-Serif" font-size="10.00" fill="#000000">ViennaRNA/constraints</text>
<text text-anchor="middle" x="923" y="-130.5" font-family="Helvetica,sans-Serif" font-size="10.00" fill="#000000">/hard.h</text>
</a>
</g>
</g>
<!-- Node1&#45;&gt;Node9 -->
<g id="edge31" class="edge">
<title>Node1&#45;&gt;Node9</title>
<path fill="none" stroke="#191970" d="M873.6393,-246.4178C879.771,-225.5772 895.1639,-187.7346 907.3926,-162.8571"/>
<polygon fill="#191970" stroke="#191970" points="910.6351,-164.2033 912.0662,-153.7056 904.401,-161.0196 910.6351,-164.2033"/>
</g>
<!-- Node11 -->
<g id="node12" class="node">
<title>Node11</title>
<g id="a_node12"><a xlink:href="soft_8h.html" target="_top" xlink:title="Functions and data structures for secondary structure soft constraints. ">
<polygon fill="none" stroke="#000000" points="726.5,-123.5 726.5,-153.5 845.5,-153.5 845.5,-123.5 726.5,-123.5"/>
<text text-anchor="start" x="734.5" y="-141.5" font-family="Helvetica,sans-Serif" font-size="10.00" fill="#000000">ViennaRNA/constraints</text>
<text text-anchor="middle" x="786" y="-130.5" font-family="Helvetica,sans-Serif" font-size="10.00" fill="#000000">/soft.h</text>
</a>
</g>
</g>
<!-- Node1&#45;&gt;Node11 -->
<g id="edge32" class="edge">
<title>Node1&#45;&gt;Node11</title>
<path fill="none" stroke="#191970" d="M856.8405,-246.4178C839.6838,-225.485 812.7655,-187.3994 797.3173,-162.5276"/>
<polygon fill="#191970" stroke="#191970" points="800.1609,-160.4651 792.0025,-153.7056 794.1649,-164.0774 800.1609,-160.4651"/>
</g>
<!-- Node12 -->
<g id="node13" class="node">
<title>Node12</title>
<g id="a_node13"><a xlink:href="grammar_8h.html" target="_top" xlink:title="Implementations for the RNA folding grammar. ">
<polygon fill="none" stroke="#000000" points="412.5,-129 412.5,-148 529.5,-148 529.5,-129 412.5,-129"/>
<text text-anchor="middle" x="471" y="-136" font-family="Helvetica,sans-Serif" font-size="10.00" fill="#000000">ViennaRNA/grammar.h</text>
</a>
</g>
</g>
<!-- Node1&#45;&gt;Node12 -->
<g id="edge33" class="edge">
<title>Node1&#45;&gt;Node12</title>
<path fill="none" stroke="#191970" d="M804.9861,-252.8863C752.5986,-244.9979 678.4389,-231.2696 616,-210 571.8402,-194.9571 523.8995,-169.3076 495.7027,-153.1656"/>
<polygon fill="#191970" stroke="#191970" points="497.3387,-150.0685 486.9312,-148.0849 493.8301,-156.1258 497.3387,-150.0685"/>
</g>
<!-- Node13 -->
<g id="node14" class="node">
<title>Node13</title>
<g id="a_node14"><a xlink:href="structured__domains_8h.html" target="_top" xlink:title="This module provides interfaces that deal with additional structured domains in the folding grammar...">
<polygon fill="none" stroke="#000000" points="279.5,-123.5 279.5,-153.5 394.5,-153.5 394.5,-123.5 279.5,-123.5"/>
<text text-anchor="start" x="287.5" y="-141.5" font-family="Helvetica,sans-Serif" font-size="10.00" fill="#000000">ViennaRNA/structured</text>
<text text-anchor="middle" x="337" y="-130.5" font-family="Helvetica,sans-Serif" font-size="10.00" fill="#000000">_domains.h</text>
</a>
</g>
</g>
<!-- Node1&#45;&gt;Node13 -->
<g id="edge34" class="edge">
<title>Node1&#45;&gt;Node13</title>
<path fill="none" stroke="#191970" d="M804.9171,-252.8856C742.5659,-244.2487 647.3438,-229.4487 566,-210 504.1675,-195.2163 434.656,-172.6423 388.606,-156.8242"/>
<polygon fill="#191970" stroke="#191970" points="389.7415,-153.5135 379.1467,-153.5565 387.4558,-160.1299 389.7415,-153.5135"/>
</g>
<!-- Node14 -->
<g id="node15" class="node">
<title>Node14</title>
<g id="a_node15"><a xlink:href="unstructured__domains_8h.html" target="_top" xlink:title="Functions to modify unstructured domains, e.g. to incorporate ligands binding to unpaired stretches...">
<polygon fill="none" stroke="#000000" points="1190.5,-123.5 1190.5,-153.5 1315.5,-153.5 1315.5,-123.5 1190.5,-123.5"/>
<text text-anchor="start" x="1198.5" y="-141.5" font-family="Helvetica,sans-Serif" font-size="10.00" fill="#000000">ViennaRNA/unstructured</text>
<text text-anchor="middle" x="1253" y="-130.5" font-family="Helvetica,sans-Serif" font-size="10.00" fill="#000000">_domains.h</text>
</a>
</g>
</g>
<!-- Node1&#45;&gt;Node14 -->
<g id="edge35" class="edge">
<title>Node1&#45;&gt;Node14</title>
<path fill="none" stroke="#191970" d="M939.0004,-253.928C1013.2481,-245.1835 1127.5113,-229.4711 1167,-210 1190.4816,-198.4217 1211.8349,-177.3541 1227.6521,-161.0755"/>
<polygon fill="#191970" stroke="#191970" points="1230.5151,-163.1502 1234.9572,-153.5315 1225.4864,-158.2807 1230.5151,-163.1502"/>
</g>
<!-- Node15 -->
<g id="node16" class="node">
<title>Node15</title>
<g id="a_node16"><a xlink:href="utils_2structures_8h.html" target="_top" xlink:title="Various utility&#45; and helper&#45;functions for secondary structure parsing, converting, etc. ">
<polygon fill="none" stroke="#000000" points="1254,-62 1254,-81 1398,-81 1398,-62 1254,-62"/>
<text text-anchor="middle" x="1326" y="-69" font-family="Helvetica,sans-Serif" font-size="10.00" fill="#000000">ViennaRNA/utils/structures.h</text>
</a>
</g>
</g>
<!-- Node1&#45;&gt;Node15 -->
<g id="edge36" class="edge">
<title>Node1&#45;&gt;Node15</title>
<path fill="none" stroke="#191970" d="M939.0704,-257.0316C1007.1235,-251.2424 1114.6737,-238.2959 1204,-210 1257.055,-193.1937 1286.455,-201.1633 1316,-154 1327.783,-135.1905 1325.6682,-108.9257 1324.1588,-91.1219"/>
<polygon fill="#191970" stroke="#191970" points="1327.6414,-90.7558 1323.4163,-81.0399 1320.6603,-91.27 1327.6414,-90.7558"/>
</g>
<!-- Node3 -->
<g id="node4" class="node">
<title>Node3</title>
<polygon fill="none" stroke="#bfbfbf" points="55,-.5 55,-19.5 103,-19.5 103,-.5 55,-.5"/>
<text text-anchor="middle" x="79" y="-7.5" font-family="Helvetica,sans-Serif" font-size="10.00" fill="#000000">limits.h</text>
</g>
<!-- Node2&#45;&gt;Node3 -->
<g id="edge3" class="edge">
<title>Node2&#45;&gt;Node3</title>
<path fill="none" stroke="#191970" d="M79,-61.8906C79,-53.3657 79,-40.6392 79,-29.9235"/>
<polygon fill="#191970" stroke="#191970" points="82.5001,-29.7448 79,-19.7449 75.5001,-29.7449 82.5001,-29.7448"/>
</g>
<!-- Node4&#45;&gt;Node5 -->
<g id="edge5" class="edge">
<title>Node4&#45;&gt;Node5</title>
<path fill="none" stroke="#191970" d="M698.782,-190.4814C699.5581,-173.9956 698.4904,-140.2437 679,-123 652.2297,-99.3155 427.0744,-82.3008 314.5252,-75.1905"/>
<polygon fill="#191970" stroke="#191970" points="314.5217,-71.6836 304.323,-74.5536 314.0855,-78.67 314.5217,-71.6836"/>
</g>
<!-- Node4&#45;&gt;Node6 -->
<g id="edge6" class="edge">
<title>Node4&#45;&gt;Node6</title>
<path fill="none" stroke="#191970" d="M624.6475,-192.6472C539.534,-183.9881 394.9986,-168.8904 271,-154 258.8001,-152.535 245.8956,-150.9058 233.2861,-149.2697"/>
<polygon fill="#191970" stroke="#191970" points="233.625,-145.7843 223.2558,-147.9591 232.718,-152.7253 233.625,-145.7843"/>
</g>
<!-- Node7 -->
<g id="node8" class="node">
<title>Node7</title>
<g id="a_node8"><a xlink:href="sequence_8h.html" target="_top" xlink:title="Functions and data structures related to sequence representations ,. ">
<polygon fill="none" stroke="#000000" points="548,-129 548,-148 670,-148 670,-129 548,-129"/>
<text text-anchor="middle" x="609" y="-136" font-family="Helvetica,sans-Serif" font-size="10.00" fill="#000000">ViennaRNA/sequence.h</text>
</a>
</g>
</g>
<!-- Node4&#45;&gt;Node7 -->
<g id="edge10" class="edge">
<title>Node4&#45;&gt;Node7</title>
<path fill="none" stroke="#191970" d="M684.0938,-190.3906C669.9862,-180.6421 647.9276,-165.3994 631.3615,-153.9521"/>
<polygon fill="#191970" stroke="#191970" points="633.0253,-150.8474 622.8086,-148.0419 629.0458,-156.6063 633.0253,-150.8474"/>
</g>
<!-- Node4&#45;&gt;Node8 -->
<g id="edge11" class="edge">
<title>Node4&#45;&gt;Node8</title>
<path fill="none" stroke="#191970" d="M765.0038,-190.4634C824.6951,-181.7422 914.3532,-168.0893 992,-154 998.6802,-152.7879 1005.6794,-151.4426 1012.6045,-150.0655"/>
<polygon fill="#191970" stroke="#191970" points="1013.5424,-153.4469 1022.652,-148.0371 1012.1571,-146.5853 1013.5424,-153.4469"/>
</g>
<!-- Node4&#45;&gt;Node9 -->
<g id="edge13" class="edge">
<title>Node4&#45;&gt;Node9</title>
<path fill="none" stroke="#191970" d="M733.1563,-190.3906C766.4973,-181.2774 817.4047,-167.3627 858.1129,-156.2358"/>
<polygon fill="#191970" stroke="#191970" points="859.2355,-159.5574 867.9588,-153.5446 857.3898,-152.8051 859.2355,-159.5574"/>
</g>
<!-- Node4&#45;&gt;Node11 -->
<g id="edge17" class="edge">
<title>Node4&#45;&gt;Node11</title>
<path fill="none" stroke="#191970" d="M711.75,-190.3906C723.5495,-182.1444 740.9742,-169.9669 755.9788,-159.4807"/>
<polygon fill="#191970" stroke="#191970" points="758.281,-162.1419 764.4728,-153.5446 754.2711,-156.4042 758.281,-162.1419"/>
</g>
<!-- Node4&#45;&gt;Node12 -->
<g id="edge20" class="edge">
<title>Node4&#45;&gt;Node12</title>
<path fill="none" stroke="#191970" d="M657.731,-190.4581C616.2919,-179.7984 552.3154,-162.5091 510.9849,-150.8315"/>
<polygon fill="#191970" stroke="#191970" points="511.8246,-147.4316 501.2486,-148.0643 509.9108,-154.1649 511.8246,-147.4316"/>
</g>
<!-- Node4&#45;&gt;Node13 -->
<g id="edge22" class="edge">
<title>Node4&#45;&gt;Node13</title>
<path fill="none" stroke="#191970" d="M627.9552,-190.491C570.567,-182.3675 487.0414,-169.7871 404.7187,-154.0575"/>
<polygon fill="#191970" stroke="#191970" points="405.1689,-150.58 394.6872,-152.1238 403.8439,-157.4534 405.1689,-150.58"/>
</g>
<!-- Node4&#45;&gt;Node14 -->
<g id="edge23" class="edge">
<title>Node4&#45;&gt;Node14</title>
<path fill="none" stroke="#191970" d="M771.325,-193.2585C859.6073,-184.9483 1012.3222,-169.9554 1143,-154 1154.9648,-152.5391 1167.644,-150.8677 1179.9755,-149.1756"/>
<polygon fill="#191970" stroke="#191970" points="1180.8045,-152.5942 1190.2288,-147.7535 1179.8428,-145.6606 1180.8045,-152.5942"/>
</g>
<!-- Node6&#45;&gt;Node1 -->
<g id="edge8" class="edge">
<title>Node6&#45;&gt;Node1</title>
<path fill="none" stroke="#191970" d="M166.9103,-148.0349C183.7123,-164.1122 213.0113,-196.2074 246,-210 295.7702,-230.809 638.4659,-249.8111 794.736,-257.6752"/>
<polygon fill="#191970" stroke="#191970" points="794.592,-261.1723 804.7546,-258.177 794.9422,-254.181 794.592,-261.1723"/>
</g>
<!-- Node6&#45;&gt;Node2 -->
<g id="edge7" class="edge">
<title>Node6&#45;&gt;Node2</title>
<path fill="none" stroke="#191970" d="M143.2543,-128.9005C131.336,-118.2535 111.8943,-100.8856 97.5132,-88.0385"/>
<polygon fill="#191970" stroke="#191970" points="99.5151,-85.1337 89.7257,-81.0817 94.8516,-90.354 99.5151,-85.1337"/>
</g>
<!-- Node6&#45;&gt;Node5 -->
<g id="edge9" class="edge">
<title>Node6&#45;&gt;Node5</title>
<path fill="none" stroke="#191970" d="M167.8977,-128.9005C183.8164,-117.9052 210.1121,-99.7422 228.8599,-86.7927"/>
<polygon fill="#191970" stroke="#191970" points="230.8892,-89.6448 237.128,-81.0817 226.9108,-83.8852 230.8892,-89.6448"/>
</g>
<!-- Node8&#45;&gt;Node1 -->
<g id="edge12" class="edge">
<title>Node8&#45;&gt;Node1</title>
<path fill="none" stroke="#191970" d="M1055.6866,-148.0493C1027.4563,-167.9942 954.2552,-214.4465 909.1499,-241.3182"/>
<polygon fill="#191970" stroke="#191970" points="907.3516,-238.3154 900.5251,-246.4178 910.9144,-244.3409 907.3516,-238.3154"/>
</g>
<!-- Node9&#45;&gt;Node1 -->
<g id="edge14" class="edge">
<title>Node9&#45;&gt;Node1</title>
<path fill="none" stroke="#191970" d="M921.3243,-153.7056C915.1562,-174.613 899.7514,-212.4634 887.5351,-237.2898"/>
<polygon fill="#191970" stroke="#191970" points="884.3042,-235.9207 882.8679,-246.4178 890.5367,-239.1076 884.3042,-235.9207"/>
</g>
<!-- Node10 -->
<g id="node11" class="node">
<title>Node10</title>
<g id="a_node11"><a xlink:href="constraints_2basic_8h.html" target="_top" xlink:title="Functions and data structures for constraining secondary structure predictions and evaluation...">
<polygon fill="none" stroke="#000000" points="863.5,-56.5 863.5,-86.5 982.5,-86.5 982.5,-56.5 863.5,-56.5"/>
<text text-anchor="start" x="871.5" y="-74.5" font-family="Helvetica,sans-Serif" font-size="10.00" fill="#000000">ViennaRNA/constraints</text>
<text text-anchor="middle" x="923" y="-63.5" font-family="Helvetica,sans-Serif" font-size="10.00" fill="#000000">/basic.h</text>
</a>
</g>
</g>
<!-- Node9&#45;&gt;Node10 -->
<g id="edge15" class="edge">
<title>Node9&#45;&gt;Node10</title>
<path fill="none" stroke="#191970" d="M923,-123.2967C923,-115.5013 923,-105.7991 923,-96.9064"/>
<polygon fill="#191970" stroke="#191970" points="926.5001,-96.6431 923,-86.6432 919.5001,-96.6432 926.5001,-96.6431"/>
</g>
<!-- Node10&#45;&gt;Node1 -->
<g id="edge16" class="edge">
<title>Node10&#45;&gt;Node1</title>
<path fill="none" stroke="#191970" d="M982.757,-77.2257C1040.9137,-84.1798 1123.3193,-98.1802 1143,-123 1151.5604,-133.7957 1150.7406,-142.6022 1143,-154 1099.9473,-217.3943 1013.0322,-243.4044 949.1941,-254.0759"/>
<polygon fill="#191970" stroke="#191970" points="948.4888,-250.6438 939.1568,-255.6603 949.5803,-257.5582 948.4888,-250.6438"/>
</g>
<!-- Node11&#45;&gt;Node1 -->
<g id="edge18" class="edge">
<title>Node11&#45;&gt;Node1</title>
<path fill="none" stroke="#191970" d="M801.2606,-153.7056C818.4554,-174.7055 845.3704,-212.7987 860.7735,-237.6186"/>
<polygon fill="#191970" stroke="#191970" points="857.9137,-239.6544 866.069,-246.4178 863.9114,-236.045 857.9137,-239.6544"/>
</g>
<!-- Node11&#45;&gt;Node10 -->
<g id="edge19" class="edge">
<title>Node11&#45;&gt;Node10</title>
<path fill="none" stroke="#191970" d="M816.7455,-123.4639C836.2624,-113.9191 861.7257,-101.4663 882.8325,-91.144"/>
<polygon fill="#191970" stroke="#191970" points="884.4375,-94.2552 891.8831,-86.7177 881.3622,-87.9669 884.4375,-94.2552"/>
</g>
<!-- Node12&#45;&gt;Node4 -->
<g id="edge21" class="edge">
<title>Node12&#45;&gt;Node4</title>
<path fill="none" stroke="#191970" d="M511.269,-148.0419C552.6542,-158.6877 616.5182,-175.9459 657.8538,-187.6229"/>
<polygon fill="#191970" stroke="#191970" points="657.0179,-191.0239 667.5938,-190.3906 658.9313,-184.2904 657.0179,-191.0239"/>
</g>
<!-- Node14&#45;&gt;Node1 -->
<g id="edge24" class="edge">
<title>Node14&#45;&gt;Node1</title>
<path fill="none" stroke="#191970" d="M1247.9603,-153.5315C1236.7663,-170.2051 1212.3241,-196.5271 1185,-210 1145.083,-229.6823 1028.7607,-245.5239 949.6659,-254.21"/>
<polygon fill="#191970" stroke="#191970" points="948.8135,-250.7817 939.2477,-255.3364 949.566,-257.7411 948.8135,-250.7817"/>
</g>
<!-- Node14&#45;&gt;Node15 -->
<g id="edge25" class="edge">
<title>Node14&#45;&gt;Node15</title>
<path fill="none" stroke="#191970" d="M1269.5648,-123.2967C1281.049,-112.7564 1296.3312,-98.7303 1308.0962,-87.9323"/>
<polygon fill="#191970" stroke="#191970" points="1310.5886,-90.3954 1315.5894,-81.055 1305.8553,-85.2382 1310.5886,-90.3954"/>
</g>
<!-- Node15&#45;&gt;Node1 -->
<g id="edge27" class="edge">
<title>Node15&#45;&gt;Node1</title>
<path fill="none" stroke="#191970" d="M1334.2874,-81.0399C1342.1341,-97.3835 1348.296,-131.179 1334,-154 1304.455,-201.1633 1275.055,-193.1937 1222,-210 1131.2847,-238.7359 1021.7743,-251.6413 949.6174,-257.2965"/>
<polygon fill="#191970" stroke="#191970" points="948.9571,-253.8363 939.249,-258.0793 949.4841,-260.8165 948.9571,-253.8363"/>
</g>
<!-- Node16 -->
<g id="node17" class="node">
<title>Node16</title>
<polygon fill="none" stroke="#bfbfbf" points="1353,-.5 1353,-19.5 1399,-19.5 1399,-.5 1353,-.5"/>
<text text-anchor="middle" x="1376" y="-7.5" font-family="Helvetica,sans-Serif" font-size="10.00" fill="#000000">stdio.h</text>
</g>
<!-- Node15&#45;&gt;Node16 -->
<g id="edge26" class="edge">
<title>Node15&#45;&gt;Node16</title>
<path fill="none" stroke="#191970" d="M1333.8125,-61.8906C1341.254,-52.7376 1352.6334,-38.7409 1361.6992,-27.59"/>
<polygon fill="#191970" stroke="#191970" points="1364.4847,-29.712 1368.0774,-19.7449 1359.0533,-25.2962 1364.4847,-29.712"/>
</g>
<!-- Node17&#45;&gt;Node1 -->
<g id="edge40" class="edge">
<title>Node17&#45;&gt;Node1</title>
<path fill="none" stroke="#191970" d="M904.0625,-313.3906C899.3959,-305.838 892.6915,-294.9876 886.6188,-285.1593"/>
<polygon fill="#191970" stroke="#191970" points="889.5298,-283.2119 881.2958,-276.5446 883.5748,-286.8914 889.5298,-283.2119"/>
</g>
<!-- Node17&#45;&gt;Node16 -->
<g id="edge39" class="edge">
<title>Node17&#45;&gt;Node16</title>
<path fill="none" stroke="#191970" d="M958.0807,-321.7336C1086.1777,-317.0642 1426,-295.6619 1426,-200 1426,-200 1426,-200 1426,-138.5 1426,-100.8735 1421.9872,-90.5128 1407,-56 1402.6618,-46.01 1396.1066,-35.8691 1390.1398,-27.6603"/>
<polygon fill="#191970" stroke="#191970" points="1392.8629,-25.4589 1384.0289,-19.6098 1387.2873,-29.6912 1392.8629,-25.4589"/>
</g>
</g>
</svg>
        <g id="navigator" transform="translate(0 0)" fill="#404254">
                <rect fill="#f2f5e9" fill-opacity="0.5" stroke="#606060" stroke-width=".5" x="0" y="0" width="60" height="60"/>
                <use id="zoomplus" xlink:href="#zoomPlus" x="17" y="9" onmousedown="handleZoom(evt,'in')"/>
                <use id="zoomminus" xlink:href="#zoomMin" x="42" y="9" onmousedown="handleZoom(evt,'out')"/>
                <use id="reset" xlink:href="#resetDef" x="30" y="36" onmousedown="handleReset()"/>
                <g id="arrowUp" xlink:href="#dirArrow" transform="translate(30 24)" onmousedown="handlePan(0,-1)">
                  <use xlink:href="#rim" fill="#404040">
                        <set attributeName="fill" to="#808080" begin="arrowUp.mouseover" end="arrowUp.mouseout"/>
                  </use>
                  <path fill="none" stroke="white" stroke-width="1.5" d="M0,-3.0v7 M-2.5,-0.5L0,-3.0L2.5,-0.5"/>
                </g>
                <g id="arrowRight" xlink:href="#dirArrow" transform="rotate(90) translate(36 -43)" onmousedown="handlePan(1,0)">
                  <use xlink:href="#rim" fill="#404040">
                        <set attributeName="fill" to="#808080" begin="arrowRight.mouseover" end="arrowRight.mouseout"/>
                  </use>
                  <path fill="none" stroke="white" stroke-width="1.5" d="M0,-3.0v7 M-2.5,-0.5L0,-3.0L2.5,-0.5"/>
                </g>
                <g id="arrowDown" xlink:href="#dirArrow" transform="rotate(180) translate(-30 -48)" onmousedown="handlePan(0,1)">
                  <use xlink:href="#rim" fill="#404040">
                        <set attributeName="fill" to="#808080" begin="arrowDown.mouseover" end="arrowDown.mouseout"/>
                  </use>
                  <path fill="none" stroke="white" stroke-width="1.5" d="M0,-3.0v7 M-2.5,-0.5L0,-3.0L2.5,-0.5"/>
                </g>
                <g id="arrowLeft" xlink:href="#dirArrow" transform="rotate(270) translate(-36 17)" onmousedown="handlePan(-1,0)">
                  <use xlink:href="#rim" fill="#404040">
                        <set attributeName="fill" to="#808080" begin="arrowLeft.mouseover" end="arrowLeft.mouseout"/>
                  </use>
                  <path fill="none" stroke="white" stroke-width="1.5" d="M0,-3.0v7 M-2.5,-0.5L0,-3.0L2.5,-0.5"/>
                </g>
        </g>
        <svg viewBox="0 0 15 15" width="100%" height="30px" preserveAspectRatio="xMaxYMin meet">
         <g id="arrow_out" transform="scale(0.3 0.3)">
          <a xlink:href="cofold_8h__incl_org.svg" target="_base">
           <rect id="button" ry="5" rx="5" y="6" x="6" height="38" width="38"
                fill="#f2f5e9" fill-opacity="0.5" stroke="#606060" stroke-width="1.0"/>
           <path id="arrow"
             d="M 11.500037,31.436501 C 11.940474,20.09759 22.043105,11.32322 32.158766,21.979434 L 37.068811,17.246167 C 37.068811,17.246167 37.088388,32 37.088388,32 L 22.160133,31.978069 C 22.160133,31.978069 26.997745,27.140456 26.997745,27.140456 C 18.528582,18.264221 13.291696,25.230495 11.500037,31.436501 z"
             style="fill:#404040;"/>
          </a>
         </g>
        </svg>
</svg>
