<?xml version="1.0" encoding="UTF-8" standalone="no"?>
<!DOCTYPE svg PUBLIC "-//W3C//DTD SVG 1.1//EN"
 "http://www.w3.org/Graphics/SVG/1.1/DTD/svg11.dtd">
<!-- Generated by graphviz version 2.40.1 (20161225.0304)
 -->
<!-- Title: ViennaRNA/concentrations.h Pages: 1 -->
<!--zoomable 397 -->
<svg id="main" version="1.1" xmlns="http://www.w3.org/2000/svg" xmlns:xlink="http://www.w3.org/1999/xlink" xml:space="preserve" onload="init(evt)">
<style type="text/css"><![CDATA[
.edge:hover path { stroke: red; }
.edge:hover polygon { stroke: red; fill: red; }
]]></style>
<script type="text/javascript"><![CDATA[
var edges = document.getElementsByTagName('g');
if (edges && edges.length) {
  for (var i=0;i<edges.length;i++) {
    if (edges[i].id.substr(0,4)=='edge') {
      edges[i].setAttribute('class','edge');
    }
  }
}
]]></script>
        <defs>
                <circle id="rim" cx="0" cy="0" r="7"/>
                <circle id="rim2" cx="0" cy="0" r="3.5"/>
                <g id="zoomPlus">
                        <use xlink:href="#rim" fill="#404040">
                                <set attributeName="fill" to="#808080" begin="zoomplus.mouseover" end="zoomplus.mouseout"/>
                        </use>
                        <path d="M-4,0h8M0,-4v8" fill="none" stroke="white" stroke-width="1.5" pointer-events="none"/>
                </g>
                <g id="zoomMin">
                        <use xlink:href="#rim" fill="#404040">
                                <set attributeName="fill" to="#808080" begin="zoomminus.mouseover" end="zoomminus.mouseout"/>
                        </use>
                        <path d="M-4,0h8" fill="none" stroke="white" stroke-width="1.5" pointer-events="none"/>
                </g>
                <g id="dirArrow">
                        <path fill="none" stroke="white" stroke-width="1.5" d="M0,-3.0v7 M-2.5,-0.5L0,-3.0L2.5,-0.5"/>
                </g>
               <g id="resetDef">
                       <use xlink:href="#rim2" fill="#404040">
                               <set attributeName="fill" to="#808080" begin="reset.mouseover" end="reset.mouseout"/>
                       </use>
               </g>
        </defs>

<script type="text/javascript">
var viewWidth = 1222;
var viewHeight = 397;
var sectionId = 'dynsection-0';
</script>
<script xlink:href="svgpan.js"/>
<svg id="graph" class="graph">
<g id="viewport">
<title>ViennaRNA/concentrations.h</title>
<!-- Node0 -->
<g id="node1" class="node">
<title>Node0</title>
<polygon fill="#bfbfbf" stroke="#000000" points="475.5,-369.5 475.5,-388.5 618.5,-388.5 618.5,-369.5 475.5,-369.5"/>
<text text-anchor="middle" x="547" y="-376.5" font-family="Helvetica,sans-Serif" font-size="10.00" fill="#000000">ViennaRNA/concentrations.h</text>
</g>
<!-- Node1 -->
<g id="node2" class="node">
<title>Node1</title>
<g id="a_node2"><a xlink:href="fold__compound_8h.html" target="_top" xlink:title="The Basic Fold Compound API. ">
<polygon fill="none" stroke="#000000" points="608,-313.5 608,-332.5 754,-332.5 754,-313.5 608,-313.5"/>
<text text-anchor="middle" x="681" y="-320.5" font-family="Helvetica,sans-Serif" font-size="10.00" fill="#000000">ViennaRNA/fold_compound.h</text>
</a>
</g>
</g>
<!-- Node0&#45;&gt;Node1 -->
<g id="edge1" class="edge">
<title>Node0&#45;&gt;Node1</title>
<path fill="none" stroke="#191970" d="M570.0354,-369.3733C591.7388,-360.3032 624.4618,-346.6279 648.755,-336.4755"/>
<polygon fill="#191970" stroke="#191970" points="650.3881,-339.5865 658.2652,-332.5011 647.6889,-333.1278 650.3881,-339.5865"/>
</g>
<!-- Node3 -->
<g id="node4" class="node">
<title>Node3</title>
<g id="a_node4"><a xlink:href="params_2basic_8h.html" target="_top" xlink:title="Functions to deal with sets of energy parameters. ">
<polygon fill="none" stroke="#000000" points="273,-257.5 273,-276.5 411,-276.5 411,-257.5 273,-257.5"/>
<text text-anchor="middle" x="342" y="-264.5" font-family="Helvetica,sans-Serif" font-size="10.00" fill="#000000">ViennaRNA/params/basic.h</text>
</a>
</g>
</g>
<!-- Node0&#45;&gt;Node3 -->
<g id="edge37" class="edge">
<title>Node0&#45;&gt;Node3</title>
<path fill="none" stroke="#191970" d="M529.5218,-369.4509C493.5148,-349.7788 410.8879,-304.6363 368.358,-281.4005"/>
<polygon fill="#191970" stroke="#191970" points="369.8877,-278.248 359.4339,-276.5249 366.5315,-284.3909 369.8877,-278.248"/>
</g>
<!-- Node2 -->
<g id="node3" class="node">
<title>Node2</title>
<g id="a_node3"><a xlink:href="model_8h.html" target="_top" xlink:title="The model details data structure and its corresponding modifiers. ">
<polygon fill="none" stroke="#000000" points="176,-129 176,-148 282,-148 282,-129 176,-129"/>
<text text-anchor="middle" x="229" y="-136" font-family="Helvetica,sans-Serif" font-size="10.00" fill="#000000">ViennaRNA/model.h</text>
</a>
</g>
</g>
<!-- Node1&#45;&gt;Node2 -->
<g id="edge2" class="edge">
<title>Node1&#45;&gt;Node2</title>
<path fill="none" stroke="#191970" d="M645.643,-313.4793C615.1755,-304.9457 570.2001,-291.5573 532,-277 428.2031,-237.4451 309.6188,-179.2927 256.8479,-152.7064"/>
<polygon fill="#191970" stroke="#191970" points="258.2822,-149.5097 247.7787,-148.1211 255.1238,-155.7567 258.2822,-149.5097"/>
</g>
<!-- Node1&#45;&gt;Node3 -->
<g id="edge3" class="edge">
<title>Node1&#45;&gt;Node3</title>
<path fill="none" stroke="#191970" d="M623.109,-313.4369C563.9948,-303.6717 472.2773,-288.5207 409.8034,-278.2006"/>
<polygon fill="#191970" stroke="#191970" points="410.089,-274.7004 399.6522,-276.5237 408.948,-281.6068 410.089,-274.7004"/>
</g>
<!-- Node7 -->
<g id="node8" class="node">
<title>Node7</title>
<g id="a_node8"><a xlink:href="dp__matrices_8h.html" target="_top" xlink:title="Functions to deal with standard dynamic programming (DP) matrices. ">
<polygon fill="none" stroke="#000000" points="300.5,-129 300.5,-148 433.5,-148 433.5,-129 300.5,-129"/>
<text text-anchor="middle" x="367" y="-136" font-family="Helvetica,sans-Serif" font-size="10.00" fill="#000000">ViennaRNA/dp_matrices.h</text>
</a>
</g>
</g>
<!-- Node1&#45;&gt;Node7 -->
<g id="edge31" class="edge">
<title>Node1&#45;&gt;Node7</title>
<path fill="none" stroke="#191970" d="M649.8714,-313.3429C625.8692,-305.2691 592.2773,-292.5809 565,-277 510.2683,-245.737 505.0221,-225.5898 453,-190 433.6095,-176.7344 410.7541,-163.1382 393.4804,-153.249"/>
<polygon fill="#191970" stroke="#191970" points="394.9404,-150.0533 384.5157,-148.1621 391.4857,-156.1414 394.9404,-150.0533"/>
</g>
<!-- Node8 -->
<g id="node9" class="node">
<title>Node8</title>
<g id="a_node9"><a xlink:href="hard_8h.html" target="_top" xlink:title="Functions and data structures for handling of secondary structure hard constraints. ">
<polygon fill="none" stroke="#000000" points="451.5,-123.5 451.5,-153.5 570.5,-153.5 570.5,-123.5 451.5,-123.5"/>
<text text-anchor="start" x="459.5" y="-141.5" font-family="Helvetica,sans-Serif" font-size="10.00" fill="#000000">ViennaRNA/constraints</text>
<text text-anchor="middle" x="511" y="-130.5" font-family="Helvetica,sans-Serif" font-size="10.00" fill="#000000">/hard.h</text>
</a>
</g>
</g>
<!-- Node1&#45;&gt;Node8 -->
<g id="edge32" class="edge">
<title>Node1&#45;&gt;Node8</title>
<path fill="none" stroke="#191970" d="M658.3913,-313.4174C625.9109,-298.4845 566.3981,-266.5701 534,-221 521.942,-204.0397 516.194,-180.9665 513.4605,-163.5332"/>
<polygon fill="#191970" stroke="#191970" points="516.915,-162.9594 512.1186,-153.5124 509.9769,-163.8885 516.915,-162.9594"/>
</g>
<!-- Node10 -->
<g id="node11" class="node">
<title>Node10</title>
<g id="a_node11"><a xlink:href="soft_8h.html" target="_top" xlink:title="Functions and data structures for secondary structure soft constraints. ">
<polygon fill="none" stroke="#000000" points="683.5,-123.5 683.5,-153.5 802.5,-153.5 802.5,-123.5 683.5,-123.5"/>
<text text-anchor="start" x="691.5" y="-141.5" font-family="Helvetica,sans-Serif" font-size="10.00" fill="#000000">ViennaRNA/constraints</text>
<text text-anchor="middle" x="743" y="-130.5" font-family="Helvetica,sans-Serif" font-size="10.00" fill="#000000">/soft.h</text>
</a>
</g>
</g>
<!-- Node1&#45;&gt;Node10 -->
<g id="edge33" class="edge">
<title>Node1&#45;&gt;Node10</title>
<path fill="none" stroke="#191970" d="M684.2461,-313.3402C693.5946,-285.5208 720.7938,-204.5813 734.6607,-163.3162"/>
<polygon fill="#191970" stroke="#191970" points="738.0122,-164.3303 737.8799,-153.7363 731.3768,-162.1005 738.0122,-164.3303"/>
</g>
<!-- Node11 -->
<g id="node12" class="node">
<title>Node11</title>
<g id="a_node12"><a xlink:href="grammar_8h.html" target="_top" xlink:title="Implementations for the RNA folding grammar. ">
<polygon fill="none" stroke="#000000" points="963.5,-129 963.5,-148 1080.5,-148 1080.5,-129 963.5,-129"/>
<text text-anchor="middle" x="1022" y="-136" font-family="Helvetica,sans-Serif" font-size="10.00" fill="#000000">ViennaRNA/grammar.h</text>
</a>
</g>
</g>
<!-- Node1&#45;&gt;Node11 -->
<g id="edge34" class="edge">
<title>Node1&#45;&gt;Node11</title>
<path fill="none" stroke="#191970" d="M754.2016,-315.2154C792.0265,-308.9194 837.8401,-297.5435 875,-277 930.9673,-246.059 979.2999,-185.6458 1004.5098,-155.8986"/>
<polygon fill="#191970" stroke="#191970" points="1007.4038,-157.9021 1011.2846,-148.0436 1002.103,-153.3302 1007.4038,-157.9021"/>
</g>
<!-- Node12 -->
<g id="node13" class="node">
<title>Node12</title>
<g id="a_node13"><a xlink:href="structured__domains_8h.html" target="_top" xlink:title="This module provides interfaces that deal with additional structured domains in the folding grammar...">
<polygon fill="none" stroke="#000000" points="1098.5,-123.5 1098.5,-153.5 1213.5,-153.5 1213.5,-123.5 1098.5,-123.5"/>
<text text-anchor="start" x="1106.5" y="-141.5" font-family="Helvetica,sans-Serif" font-size="10.00" fill="#000000">ViennaRNA/structured</text>
<text text-anchor="middle" x="1156" y="-130.5" font-family="Helvetica,sans-Serif" font-size="10.00" fill="#000000">_domains.h</text>
</a>
</g>
</g>
<!-- Node1&#45;&gt;Node12 -->
<g id="edge35" class="edge">
<title>Node1&#45;&gt;Node12</title>
<path fill="none" stroke="#191970" d="M754.1822,-315.586C802.6595,-309.0865 867.0201,-297.3777 921,-277 1000.9978,-246.8004 1085.0535,-190.3018 1127.6465,-159.6257"/>
<polygon fill="#191970" stroke="#191970" points="1129.811,-162.3794 1135.8444,-153.6703 1125.6968,-156.7161 1129.811,-162.3794"/>
</g>
<!-- Node13 -->
<g id="node14" class="node">
<title>Node13</title>
<g id="a_node14"><a xlink:href="unstructured__domains_8h.html" target="_top" xlink:title="Functions to modify unstructured domains, e.g. to incorporate ligands binding to unpaired stretches...">
<polygon fill="none" stroke="#000000" points="820.5,-123.5 820.5,-153.5 945.5,-153.5 945.5,-123.5 820.5,-123.5"/>
<text text-anchor="start" x="828.5" y="-141.5" font-family="Helvetica,sans-Serif" font-size="10.00" fill="#000000">ViennaRNA/unstructured</text>
<text text-anchor="middle" x="883" y="-130.5" font-family="Helvetica,sans-Serif" font-size="10.00" fill="#000000">_domains.h</text>
</a>
</g>
</g>
<!-- Node1&#45;&gt;Node13 -->
<g id="edge36" class="edge">
<title>Node1&#45;&gt;Node13</title>
<path fill="none" stroke="#191970" d="M752.1866,-313.4217C796.9194,-305.8889 848.9189,-293.8373 864,-277 891.69,-246.0855 890.8653,-194.6746 887.2651,-163.9427"/>
<polygon fill="#191970" stroke="#191970" points="890.6784,-163.0684 885.8607,-153.6323 883.7424,-164.0132 890.6784,-163.0684"/>
</g>
<!-- Node16 -->
<g id="node17" class="node">
<title>Node16</title>
<g id="a_node17"><a xlink:href="sequence_8h.html" target="_top" xlink:title="Functions and data structures related to sequence representations ,. ">
<polygon fill="none" stroke="#000000" points="733,-257.5 733,-276.5 855,-276.5 855,-257.5 733,-257.5"/>
<text text-anchor="middle" x="794" y="-264.5" font-family="Helvetica,sans-Serif" font-size="10.00" fill="#000000">ViennaRNA/sequence.h</text>
</a>
</g>
</g>
<!-- Node1&#45;&gt;Node16 -->
<g id="edge30" class="edge">
<title>Node1&#45;&gt;Node16</title>
<path fill="none" stroke="#191970" d="M700.4254,-313.3733C718.4021,-304.4644 745.3441,-291.1127 765.709,-281.0203"/>
<polygon fill="#191970" stroke="#191970" points="767.4222,-284.0776 774.8281,-276.5011 764.3139,-277.8055 767.4222,-284.0776"/>
</g>
<!-- Node3&#45;&gt;Node2 -->
<g id="edge29" class="edge">
<title>Node3&#45;&gt;Node2</title>
<path fill="none" stroke="#191970" d="M333.5066,-257.3416C314.5285,-235.7602 268.4582,-183.3706 244.3235,-155.9254"/>
<polygon fill="#191970" stroke="#191970" points="246.8239,-153.4687 237.5919,-148.2705 241.5673,-158.0912 246.8239,-153.4687"/>
</g>
<!-- Node4 -->
<g id="node5" class="node">
<title>Node4</title>
<g id="a_node5"><a xlink:href="constants_8h.html" target="_top" xlink:title="Energy parameter constants. ">
<polygon fill="none" stroke="#000000" points="0,-129 0,-148 158,-148 158,-129 0,-129"/>
<text text-anchor="middle" x="79" y="-136" font-family="Helvetica,sans-Serif" font-size="10.00" fill="#000000">ViennaRNA/params/constants.h</text>
</a>
</g>
</g>
<!-- Node3&#45;&gt;Node4 -->
<g id="edge4" class="edge">
<title>Node3&#45;&gt;Node4</title>
<path fill="none" stroke="#191970" d="M322.2323,-257.3416C276.1404,-234.8215 161.3884,-178.7544 107.6332,-152.49"/>
<polygon fill="#191970" stroke="#191970" points="109.1598,-149.3405 98.6384,-148.0952 106.0868,-155.6299 109.1598,-149.3405"/>
</g>
<!-- Node6 -->
<g id="node7" class="node">
<title>Node6</title>
<g id="a_node7"><a xlink:href="datastructures_2basic_8h.html" target="_top" xlink:title="Various data structures and pre&#45;processor macros. ">
<polygon fill="none" stroke="#000000" points="543,-190.5 543,-220.5 677,-220.5 677,-190.5 543,-190.5"/>
<text text-anchor="start" x="551" y="-208.5" font-family="Helvetica,sans-Serif" font-size="10.00" fill="#000000">ViennaRNA/datastructures</text>
<text text-anchor="middle" x="610" y="-197.5" font-family="Helvetica,sans-Serif" font-size="10.00" fill="#000000">/basic.h</text>
</a>
</g>
</g>
<!-- Node3&#45;&gt;Node6 -->
<g id="edge6" class="edge">
<title>Node3&#45;&gt;Node6</title>
<path fill="none" stroke="#191970" d="M378.5317,-257.4581C418.0843,-247.9533 482.1427,-233.1776 532.8903,-221.8091"/>
<polygon fill="#191970" stroke="#191970" points="533.855,-225.1799 542.8511,-219.5834 532.3285,-218.3483 533.855,-225.1799"/>
</g>
<!-- Node5 -->
<g id="node6" class="node">
<title>Node5</title>
<polygon fill="none" stroke="#bfbfbf" points="55,-62 55,-81 103,-81 103,-62 55,-62"/>
<text text-anchor="middle" x="79" y="-69" font-family="Helvetica,sans-Serif" font-size="10.00" fill="#000000">limits.h</text>
</g>
<!-- Node4&#45;&gt;Node5 -->
<g id="edge5" class="edge">
<title>Node4&#45;&gt;Node5</title>
<path fill="none" stroke="#191970" d="M79,-128.9005C79,-119.149 79,-103.7597 79,-91.3695"/>
<polygon fill="#191970" stroke="#191970" points="82.5001,-91.0816 79,-81.0817 75.5001,-91.0817 82.5001,-91.0816"/>
</g>
<!-- Node6&#45;&gt;Node1 -->
<g id="edge8" class="edge">
<title>Node6&#45;&gt;Node1</title>
<path fill="none" stroke="#191970" d="M619.1933,-220.7143C632.1832,-242.2117 655.8804,-281.4288 669.8553,-304.5563"/>
<polygon fill="#191970" stroke="#191970" points="667.0224,-306.6358 675.1898,-313.3845 673.0136,-303.0155 667.0224,-306.6358"/>
</g>
<!-- Node6&#45;&gt;Node2 -->
<g id="edge9" class="edge">
<title>Node6&#45;&gt;Node2</title>
<path fill="none" stroke="#191970" d="M542.7946,-196.3433C478.0289,-187.1205 377.4128,-171.7436 291,-154 285.7017,-152.9121 280.1729,-151.6764 274.6936,-150.3887"/>
<polygon fill="#191970" stroke="#191970" points="275.4869,-146.9797 264.9448,-148.0354 273.8443,-153.7843 275.4869,-146.9797"/>
</g>
<!-- Node6&#45;&gt;Node3 -->
<g id="edge10" class="edge">
<title>Node6&#45;&gt;Node3</title>
<path fill="none" stroke="#191970" d="M550.1935,-220.5784C504.8188,-231.2825 442.9489,-245.4445 398.421,-255.2994"/>
<polygon fill="#191970" stroke="#191970" points="397.6421,-251.887 388.6302,-257.4581 399.1493,-258.7228 397.6421,-251.887"/>
</g>
<!-- Node6&#45;&gt;Node4 -->
<g id="edge7" class="edge">
<title>Node6&#45;&gt;Node4</title>
<path fill="none" stroke="#191970" d="M542.6693,-198.9131C455.7056,-190.1212 299.735,-173.3881 167,-154 158.3008,-152.7293 149.1406,-151.2617 140.1498,-149.7465"/>
<polygon fill="#191970" stroke="#191970" points="140.5523,-146.2645 130.1045,-148.0235 139.3689,-153.1637 140.5523,-146.2645"/>
</g>
<!-- Node6&#45;&gt;Node7 -->
<g id="edge11" class="edge">
<title>Node6&#45;&gt;Node7</title>
<path fill="none" stroke="#191970" d="M549.7255,-190.4639C504.9791,-178.5284 445.3195,-162.0456 406.4801,-150.8678"/>
<polygon fill="#191970" stroke="#191970" points="407.171,-147.4241 396.5921,-148.0053 405.2244,-154.1481 407.171,-147.4241"/>
</g>
<!-- Node6&#45;&gt;Node8 -->
<g id="edge13" class="edge">
<title>Node6&#45;&gt;Node8</title>
<path fill="none" stroke="#191970" d="M582.0419,-190.4639C567.5257,-181.39 550.0388,-169.6877 535.9781,-159.6864"/>
<polygon fill="#191970" stroke="#191970" points="537.8777,-156.7409 527.7234,-153.7177 533.7761,-162.4134 537.8777,-156.7409"/>
</g>
<!-- Node6&#45;&gt;Node10 -->
<g id="edge17" class="edge">
<title>Node6&#45;&gt;Node10</title>
<path fill="none" stroke="#191970" d="M634.1073,-190.4639C651.8883,-180.9191 676.4523,-168.4663 697.7971,-158.144"/>
<polygon fill="#191970" stroke="#191970" points="699.5251,-161.197 707.0291,-153.7177 696.4988,-154.885 699.5251,-161.197"/>
</g>
<!-- Node6&#45;&gt;Node11 -->
<g id="edge20" class="edge">
<title>Node6&#45;&gt;Node11</title>
<path fill="none" stroke="#191970" d="M677.0476,-197.0911C746.7582,-187.9743 858.9154,-172.2561 955,-154 960.861,-152.8864 966.9866,-151.617 973.0503,-150.295"/>
<polygon fill="#191970" stroke="#191970" points="974.1437,-153.637 983.1388,-148.0389 972.616,-146.8058 974.1437,-153.637"/>
</g>
<!-- Node6&#45;&gt;Node12 -->
<g id="edge22" class="edge">
<title>Node6&#45;&gt;Node12</title>
<path fill="none" stroke="#191970" d="M677.1404,-200.9328C768.2817,-194.1476 936.3442,-179.5628 1088.4947,-154.1381"/>
<polygon fill="#191970" stroke="#191970" points="1089.216,-157.5659 1098.4926,-152.4477 1088.049,-150.6639 1089.216,-157.5659"/>
</g>
<!-- Node6&#45;&gt;Node13 -->
<g id="edge23" class="edge">
<title>Node6&#45;&gt;Node13</title>
<path fill="none" stroke="#191970" d="M665.526,-190.4639C707.2941,-179.8963 764.8258,-165.7638 810.257,-154.905"/>
<polygon fill="#191970" stroke="#191970" points="811.1353,-158.2938 820.0511,-152.5703 809.5121,-151.4846 811.1353,-158.2938"/>
</g>
<!-- Node14 -->
<g id="node15" class="node">
<title>Node14</title>
<g id="a_node15"><a xlink:href="utils_2structures_8h.html" target="_top" xlink:title="Various utility&#45; and helper&#45;functions for secondary structure parsing, converting, etc. ">
<polygon fill="none" stroke="#000000" points="633,-62 633,-81 777,-81 777,-62 633,-62"/>
<text text-anchor="middle" x="705" y="-69" font-family="Helvetica,sans-Serif" font-size="10.00" fill="#000000">ViennaRNA/utils/structures.h</text>
</a>
</g>
</g>
<!-- Node6&#45;&gt;Node14 -->
<g id="edge28" class="edge">
<title>Node6&#45;&gt;Node14</title>
<path fill="none" stroke="#191970" d="M616.2497,-190.389C631.0621,-165.3136 666.4709,-115.2534 688.0257,-88.8014"/>
<polygon fill="#191970" stroke="#191970" points="690.7399,-91.0118 694.4935,-81.1042 685.3807,-86.5085 690.7399,-91.0118"/>
</g>
<!-- Node7&#45;&gt;Node6 -->
<g id="edge12" class="edge">
<title>Node7&#45;&gt;Node6</title>
<path fill="none" stroke="#191970" d="M406.3567,-148.0053C445.7342,-158.3075 506.5918,-174.9807 551.5756,-187.7259"/>
<polygon fill="#191970" stroke="#191970" points="550.6306,-191.0958 561.2066,-190.4639 552.5449,-184.3627 550.6306,-191.0958"/>
</g>
<!-- Node8&#45;&gt;Node6 -->
<g id="edge14" class="edge">
<title>Node8&#45;&gt;Node6</title>
<path fill="none" stroke="#191970" d="M539.1293,-153.6432C553.6278,-162.7121 571.0553,-174.3776 585.0688,-184.3469"/>
<polygon fill="#191970" stroke="#191970" points="583.142,-187.2728 593.2962,-190.2967 587.244,-181.6006 583.142,-187.2728"/>
</g>
<!-- Node9 -->
<g id="node10" class="node">
<title>Node9</title>
<g id="a_node10"><a xlink:href="constraints_2basic_8h.html" target="_top" xlink:title="Functions and data structures for constraining secondary structure predictions and evaluation...">
<polygon fill="none" stroke="#000000" points="495.5,-56.5 495.5,-86.5 614.5,-86.5 614.5,-56.5 495.5,-56.5"/>
<text text-anchor="start" x="503.5" y="-74.5" font-family="Helvetica,sans-Serif" font-size="10.00" fill="#000000">ViennaRNA/constraints</text>
<text text-anchor="middle" x="555" y="-63.5" font-family="Helvetica,sans-Serif" font-size="10.00" fill="#000000">/basic.h</text>
</a>
</g>
</g>
<!-- Node8&#45;&gt;Node9 -->
<g id="edge15" class="edge">
<title>Node8&#45;&gt;Node9</title>
<path fill="none" stroke="#191970" d="M520.9843,-123.2967C526.4412,-114.9873 533.3208,-104.5115 539.4629,-95.1587"/>
<polygon fill="#191970" stroke="#191970" points="542.4914,-96.9231 545.0552,-86.6432 536.6404,-93.0806 542.4914,-96.9231"/>
</g>
<!-- Node9&#45;&gt;Node6 -->
<g id="edge16" class="edge">
<title>Node9&#45;&gt;Node6</title>
<path fill="none" stroke="#191970" d="M562.8571,-86.6337C568.0056,-96.7954 574.732,-110.5521 580,-123 588.1162,-142.178 596.1151,-164.3869 601.8096,-180.9276"/>
<polygon fill="#191970" stroke="#191970" points="598.5034,-182.0766 605.038,-190.4163 605.1304,-179.8219 598.5034,-182.0766"/>
</g>
<!-- Node10&#45;&gt;Node6 -->
<g id="edge18" class="edge">
<title>Node10&#45;&gt;Node6</title>
<path fill="none" stroke="#191970" d="M718.5542,-153.7177C700.6877,-163.2991 676.1015,-175.7567 654.7979,-186.0518"/>
<polygon fill="#191970" stroke="#191970" points="653.0946,-182.9868 645.5883,-190.4639 656.119,-189.2998 653.0946,-182.9868"/>
</g>
<!-- Node10&#45;&gt;Node9 -->
<g id="edge19" class="edge">
<title>Node10&#45;&gt;Node9</title>
<path fill="none" stroke="#191970" d="M700.8091,-123.4639C673.0889,-113.5849 636.6269,-100.5905 607.0999,-90.0675"/>
<polygon fill="#191970" stroke="#191970" points="607.9696,-86.6619 597.3749,-86.6017 605.6196,-93.2557 607.9696,-86.6619"/>
</g>
<!-- Node11&#45;&gt;Node1 -->
<g id="edge21" class="edge">
<title>Node11&#45;&gt;Node1</title>
<path fill="none" stroke="#191970" d="M1019.7684,-148.0436C1006.7676,-173.4316 954.4919,-243.0047 893,-277 853.85,-298.6438 805.0944,-310.1116 764.1602,-316.1839"/>
<polygon fill="#191970" stroke="#191970" points="763.6218,-312.7251 754.2041,-317.5786 764.593,-319.6574 763.6218,-312.7251"/>
</g>
<!-- Node13&#45;&gt;Node6 -->
<g id="edge24" class="edge">
<title>Node13&#45;&gt;Node6</title>
<path fill="none" stroke="#191970" d="M827.2148,-153.6017C786.7472,-163.8386 731.5824,-177.3981 686.9436,-188.0899"/>
<polygon fill="#191970" stroke="#191970" points="685.92,-184.7359 677.0071,-190.4639 687.5467,-191.5443 685.92,-184.7359"/>
</g>
<!-- Node13&#45;&gt;Node14 -->
<g id="edge25" class="edge">
<title>Node13&#45;&gt;Node14</title>
<path fill="none" stroke="#191970" d="M843.0533,-123.4639C812.0189,-111.7824 769.4119,-95.7449 739.7721,-84.5884"/>
<polygon fill="#191970" stroke="#191970" points="740.8448,-81.2525 730.2529,-81.0053 738.3788,-87.8037 740.8448,-81.2525"/>
</g>
<!-- Node14&#45;&gt;Node6 -->
<g id="edge27" class="edge">
<title>Node14&#45;&gt;Node6</title>
<path fill="none" stroke="#191970" d="M701.8886,-81.1042C690.4403,-102.1468 655.0329,-152.8114 631.4765,-182.5867"/>
<polygon fill="#191970" stroke="#191970" points="628.7357,-180.4099 625.1764,-190.389 634.1819,-184.8075 628.7357,-180.4099"/>
</g>
<!-- Node15 -->
<g id="node16" class="node">
<title>Node15</title>
<polygon fill="none" stroke="#bfbfbf" points="682,-.5 682,-19.5 728,-19.5 728,-.5 682,-.5"/>
<text text-anchor="middle" x="705" y="-7.5" font-family="Helvetica,sans-Serif" font-size="10.00" fill="#000000">stdio.h</text>
</g>
<!-- Node14&#45;&gt;Node15 -->
<g id="edge26" class="edge">
<title>Node14&#45;&gt;Node15</title>
<path fill="none" stroke="#191970" d="M705,-61.8906C705,-53.3657 705,-40.6392 705,-29.9235"/>
<polygon fill="#191970" stroke="#191970" points="708.5001,-29.7448 705,-19.7449 701.5001,-29.7449 708.5001,-29.7448"/>
</g>
</g>
</svg>
        <g id="navigator" transform="translate(0 0)" fill="#404254">
                <rect fill="#f2f5e9" fill-opacity="0.5" stroke="#606060" stroke-width=".5" x="0" y="0" width="60" height="60"/>
                <use id="zoomplus" xlink:href="#zoomPlus" x="17" y="9" onmousedown="handleZoom(evt,'in')"/>
                <use id="zoomminus" xlink:href="#zoomMin" x="42" y="9" onmousedown="handleZoom(evt,'out')"/>
                <use id="reset" xlink:href="#resetDef" x="30" y="36" onmousedown="handleReset()"/>
                <g id="arrowUp" xlink:href="#dirArrow" transform="translate(30 24)" onmousedown="handlePan(0,-1)">
                  <use xlink:href="#rim" fill="#404040">
                        <set attributeName="fill" to="#808080" begin="arrowUp.mouseover" end="arrowUp.mouseout"/>
                  </use>
                  <path fill="none" stroke="white" stroke-width="1.5" d="M0,-3.0v7 M-2.5,-0.5L0,-3.0L2.5,-0.5"/>
                </g>
                <g id="arrowRight" xlink:href="#dirArrow" transform="rotate(90) translate(36 -43)" onmousedown="handlePan(1,0)">
                  <use xlink:href="#rim" fill="#404040">
                        <set attributeName="fill" to="#808080" begin="arrowRight.mouseover" end="arrowRight.mouseout"/>
                  </use>
                  <path fill="none" stroke="white" stroke-width="1.5" d="M0,-3.0v7 M-2.5,-0.5L0,-3.0L2.5,-0.5"/>
                </g>
                <g id="arrowDown" xlink:href="#dirArrow" transform="rotate(180) translate(-30 -48)" onmousedown="handlePan(0,1)">
                  <use xlink:href="#rim" fill="#404040">
                        <set attributeName="fill" to="#808080" begin="arrowDown.mouseover" end="arrowDown.mouseout"/>
                  </use>
                  <path fill="none" stroke="white" stroke-width="1.5" d="M0,-3.0v7 M-2.5,-0.5L0,-3.0L2.5,-0.5"/>
                </g>
                <g id="arrowLeft" xlink:href="#dirArrow" transform="rotate(270) translate(-36 17)" onmousedown="handlePan(-1,0)">
                  <use xlink:href="#rim" fill="#404040">
                        <set attributeName="fill" to="#808080" begin="arrowLeft.mouseover" end="arrowLeft.mouseout"/>
                  </use>
                  <path fill="none" stroke="white" stroke-width="1.5" d="M0,-3.0v7 M-2.5,-0.5L0,-3.0L2.5,-0.5"/>
                </g>
        </g>
        <svg viewBox="0 0 15 15" width="100%" height="30px" preserveAspectRatio="xMaxYMin meet">
         <g id="arrow_out" transform="scale(0.3 0.3)">
          <a xlink:href="concentrations_8h__incl_org.svg" target="_base">
           <rect id="button" ry="5" rx="5" y="6" x="6" height="38" width="38"
                fill="#f2f5e9" fill-opacity="0.5" stroke="#606060" stroke-width="1.0"/>
           <path id="arrow"
             d="M 11.500037,31.436501 C 11.940474,20.09759 22.043105,11.32322 32.158766,21.979434 L 37.068811,17.246167 C 37.068811,17.246167 37.088388,32 37.088388,32 L 22.160133,31.978069 C 22.160133,31.978069 26.997745,27.140456 26.997745,27.140456 C 18.528582,18.264221 13.291696,25.230495 11.500037,31.436501 z"
             style="fill:#404040;"/>
          </a>
         </g>
        </svg>
</svg>
