<?xml version="1.0" encoding="UTF-8" standalone="no"?>
<!DOCTYPE svg PUBLIC "-//W3C//DTD SVG 1.1//EN"
 "http://www.w3.org/Graphics/SVG/1.1/DTD/svg11.dtd">
<!-- Generated by graphviz version 2.40.1 (20161225.0304)
 -->
<!-- Title: ViennaRNA/constraints.h Pages: 1 -->
<!--zoomable 397 -->
<svg id="main" version="1.1" xmlns="http://www.w3.org/2000/svg" xmlns:xlink="http://www.w3.org/1999/xlink" xml:space="preserve" onload="init(evt)">
<style type="text/css"><![CDATA[
.edge:hover path { stroke: red; }
.edge:hover polygon { stroke: red; fill: red; }
]]></style>
<script type="text/javascript"><![CDATA[
var edges = document.getElementsByTagName('g');
if (edges && edges.length) {
  for (var i=0;i<edges.length;i++) {
    if (edges[i].id.substr(0,4)=='edge') {
      edges[i].setAttribute('class','edge');
    }
  }
}
]]></script>
        <defs>
                <circle id="rim" cx="0" cy="0" r="7"/>
                <circle id="rim2" cx="0" cy="0" r="3.5"/>
                <g id="zoomPlus">
                        <use xlink:href="#rim" fill="#404040">
                                <set attributeName="fill" to="#808080" begin="zoomplus.mouseover" end="zoomplus.mouseout"/>
                        </use>
                        <path d="M-4,0h8M0,-4v8" fill="none" stroke="white" stroke-width="1.5" pointer-events="none"/>
                </g>
                <g id="zoomMin">
                        <use xlink:href="#rim" fill="#404040">
                                <set attributeName="fill" to="#808080" begin="zoomminus.mouseover" end="zoomminus.mouseout"/>
                        </use>
                        <path d="M-4,0h8" fill="none" stroke="white" stroke-width="1.5" pointer-events="none"/>
                </g>
                <g id="dirArrow">
                        <path fill="none" stroke="white" stroke-width="1.5" d="M0,-3.0v7 M-2.5,-0.5L0,-3.0L2.5,-0.5"/>
                </g>
               <g id="resetDef">
                       <use xlink:href="#rim2" fill="#404040">
                               <set attributeName="fill" to="#808080" begin="reset.mouseover" end="reset.mouseout"/>
                       </use>
               </g>
        </defs>

<script type="text/javascript">
var viewWidth = 1296;
var viewHeight = 397;
var sectionId = 'dynsection-0';
</script>
<script xlink:href="svgpan.js"/>
<svg id="graph" class="graph">
<g id="viewport">
<title>ViennaRNA/constraints.h</title>
<!-- Node0 -->
<g id="node1" class="node">
<title>Node0</title>
<polygon fill="#bfbfbf" stroke="#000000" points="725.5,-369.5 725.5,-388.5 853.5,-388.5 853.5,-369.5 725.5,-369.5"/>
<text text-anchor="middle" x="789.5" y="-376.5" font-family="Helvetica,sans-Serif" font-size="10.00" fill="#000000">ViennaRNA/constraints.h</text>
</g>
<!-- Node1 -->
<g id="node2" class="node">
<title>Node1</title>
<g id="a_node2"><a xlink:href="constraints_2basic_8h.html" target="_top" xlink:title="Functions and data structures for constraining secondary structure predictions and evaluation...">
<polygon fill="none" stroke="#000000" points="730,-302.5 730,-332.5 849,-332.5 849,-302.5 730,-302.5"/>
<text text-anchor="start" x="738" y="-320.5" font-family="Helvetica,sans-Serif" font-size="10.00" fill="#000000">ViennaRNA/constraints</text>
<text text-anchor="middle" x="789.5" y="-309.5" font-family="Helvetica,sans-Serif" font-size="10.00" fill="#000000">/basic.h</text>
</a>
</g>
</g>
<!-- Node0&#45;&gt;Node1 -->
<g id="edge1" class="edge">
<title>Node0&#45;&gt;Node1</title>
<path fill="none" stroke="#191970" d="M789.5,-369.3906C789.5,-362.2234 789.5,-352.0862 789.5,-342.671"/>
<polygon fill="#191970" stroke="#191970" points="793.0001,-342.5446 789.5,-332.5446 786.0001,-342.5446 793.0001,-342.5446"/>
</g>
<!-- Node10 -->
<g id="node11" class="node">
<title>Node10</title>
<g id="a_node11"><a xlink:href="hard_8h.html" target="_top" xlink:title="Functions and data structures for handling of secondary structure hard constraints. ">
<polygon fill="none" stroke="#000000" points="0,-112.5 0,-142.5 119,-142.5 119,-112.5 0,-112.5"/>
<text text-anchor="start" x="8" y="-130.5" font-family="Helvetica,sans-Serif" font-size="10.00" fill="#000000">ViennaRNA/constraints</text>
<text text-anchor="middle" x="59.5" y="-119.5" font-family="Helvetica,sans-Serif" font-size="10.00" fill="#000000">/hard.h</text>
</a>
</g>
</g>
<!-- Node0&#45;&gt;Node10 -->
<g id="edge37" class="edge">
<title>Node0&#45;&gt;Node10</title>
<path fill="none" stroke="#191970" d="M725.3241,-371.3814C587.0357,-354.3215 265.3746,-311.0016 165.5,-266 121.6436,-246.2391 107.441,-238.8505 80.5,-199 71.2037,-185.2491 65.9509,-167.323 63.0235,-152.8602"/>
<polygon fill="#191970" stroke="#191970" points="66.3975,-151.84 61.2098,-142.6021 59.5044,-153.0588 66.3975,-151.84"/>
</g>
<!-- Node11 -->
<g id="node12" class="node">
<title>Node11</title>
<g id="a_node12"><a xlink:href="soft_8h.html" target="_top" xlink:title="Functions and data structures for secondary structure soft constraints. ">
<polygon fill="none" stroke="#000000" points="1169,-112.5 1169,-142.5 1288,-142.5 1288,-112.5 1169,-112.5"/>
<text text-anchor="start" x="1177" y="-130.5" font-family="Helvetica,sans-Serif" font-size="10.00" fill="#000000">ViennaRNA/constraints</text>
<text text-anchor="middle" x="1228.5" y="-119.5" font-family="Helvetica,sans-Serif" font-size="10.00" fill="#000000">/soft.h</text>
</a>
</g>
</g>
<!-- Node0&#45;&gt;Node11 -->
<g id="edge38" class="edge">
<title>Node0&#45;&gt;Node11</title>
<path fill="none" stroke="#191970" d="M853.5854,-373.0674C895.7316,-367.1935 951.0949,-355.6251 995.5,-333 1088.0542,-285.8422 1173.2183,-193.335 1209.7304,-150.3997"/>
<polygon fill="#191970" stroke="#191970" points="1212.4136,-152.647 1216.1726,-142.7414 1207.0569,-148.1409 1212.4136,-152.647"/>
</g>
<!-- Node17 -->
<g id="node18" class="node">
<title>Node17</title>
<g id="a_node18"><a xlink:href="SHAPE_8h.html" target="_top" xlink:title="This module provides function to incorporate SHAPE reactivity data into the folding recursions by mea...">
<polygon fill="none" stroke="#000000" points="593,-302.5 593,-332.5 712,-332.5 712,-302.5 593,-302.5"/>
<text text-anchor="start" x="601" y="-320.5" font-family="Helvetica,sans-Serif" font-size="10.00" fill="#000000">ViennaRNA/constraints</text>
<text text-anchor="middle" x="652.5" y="-309.5" font-family="Helvetica,sans-Serif" font-size="10.00" fill="#000000">/SHAPE.h</text>
</a>
</g>
</g>
<!-- Node0&#45;&gt;Node17 -->
<g id="edge39" class="edge">
<title>Node0&#45;&gt;Node17</title>
<path fill="none" stroke="#191970" d="M768.0938,-369.3906C748.6941,-360.682 719.5271,-347.5888 695.3457,-336.7336"/>
<polygon fill="#191970" stroke="#191970" points="696.5703,-333.447 686.014,-332.5446 693.7035,-339.833 696.5703,-333.447"/>
</g>
<!-- Node18 -->
<g id="node19" class="node">
<title>Node18</title>
<g id="a_node19"><a xlink:href="ligand_8h.html" target="_top" xlink:title="Functions for incorporation of ligands binding to hairpin and interior loop motifs using the soft con...">
<polygon fill="none" stroke="#000000" points="867,-302.5 867,-332.5 986,-332.5 986,-302.5 867,-302.5"/>
<text text-anchor="start" x="875" y="-320.5" font-family="Helvetica,sans-Serif" font-size="10.00" fill="#000000">ViennaRNA/constraints</text>
<text text-anchor="middle" x="926.5" y="-309.5" font-family="Helvetica,sans-Serif" font-size="10.00" fill="#000000">/ligand.h</text>
</a>
</g>
</g>
<!-- Node0&#45;&gt;Node18 -->
<g id="edge41" class="edge">
<title>Node0&#45;&gt;Node18</title>
<path fill="none" stroke="#191970" d="M810.9063,-369.3906C830.3059,-360.682 859.4729,-347.5888 883.6543,-336.7336"/>
<polygon fill="#191970" stroke="#191970" points="885.2965,-339.833 892.986,-332.5446 882.4297,-333.447 885.2965,-339.833"/>
</g>
<!-- Node2 -->
<g id="node3" class="node">
<title>Node2</title>
<g id="a_node3"><a xlink:href="datastructures_2basic_8h.html" target="_top" xlink:title="Various data structures and pre&#45;processor macros. ">
<polygon fill="none" stroke="#000000" points="722.5,-235.5 722.5,-265.5 856.5,-265.5 856.5,-235.5 722.5,-235.5"/>
<text text-anchor="start" x="730.5" y="-253.5" font-family="Helvetica,sans-Serif" font-size="10.00" fill="#000000">ViennaRNA/datastructures</text>
<text text-anchor="middle" x="789.5" y="-242.5" font-family="Helvetica,sans-Serif" font-size="10.00" fill="#000000">/basic.h</text>
</a>
</g>
</g>
<!-- Node1&#45;&gt;Node2 -->
<g id="edge2" class="edge">
<title>Node1&#45;&gt;Node2</title>
<path fill="none" stroke="#191970" d="M789.5,-302.2967C789.5,-294.5013 789.5,-284.7991 789.5,-275.9064"/>
<polygon fill="#191970" stroke="#191970" points="793.0001,-275.6431 789.5,-265.6432 786.0001,-275.6432 793.0001,-275.6431"/>
</g>
<!-- Node3 -->
<g id="node4" class="node">
<title>Node3</title>
<g id="a_node4"><a xlink:href="constants_8h.html" target="_top" xlink:title="Energy parameter constants. ">
<polygon fill="none" stroke="#000000" points="117.5,-56.5 117.5,-75.5 275.5,-75.5 275.5,-56.5 117.5,-56.5"/>
<text text-anchor="middle" x="196.5" y="-63.5" font-family="Helvetica,sans-Serif" font-size="10.00" fill="#000000">ViennaRNA/params/constants.h</text>
</a>
</g>
</g>
<!-- Node2&#45;&gt;Node3 -->
<g id="edge3" class="edge">
<title>Node2&#45;&gt;Node3</title>
<path fill="none" stroke="#191970" d="M722.3554,-243.9285C568.497,-228.1771 200.9918,-186.3446 166.5,-143 152.5026,-125.41 166.8782,-100.5067 180.1386,-83.832"/>
<polygon fill="#191970" stroke="#191970" points="183.0256,-85.8386 186.815,-75.9446 177.6827,-81.316 183.0256,-85.8386"/>
</g>
<!-- Node5 -->
<g id="node6" class="node">
<title>Node5</title>
<g id="a_node6"><a xlink:href="fold__compound_8h.html" target="_top" xlink:title="The Basic Fold Compound API. ">
<polygon fill="none" stroke="#000000" points="544.5,-179.5 544.5,-198.5 690.5,-198.5 690.5,-179.5 544.5,-179.5"/>
<text text-anchor="middle" x="617.5" y="-186.5" font-family="Helvetica,sans-Serif" font-size="10.00" fill="#000000">ViennaRNA/fold_compound.h</text>
</a>
</g>
</g>
<!-- Node2&#45;&gt;Node5 -->
<g id="edge5" class="edge">
<title>Node2&#45;&gt;Node5</title>
<path fill="none" stroke="#191970" d="M747.4241,-235.4554C718.7254,-225.194 681.1063,-211.7429 653.7377,-201.9571"/>
<polygon fill="#191970" stroke="#191970" points="654.7485,-198.6015 644.1539,-198.5303 652.3917,-205.1929 654.7485,-198.6015"/>
</g>
<!-- Node6 -->
<g id="node7" class="node">
<title>Node6</title>
<g id="a_node7"><a xlink:href="model_8h.html" target="_top" xlink:title="The model details data structure and its corresponding modifiers. ">
<polygon fill="none" stroke="#000000" points="564.5,-56.5 564.5,-75.5 670.5,-75.5 670.5,-56.5 564.5,-56.5"/>
<text text-anchor="middle" x="617.5" y="-63.5" font-family="Helvetica,sans-Serif" font-size="10.00" fill="#000000">ViennaRNA/model.h</text>
</a>
</g>
</g>
<!-- Node2&#45;&gt;Node6 -->
<g id="edge28" class="edge">
<title>Node2&#45;&gt;Node6</title>
<path fill="none" stroke="#191970" d="M792.2102,-235.4994C796.3313,-207.6131 800.7877,-147.4137 770.5,-112 758.4293,-97.8864 717.1228,-85.9516 680.4691,-77.7779"/>
<polygon fill="#191970" stroke="#191970" points="680.7964,-74.2678 670.2824,-75.5736 679.3159,-81.1094 680.7964,-74.2678"/>
</g>
<!-- Node7 -->
<g id="node8" class="node">
<title>Node7</title>
<g id="a_node8"><a xlink:href="params_2basic_8h.html" target="_top" xlink:title="Functions to deal with sets of energy parameters. ">
<polygon fill="none" stroke="#000000" points="175.5,-118 175.5,-137 313.5,-137 313.5,-118 175.5,-118"/>
<text text-anchor="middle" x="244.5" y="-125" font-family="Helvetica,sans-Serif" font-size="10.00" fill="#000000">ViennaRNA/params/basic.h</text>
</a>
</g>
</g>
<!-- Node2&#45;&gt;Node7 -->
<g id="edge29" class="edge">
<title>Node2&#45;&gt;Node7</title>
<path fill="none" stroke="#191970" d="M722.2108,-242.3807C658.5401,-233.6265 560.7977,-218.3121 477.5,-199 404.6935,-182.1202 321.4545,-155.9856 276.6831,-140.427"/>
<polygon fill="#191970" stroke="#191970" points="277.8009,-137.11 267.2061,-137.087 275.4741,-143.712 277.8009,-137.11"/>
</g>
<!-- Node9 -->
<g id="node10" class="node">
<title>Node9</title>
<g id="a_node10"><a xlink:href="dp__matrices_8h.html" target="_top" xlink:title="Functions to deal with standard dynamic programming (DP) matrices. ">
<polygon fill="none" stroke="#000000" points="1018,-118 1018,-137 1151,-137 1151,-118 1018,-118"/>
<text text-anchor="middle" x="1084.5" y="-125" font-family="Helvetica,sans-Serif" font-size="10.00" fill="#000000">ViennaRNA/dp_matrices.h</text>
</a>
</g>
</g>
<!-- Node2&#45;&gt;Node9 -->
<g id="edge30" class="edge">
<title>Node2&#45;&gt;Node9</title>
<path fill="none" stroke="#191970" d="M856.5673,-241.5947C898.0246,-234.3472 951.2763,-221.4848 994.5,-199 1021.3407,-185.0376 1046.5142,-160.2853 1063.7172,-143.8827"/>
<polygon fill="#191970" stroke="#191970" points="1066.1478,-146.4016 1071.0378,-137.0027 1061.3539,-141.3007 1066.1478,-146.4016"/>
</g>
<!-- Node2&#45;&gt;Node10 -->
<g id="edge31" class="edge">
<title>Node2&#45;&gt;Node10</title>
<path fill="none" stroke="#191970" d="M722.3518,-247.8117C565.2874,-240.9507 183.6125,-221.7196 130.5,-199 105.9984,-188.5191 83.8977,-167.423 70.737,-150.8493"/>
<polygon fill="#191970" stroke="#191970" points="73.4584,-148.6426 64.7043,-142.6747 67.8261,-152.7992 73.4584,-148.6426"/>
</g>
<!-- Node2&#45;&gt;Node11 -->
<g id="edge32" class="edge">
<title>Node2&#45;&gt;Node11</title>
<path fill="none" stroke="#191970" d="M856.7664,-238.3911C905.704,-229.4658 973.1927,-215.9496 1031.5,-199 1082.0411,-184.308 1138.2389,-162.1306 1177.7489,-146.3754"/>
<polygon fill="#191970" stroke="#191970" points="1179.4296,-149.4732 1187.4207,-142.5166 1176.8356,-142.9715 1179.4296,-149.4732"/>
</g>
<!-- Node12 -->
<g id="node13" class="node">
<title>Node12</title>
<g id="a_node13"><a xlink:href="grammar_8h.html" target="_top" xlink:title="Implementations for the RNA folding grammar. ">
<polygon fill="none" stroke="#000000" points="332,-118 332,-137 449,-137 449,-118 332,-118"/>
<text text-anchor="middle" x="390.5" y="-125" font-family="Helvetica,sans-Serif" font-size="10.00" fill="#000000">ViennaRNA/grammar.h</text>
</a>
</g>
</g>
<!-- Node2&#45;&gt;Node12 -->
<g id="edge33" class="edge">
<title>Node2&#45;&gt;Node12</title>
<path fill="none" stroke="#191970" d="M722.4747,-241.7416C670.5284,-233.8062 597.2412,-220.0844 535.5,-199 491.3517,-183.9235 443.4076,-158.284 415.2069,-142.1532"/>
<polygon fill="#191970" stroke="#191970" points="416.8424,-139.0559 406.4341,-137.0763 413.3362,-145.1145 416.8424,-139.0559"/>
</g>
<!-- Node13 -->
<g id="node14" class="node">
<title>Node13</title>
<g id="a_node14"><a xlink:href="structured__domains_8h.html" target="_top" xlink:title="This module provides interfaces that deal with additional structured domains in the folding grammar...">
<polygon fill="none" stroke="#000000" points="646,-112.5 646,-142.5 761,-142.5 761,-112.5 646,-112.5"/>
<text text-anchor="start" x="654" y="-130.5" font-family="Helvetica,sans-Serif" font-size="10.00" fill="#000000">ViennaRNA/structured</text>
<text text-anchor="middle" x="703.5" y="-119.5" font-family="Helvetica,sans-Serif" font-size="10.00" fill="#000000">_domains.h</text>
</a>
</g>
</g>
<!-- Node2&#45;&gt;Node13 -->
<g id="edge34" class="edge">
<title>Node2&#45;&gt;Node13</title>
<path fill="none" stroke="#191970" d="M778.9547,-235.4178C764.2543,-214.3928 737.455,-176.0635 720.0705,-151.1997"/>
<polygon fill="#191970" stroke="#191970" points="722.7301,-148.8955 714.1315,-142.7056 716.9933,-152.9066 722.7301,-148.8955"/>
</g>
<!-- Node14 -->
<g id="node15" class="node">
<title>Node14</title>
<g id="a_node15"><a xlink:href="unstructured__domains_8h.html" target="_top" xlink:title="Functions to modify unstructured domains, e.g. to incorporate ligands binding to unpaired stretches...">
<polygon fill="none" stroke="#000000" points="818,-112.5 818,-142.5 943,-142.5 943,-112.5 818,-112.5"/>
<text text-anchor="start" x="826" y="-130.5" font-family="Helvetica,sans-Serif" font-size="10.00" fill="#000000">ViennaRNA/unstructured</text>
<text text-anchor="middle" x="880.5" y="-119.5" font-family="Helvetica,sans-Serif" font-size="10.00" fill="#000000">_domains.h</text>
</a>
</g>
</g>
<!-- Node2&#45;&gt;Node14 -->
<g id="edge35" class="edge">
<title>Node2&#45;&gt;Node14</title>
<path fill="none" stroke="#191970" d="M796.0441,-235.4178C809.1817,-214.2084 837.6377,-175.3897 858.0435,-150.5485"/>
<polygon fill="#191970" stroke="#191970" points="860.8769,-152.6167 864.6213,-142.7056 855.5135,-148.1185 860.8769,-152.6167"/>
</g>
<!-- Node15 -->
<g id="node16" class="node">
<title>Node15</title>
<g id="a_node16"><a xlink:href="utils_2structures_8h.html" target="_top" xlink:title="Various utility&#45; and helper&#45;functions for secondary structure parsing, converting, etc. ">
<polygon fill="none" stroke="#000000" points="908.5,-56.5 908.5,-75.5 1052.5,-75.5 1052.5,-56.5 908.5,-56.5"/>
<text text-anchor="middle" x="980.5" y="-63.5" font-family="Helvetica,sans-Serif" font-size="10.00" fill="#000000">ViennaRNA/utils/structures.h</text>
</a>
</g>
</g>
<!-- Node2&#45;&gt;Node15 -->
<g id="edge36" class="edge">
<title>Node2&#45;&gt;Node15</title>
<path fill="none" stroke="#191970" d="M818.1733,-235.4173C852.5424,-218.0922 909.2625,-186.3694 943.5,-143 956.8034,-126.1482 964.153,-102.4007 969.7896,-85.7471"/>
<polygon fill="#191970" stroke="#191970" points="973.214,-86.566 973.2916,-75.9714 966.6241,-84.2052 973.214,-86.566"/>
</g>
<!-- Node4 -->
<g id="node5" class="node">
<title>Node4</title>
<polygon fill="none" stroke="#bfbfbf" points="172.5,-.5 172.5,-19.5 220.5,-19.5 220.5,-.5 172.5,-.5"/>
<text text-anchor="middle" x="196.5" y="-7.5" font-family="Helvetica,sans-Serif" font-size="10.00" fill="#000000">limits.h</text>
</g>
<!-- Node3&#45;&gt;Node4 -->
<g id="edge4" class="edge">
<title>Node3&#45;&gt;Node4</title>
<path fill="none" stroke="#191970" d="M196.5,-56.2455C196.5,-48.9382 196.5,-38.6944 196.5,-29.7046"/>
<polygon fill="#191970" stroke="#191970" points="200.0001,-29.6426 196.5,-19.6427 193.0001,-29.6427 200.0001,-29.6426"/>
</g>
<!-- Node5&#45;&gt;Node6 -->
<g id="edge6" class="edge">
<title>Node5&#45;&gt;Node6</title>
<path fill="none" stroke="#191970" d="M617.5,-179.3484C617.5,-159.2295 617.5,-112.4608 617.5,-85.7098"/>
<polygon fill="#191970" stroke="#191970" points="621.0001,-85.6067 617.5,-75.6068 614.0001,-85.6068 621.0001,-85.6067"/>
</g>
<!-- Node5&#45;&gt;Node7 -->
<g id="edge7" class="edge">
<title>Node5&#45;&gt;Node7</title>
<path fill="none" stroke="#191970" d="M551.1728,-179.4605C491.2984,-170.6583 400.8443,-156.8863 322.5,-143 315.4903,-141.7576 308.14,-140.3868 300.8707,-138.9898"/>
<polygon fill="#191970" stroke="#191970" points="301.5322,-135.553 291.0477,-137.0782 300.195,-142.4241 301.5322,-135.553"/>
</g>
<!-- Node8 -->
<g id="node9" class="node">
<title>Node8</title>
<g id="a_node9"><a xlink:href="sequence_8h.html" target="_top" xlink:title="Functions and data structures related to sequence representations ,. ">
<polygon fill="none" stroke="#000000" points="467.5,-118 467.5,-137 589.5,-137 589.5,-118 467.5,-118"/>
<text text-anchor="middle" x="528.5" y="-125" font-family="Helvetica,sans-Serif" font-size="10.00" fill="#000000">ViennaRNA/sequence.h</text>
</a>
</g>
</g>
<!-- Node5&#45;&gt;Node8 -->
<g id="edge11" class="edge">
<title>Node5&#45;&gt;Node8</title>
<path fill="none" stroke="#191970" d="M603.5938,-179.3906C589.4862,-169.6421 567.4276,-154.3994 550.8615,-142.9521"/>
<polygon fill="#191970" stroke="#191970" points="552.5253,-139.8474 542.3086,-137.0419 548.5458,-145.6063 552.5253,-139.8474"/>
</g>
<!-- Node5&#45;&gt;Node9 -->
<g id="edge12" class="edge">
<title>Node5&#45;&gt;Node9</title>
<path fill="none" stroke="#191970" d="M689.7007,-179.4918C775.984,-168.129 919.7308,-149.1987 1007.91,-137.5863"/>
<polygon fill="#191970" stroke="#191970" points="1008.3936,-141.0529 1017.851,-136.2771 1007.4796,-134.1128 1008.3936,-141.0529"/>
</g>
<!-- Node5&#45;&gt;Node10 -->
<g id="edge14" class="edge">
<title>Node5&#45;&gt;Node10</title>
<path fill="none" stroke="#191970" d="M544.357,-182.4966C455.0576,-174.336 299.4867,-159.4068 166.5,-143 154.493,-141.5187 141.7495,-139.8007 129.4014,-138.0592"/>
<polygon fill="#191970" stroke="#191970" points="129.5411,-134.5438 119.1469,-136.5955 128.5519,-141.4735 129.5411,-134.5438"/>
</g>
<!-- Node5&#45;&gt;Node11 -->
<g id="edge17" class="edge">
<title>Node5&#45;&gt;Node11</title>
<path fill="none" stroke="#191970" d="M690.7838,-186.0417C793.4768,-181.1745 986.1173,-169.4155 1158.8505,-143.1306"/>
<polygon fill="#191970" stroke="#191970" points="1159.5368,-146.5663 1168.8868,-141.5834 1158.4702,-139.648 1159.5368,-146.5663"/>
</g>
<!-- Node5&#45;&gt;Node12 -->
<g id="edge20" class="edge">
<title>Node5&#45;&gt;Node12</title>
<path fill="none" stroke="#191970" d="M577.231,-179.4581C535.7919,-168.7984 471.8154,-151.5091 430.4849,-139.8315"/>
<polygon fill="#191970" stroke="#191970" points="431.3246,-136.4316 420.7486,-137.0643 429.4108,-143.1649 431.3246,-136.4316"/>
</g>
<!-- Node5&#45;&gt;Node13 -->
<g id="edge22" class="edge">
<title>Node5&#45;&gt;Node13</title>
<path fill="none" stroke="#191970" d="M630.9375,-179.3906C642.4688,-171.1444 659.4976,-158.9669 674.1611,-148.4807"/>
<polygon fill="#191970" stroke="#191970" points="676.3638,-151.2084 682.462,-142.5446 672.292,-145.5145 676.3638,-151.2084"/>
</g>
<!-- Node5&#45;&gt;Node14 -->
<g id="edge23" class="edge">
<title>Node5&#45;&gt;Node14</title>
<path fill="none" stroke="#191970" d="M658.3052,-179.4581C698.1922,-170.1309 759.7852,-155.728 808.015,-144.4499"/>
<polygon fill="#191970" stroke="#191970" points="808.841,-147.8513 817.7814,-142.1661 807.2471,-141.0351 808.841,-147.8513"/>
</g>
<!-- Node7&#45;&gt;Node2 -->
<g id="edge9" class="edge">
<title>Node7&#45;&gt;Node2</title>
<path fill="none" stroke="#191970" d="M278.5769,-137.087C326.804,-151.9795 417.1871,-180.8436 495.5,-199 568.5916,-215.9459 652.8051,-229.8137 712.3787,-238.8721"/>
<polygon fill="#191970" stroke="#191970" points="712.0529,-242.3625 722.4636,-240.3956 713.0986,-235.4411 712.0529,-242.3625"/>
</g>
<!-- Node7&#45;&gt;Node3 -->
<g id="edge8" class="edge">
<title>Node7&#45;&gt;Node3</title>
<path fill="none" stroke="#191970" d="M237,-117.8906C229.9262,-108.8273 219.1458,-95.0149 210.4854,-83.9188"/>
<polygon fill="#191970" stroke="#191970" points="213.0176,-81.4746 204.1057,-75.7449 207.4994,-85.7815 213.0176,-81.4746"/>
</g>
<!-- Node7&#45;&gt;Node6 -->
<g id="edge10" class="edge">
<title>Node7&#45;&gt;Node6</title>
<path fill="none" stroke="#191970" d="M291.0477,-117.9218C301.3875,-115.8859 312.3041,-113.8072 322.5,-112 402.229,-97.8683 494.4995,-83.8549 554.3185,-75.0774"/>
<polygon fill="#191970" stroke="#191970" points="554.9777,-78.5183 564.3658,-73.6076 553.9644,-71.5921 554.9777,-78.5183"/>
</g>
<!-- Node9&#45;&gt;Node2 -->
<g id="edge13" class="edge">
<title>Node9&#45;&gt;Node2</title>
<path fill="none" stroke="#191970" d="M1082.134,-137.0027C1072.1859,-152.4505 1043.4515,-182.8992 1012.5,-199 967.4303,-222.4451 911.4578,-235.4283 866.8008,-242.4929"/>
<polygon fill="#191970" stroke="#191970" points="866.2357,-239.0385 856.8724,-243.9962 867.2837,-245.9596 866.2357,-239.0385"/>
</g>
<!-- Node10&#45;&gt;Node1 -->
<g id="edge16" class="edge">
<title>Node10&#45;&gt;Node1</title>
<path fill="none" stroke="#191970" d="M64.5478,-142.7896C70.8848,-159.4393 83.4261,-185.4931 103.5,-199 331.4598,-352.3845 444.979,-251.062 719.8569,-301.9779"/>
<polygon fill="#191970" stroke="#191970" points="719.2253,-305.4205 729.7037,-303.8541 720.5355,-298.5442 719.2253,-305.4205"/>
</g>
<!-- Node10&#45;&gt;Node2 -->
<g id="edge15" class="edge">
<title>Node10&#45;&gt;Node2</title>
<path fill="none" stroke="#191970" d="M77.6171,-142.6747C94.2658,-159.7459 119.7275,-186.6922 148.5,-199 199.453,-220.7958 552.7934,-239.3811 712.06,-246.9141"/>
<polygon fill="#191970" stroke="#191970" points="712.1112,-250.4203 722.2646,-247.3942 712.4402,-243.428 712.1112,-250.4203"/>
</g>
<!-- Node11&#45;&gt;Node1 -->
<g id="edge19" class="edge">
<title>Node11&#45;&gt;Node1</title>
<path fill="none" stroke="#191970" d="M1201.6324,-142.6154C1174.3136,-157.7233 1130.564,-181.204 1091.5,-199 1005.5638,-238.1491 902.6507,-276.8481 841.8612,-298.8935"/>
<polygon fill="#191970" stroke="#191970" points="840.3255,-295.7269 832.1106,-302.4177 842.7049,-302.3101 840.3255,-295.7269"/>
</g>
<!-- Node11&#45;&gt;Node2 -->
<g id="edge18" class="edge">
<title>Node11&#45;&gt;Node2</title>
<path fill="none" stroke="#191970" d="M1200.7314,-142.5166C1165.8046,-158.318 1104.3242,-183.0629 1049.5,-199 989.1049,-216.5565 918.859,-230.4294 866.5496,-239.3322"/>
<polygon fill="#191970" stroke="#191970" points="865.9492,-235.8839 856.6667,-240.9912 867.1082,-242.7873 865.9492,-235.8839"/>
</g>
<!-- Node12&#45;&gt;Node5 -->
<g id="edge21" class="edge">
<title>Node12&#45;&gt;Node5</title>
<path fill="none" stroke="#191970" d="M430.769,-137.0419C472.1542,-147.6877 536.0182,-164.9459 577.3538,-176.6229"/>
<polygon fill="#191970" stroke="#191970" points="576.5179,-180.0239 587.0938,-179.3906 578.4313,-173.2904 576.5179,-180.0239"/>
</g>
<!-- Node14&#45;&gt;Node2 -->
<g id="edge24" class="edge">
<title>Node14&#45;&gt;Node2</title>
<path fill="none" stroke="#191970" d="M873.8794,-142.7056C860.6827,-163.9831 832.2126,-202.8086 811.8381,-227.5956"/>
<polygon fill="#191970" stroke="#191970" points="809.0208,-225.5081 805.2726,-235.4178 814.3825,-230.0084 809.0208,-225.5081"/>
</g>
<!-- Node14&#45;&gt;Node15 -->
<g id="edge25" class="edge">
<title>Node14&#45;&gt;Node15</title>
<path fill="none" stroke="#191970" d="M904.9628,-112.4554C920.6235,-102.8241 940.8532,-90.3828 956.4356,-80.7996"/>
<polygon fill="#191970" stroke="#191970" points="958.319,-83.7503 965.0035,-75.5303 954.652,-77.7876 958.319,-83.7503"/>
</g>
<!-- Node15&#45;&gt;Node2 -->
<g id="edge27" class="edge">
<title>Node15&#45;&gt;Node2</title>
<path fill="none" stroke="#191970" d="M984.608,-75.9714C985.0872,-91.6662 977.7175,-122.4569 961.5,-143 929.9373,-182.9812 879.2676,-213.0645 840.9761,-231.0944"/>
<polygon fill="#191970" stroke="#191970" points="839.1644,-228.0743 831.5269,-235.4173 842.0765,-234.4398 839.1644,-228.0743"/>
</g>
<!-- Node16 -->
<g id="node17" class="node">
<title>Node16</title>
<polygon fill="none" stroke="#bfbfbf" points="957.5,-.5 957.5,-19.5 1003.5,-19.5 1003.5,-.5 957.5,-.5"/>
<text text-anchor="middle" x="980.5" y="-7.5" font-family="Helvetica,sans-Serif" font-size="10.00" fill="#000000">stdio.h</text>
</g>
<!-- Node15&#45;&gt;Node16 -->
<g id="edge26" class="edge">
<title>Node15&#45;&gt;Node16</title>
<path fill="none" stroke="#191970" d="M980.5,-56.2455C980.5,-48.9382 980.5,-38.6944 980.5,-29.7046"/>
<polygon fill="#191970" stroke="#191970" points="984.0001,-29.6426 980.5,-19.6427 977.0001,-29.6427 984.0001,-29.6426"/>
</g>
<!-- Node17&#45;&gt;Node2 -->
<g id="edge40" class="edge">
<title>Node17&#45;&gt;Node2</title>
<path fill="none" stroke="#191970" d="M683.2455,-302.4639C702.7624,-292.9191 728.2257,-280.4663 749.3325,-270.144"/>
<polygon fill="#191970" stroke="#191970" points="750.9375,-273.2552 758.3831,-265.7177 747.8622,-266.9669 750.9375,-273.2552"/>
</g>
<!-- Node18&#45;&gt;Node2 -->
<g id="edge42" class="edge">
<title>Node18&#45;&gt;Node2</title>
<path fill="none" stroke="#191970" d="M895.7545,-302.4639C876.2376,-292.9191 850.7743,-280.4663 829.6675,-270.144"/>
<polygon fill="#191970" stroke="#191970" points="831.1378,-266.9669 820.6169,-265.7177 828.0625,-273.2552 831.1378,-266.9669"/>
</g>
</g>
</svg>
        <g id="navigator" transform="translate(0 0)" fill="#404254">
                <rect fill="#f2f5e9" fill-opacity="0.5" stroke="#606060" stroke-width=".5" x="0" y="0" width="60" height="60"/>
                <use id="zoomplus" xlink:href="#zoomPlus" x="17" y="9" onmousedown="handleZoom(evt,'in')"/>
                <use id="zoomminus" xlink:href="#zoomMin" x="42" y="9" onmousedown="handleZoom(evt,'out')"/>
                <use id="reset" xlink:href="#resetDef" x="30" y="36" onmousedown="handleReset()"/>
                <g id="arrowUp" xlink:href="#dirArrow" transform="translate(30 24)" onmousedown="handlePan(0,-1)">
                  <use xlink:href="#rim" fill="#404040">
                        <set attributeName="fill" to="#808080" begin="arrowUp.mouseover" end="arrowUp.mouseout"/>
                  </use>
                  <path fill="none" stroke="white" stroke-width="1.5" d="M0,-3.0v7 M-2.5,-0.5L0,-3.0L2.5,-0.5"/>
                </g>
                <g id="arrowRight" xlink:href="#dirArrow" transform="rotate(90) translate(36 -43)" onmousedown="handlePan(1,0)">
                  <use xlink:href="#rim" fill="#404040">
                        <set attributeName="fill" to="#808080" begin="arrowRight.mouseover" end="arrowRight.mouseout"/>
                  </use>
                  <path fill="none" stroke="white" stroke-width="1.5" d="M0,-3.0v7 M-2.5,-0.5L0,-3.0L2.5,-0.5"/>
                </g>
                <g id="arrowDown" xlink:href="#dirArrow" transform="rotate(180) translate(-30 -48)" onmousedown="handlePan(0,1)">
                  <use xlink:href="#rim" fill="#404040">
                        <set attributeName="fill" to="#808080" begin="arrowDown.mouseover" end="arrowDown.mouseout"/>
                  </use>
                  <path fill="none" stroke="white" stroke-width="1.5" d="M0,-3.0v7 M-2.5,-0.5L0,-3.0L2.5,-0.5"/>
                </g>
                <g id="arrowLeft" xlink:href="#dirArrow" transform="rotate(270) translate(-36 17)" onmousedown="handlePan(-1,0)">
                  <use xlink:href="#rim" fill="#404040">
                        <set attributeName="fill" to="#808080" begin="arrowLeft.mouseover" end="arrowLeft.mouseout"/>
                  </use>
                  <path fill="none" stroke="white" stroke-width="1.5" d="M0,-3.0v7 M-2.5,-0.5L0,-3.0L2.5,-0.5"/>
                </g>
        </g>
        <svg viewBox="0 0 15 15" width="100%" height="30px" preserveAspectRatio="xMaxYMin meet">
         <g id="arrow_out" transform="scale(0.3 0.3)">
          <a xlink:href="constraints_8h__incl_org.svg" target="_base">
           <rect id="button" ry="5" rx="5" y="6" x="6" height="38" width="38"
                fill="#f2f5e9" fill-opacity="0.5" stroke="#606060" stroke-width="1.0"/>
           <path id="arrow"
             d="M 11.500037,31.436501 C 11.940474,20.09759 22.043105,11.32322 32.158766,21.979434 L 37.068811,17.246167 C 37.068811,17.246167 37.088388,32 37.088388,32 L 22.160133,31.978069 C 22.160133,31.978069 26.997745,27.140456 26.997745,27.140456 C 18.528582,18.264221 13.291696,25.230495 11.500037,31.436501 z"
             style="fill:#404040;"/>
          </a>
         </g>
        </svg>
</svg>
