<?xml version="1.0" encoding="UTF-8" standalone="no"?>
<!DOCTYPE svg PUBLIC "-//W3C//DTD SVG 1.1//EN"
 "http://www.w3.org/Graphics/SVG/1.1/DTD/svg11.dtd">
<!-- Generated by graphviz version 2.40.1 (20161225.0304)
 -->
<!-- Title: ViennaRNA/constraints_hard.h Pages: 1 -->
<!--zoomable 419 -->
<svg id="main" version="1.1" xmlns="http://www.w3.org/2000/svg" xmlns:xlink="http://www.w3.org/1999/xlink" xml:space="preserve" onload="init(evt)">
<style type="text/css"><![CDATA[
.edge:hover path { stroke: red; }
.edge:hover polygon { stroke: red; fill: red; }
]]></style>
<script type="text/javascript"><![CDATA[
var edges = document.getElementsByTagName('g');
if (edges && edges.length) {
  for (var i=0;i<edges.length;i++) {
    if (edges[i].id.substr(0,4)=='edge') {
      edges[i].setAttribute('class','edge');
    }
  }
}
]]></script>
        <defs>
                <circle id="rim" cx="0" cy="0" r="7"/>
                <circle id="rim2" cx="0" cy="0" r="3.5"/>
                <g id="zoomPlus">
                        <use xlink:href="#rim" fill="#404040">
                                <set attributeName="fill" to="#808080" begin="zoomplus.mouseover" end="zoomplus.mouseout"/>
                        </use>
                        <path d="M-4,0h8M0,-4v8" fill="none" stroke="white" stroke-width="1.5" pointer-events="none"/>
                </g>
                <g id="zoomMin">
                        <use xlink:href="#rim" fill="#404040">
                                <set attributeName="fill" to="#808080" begin="zoomminus.mouseover" end="zoomminus.mouseout"/>
                        </use>
                        <path d="M-4,0h8" fill="none" stroke="white" stroke-width="1.5" pointer-events="none"/>
                </g>
                <g id="dirArrow">
                        <path fill="none" stroke="white" stroke-width="1.5" d="M0,-3.0v7 M-2.5,-0.5L0,-3.0L2.5,-0.5"/>
                </g>
               <g id="resetDef">
                       <use xlink:href="#rim2" fill="#404040">
                               <set attributeName="fill" to="#808080" begin="reset.mouseover" end="reset.mouseout"/>
                       </use>
               </g>
        </defs>

<script type="text/javascript">
var viewWidth = 1284;
var viewHeight = 419;
var sectionId = 'dynsection-0';
</script>
<script xlink:href="svgpan.js"/>
<svg id="graph" class="graph">
<g id="viewport">
<title>ViennaRNA/constraints_hard.h</title>
<!-- Node0 -->
<g id="node1" class="node">
<title>Node0</title>
<polygon fill="#bfbfbf" stroke="#000000" points="691.5,-380.5 691.5,-410.5 810.5,-410.5 810.5,-380.5 691.5,-380.5"/>
<text text-anchor="start" x="699.5" y="-398.5" font-family="Helvetica,sans-Serif" font-size="10.00" fill="#000000">ViennaRNA/constraints</text>
<text text-anchor="middle" x="751" y="-387.5" font-family="Helvetica,sans-Serif" font-size="10.00" fill="#000000">_hard.h</text>
</g>
<!-- Node1 -->
<g id="node2" class="node">
<title>Node1</title>
<g id="a_node2"><a xlink:href="hard_8h.html" target="_top" xlink:title="Functions and data structures for handling of secondary structure hard constraints. ">
<polygon fill="none" stroke="#000000" points="691.5,-313.5 691.5,-343.5 810.5,-343.5 810.5,-313.5 691.5,-313.5"/>
<text text-anchor="start" x="699.5" y="-331.5" font-family="Helvetica,sans-Serif" font-size="10.00" fill="#000000">ViennaRNA/constraints</text>
<text text-anchor="middle" x="751" y="-320.5" font-family="Helvetica,sans-Serif" font-size="10.00" fill="#000000">/hard.h</text>
</a>
</g>
</g>
<!-- Node0&#45;&gt;Node1 -->
<g id="edge1" class="edge">
<title>Node0&#45;&gt;Node1</title>
<path fill="none" stroke="#191970" d="M751,-380.2967C751,-372.5013 751,-362.7991 751,-353.9064"/>
<polygon fill="#191970" stroke="#191970" points="754.5001,-353.6431 751,-343.6432 747.5001,-353.6432 754.5001,-353.6431"/>
</g>
<!-- Node2 -->
<g id="node3" class="node">
<title>Node2</title>
<g id="a_node3"><a xlink:href="datastructures_2basic_8h.html" target="_top" xlink:title="Various data structures and pre&#45;processor macros. ">
<polygon fill="none" stroke="#000000" points="684,-246.5 684,-276.5 818,-276.5 818,-246.5 684,-246.5"/>
<text text-anchor="start" x="692" y="-264.5" font-family="Helvetica,sans-Serif" font-size="10.00" fill="#000000">ViennaRNA/datastructures</text>
<text text-anchor="middle" x="751" y="-253.5" font-family="Helvetica,sans-Serif" font-size="10.00" fill="#000000">/basic.h</text>
</a>
</g>
</g>
<!-- Node1&#45;&gt;Node2 -->
<g id="edge2" class="edge">
<title>Node1&#45;&gt;Node2</title>
<path fill="none" stroke="#191970" d="M745.2392,-313.2967C744.2895,-305.4156 744.0236,-295.5857 744.4416,-286.6135"/>
<polygon fill="#191970" stroke="#191970" points="747.9304,-286.8924 745.2464,-276.6432 740.9531,-286.3291 747.9304,-286.8924"/>
</g>
<!-- Node11 -->
<g id="node12" class="node">
<title>Node11</title>
<g id="a_node12"><a xlink:href="constraints_2basic_8h.html" target="_top" xlink:title="Functions and data structures for constraining secondary structure predictions and evaluation...">
<polygon fill="none" stroke="#000000" points="1156.5,-56.5 1156.5,-86.5 1275.5,-86.5 1275.5,-56.5 1156.5,-56.5"/>
<text text-anchor="start" x="1164.5" y="-74.5" font-family="Helvetica,sans-Serif" font-size="10.00" fill="#000000">ViennaRNA/constraints</text>
<text text-anchor="middle" x="1216" y="-63.5" font-family="Helvetica,sans-Serif" font-size="10.00" fill="#000000">/basic.h</text>
</a>
</g>
</g>
<!-- Node1&#45;&gt;Node11 -->
<g id="edge36" class="edge">
<title>Node1&#45;&gt;Node11</title>
<path fill="none" stroke="#191970" d="M810.7714,-323.6123C896.7885,-314.0686 1057.3888,-286.6477 1169,-210 1194.646,-192.3879 1200.2732,-183.2034 1211,-154 1217.7371,-135.6586 1218.7217,-113.487 1218.1673,-96.7494"/>
<polygon fill="#191970" stroke="#191970" points="1221.6553,-96.4287 1217.6258,-86.63 1214.6653,-96.8028 1221.6553,-96.4287"/>
</g>
<!-- Node2&#45;&gt;Node1 -->
<g id="edge30" class="edge">
<title>Node2&#45;&gt;Node1</title>
<path fill="none" stroke="#191970" d="M756.7536,-276.6432C757.7067,-284.5143 757.9761,-294.3414 757.5616,-303.3179"/>
<polygon fill="#191970" stroke="#191970" points="754.072,-303.0487 756.7608,-313.2967 761.0496,-303.6087 754.072,-303.0487"/>
</g>
<!-- Node3 -->
<g id="node4" class="node">
<title>Node3</title>
<g id="a_node4"><a xlink:href="constants_8h.html" target="_top" xlink:title="Energy parameter constants. ">
<polygon fill="none" stroke="#000000" points="0,-62 0,-81 158,-81 158,-62 0,-62"/>
<text text-anchor="middle" x="79" y="-69" font-family="Helvetica,sans-Serif" font-size="10.00" fill="#000000">ViennaRNA/params/constants.h</text>
</a>
</g>
</g>
<!-- Node2&#45;&gt;Node3 -->
<g id="edge3" class="edge">
<title>Node2&#45;&gt;Node3</title>
<path fill="none" stroke="#191970" d="M683.9521,-256.2275C516.3291,-242.361 89.5376,-202.5727 49,-154 33.2229,-135.0957 49.3085,-107.1935 63.3234,-89.18"/>
<polygon fill="#191970" stroke="#191970" points="66.2294,-91.1571 69.8884,-81.2141 60.8275,-86.7052 66.2294,-91.1571"/>
</g>
<!-- Node5 -->
<g id="node6" class="node">
<title>Node5</title>
<g id="a_node6"><a xlink:href="fold__compound_8h.html" target="_top" xlink:title="The Basic Fold Compound API. ">
<polygon fill="none" stroke="#000000" points="530,-190.5 530,-209.5 676,-209.5 676,-190.5 530,-190.5"/>
<text text-anchor="middle" x="603" y="-197.5" font-family="Helvetica,sans-Serif" font-size="10.00" fill="#000000">ViennaRNA/fold_compound.h</text>
</a>
</g>
</g>
<!-- Node2&#45;&gt;Node5 -->
<g id="edge5" class="edge">
<title>Node2&#45;&gt;Node5</title>
<path fill="none" stroke="#191970" d="M714.7951,-246.4554C690.5342,-236.374 658.8644,-223.2139 635.4288,-213.4755"/>
<polygon fill="#191970" stroke="#191970" points="636.5123,-210.1356 625.9347,-209.5303 633.8261,-216.5997 636.5123,-210.1356"/>
</g>
<!-- Node6 -->
<g id="node7" class="node">
<title>Node6</title>
<g id="a_node7"><a xlink:href="model_8h.html" target="_top" xlink:title="The model details data structure and its corresponding modifiers. ">
<polygon fill="none" stroke="#000000" points="323,-62 323,-81 429,-81 429,-62 323,-62"/>
<text text-anchor="middle" x="376" y="-69" font-family="Helvetica,sans-Serif" font-size="10.00" fill="#000000">ViennaRNA/model.h</text>
</a>
</g>
</g>
<!-- Node2&#45;&gt;Node6 -->
<g id="edge27" class="edge">
<title>Node2&#45;&gt;Node6</title>
<path fill="none" stroke="#191970" d="M818.381,-256.3662C937.6202,-244.9245 1165.8653,-211.0365 1084,-123 1062.1796,-99.5347 608.423,-80.2024 439.0344,-73.7778"/>
<polygon fill="#191970" stroke="#191970" points="439.1402,-70.2794 429.0155,-73.4003 438.8766,-77.2744 439.1402,-70.2794"/>
</g>
<!-- Node7 -->
<g id="node8" class="node">
<title>Node7</title>
<g id="a_node8"><a xlink:href="params_2basic_8h.html" target="_top" xlink:title="Functions to deal with sets of energy parameters. ">
<polygon fill="none" stroke="#000000" points="58,-129 58,-148 196,-148 196,-129 58,-129"/>
<text text-anchor="middle" x="127" y="-136" font-family="Helvetica,sans-Serif" font-size="10.00" fill="#000000">ViennaRNA/params/basic.h</text>
</a>
</g>
</g>
<!-- Node2&#45;&gt;Node7 -->
<g id="edge28" class="edge">
<title>Node2&#45;&gt;Node7</title>
<path fill="none" stroke="#191970" d="M683.7802,-252.0462C620.7061,-242.3103 524.1105,-226.2988 441,-210 344.3002,-191.0362 232.1327,-165.3753 171.3762,-150.5125"/>
<polygon fill="#191970" stroke="#191970" points="171.9078,-147.0388 161.3608,-148.0448 170.2331,-153.8356 171.9078,-147.0388"/>
</g>
<!-- Node9 -->
<g id="node10" class="node">
<title>Node9</title>
<g id="a_node10"><a xlink:href="dp__matrices_8h.html" target="_top" xlink:title="Functions to deal with standard dynamic programming (DP) matrices. ">
<polygon fill="none" stroke="#000000" points="214.5,-129 214.5,-148 347.5,-148 347.5,-129 214.5,-129"/>
<text text-anchor="middle" x="281" y="-136" font-family="Helvetica,sans-Serif" font-size="10.00" fill="#000000">ViennaRNA/dp_matrices.h</text>
</a>
</g>
</g>
<!-- Node2&#45;&gt;Node9 -->
<g id="edge29" class="edge">
<title>Node2&#45;&gt;Node9</title>
<path fill="none" stroke="#191970" d="M683.7939,-249.2881C635.5779,-239.4964 569.4157,-224.9614 512,-210 441.0093,-191.5012 359.3335,-166.325 314.4782,-151.311"/>
<polygon fill="#191970" stroke="#191970" points="315.5477,-147.978 304.9534,-148.0862 313.3028,-154.6083 315.5477,-147.978"/>
</g>
<!-- Node10 -->
<g id="node11" class="node">
<title>Node10</title>
<g id="a_node11"><a xlink:href="soft_8h.html" target="_top" xlink:title="Functions and data structures for secondary structure soft constraints. ">
<polygon fill="none" stroke="#000000" points="679.5,-123.5 679.5,-153.5 798.5,-153.5 798.5,-123.5 679.5,-123.5"/>
<text text-anchor="start" x="687.5" y="-141.5" font-family="Helvetica,sans-Serif" font-size="10.00" fill="#000000">ViennaRNA/constraints</text>
<text text-anchor="middle" x="739" y="-130.5" font-family="Helvetica,sans-Serif" font-size="10.00" fill="#000000">/soft.h</text>
</a>
</g>
</g>
<!-- Node2&#45;&gt;Node10 -->
<g id="edge31" class="edge">
<title>Node2&#45;&gt;Node10</title>
<path fill="none" stroke="#191970" d="M744.9143,-246.4178C740.4318,-225.8539 736.4876,-188.7363 735.8905,-163.8546"/>
<polygon fill="#191970" stroke="#191970" points="739.3901,-163.693 735.8544,-153.7056 732.3901,-163.718 739.3901,-163.693"/>
</g>
<!-- Node12 -->
<g id="node13" class="node">
<title>Node12</title>
<g id="a_node13"><a xlink:href="grammar_8h.html" target="_top" xlink:title="Implementations for the RNA folding grammar. ">
<polygon fill="none" stroke="#000000" points="544.5,-129 544.5,-148 661.5,-148 661.5,-129 544.5,-129"/>
<text text-anchor="middle" x="603" y="-136" font-family="Helvetica,sans-Serif" font-size="10.00" fill="#000000">ViennaRNA/grammar.h</text>
</a>
</g>
</g>
<!-- Node2&#45;&gt;Node12 -->
<g id="edge32" class="edge">
<title>Node2&#45;&gt;Node12</title>
<path fill="none" stroke="#191970" d="M739.1229,-246.4479C726.6333,-231.177 705.9229,-207.3772 685,-190 668.0273,-175.9037 646.9056,-162.7252 630.3498,-153.2284"/>
<polygon fill="#191970" stroke="#191970" points="631.6278,-149.9318 621.1955,-148.0831 628.198,-156.034 631.6278,-149.9318"/>
</g>
<!-- Node13 -->
<g id="node14" class="node">
<title>Node13</title>
<g id="a_node14"><a xlink:href="structured__domains_8h.html" target="_top" xlink:title="This module provides interfaces that deal with additional structured domains in the folding grammar...">
<polygon fill="none" stroke="#000000" points="816.5,-123.5 816.5,-153.5 931.5,-153.5 931.5,-123.5 816.5,-123.5"/>
<text text-anchor="start" x="824.5" y="-141.5" font-family="Helvetica,sans-Serif" font-size="10.00" fill="#000000">ViennaRNA/structured</text>
<text text-anchor="middle" x="874" y="-130.5" font-family="Helvetica,sans-Serif" font-size="10.00" fill="#000000">_domains.h</text>
</a>
</g>
</g>
<!-- Node2&#45;&gt;Node13 -->
<g id="edge33" class="edge">
<title>Node2&#45;&gt;Node13</title>
<path fill="none" stroke="#191970" d="M766.0822,-246.4178C787.4761,-225.0239 826.7867,-185.7133 851.5963,-160.9037"/>
<polygon fill="#191970" stroke="#191970" points="854.1982,-163.2516 858.7944,-153.7056 849.2484,-158.3018 854.1982,-163.2516"/>
</g>
<!-- Node14 -->
<g id="node15" class="node">
<title>Node14</title>
<g id="a_node15"><a xlink:href="unstructured__domains_8h.html" target="_top" xlink:title="Functions to modify unstructured domains, e.g. to incorporate ligands binding to unpaired stretches...">
<polygon fill="none" stroke="#000000" points="949.5,-123.5 949.5,-153.5 1074.5,-153.5 1074.5,-123.5 949.5,-123.5"/>
<text text-anchor="start" x="957.5" y="-141.5" font-family="Helvetica,sans-Serif" font-size="10.00" fill="#000000">ViennaRNA/unstructured</text>
<text text-anchor="middle" x="1012" y="-130.5" font-family="Helvetica,sans-Serif" font-size="10.00" fill="#000000">_domains.h</text>
</a>
</g>
</g>
<!-- Node2&#45;&gt;Node14 -->
<g id="edge34" class="edge">
<title>Node2&#45;&gt;Node14</title>
<path fill="none" stroke="#191970" d="M778.3895,-246.4178C823.0845,-224.0874 911.7388,-182.2372 966.1279,-157.7315"/>
<polygon fill="#191970" stroke="#191970" points="967.8442,-160.7978 975.5372,-153.513 964.9805,-154.4103 967.8442,-160.7978"/>
</g>
<!-- Node15 -->
<g id="node16" class="node">
<title>Node15</title>
<g id="a_node16"><a xlink:href="utils_2structures_8h.html" target="_top" xlink:title="Various utility&#45; and helper&#45;functions for secondary structure parsing, converting, etc. ">
<polygon fill="none" stroke="#000000" points="994,-62 994,-81 1138,-81 1138,-62 994,-62"/>
<text text-anchor="middle" x="1066" y="-69" font-family="Helvetica,sans-Serif" font-size="10.00" fill="#000000">ViennaRNA/utils/structures.h</text>
</a>
</g>
</g>
<!-- Node2&#45;&gt;Node15 -->
<g id="edge35" class="edge">
<title>Node2&#45;&gt;Node15</title>
<path fill="none" stroke="#191970" d="M818.1484,-256.3075C916.2892,-248.3549 1089.0841,-231.7639 1108,-210 1133.3652,-180.8158 1122.7099,-158.7593 1108,-123 1102.3154,-109.181 1090.9308,-97.1009 1081.2557,-88.12"/>
<polygon fill="#191970" stroke="#191970" points="1083.474,-85.4081 1073.6934,-81.3349 1078.7992,-90.6183 1083.474,-85.4081"/>
</g>
<!-- Node4 -->
<g id="node5" class="node">
<title>Node4</title>
<polygon fill="none" stroke="#bfbfbf" points="55,-.5 55,-19.5 103,-19.5 103,-.5 55,-.5"/>
<text text-anchor="middle" x="79" y="-7.5" font-family="Helvetica,sans-Serif" font-size="10.00" fill="#000000">limits.h</text>
</g>
<!-- Node3&#45;&gt;Node4 -->
<g id="edge4" class="edge">
<title>Node3&#45;&gt;Node4</title>
<path fill="none" stroke="#191970" d="M79,-61.8906C79,-53.3657 79,-40.6392 79,-29.9235"/>
<polygon fill="#191970" stroke="#191970" points="82.5001,-29.7448 79,-19.7449 75.5001,-29.7449 82.5001,-29.7448"/>
</g>
<!-- Node5&#45;&gt;Node1 -->
<g id="edge14" class="edge">
<title>Node5&#45;&gt;Node1</title>
<path fill="none" stroke="#191970" d="M610.8077,-209.6541C623.4056,-224.914 649.4017,-255.1197 675,-277 688.0196,-288.1286 703.5004,-298.9889 717.082,-307.8453"/>
<polygon fill="#191970" stroke="#191970" points="715.3795,-310.9112 725.6879,-313.3585 719.1556,-305.017 715.3795,-310.9112"/>
</g>
<!-- Node5&#45;&gt;Node6 -->
<g id="edge6" class="edge">
<title>Node5&#45;&gt;Node6</title>
<path fill="none" stroke="#191970" d="M529.7975,-192.1286C477.8006,-185.0429 413.9764,-172.812 395,-154 378.4988,-137.6419 375.132,-110.0267 374.9705,-91.2953"/>
<polygon fill="#191970" stroke="#191970" points="378.4716,-91.2743 375.1829,-81.2029 371.4732,-91.127 378.4716,-91.2743"/>
</g>
<!-- Node5&#45;&gt;Node7 -->
<g id="edge7" class="edge">
<title>Node5&#45;&gt;Node7</title>
<path fill="none" stroke="#191970" d="M529.9619,-193.2694C450.1418,-185.5108 318.6061,-171.543 206,-154 198.3289,-152.8049 190.2674,-151.3987 182.346,-149.9292"/>
<polygon fill="#191970" stroke="#191970" points="182.9048,-146.4729 172.4273,-148.0453 181.5985,-153.3499 182.9048,-146.4729"/>
</g>
<!-- Node8 -->
<g id="node9" class="node">
<title>Node8</title>
<g id="a_node9"><a xlink:href="sequence_8h.html" target="_top" xlink:title="Functions and data structures related to sequence representations ,. ">
<polygon fill="none" stroke="#000000" points="404,-129 404,-148 526,-148 526,-129 404,-129"/>
<text text-anchor="middle" x="465" y="-136" font-family="Helvetica,sans-Serif" font-size="10.00" fill="#000000">ViennaRNA/sequence.h</text>
</a>
</g>
</g>
<!-- Node5&#45;&gt;Node8 -->
<g id="edge11" class="edge">
<title>Node5&#45;&gt;Node8</title>
<path fill="none" stroke="#191970" d="M581.4375,-190.3906C558.4488,-180.1457 521.844,-163.8326 495.8176,-152.2339"/>
<polygon fill="#191970" stroke="#191970" points="496.9698,-148.9156 486.4111,-148.0419 494.1204,-155.3095 496.9698,-148.9156"/>
</g>
<!-- Node5&#45;&gt;Node9 -->
<g id="edge12" class="edge">
<title>Node5&#45;&gt;Node9</title>
<path fill="none" stroke="#191970" d="M553.1496,-190.4921C504.4132,-181.1949 428.1047,-166.6336 362,-154 355.197,-152.6998 348.0727,-151.3376 340.9915,-149.9831"/>
<polygon fill="#191970" stroke="#191970" points="341.1695,-146.4538 330.6899,-148.0124 339.8541,-153.3291 341.1695,-146.4538"/>
</g>
<!-- Node5&#45;&gt;Node10 -->
<g id="edge15" class="edge">
<title>Node5&#45;&gt;Node10</title>
<path fill="none" stroke="#191970" d="M624.25,-190.3906C643.5081,-181.682 672.4622,-168.5888 696.4671,-157.7336"/>
<polygon fill="#191970" stroke="#191970" points="698.0611,-160.8541 705.7307,-153.5446 695.1768,-154.4759 698.0611,-160.8541"/>
</g>
<!-- Node5&#45;&gt;Node12 -->
<g id="edge19" class="edge">
<title>Node5&#45;&gt;Node12</title>
<path fill="none" stroke="#191970" d="M597.9375,-190.3906C596.2741,-181.8657 595.8404,-169.1392 596.6365,-158.4235"/>
<polygon fill="#191970" stroke="#191970" points="600.1414,-158.6023 597.9112,-148.2449 593.1956,-157.7324 600.1414,-158.6023"/>
</g>
<!-- Node5&#45;&gt;Node13 -->
<g id="edge21" class="edge">
<title>Node5&#45;&gt;Node13</title>
<path fill="none" stroke="#191970" d="M646.221,-190.4324C685.6204,-181.6815 745.6989,-168.2645 806.6313,-154.3039"/>
<polygon fill="#191970" stroke="#191970" points="807.4508,-157.7069 816.4149,-152.0593 805.8855,-150.8842 807.4508,-157.7069"/>
</g>
<!-- Node5&#45;&gt;Node14 -->
<g id="edge22" class="edge">
<title>Node5&#45;&gt;Node14</title>
<path fill="none" stroke="#191970" d="M676.1175,-191.7547C742.4748,-183.8821 843.213,-170.9618 939.4374,-154.2043"/>
<polygon fill="#191970" stroke="#191970" points="940.0911,-157.6432 949.3339,-152.4642 938.8788,-150.7489 940.0911,-157.6432"/>
</g>
<!-- Node7&#45;&gt;Node2 -->
<g id="edge9" class="edge">
<title>Node7&#45;&gt;Node2</title>
<path fill="none" stroke="#191970" d="M172.946,-148.0448C237.1029,-162.3838 356.706,-189.9391 459,-210 531.7867,-224.2742 614.9165,-238.328 673.8758,-248.1391"/>
<polygon fill="#191970" stroke="#191970" points="673.4205,-251.6114 683.859,-249.7985 674.5683,-244.7061 673.4205,-251.6114"/>
</g>
<!-- Node7&#45;&gt;Node3 -->
<g id="edge8" class="edge">
<title>Node7&#45;&gt;Node3</title>
<path fill="none" stroke="#191970" d="M120.1228,-128.9005C112.7802,-118.6515 100.9759,-102.1747 91.8938,-89.4976"/>
<polygon fill="#191970" stroke="#191970" points="94.5336,-87.1724 85.8645,-81.0817 88.8432,-91.2492 94.5336,-87.1724"/>
</g>
<!-- Node7&#45;&gt;Node6 -->
<g id="edge10" class="edge">
<title>Node7&#45;&gt;Node6</title>
<path fill="none" stroke="#191970" d="M162.4112,-128.9717C206.5345,-117.0991 282.0084,-96.7909 330.4111,-83.7669"/>
<polygon fill="#191970" stroke="#191970" points="331.5607,-87.0821 340.3078,-81.1039 329.7418,-80.3225 331.5607,-87.0821"/>
</g>
<!-- Node9&#45;&gt;Node2 -->
<g id="edge13" class="edge">
<title>Node9&#45;&gt;Node2</title>
<path fill="none" stroke="#191970" d="M316.5386,-148.0862C364.9181,-162.4787 453.6402,-190.1021 530,-210 578.3991,-222.6119 633.0132,-234.9207 675.8946,-244.3408"/>
<polygon fill="#191970" stroke="#191970" points="675.1758,-247.7663 685.6933,-246.4883 676.6744,-240.9285 675.1758,-247.7663"/>
</g>
<!-- Node10&#45;&gt;Node2 -->
<g id="edge16" class="edge">
<title>Node10&#45;&gt;Node2</title>
<path fill="none" stroke="#191970" d="M745.1125,-153.7056C749.5929,-174.3355 753.5293,-211.4615 754.113,-236.2943"/>
<polygon fill="#191970" stroke="#191970" points="750.6133,-236.4282 754.1428,-246.4178 757.6133,-236.4075 750.6133,-236.4282"/>
</g>
<!-- Node10&#45;&gt;Node11 -->
<g id="edge17" class="edge">
<title>Node10&#45;&gt;Node11</title>
<path fill="none" stroke="#191970" d="M798.7567,-124.6341C801.8764,-124.0488 804.9715,-123.4993 808,-123 954.2842,-98.8846 995.7343,-111.0914 1146.1742,-87.0056"/>
<polygon fill="#191970" stroke="#191970" points="1146.9359,-90.4278 1156.2433,-85.3659 1145.8108,-83.5188 1146.9359,-90.4278"/>
</g>
<!-- Node11&#45;&gt;Node2 -->
<g id="edge18" class="edge">
<title>Node11&#45;&gt;Node2</title>
<path fill="none" stroke="#191970" d="M1213.1767,-86.6205C1206.8596,-115.8299 1188.653,-179.7913 1146,-210 1096.3484,-245.1654 928.343,-256.3201 828.1373,-259.8577"/>
<polygon fill="#191970" stroke="#191970" points="827.9374,-256.3624 818.0605,-260.1959 828.1723,-263.3584 827.9374,-256.3624"/>
</g>
<!-- Node12&#45;&gt;Node5 -->
<g id="edge20" class="edge">
<title>Node12&#45;&gt;Node5</title>
<path fill="none" stroke="#191970" d="M608.0888,-148.2449C609.7392,-156.814 610.1598,-169.5519 609.3508,-180.2462"/>
<polygon fill="#191970" stroke="#191970" points="605.8503,-180.0293 608.0625,-190.3906 612.7945,-180.9113 605.8503,-180.0293"/>
</g>
<!-- Node14&#45;&gt;Node2 -->
<g id="edge23" class="edge">
<title>Node14&#45;&gt;Node2</title>
<path fill="none" stroke="#191970" d="M984.7491,-153.513C940.145,-175.803 851.5009,-217.6509 797.0409,-242.1924"/>
<polygon fill="#191970" stroke="#191970" points="795.3105,-239.1325 787.618,-246.4178 798.1747,-245.5197 795.3105,-239.1325"/>
</g>
<!-- Node14&#45;&gt;Node15 -->
<g id="edge24" class="edge">
<title>Node14&#45;&gt;Node15</title>
<path fill="none" stroke="#191970" d="M1024.2534,-123.2967C1032.5035,-113.0605 1043.4034,-99.5366 1051.9966,-88.8746"/>
<polygon fill="#191970" stroke="#191970" points="1054.7488,-91.0373 1058.299,-81.055 1049.2986,-86.6446 1054.7488,-91.0373"/>
</g>
<!-- Node15&#45;&gt;Node2 -->
<g id="edge26" class="edge">
<title>Node15&#45;&gt;Node2</title>
<path fill="none" stroke="#191970" d="M1087.6461,-81.1553C1101.8895,-90.2773 1118.6759,-105.1953 1126,-123 1140.7099,-158.7593 1151.3652,-180.8158 1126,-210 1106.9808,-231.8827 932.3972,-248.536 828.2135,-256.437"/>
<polygon fill="#191970" stroke="#191970" points="827.7593,-252.9611 818.0481,-257.1971 828.2813,-259.9416 827.7593,-252.9611"/>
</g>
<!-- Node16 -->
<g id="node17" class="node">
<title>Node16</title>
<polygon fill="none" stroke="#bfbfbf" points="1043,-.5 1043,-19.5 1089,-19.5 1089,-.5 1043,-.5"/>
<text text-anchor="middle" x="1066" y="-7.5" font-family="Helvetica,sans-Serif" font-size="10.00" fill="#000000">stdio.h</text>
</g>
<!-- Node15&#45;&gt;Node16 -->
<g id="edge25" class="edge">
<title>Node15&#45;&gt;Node16</title>
<path fill="none" stroke="#191970" d="M1066,-61.8906C1066,-53.3657 1066,-40.6392 1066,-29.9235"/>
<polygon fill="#191970" stroke="#191970" points="1069.5001,-29.7448 1066,-19.7449 1062.5001,-29.7449 1069.5001,-29.7448"/>
</g>
</g>
</svg>
        <g id="navigator" transform="translate(0 0)" fill="#404254">
                <rect fill="#f2f5e9" fill-opacity="0.5" stroke="#606060" stroke-width=".5" x="0" y="0" width="60" height="60"/>
                <use id="zoomplus" xlink:href="#zoomPlus" x="17" y="9" onmousedown="handleZoom(evt,'in')"/>
                <use id="zoomminus" xlink:href="#zoomMin" x="42" y="9" onmousedown="handleZoom(evt,'out')"/>
                <use id="reset" xlink:href="#resetDef" x="30" y="36" onmousedown="handleReset()"/>
                <g id="arrowUp" xlink:href="#dirArrow" transform="translate(30 24)" onmousedown="handlePan(0,-1)">
                  <use xlink:href="#rim" fill="#404040">
                        <set attributeName="fill" to="#808080" begin="arrowUp.mouseover" end="arrowUp.mouseout"/>
                  </use>
                  <path fill="none" stroke="white" stroke-width="1.5" d="M0,-3.0v7 M-2.5,-0.5L0,-3.0L2.5,-0.5"/>
                </g>
                <g id="arrowRight" xlink:href="#dirArrow" transform="rotate(90) translate(36 -43)" onmousedown="handlePan(1,0)">
                  <use xlink:href="#rim" fill="#404040">
                        <set attributeName="fill" to="#808080" begin="arrowRight.mouseover" end="arrowRight.mouseout"/>
                  </use>
                  <path fill="none" stroke="white" stroke-width="1.5" d="M0,-3.0v7 M-2.5,-0.5L0,-3.0L2.5,-0.5"/>
                </g>
                <g id="arrowDown" xlink:href="#dirArrow" transform="rotate(180) translate(-30 -48)" onmousedown="handlePan(0,1)">
                  <use xlink:href="#rim" fill="#404040">
                        <set attributeName="fill" to="#808080" begin="arrowDown.mouseover" end="arrowDown.mouseout"/>
                  </use>
                  <path fill="none" stroke="white" stroke-width="1.5" d="M0,-3.0v7 M-2.5,-0.5L0,-3.0L2.5,-0.5"/>
                </g>
                <g id="arrowLeft" xlink:href="#dirArrow" transform="rotate(270) translate(-36 17)" onmousedown="handlePan(-1,0)">
                  <use xlink:href="#rim" fill="#404040">
                        <set attributeName="fill" to="#808080" begin="arrowLeft.mouseover" end="arrowLeft.mouseout"/>
                  </use>
                  <path fill="none" stroke="white" stroke-width="1.5" d="M0,-3.0v7 M-2.5,-0.5L0,-3.0L2.5,-0.5"/>
                </g>
        </g>
        <svg viewBox="0 0 15 15" width="100%" height="30px" preserveAspectRatio="xMaxYMin meet">
         <g id="arrow_out" transform="scale(0.3 0.3)">
          <a xlink:href="constraints__hard_8h__incl_org.svg" target="_base">
           <rect id="button" ry="5" rx="5" y="6" x="6" height="38" width="38"
                fill="#f2f5e9" fill-opacity="0.5" stroke="#606060" stroke-width="1.0"/>
           <path id="arrow"
             d="M 11.500037,31.436501 C 11.940474,20.09759 22.043105,11.32322 32.158766,21.979434 L 37.068811,17.246167 C 37.068811,17.246167 37.088388,32 37.088388,32 L 22.160133,31.978069 C 22.160133,31.978069 26.997745,27.140456 26.997745,27.140456 C 18.528582,18.264221 13.291696,25.230495 11.500037,31.436501 z"
             style="fill:#404040;"/>
          </a>
         </g>
        </svg>
</svg>
