<?xml version="1.0" encoding="UTF-8" standalone="no"?>
<!DOCTYPE svg PUBLIC "-//W3C//DTD SVG 1.1//EN"
 "http://www.w3.org/Graphics/SVG/1.1/DTD/svg11.dtd">
<!-- Generated by graphviz version 2.40.1 (20161225.0304)
 -->
<!-- Title: ViennaRNA/constraints/basic.h Pages: 1 -->
<!--zoomable 341 -->
<svg id="main" version="1.1" xmlns="http://www.w3.org/2000/svg" xmlns:xlink="http://www.w3.org/1999/xlink" xml:space="preserve" onload="init(evt)">
<style type="text/css"><![CDATA[
.edge:hover path { stroke: red; }
.edge:hover polygon { stroke: red; fill: red; }
]]></style>
<script type="text/javascript"><![CDATA[
var edges = document.getElementsByTagName('g');
if (edges && edges.length) {
  for (var i=0;i<edges.length;i++) {
    if (edges[i].id.substr(0,4)=='edge') {
      edges[i].setAttribute('class','edge');
    }
  }
}
]]></script>
        <defs>
                <circle id="rim" cx="0" cy="0" r="7"/>
                <circle id="rim2" cx="0" cy="0" r="3.5"/>
                <g id="zoomPlus">
                        <use xlink:href="#rim" fill="#404040">
                                <set attributeName="fill" to="#808080" begin="zoomplus.mouseover" end="zoomplus.mouseout"/>
                        </use>
                        <path d="M-4,0h8M0,-4v8" fill="none" stroke="white" stroke-width="1.5" pointer-events="none"/>
                </g>
                <g id="zoomMin">
                        <use xlink:href="#rim" fill="#404040">
                                <set attributeName="fill" to="#808080" begin="zoomminus.mouseover" end="zoomminus.mouseout"/>
                        </use>
                        <path d="M-4,0h8" fill="none" stroke="white" stroke-width="1.5" pointer-events="none"/>
                </g>
                <g id="dirArrow">
                        <path fill="none" stroke="white" stroke-width="1.5" d="M0,-3.0v7 M-2.5,-0.5L0,-3.0L2.5,-0.5"/>
                </g>
               <g id="resetDef">
                       <use xlink:href="#rim2" fill="#404040">
                               <set attributeName="fill" to="#808080" begin="reset.mouseover" end="reset.mouseout"/>
                       </use>
               </g>
        </defs>

<script type="text/javascript">
var viewWidth = 1350;
var viewHeight = 341;
var sectionId = 'dynsection-0';
</script>
<script xlink:href="svgpan.js"/>
<svg id="graph" class="graph">
<g id="viewport">
<title>ViennaRNA/constraints/basic.h</title>
<!-- Node0 -->
<g id="node1" class="node">
<title>Node0</title>
<polygon fill="#bfbfbf" stroke="#000000" points="16,-302.5 16,-332.5 135,-332.5 135,-302.5 16,-302.5"/>
<text text-anchor="start" x="24" y="-320.5" font-family="Helvetica,sans-Serif" font-size="10.00" fill="#000000">ViennaRNA/constraints</text>
<text text-anchor="middle" x="75.5" y="-309.5" font-family="Helvetica,sans-Serif" font-size="10.00" fill="#000000">/basic.h</text>
</g>
<!-- Node1 -->
<g id="node2" class="node">
<title>Node1</title>
<g id="a_node2"><a xlink:href="datastructures_2basic_8h.html" target="_top" xlink:title="Various data structures and pre&#45;processor macros. ">
<polygon fill="none" stroke="#000000" points="738.5,-235.5 738.5,-265.5 872.5,-265.5 872.5,-235.5 738.5,-235.5"/>
<text text-anchor="start" x="746.5" y="-253.5" font-family="Helvetica,sans-Serif" font-size="10.00" fill="#000000">ViennaRNA/datastructures</text>
<text text-anchor="middle" x="805.5" y="-242.5" font-family="Helvetica,sans-Serif" font-size="10.00" fill="#000000">/basic.h</text>
</a>
</g>
</g>
<!-- Node0&#45;&gt;Node1 -->
<g id="edge1" class="edge">
<title>Node0&#45;&gt;Node1</title>
<path fill="none" stroke="#191970" d="M135.239,-312.0171C266.8406,-299.9386 581.6644,-271.0438 728.123,-257.6017"/>
<polygon fill="#191970" stroke="#191970" points="728.734,-261.0605 738.3722,-256.661 728.0941,-254.0897 728.734,-261.0605"/>
</g>
<!-- Node2 -->
<g id="node3" class="node">
<title>Node2</title>
<g id="a_node3"><a xlink:href="constants_8h.html" target="_top" xlink:title="Energy parameter constants. ">
<polygon fill="none" stroke="#000000" points="875.5,-56.5 875.5,-75.5 1033.5,-75.5 1033.5,-56.5 875.5,-56.5"/>
<text text-anchor="middle" x="954.5" y="-63.5" font-family="Helvetica,sans-Serif" font-size="10.00" fill="#000000">ViennaRNA/params/constants.h</text>
</a>
</g>
</g>
<!-- Node1&#45;&gt;Node2 -->
<g id="edge2" class="edge">
<title>Node1&#45;&gt;Node2</title>
<path fill="none" stroke="#191970" d="M872.6045,-242.6098C932.9442,-231.5663 1018.2379,-205.2687 1059.5,-143 1067.1105,-131.5149 1067.0384,-123.5326 1059.5,-112 1049.2098,-96.2576 1032.2089,-85.8694 1014.8538,-79.0275"/>
<polygon fill="#191970" stroke="#191970" points="1015.8107,-75.6526 1005.2161,-75.5799 1013.4529,-82.2436 1015.8107,-75.6526"/>
</g>
<!-- Node4 -->
<g id="node5" class="node">
<title>Node4</title>
<g id="a_node5"><a xlink:href="fold__compound_8h.html" target="_top" xlink:title="The Basic Fold Compound API. ">
<polygon fill="none" stroke="#000000" points="608.5,-179.5 608.5,-198.5 754.5,-198.5 754.5,-179.5 608.5,-179.5"/>
<text text-anchor="middle" x="681.5" y="-186.5" font-family="Helvetica,sans-Serif" font-size="10.00" fill="#000000">ViennaRNA/fold_compound.h</text>
</a>
</g>
</g>
<!-- Node1&#45;&gt;Node4 -->
<g id="edge4" class="edge">
<title>Node1&#45;&gt;Node4</title>
<path fill="none" stroke="#191970" d="M775.1662,-235.4554C755.2024,-225.554 729.251,-212.683 709.7285,-203.0004"/>
<polygon fill="#191970" stroke="#191970" points="711.2294,-199.838 700.7156,-198.5303 708.1191,-206.1091 711.2294,-199.838"/>
</g>
<!-- Node5 -->
<g id="node6" class="node">
<title>Node5</title>
<g id="a_node6"><a xlink:href="model_8h.html" target="_top" xlink:title="The model details data structure and its corresponding modifiers. ">
<polygon fill="none" stroke="#000000" points="543.5,-56.5 543.5,-75.5 649.5,-75.5 649.5,-56.5 543.5,-56.5"/>
<text text-anchor="middle" x="596.5" y="-63.5" font-family="Helvetica,sans-Serif" font-size="10.00" fill="#000000">ViennaRNA/model.h</text>
</a>
</g>
</g>
<!-- Node1&#45;&gt;Node5 -->
<g id="edge27" class="edge">
<title>Node1&#45;&gt;Node5</title>
<path fill="none" stroke="#191970" d="M738.4635,-244.175C581.8914,-228.7181 202.6439,-187.0577 166.5,-143 157.7614,-132.3481 157.2904,-122.2474 166.5,-112 190.5291,-85.2633 419.2741,-72.7855 532.9782,-68.1961"/>
<polygon fill="#191970" stroke="#191970" points="533.4272,-71.6812 543.2812,-67.7892 533.1508,-64.6867 533.4272,-71.6812"/>
</g>
<!-- Node6 -->
<g id="node7" class="node">
<title>Node6</title>
<g id="a_node7"><a xlink:href="params_2basic_8h.html" target="_top" xlink:title="Functions to deal with sets of energy parameters. ">
<polygon fill="none" stroke="#000000" points="760.5,-118 760.5,-137 898.5,-137 898.5,-118 760.5,-118"/>
<text text-anchor="middle" x="829.5" y="-125" font-family="Helvetica,sans-Serif" font-size="10.00" fill="#000000">ViennaRNA/params/basic.h</text>
</a>
</g>
</g>
<!-- Node1&#45;&gt;Node6 -->
<g id="edge28" class="edge">
<title>Node1&#45;&gt;Node6</title>
<path fill="none" stroke="#191970" d="M803.8286,-235.4178C805.4984,-213.0657 813.5284,-171.1559 820.7046,-146.6602"/>
<polygon fill="#191970" stroke="#191970" points="824.0658,-147.641 823.811,-137.0493 817.4051,-145.4881 824.0658,-147.641"/>
</g>
<!-- Node8 -->
<g id="node9" class="node">
<title>Node8</title>
<g id="a_node9"><a xlink:href="dp__matrices_8h.html" target="_top" xlink:title="Functions to deal with standard dynamic programming (DP) matrices. ">
<polygon fill="none" stroke="#000000" points="917,-118 917,-137 1050,-137 1050,-118 917,-118"/>
<text text-anchor="middle" x="983.5" y="-125" font-family="Helvetica,sans-Serif" font-size="10.00" fill="#000000">ViennaRNA/dp_matrices.h</text>
</a>
</g>
</g>
<!-- Node1&#45;&gt;Node8 -->
<g id="edge29" class="edge">
<title>Node1&#45;&gt;Node8</title>
<path fill="none" stroke="#191970" d="M822.712,-235.4178C854.0962,-211.7627 920.0287,-166.2031 957.0926,-142.5611"/>
<polygon fill="#191970" stroke="#191970" points="959.254,-145.3364 965.8551,-137.0493 955.5268,-139.4111 959.254,-145.3364"/>
</g>
<!-- Node9 -->
<g id="node10" class="node">
<title>Node9</title>
<g id="a_node10"><a xlink:href="hard_8h.html" target="_top" xlink:title="Functions and data structures for handling of secondary structure hard constraints. ">
<polygon fill="none" stroke="#000000" points="176,-112.5 176,-142.5 295,-142.5 295,-112.5 176,-112.5"/>
<text text-anchor="start" x="184" y="-130.5" font-family="Helvetica,sans-Serif" font-size="10.00" fill="#000000">ViennaRNA/constraints</text>
<text text-anchor="middle" x="235.5" y="-119.5" font-family="Helvetica,sans-Serif" font-size="10.00" fill="#000000">/hard.h</text>
</a>
</g>
</g>
<!-- Node1&#45;&gt;Node9 -->
<g id="edge30" class="edge">
<title>Node1&#45;&gt;Node9</title>
<path fill="none" stroke="#191970" d="M738.4016,-240.0523C680.9838,-230.2041 596.4779,-214.6577 523.5,-199 444.946,-182.146 355.362,-160.202 297.1732,-145.0936"/>
<polygon fill="#191970" stroke="#191970" points="297.9575,-141.6811 287.3978,-142.5424 296.1898,-148.4542 297.9575,-141.6811"/>
</g>
<!-- Node10 -->
<g id="node11" class="node">
<title>Node10</title>
<g id="a_node11"><a xlink:href="soft_8h.html" target="_top" xlink:title="Functions and data structures for secondary structure soft constraints. ">
<polygon fill="none" stroke="#000000" points="0,-112.5 0,-142.5 119,-142.5 119,-112.5 0,-112.5"/>
<text text-anchor="start" x="8" y="-130.5" font-family="Helvetica,sans-Serif" font-size="10.00" fill="#000000">ViennaRNA/constraints</text>
<text text-anchor="middle" x="59.5" y="-119.5" font-family="Helvetica,sans-Serif" font-size="10.00" fill="#000000">/soft.h</text>
</a>
</g>
</g>
<!-- Node1&#45;&gt;Node10 -->
<g id="edge31" class="edge">
<title>Node1&#45;&gt;Node10</title>
<path fill="none" stroke="#191970" d="M738.4862,-249.9339C592.963,-247.9511 252.9896,-239.0359 146.5,-199 118.4161,-188.4416 91.4755,-167.0513 74.9352,-150.4049"/>
<polygon fill="#191970" stroke="#191970" points="77.0856,-147.5814 67.6914,-142.6823 71.9801,-152.3704 77.0856,-147.5814"/>
</g>
<!-- Node11 -->
<g id="node12" class="node">
<title>Node11</title>
<g id="a_node12"><a xlink:href="grammar_8h.html" target="_top" xlink:title="Implementations for the RNA folding grammar. ">
<polygon fill="none" stroke="#000000" points="625,-118 625,-137 742,-137 742,-118 625,-118"/>
<text text-anchor="middle" x="683.5" y="-125" font-family="Helvetica,sans-Serif" font-size="10.00" fill="#000000">ViennaRNA/grammar.h</text>
</a>
</g>
</g>
<!-- Node1&#45;&gt;Node11 -->
<g id="edge32" class="edge">
<title>Node1&#45;&gt;Node11</title>
<path fill="none" stroke="#191970" d="M799.2031,-235.4644C792.1798,-219.9879 779.6509,-195.8247 763.5,-179 748.9654,-163.8591 729.1509,-151.0611 712.8782,-142.0103"/>
<polygon fill="#191970" stroke="#191970" points="714.2397,-138.7688 703.7732,-137.1249 710.9301,-144.937 714.2397,-138.7688"/>
</g>
<!-- Node12 -->
<g id="node13" class="node">
<title>Node12</title>
<g id="a_node13"><a xlink:href="structured__domains_8h.html" target="_top" xlink:title="This module provides interfaces that deal with additional structured domains in the folding grammar...">
<polygon fill="none" stroke="#000000" points="313,-112.5 313,-142.5 428,-142.5 428,-112.5 313,-112.5"/>
<text text-anchor="start" x="321" y="-130.5" font-family="Helvetica,sans-Serif" font-size="10.00" fill="#000000">ViennaRNA/structured</text>
<text text-anchor="middle" x="370.5" y="-119.5" font-family="Helvetica,sans-Serif" font-size="10.00" fill="#000000">_domains.h</text>
</a>
</g>
</g>
<!-- Node1&#45;&gt;Node12 -->
<g id="edge33" class="edge">
<title>Node1&#45;&gt;Node12</title>
<path fill="none" stroke="#191970" d="M741.2229,-235.4396C700.4616,-225.6403 646.7034,-212.2576 599.5,-199 539.6033,-182.1773 471.6385,-160.6431 425.4138,-145.6233"/>
<polygon fill="#191970" stroke="#191970" points="426.4831,-142.2906 415.8907,-142.5212 424.3149,-148.9464 426.4831,-142.2906"/>
</g>
<!-- Node13 -->
<g id="node14" class="node">
<title>Node13</title>
<g id="a_node14"><a xlink:href="unstructured__domains_8h.html" target="_top" xlink:title="Functions to modify unstructured domains, e.g. to incorporate ligands binding to unpaired stretches...">
<polygon fill="none" stroke="#000000" points="1107,-112.5 1107,-142.5 1232,-142.5 1232,-112.5 1107,-112.5"/>
<text text-anchor="start" x="1115" y="-130.5" font-family="Helvetica,sans-Serif" font-size="10.00" fill="#000000">ViennaRNA/unstructured</text>
<text text-anchor="middle" x="1169.5" y="-119.5" font-family="Helvetica,sans-Serif" font-size="10.00" fill="#000000">_domains.h</text>
</a>
</g>
</g>
<!-- Node1&#45;&gt;Node13 -->
<g id="edge34" class="edge">
<title>Node1&#45;&gt;Node13</title>
<path fill="none" stroke="#191970" d="M872.5849,-242.0486C942.6004,-232.9256 1046.9823,-217.2277 1083.5,-199 1106.7847,-187.3775 1128.0293,-166.5055 1143.8342,-150.3017"/>
<polygon fill="#191970" stroke="#191970" points="1146.6817,-152.3937 1151.1412,-142.7831 1141.6618,-147.5151 1146.6817,-152.3937"/>
</g>
<!-- Node14 -->
<g id="node15" class="node">
<title>Node14</title>
<g id="a_node15"><a xlink:href="utils_2structures_8h.html" target="_top" xlink:title="Various utility&#45; and helper&#45;functions for secondary structure parsing, converting, etc. ">
<polygon fill="none" stroke="#000000" points="1197.5,-56.5 1197.5,-75.5 1341.5,-75.5 1341.5,-56.5 1197.5,-56.5"/>
<text text-anchor="middle" x="1269.5" y="-63.5" font-family="Helvetica,sans-Serif" font-size="10.00" fill="#000000">ViennaRNA/utils/structures.h</text>
</a>
</g>
</g>
<!-- Node1&#45;&gt;Node14 -->
<g id="edge35" class="edge">
<title>Node1&#45;&gt;Node14</title>
<path fill="none" stroke="#191970" d="M872.6356,-245.1955C937.3522,-238.9158 1037.2567,-225.7238 1120.5,-199 1173.4896,-181.9886 1195.4712,-184.547 1232.5,-143 1246.9403,-126.7977 1254.1139,-102.5564 1259.4586,-85.6142"/>
<polygon fill="#191970" stroke="#191970" points="1262.9238,-86.2863 1262.7648,-75.6927 1256.2828,-84.0733 1262.9238,-86.2863"/>
</g>
<!-- Node3 -->
<g id="node4" class="node">
<title>Node3</title>
<polygon fill="none" stroke="#bfbfbf" points="930.5,-.5 930.5,-19.5 978.5,-19.5 978.5,-.5 930.5,-.5"/>
<text text-anchor="middle" x="954.5" y="-7.5" font-family="Helvetica,sans-Serif" font-size="10.00" fill="#000000">limits.h</text>
</g>
<!-- Node2&#45;&gt;Node3 -->
<g id="edge3" class="edge">
<title>Node2&#45;&gt;Node3</title>
<path fill="none" stroke="#191970" d="M954.5,-56.2455C954.5,-48.9382 954.5,-38.6944 954.5,-29.7046"/>
<polygon fill="#191970" stroke="#191970" points="958.0001,-29.6426 954.5,-19.6427 951.0001,-29.6427 958.0001,-29.6426"/>
</g>
<!-- Node4&#45;&gt;Node5 -->
<g id="edge5" class="edge">
<title>Node4&#45;&gt;Node5</title>
<path fill="none" stroke="#191970" d="M660.5741,-179.4829C645.8097,-171.7115 626.7314,-159.3462 615.5,-143 603.8428,-126.0342 599.3212,-102.624 597.5765,-86.0823"/>
<polygon fill="#191970" stroke="#191970" points="601.0474,-85.5792 596.7587,-75.8912 594.0699,-86.1392 601.0474,-85.5792"/>
</g>
<!-- Node4&#45;&gt;Node6 -->
<g id="edge6" class="edge">
<title>Node4&#45;&gt;Node6</title>
<path fill="none" stroke="#191970" d="M704.625,-179.3906C729.4967,-169.0554 769.2298,-152.5447 797.1844,-140.9284"/>
<polygon fill="#191970" stroke="#191970" points="798.646,-144.1113 806.5374,-137.0419 795.9598,-137.6472 798.646,-144.1113"/>
</g>
<!-- Node7 -->
<g id="node8" class="node">
<title>Node7</title>
<g id="a_node8"><a xlink:href="sequence_8h.html" target="_top" xlink:title="Functions and data structures related to sequence representations ,. ">
<polygon fill="none" stroke="#000000" points="446.5,-118 446.5,-137 568.5,-137 568.5,-118 446.5,-118"/>
<text text-anchor="middle" x="507.5" y="-125" font-family="Helvetica,sans-Serif" font-size="10.00" fill="#000000">ViennaRNA/sequence.h</text>
</a>
</g>
</g>
<!-- Node4&#45;&gt;Node7 -->
<g id="edge10" class="edge">
<title>Node4&#45;&gt;Node7</title>
<path fill="none" stroke="#191970" d="M654.3125,-179.3906C624.6883,-168.92 577.1313,-152.1111 544.2082,-140.4745"/>
<polygon fill="#191970" stroke="#191970" points="545.0914,-137.0745 534.4966,-137.0419 542.7586,-143.6744 545.0914,-137.0745"/>
</g>
<!-- Node4&#45;&gt;Node8 -->
<g id="edge11" class="edge">
<title>Node4&#45;&gt;Node8</title>
<path fill="none" stroke="#191970" d="M728.2475,-179.4906C773.9504,-170.1923 845.5094,-155.6302 907.5,-143 913.7346,-141.7297 920.2568,-140.4004 926.7481,-139.0769"/>
<polygon fill="#191970" stroke="#191970" points="927.7782,-142.439 936.8773,-137.0116 926.3796,-135.5801 927.7782,-142.439"/>
</g>
<!-- Node4&#45;&gt;Node9 -->
<g id="edge13" class="edge">
<title>Node4&#45;&gt;Node9</title>
<path fill="none" stroke="#191970" d="M608.3546,-182.3539C534.2084,-175.1057 416.017,-162.1525 305.1506,-143.1917"/>
<polygon fill="#191970" stroke="#191970" points="305.5842,-139.7148 295.1338,-141.4585 304.3907,-146.6123 305.5842,-139.7148"/>
</g>
<!-- Node4&#45;&gt;Node10 -->
<g id="edge16" class="edge">
<title>Node4&#45;&gt;Node10</title>
<path fill="none" stroke="#191970" d="M608.4518,-183.7417C508.5156,-176.2591 323.6401,-161.3856 166.5,-143 154.4839,-141.5941 141.7359,-139.9136 129.3862,-138.1859"/>
<polygon fill="#191970" stroke="#191970" points="129.5239,-134.6704 119.1309,-136.7286 128.5389,-141.6008 129.5239,-134.6704"/>
</g>
<!-- Node4&#45;&gt;Node11 -->
<g id="edge19" class="edge">
<title>Node4&#45;&gt;Node11</title>
<path fill="none" stroke="#191970" d="M676.75,-179.3906C675.3638,-170.8657 675.344,-158.1392 676.4886,-147.4235"/>
<polygon fill="#191970" stroke="#191970" points="679.9932,-147.6681 678.0943,-137.2449 673.0787,-146.5773 679.9932,-147.6681"/>
</g>
<!-- Node4&#45;&gt;Node12 -->
<g id="edge21" class="edge">
<title>Node4&#45;&gt;Node12</title>
<path fill="none" stroke="#191970" d="M627.5848,-179.4909C580.2838,-171 509.4013,-157.9185 438.2495,-143.1098"/>
<polygon fill="#191970" stroke="#191970" points="438.7152,-139.6315 428.2103,-141.0091 437.2814,-146.4831 438.7152,-139.6315"/>
</g>
<!-- Node4&#45;&gt;Node13 -->
<g id="edge22" class="edge">
<title>Node4&#45;&gt;Node13</title>
<path fill="none" stroke="#191970" d="M754.7227,-180.5046C830.9094,-171.5679 953.6422,-156.898 1059.5,-143 1071.6461,-141.4054 1084.5369,-139.6478 1097.055,-137.9063"/>
<polygon fill="#191970" stroke="#191970" points="1097.5742,-141.3679 1106.9931,-136.5166 1096.6047,-134.4353 1097.5742,-141.3679"/>
</g>
<!-- Node6&#45;&gt;Node1 -->
<g id="edge8" class="edge">
<title>Node6&#45;&gt;Node1</title>
<path fill="none" stroke="#191970" d="M831.4624,-137.0493C830.9876,-155.9138 823.2495,-198.492 815.8574,-225.7865"/>
<polygon fill="#191970" stroke="#191970" points="812.4883,-224.8382 813.0571,-235.4178 819.2099,-226.7926 812.4883,-224.8382"/>
</g>
<!-- Node6&#45;&gt;Node2 -->
<g id="edge7" class="edge">
<title>Node6&#45;&gt;Node2</title>
<path fill="none" stroke="#191970" d="M849.0313,-117.8906C869.6708,-107.7359 902.4276,-91.6196 925.9602,-80.0416"/>
<polygon fill="#191970" stroke="#191970" points="927.6782,-83.0971 935.1059,-75.5419 924.588,-76.8161 927.6782,-83.0971"/>
</g>
<!-- Node6&#45;&gt;Node5 -->
<g id="edge9" class="edge">
<title>Node6&#45;&gt;Node5</title>
<path fill="none" stroke="#191970" d="M793.3494,-117.9581C752.7931,-107.2533 686.9069,-89.8628 642.6593,-78.1837"/>
<polygon fill="#191970" stroke="#191970" points="643.2975,-74.7323 632.7354,-75.5643 641.511,-81.5005 643.2975,-74.7323"/>
</g>
<!-- Node8&#45;&gt;Node1 -->
<g id="edge12" class="edge">
<title>Node8&#45;&gt;Node1</title>
<path fill="none" stroke="#191970" d="M973.5064,-137.0493C948.1388,-156.9111 881.8076,-203.0599 840.3792,-229.9813"/>
<polygon fill="#191970" stroke="#191970" points="838.4515,-227.0597 831.9406,-235.4178 842.2426,-232.9442 838.4515,-227.0597"/>
</g>
<!-- Node9&#45;&gt;Node0 -->
<g id="edge15" class="edge">
<title>Node9&#45;&gt;Node0</title>
<path fill="none" stroke="#191970" d="M222.838,-142.5361C194.949,-175.6543 128.0676,-255.076 94.8697,-294.4985"/>
<polygon fill="#191970" stroke="#191970" points="92.0872,-292.3691 88.323,-302.2727 97.4416,-296.878 92.0872,-292.3691"/>
</g>
<!-- Node9&#45;&gt;Node1 -->
<g id="edge14" class="edge">
<title>Node9&#45;&gt;Node1</title>
<path fill="none" stroke="#191970" d="M295.0006,-141.0856C356.6932,-156.0985 455.6791,-180.5868 541.5,-199 604.2999,-212.4739 675.6365,-225.8655 728.3684,-235.6145"/>
<polygon fill="#191970" stroke="#191970" points="727.8555,-239.0789 738.3248,-237.4531 729.1267,-232.1952 727.8555,-239.0789"/>
</g>
<!-- Node10&#45;&gt;Node0 -->
<g id="edge18" class="edge">
<title>Node10&#45;&gt;Node0</title>
<path fill="none" stroke="#191970" d="M58.4906,-142.5562C57.0517,-168.0943 55.2278,-221.4705 61.5,-266 62.7495,-274.871 65.0522,-284.3873 67.4344,-292.7962"/>
<polygon fill="#191970" stroke="#191970" points="64.0858,-293.8151 70.314,-302.3861 70.7901,-291.8019 64.0858,-293.8151"/>
</g>
<!-- Node10&#45;&gt;Node1 -->
<g id="edge17" class="edge">
<title>Node10&#45;&gt;Node1</title>
<path fill="none" stroke="#191970" d="M80.6042,-142.6823C100.6891,-159.7608 131.8206,-186.7138 164.5,-199 266.1655,-237.2222 580.6399,-247.0795 727.9706,-249.6195"/>
<polygon fill="#191970" stroke="#191970" points="728.2278,-253.1242 738.2843,-249.7901 728.3436,-246.1251 728.2278,-253.1242"/>
</g>
<!-- Node11&#45;&gt;Node4 -->
<g id="edge20" class="edge">
<title>Node11&#45;&gt;Node4</title>
<path fill="none" stroke="#191970" d="M688.2719,-137.2449C689.6436,-145.814 689.65,-158.5519 688.4932,-169.2462"/>
<polygon fill="#191970" stroke="#191970" points="684.994,-168.9641 686.875,-179.3906 691.9066,-170.0668 684.994,-168.9641"/>
</g>
<!-- Node13&#45;&gt;Node1 -->
<g id="edge23" class="edge">
<title>Node13&#45;&gt;Node1</title>
<path fill="none" stroke="#191970" d="M1164.2335,-142.7831C1152.9274,-159.427 1128.5949,-185.4756 1101.5,-199 1064.4598,-217.4885 957.5995,-233.3742 882.9069,-242.4362"/>
<polygon fill="#191970" stroke="#191970" points="882.1054,-239.007 872.5915,-243.6691 882.9362,-245.9575 882.1054,-239.007"/>
</g>
<!-- Node13&#45;&gt;Node14 -->
<g id="edge24" class="edge">
<title>Node13&#45;&gt;Node14</title>
<path fill="none" stroke="#191970" d="M1193.9628,-112.4554C1209.6235,-102.8241 1229.8532,-90.3828 1245.4356,-80.7996"/>
<polygon fill="#191970" stroke="#191970" points="1247.319,-83.7503 1254.0035,-75.5303 1243.652,-77.7876 1247.319,-83.7503"/>
</g>
<!-- Node14&#45;&gt;Node1 -->
<g id="edge26" class="edge">
<title>Node14&#45;&gt;Node1</title>
<path fill="none" stroke="#191970" d="M1273.861,-75.6927C1274.9079,-91.5507 1268.1034,-123.2486 1250.5,-143 1213.4712,-184.547 1191.4896,-181.9886 1138.5,-199 1053.6473,-226.2405 951.4828,-239.4209 882.8119,-245.5521"/>
<polygon fill="#191970" stroke="#191970" points="882.1699,-242.0944 872.508,-246.4415 882.772,-249.0684 882.1699,-242.0944"/>
</g>
<!-- Node15 -->
<g id="node16" class="node">
<title>Node15</title>
<polygon fill="none" stroke="#bfbfbf" points="1246.5,-.5 1246.5,-19.5 1292.5,-19.5 1292.5,-.5 1246.5,-.5"/>
<text text-anchor="middle" x="1269.5" y="-7.5" font-family="Helvetica,sans-Serif" font-size="10.00" fill="#000000">stdio.h</text>
</g>
<!-- Node14&#45;&gt;Node15 -->
<g id="edge25" class="edge">
<title>Node14&#45;&gt;Node15</title>
<path fill="none" stroke="#191970" d="M1269.5,-56.2455C1269.5,-48.9382 1269.5,-38.6944 1269.5,-29.7046"/>
<polygon fill="#191970" stroke="#191970" points="1273.0001,-29.6426 1269.5,-19.6427 1266.0001,-29.6427 1273.0001,-29.6426"/>
</g>
</g>
</svg>
        <g id="navigator" transform="translate(0 0)" fill="#404254">
                <rect fill="#f2f5e9" fill-opacity="0.5" stroke="#606060" stroke-width=".5" x="0" y="0" width="60" height="60"/>
                <use id="zoomplus" xlink:href="#zoomPlus" x="17" y="9" onmousedown="handleZoom(evt,'in')"/>
                <use id="zoomminus" xlink:href="#zoomMin" x="42" y="9" onmousedown="handleZoom(evt,'out')"/>
                <use id="reset" xlink:href="#resetDef" x="30" y="36" onmousedown="handleReset()"/>
                <g id="arrowUp" xlink:href="#dirArrow" transform="translate(30 24)" onmousedown="handlePan(0,-1)">
                  <use xlink:href="#rim" fill="#404040">
                        <set attributeName="fill" to="#808080" begin="arrowUp.mouseover" end="arrowUp.mouseout"/>
                  </use>
                  <path fill="none" stroke="white" stroke-width="1.5" d="M0,-3.0v7 M-2.5,-0.5L0,-3.0L2.5,-0.5"/>
                </g>
                <g id="arrowRight" xlink:href="#dirArrow" transform="rotate(90) translate(36 -43)" onmousedown="handlePan(1,0)">
                  <use xlink:href="#rim" fill="#404040">
                        <set attributeName="fill" to="#808080" begin="arrowRight.mouseover" end="arrowRight.mouseout"/>
                  </use>
                  <path fill="none" stroke="white" stroke-width="1.5" d="M0,-3.0v7 M-2.5,-0.5L0,-3.0L2.5,-0.5"/>
                </g>
                <g id="arrowDown" xlink:href="#dirArrow" transform="rotate(180) translate(-30 -48)" onmousedown="handlePan(0,1)">
                  <use xlink:href="#rim" fill="#404040">
                        <set attributeName="fill" to="#808080" begin="arrowDown.mouseover" end="arrowDown.mouseout"/>
                  </use>
                  <path fill="none" stroke="white" stroke-width="1.5" d="M0,-3.0v7 M-2.5,-0.5L0,-3.0L2.5,-0.5"/>
                </g>
                <g id="arrowLeft" xlink:href="#dirArrow" transform="rotate(270) translate(-36 17)" onmousedown="handlePan(-1,0)">
                  <use xlink:href="#rim" fill="#404040">
                        <set attributeName="fill" to="#808080" begin="arrowLeft.mouseover" end="arrowLeft.mouseout"/>
                  </use>
                  <path fill="none" stroke="white" stroke-width="1.5" d="M0,-3.0v7 M-2.5,-0.5L0,-3.0L2.5,-0.5"/>
                </g>
        </g>
        <svg viewBox="0 0 15 15" width="100%" height="30px" preserveAspectRatio="xMaxYMin meet">
         <g id="arrow_out" transform="scale(0.3 0.3)">
          <a xlink:href="constraints_2basic_8h__incl_org.svg" target="_base">
           <rect id="button" ry="5" rx="5" y="6" x="6" height="38" width="38"
                fill="#f2f5e9" fill-opacity="0.5" stroke="#606060" stroke-width="1.0"/>
           <path id="arrow"
             d="M 11.500037,31.436501 C 11.940474,20.09759 22.043105,11.32322 32.158766,21.979434 L 37.068811,17.246167 C 37.068811,17.246167 37.088388,32 37.088388,32 L 22.160133,31.978069 C 22.160133,31.978069 26.997745,27.140456 26.997745,27.140456 C 18.528582,18.264221 13.291696,25.230495 11.500037,31.436501 z"
             style="fill:#404040;"/>
          </a>
         </g>
        </svg>
</svg>
