<?xml version="1.0" encoding="UTF-8" standalone="no"?>
<!DOCTYPE svg PUBLIC "-//W3C//DTD SVG 1.1//EN"
 "http://www.w3.org/Graphics/SVG/1.1/DTD/svg11.dtd">
<!-- Generated by graphviz version 2.40.1 (20161225.0304)
 -->
<!-- Title: ViennaRNA/dp_matrices.h Pages: 1 -->
<svg width="1212pt" height="341pt"
 viewBox="0.00 0.00 1211.89 341.00" xmlns="http://www.w3.org/2000/svg" xmlns:xlink="http://www.w3.org/1999/xlink">
<g id="graph0" class="graph" transform="scale(1 1) rotate(0) translate(4 337)">
<title>ViennaRNA/dp_matrices.h</title>
<!-- Node0 -->
<g id="node1" class="node">
<title>Node0</title>
<polygon fill="#bfbfbf" stroke="#000000" points="598.3939,-313.5 598.3939,-332.5 731.3939,-332.5 731.3939,-313.5 598.3939,-313.5"/>
<text text-anchor="middle" x="664.8939" y="-320.5" font-family="Helvetica,sans-Serif" font-size="10.00" fill="#000000">ViennaRNA/dp_matrices.h</text>
</g>
<!-- Node1 -->
<g id="node2" class="node">
<title>Node1</title>
<g id="a_node2"><a xlink:href="datastructures_2basic_8h.html" target="_top" xlink:title="Various data structures and pre&#45;processor macros. ">
<polygon fill="none" stroke="#000000" points="597.8939,-246.5 597.8939,-276.5 731.8939,-276.5 731.8939,-246.5 597.8939,-246.5"/>
<text text-anchor="start" x="605.8939" y="-264.5" font-family="Helvetica,sans-Serif" font-size="10.00" fill="#000000">ViennaRNA/datastructures</text>
<text text-anchor="middle" x="664.8939" y="-253.5" font-family="Helvetica,sans-Serif" font-size="10.00" fill="#000000">/basic.h</text>
</a>
</g>
</g>
<!-- Node0&#45;&gt;Node1 -->
<g id="edge1" class="edge">
<title>Node0&#45;&gt;Node1</title>
<path fill="none" stroke="#191970" d="M659.8314,-313.3906C658.4329,-306.2234 657.9036,-296.0862 658.2436,-286.671"/>
<polygon fill="#191970" stroke="#191970" points="661.7453,-286.7767 658.9968,-276.5446 654.7646,-286.2574 661.7453,-286.7767"/>
</g>
<!-- Node1&#45;&gt;Node0 -->
<g id="edge29" class="edge">
<title>Node1&#45;&gt;Node0</title>
<path fill="none" stroke="#191970" d="M670.791,-276.5446C671.7531,-284.6241 671.9012,-294.681 671.2353,-303.3693"/>
<polygon fill="#191970" stroke="#191970" points="667.7505,-303.028 669.9564,-313.3906 674.6942,-303.9142 667.7505,-303.028"/>
</g>
<!-- Node2 -->
<g id="node3" class="node">
<title>Node2</title>
<g id="a_node3"><a xlink:href="constants_8h.html" target="_top" xlink:title="Energy parameter constants. ">
<polygon fill="none" stroke="#000000" points="880.8939,-62 880.8939,-81 1038.8939,-81 1038.8939,-62 880.8939,-62"/>
<text text-anchor="middle" x="959.8939" y="-69" font-family="Helvetica,sans-Serif" font-size="10.00" fill="#000000">ViennaRNA/params/constants.h</text>
</a>
</g>
</g>
<!-- Node1&#45;&gt;Node2 -->
<g id="edge2" class="edge">
<title>Node1&#45;&gt;Node2</title>
<path fill="none" stroke="#191970" d="M732.2306,-254.3672C837.0366,-241.5981 1030.8431,-210.7134 1065.8939,-154 1073.1373,-142.2799 1073.2039,-134.6787 1065.8939,-123 1054.1331,-104.2107 1033.3416,-92.101 1013.2695,-84.3825"/>
<polygon fill="#191970" stroke="#191970" points="1014.4207,-81.0772 1003.8259,-81.0367 1012.0829,-87.6754 1014.4207,-81.0772"/>
</g>
<!-- Node4 -->
<g id="node5" class="node">
<title>Node4</title>
<g id="a_node5"><a xlink:href="fold__compound_8h.html" target="_top" xlink:title="The Basic Fold Compound API. ">
<polygon fill="none" stroke="#000000" points="443.8939,-190.5 443.8939,-209.5 589.8939,-209.5 589.8939,-190.5 443.8939,-190.5"/>
<text text-anchor="middle" x="516.8939" y="-197.5" font-family="Helvetica,sans-Serif" font-size="10.00" fill="#000000">ViennaRNA/fold_compound.h</text>
</a>
</g>
</g>
<!-- Node1&#45;&gt;Node4 -->
<g id="edge4" class="edge">
<title>Node1&#45;&gt;Node4</title>
<path fill="none" stroke="#191970" d="M628.689,-246.4554C604.4281,-236.374 572.7583,-223.2139 549.3227,-213.4755"/>
<polygon fill="#191970" stroke="#191970" points="550.4062,-210.1356 539.8286,-209.5303 547.72,-216.5997 550.4062,-210.1356"/>
</g>
<!-- Node5 -->
<g id="node6" class="node">
<title>Node5</title>
<g id="a_node6"><a xlink:href="model_8h.html" target="_top" xlink:title="The model details data structure and its corresponding modifiers. ">
<polygon fill="none" stroke="#000000" points="752.8939,-62 752.8939,-81 858.8939,-81 858.8939,-62 752.8939,-62"/>
<text text-anchor="middle" x="805.8939" y="-69" font-family="Helvetica,sans-Serif" font-size="10.00" fill="#000000">ViennaRNA/model.h</text>
</a>
</g>
</g>
<!-- Node1&#45;&gt;Node5 -->
<g id="edge27" class="edge">
<title>Node1&#45;&gt;Node5</title>
<path fill="none" stroke="#191970" d="M732.0225,-248.4399C783.4156,-234.5378 850.9114,-206.9319 883.8939,-154 891.1802,-142.3066 890.422,-135.133 883.8939,-123 874.8314,-106.1569 857.5792,-93.9063 841.5997,-85.5897"/>
<polygon fill="#191970" stroke="#191970" points="842.9359,-82.3481 832.4098,-81.1427 839.8867,-88.6491 842.9359,-82.3481"/>
</g>
<!-- Node6 -->
<g id="node7" class="node">
<title>Node6</title>
<g id="a_node7"><a xlink:href="params_2basic_8h.html" target="_top" xlink:title="Functions to deal with sets of energy parameters. ">
<polygon fill="none" stroke="#000000" points="736.8939,-129 736.8939,-148 874.8939,-148 874.8939,-129 736.8939,-129"/>
<text text-anchor="middle" x="805.8939" y="-136" font-family="Helvetica,sans-Serif" font-size="10.00" fill="#000000">ViennaRNA/params/basic.h</text>
</a>
</g>
</g>
<!-- Node1&#45;&gt;Node6 -->
<g id="edge28" class="edge">
<title>Node1&#45;&gt;Node6</title>
<path fill="none" stroke="#191970" d="M677.569,-246.4178C701.5288,-223.0634 752.7417,-178.3579 782.8641,-154.4732"/>
<polygon fill="#191970" stroke="#191970" points="785.3778,-156.9521 791.1215,-148.0493 781.0795,-151.4271 785.3778,-156.9521"/>
</g>
<!-- Node8 -->
<g id="node9" class="node">
<title>Node8</title>
<g id="a_node9"><a xlink:href="hard_8h.html" target="_top" xlink:title="Functions and data structures for handling of secondary structure hard constraints. ">
<polygon fill="none" stroke="#000000" points="599.3939,-123.5 599.3939,-153.5 718.3939,-153.5 718.3939,-123.5 599.3939,-123.5"/>
<text text-anchor="start" x="607.3939" y="-141.5" font-family="Helvetica,sans-Serif" font-size="10.00" fill="#000000">ViennaRNA/constraints</text>
<text text-anchor="middle" x="658.8939" y="-130.5" font-family="Helvetica,sans-Serif" font-size="10.00" fill="#000000">/hard.h</text>
</a>
</g>
</g>
<!-- Node1&#45;&gt;Node8 -->
<g id="edge30" class="edge">
<title>Node1&#45;&gt;Node8</title>
<path fill="none" stroke="#191970" d="M659.5439,-246.4178C656.0645,-225.8539 653.9309,-188.7363 654.5476,-163.8546"/>
<polygon fill="#191970" stroke="#191970" points="658.0511,-163.8535 655.0065,-153.7056 651.0583,-163.5372 658.0511,-163.8535"/>
</g>
<!-- Node10 -->
<g id="node11" class="node">
<title>Node10</title>
<g id="a_node11"><a xlink:href="soft_8h.html" target="_top" xlink:title="Functions and data structures for secondary structure soft constraints. ">
<polygon fill="none" stroke="#000000" points="15.3939,-123.5 15.3939,-153.5 134.3939,-153.5 134.3939,-123.5 15.3939,-123.5"/>
<text text-anchor="start" x="23.3939" y="-141.5" font-family="Helvetica,sans-Serif" font-size="10.00" fill="#000000">ViennaRNA/constraints</text>
<text text-anchor="middle" x="74.8939" y="-130.5" font-family="Helvetica,sans-Serif" font-size="10.00" fill="#000000">/soft.h</text>
</a>
</g>
</g>
<!-- Node1&#45;&gt;Node10 -->
<g id="edge31" class="edge">
<title>Node1&#45;&gt;Node10</title>
<path fill="none" stroke="#191970" d="M597.7713,-252.6251C534.231,-243.2797 436.5886,-227.5118 352.8939,-210 276.2015,-193.9534 188.9703,-171.6338 132.9162,-156.2202"/>
<polygon fill="#191970" stroke="#191970" points="133.7371,-152.8159 123.1657,-153.5214 131.8697,-159.5622 133.7371,-152.8159"/>
</g>
<!-- Node11 -->
<g id="node12" class="node">
<title>Node11</title>
<g id="a_node12"><a xlink:href="grammar_8h.html" target="_top" xlink:title="Implementations for the RNA folding grammar. ">
<polygon fill="none" stroke="#000000" points="152.3939,-129 152.3939,-148 269.3939,-148 269.3939,-129 152.3939,-129"/>
<text text-anchor="middle" x="210.8939" y="-136" font-family="Helvetica,sans-Serif" font-size="10.00" fill="#000000">ViennaRNA/grammar.h</text>
</a>
</g>
</g>
<!-- Node1&#45;&gt;Node11 -->
<g id="edge32" class="edge">
<title>Node1&#45;&gt;Node11</title>
<path fill="none" stroke="#191970" d="M597.8319,-248.1231C551.7474,-238.5307 489.2981,-224.7426 434.8939,-210 368.3663,-191.9722 292.152,-166.6213 247.9699,-151.4498"/>
<polygon fill="#191970" stroke="#191970" points="248.8428,-148.0486 238.248,-148.098 246.5611,-154.6664 248.8428,-148.0486"/>
</g>
<!-- Node12 -->
<g id="node13" class="node">
<title>Node12</title>
<g id="a_node13"><a xlink:href="structured__domains_8h.html" target="_top" xlink:title="This module provides interfaces that deal with additional structured domains in the folding grammar...">
<polygon fill="none" stroke="#000000" points="466.3939,-123.5 466.3939,-153.5 581.3939,-153.5 581.3939,-123.5 466.3939,-123.5"/>
<text text-anchor="start" x="474.3939" y="-141.5" font-family="Helvetica,sans-Serif" font-size="10.00" fill="#000000">ViennaRNA/structured</text>
<text text-anchor="middle" x="523.8939" y="-130.5" font-family="Helvetica,sans-Serif" font-size="10.00" fill="#000000">_domains.h</text>
</a>
</g>
</g>
<!-- Node1&#45;&gt;Node12 -->
<g id="edge33" class="edge">
<title>Node1&#45;&gt;Node12</title>
<path fill="none" stroke="#191970" d="M652.6322,-246.3404C640.0015,-231.198 619.3291,-207.6911 598.8939,-190 586.0612,-178.8905 570.7866,-168.0332 557.3813,-159.174"/>
<polygon fill="#191970" stroke="#191970" points="559.1797,-156.1686 548.8865,-153.6582 555.3675,-162.0396 559.1797,-156.1686"/>
</g>
<!-- Node13 -->
<g id="node14" class="node">
<title>Node13</title>
<g id="a_node14"><a xlink:href="unstructured__domains_8h.html" target="_top" xlink:title="Functions to modify unstructured domains, e.g. to incorporate ligands binding to unpaired stretches...">
<polygon fill="none" stroke="#000000" points="931.3939,-123.5 931.3939,-153.5 1056.3939,-153.5 1056.3939,-123.5 931.3939,-123.5"/>
<text text-anchor="start" x="939.3939" y="-141.5" font-family="Helvetica,sans-Serif" font-size="10.00" fill="#000000">ViennaRNA/unstructured</text>
<text text-anchor="middle" x="993.8939" y="-130.5" font-family="Helvetica,sans-Serif" font-size="10.00" fill="#000000">_domains.h</text>
</a>
</g>
</g>
<!-- Node1&#45;&gt;Node13 -->
<g id="edge34" class="edge">
<title>Node1&#45;&gt;Node13</title>
<path fill="none" stroke="#191970" d="M732.0217,-250.881C792.8856,-241.0669 877.4156,-225.6735 907.8939,-210 931.0372,-198.0985 952.298,-177.2585 968.145,-161.1376"/>
<polygon fill="#191970" stroke="#191970" points="970.9721,-163.2535 975.4741,-153.6627 965.9738,-158.3527 970.9721,-163.2535"/>
</g>
<!-- Node14 -->
<g id="node15" class="node">
<title>Node14</title>
<g id="a_node15"><a xlink:href="utils_2structures_8h.html" target="_top" xlink:title="Various utility&#45; and helper&#45;functions for secondary structure parsing, converting, etc. ">
<polygon fill="none" stroke="#000000" points="1059.8939,-62 1059.8939,-81 1203.8939,-81 1203.8939,-62 1059.8939,-62"/>
<text text-anchor="middle" x="1131.8939" y="-69" font-family="Helvetica,sans-Serif" font-size="10.00" fill="#000000">ViennaRNA/utils/structures.h</text>
</a>
</g>
</g>
<!-- Node1&#45;&gt;Node14 -->
<g id="edge35" class="edge">
<title>Node1&#45;&gt;Node14</title>
<path fill="none" stroke="#191970" d="M731.967,-254.4939C814.4206,-245.6591 948.9501,-229.2725 995.8939,-210 1035.0391,-193.9292 1044.2538,-185.1507 1072.8939,-154 1090.779,-134.547 1105.6111,-107.7341 1116.4666,-90.0231"/>
<polygon fill="#191970" stroke="#191970" points="1119.6525,-91.537 1122.0825,-81.2246 1113.752,-87.7708 1119.6525,-91.537"/>
</g>
<!-- Node3 -->
<g id="node4" class="node">
<title>Node3</title>
<polygon fill="none" stroke="#bfbfbf" points="935.8939,-.5 935.8939,-19.5 983.8939,-19.5 983.8939,-.5 935.8939,-.5"/>
<text text-anchor="middle" x="959.8939" y="-7.5" font-family="Helvetica,sans-Serif" font-size="10.00" fill="#000000">limits.h</text>
</g>
<!-- Node2&#45;&gt;Node3 -->
<g id="edge3" class="edge">
<title>Node2&#45;&gt;Node3</title>
<path fill="none" stroke="#191970" d="M959.8939,-61.8906C959.8939,-53.3657 959.8939,-40.6392 959.8939,-29.9235"/>
<polygon fill="#191970" stroke="#191970" points="963.394,-29.7448 959.8939,-19.7449 956.394,-29.7449 963.394,-29.7448"/>
</g>
<!-- Node4&#45;&gt;Node0 -->
<g id="edge11" class="edge">
<title>Node4&#45;&gt;Node0</title>
<path fill="none" stroke="#191970" d="M524.5705,-209.8115C536.9887,-225.2872 562.7431,-255.7831 588.8939,-277 603.7715,-289.0706 622.105,-300.2578 637.0377,-308.5769"/>
<polygon fill="#191970" stroke="#191970" points="635.3786,-311.6587 645.8347,-313.3683 638.7269,-305.5114 635.3786,-311.6587"/>
</g>
<!-- Node4&#45;&gt;Node5 -->
<g id="edge5" class="edge">
<title>Node4&#45;&gt;Node5</title>
<path fill="none" stroke="#191970" d="M496.7378,-190.4543C483.0124,-182.7394 465.9303,-170.4561 457.8939,-154 451.8478,-141.6197 448.8928,-133.4311 457.8939,-123 476.2042,-101.7805 647.1777,-84.513 742.4699,-76.4399"/>
<polygon fill="#191970" stroke="#191970" points="742.9007,-79.9162 752.574,-75.5943 742.3169,-72.9406 742.9007,-79.9162"/>
</g>
<!-- Node4&#45;&gt;Node6 -->
<g id="edge6" class="edge">
<title>Node4&#45;&gt;Node6</title>
<path fill="none" stroke="#191970" d="M561.733,-190.4581C612.7781,-179.5956 696.1737,-161.8488 751.0492,-150.1711"/>
<polygon fill="#191970" stroke="#191970" points="751.8971,-153.5691 760.9495,-148.0643 750.44,-146.7224 751.8971,-153.5691"/>
</g>
<!-- Node7 -->
<g id="node8" class="node">
<title>Node7</title>
<g id="a_node8"><a xlink:href="sequence_8h.html" target="_top" xlink:title="Functions and data structures related to sequence representations ,. ">
<polygon fill="none" stroke="#000000" points="287.8939,-129 287.8939,-148 409.8939,-148 409.8939,-129 287.8939,-129"/>
<text text-anchor="middle" x="348.8939" y="-136" font-family="Helvetica,sans-Serif" font-size="10.00" fill="#000000">ViennaRNA/sequence.h</text>
</a>
</g>
</g>
<!-- Node4&#45;&gt;Node7 -->
<g id="edge10" class="edge">
<title>Node4&#45;&gt;Node7</title>
<path fill="none" stroke="#191970" d="M490.6439,-190.3906C462.1645,-179.9652 416.5196,-163.2559 384.7481,-151.6252"/>
<polygon fill="#191970" stroke="#191970" points="385.5533,-148.1929 374.9595,-148.0419 383.1469,-154.7663 385.5533,-148.1929"/>
</g>
<!-- Node4&#45;&gt;Node8 -->
<g id="edge12" class="edge">
<title>Node4&#45;&gt;Node8</title>
<path fill="none" stroke="#191970" d="M539.0814,-190.3906C559.278,-181.6435 589.6883,-168.4728 614.8169,-157.5897"/>
<polygon fill="#191970" stroke="#191970" points="616.3714,-160.7306 624.1568,-153.5446 613.5894,-154.3072 616.3714,-160.7306"/>
</g>
<!-- Node4&#45;&gt;Node10 -->
<g id="edge16" class="edge">
<title>Node4&#45;&gt;Node10</title>
<path fill="none" stroke="#191970" d="M443.8222,-193.2334C370.4128,-185.9317 253.8778,-172.9718 144.4186,-154.1722"/>
<polygon fill="#191970" stroke="#191970" points="144.98,-150.7174 134.5285,-152.4541 143.7818,-157.6141 144.98,-150.7174"/>
</g>
<!-- Node4&#45;&gt;Node11 -->
<g id="edge19" class="edge">
<title>Node4&#45;&gt;Node11</title>
<path fill="none" stroke="#191970" d="M457.7922,-190.4452C407.5095,-181.4679 333.7248,-167.4395 269.8939,-154 264.4139,-152.8462 258.6945,-151.6034 253.0542,-150.3414"/>
<polygon fill="#191970" stroke="#191970" points="253.5832,-146.8723 243.0556,-148.0641 252.0287,-153.6975 253.5832,-146.8723"/>
</g>
<!-- Node4&#45;&gt;Node12 -->
<g id="edge21" class="edge">
<title>Node4&#45;&gt;Node12</title>
<path fill="none" stroke="#191970" d="M517.9876,-190.3906C518.8034,-183.2234 519.9572,-173.0862 521.0289,-163.671"/>
<polygon fill="#191970" stroke="#191970" points="524.528,-163.8763 522.1815,-153.5446 517.5729,-163.0846 524.528,-163.8763"/>
</g>
<!-- Node4&#45;&gt;Node13 -->
<g id="edge22" class="edge">
<title>Node4&#45;&gt;Node13</title>
<path fill="none" stroke="#191970" d="M590.0496,-191.1647C664.1517,-182.1366 782.0501,-167.5571 883.8939,-154 896.0371,-152.3835 908.9264,-150.615 921.444,-148.8693"/>
<polygon fill="#191970" stroke="#191970" points="921.9639,-152.3308 931.3818,-147.4776 920.993,-145.3984 921.9639,-152.3308"/>
</g>
<!-- Node6&#45;&gt;Node1 -->
<g id="edge8" class="edge">
<title>Node6&#45;&gt;Node1</title>
<path fill="none" stroke="#191970" d="M798.7729,-148.0493C779.6234,-167.6618 728.2424,-212.9055 694.8649,-239.9585"/>
<polygon fill="#191970" stroke="#191970" points="692.4161,-237.4355 686.7975,-246.4178 696.7912,-242.8998 692.4161,-237.4355"/>
</g>
<!-- Node6&#45;&gt;Node2 -->
<g id="edge7" class="edge">
<title>Node6&#45;&gt;Node2</title>
<path fill="none" stroke="#191970" d="M827.9583,-128.9005C854.2604,-117.4574 898.4067,-98.2509 928.3184,-85.2374"/>
<polygon fill="#191970" stroke="#191970" points="930.0969,-88.2806 937.8704,-81.0817 927.3043,-81.8617 930.0969,-88.2806"/>
</g>
<!-- Node6&#45;&gt;Node5 -->
<g id="edge9" class="edge">
<title>Node6&#45;&gt;Node5</title>
<path fill="none" stroke="#191970" d="M805.8939,-128.9005C805.8939,-119.149 805.8939,-103.7597 805.8939,-91.3695"/>
<polygon fill="#191970" stroke="#191970" points="809.394,-91.0816 805.8939,-81.0817 802.394,-91.0817 809.394,-91.0816"/>
</g>
<!-- Node8&#45;&gt;Node1 -->
<g id="edge13" class="edge">
<title>Node8&#45;&gt;Node1</title>
<path fill="none" stroke="#191970" d="M664.2647,-153.7056C667.7387,-174.3355 669.8641,-211.4615 669.2365,-236.2943"/>
<polygon fill="#191970" stroke="#191970" points="665.7341,-236.268 668.7724,-246.4178 672.7267,-236.5886 665.7341,-236.268"/>
</g>
<!-- Node9 -->
<g id="node10" class="node">
<title>Node9</title>
<g id="a_node10"><a xlink:href="constraints_2basic_8h.html" target="_top" xlink:title="Functions and data structures for constraining secondary structure predictions and evaluation...">
<polygon fill="none" stroke="#000000" points="15.3939,-56.5 15.3939,-86.5 134.3939,-86.5 134.3939,-56.5 15.3939,-56.5"/>
<text text-anchor="start" x="23.3939" y="-74.5" font-family="Helvetica,sans-Serif" font-size="10.00" fill="#000000">ViennaRNA/constraints</text>
<text text-anchor="middle" x="74.8939" y="-63.5" font-family="Helvetica,sans-Serif" font-size="10.00" fill="#000000">/basic.h</text>
</a>
</g>
</g>
<!-- Node8&#45;&gt;Node9 -->
<g id="edge14" class="edge">
<title>Node8&#45;&gt;Node9</title>
<path fill="none" stroke="#191970" d="M599.2725,-124.4678C596.446,-123.9417 593.6424,-123.4486 590.8939,-123 432.3494,-97.1222 244.1333,-82.2986 144.6338,-75.6915"/>
<polygon fill="#191970" stroke="#191970" points="144.6164,-72.183 134.4087,-75.0208 144.1581,-79.168 144.6164,-72.183"/>
</g>
<!-- Node9&#45;&gt;Node1 -->
<g id="edge15" class="edge">
<title>Node9&#45;&gt;Node1</title>
<path fill="none" stroke="#191970" d="M47.0927,-86.5904C20.3502,-103.0454 -13.3914,-130.2135 5.8939,-154 42.2736,-198.871 421.5193,-239.0388 587.6514,-254.6245"/>
<polygon fill="#191970" stroke="#191970" points="587.5192,-258.1273 597.801,-255.5709 588.1692,-251.1575 587.5192,-258.1273"/>
</g>
<!-- Node10&#45;&gt;Node1 -->
<g id="edge17" class="edge">
<title>Node10&#45;&gt;Node1</title>
<path fill="none" stroke="#191970" d="M134.4214,-152.9538C194.1523,-168.3349 288.5916,-192.7796 370.8939,-210 444.2104,-225.3403 528.23,-239.3424 587.6848,-248.8613"/>
<polygon fill="#191970" stroke="#191970" points="587.3232,-252.3478 597.7499,-250.4677 588.4265,-245.4353 587.3232,-252.3478"/>
</g>
<!-- Node10&#45;&gt;Node9 -->
<g id="edge18" class="edge">
<title>Node10&#45;&gt;Node9</title>
<path fill="none" stroke="#191970" d="M74.8939,-123.2967C74.8939,-115.5013 74.8939,-105.7991 74.8939,-96.9064"/>
<polygon fill="#191970" stroke="#191970" points="78.394,-96.6431 74.8939,-86.6432 71.394,-96.6432 78.394,-96.6431"/>
</g>
<!-- Node11&#45;&gt;Node4 -->
<g id="edge20" class="edge">
<title>Node11&#45;&gt;Node4</title>
<path fill="none" stroke="#191970" d="M260.6209,-148.0641C269.7451,-150.08 279.1259,-152.1539 287.8939,-154 347.3613,-166.5208 415.4682,-179.5527 461.9309,-188.5351"/>
<polygon fill="#191970" stroke="#191970" points="461.3139,-191.9806 471.7969,-190.4452 462.6445,-185.1082 461.3139,-191.9806"/>
</g>
<!-- Node13&#45;&gt;Node1 -->
<g id="edge23" class="edge">
<title>Node13&#45;&gt;Node1</title>
<path fill="none" stroke="#191970" d="M988.5664,-153.6627C977.2056,-170.1987 952.8243,-196.151 925.8939,-210 894.7959,-225.9922 807.4257,-241.6928 742.2172,-251.4727"/>
<polygon fill="#191970" stroke="#191970" points="741.3342,-248.0651 731.9539,-252.9906 742.3584,-254.9898 741.3342,-248.0651"/>
</g>
<!-- Node13&#45;&gt;Node14 -->
<g id="edge24" class="edge">
<title>Node13&#45;&gt;Node14</title>
<path fill="none" stroke="#191970" d="M1024.8638,-123.4639C1048.227,-112.1209 1080.0498,-96.6707 1102.9133,-85.5703"/>
<polygon fill="#191970" stroke="#191970" points="1104.6455,-88.62 1112.1127,-81.1039 1101.5882,-82.323 1104.6455,-88.62"/>
</g>
<!-- Node14&#45;&gt;Node1 -->
<g id="edge26" class="edge">
<title>Node14&#45;&gt;Node1</title>
<path fill="none" stroke="#191970" d="M1133.0667,-81.2246C1128.9997,-97.551 1112.0911,-130.9446 1090.8939,-154 1062.2538,-185.1507 1053.0391,-193.9292 1013.8939,-210 966.4802,-229.4654 829.7187,-245.9869 742.0758,-254.7569"/>
<polygon fill="#191970" stroke="#191970" points="741.5124,-251.2955 731.9051,-255.7619 742.2008,-258.2615 741.5124,-251.2955"/>
</g>
<!-- Node15 -->
<g id="node16" class="node">
<title>Node15</title>
<polygon fill="none" stroke="#bfbfbf" points="1108.8939,-.5 1108.8939,-19.5 1154.8939,-19.5 1154.8939,-.5 1108.8939,-.5"/>
<text text-anchor="middle" x="1131.8939" y="-7.5" font-family="Helvetica,sans-Serif" font-size="10.00" fill="#000000">stdio.h</text>
</g>
<!-- Node14&#45;&gt;Node15 -->
<g id="edge25" class="edge">
<title>Node14&#45;&gt;Node15</title>
<path fill="none" stroke="#191970" d="M1131.8939,-61.8906C1131.8939,-53.3657 1131.8939,-40.6392 1131.8939,-29.9235"/>
<polygon fill="#191970" stroke="#191970" points="1135.394,-29.7448 1131.8939,-19.7449 1128.394,-29.7449 1135.394,-29.7448"/>
</g>
</g>
</svg>
