<?xml version="1.0" encoding="UTF-8" standalone="no"?>
<!DOCTYPE svg PUBLIC "-//W3C//DTD SVG 1.1//EN"
 "http://www.w3.org/Graphics/SVG/1.1/DTD/svg11.dtd">
<!-- Generated by graphviz version 2.40.1 (20161225.0304)
 -->
<!-- Title: ViennaRNA/file_formats.h Pages: 1 -->
<!--zoomable 397 -->
<svg id="main" version="1.1" xmlns="http://www.w3.org/2000/svg" xmlns:xlink="http://www.w3.org/1999/xlink" xml:space="preserve" onload="init(evt)">
<style type="text/css"><![CDATA[
.edge:hover path { stroke: red; }
.edge:hover polygon { stroke: red; fill: red; }
]]></style>
<script type="text/javascript"><![CDATA[
var edges = document.getElementsByTagName('g');
if (edges && edges.length) {
  for (var i=0;i<edges.length;i++) {
    if (edges[i].id.substr(0,4)=='edge') {
      edges[i].setAttribute('class','edge');
    }
  }
}
]]></script>
        <defs>
                <circle id="rim" cx="0" cy="0" r="7"/>
                <circle id="rim2" cx="0" cy="0" r="3.5"/>
                <g id="zoomPlus">
                        <use xlink:href="#rim" fill="#404040">
                                <set attributeName="fill" to="#808080" begin="zoomplus.mouseover" end="zoomplus.mouseout"/>
                        </use>
                        <path d="M-4,0h8M0,-4v8" fill="none" stroke="white" stroke-width="1.5" pointer-events="none"/>
                </g>
                <g id="zoomMin">
                        <use xlink:href="#rim" fill="#404040">
                                <set attributeName="fill" to="#808080" begin="zoomminus.mouseover" end="zoomminus.mouseout"/>
                        </use>
                        <path d="M-4,0h8" fill="none" stroke="white" stroke-width="1.5" pointer-events="none"/>
                </g>
                <g id="dirArrow">
                        <path fill="none" stroke="white" stroke-width="1.5" d="M0,-3.0v7 M-2.5,-0.5L0,-3.0L2.5,-0.5"/>
                </g>
               <g id="resetDef">
                       <use xlink:href="#rim2" fill="#404040">
                               <set attributeName="fill" to="#808080" begin="reset.mouseover" end="reset.mouseout"/>
                       </use>
               </g>
        </defs>

<script type="text/javascript">
var viewWidth = 1528;
var viewHeight = 397;
var sectionId = 'dynsection-0';
</script>
<script xlink:href="svgpan.js"/>
<svg id="graph" class="graph">
<g id="viewport">
<title>ViennaRNA/file_formats.h</title>
<!-- Node0 -->
<g id="node1" class="node">
<title>Node0</title>
<polygon fill="#bfbfbf" stroke="#000000" points="1337.9875,-369.5 1337.9875,-388.5 1468.9875,-388.5 1468.9875,-369.5 1337.9875,-369.5"/>
<text text-anchor="middle" x="1403.4875" y="-376.5" font-family="Helvetica,sans-Serif" font-size="10.00" fill="#000000">ViennaRNA/file_formats.h</text>
</g>
<!-- Node1 -->
<g id="node2" class="node">
<title>Node1</title>
<g id="a_node2"><a xlink:href="io_2file__formats_8h.html" target="_top" xlink:title="Read and write different file formats for RNA sequences, structures. ">
<polygon fill="none" stroke="#000000" points="1283.4875,-313.5 1283.4875,-332.5 1425.4875,-332.5 1425.4875,-313.5 1283.4875,-313.5"/>
<text text-anchor="middle" x="1354.4875" y="-320.5" font-family="Helvetica,sans-Serif" font-size="10.00" fill="#000000">ViennaRNA/io/file_formats.h</text>
</a>
</g>
</g>
<!-- Node0&#45;&gt;Node1 -->
<g id="edge1" class="edge">
<title>Node0&#45;&gt;Node1</title>
<path fill="none" stroke="#191970" d="M1394.9523,-369.2455C1387.9963,-361.2958 1377.9992,-349.8706 1369.6824,-340.3656"/>
<polygon fill="#191970" stroke="#191970" points="1372.1439,-337.8637 1362.9248,-332.6427 1366.8759,-342.4732 1372.1439,-337.8637"/>
</g>
<!-- Node18 -->
<g id="node19" class="node">
<title>Node18</title>
<g id="a_node19"><a xlink:href="io_2file__formats__msa_8h.html" target="_top" xlink:title="Functions dealing with file formats for Multiple Sequence Alignments (MSA) ">
<polygon fill="none" stroke="#000000" points="1386.4875,-246.5 1386.4875,-276.5 1520.4875,-276.5 1520.4875,-246.5 1386.4875,-246.5"/>
<text text-anchor="start" x="1394.4875" y="-264.5" font-family="Helvetica,sans-Serif" font-size="10.00" fill="#000000">ViennaRNA/io/file_formats</text>
<text text-anchor="middle" x="1453.4875" y="-253.5" font-family="Helvetica,sans-Serif" font-size="10.00" fill="#000000">_msa.h</text>
</a>
</g>
</g>
<!-- Node0&#45;&gt;Node18 -->
<g id="edge39" class="edge">
<title>Node0&#45;&gt;Node18</title>
<path fill="none" stroke="#191970" d="M1411.4087,-369.3423C1418.3817,-360.4065 1428.354,-346.503 1434.4875,-333 1441.2178,-318.1832 1445.9402,-300.5184 1448.9936,-286.4544"/>
<polygon fill="#191970" stroke="#191970" points="1452.4533,-287.0041 1451.0089,-276.5081 1445.5927,-285.6139 1452.4533,-287.0041"/>
</g>
<!-- Node2 -->
<g id="node3" class="node">
<title>Node2</title>
<polygon fill="none" stroke="#bfbfbf" points="1335.4875,-.5 1335.4875,-19.5 1381.4875,-19.5 1381.4875,-.5 1335.4875,-.5"/>
<text text-anchor="middle" x="1358.4875" y="-7.5" font-family="Helvetica,sans-Serif" font-size="10.00" fill="#000000">stdio.h</text>
</g>
<!-- Node1&#45;&gt;Node2 -->
<g id="edge2" class="edge">
<title>Node1&#45;&gt;Node2</title>
<path fill="none" stroke="#191970" d="M1355.0104,-313.4343C1356.0947,-292.7481 1358.4875,-242.3036 1358.4875,-200 1358.4875,-200 1358.4875,-200 1358.4875,-138.5 1358.4875,-100.0012 1358.4875,-55.0145 1358.4875,-29.7812"/>
<polygon fill="#191970" stroke="#191970" points="1361.9876,-29.6718 1358.4875,-19.6719 1354.9876,-29.6719 1361.9876,-29.6718"/>
</g>
<!-- Node3 -->
<g id="node4" class="node">
<title>Node3</title>
<g id="a_node4"><a xlink:href="datastructures_2basic_8h.html" target="_top" xlink:title="Various data structures and pre&#45;processor macros. ">
<polygon fill="none" stroke="#000000" points="802.4875,-246.5 802.4875,-276.5 936.4875,-276.5 936.4875,-246.5 802.4875,-246.5"/>
<text text-anchor="start" x="810.4875" y="-264.5" font-family="Helvetica,sans-Serif" font-size="10.00" fill="#000000">ViennaRNA/datastructures</text>
<text text-anchor="middle" x="869.4875" y="-253.5" font-family="Helvetica,sans-Serif" font-size="10.00" fill="#000000">/basic.h</text>
</a>
</g>
</g>
<!-- Node1&#45;&gt;Node3 -->
<g id="edge3" class="edge">
<title>Node1&#45;&gt;Node3</title>
<path fill="none" stroke="#191970" d="M1283.4449,-313.9915C1193.6687,-302.6075 1039.7034,-283.0841 946.9748,-271.3257"/>
<polygon fill="#191970" stroke="#191970" points="947.172,-267.8228 936.8112,-270.0369 946.2914,-274.7672 947.172,-267.8228"/>
</g>
<!-- Node4 -->
<g id="node5" class="node">
<title>Node4</title>
<g id="a_node5"><a xlink:href="constants_8h.html" target="_top" xlink:title="Energy parameter constants. ">
<polygon fill="none" stroke="#000000" points="505.4875,-62 505.4875,-81 663.4875,-81 663.4875,-62 505.4875,-62"/>
<text text-anchor="middle" x="584.4875" y="-69" font-family="Helvetica,sans-Serif" font-size="10.00" fill="#000000">ViennaRNA/params/constants.h</text>
</a>
</g>
</g>
<!-- Node3&#45;&gt;Node4 -->
<g id="edge4" class="edge">
<title>Node3&#45;&gt;Node4</title>
<path fill="none" stroke="#191970" d="M861.9342,-246.4651C846.8455,-217.9745 810.1957,-156.0253 761.4875,-123 732.2008,-103.1429 695.1962,-90.8318 662.6029,-83.2524"/>
<polygon fill="#191970" stroke="#191970" points="663.1628,-79.7917 652.6428,-81.049 661.6507,-86.6265 663.1628,-79.7917"/>
</g>
<!-- Node6 -->
<g id="node7" class="node">
<title>Node6</title>
<g id="a_node7"><a xlink:href="fold__compound_8h.html" target="_top" xlink:title="The Basic Fold Compound API. ">
<polygon fill="none" stroke="#000000" points="485.4875,-190.5 485.4875,-209.5 631.4875,-209.5 631.4875,-190.5 485.4875,-190.5"/>
<text text-anchor="middle" x="558.4875" y="-197.5" font-family="Helvetica,sans-Serif" font-size="10.00" fill="#000000">ViennaRNA/fold_compound.h</text>
</a>
</g>
</g>
<!-- Node3&#45;&gt;Node6 -->
<g id="edge6" class="edge">
<title>Node3&#45;&gt;Node6</title>
<path fill="none" stroke="#191970" d="M802.388,-248.2311C747.0293,-237.284 669.2874,-221.9106 616.5653,-211.4848"/>
<polygon fill="#191970" stroke="#191970" points="617.1851,-208.0397 606.6961,-209.5332 615.8271,-214.9067 617.1851,-208.0397"/>
</g>
<!-- Node7 -->
<g id="node8" class="node">
<title>Node7</title>
<g id="a_node8"><a xlink:href="model_8h.html" target="_top" xlink:title="The model details data structure and its corresponding modifiers. ">
<polygon fill="none" stroke="#000000" points="183.4875,-62 183.4875,-81 289.4875,-81 289.4875,-62 183.4875,-62"/>
<text text-anchor="middle" x="236.4875" y="-69" font-family="Helvetica,sans-Serif" font-size="10.00" fill="#000000">ViennaRNA/model.h</text>
</a>
</g>
</g>
<!-- Node3&#45;&gt;Node7 -->
<g id="edge30" class="edge">
<title>Node3&#45;&gt;Node7</title>
<path fill="none" stroke="#191970" d="M802.4765,-258.3895C608.4052,-248.6748 56.5092,-215.7941 6.4875,-154 -2.1812,-143.2911 -2.125,-133.7542 6.4875,-123 27.0403,-97.3362 112.4243,-83.5987 173.1453,-76.9274"/>
<polygon fill="#191970" stroke="#191970" points="173.8428,-80.3732 183.4187,-75.8396 173.1057,-73.4121 173.8428,-80.3732"/>
</g>
<!-- Node8 -->
<g id="node9" class="node">
<title>Node8</title>
<g id="a_node9"><a xlink:href="params_2basic_8h.html" target="_top" xlink:title="Functions to deal with sets of energy parameters. ">
<polygon fill="none" stroke="#000000" points="167.4875,-129 167.4875,-148 305.4875,-148 305.4875,-129 167.4875,-129"/>
<text text-anchor="middle" x="236.4875" y="-136" font-family="Helvetica,sans-Serif" font-size="10.00" fill="#000000">ViennaRNA/params/basic.h</text>
</a>
</g>
</g>
<!-- Node3&#45;&gt;Node8 -->
<g id="edge31" class="edge">
<title>Node3&#45;&gt;Node8</title>
<path fill="none" stroke="#191970" d="M802.1783,-258.3975C715.1573,-253.1842 559.7292,-240.1144 430.4875,-210 368.6181,-195.5839 299.3913,-168.7801 262.504,-152.401"/>
<polygon fill="#191970" stroke="#191970" points="263.5425,-149.0284 252.9904,-148.0766 260.6458,-155.401 263.5425,-149.0284"/>
</g>
<!-- Node10 -->
<g id="node11" class="node">
<title>Node10</title>
<g id="a_node11"><a xlink:href="dp__matrices_8h.html" target="_top" xlink:title="Functions to deal with standard dynamic programming (DP) matrices. ">
<polygon fill="none" stroke="#000000" points="15.9875,-129 15.9875,-148 148.9875,-148 148.9875,-129 15.9875,-129"/>
<text text-anchor="middle" x="82.4875" y="-136" font-family="Helvetica,sans-Serif" font-size="10.00" fill="#000000">ViennaRNA/dp_matrices.h</text>
</a>
</g>
</g>
<!-- Node3&#45;&gt;Node10 -->
<g id="edge32" class="edge">
<title>Node3&#45;&gt;Node10</title>
<path fill="none" stroke="#191970" d="M802.3101,-258.0479C704.0349,-252.0692 515.9613,-237.6833 358.4875,-210 271.1134,-194.64 170.9284,-167.1531 118.4805,-151.1037"/>
<polygon fill="#191970" stroke="#191970" points="119.2334,-147.6728 108.6454,-148.0533 117.1597,-154.3586 119.2334,-147.6728"/>
</g>
<!-- Node11 -->
<g id="node12" class="node">
<title>Node11</title>
<g id="a_node12"><a xlink:href="hard_8h.html" target="_top" xlink:title="Functions and data structures for handling of secondary structure hard constraints. ">
<polygon fill="none" stroke="#000000" points="809.9875,-123.5 809.9875,-153.5 928.9875,-153.5 928.9875,-123.5 809.9875,-123.5"/>
<text text-anchor="start" x="817.9875" y="-141.5" font-family="Helvetica,sans-Serif" font-size="10.00" fill="#000000">ViennaRNA/constraints</text>
<text text-anchor="middle" x="869.4875" y="-130.5" font-family="Helvetica,sans-Serif" font-size="10.00" fill="#000000">/hard.h</text>
</a>
</g>
</g>
<!-- Node3&#45;&gt;Node11 -->
<g id="edge33" class="edge">
<title>Node3&#45;&gt;Node11</title>
<path fill="none" stroke="#191970" d="M864.8732,-246.4178C862.397,-225.8539 862.074,-188.7363 863.9044,-163.8546"/>
<polygon fill="#191970" stroke="#191970" points="867.4071,-163.9893 864.8584,-153.7056 860.4378,-163.3341 867.4071,-163.9893"/>
</g>
<!-- Node13 -->
<g id="node14" class="node">
<title>Node13</title>
<g id="a_node14"><a xlink:href="soft_8h.html" target="_top" xlink:title="Functions and data structures for secondary structure soft constraints. ">
<polygon fill="none" stroke="#000000" points="946.9875,-123.5 946.9875,-153.5 1065.9875,-153.5 1065.9875,-123.5 946.9875,-123.5"/>
<text text-anchor="start" x="954.9875" y="-141.5" font-family="Helvetica,sans-Serif" font-size="10.00" fill="#000000">ViennaRNA/constraints</text>
<text text-anchor="middle" x="1006.4875" y="-130.5" font-family="Helvetica,sans-Serif" font-size="10.00" fill="#000000">/soft.h</text>
</a>
</g>
</g>
<!-- Node3&#45;&gt;Node13 -->
<g id="edge34" class="edge">
<title>Node3&#45;&gt;Node13</title>
<path fill="none" stroke="#191970" d="M881.6721,-246.4178C903.1081,-224.8395 947.2166,-185.0342 976.9483,-160.2653"/>
<polygon fill="#191970" stroke="#191970" points="979.4231,-162.7616 984.9221,-153.7056 974.9759,-157.3558 979.4231,-162.7616"/>
</g>
<!-- Node14 -->
<g id="node15" class="node">
<title>Node14</title>
<g id="a_node15"><a xlink:href="grammar_8h.html" target="_top" xlink:title="Implementations for the RNA folding grammar. ">
<polygon fill="none" stroke="#000000" points="323.9875,-129 323.9875,-148 440.9875,-148 440.9875,-129 323.9875,-129"/>
<text text-anchor="middle" x="382.4875" y="-136" font-family="Helvetica,sans-Serif" font-size="10.00" fill="#000000">ViennaRNA/grammar.h</text>
</a>
</g>
</g>
<!-- Node3&#45;&gt;Node14 -->
<g id="edge35" class="edge">
<title>Node3&#45;&gt;Node14</title>
<path fill="none" stroke="#191970" d="M802.0882,-256.8692C705.7382,-249.539 533.9206,-233.6275 476.4875,-210 445.7379,-197.3499 416.2264,-172.036 398.7232,-155.1781"/>
<polygon fill="#191970" stroke="#191970" points="401.1377,-152.6435 391.5648,-148.1035 396.2171,-157.6223 401.1377,-152.6435"/>
</g>
<!-- Node15 -->
<g id="node16" class="node">
<title>Node15</title>
<g id="a_node16"><a xlink:href="structured__domains_8h.html" target="_top" xlink:title="This module provides interfaces that deal with additional structured domains in the folding grammar...">
<polygon fill="none" stroke="#000000" points="637.9875,-123.5 637.9875,-153.5 752.9875,-153.5 752.9875,-123.5 637.9875,-123.5"/>
<text text-anchor="start" x="645.9875" y="-141.5" font-family="Helvetica,sans-Serif" font-size="10.00" fill="#000000">ViennaRNA/structured</text>
<text text-anchor="middle" x="695.4875" y="-130.5" font-family="Helvetica,sans-Serif" font-size="10.00" fill="#000000">_domains.h</text>
</a>
</g>
</g>
<!-- Node3&#45;&gt;Node15 -->
<g id="edge36" class="edge">
<title>Node3&#45;&gt;Node15</title>
<path fill="none" stroke="#191970" d="M832.9767,-246.4563C812.7877,-237.3236 787.7615,-224.6193 767.4875,-210 747.9563,-195.9163 728.7556,-176.4885 715.1006,-161.4384"/>
<polygon fill="#191970" stroke="#191970" points="717.3798,-158.7346 708.1181,-153.5894 712.1497,-163.3872 717.3798,-158.7346"/>
</g>
<!-- Node16 -->
<g id="node17" class="node">
<title>Node16</title>
<g id="a_node17"><a xlink:href="unstructured__domains_8h.html" target="_top" xlink:title="Functions to modify unstructured domains, e.g. to incorporate ligands binding to unpaired stretches...">
<polygon fill="none" stroke="#000000" points="1122.9875,-123.5 1122.9875,-153.5 1247.9875,-153.5 1247.9875,-123.5 1122.9875,-123.5"/>
<text text-anchor="start" x="1130.9875" y="-141.5" font-family="Helvetica,sans-Serif" font-size="10.00" fill="#000000">ViennaRNA/unstructured</text>
<text text-anchor="middle" x="1185.4875" y="-130.5" font-family="Helvetica,sans-Serif" font-size="10.00" fill="#000000">_domains.h</text>
</a>
</g>
</g>
<!-- Node3&#45;&gt;Node16 -->
<g id="edge37" class="edge">
<title>Node3&#45;&gt;Node16</title>
<path fill="none" stroke="#191970" d="M936.665,-255.7085C984.2769,-249.4926 1048.3873,-236.6233 1099.4875,-210 1122.5671,-197.9755 1143.8352,-177.1495 1159.7011,-161.0653"/>
<polygon fill="#191970" stroke="#191970" points="1162.5193,-163.1915 1167.0402,-153.6096 1157.5307,-158.2809 1162.5193,-163.1915"/>
</g>
<!-- Node17 -->
<g id="node18" class="node">
<title>Node17</title>
<g id="a_node18"><a xlink:href="utils_2structures_8h.html" target="_top" xlink:title="Various utility&#45; and helper&#45;functions for secondary structure parsing, converting, etc. ">
<polygon fill="none" stroke="#000000" points="1186.4875,-62 1186.4875,-81 1330.4875,-81 1330.4875,-62 1186.4875,-62"/>
<text text-anchor="middle" x="1258.4875" y="-69" font-family="Helvetica,sans-Serif" font-size="10.00" fill="#000000">ViennaRNA/utils/structures.h</text>
</a>
</g>
</g>
<!-- Node3&#45;&gt;Node17 -->
<g id="edge38" class="edge">
<title>Node3&#45;&gt;Node17</title>
<path fill="none" stroke="#191970" d="M936.7444,-253.5193C991.7591,-246.0655 1070.9071,-232.6091 1137.4875,-210 1189.4338,-192.3603 1218.2506,-200.4197 1247.4875,-154 1259.3189,-135.2151 1257.5603,-108.9451 1256.3245,-91.1334"/>
<polygon fill="#191970" stroke="#191970" points="1259.8128,-90.8278 1255.7421,-81.0462 1252.8244,-91.2314 1259.8128,-90.8278"/>
</g>
<!-- Node5 -->
<g id="node6" class="node">
<title>Node5</title>
<polygon fill="none" stroke="#bfbfbf" points="560.4875,-.5 560.4875,-19.5 608.4875,-19.5 608.4875,-.5 560.4875,-.5"/>
<text text-anchor="middle" x="584.4875" y="-7.5" font-family="Helvetica,sans-Serif" font-size="10.00" fill="#000000">limits.h</text>
</g>
<!-- Node4&#45;&gt;Node5 -->
<g id="edge5" class="edge">
<title>Node4&#45;&gt;Node5</title>
<path fill="none" stroke="#191970" d="M584.4875,-61.8906C584.4875,-53.3657 584.4875,-40.6392 584.4875,-29.9235"/>
<polygon fill="#191970" stroke="#191970" points="587.9876,-29.7448 584.4875,-19.7449 580.9876,-29.7449 587.9876,-29.7448"/>
</g>
<!-- Node6&#45;&gt;Node7 -->
<g id="edge7" class="edge">
<title>Node6&#45;&gt;Node7</title>
<path fill="none" stroke="#191970" d="M542.924,-190.3405C528.5568,-181.291 506.7469,-167.2154 488.4875,-154 470.5504,-141.0179 469.3825,-132.719 449.4875,-123 402.0758,-99.8386 343.5163,-86.6574 299.805,-79.4407"/>
<polygon fill="#191970" stroke="#191970" points="300.2985,-75.9753 289.8729,-77.8609 299.1989,-82.8884 300.2985,-75.9753"/>
</g>
<!-- Node6&#45;&gt;Node8 -->
<g id="edge8" class="edge">
<title>Node6&#45;&gt;Node8</title>
<path fill="none" stroke="#191970" d="M507.0496,-190.4545C457.65,-181.2513 380.932,-166.8648 314.4875,-154 307.8393,-152.7128 300.8755,-151.3499 293.961,-149.9875"/>
<polygon fill="#191970" stroke="#191970" points="294.3971,-146.5061 283.9082,-148.0007 293.0398,-153.3732 294.3971,-146.5061"/>
</g>
<!-- Node9 -->
<g id="node10" class="node">
<title>Node9</title>
<g id="a_node10"><a xlink:href="sequence_8h.html" target="_top" xlink:title="Functions and data structures related to sequence representations ,. ">
<polygon fill="none" stroke="#000000" points="497.4875,-129 497.4875,-148 619.4875,-148 619.4875,-129 497.4875,-129"/>
<text text-anchor="middle" x="558.4875" y="-136" font-family="Helvetica,sans-Serif" font-size="10.00" fill="#000000">ViennaRNA/sequence.h</text>
</a>
</g>
</g>
<!-- Node6&#45;&gt;Node9 -->
<g id="edge12" class="edge">
<title>Node6&#45;&gt;Node9</title>
<path fill="none" stroke="#191970" d="M558.4875,-190.3906C558.4875,-181.8657 558.4875,-169.1392 558.4875,-158.4235"/>
<polygon fill="#191970" stroke="#191970" points="561.9876,-158.2448 558.4875,-148.2449 554.9876,-158.2449 561.9876,-158.2448"/>
</g>
<!-- Node6&#45;&gt;Node10 -->
<g id="edge13" class="edge">
<title>Node6&#45;&gt;Node10</title>
<path fill="none" stroke="#191970" d="M485.2375,-193.4985C404.8275,-185.9144 272.047,-172.0749 158.4875,-154 151.0901,-152.8226 143.3192,-151.425 135.6864,-149.9586"/>
<polygon fill="#191970" stroke="#191970" points="136.2631,-146.505 125.7749,-148.0039 134.9087,-153.3727 136.2631,-146.505"/>
</g>
<!-- Node6&#45;&gt;Node11 -->
<g id="edge15" class="edge">
<title>Node6&#45;&gt;Node11</title>
<path fill="none" stroke="#191970" d="M606.74,-190.4581C658.5119,-180.2203 741.2079,-163.8672 799.9875,-152.2436"/>
<polygon fill="#191970" stroke="#191970" points="800.8072,-155.6493 809.9382,-150.2758 799.4492,-148.7823 800.8072,-155.6493"/>
</g>
<!-- Node6&#45;&gt;Node13 -->
<g id="edge19" class="edge">
<title>Node6&#45;&gt;Node13</title>
<path fill="none" stroke="#191970" d="M631.8152,-193.2991C706.1486,-186.0077 824.6456,-173.0198 936.6037,-154.0449"/>
<polygon fill="#191970" stroke="#191970" points="937.4566,-157.4498 946.7215,-152.3105 936.2739,-150.5505 937.4566,-157.4498"/>
</g>
<!-- Node6&#45;&gt;Node14 -->
<g id="edge22" class="edge">
<title>Node6&#45;&gt;Node14</title>
<path fill="none" stroke="#191970" d="M525.925,-190.3906C494.0552,-179.9652 446.0417,-163.2559 414.4014,-151.6252"/>
<polygon fill="#191970" stroke="#191970" points="415.3381,-148.2397 404.7451,-148.0419 412.9027,-154.8024 415.3381,-148.2397"/>
</g>
<!-- Node6&#45;&gt;Node15 -->
<g id="edge24" class="edge">
<title>Node6&#45;&gt;Node15</title>
<path fill="none" stroke="#191970" d="M579.8937,-190.3906C599.2934,-181.682 628.4604,-168.5888 652.6418,-157.7336"/>
<polygon fill="#191970" stroke="#191970" points="654.2839,-160.833 661.9735,-153.5446 651.4172,-154.447 654.2839,-160.833"/>
</g>
<!-- Node6&#45;&gt;Node16 -->
<g id="edge25" class="edge">
<title>Node6&#45;&gt;Node16</title>
<path fill="none" stroke="#191970" d="M631.6642,-194.6308C731.7792,-187.0217 916.9965,-172.0046 1074.4875,-154 1086.8433,-152.5875 1099.9484,-150.9141 1112.6584,-149.1982"/>
<polygon fill="#191970" stroke="#191970" points="1113.3123,-152.6414 1122.7451,-147.8171 1112.3627,-145.7061 1113.3123,-152.6414"/>
</g>
<!-- Node8&#45;&gt;Node3 -->
<g id="edge10" class="edge">
<title>Node8&#45;&gt;Node3</title>
<path fill="none" stroke="#191970" d="M264.0866,-148.0766C304.3093,-163.6306 380.8013,-194.2285 448.4875,-210 566.8756,-237.5855 707.2366,-250.8688 792.329,-256.9124"/>
<polygon fill="#191970" stroke="#191970" points="792.2084,-260.4124 802.427,-257.614 792.6937,-253.4292 792.2084,-260.4124"/>
</g>
<!-- Node8&#45;&gt;Node4 -->
<g id="edge9" class="edge">
<title>Node8&#45;&gt;Node4</title>
<path fill="none" stroke="#191970" d="M284.3263,-128.9332C294.2913,-126.9573 304.7301,-124.9 314.4875,-123 386.3636,-109.0038 469.0823,-93.283 523.8206,-82.9337"/>
<polygon fill="#191970" stroke="#191970" points="524.5308,-86.3616 533.7069,-81.0654 523.2309,-79.4833 524.5308,-86.3616"/>
</g>
<!-- Node8&#45;&gt;Node7 -->
<g id="edge11" class="edge">
<title>Node8&#45;&gt;Node7</title>
<path fill="none" stroke="#191970" d="M236.4875,-128.9005C236.4875,-119.149 236.4875,-103.7597 236.4875,-91.3695"/>
<polygon fill="#191970" stroke="#191970" points="239.9876,-91.0816 236.4875,-81.0817 232.9876,-91.0817 239.9876,-91.0816"/>
</g>
<!-- Node10&#45;&gt;Node3 -->
<g id="edge14" class="edge">
<title>Node10&#45;&gt;Node3</title>
<path fill="none" stroke="#191970" d="M119.7971,-148.0533C175.5135,-163.4343 283.2885,-193.616 376.4875,-210 522.5369,-235.6749 694.9072,-249.9119 792.3466,-256.6121"/>
<polygon fill="#191970" stroke="#191970" points="792.1913,-260.1095 802.4056,-257.2953 792.6657,-253.1256 792.1913,-260.1095"/>
</g>
<!-- Node11&#45;&gt;Node3 -->
<g id="edge16" class="edge">
<title>Node11&#45;&gt;Node3</title>
<path fill="none" stroke="#191970" d="M874.1165,-153.7056C876.5842,-174.3355 876.8986,-211.4615 875.0596,-236.2943"/>
<polygon fill="#191970" stroke="#191970" points="871.5594,-236.1325 874.1017,-246.4178 878.5282,-236.792 871.5594,-236.1325"/>
</g>
<!-- Node12 -->
<g id="node13" class="node">
<title>Node12</title>
<g id="a_node13"><a xlink:href="constraints_2basic_8h.html" target="_top" xlink:title="Functions and data structures for constraining secondary structure predictions and evaluation...">
<polygon fill="none" stroke="#000000" points="946.9875,-56.5 946.9875,-86.5 1065.9875,-86.5 1065.9875,-56.5 946.9875,-56.5"/>
<text text-anchor="start" x="954.9875" y="-74.5" font-family="Helvetica,sans-Serif" font-size="10.00" fill="#000000">ViennaRNA/constraints</text>
<text text-anchor="middle" x="1006.4875" y="-63.5" font-family="Helvetica,sans-Serif" font-size="10.00" fill="#000000">/basic.h</text>
</a>
</g>
</g>
<!-- Node11&#45;&gt;Node12 -->
<g id="edge17" class="edge">
<title>Node11&#45;&gt;Node12</title>
<path fill="none" stroke="#191970" d="M900.233,-123.4639C919.7498,-113.9191 945.2132,-101.4663 966.32,-91.144"/>
<polygon fill="#191970" stroke="#191970" points="967.925,-94.2552 975.3706,-86.7177 964.8497,-87.9669 967.925,-94.2552"/>
</g>
<!-- Node12&#45;&gt;Node3 -->
<g id="edge18" class="edge">
<title>Node12&#45;&gt;Node3</title>
<path fill="none" stroke="#191970" d="M1037.6829,-86.6198C1051.654,-95.1874 1066.7092,-107.3517 1074.4875,-123 1080.6202,-135.3376 1081.6173,-142.2105 1074.4875,-154 1046.4325,-200.3902 991.0178,-227.7404 944.8697,-243.2351"/>
<polygon fill="#191970" stroke="#191970" points="943.6174,-239.9615 935.176,-246.3642 945.7677,-246.623 943.6174,-239.9615"/>
</g>
<!-- Node13&#45;&gt;Node3 -->
<g id="edge20" class="edge">
<title>Node13&#45;&gt;Node3</title>
<path fill="none" stroke="#191970" d="M994.1803,-153.7056C972.6582,-175.3531 928.534,-215.1643 898.8571,-239.8759"/>
<polygon fill="#191970" stroke="#191970" points="896.4021,-237.3633 890.9006,-246.4178 900.8478,-242.7703 896.4021,-237.3633"/>
</g>
<!-- Node13&#45;&gt;Node12 -->
<g id="edge21" class="edge">
<title>Node13&#45;&gt;Node12</title>
<path fill="none" stroke="#191970" d="M1006.4875,-123.2967C1006.4875,-115.5013 1006.4875,-105.7991 1006.4875,-96.9064"/>
<polygon fill="#191970" stroke="#191970" points="1009.9876,-96.6431 1006.4875,-86.6432 1002.9876,-96.6432 1009.9876,-96.6431"/>
</g>
<!-- Node14&#45;&gt;Node6 -->
<g id="edge23" class="edge">
<title>Node14&#45;&gt;Node6</title>
<path fill="none" stroke="#191970" d="M414.8437,-148.0419C446.6435,-158.4402 494.6574,-175.1468 526.3683,-186.7993"/>
<polygon fill="#191970" stroke="#191970" points="525.457,-190.1943 536.05,-190.3906 527.8915,-183.6312 525.457,-190.1943"/>
</g>
<!-- Node16&#45;&gt;Node3 -->
<g id="edge26" class="edge">
<title>Node16&#45;&gt;Node3</title>
<path fill="none" stroke="#191970" d="M1180.1325,-153.6096C1168.7471,-170.0981 1144.3438,-196.0078 1117.4875,-210 1064.5522,-237.5793 997.6555,-250.3992 946.6171,-256.3527"/>
<polygon fill="#191970" stroke="#191970" points="946.1858,-252.879 936.6297,-257.4542 946.9532,-259.8368 946.1858,-252.879"/>
</g>
<!-- Node16&#45;&gt;Node17 -->
<g id="edge27" class="edge">
<title>Node16&#45;&gt;Node17</title>
<path fill="none" stroke="#191970" d="M1202.0523,-123.2967C1213.5365,-112.7564 1228.8187,-98.7303 1240.5837,-87.9323"/>
<polygon fill="#191970" stroke="#191970" points="1243.0761,-90.3954 1248.0768,-81.055 1238.3428,-85.2382 1243.0761,-90.3954"/>
</g>
<!-- Node17&#45;&gt;Node2 -->
<g id="edge28" class="edge">
<title>Node17&#45;&gt;Node2</title>
<path fill="none" stroke="#191970" d="M1274.1125,-61.8906C1290.2572,-51.9616 1315.6697,-36.333 1334.3898,-24.8201"/>
<polygon fill="#191970" stroke="#191970" points="1336.2877,-27.7619 1342.9722,-19.5419 1332.6206,-21.7992 1336.2877,-27.7619"/>
</g>
<!-- Node17&#45;&gt;Node3 -->
<g id="edge29" class="edge">
<title>Node17&#45;&gt;Node3</title>
<path fill="none" stroke="#191970" d="M1266.6131,-81.0462C1274.192,-97.3994 1279.8422,-131.2089 1265.4875,-154 1236.2506,-200.4197 1207.4338,-192.3603 1155.4875,-210 1086.9658,-233.2683 1005.1329,-246.8424 946.5207,-254.156"/>
<polygon fill="#191970" stroke="#191970" points="946.0931,-250.6821 936.5885,-255.3632 946.9377,-257.631 946.0931,-250.6821"/>
</g>
<!-- Node18&#45;&gt;Node2 -->
<g id="edge40" class="edge">
<title>Node18&#45;&gt;Node2</title>
<path fill="none" stroke="#191970" d="M1447.6878,-246.1461C1431.1713,-202.4208 1383.9089,-77.2999 1365.732,-29.1789"/>
<polygon fill="#191970" stroke="#191970" points="1368.9407,-27.7685 1362.1328,-19.6505 1362.3923,-30.2421 1368.9407,-27.7685"/>
</g>
</g>
</svg>
        <g id="navigator" transform="translate(0 0)" fill="#404254">
                <rect fill="#f2f5e9" fill-opacity="0.5" stroke="#606060" stroke-width=".5" x="0" y="0" width="60" height="60"/>
                <use id="zoomplus" xlink:href="#zoomPlus" x="17" y="9" onmousedown="handleZoom(evt,'in')"/>
                <use id="zoomminus" xlink:href="#zoomMin" x="42" y="9" onmousedown="handleZoom(evt,'out')"/>
                <use id="reset" xlink:href="#resetDef" x="30" y="36" onmousedown="handleReset()"/>
                <g id="arrowUp" xlink:href="#dirArrow" transform="translate(30 24)" onmousedown="handlePan(0,-1)">
                  <use xlink:href="#rim" fill="#404040">
                        <set attributeName="fill" to="#808080" begin="arrowUp.mouseover" end="arrowUp.mouseout"/>
                  </use>
                  <path fill="none" stroke="white" stroke-width="1.5" d="M0,-3.0v7 M-2.5,-0.5L0,-3.0L2.5,-0.5"/>
                </g>
                <g id="arrowRight" xlink:href="#dirArrow" transform="rotate(90) translate(36 -43)" onmousedown="handlePan(1,0)">
                  <use xlink:href="#rim" fill="#404040">
                        <set attributeName="fill" to="#808080" begin="arrowRight.mouseover" end="arrowRight.mouseout"/>
                  </use>
                  <path fill="none" stroke="white" stroke-width="1.5" d="M0,-3.0v7 M-2.5,-0.5L0,-3.0L2.5,-0.5"/>
                </g>
                <g id="arrowDown" xlink:href="#dirArrow" transform="rotate(180) translate(-30 -48)" onmousedown="handlePan(0,1)">
                  <use xlink:href="#rim" fill="#404040">
                        <set attributeName="fill" to="#808080" begin="arrowDown.mouseover" end="arrowDown.mouseout"/>
                  </use>
                  <path fill="none" stroke="white" stroke-width="1.5" d="M0,-3.0v7 M-2.5,-0.5L0,-3.0L2.5,-0.5"/>
                </g>
                <g id="arrowLeft" xlink:href="#dirArrow" transform="rotate(270) translate(-36 17)" onmousedown="handlePan(-1,0)">
                  <use xlink:href="#rim" fill="#404040">
                        <set attributeName="fill" to="#808080" begin="arrowLeft.mouseover" end="arrowLeft.mouseout"/>
                  </use>
                  <path fill="none" stroke="white" stroke-width="1.5" d="M0,-3.0v7 M-2.5,-0.5L0,-3.0L2.5,-0.5"/>
                </g>
        </g>
        <svg viewBox="0 0 15 15" width="100%" height="30px" preserveAspectRatio="xMaxYMin meet">
         <g id="arrow_out" transform="scale(0.3 0.3)">
          <a xlink:href="file__formats_8h__incl_org.svg" target="_base">
           <rect id="button" ry="5" rx="5" y="6" x="6" height="38" width="38"
                fill="#f2f5e9" fill-opacity="0.5" stroke="#606060" stroke-width="1.0"/>
           <path id="arrow"
             d="M 11.500037,31.436501 C 11.940474,20.09759 22.043105,11.32322 32.158766,21.979434 L 37.068811,17.246167 C 37.068811,17.246167 37.088388,32 37.088388,32 L 22.160133,31.978069 C 22.160133,31.978069 26.997745,27.140456 26.997745,27.140456 C 18.528582,18.264221 13.291696,25.230495 11.500037,31.436501 z"
             style="fill:#404040;"/>
          </a>
         </g>
        </svg>
</svg>
