<?xml version="1.0" encoding="UTF-8" standalone="no"?>
<!DOCTYPE svg PUBLIC "-//W3C//DTD SVG 1.1//EN"
 "http://www.w3.org/Graphics/SVG/1.1/DTD/svg11.dtd">
<!-- Generated by graphviz version 2.40.1 (20161225.0304)
 -->
<!-- Title: ViennaRNA/grammar.h Pages: 1 -->
<!--zoomable 397 -->
<svg id="main" version="1.1" xmlns="http://www.w3.org/2000/svg" xmlns:xlink="http://www.w3.org/1999/xlink" xml:space="preserve" onload="init(evt)">
<style type="text/css"><![CDATA[
.edge:hover path { stroke: red; }
.edge:hover polygon { stroke: red; fill: red; }
]]></style>
<script type="text/javascript"><![CDATA[
var edges = document.getElementsByTagName('g');
if (edges && edges.length) {
  for (var i=0;i<edges.length;i++) {
    if (edges[i].id.substr(0,4)=='edge') {
      edges[i].setAttribute('class','edge');
    }
  }
}
]]></script>
        <defs>
                <circle id="rim" cx="0" cy="0" r="7"/>
                <circle id="rim2" cx="0" cy="0" r="3.5"/>
                <g id="zoomPlus">
                        <use xlink:href="#rim" fill="#404040">
                                <set attributeName="fill" to="#808080" begin="zoomplus.mouseover" end="zoomplus.mouseout"/>
                        </use>
                        <path d="M-4,0h8M0,-4v8" fill="none" stroke="white" stroke-width="1.5" pointer-events="none"/>
                </g>
                <g id="zoomMin">
                        <use xlink:href="#rim" fill="#404040">
                                <set attributeName="fill" to="#808080" begin="zoomminus.mouseover" end="zoomminus.mouseout"/>
                        </use>
                        <path d="M-4,0h8" fill="none" stroke="white" stroke-width="1.5" pointer-events="none"/>
                </g>
                <g id="dirArrow">
                        <path fill="none" stroke="white" stroke-width="1.5" d="M0,-3.0v7 M-2.5,-0.5L0,-3.0L2.5,-0.5"/>
                </g>
               <g id="resetDef">
                       <use xlink:href="#rim2" fill="#404040">
                               <set attributeName="fill" to="#808080" begin="reset.mouseover" end="reset.mouseout"/>
                       </use>
               </g>
        </defs>

<script type="text/javascript">
var viewWidth = 1087;
var viewHeight = 397;
var sectionId = 'dynsection-0';
</script>
<script xlink:href="svgpan.js"/>
<svg id="graph" class="graph">
<g id="viewport">
<title>ViennaRNA/grammar.h</title>
<!-- Node0 -->
<g id="node1" class="node">
<title>Node0</title>
<polygon fill="#bfbfbf" stroke="#000000" points="581.5,-369.5 581.5,-388.5 698.5,-388.5 698.5,-369.5 581.5,-369.5"/>
<text text-anchor="middle" x="640" y="-376.5" font-family="Helvetica,sans-Serif" font-size="10.00" fill="#000000">ViennaRNA/grammar.h</text>
</g>
<!-- Node1 -->
<g id="node2" class="node">
<title>Node1</title>
<g id="a_node2"><a xlink:href="fold__compound_8h.html" target="_top" xlink:title="The Basic Fold Compound API. ">
<polygon fill="none" stroke="#000000" points="567,-313.5 567,-332.5 713,-332.5 713,-313.5 567,-313.5"/>
<text text-anchor="middle" x="640" y="-320.5" font-family="Helvetica,sans-Serif" font-size="10.00" fill="#000000">ViennaRNA/fold_compound.h</text>
</a>
</g>
</g>
<!-- Node0&#45;&gt;Node1 -->
<g id="edge1" class="edge">
<title>Node0&#45;&gt;Node1</title>
<path fill="none" stroke="#191970" d="M634.7332,-369.2455C633.3221,-361.9382 632.9179,-351.6944 633.5205,-342.7046"/>
<polygon fill="#191970" stroke="#191970" points="637.0111,-342.9945 634.7549,-332.6427 630.0632,-342.1421 637.0111,-342.9945"/>
</g>
<!-- Node1&#45;&gt;Node0 -->
<g id="edge33" class="edge">
<title>Node1&#45;&gt;Node0</title>
<path fill="none" stroke="#191970" d="M645.2451,-332.6427C646.6665,-339.9199 647.081,-350.155 646.4887,-359.1575"/>
<polygon fill="#191970" stroke="#191970" points="642.9947,-358.8972 645.2668,-369.2455 649.9439,-359.739 642.9947,-358.8972"/>
</g>
<!-- Node2 -->
<g id="node3" class="node">
<title>Node2</title>
<g id="a_node3"><a xlink:href="model_8h.html" target="_top" xlink:title="The model details data structure and its corresponding modifiers. ">
<polygon fill="none" stroke="#000000" points="0,-129 0,-148 106,-148 106,-129 0,-129"/>
<text text-anchor="middle" x="53" y="-136" font-family="Helvetica,sans-Serif" font-size="10.00" fill="#000000">ViennaRNA/model.h</text>
</a>
</g>
</g>
<!-- Node1&#45;&gt;Node2 -->
<g id="edge2" class="edge">
<title>Node1&#45;&gt;Node2</title>
<path fill="none" stroke="#191970" d="M566.7532,-316.0182C507.1158,-309.2509 421.135,-297.0168 348,-277 282.9637,-259.1998 268.1505,-249.4109 207,-221 160.5851,-199.4353 108.451,-170.4559 78.3024,-153.2053"/>
<polygon fill="#191970" stroke="#191970" points="79.7353,-149.9919 69.3216,-148.0409 76.2457,-156.0601 79.7353,-149.9919"/>
</g>
<!-- Node3 -->
<g id="node4" class="node">
<title>Node3</title>
<g id="a_node4"><a xlink:href="params_2basic_8h.html" target="_top" xlink:title="Functions to deal with sets of energy parameters. ">
<polygon fill="none" stroke="#000000" points="373,-257.5 373,-276.5 511,-276.5 511,-257.5 373,-257.5"/>
<text text-anchor="middle" x="442" y="-264.5" font-family="Helvetica,sans-Serif" font-size="10.00" fill="#000000">ViennaRNA/params/basic.h</text>
</a>
</g>
</g>
<!-- Node1&#45;&gt;Node3 -->
<g id="edge3" class="edge">
<title>Node1&#45;&gt;Node3</title>
<path fill="none" stroke="#191970" d="M605.9626,-313.3733C572.6106,-303.9404 521.6473,-289.5265 485.3998,-279.2747"/>
<polygon fill="#191970" stroke="#191970" points="486.1684,-275.8548 475.5933,-276.5011 484.2632,-282.5906 486.1684,-275.8548"/>
</g>
<!-- Node7 -->
<g id="node8" class="node">
<title>Node7</title>
<g id="a_node8"><a xlink:href="dp__matrices_8h.html" target="_top" xlink:title="Functions to deal with standard dynamic programming (DP) matrices. ">
<polygon fill="none" stroke="#000000" points="538.5,-129 538.5,-148 671.5,-148 671.5,-129 538.5,-129"/>
<text text-anchor="middle" x="605" y="-136" font-family="Helvetica,sans-Serif" font-size="10.00" fill="#000000">ViennaRNA/dp_matrices.h</text>
</a>
</g>
</g>
<!-- Node1&#45;&gt;Node7 -->
<g id="edge30" class="edge">
<title>Node1&#45;&gt;Node7</title>
<path fill="none" stroke="#191970" d="M638.1675,-313.3402C632.651,-284.26 616.1234,-197.136 608.6914,-157.959"/>
<polygon fill="#191970" stroke="#191970" points="612.1169,-157.2366 606.8143,-148.0641 605.2395,-158.5413 612.1169,-157.2366"/>
</g>
<!-- Node8 -->
<g id="node9" class="node">
<title>Node8</title>
<g id="a_node9"><a xlink:href="hard_8h.html" target="_top" xlink:title="Functions and data structures for handling of secondary structure hard constraints. ">
<polygon fill="none" stroke="#000000" points="689.5,-123.5 689.5,-153.5 808.5,-153.5 808.5,-123.5 689.5,-123.5"/>
<text text-anchor="start" x="697.5" y="-141.5" font-family="Helvetica,sans-Serif" font-size="10.00" fill="#000000">ViennaRNA/constraints</text>
<text text-anchor="middle" x="749" y="-130.5" font-family="Helvetica,sans-Serif" font-size="10.00" fill="#000000">/hard.h</text>
</a>
</g>
</g>
<!-- Node1&#45;&gt;Node8 -->
<g id="edge31" class="edge">
<title>Node1&#45;&gt;Node8</title>
<path fill="none" stroke="#191970" d="M640.5139,-313.3841C642.1836,-290.1355 649.1037,-229.8615 677,-190 685.5798,-177.7401 698.0486,-167.3562 710.2069,-159.1947"/>
<polygon fill="#191970" stroke="#191970" points="712.377,-161.9628 718.9451,-153.6496 708.6263,-156.0524 712.377,-161.9628"/>
</g>
<!-- Node10 -->
<g id="node11" class="node">
<title>Node10</title>
<g id="a_node11"><a xlink:href="soft_8h.html" target="_top" xlink:title="Functions and data structures for secondary structure soft constraints. ">
<polygon fill="none" stroke="#000000" points="826.5,-123.5 826.5,-153.5 945.5,-153.5 945.5,-123.5 826.5,-123.5"/>
<text text-anchor="start" x="834.5" y="-141.5" font-family="Helvetica,sans-Serif" font-size="10.00" fill="#000000">ViennaRNA/constraints</text>
<text text-anchor="middle" x="886" y="-130.5" font-family="Helvetica,sans-Serif" font-size="10.00" fill="#000000">/soft.h</text>
</a>
</g>
</g>
<!-- Node1&#45;&gt;Node10 -->
<g id="edge32" class="edge">
<title>Node1&#45;&gt;Node10</title>
<path fill="none" stroke="#191970" d="M649.5078,-313.0694C662.5619,-299.6664 687.0365,-275.3537 710,-257 757.0845,-219.3675 815.8845,-181.4287 852.186,-158.9506"/>
<polygon fill="#191970" stroke="#191970" points="854.2299,-161.8024 860.9096,-153.5785 850.5593,-155.8419 854.2299,-161.8024"/>
</g>
<!-- Node11 -->
<g id="node12" class="node">
<title>Node11</title>
<g id="a_node12"><a xlink:href="structured__domains_8h.html" target="_top" xlink:title="This module provides interfaces that deal with additional structured domains in the folding grammar...">
<polygon fill="none" stroke="#000000" points="963.5,-123.5 963.5,-153.5 1078.5,-153.5 1078.5,-123.5 963.5,-123.5"/>
<text text-anchor="start" x="971.5" y="-141.5" font-family="Helvetica,sans-Serif" font-size="10.00" fill="#000000">ViennaRNA/structured</text>
<text text-anchor="middle" x="1021" y="-130.5" font-family="Helvetica,sans-Serif" font-size="10.00" fill="#000000">_domains.h</text>
</a>
</g>
</g>
<!-- Node1&#45;&gt;Node11 -->
<g id="edge34" class="edge">
<title>Node1&#45;&gt;Node11</title>
<path fill="none" stroke="#191970" d="M713.1988,-315.4525C754.8557,-309.1125 807.1138,-297.6217 850,-277 911.2586,-247.544 969.9659,-192.1319 1000.0781,-161.0713"/>
<polygon fill="#191970" stroke="#191970" points="1002.7179,-163.3752 1007.1018,-153.7299 997.6598,-158.5361 1002.7179,-163.3752"/>
</g>
<!-- Node12 -->
<g id="node13" class="node">
<title>Node12</title>
<g id="a_node13"><a xlink:href="unstructured__domains_8h.html" target="_top" xlink:title="Functions to modify unstructured domains, e.g. to incorporate ligands binding to unpaired stretches...">
<polygon fill="none" stroke="#000000" points="300.5,-123.5 300.5,-153.5 425.5,-153.5 425.5,-123.5 300.5,-123.5"/>
<text text-anchor="start" x="308.5" y="-141.5" font-family="Helvetica,sans-Serif" font-size="10.00" fill="#000000">ViennaRNA/unstructured</text>
<text text-anchor="middle" x="363" y="-130.5" font-family="Helvetica,sans-Serif" font-size="10.00" fill="#000000">_domains.h</text>
</a>
</g>
</g>
<!-- Node1&#45;&gt;Node12 -->
<g id="edge35" class="edge">
<title>Node1&#45;&gt;Node12</title>
<path fill="none" stroke="#191970" d="M566.8487,-315.6658C489.5893,-307.1687 377.1059,-292.3582 364,-277 337.192,-245.5849 345.9048,-193.983 354.5431,-163.4209"/>
<polygon fill="#191970" stroke="#191970" points="357.9821,-164.1413 357.5371,-153.5558 351.2837,-162.1083 357.9821,-164.1413"/>
</g>
<!-- Node15 -->
<g id="node16" class="node">
<title>Node15</title>
<g id="a_node16"><a xlink:href="sequence_8h.html" target="_top" xlink:title="Functions and data structures related to sequence representations ,. ">
<polygon fill="none" stroke="#000000" points="719,-257.5 719,-276.5 841,-276.5 841,-257.5 719,-257.5"/>
<text text-anchor="middle" x="780" y="-264.5" font-family="Helvetica,sans-Serif" font-size="10.00" fill="#000000">ViennaRNA/sequence.h</text>
</a>
</g>
</g>
<!-- Node1&#45;&gt;Node15 -->
<g id="edge29" class="edge">
<title>Node1&#45;&gt;Node15</title>
<path fill="none" stroke="#191970" d="M664.0669,-313.3733C686.8428,-304.2629 721.2344,-290.5062 746.649,-280.3404"/>
<polygon fill="#191970" stroke="#191970" points="748.2623,-283.4648 756.2472,-276.5011 745.6625,-276.9654 748.2623,-283.4648"/>
</g>
<!-- Node3&#45;&gt;Node2 -->
<g id="edge28" class="edge">
<title>Node3&#45;&gt;Node2</title>
<path fill="none" stroke="#191970" d="M411.6153,-257.4452C382.4412,-248.2354 337.1509,-233.8442 298,-221 224.3454,-196.8363 138.5574,-167.7255 90.5338,-151.3416"/>
<polygon fill="#191970" stroke="#191970" points="91.4718,-147.9636 80.8772,-148.045 89.2102,-154.5882 91.4718,-147.9636"/>
</g>
<!-- Node4 -->
<g id="node5" class="node">
<title>Node4</title>
<g id="a_node5"><a xlink:href="constants_8h.html" target="_top" xlink:title="Energy parameter constants. ">
<polygon fill="none" stroke="#000000" points="124,-129 124,-148 282,-148 282,-129 124,-129"/>
<text text-anchor="middle" x="203" y="-136" font-family="Helvetica,sans-Serif" font-size="10.00" fill="#000000">ViennaRNA/params/constants.h</text>
</a>
</g>
</g>
<!-- Node3&#45;&gt;Node4 -->
<g id="edge4" class="edge">
<title>Node3&#45;&gt;Node4</title>
<path fill="none" stroke="#191970" d="M424.0362,-257.3416C382.4106,-234.9613 279.1631,-179.4496 229.9369,-152.9828"/>
<polygon fill="#191970" stroke="#191970" points="231.3114,-149.748 220.8463,-148.0952 227.9965,-155.9134 231.3114,-149.748"/>
</g>
<!-- Node6 -->
<g id="node7" class="node">
<title>Node6</title>
<g id="a_node7"><a xlink:href="datastructures_2basic_8h.html" target="_top" xlink:title="Various data structures and pre&#45;processor macros. ">
<polygon fill="none" stroke="#000000" points="443,-190.5 443,-220.5 577,-220.5 577,-190.5 443,-190.5"/>
<text text-anchor="start" x="451" y="-208.5" font-family="Helvetica,sans-Serif" font-size="10.00" fill="#000000">ViennaRNA/datastructures</text>
<text text-anchor="middle" x="510" y="-197.5" font-family="Helvetica,sans-Serif" font-size="10.00" fill="#000000">/basic.h</text>
</a>
</g>
</g>
<!-- Node3&#45;&gt;Node6 -->
<g id="edge6" class="edge">
<title>Node3&#45;&gt;Node6</title>
<path fill="none" stroke="#191970" d="M447.5625,-257.3906C454.9309,-249.2986 467.5932,-237.4207 479.6745,-227.0705"/>
<polygon fill="#191970" stroke="#191970" points="482.048,-229.648 487.4682,-220.5446 477.5541,-224.281 482.048,-229.648"/>
</g>
<!-- Node5 -->
<g id="node6" class="node">
<title>Node5</title>
<polygon fill="none" stroke="#bfbfbf" points="179,-62 179,-81 227,-81 227,-62 179,-62"/>
<text text-anchor="middle" x="203" y="-69" font-family="Helvetica,sans-Serif" font-size="10.00" fill="#000000">limits.h</text>
</g>
<!-- Node4&#45;&gt;Node5 -->
<g id="edge5" class="edge">
<title>Node4&#45;&gt;Node5</title>
<path fill="none" stroke="#191970" d="M203,-128.9005C203,-119.149 203,-103.7597 203,-91.3695"/>
<polygon fill="#191970" stroke="#191970" points="206.5001,-91.0816 203,-81.0817 199.5001,-91.0817 206.5001,-91.0816"/>
</g>
<!-- Node6&#45;&gt;Node0 -->
<g id="edge20" class="edge">
<title>Node6&#45;&gt;Node0</title>
<path fill="none" stroke="#191970" d="M512.2272,-220.5699C516.7187,-246.3211 529.0219,-299.2733 558,-333 570.0687,-347.0465 587.5456,-357.6774 603.2666,-365.1615"/>
<polygon fill="#191970" stroke="#191970" points="602.2073,-368.522 612.7643,-369.4171 605.0696,-362.134 602.2073,-368.522"/>
</g>
<!-- Node6&#45;&gt;Node1 -->
<g id="edge8" class="edge">
<title>Node6&#45;&gt;Node1</title>
<path fill="none" stroke="#191970" d="M526.8329,-220.7143C551.3604,-242.8835 596.7373,-283.8972 621.9398,-306.6764"/>
<polygon fill="#191970" stroke="#191970" points="619.5959,-309.2756 629.3616,-313.3845 624.2897,-304.0825 619.5959,-309.2756"/>
</g>
<!-- Node6&#45;&gt;Node2 -->
<g id="edge9" class="edge">
<title>Node6&#45;&gt;Node2</title>
<path fill="none" stroke="#191970" d="M442.8822,-199.1329C363.9914,-191.0996 229.321,-175.6679 115,-154 109.5495,-152.9669 103.8629,-151.7461 98.2405,-150.4503"/>
<polygon fill="#191970" stroke="#191970" points="98.7941,-146.9841 88.2542,-148.0612 97.1654,-153.792 98.7941,-146.9841"/>
</g>
<!-- Node6&#45;&gt;Node3 -->
<g id="edge10" class="edge">
<title>Node6&#45;&gt;Node3</title>
<path fill="none" stroke="#191970" d="M499.2624,-220.5446C490.1397,-229.7911 477.0872,-241.6276 465.6504,-251.0385"/>
<polygon fill="#191970" stroke="#191970" points="463.3223,-248.4184 457.6875,-257.3906 467.6875,-253.8906 463.3223,-248.4184"/>
</g>
<!-- Node6&#45;&gt;Node4 -->
<g id="edge7" class="edge">
<title>Node6&#45;&gt;Node4</title>
<path fill="none" stroke="#191970" d="M442.6275,-190.7966C386.6976,-178.5903 308.2121,-161.4616 256.5132,-150.1788"/>
<polygon fill="#191970" stroke="#191970" points="257.0615,-146.7161 246.5452,-148.0033 255.5689,-153.5552 257.0615,-146.7161"/>
</g>
<!-- Node6&#45;&gt;Node7 -->
<g id="edge11" class="edge">
<title>Node6&#45;&gt;Node7</title>
<path fill="none" stroke="#191970" d="M525.7962,-190.2967C539.9971,-179.351 560.8473,-164.6462 577.6857,-153.701"/>
<polygon fill="#191970" stroke="#191970" points="580.0016,-156.376 586.56,-148.055 576.244,-150.47 580.0016,-156.376"/>
</g>
<!-- Node6&#45;&gt;Node8 -->
<g id="edge13" class="edge">
<title>Node6&#45;&gt;Node8</title>
<path fill="none" stroke="#191970" d="M557.8957,-190.4639C592.8168,-180.3272 640.5777,-166.9104 679.6484,-156.2491"/>
<polygon fill="#191970" stroke="#191970" points="680.6506,-159.6038 689.3813,-153.6017 678.8132,-152.8492 680.6506,-159.6038"/>
</g>
<!-- Node6&#45;&gt;Node10 -->
<g id="edge17" class="edge">
<title>Node6&#45;&gt;Node10</title>
<path fill="none" stroke="#191970" d="M577.0711,-194.3265C637.8003,-184.6234 729.4836,-169.6965 809,-154 811.4426,-153.5178 813.9316,-153.0131 816.4484,-152.4926"/>
<polygon fill="#191970" stroke="#191970" points="817.1937,-155.9124 826.2542,-150.4207 815.7466,-149.0636 817.1937,-155.9124"/>
</g>
<!-- Node6&#45;&gt;Node11 -->
<g id="edge21" class="edge">
<title>Node6&#45;&gt;Node11</title>
<path fill="none" stroke="#191970" d="M577.0674,-200.1687C662.4266,-192.8414 814.5457,-177.9716 953.5063,-154.1498"/>
<polygon fill="#191970" stroke="#191970" points="954.2326,-157.5762 963.4876,-152.4192 953.0367,-150.6791 954.2326,-157.5762"/>
</g>
<!-- Node6&#45;&gt;Node12 -->
<g id="edge22" class="edge">
<title>Node6&#45;&gt;Node12</title>
<path fill="none" stroke="#191970" d="M471.2698,-190.4639C449.1623,-180.9191 421.6844,-168.4663 399.8913,-158.144"/>
<polygon fill="#191970" stroke="#191970" points="401.1576,-154.8701 390.6256,-153.7177 398.1402,-161.1864 401.1576,-154.8701"/>
</g>
<!-- Node13 -->
<g id="node14" class="node">
<title>Node13</title>
<g id="a_node14"><a xlink:href="utils_2structures_8h.html" target="_top" xlink:title="Various utility&#45; and helper&#45;functions for secondary structure parsing, converting, etc. ">
<polygon fill="none" stroke="#000000" points="391,-62 391,-81 535,-81 535,-62 391,-62"/>
<text text-anchor="middle" x="463" y="-69" font-family="Helvetica,sans-Serif" font-size="10.00" fill="#000000">ViennaRNA/utils/structures.h</text>
</a>
</g>
</g>
<!-- Node6&#45;&gt;Node13 -->
<g id="edge27" class="edge">
<title>Node6&#45;&gt;Node13</title>
<path fill="none" stroke="#191970" d="M500.2365,-190.389C488.782,-165.9649 471.7489,-117.8371 464.8869,-90.9095"/>
<polygon fill="#191970" stroke="#191970" points="468.2893,-90.0867 462.6711,-81.1042 461.4615,-91.6297 468.2893,-90.0867"/>
</g>
<!-- Node7&#45;&gt;Node6 -->
<g id="edge12" class="edge">
<title>Node7&#45;&gt;Node6</title>
<path fill="none" stroke="#191970" d="M596.284,-148.1039C584.6383,-157.616 564.0149,-172.4893 545.7739,-184.7118"/>
<polygon fill="#191970" stroke="#191970" points="543.4777,-182.0337 537.0604,-190.4639 547.3342,-187.8756 543.4777,-182.0337"/>
</g>
<!-- Node8&#45;&gt;Node6 -->
<g id="edge14" class="edge">
<title>Node8&#45;&gt;Node6</title>
<path fill="none" stroke="#191970" d="M700.8783,-153.6017C665.902,-163.7525 618.1323,-177.1704 579.0991,-187.8198"/>
<polygon fill="#191970" stroke="#191970" points="578.1078,-184.4622 569.3768,-190.4639 579.9448,-191.2168 578.1078,-184.4622"/>
</g>
<!-- Node9 -->
<g id="node10" class="node">
<title>Node9</title>
<g id="a_node10"><a xlink:href="constraints_2basic_8h.html" target="_top" xlink:title="Functions and data structures for constraining secondary structure predictions and evaluation...">
<polygon fill="none" stroke="#000000" points="689.5,-56.5 689.5,-86.5 808.5,-86.5 808.5,-56.5 689.5,-56.5"/>
<text text-anchor="start" x="697.5" y="-74.5" font-family="Helvetica,sans-Serif" font-size="10.00" fill="#000000">ViennaRNA/constraints</text>
<text text-anchor="middle" x="749" y="-63.5" font-family="Helvetica,sans-Serif" font-size="10.00" fill="#000000">/basic.h</text>
</a>
</g>
</g>
<!-- Node8&#45;&gt;Node9 -->
<g id="edge15" class="edge">
<title>Node8&#45;&gt;Node9</title>
<path fill="none" stroke="#191970" d="M749,-123.2967C749,-115.5013 749,-105.7991 749,-96.9064"/>
<polygon fill="#191970" stroke="#191970" points="752.5001,-96.6431 749,-86.6432 745.5001,-96.6432 752.5001,-96.6431"/>
</g>
<!-- Node9&#45;&gt;Node6 -->
<g id="edge16" class="edge">
<title>Node9&#45;&gt;Node6</title>
<path fill="none" stroke="#191970" d="M689.3266,-78.4691C632.4248,-86.3233 552.205,-100.9471 530,-123 514.9649,-137.9321 510.5097,-162.1154 509.4928,-180.4478"/>
<polygon fill="#191970" stroke="#191970" points="505.9939,-180.3653 509.2374,-190.4514 512.9916,-180.544 505.9939,-180.3653"/>
</g>
<!-- Node10&#45;&gt;Node6 -->
<g id="edge18" class="edge">
<title>Node10&#45;&gt;Node6</title>
<path fill="none" stroke="#191970" d="M829.1494,-153.5723C828.4294,-153.7167 827.7127,-153.8593 827,-154 745.7156,-170.0455 651.717,-185.2868 587.2371,-194.966"/>
<polygon fill="#191970" stroke="#191970" points="586.5225,-191.5337 577.1484,-196.4709 587.5553,-198.4571 586.5225,-191.5337"/>
</g>
<!-- Node10&#45;&gt;Node9 -->
<g id="edge19" class="edge">
<title>Node10&#45;&gt;Node9</title>
<path fill="none" stroke="#191970" d="M855.2545,-123.4639C835.7376,-113.9191 810.2743,-101.4663 789.1675,-91.144"/>
<polygon fill="#191970" stroke="#191970" points="790.6378,-87.9669 780.1169,-86.7177 787.5625,-94.2552 790.6378,-87.9669"/>
</g>
<!-- Node12&#45;&gt;Node6 -->
<g id="edge23" class="edge">
<title>Node12&#45;&gt;Node6</title>
<path fill="none" stroke="#191970" d="M401.8821,-153.6017C424.092,-163.1934 451.6847,-175.7021 473.488,-186.0357"/>
<polygon fill="#191970" stroke="#191970" points="472.2192,-189.3085 482.7509,-190.4639 475.2384,-182.9931 472.2192,-189.3085"/>
</g>
<!-- Node12&#45;&gt;Node13 -->
<g id="edge24" class="edge">
<title>Node12&#45;&gt;Node13</title>
<path fill="none" stroke="#191970" d="M385.6915,-123.2967C402.0283,-112.351 423.9759,-97.6462 440.3119,-86.701"/>
<polygon fill="#191970" stroke="#191970" points="442.3793,-89.5289 448.7388,-81.055 438.483,-83.7135 442.3793,-89.5289"/>
</g>
<!-- Node13&#45;&gt;Node6 -->
<g id="edge26" class="edge">
<title>Node13&#45;&gt;Node6</title>
<path fill="none" stroke="#191970" d="M470.0662,-81.1042C480.685,-101.6972 498.4208,-150.6597 506.6687,-180.6499"/>
<polygon fill="#191970" stroke="#191970" points="503.2914,-181.5701 509.1632,-190.389 510.0725,-179.8332 503.2914,-181.5701"/>
</g>
<!-- Node14 -->
<g id="node15" class="node">
<title>Node14</title>
<polygon fill="none" stroke="#bfbfbf" points="440,-.5 440,-19.5 486,-19.5 486,-.5 440,-.5"/>
<text text-anchor="middle" x="463" y="-7.5" font-family="Helvetica,sans-Serif" font-size="10.00" fill="#000000">stdio.h</text>
</g>
<!-- Node13&#45;&gt;Node14 -->
<g id="edge25" class="edge">
<title>Node13&#45;&gt;Node14</title>
<path fill="none" stroke="#191970" d="M463,-61.8906C463,-53.3657 463,-40.6392 463,-29.9235"/>
<polygon fill="#191970" stroke="#191970" points="466.5001,-29.7448 463,-19.7449 459.5001,-29.7449 466.5001,-29.7448"/>
</g>
</g>
</svg>
        <g id="navigator" transform="translate(0 0)" fill="#404254">
                <rect fill="#f2f5e9" fill-opacity="0.5" stroke="#606060" stroke-width=".5" x="0" y="0" width="60" height="60"/>
                <use id="zoomplus" xlink:href="#zoomPlus" x="17" y="9" onmousedown="handleZoom(evt,'in')"/>
                <use id="zoomminus" xlink:href="#zoomMin" x="42" y="9" onmousedown="handleZoom(evt,'out')"/>
                <use id="reset" xlink:href="#resetDef" x="30" y="36" onmousedown="handleReset()"/>
                <g id="arrowUp" xlink:href="#dirArrow" transform="translate(30 24)" onmousedown="handlePan(0,-1)">
                  <use xlink:href="#rim" fill="#404040">
                        <set attributeName="fill" to="#808080" begin="arrowUp.mouseover" end="arrowUp.mouseout"/>
                  </use>
                  <path fill="none" stroke="white" stroke-width="1.5" d="M0,-3.0v7 M-2.5,-0.5L0,-3.0L2.5,-0.5"/>
                </g>
                <g id="arrowRight" xlink:href="#dirArrow" transform="rotate(90) translate(36 -43)" onmousedown="handlePan(1,0)">
                  <use xlink:href="#rim" fill="#404040">
                        <set attributeName="fill" to="#808080" begin="arrowRight.mouseover" end="arrowRight.mouseout"/>
                  </use>
                  <path fill="none" stroke="white" stroke-width="1.5" d="M0,-3.0v7 M-2.5,-0.5L0,-3.0L2.5,-0.5"/>
                </g>
                <g id="arrowDown" xlink:href="#dirArrow" transform="rotate(180) translate(-30 -48)" onmousedown="handlePan(0,1)">
                  <use xlink:href="#rim" fill="#404040">
                        <set attributeName="fill" to="#808080" begin="arrowDown.mouseover" end="arrowDown.mouseout"/>
                  </use>
                  <path fill="none" stroke="white" stroke-width="1.5" d="M0,-3.0v7 M-2.5,-0.5L0,-3.0L2.5,-0.5"/>
                </g>
                <g id="arrowLeft" xlink:href="#dirArrow" transform="rotate(270) translate(-36 17)" onmousedown="handlePan(-1,0)">
                  <use xlink:href="#rim" fill="#404040">
                        <set attributeName="fill" to="#808080" begin="arrowLeft.mouseover" end="arrowLeft.mouseout"/>
                  </use>
                  <path fill="none" stroke="white" stroke-width="1.5" d="M0,-3.0v7 M-2.5,-0.5L0,-3.0L2.5,-0.5"/>
                </g>
        </g>
        <svg viewBox="0 0 15 15" width="100%" height="30px" preserveAspectRatio="xMaxYMin meet">
         <g id="arrow_out" transform="scale(0.3 0.3)">
          <a xlink:href="grammar_8h__incl_org.svg" target="_base">
           <rect id="button" ry="5" rx="5" y="6" x="6" height="38" width="38"
                fill="#f2f5e9" fill-opacity="0.5" stroke="#606060" stroke-width="1.0"/>
           <path id="arrow"
             d="M 11.500037,31.436501 C 11.940474,20.09759 22.043105,11.32322 32.158766,21.979434 L 37.068811,17.246167 C 37.068811,17.246167 37.088388,32 37.088388,32 L 22.160133,31.978069 C 22.160133,31.978069 26.997745,27.140456 26.997745,27.140456 C 18.528582,18.264221 13.291696,25.230495 11.500037,31.436501 z"
             style="fill:#404040;"/>
          </a>
         </g>
        </svg>
</svg>
