<?xml version="1.0" encoding="UTF-8" standalone="no"?>
<!DOCTYPE svg PUBLIC "-//W3C//DTD SVG 1.1//EN"
 "http://www.w3.org/Graphics/SVG/1.1/DTD/svg11.dtd">
<!-- Generated by graphviz version 2.40.1 (20161225.0304)
 -->
<!-- Title: Buffers Pages: 1 -->
<svg width="380pt" height="40pt"
 viewBox="0.00 0.00 380.00 40.00" xmlns="http://www.w3.org/2000/svg" xmlns:xlink="http://www.w3.org/1999/xlink">
<g id="graph0" class="graph" transform="scale(1 1) rotate(0) translate(4 36)">
<title>Buffers</title>
<!-- Node1 -->
<g id="node1" class="node">
<title>Node1</title>
<g id="a_node1"><a xlink:href="group__data__structures.html" target="_top" xlink:title="All datastructures and typedefs shared among the ViennaRNA Package can be found here. ">
<polygon fill="none" stroke="#000000" points="0,-.5 0,-19.5 131,-19.5 131,-.5 0,-.5"/>
<text text-anchor="middle" x="65.5" y="-7.5" font-family="Helvetica,sans-Serif" font-size="10.00" fill="#000000">(Abstract) Data Structures</text>
</a>
</g>
</g>
<!-- Node0 -->
<g id="node3" class="node">
<title>Node0</title>
<polygon fill="#bfbfbf" stroke="#000000" points="168,-.5 168,-19.5 215,-19.5 215,-.5 168,-.5"/>
<text text-anchor="middle" x="191.5" y="-7.5" font-family="Helvetica,sans-Serif" font-size="10.00" fill="#000000">Buffers</text>
</g>
<!-- Node1&#45;&gt;Node0 -->
<g id="edge1" class="edge">
<title>Node1&#45;&gt;Node0</title>
<path fill="none" stroke="#000000" d="M141.1887,-10C150.7813,-10 159.9645,-10 167.7981,-10"/>
<polygon fill="#000000" stroke="#000000" points="141.0834,-6.5001 131.0833,-10 141.0833,-13.5001 141.0834,-6.5001"/>
</g>
<!-- Node2 -->
<g id="node2" class="node">
<title>Node2</title>
<g id="a_node2"><a xlink:href="group__utils.html" target="_top" xlink:title="Utilities">
<polygon fill="none" stroke="#000000" points="322,-.5 322,-19.5 372,-19.5 372,-.5 322,-.5"/>
<text text-anchor="middle" x="347" y="-7.5" font-family="Helvetica,sans-Serif" font-size="10.00" fill="#000000">Utilities</text>
</a>
</g>
</g>
<!-- Node0&#45;&gt;Node2 -->
<g id="edge2" class="edge">
<title>Node0&#45;&gt;Node2</title>
<path fill="none" stroke="#006400" stroke-dasharray="5,2" d="M215.1171,-10C243.9193,-10 292.3971,-10 321.8691,-10"/>
<text text-anchor="middle" x="268.5" y="-24" font-family="Helvetica,sans-Serif" font-size="10.00" fill="#000000">char_stream.h</text>
<text text-anchor="middle" x="268.5" y="-13" font-family="Helvetica,sans-Serif" font-size="10.00" fill="#000000">stream_output.h</text>
</g>
</g>
</svg>
