<?xml version="1.0" encoding="UTF-8" standalone="no"?>
<!DOCTYPE svg PUBLIC "-//W3C//DTD SVG 1.1//EN"
 "http://www.w3.org/Graphics/SVG/1.1/DTD/svg11.dtd">
<!-- Generated by graphviz version 2.40.1 (20161225.0304)
 -->
<!-- Title: Partition Function for Two Hybridized Sequences Pages: 1 -->
<svg width="352pt" height="90pt"
 viewBox="0.00 0.00 352.00 89.50" xmlns="http://www.w3.org/2000/svg" xmlns:xlink="http://www.w3.org/1999/xlink">
<g id="graph0" class="graph" transform="scale(1 1) rotate(0) translate(4 85.5)">
<title>Partition Function for Two Hybridized Sequences</title>
<!-- Node2 -->
<g id="node1" class="node">
<title>Node2</title>
<g id="a_node1"><a xlink:href="group__pf__fold.html" target="_top" xlink:title="Compute the partition function to assess various equilibrium properties. ">
<polygon fill="none" stroke="#000000" points="210,-.5 210,-30.5 344,-30.5 344,-.5 210,-.5"/>
<text text-anchor="start" x="218" y="-18.5" font-family="Helvetica,sans-Serif" font-size="10.00" fill="#000000">Partition Function</text>
<text text-anchor="middle" x="277" y="-7.5" font-family="Helvetica,sans-Serif" font-size="10.00" fill="#000000"> and Equilibrium Properties</text>
</a>
</g>
</g>
<!-- Node1 -->
<g id="node2" class="node">
<title>Node1</title>
<g id="a_node2"><a xlink:href="group__cofold.html" target="_top" xlink:title="RNA&#45;RNA Interaction">
<polygon fill="none" stroke="#000000" points="221,-57 221,-76 333,-76 333,-57 221,-57"/>
<text text-anchor="middle" x="277" y="-64" font-family="Helvetica,sans-Serif" font-size="10.00" fill="#000000">RNA&#45;RNA Interaction</text>
</a>
</g>
</g>
<!-- Node0 -->
<g id="node3" class="node">
<title>Node0</title>
<polygon fill="#bfbfbf" stroke="#000000" points="0,-21 0,-62 101,-62 101,-21 0,-21"/>
<text text-anchor="start" x="8" y="-50" font-family="Helvetica,sans-Serif" font-size="10.00" fill="#000000">Partition Function</text>
<text text-anchor="start" x="8" y="-39" font-family="Helvetica,sans-Serif" font-size="10.00" fill="#000000"> for Two Hybridized</text>
<text text-anchor="middle" x="50.5" y="-28" font-family="Helvetica,sans-Serif" font-size="10.00" fill="#000000"> Sequences</text>
</g>
<!-- Node1&#45;&gt;Node0 -->
<g id="edge1" class="edge">
<title>Node1&#45;&gt;Node0</title>
<path fill="none" stroke="#000000" d="M210.8271,-57.7397C204.4672,-56.957 198.1123,-56.1977 192,-55.5 161.9549,-52.0704 128.2636,-48.7173 101.2953,-46.1529"/>
<polygon fill="#000000" stroke="#000000" points="210.4345,-61.2178 220.7911,-58.9835 211.3017,-54.2717 210.4345,-61.2178"/>
</g>
<!-- Node0&#45;&gt;Node2 -->
<g id="edge2" class="edge">
<title>Node0&#45;&gt;Node2</title>
<path fill="none" stroke="#006400" stroke-dasharray="5,2" d="M101.0001,-35.5858C107.0651,-34.8804 113.1718,-34.1723 119,-33.5 148.7573,-30.0673 181.6723,-26.311 209.7229,-23.122"/>
<text text-anchor="middle" x="155.5" y="-36.5" font-family="Helvetica,sans-Serif" font-size="10.00" fill="#000000">concentrations.h</text>
</g>
<!-- Node0&#45;&gt;Node1 -->
<g id="edge3" class="edge">
<title>Node0&#45;&gt;Node1</title>
<path fill="none" stroke="#006400" stroke-dasharray="5,2" d="M101.3161,-50.071C107.2688,-50.9532 113.2628,-51.7861 119,-52.5 152.7492,-56.6996 190.7071,-60.1055 220.9586,-62.5061"/>
<text text-anchor="middle" x="155.5" y="-73.5" font-family="Helvetica,sans-Serif" font-size="10.00" fill="#000000">concentrations.h</text>
<text text-anchor="middle" x="155.5" y="-62.5" font-family="Helvetica,sans-Serif" font-size="10.00" fill="#000000">part_func_up.h</text>
</g>
</g>
</svg>
