<?xml version="1.0" encoding="UTF-8" standalone="no"?>
<!DOCTYPE svg PUBLIC "-//W3C//DTD SVG 1.1//EN"
 "http://www.w3.org/Graphics/SVG/1.1/DTD/svg11.dtd">
<!-- Generated by graphviz version 2.40.1 (20161225.0304)
 -->
<!-- Title: Minimum Free Energy (MFE) Algorithms Pages: 1 -->
<svg width="364pt" height="129pt"
 viewBox="0.00 0.00 364.00 129.00" xmlns="http://www.w3.org/2000/svg" xmlns:xlink="http://www.w3.org/1999/xlink">
<g id="graph0" class="graph" transform="scale(1 1) rotate(0) translate(4 124.9991)">
<title>Minimum Free Energy (MFE) Algorithms</title>
<!-- Node1 -->
<g id="node1" class="node">
<title>Node1</title>
<g id="a_node1"><a xlink:href="group__mfe__global.html" target="_top" xlink:title="Variations of the global Minimum Free Energy (MFE) prediction algorithm. ">
<polygon fill="none" stroke="#000000" points="226.5,-98.5 226.5,-117.5 341.5,-117.5 341.5,-98.5 226.5,-98.5"/>
<text text-anchor="middle" x="284" y="-105.5" font-family="Helvetica,sans-Serif" font-size="10.00" fill="#000000">Global MFE Prediction</text>
</a>
</g>
</g>
<!-- Node2 -->
<g id="node2" class="node">
<title>Node2</title>
<g id="a_node2"><a xlink:href="group__mfe__window.html" target="_top" xlink:title="Variations of the local (sliding window) Minimum Free Energy (MFE) prediction algorithm. ">
<polygon fill="none" stroke="#000000" points="227.5,-47 227.5,-77 340.5,-77 340.5,-47 227.5,-47"/>
<text text-anchor="start" x="235.5" y="-65" font-family="Helvetica,sans-Serif" font-size="10.00" fill="#000000">Local (sliding window)</text>
<text text-anchor="middle" x="284" y="-54" font-family="Helvetica,sans-Serif" font-size="10.00" fill="#000000"> MFE Prediction</text>
</a>
</g>
</g>
<!-- Node0 -->
<g id="node3" class="node">
<title>Node0</title>
<polygon fill="#bfbfbf" stroke="#000000" points="0,-54 0,-84 113,-84 113,-54 0,-54"/>
<text text-anchor="start" x="8" y="-72" font-family="Helvetica,sans-Serif" font-size="10.00" fill="#000000">Minimum Free Energy</text>
<text text-anchor="middle" x="56.5" y="-61" font-family="Helvetica,sans-Serif" font-size="10.00" fill="#000000"> (MFE) Algorithms</text>
</g>
<!-- Node0&#45;&gt;Node1 -->
<g id="edge1" class="edge">
<title>Node0&#45;&gt;Node1</title>
<path fill="none" stroke="#000000" d="M83.3721,-90.1249C96.8557,-99.3973 113.925,-109.2433 131,-114 164.6743,-123.3808 204.1239,-121.5412 234.5304,-117.5331"/>
<polygon fill="#000000" stroke="#000000" points="85.2327,-87.1524 75.0652,-84.1736 81.1559,-92.8427 85.2327,-87.1524"/>
</g>
<!-- Node0&#45;&gt;Node1 -->
<g id="edge4" class="edge">
<title>Node0&#45;&gt;Node1</title>
<path fill="none" stroke="#006400" stroke-dasharray="5,2" d="M113.0283,-78.6906C148.2959,-84.7364 193.4868,-92.4834 228.5496,-98.4942"/>
<text text-anchor="middle" x="162.5" y="-94" font-family="Helvetica,sans-Serif" font-size="10.00" fill="#000000">mfe.h</text>
</g>
<!-- Node0&#45;&gt;Node2 -->
<g id="edge2" class="edge">
<title>Node0&#45;&gt;Node2</title>
<path fill="none" stroke="#000000" d="M123.0761,-66.9515C156.1739,-65.9331 195.7474,-64.7155 227.3683,-63.7425"/>
<polygon fill="#000000" stroke="#000000" points="122.9159,-63.4547 113.0283,-67.2607 123.1312,-70.4514 122.9159,-63.4547"/>
</g>
<!-- Node0&#45;&gt;Node2 -->
<g id="edge5" class="edge">
<title>Node0&#45;&gt;Node2</title>
<path fill="none" stroke="#006400" stroke-dasharray="5,2" d="M105.4225,-53.9187C113.876,-51.8747 122.6355,-50.1032 131,-49 162.7152,-44.817 198.3155,-47.412 227.1901,-51.3497"/>
<text text-anchor="middle" x="162.5" y="-52" font-family="Helvetica,sans-Serif" font-size="10.00" fill="#000000">mfe_window.h</text>
</g>
<!-- Node3 -->
<g id="node4" class="node">
<title>Node3</title>
<g id="a_node4"><a xlink:href="group__mfe__backtracking.html" target="_top" xlink:title="Backtracking related interfaces. ">
<polygon fill="none" stroke="#000000" points="212,-.5 212,-19.5 356,-19.5 356,-.5 212,-.5"/>
<text text-anchor="middle" x="284" y="-7.5" font-family="Helvetica,sans-Serif" font-size="10.00" fill="#000000">Backtracking MFE structures</text>
</a>
</g>
</g>
<!-- Node0&#45;&gt;Node3 -->
<g id="edge3" class="edge">
<title>Node0&#45;&gt;Node3</title>
<path fill="none" stroke="#000000" d="M104.5093,-50.4756C113.2534,-47.4243 122.3468,-44.4596 131,-42 163.107,-32.8739 199.6813,-25.1302 229.0181,-19.5473"/>
<polygon fill="#000000" stroke="#000000" points="103.0666,-47.2743 94.8274,-53.9351 105.4221,-53.8661 103.0666,-47.2743"/>
</g>
</g>
</svg>
