<?xml version="1.0" encoding="UTF-8" standalone="no"?>
<!DOCTYPE svg PUBLIC "-//W3C//DTD SVG 1.1//EN"
 "http://www.w3.org/Graphics/SVG/1.1/DTD/svg11.dtd">
<!-- Generated by graphviz version 2.40.1 (20161225.0304)
 -->
<!-- Title: Local (sliding window) MFE Prediction Pages: 1 -->
<svg width="354pt" height="101pt"
 viewBox="0.00 0.00 354.00 100.50" xmlns="http://www.w3.org/2000/svg" xmlns:xlink="http://www.w3.org/1999/xlink">
<g id="graph0" class="graph" transform="scale(1 1) rotate(0) translate(4 96.5)">
<title>Local (sliding window) MFE Prediction</title>
<!-- Node0 -->
<g id="node1" class="node">
<title>Node0</title>
<polygon fill="#bfbfbf" stroke="#000000" points="0,-31 0,-61 113,-61 113,-31 0,-31"/>
<text text-anchor="start" x="8" y="-49" font-family="Helvetica,sans-Serif" font-size="10.00" fill="#000000">Local (sliding window)</text>
<text text-anchor="middle" x="56.5" y="-38" font-family="Helvetica,sans-Serif" font-size="10.00" fill="#000000"> MFE Prediction</text>
</g>
<!-- Node1 -->
<g id="node2" class="node">
<title>Node1</title>
<g id="a_node2"><a xlink:href="group__mfe.html" target="_top" xlink:title="Predicting the Minimum Free Energy (MFE) and a corresponding (consensus) secondary structure...">
<polygon fill="none" stroke="#000000" points="222.5,-62 222.5,-92 335.5,-92 335.5,-62 222.5,-62"/>
<text text-anchor="start" x="230.5" y="-80" font-family="Helvetica,sans-Serif" font-size="10.00" fill="#000000">Minimum Free Energy</text>
<text text-anchor="middle" x="279" y="-69" font-family="Helvetica,sans-Serif" font-size="10.00" fill="#000000"> (MFE) Algorithms</text>
</a>
</g>
</g>
<!-- Node0&#45;&gt;Node1 -->
<g id="edge3" class="edge">
<title>Node0&#45;&gt;Node1</title>
<path fill="none" stroke="#006400" stroke-dasharray="5,2" d="M113.031,-54.4212C119.0951,-55.3024 125.1745,-56.1763 131,-57 161.1654,-61.265 194.8185,-65.8282 222.403,-69.5174"/>
<text text-anchor="middle" x="162.5" y="-68" font-family="Helvetica,sans-Serif" font-size="10.00" fill="#000000">mfe_window.h</text>
</g>
<!-- Node2 -->
<g id="node3" class="node">
<title>Node2</title>
<g id="a_node3"><a xlink:href="group__mfe__window__deprecated.html" target="_top" xlink:title="Deprecated Interface\l for Local (Sliding Window)\l MFE Prediction">
<polygon fill="none" stroke="#000000" points="212,-.5 212,-41.5 346,-41.5 346,-.5 212,-.5"/>
<text text-anchor="start" x="220" y="-29.5" font-family="Helvetica,sans-Serif" font-size="10.00" fill="#000000">Deprecated Interface</text>
<text text-anchor="start" x="220" y="-18.5" font-family="Helvetica,sans-Serif" font-size="10.00" fill="#000000"> for Local (Sliding Window)</text>
<text text-anchor="middle" x="279" y="-7.5" font-family="Helvetica,sans-Serif" font-size="10.00" fill="#000000"> MFE Prediction</text>
</a>
</g>
</g>
<!-- Node0&#45;&gt;Node2 -->
<g id="edge2" class="edge">
<title>Node0&#45;&gt;Node2</title>
<path fill="none" stroke="#000000" d="M123.3888,-35.9532C125.9574,-35.6216 128.5014,-35.3024 131,-35 157.3908,-31.8057 186.5036,-28.9155 211.8758,-26.6017"/>
<polygon fill="#000000" stroke="#000000" points="122.8537,-32.4935 113.4045,-37.2853 123.7795,-39.432 122.8537,-32.4935"/>
</g>
<!-- Node1&#45;&gt;Node0 -->
<g id="edge1" class="edge">
<title>Node1&#45;&gt;Node0</title>
<path fill="none" stroke="#000000" d="M212.1601,-63.0062C206.0335,-61.9129 199.9107,-60.8899 194,-60 167.5438,-56.0169 138.0495,-52.8476 113.1824,-50.5389"/>
<polygon fill="#000000" stroke="#000000" points="211.9689,-66.5299 222.4378,-64.9016 213.2385,-59.646 211.9689,-66.5299"/>
</g>
</g>
</svg>
