<?xml version="1.0" encoding="UTF-8" standalone="no"?>
<!DOCTYPE svg PUBLIC "-//W3C//DTD SVG 1.1//EN"
 "http://www.w3.org/Graphics/SVG/1.1/DTD/svg11.dtd">
<!-- Generated by graphviz version 2.40.1 (20161225.0304)
 -->
<!-- Title: Local (sliding window) Partition Function and Equilibrium Probabilities Pages: 1 -->
<svg width="581pt" height="50pt"
 viewBox="0.00 0.00 581.00 50.00" xmlns="http://www.w3.org/2000/svg" xmlns:xlink="http://www.w3.org/1999/xlink">
<g id="graph0" class="graph" transform="scale(1 1) rotate(0) translate(4 46)">
<title>Local (sliding window) Partition Function and Equilibrium Probabilities</title>
<!-- Node1 -->
<g id="node1" class="node">
<title>Node1</title>
<g id="a_node1"><a xlink:href="group__pf__fold.html" target="_top" xlink:title="Compute the partition function to assess various equilibrium properties. ">
<polygon fill="none" stroke="#000000" points="0,-6 0,-36 134,-36 134,-6 0,-6"/>
<text text-anchor="start" x="8" y="-24" font-family="Helvetica,sans-Serif" font-size="10.00" fill="#000000">Partition Function</text>
<text text-anchor="middle" x="67" y="-13" font-family="Helvetica,sans-Serif" font-size="10.00" fill="#000000"> and Equilibrium Properties</text>
</a>
</g>
</g>
<!-- Node0 -->
<g id="node3" class="node">
<title>Node0</title>
<polygon fill="#bfbfbf" stroke="#000000" points="257,-.5 257,-41.5 381,-41.5 381,-.5 257,-.5"/>
<text text-anchor="start" x="265" y="-29.5" font-family="Helvetica,sans-Serif" font-size="10.00" fill="#000000">Local (sliding window)</text>
<text text-anchor="start" x="265" y="-18.5" font-family="Helvetica,sans-Serif" font-size="10.00" fill="#000000"> Partition Function and</text>
<text text-anchor="middle" x="319" y="-7.5" font-family="Helvetica,sans-Serif" font-size="10.00" fill="#000000"> Equilibrium Probabilities</text>
</g>
<!-- Node1&#45;&gt;Node0 -->
<g id="edge1" class="edge">
<title>Node1&#45;&gt;Node0</title>
<path fill="none" stroke="#000000" d="M144.2034,-21C180.3067,-21 222.7317,-21 256.7439,-21"/>
<polygon fill="#000000" stroke="#000000" points="144.2004,-17.5001 134.2003,-21 144.2003,-24.5001 144.2004,-17.5001"/>
</g>
<!-- Node2 -->
<g id="node2" class="node">
<title>Node2</title>
<g id="a_node2"><a xlink:href="group__part__func__window__deprecated.html" target="_top" xlink:title="Deprecated Interface\l for Local (Sliding Window)\l Partition Function Computation">
<polygon fill="none" stroke="#000000" points="418,-.5 418,-41.5 573,-41.5 573,-.5 418,-.5"/>
<text text-anchor="start" x="426" y="-29.5" font-family="Helvetica,sans-Serif" font-size="10.00" fill="#000000">Deprecated Interface</text>
<text text-anchor="start" x="426" y="-18.5" font-family="Helvetica,sans-Serif" font-size="10.00" fill="#000000"> for Local (Sliding Window)</text>
<text text-anchor="middle" x="495.5" y="-7.5" font-family="Helvetica,sans-Serif" font-size="10.00" fill="#000000"> Partition Function Computation</text>
</a>
</g>
</g>
<!-- Node0&#45;&gt;Node1 -->
<g id="edge3" class="edge">
<title>Node0&#45;&gt;Node1</title>
<path fill="none" stroke="#006400" stroke-dasharray="5,2" d="M256.6855,-9.0206C250.7258,-8.1992 244.7593,-7.5001 239,-7 200.4783,-3.6548 190.5379,-3.8475 152,-7 146.1867,-7.4755 140.1719,-8.1311 134.1519,-8.9008"/>
<text text-anchor="middle" x="195.5" y="-10" font-family="Helvetica,sans-Serif" font-size="10.00" fill="#000000">part_func_window.h</text>
</g>
<!-- Node0&#45;&gt;Node2 -->
<g id="edge2" class="edge">
<title>Node0&#45;&gt;Node2</title>
<path fill="none" stroke="#000000" d="M391.3333,-21C400.044,-21 408.9686,-21 417.7524,-21"/>
<polygon fill="#000000" stroke="#000000" points="391.2273,-17.5001 381.2273,-21 391.2273,-24.5001 391.2273,-17.5001"/>
</g>
</g>
</svg>
