<?xml version="1.0" encoding="UTF-8" standalone="no"?>
<!DOCTYPE svg PUBLIC "-//W3C//DTD SVG 1.1//EN"
 "http://www.w3.org/Graphics/SVG/1.1/DTD/svg11.dtd">
<!-- Generated by graphviz version 2.40.1 (20161225.0304)
 -->
<!-- Title: Secondary Structure Utilities Pages: 1 -->
<svg width="365pt" height="296pt"
 viewBox="0.00 0.00 365.00 295.50" xmlns="http://www.w3.org/2000/svg" xmlns:xlink="http://www.w3.org/1999/xlink">
<g id="graph0" class="graph" transform="scale(1 1) rotate(0) translate(4 291.5)">
<title>Secondary Structure Utilities</title>
<!-- Node4 -->
<g id="node1" class="node">
<title>Node4</title>
<g id="a_node1"><a xlink:href="group__struct__utils__plist.html" target="_top" xlink:title="Pair List Representation\l of Secondary Structures">
<polygon fill="none" stroke="#000000" points="230,-257 230,-287 355,-287 355,-257 230,-257"/>
<text text-anchor="start" x="238" y="-275" font-family="Helvetica,sans-Serif" font-size="10.00" fill="#000000">Pair List Representation</text>
<text text-anchor="middle" x="292.5" y="-264" font-family="Helvetica,sans-Serif" font-size="10.00" fill="#000000"> of Secondary Structures</text>
</a>
</g>
</g>
<!-- Node6 -->
<g id="node2" class="node">
<title>Node6</title>
<g id="a_node2"><a xlink:href="group__struct__utils__tree.html" target="_top" xlink:title="Tree Representation\l of Secondary Structures">
<polygon fill="none" stroke="#000000" points="230,-208 230,-238 355,-238 355,-208 230,-208"/>
<text text-anchor="start" x="238" y="-226" font-family="Helvetica,sans-Serif" font-size="10.00" fill="#000000">Tree Representation</text>
<text text-anchor="middle" x="292.5" y="-215" font-family="Helvetica,sans-Serif" font-size="10.00" fill="#000000"> of Secondary Structures</text>
</a>
</g>
</g>
<!-- Node2 -->
<g id="node3" class="node">
<title>Node2</title>
<g id="a_node3"><a xlink:href="group__struct__utils__dot__bracket.html" target="_top" xlink:title="Dot&#45;Bracket Notation\l of Secondary Structures">
<polygon fill="none" stroke="#000000" points="230,-159 230,-189 355,-189 355,-159 230,-159"/>
<text text-anchor="start" x="238" y="-177" font-family="Helvetica,sans-Serif" font-size="10.00" fill="#000000">Dot&#45;Bracket Notation</text>
<text text-anchor="middle" x="292.5" y="-166" font-family="Helvetica,sans-Serif" font-size="10.00" fill="#000000"> of Secondary Structures</text>
</a>
</g>
</g>
<!-- Node0 -->
<g id="node4" class="node">
<title>Node0</title>
<polygon fill="#bfbfbf" stroke="#000000" points="86,-134 86,-164 192,-164 192,-134 86,-134"/>
<text text-anchor="start" x="94" y="-152" font-family="Helvetica,sans-Serif" font-size="10.00" fill="#000000">Secondary Structure</text>
<text text-anchor="middle" x="139" y="-141" font-family="Helvetica,sans-Serif" font-size="10.00" fill="#000000"> Utilities</text>
</g>
<!-- Node0&#45;&gt;Node4 -->
<g id="edge4" class="edge">
<title>Node0&#45;&gt;Node4</title>
<path fill="none" stroke="#000000" d="M154.8611,-172.3764C170.9741,-194.5533 197.8031,-227.4571 228,-248 232.9394,-251.3602 238.4098,-254.3234 244.0154,-256.9164"/>
<polygon fill="#000000" stroke="#000000" points="157.6729,-170.291 149.0281,-164.1659 151.9664,-174.3452 157.6729,-170.291"/>
</g>
<!-- Node0&#45;&gt;Node6 -->
<g id="edge6" class="edge">
<title>Node0&#45;&gt;Node6</title>
<path fill="none" stroke="#000000" d="M172.1112,-169.2262C188.5915,-178.8711 209.0061,-190.196 228,-199 234.7209,-202.1152 241.9696,-205.1292 249.0962,-207.9083"/>
<polygon fill="#000000" stroke="#000000" points="173.7828,-166.1485 163.3943,-164.0675 170.2176,-172.1726 173.7828,-166.1485"/>
</g>
<!-- Node0&#45;&gt;Node2 -->
<g id="edge2" class="edge">
<title>Node0&#45;&gt;Node2</title>
<path fill="none" stroke="#000000" d="M202.3664,-159.3203C211.4432,-160.7986 220.7777,-162.3189 229.8408,-163.7949"/>
<polygon fill="#000000" stroke="#000000" points="202.6887,-155.8267 192.2561,-157.6736 201.5634,-162.7357 202.6887,-155.8267"/>
</g>
<!-- Node3 -->
<g id="node5" class="node">
<title>Node3</title>
<g id="a_node5"><a xlink:href="group__struct__utils__pair__table.html" target="_top" xlink:title="Pair Table Representation\l of Secondary Structures">
<polygon fill="none" stroke="#000000" points="228,-110 228,-140 357,-140 357,-110 228,-110"/>
<text text-anchor="start" x="236" y="-128" font-family="Helvetica,sans-Serif" font-size="10.00" fill="#000000">Pair Table Representation</text>
<text text-anchor="middle" x="292.5" y="-117" font-family="Helvetica,sans-Serif" font-size="10.00" fill="#000000"> of Secondary Structures</text>
</a>
</g>
</g>
<!-- Node0&#45;&gt;Node3 -->
<g id="edge3" class="edge">
<title>Node0&#45;&gt;Node3</title>
<path fill="none" stroke="#000000" d="M202.4103,-139.0857C210.8486,-137.7663 219.5089,-136.4123 227.966,-135.09"/>
<polygon fill="#000000" stroke="#000000" points="201.5953,-135.6705 192.2561,-140.6733 202.6767,-142.5865 201.5953,-135.6705"/>
</g>
<!-- Node5 -->
<g id="node7" class="node">
<title>Node5</title>
<g id="a_node7"><a xlink:href="group__struct__utils__helix__list.html" target="_top" xlink:title="Helix List Representation\l of Secondary Structures">
<polygon fill="none" stroke="#000000" points="229,-61 229,-91 356,-91 356,-61 229,-61"/>
<text text-anchor="start" x="237" y="-79" font-family="Helvetica,sans-Serif" font-size="10.00" fill="#000000">Helix List Representation</text>
<text text-anchor="middle" x="292.5" y="-68" font-family="Helvetica,sans-Serif" font-size="10.00" fill="#000000"> of Secondary Structures</text>
</a>
</g>
</g>
<!-- Node0&#45;&gt;Node5 -->
<g id="edge5" class="edge">
<title>Node0&#45;&gt;Node5</title>
<path fill="none" stroke="#000000" d="M172.8665,-128.8188C189.2314,-119.4666 209.3297,-108.5569 228,-100 234.8428,-96.8638 242.2239,-93.8178 249.464,-91.0074"/>
<polygon fill="#000000" stroke="#000000" points="171.1005,-125.7969 164.1918,-133.8293 174.6017,-131.8584 171.1005,-125.7969"/>
</g>
<!-- Node7 -->
<g id="node8" class="node">
<title>Node7</title>
<g id="a_node8"><a xlink:href="group__struct__utils__deprecated.html" target="_top" xlink:title="Deprecated Interface\l for Secondary Structure\l Utilities">
<polygon fill="none" stroke="#000000" points="231,-.5 231,-41.5 354,-41.5 354,-.5 231,-.5"/>
<text text-anchor="start" x="239" y="-29.5" font-family="Helvetica,sans-Serif" font-size="10.00" fill="#000000">Deprecated Interface</text>
<text text-anchor="start" x="239" y="-18.5" font-family="Helvetica,sans-Serif" font-size="10.00" fill="#000000"> for Secondary Structure</text>
<text text-anchor="middle" x="292.5" y="-7.5" font-family="Helvetica,sans-Serif" font-size="10.00" fill="#000000"> Utilities</text>
</a>
</g>
</g>
<!-- Node0&#45;&gt;Node7 -->
<g id="edge7" class="edge">
<title>Node0&#45;&gt;Node7</title>
<path fill="none" stroke="#000000" d="M156.0502,-125.3695C172.5395,-103.8169 199.2034,-72.1917 228,-51 232.5755,-47.6328 237.5893,-44.5071 242.736,-41.6448"/>
<polygon fill="#000000" stroke="#000000" points="153.0384,-123.5517 149.8351,-133.6507 158.637,-127.7536 153.0384,-123.5517"/>
</g>
<!-- Node1 -->
<g id="node6" class="node">
<title>Node1</title>
<g id="a_node6"><a xlink:href="group__utils.html" target="_top" xlink:title="Utilities">
<polygon fill="none" stroke="#000000" points="0,-139.5 0,-158.5 50,-158.5 50,-139.5 0,-139.5"/>
<text text-anchor="middle" x="25" y="-146.5" font-family="Helvetica,sans-Serif" font-size="10.00" fill="#000000">Utilities</text>
</a>
</g>
</g>
<!-- Node1&#45;&gt;Node0 -->
<g id="edge1" class="edge">
<title>Node1&#45;&gt;Node0</title>
<path fill="none" stroke="#000000" d="M60.2636,-149C68.4159,-149 77.2659,-149 85.9906,-149"/>
<polygon fill="#000000" stroke="#000000" points="60.0178,-145.5001 50.0178,-149 60.0177,-152.5001 60.0178,-145.5001"/>
</g>
</g>
</svg>
