<?xml version="1.0" encoding="UTF-8" standalone="no"?>
<!DOCTYPE svg PUBLIC "-//W3C//DTD SVG 1.1//EN"
 "http://www.w3.org/Graphics/SVG/1.1/DTD/svg11.dtd">
<!-- Generated by graphviz version 2.40.1 (20161225.0304)
 -->
<!-- Title: ViennaRNA/hairpin_loops.h Pages: 1 -->
<svg width="1533pt" height="453pt"
 viewBox="0.00 0.00 1532.50 453.00" xmlns="http://www.w3.org/2000/svg" xmlns:xlink="http://www.w3.org/1999/xlink">
<g id="graph0" class="graph" transform="scale(1 1) rotate(0) translate(4 449)">
<title>ViennaRNA/hairpin_loops.h</title>
<!-- Node0 -->
<g id="node1" class="node">
<title>Node0</title>
<polygon fill="#bfbfbf" stroke="#000000" points="74,-425.5 74,-444.5 211,-444.5 211,-425.5 74,-425.5"/>
<text text-anchor="middle" x="142.5" y="-432.5" font-family="Helvetica,sans-Serif" font-size="10.00" fill="#000000">ViennaRNA/hairpin_loops.h</text>
</g>
<!-- Node1 -->
<g id="node2" class="node">
<title>Node1</title>
<g id="a_node2"><a xlink:href="hairpin_8h.html" target="_top" xlink:title="Energy evaluation of hairpin loops for MFE and partition function calculations. ">
<polygon fill="none" stroke="#000000" points="75.5,-369.5 75.5,-388.5 209.5,-388.5 209.5,-369.5 75.5,-369.5"/>
<text text-anchor="middle" x="142.5" y="-376.5" font-family="Helvetica,sans-Serif" font-size="10.00" fill="#000000">ViennaRNA/loops/hairpin.h</text>
</a>
</g>
</g>
<!-- Node0&#45;&gt;Node1 -->
<g id="edge1" class="edge">
<title>Node0&#45;&gt;Node1</title>
<path fill="none" stroke="#191970" d="M142.5,-425.2455C142.5,-417.9382 142.5,-407.6944 142.5,-398.7046"/>
<polygon fill="#191970" stroke="#191970" points="146.0001,-398.6426 142.5,-388.6427 139.0001,-398.6427 146.0001,-398.6426"/>
</g>
<!-- Node2 -->
<g id="node3" class="node">
<title>Node2</title>
<polygon fill="none" stroke="#bfbfbf" points="0,-313.5 0,-332.5 47,-332.5 47,-313.5 0,-313.5"/>
<text text-anchor="middle" x="23.5" y="-320.5" font-family="Helvetica,sans-Serif" font-size="10.00" fill="#000000">math.h</text>
</g>
<!-- Node1&#45;&gt;Node2 -->
<g id="edge2" class="edge">
<title>Node1&#45;&gt;Node2</title>
<path fill="none" stroke="#191970" d="M122.0432,-369.3733C103.0262,-360.4241 74.4825,-346.9917 53.0024,-336.8835"/>
<polygon fill="#191970" stroke="#191970" points="54.2284,-333.5923 43.6899,-332.5011 51.2478,-339.926 54.2284,-333.5923"/>
</g>
<!-- Node3 -->
<g id="node4" class="node">
<title>Node3</title>
<polygon fill="none" stroke="#bfbfbf" points="65,-313.5 65,-332.5 114,-332.5 114,-313.5 65,-313.5"/>
<text text-anchor="middle" x="89.5" y="-320.5" font-family="Helvetica,sans-Serif" font-size="10.00" fill="#000000">string.h</text>
</g>
<!-- Node1&#45;&gt;Node3 -->
<g id="edge3" class="edge">
<title>Node1&#45;&gt;Node3</title>
<path fill="none" stroke="#191970" d="M133.2681,-369.2455C125.6683,-361.2155 114.7123,-349.6394 105.6632,-340.0781"/>
<polygon fill="#191970" stroke="#191970" points="108.042,-337.4998 98.6261,-332.6427 102.9579,-342.3115 108.042,-337.4998"/>
</g>
<!-- Node4 -->
<g id="node5" class="node">
<title>Node4</title>
<g id="a_node5"><a xlink:href="utils_2basic_8h.html" target="_top" xlink:title="General utility&#45; and helper&#45;functions used throughout the ViennaRNA Package. ">
<polygon fill="none" stroke="#000000" points="883.5,-313.5 883.5,-332.5 1007.5,-332.5 1007.5,-313.5 883.5,-313.5"/>
<text text-anchor="middle" x="945.5" y="-320.5" font-family="Helvetica,sans-Serif" font-size="10.00" fill="#000000">ViennaRNA/utils/basic.h</text>
</a>
</g>
</g>
<!-- Node1&#45;&gt;Node4 -->
<g id="edge4" class="edge">
<title>Node1&#45;&gt;Node4</title>
<path fill="none" stroke="#191970" d="M209.808,-375.8446C336.9255,-369.6273 620.9761,-354.5046 859.5,-333 863.9139,-332.6021 868.4519,-332.1631 873.0268,-331.6979"/>
<polygon fill="#191970" stroke="#191970" points="873.4877,-335.1689 883.0673,-330.6433 872.7563,-328.2072 873.4877,-335.1689"/>
</g>
<!-- Node7 -->
<g id="node8" class="node">
<title>Node7</title>
<g id="a_node8"><a xlink:href="datastructures_2basic_8h.html" target="_top" xlink:title="Various data structures and pre&#45;processor macros. ">
<polygon fill="none" stroke="#000000" points="828.5,-246.5 828.5,-276.5 962.5,-276.5 962.5,-246.5 828.5,-246.5"/>
<text text-anchor="start" x="836.5" y="-264.5" font-family="Helvetica,sans-Serif" font-size="10.00" fill="#000000">ViennaRNA/datastructures</text>
<text text-anchor="middle" x="895.5" y="-253.5" font-family="Helvetica,sans-Serif" font-size="10.00" fill="#000000">/basic.h</text>
</a>
</g>
</g>
<!-- Node1&#45;&gt;Node7 -->
<g id="edge43" class="edge">
<title>Node1&#45;&gt;Node7</title>
<path fill="none" stroke="#191970" d="M203.4833,-369.484C339.6171,-348.2414 668.074,-296.9881 818.243,-273.5554"/>
<polygon fill="#191970" stroke="#191970" points="818.9666,-276.9849 828.3074,-271.9849 817.8873,-270.0686 818.9666,-276.9849"/>
</g>
<!-- Node12 -->
<g id="node13" class="node">
<title>Node12</title>
<g id="a_node13"><a xlink:href="params_2basic_8h.html" target="_top" xlink:title="Functions to deal with sets of energy parameters. ">
<polygon fill="none" stroke="#000000" points="183.5,-129 183.5,-148 321.5,-148 321.5,-129 183.5,-129"/>
<text text-anchor="middle" x="252.5" y="-136" font-family="Helvetica,sans-Serif" font-size="10.00" fill="#000000">ViennaRNA/params/basic.h</text>
</a>
</g>
</g>
<!-- Node1&#45;&gt;Node12 -->
<g id="edge44" class="edge">
<title>Node1&#45;&gt;Node12</title>
<path fill="none" stroke="#191970" d="M146.9484,-369.2742C163.4996,-333.0872 221.7033,-205.8327 243.8539,-157.4035"/>
<polygon fill="#191970" stroke="#191970" points="247.1402,-158.633 248.1168,-148.0833 240.7745,-155.7214 247.1402,-158.633"/>
</g>
<!-- Node5 -->
<g id="node6" class="node">
<title>Node5</title>
<polygon fill="none" stroke="#bfbfbf" points="1451.5,-.5 1451.5,-19.5 1497.5,-19.5 1497.5,-.5 1451.5,-.5"/>
<text text-anchor="middle" x="1474.5" y="-7.5" font-family="Helvetica,sans-Serif" font-size="10.00" fill="#000000">stdio.h</text>
</g>
<!-- Node4&#45;&gt;Node5 -->
<g id="edge5" class="edge">
<title>Node4&#45;&gt;Node5</title>
<path fill="none" stroke="#191970" d="M1007.738,-316.2929C1157.2798,-299.34 1524.5,-252.3775 1524.5,-200 1524.5,-200 1524.5,-200 1524.5,-138.5 1524.5,-100.8735 1520.4872,-90.5128 1505.5,-56 1501.1618,-46.01 1494.6066,-35.8691 1488.6398,-27.6603"/>
<polygon fill="#191970" stroke="#191970" points="1491.3629,-25.4589 1482.5289,-19.6098 1485.7873,-29.6912 1491.3629,-25.4589"/>
</g>
<!-- Node6 -->
<g id="node7" class="node">
<title>Node6</title>
<polygon fill="none" stroke="#bfbfbf" points="980.5,-252 980.5,-271 1032.5,-271 1032.5,-252 980.5,-252"/>
<text text-anchor="middle" x="1006.5" y="-259" font-family="Helvetica,sans-Serif" font-size="10.00" fill="#000000">stdarg.h</text>
</g>
<!-- Node4&#45;&gt;Node6 -->
<g id="edge6" class="edge">
<title>Node4&#45;&gt;Node6</title>
<path fill="none" stroke="#191970" d="M955.0313,-313.3906C964.2879,-304.0581 978.539,-289.6902 989.7003,-278.4374"/>
<polygon fill="#191970" stroke="#191970" points="992.2772,-280.8095 996.8344,-271.2449 987.3072,-275.88 992.2772,-280.8095"/>
</g>
<!-- Node4&#45;&gt;Node7 -->
<g id="edge7" class="edge">
<title>Node4&#45;&gt;Node7</title>
<path fill="none" stroke="#191970" d="M937.6875,-313.3906C931.4219,-305.6839 922.3645,-294.5434 914.2471,-284.5589"/>
<polygon fill="#191970" stroke="#191970" points="916.7554,-282.0959 907.7314,-276.5446 911.324,-286.5117 916.7554,-282.0959"/>
</g>
<!-- Node8 -->
<g id="node9" class="node">
<title>Node8</title>
<g id="a_node9"><a xlink:href="constants_8h.html" target="_top" xlink:title="Energy parameter constants. ">
<polygon fill="none" stroke="#000000" points="98.5,-62 98.5,-81 256.5,-81 256.5,-62 98.5,-62"/>
<text text-anchor="middle" x="177.5" y="-69" font-family="Helvetica,sans-Serif" font-size="10.00" fill="#000000">ViennaRNA/params/constants.h</text>
</a>
</g>
</g>
<!-- Node7&#45;&gt;Node8 -->
<g id="edge8" class="edge">
<title>Node7&#45;&gt;Node8</title>
<path fill="none" stroke="#191970" d="M828.3334,-258.452C694.622,-251.9293 399.5776,-235.1365 301.5,-210 241.7432,-194.6848 208.1904,-205.6758 174.5,-154 162.2561,-135.2198 166.0949,-108.5885 170.9338,-90.7122"/>
<polygon fill="#191970" stroke="#191970" points="174.2981,-91.6786 173.8626,-81.0927 167.6016,-89.6397 174.2981,-91.6786"/>
</g>
<!-- Node10 -->
<g id="node11" class="node">
<title>Node10</title>
<g id="a_node11"><a xlink:href="fold__compound_8h.html" target="_top" xlink:title="The Basic Fold Compound API. ">
<polygon fill="none" stroke="#000000" points="712.5,-190.5 712.5,-209.5 858.5,-209.5 858.5,-190.5 712.5,-190.5"/>
<text text-anchor="middle" x="785.5" y="-197.5" font-family="Helvetica,sans-Serif" font-size="10.00" fill="#000000">ViennaRNA/fold_compound.h</text>
</a>
</g>
</g>
<!-- Node7&#45;&gt;Node10 -->
<g id="edge10" class="edge">
<title>Node7&#45;&gt;Node10</title>
<path fill="none" stroke="#191970" d="M868.591,-246.4554C851.2032,-236.734 828.6951,-224.15 811.4916,-214.5317"/>
<polygon fill="#191970" stroke="#191970" points="812.9826,-211.3554 802.5461,-209.5303 809.5665,-217.4653 812.9826,-211.3554"/>
</g>
<!-- Node11 -->
<g id="node12" class="node">
<title>Node11</title>
<g id="a_node12"><a xlink:href="model_8h.html" target="_top" xlink:title="The model details data structure and its corresponding modifiers. ">
<polygon fill="none" stroke="#000000" points="296.5,-62 296.5,-81 402.5,-81 402.5,-62 296.5,-62"/>
<text text-anchor="middle" x="349.5" y="-69" font-family="Helvetica,sans-Serif" font-size="10.00" fill="#000000">ViennaRNA/model.h</text>
</a>
</g>
</g>
<!-- Node7&#45;&gt;Node11 -->
<g id="edge34" class="edge">
<title>Node7&#45;&gt;Node11</title>
<path fill="none" stroke="#191970" d="M828.3813,-257.0039C701.0982,-247.0545 431.6925,-218.7268 368.5,-154 352.2684,-137.3743 348.8382,-109.822 348.5888,-91.1779"/>
<polygon fill="#191970" stroke="#191970" points="352.0889,-91.1928 348.7475,-81.1387 345.0898,-91.0822 352.0889,-91.1928"/>
</g>
<!-- Node7&#45;&gt;Node12 -->
<g id="edge35" class="edge">
<title>Node7&#45;&gt;Node12</title>
<path fill="none" stroke="#191970" d="M828.1885,-260.5209C697.484,-257.7642 414.7992,-247.4785 326.5,-210 298.8767,-198.2753 273.7748,-173.8428 260.6865,-156.8208"/>
<polygon fill="#191970" stroke="#191970" points="263.303,-154.454 254.7115,-148.2543 257.5616,-158.4586 263.303,-154.454"/>
</g>
<!-- Node14 -->
<g id="node15" class="node">
<title>Node14</title>
<g id="a_node15"><a xlink:href="dp__matrices_8h.html" target="_top" xlink:title="Functions to deal with standard dynamic programming (DP) matrices. ">
<polygon fill="none" stroke="#000000" points="1138,-129 1138,-148 1271,-148 1271,-129 1138,-129"/>
<text text-anchor="middle" x="1204.5" y="-136" font-family="Helvetica,sans-Serif" font-size="10.00" fill="#000000">ViennaRNA/dp_matrices.h</text>
</a>
</g>
</g>
<!-- Node7&#45;&gt;Node14 -->
<g id="edge36" class="edge">
<title>Node7&#45;&gt;Node14</title>
<path fill="none" stroke="#191970" d="M959.2523,-246.4377C1021.3763,-232.5895 1107.3302,-213.6661 1114.5,-210 1141.4379,-196.226 1166.5861,-171.4248 1183.7571,-154.9601"/>
<polygon fill="#191970" stroke="#191970" points="1186.2019,-157.4653 1191.063,-148.0515 1181.3923,-152.3793 1186.2019,-157.4653"/>
</g>
<!-- Node15 -->
<g id="node16" class="node">
<title>Node15</title>
<g id="a_node16"><a xlink:href="hard_8h.html" target="_top" xlink:title="Functions and data structures for handling of secondary structure hard constraints. ">
<polygon fill="none" stroke="#000000" points="825,-123.5 825,-153.5 944,-153.5 944,-123.5 825,-123.5"/>
<text text-anchor="start" x="833" y="-141.5" font-family="Helvetica,sans-Serif" font-size="10.00" fill="#000000">ViennaRNA/constraints</text>
<text text-anchor="middle" x="884.5" y="-130.5" font-family="Helvetica,sans-Serif" font-size="10.00" fill="#000000">/hard.h</text>
</a>
</g>
</g>
<!-- Node7&#45;&gt;Node15 -->
<g id="edge37" class="edge">
<title>Node7&#45;&gt;Node15</title>
<path fill="none" stroke="#191970" d="M889.5369,-246.4178C885.2216,-225.8539 881.5792,-188.7363 881.1844,-163.8546"/>
<polygon fill="#191970" stroke="#191970" points="884.6849,-163.7215 881.2308,-153.7056 877.685,-163.6894 884.6849,-163.7215"/>
</g>
<!-- Node17 -->
<g id="node18" class="node">
<title>Node17</title>
<g id="a_node18"><a xlink:href="soft_8h.html" target="_top" xlink:title="Functions and data structures for secondary structure soft constraints. ">
<polygon fill="none" stroke="#000000" points="962,-123.5 962,-153.5 1081,-153.5 1081,-123.5 962,-123.5"/>
<text text-anchor="start" x="970" y="-141.5" font-family="Helvetica,sans-Serif" font-size="10.00" fill="#000000">ViennaRNA/constraints</text>
<text text-anchor="middle" x="1021.5" y="-130.5" font-family="Helvetica,sans-Serif" font-size="10.00" fill="#000000">/soft.h</text>
</a>
</g>
</g>
<!-- Node7&#45;&gt;Node17 -->
<g id="edge38" class="edge">
<title>Node7&#45;&gt;Node17</title>
<path fill="none" stroke="#191970" d="M906.3358,-246.4178C925.7586,-224.9317 966.0445,-185.3741 993.5538,-160.5837"/>
<polygon fill="#191970" stroke="#191970" points="996.144,-162.9643 1001.2945,-153.7056 991.4944,-157.7315 996.144,-162.9643"/>
</g>
<!-- Node18 -->
<g id="node19" class="node">
<title>Node18</title>
<g id="a_node19"><a xlink:href="grammar_8h.html" target="_top" xlink:title="Implementations for the RNA folding grammar. ">
<polygon fill="none" stroke="#000000" points="511,-129 511,-148 628,-148 628,-129 511,-129"/>
<text text-anchor="middle" x="569.5" y="-136" font-family="Helvetica,sans-Serif" font-size="10.00" fill="#000000">ViennaRNA/grammar.h</text>
</a>
</g>
</g>
<!-- Node7&#45;&gt;Node18 -->
<g id="edge39" class="edge">
<title>Node7&#45;&gt;Node18</title>
<path fill="none" stroke="#191970" d="M828.0931,-247.3978C790.7148,-238.5963 743.7847,-225.9086 703.5,-210 663.3091,-194.1284 619.6637,-169.2779 593.4557,-153.4477"/>
<polygon fill="#191970" stroke="#191970" points="594.9865,-150.2815 584.6278,-148.057 591.3383,-156.2557 594.9865,-150.2815"/>
</g>
<!-- Node19 -->
<g id="node20" class="node">
<title>Node19</title>
<g id="a_node20"><a xlink:href="structured__domains_8h.html" target="_top" xlink:title="This module provides interfaces that deal with additional structured domains in the folding grammar...">
<polygon fill="none" stroke="#000000" points="378,-123.5 378,-153.5 493,-153.5 493,-123.5 378,-123.5"/>
<text text-anchor="start" x="386" y="-141.5" font-family="Helvetica,sans-Serif" font-size="10.00" fill="#000000">ViennaRNA/structured</text>
<text text-anchor="middle" x="435.5" y="-130.5" font-family="Helvetica,sans-Serif" font-size="10.00" fill="#000000">_domains.h</text>
</a>
</g>
</g>
<!-- Node7&#45;&gt;Node19 -->
<g id="edge40" class="edge">
<title>Node7&#45;&gt;Node19</title>
<path fill="none" stroke="#191970" d="M828.4295,-248.7186C780.7434,-239.1957 715.3333,-225.2481 658.5,-210 599.4176,-194.1484 532.7535,-172.2315 487.8286,-156.8545"/>
<polygon fill="#191970" stroke="#191970" points="488.8969,-153.5208 478.3022,-153.5803 486.6215,-160.1407 488.8969,-153.5208"/>
</g>
<!-- Node20 -->
<g id="node21" class="node">
<title>Node20</title>
<g id="a_node21"><a xlink:href="unstructured__domains_8h.html" target="_top" xlink:title="Functions to modify unstructured domains, e.g. to incorporate ligands binding to unpaired stretches...">
<polygon fill="none" stroke="#000000" points="1289,-123.5 1289,-153.5 1414,-153.5 1414,-123.5 1289,-123.5"/>
<text text-anchor="start" x="1297" y="-141.5" font-family="Helvetica,sans-Serif" font-size="10.00" fill="#000000">ViennaRNA/unstructured</text>
<text text-anchor="middle" x="1351.5" y="-130.5" font-family="Helvetica,sans-Serif" font-size="10.00" fill="#000000">_domains.h</text>
</a>
</g>
</g>
<!-- Node7&#45;&gt;Node20 -->
<g id="edge41" class="edge">
<title>Node7&#45;&gt;Node20</title>
<path fill="none" stroke="#191970" d="M960.1089,-246.4724C960.91,-246.3138 961.7073,-246.1563 962.5,-246 1046.3945,-229.4557 1069.1613,-233.0726 1151.5,-210 1203.1061,-195.5391 1260.4596,-173.1824 1300.5828,-157.3225"/>
<polygon fill="#191970" stroke="#191970" points="1301.8776,-160.5743 1309.8887,-153.6408 1299.3023,-154.0652 1301.8776,-160.5743"/>
</g>
<!-- Node21 -->
<g id="node22" class="node">
<title>Node21</title>
<g id="a_node22"><a xlink:href="utils_2structures_8h.html" target="_top" xlink:title="Various utility&#45; and helper&#45;functions for secondary structure parsing, converting, etc. ">
<polygon fill="none" stroke="#000000" points="1352.5,-62 1352.5,-81 1496.5,-81 1496.5,-62 1352.5,-62"/>
<text text-anchor="middle" x="1424.5" y="-69" font-family="Helvetica,sans-Serif" font-size="10.00" fill="#000000">ViennaRNA/utils/structures.h</text>
</a>
</g>
</g>
<!-- Node7&#45;&gt;Node21 -->
<g id="edge42" class="edge">
<title>Node7&#45;&gt;Node21</title>
<path fill="none" stroke="#191970" d="M959.6982,-246.4992C960.6374,-246.3304 961.5717,-246.1639 962.5,-246 1063.4431,-228.18 1351.5117,-234.8674 1414.5,-154 1428.2765,-136.313 1425.5812,-109.4151 1423.4627,-91.1805"/>
<polygon fill="#191970" stroke="#191970" points="1426.928,-90.6707 1422.3705,-81.1062 1419.9688,-91.4252 1426.928,-90.6707"/>
</g>
<!-- Node9 -->
<g id="node10" class="node">
<title>Node9</title>
<polygon fill="none" stroke="#bfbfbf" points="153.5,-.5 153.5,-19.5 201.5,-19.5 201.5,-.5 153.5,-.5"/>
<text text-anchor="middle" x="177.5" y="-7.5" font-family="Helvetica,sans-Serif" font-size="10.00" fill="#000000">limits.h</text>
</g>
<!-- Node8&#45;&gt;Node9 -->
<g id="edge9" class="edge">
<title>Node8&#45;&gt;Node9</title>
<path fill="none" stroke="#191970" d="M177.5,-61.8906C177.5,-53.3657 177.5,-40.6392 177.5,-29.9235"/>
<polygon fill="#191970" stroke="#191970" points="181.0001,-29.7448 177.5,-19.7449 174.0001,-29.7449 181.0001,-29.7448"/>
</g>
<!-- Node10&#45;&gt;Node11 -->
<g id="edge11" class="edge">
<title>Node10&#45;&gt;Node11</title>
<path fill="none" stroke="#191970" d="M787.8575,-190.4C791.2288,-174.095 795.2211,-141.011 777.5,-123 752.3995,-97.4889 525.8641,-81.3492 412.924,-74.819"/>
<polygon fill="#191970" stroke="#191970" points="412.8712,-71.3104 402.6882,-74.2355 412.4728,-78.299 412.8712,-71.3104"/>
</g>
<!-- Node10&#45;&gt;Node12 -->
<g id="edge12" class="edge">
<title>Node10&#45;&gt;Node12</title>
<path fill="none" stroke="#191970" d="M712.3729,-192.4469C629.0652,-183.723 488.8784,-168.6801 368.5,-154 356.6825,-152.5589 344.1978,-150.9654 331.9703,-149.3649"/>
<polygon fill="#191970" stroke="#191970" points="332.1517,-145.8586 321.7801,-148.022 331.237,-152.7986 332.1517,-145.8586"/>
</g>
<!-- Node13 -->
<g id="node14" class="node">
<title>Node13</title>
<g id="a_node14"><a xlink:href="sequence_8h.html" target="_top" xlink:title="Functions and data structures related to sequence representations ,. ">
<polygon fill="none" stroke="#000000" points="646.5,-129 646.5,-148 768.5,-148 768.5,-129 646.5,-129"/>
<text text-anchor="middle" x="707.5" y="-136" font-family="Helvetica,sans-Serif" font-size="10.00" fill="#000000">ViennaRNA/sequence.h</text>
</a>
</g>
</g>
<!-- Node10&#45;&gt;Node13 -->
<g id="edge16" class="edge">
<title>Node10&#45;&gt;Node13</title>
<path fill="none" stroke="#191970" d="M773.3125,-190.3906C761.063,-180.7324 741.9737,-165.6812 727.5023,-154.271"/>
<polygon fill="#191970" stroke="#191970" points="729.6217,-151.485 719.6019,-148.0419 725.2876,-156.9819 729.6217,-151.485"/>
</g>
<!-- Node10&#45;&gt;Node14 -->
<g id="edge17" class="edge">
<title>Node10&#45;&gt;Node14</title>
<path fill="none" stroke="#191970" d="M850.509,-190.4581C926.0077,-179.3766 1050.3192,-161.1304 1129.7457,-149.4723"/>
<polygon fill="#191970" stroke="#191970" points="1130.2975,-152.9289 1139.6832,-148.0137 1129.2809,-146.0031 1130.2975,-152.9289"/>
</g>
<!-- Node10&#45;&gt;Node15 -->
<g id="edge19" class="edge">
<title>Node10&#45;&gt;Node15</title>
<path fill="none" stroke="#191970" d="M800.9688,-190.3906C814.4913,-181.9903 834.5811,-169.5103 851.6698,-158.8945"/>
<polygon fill="#191970" stroke="#191970" points="853.6344,-161.7945 860.2819,-153.5446 849.9405,-155.8484 853.6344,-161.7945"/>
</g>
<!-- Node10&#45;&gt;Node17 -->
<g id="edge23" class="edge">
<title>Node10&#45;&gt;Node17</title>
<path fill="none" stroke="#191970" d="M822.1161,-190.4581C857.1889,-181.3183 910.9644,-167.3048 953.8329,-156.1336"/>
<polygon fill="#191970" stroke="#191970" points="954.8439,-159.4871 963.6381,-153.5784 953.0786,-152.7133 954.8439,-159.4871"/>
</g>
<!-- Node10&#45;&gt;Node18 -->
<g id="edge26" class="edge">
<title>Node10&#45;&gt;Node18</title>
<path fill="none" stroke="#191970" d="M746.6875,-190.3906C707.284,-179.7621 646.8538,-162.6025 607.6821,-150.9514"/>
<polygon fill="#191970" stroke="#191970" points="608.5474,-147.557 597.9637,-148.0419 606.5398,-154.2629 608.5474,-147.557"/>
</g>
<!-- Node10&#45;&gt;Node19 -->
<g id="edge28" class="edge">
<title>Node10&#45;&gt;Node19</title>
<path fill="none" stroke="#191970" d="M718.4128,-190.489C663.0808,-182.3346 582.3158,-169.723 503.1836,-154.2631"/>
<polygon fill="#191970" stroke="#191970" points="503.5294,-150.764 493.0413,-152.264 502.1756,-157.6319 503.5294,-150.764"/>
</g>
<!-- Node10&#45;&gt;Node20 -->
<g id="edge29" class="edge">
<title>Node10&#45;&gt;Node20</title>
<path fill="none" stroke="#191970" d="M858.8121,-195.9971C953.6613,-190.1911 1124.1478,-177.6272 1278.7019,-154.1712"/>
<polygon fill="#191970" stroke="#191970" points="1279.5058,-157.5889 1288.8581,-152.6104 1278.4425,-150.6701 1279.5058,-157.5889"/>
</g>
<!-- Node12&#45;&gt;Node7 -->
<g id="edge14" class="edge">
<title>Node12&#45;&gt;Node7</title>
<path fill="none" stroke="#191970" d="M265.6957,-148.2543C282.5642,-164.3579 311.7612,-196.1041 344.5,-210 428.2835,-245.5618 687.0785,-256.6411 818.0349,-260.0362"/>
<polygon fill="#191970" stroke="#191970" points="818.3024,-263.544 828.387,-260.2955 818.4778,-256.5461 818.3024,-263.544"/>
</g>
<!-- Node12&#45;&gt;Node8 -->
<g id="edge13" class="edge">
<title>Node12&#45;&gt;Node8</title>
<path fill="none" stroke="#191970" d="M241.7543,-128.9005C229.836,-118.2535 210.3943,-100.8856 196.0132,-88.0385"/>
<polygon fill="#191970" stroke="#191970" points="198.0151,-85.1337 188.2257,-81.0817 193.3516,-90.354 198.0151,-85.1337"/>
</g>
<!-- Node12&#45;&gt;Node11 -->
<g id="edge15" class="edge">
<title>Node12&#45;&gt;Node11</title>
<path fill="none" stroke="#191970" d="M266.3977,-128.9005C282.3164,-117.9052 308.6121,-99.7422 327.3599,-86.7927"/>
<polygon fill="#191970" stroke="#191970" points="329.3892,-89.6448 335.628,-81.0817 325.4108,-83.8852 329.3892,-89.6448"/>
</g>
<!-- Node14&#45;&gt;Node7 -->
<g id="edge18" class="edge">
<title>Node14&#45;&gt;Node7</title>
<path fill="none" stroke="#191970" d="M1202.1591,-148.0515C1192.2472,-163.5693 1163.5635,-194.1164 1132.5,-210 1125.3259,-213.6683 1039.2726,-232.6123 972.8399,-246.4628"/>
<polygon fill="#191970" stroke="#191970" points="971.8567,-243.0922 962.7774,-248.5528 973.2803,-249.9459 971.8567,-243.0922"/>
</g>
<!-- Node15&#45;&gt;Node7 -->
<g id="edge20" class="edge">
<title>Node15&#45;&gt;Node7</title>
<path fill="none" stroke="#191970" d="M890.4889,-153.7056C894.8015,-174.3355 898.4361,-211.4615 898.818,-236.2943"/>
<polygon fill="#191970" stroke="#191970" points="895.3175,-236.3997 898.7654,-246.4178 902.3174,-236.4361 895.3175,-236.3997"/>
</g>
<!-- Node16 -->
<g id="node17" class="node">
<title>Node16</title>
<g id="a_node17"><a xlink:href="constraints_2basic_8h.html" target="_top" xlink:title="Functions and data structures for constraining secondary structure predictions and evaluation...">
<polygon fill="none" stroke="#000000" points="962,-56.5 962,-86.5 1081,-86.5 1081,-56.5 962,-56.5"/>
<text text-anchor="start" x="970" y="-74.5" font-family="Helvetica,sans-Serif" font-size="10.00" fill="#000000">ViennaRNA/constraints</text>
<text text-anchor="middle" x="1021.5" y="-63.5" font-family="Helvetica,sans-Serif" font-size="10.00" fill="#000000">/basic.h</text>
</a>
</g>
</g>
<!-- Node15&#45;&gt;Node16 -->
<g id="edge21" class="edge">
<title>Node15&#45;&gt;Node16</title>
<path fill="none" stroke="#191970" d="M915.2455,-123.4639C934.7624,-113.9191 960.2257,-101.4663 981.3325,-91.144"/>
<polygon fill="#191970" stroke="#191970" points="982.9375,-94.2552 990.3831,-86.7177 979.8622,-87.9669 982.9375,-94.2552"/>
</g>
<!-- Node16&#45;&gt;Node7 -->
<g id="edge22" class="edge">
<title>Node16&#45;&gt;Node7</title>
<path fill="none" stroke="#191970" d="M1053.1421,-86.5161C1067.3158,-95.0591 1082.5935,-107.2327 1090.5,-123 1096.6759,-135.3161 1097.5065,-142.1368 1090.5,-154 1063.4854,-199.7404 1009.2859,-227.3501 964.8703,-243.1142"/>
<polygon fill="#191970" stroke="#191970" points="963.5974,-239.8504 955.266,-246.3954 965.8605,-246.4745 963.5974,-239.8504"/>
</g>
<!-- Node17&#45;&gt;Node7 -->
<g id="edge24" class="edge">
<title>Node17&#45;&gt;Node7</title>
<path fill="none" stroke="#191970" d="M1010.5526,-153.7056C991.0502,-175.2606 950.749,-214.8244 923.2886,-239.5583"/>
<polygon fill="#191970" stroke="#191970" points="920.7175,-237.1606 915.5643,-246.4178 925.3656,-242.3947 920.7175,-237.1606"/>
</g>
<!-- Node17&#45;&gt;Node16 -->
<g id="edge25" class="edge">
<title>Node17&#45;&gt;Node16</title>
<path fill="none" stroke="#191970" d="M1021.5,-123.2967C1021.5,-115.5013 1021.5,-105.7991 1021.5,-96.9064"/>
<polygon fill="#191970" stroke="#191970" points="1025.0001,-96.6431 1021.5,-86.6432 1018.0001,-96.6432 1025.0001,-96.6431"/>
</g>
<!-- Node18&#45;&gt;Node10 -->
<g id="edge27" class="edge">
<title>Node18&#45;&gt;Node10</title>
<path fill="none" stroke="#191970" d="M608.0623,-148.0419C647.3765,-158.6427 707.807,-175.8001 747.0686,-187.4745"/>
<polygon fill="#191970" stroke="#191970" points="746.2288,-190.8765 756.8125,-190.3906 748.2359,-184.1704 746.2288,-190.8765"/>
</g>
<!-- Node20&#45;&gt;Node7 -->
<g id="edge30" class="edge">
<title>Node20&#45;&gt;Node7</title>
<path fill="none" stroke="#191970" d="M1323.1994,-153.6408C1287.6925,-169.547 1225.2433,-194.3798 1169.5,-210 1087.1613,-233.0726 1064.3945,-229.4557 980.5,-246 977.8659,-246.5194 975.1812,-247.052 972.4654,-247.5925"/>
<polygon fill="#191970" stroke="#191970" points="971.6527,-244.1855 962.531,-249.5748 973.0226,-251.0502 971.6527,-244.1855"/>
</g>
<!-- Node20&#45;&gt;Node21 -->
<g id="edge31" class="edge">
<title>Node20&#45;&gt;Node21</title>
<path fill="none" stroke="#191970" d="M1368.0648,-123.2967C1379.549,-112.7564 1394.8312,-98.7303 1406.5962,-87.9323"/>
<polygon fill="#191970" stroke="#191970" points="1409.0886,-90.3954 1414.0894,-81.055 1404.3553,-85.2382 1409.0886,-90.3954"/>
</g>
<!-- Node21&#45;&gt;Node5 -->
<g id="edge32" class="edge">
<title>Node21&#45;&gt;Node5</title>
<path fill="none" stroke="#191970" d="M1432.3125,-61.8906C1439.754,-52.7376 1451.1334,-38.7409 1460.1992,-27.59"/>
<polygon fill="#191970" stroke="#191970" points="1462.9847,-29.712 1466.5774,-19.7449 1457.5533,-25.2962 1462.9847,-29.712"/>
</g>
<!-- Node21&#45;&gt;Node7 -->
<g id="edge33" class="edge">
<title>Node21&#45;&gt;Node7</title>
<path fill="none" stroke="#191970" d="M1433.1272,-81.1062C1441.7529,-97.8531 1449.1358,-132.6421 1432.5,-154 1369.5117,-234.8674 1081.4431,-228.18 980.5,-246 978.0053,-246.4404 975.4668,-246.8998 972.9009,-247.373"/>
<polygon fill="#191970" stroke="#191970" points="972.0821,-243.9656 962.9024,-249.2556 973.3774,-250.8447 972.0821,-243.9656"/>
</g>
</g>
</svg>
