<?xml version="1.0" encoding="UTF-8" standalone="no"?>
<!DOCTYPE svg PUBLIC "-//W3C//DTD SVG 1.1//EN"
 "http://www.w3.org/Graphics/SVG/1.1/DTD/svg11.dtd">
<!-- Generated by graphviz version 2.40.1 (20161225.0304)
 -->
<!-- Title: ViennaRNA/interior_loops.h Pages: 1 -->
<!--zoomable 464 -->
<svg id="main" version="1.1" xmlns="http://www.w3.org/2000/svg" xmlns:xlink="http://www.w3.org/1999/xlink" xml:space="preserve" onload="init(evt)">
<style type="text/css"><![CDATA[
.edge:hover path { stroke: red; }
.edge:hover polygon { stroke: red; fill: red; }
]]></style>
<script type="text/javascript"><![CDATA[
var edges = document.getElementsByTagName('g');
if (edges && edges.length) {
  for (var i=0;i<edges.length;i++) {
    if (edges[i].id.substr(0,4)=='edge') {
      edges[i].setAttribute('class','edge');
    }
  }
}
]]></script>
        <defs>
                <circle id="rim" cx="0" cy="0" r="7"/>
                <circle id="rim2" cx="0" cy="0" r="3.5"/>
                <g id="zoomPlus">
                        <use xlink:href="#rim" fill="#404040">
                                <set attributeName="fill" to="#808080" begin="zoomplus.mouseover" end="zoomplus.mouseout"/>
                        </use>
                        <path d="M-4,0h8M0,-4v8" fill="none" stroke="white" stroke-width="1.5" pointer-events="none"/>
                </g>
                <g id="zoomMin">
                        <use xlink:href="#rim" fill="#404040">
                                <set attributeName="fill" to="#808080" begin="zoomminus.mouseover" end="zoomminus.mouseout"/>
                        </use>
                        <path d="M-4,0h8" fill="none" stroke="white" stroke-width="1.5" pointer-events="none"/>
                </g>
                <g id="dirArrow">
                        <path fill="none" stroke="white" stroke-width="1.5" d="M0,-3.0v7 M-2.5,-0.5L0,-3.0L2.5,-0.5"/>
                </g>
               <g id="resetDef">
                       <use xlink:href="#rim2" fill="#404040">
                               <set attributeName="fill" to="#808080" begin="reset.mouseover" end="reset.mouseout"/>
                       </use>
               </g>
        </defs>

<script type="text/javascript">
var viewWidth = 1573;
var viewHeight = 464;
var sectionId = 'dynsection-0';
</script>
<script xlink:href="svgpan.js"/>
<svg id="graph" class="graph">
<g id="viewport">
<title>ViennaRNA/interior_loops.h</title>
<!-- Node0 -->
<g id="node1" class="node">
<title>Node0</title>
<polygon fill="#bfbfbf" stroke="#000000" points="520.5,-425.5 520.5,-455.5 621.5,-455.5 621.5,-425.5 520.5,-425.5"/>
<text text-anchor="start" x="528.5" y="-443.5" font-family="Helvetica,sans-Serif" font-size="10.00" fill="#000000">ViennaRNA/interior</text>
<text text-anchor="middle" x="571" y="-432.5" font-family="Helvetica,sans-Serif" font-size="10.00" fill="#000000">_loops.h</text>
</g>
<!-- Node1 -->
<g id="node2" class="node">
<title>Node1</title>
<g id="a_node2"><a xlink:href="internal_8h.html" target="_top" xlink:title="Energy evaluation of interior loops for MFE and partition function calculations. ">
<polygon fill="none" stroke="#000000" points="502.5,-369.5 502.5,-388.5 639.5,-388.5 639.5,-369.5 502.5,-369.5"/>
<text text-anchor="middle" x="571" y="-376.5" font-family="Helvetica,sans-Serif" font-size="10.00" fill="#000000">ViennaRNA/loops/internal.h</text>
</a>
</g>
</g>
<!-- Node0&#45;&gt;Node1 -->
<g id="edge1" class="edge">
<title>Node0&#45;&gt;Node1</title>
<path fill="none" stroke="#191970" d="M571,-425.2977C571,-417.3834 571,-407.6043 571,-399.0759"/>
<polygon fill="#191970" stroke="#191970" points="574.5001,-398.8469 571,-388.8469 567.5001,-398.847 574.5001,-398.8469"/>
</g>
<!-- Node2 -->
<g id="node3" class="node">
<title>Node2</title>
<g id="a_node3"><a xlink:href="utils_2basic_8h.html" target="_top" xlink:title="General utility&#45; and helper&#45;functions used throughout the ViennaRNA Package. ">
<polygon fill="none" stroke="#000000" points="292,-313.5 292,-332.5 416,-332.5 416,-313.5 292,-313.5"/>
<text text-anchor="middle" x="354" y="-320.5" font-family="Helvetica,sans-Serif" font-size="10.00" fill="#000000">ViennaRNA/utils/basic.h</text>
</a>
</g>
</g>
<!-- Node1&#45;&gt;Node2 -->
<g id="edge2" class="edge">
<title>Node1&#45;&gt;Node2</title>
<path fill="none" stroke="#191970" d="M533.6964,-369.3733C496.8315,-359.8598 440.334,-345.2797 400.5494,-335.0127"/>
<polygon fill="#191970" stroke="#191970" points="401.3742,-331.611 390.8169,-332.5011 399.625,-338.3889 401.3742,-331.611"/>
</g>
<!-- Node5 -->
<g id="node6" class="node">
<title>Node5</title>
<g id="a_node6"><a xlink:href="datastructures_2basic_8h.html" target="_top" xlink:title="Various data structures and pre&#45;processor macros. ">
<polygon fill="none" stroke="#000000" points="719,-246.5 719,-276.5 853,-276.5 853,-246.5 719,-246.5"/>
<text text-anchor="start" x="727" y="-264.5" font-family="Helvetica,sans-Serif" font-size="10.00" fill="#000000">ViennaRNA/datastructures</text>
<text text-anchor="middle" x="786" y="-253.5" font-family="Helvetica,sans-Serif" font-size="10.00" fill="#000000">/basic.h</text>
</a>
</g>
</g>
<!-- Node1&#45;&gt;Node5 -->
<g id="edge43" class="edge">
<title>Node1&#45;&gt;Node5</title>
<path fill="none" stroke="#191970" d="M588.5944,-369.3845C623.6644,-350.2183 702.913,-306.908 749.6347,-281.374"/>
<polygon fill="#191970" stroke="#191970" points="751.4261,-284.3837 758.5227,-276.5167 748.0691,-278.2411 751.4261,-284.3837"/>
</g>
<!-- Node10 -->
<g id="node11" class="node">
<title>Node10</title>
<g id="a_node11"><a xlink:href="params_2basic_8h.html" target="_top" xlink:title="Functions to deal with sets of energy parameters. ">
<polygon fill="none" stroke="#000000" points="276,-129 276,-148 414,-148 414,-129 276,-129"/>
<text text-anchor="middle" x="345" y="-136" font-family="Helvetica,sans-Serif" font-size="10.00" fill="#000000">ViennaRNA/params/basic.h</text>
</a>
</g>
</g>
<!-- Node1&#45;&gt;Node10 -->
<g id="edge44" class="edge">
<title>Node1&#45;&gt;Node10</title>
<path fill="none" stroke="#191970" d="M561.8606,-369.2742C527.4276,-332.6321 405.2513,-202.617 361.0819,-155.6138"/>
<polygon fill="#191970" stroke="#191970" points="363.4041,-152.9738 354.0055,-148.0833 358.3029,-157.7674 363.4041,-152.9738"/>
</g>
<!-- Node13 -->
<g id="node14" class="node">
<title>Node13</title>
<g id="a_node14"><a xlink:href="hard_8h.html" target="_top" xlink:title="Functions and data structures for handling of secondary structure hard constraints. ">
<polygon fill="none" stroke="#000000" points="1269.5,-123.5 1269.5,-153.5 1388.5,-153.5 1388.5,-123.5 1269.5,-123.5"/>
<text text-anchor="start" x="1277.5" y="-141.5" font-family="Helvetica,sans-Serif" font-size="10.00" fill="#000000">ViennaRNA/constraints</text>
<text text-anchor="middle" x="1329" y="-130.5" font-family="Helvetica,sans-Serif" font-size="10.00" fill="#000000">/hard.h</text>
</a>
</g>
</g>
<!-- Node1&#45;&gt;Node13 -->
<g id="edge45" class="edge">
<title>Node1&#45;&gt;Node13</title>
<path fill="none" stroke="#191970" d="M639.5844,-370.2178C798.8928,-348.6846 1188.2053,-289.1915 1291,-210 1306.1641,-198.3178 1315.9477,-178.8334 1321.7843,-163.1524"/>
<polygon fill="#191970" stroke="#191970" points="1325.155,-164.1118 1325.0667,-153.5173 1318.5289,-161.8545 1325.155,-164.1118"/>
</g>
<!-- Node15 -->
<g id="node16" class="node">
<title>Node15</title>
<g id="a_node16"><a xlink:href="soft_8h.html" target="_top" xlink:title="Functions and data structures for secondary structure soft constraints. ">
<polygon fill="none" stroke="#000000" points="1445.5,-123.5 1445.5,-153.5 1564.5,-153.5 1564.5,-123.5 1445.5,-123.5"/>
<text text-anchor="start" x="1453.5" y="-141.5" font-family="Helvetica,sans-Serif" font-size="10.00" fill="#000000">ViennaRNA/constraints</text>
<text text-anchor="middle" x="1505" y="-130.5" font-family="Helvetica,sans-Serif" font-size="10.00" fill="#000000">/soft.h</text>
</a>
</g>
</g>
<!-- Node1&#45;&gt;Node15 -->
<g id="edge46" class="edge">
<title>Node1&#45;&gt;Node15</title>
<path fill="none" stroke="#191970" d="M639.6384,-372.4242C713.9561,-364.8433 835.8413,-351.0691 940,-333 1161.23,-294.6218 1234.8572,-321.0626 1430,-210 1451.9682,-197.4971 1472.415,-177.1798 1486.3926,-161.3925"/>
<polygon fill="#191970" stroke="#191970" points="1489.2157,-163.4777 1493.0861,-153.6151 1483.9101,-158.9115 1489.2157,-163.4777"/>
</g>
<!-- Node20 -->
<g id="node21" class="node">
<title>Node20</title>
<g id="a_node21"><a xlink:href="default_8h_source.html" target="_top" xlink:title="ViennaRNA/params/default.h">
<polygon fill="none" stroke="#000000" points="0,-190.5 0,-209.5 144,-209.5 144,-190.5 0,-190.5"/>
<text text-anchor="middle" x="72" y="-197.5" font-family="Helvetica,sans-Serif" font-size="10.00" fill="#000000">ViennaRNA/params/default.h</text>
</a>
</g>
</g>
<!-- Node1&#45;&gt;Node20 -->
<g id="edge41" class="edge">
<title>Node1&#45;&gt;Node20</title>
<path fill="none" stroke="#191970" d="M502.3726,-373.1586C443.3033,-366.9258 356.2691,-354.8474 283,-333 224.6623,-315.6048 209.0629,-310.1429 158,-277 131.13,-259.5598 104.2866,-233.8791 87.9121,-217.0478"/>
<polygon fill="#191970" stroke="#191970" points="90.2019,-214.3782 80.7604,-209.5709 85.1433,-219.2167 90.2019,-214.3782"/>
</g>
<!-- Node3 -->
<g id="node4" class="node">
<title>Node3</title>
<polygon fill="none" stroke="#bfbfbf" points="450,-.5 450,-19.5 496,-19.5 496,-.5 450,-.5"/>
<text text-anchor="middle" x="473" y="-7.5" font-family="Helvetica,sans-Serif" font-size="10.00" fill="#000000">stdio.h</text>
</g>
<!-- Node2&#45;&gt;Node3 -->
<g id="edge3" class="edge">
<title>Node2&#45;&gt;Node3</title>
<path fill="none" stroke="#191970" d="M309.0112,-313.4012C255.1158,-298.953 172,-265.976 172,-200 172,-200 172,-200 172,-138.5 172,-100.8735 163.5479,-81.732 191,-56 226.3975,-22.8204 372.3469,-13.4888 439.2353,-10.9326"/>
<polygon fill="#191970" stroke="#191970" points="439.7681,-14.4161 449.6385,-10.5657 439.5214,-7.4204 439.7681,-14.4161"/>
</g>
<!-- Node4 -->
<g id="node5" class="node">
<title>Node4</title>
<polygon fill="none" stroke="#bfbfbf" points="328,-252 328,-271 380,-271 380,-252 328,-252"/>
<text text-anchor="middle" x="354" y="-259" font-family="Helvetica,sans-Serif" font-size="10.00" fill="#000000">stdarg.h</text>
</g>
<!-- Node2&#45;&gt;Node4 -->
<g id="edge4" class="edge">
<title>Node2&#45;&gt;Node4</title>
<path fill="none" stroke="#191970" d="M354,-313.3906C354,-304.8657 354,-292.1392 354,-281.4235"/>
<polygon fill="#191970" stroke="#191970" points="357.5001,-281.2448 354,-271.2449 350.5001,-281.2449 357.5001,-281.2448"/>
</g>
<!-- Node2&#45;&gt;Node5 -->
<g id="edge5" class="edge">
<title>Node2&#45;&gt;Node5</title>
<path fill="none" stroke="#191970" d="M416.3551,-314.1231C493.5945,-303.1272 625.1798,-284.3945 708.74,-272.4988"/>
<polygon fill="#191970" stroke="#191970" points="709.2784,-275.9575 718.6853,-271.083 708.2918,-269.0274 709.2784,-275.9575"/>
</g>
<!-- Node6 -->
<g id="node7" class="node">
<title>Node6</title>
<g id="a_node7"><a xlink:href="constants_8h.html" target="_top" xlink:title="Energy parameter constants. ">
<polygon fill="none" stroke="#000000" points="200,-62 200,-81 358,-81 358,-62 200,-62"/>
<text text-anchor="middle" x="279" y="-69" font-family="Helvetica,sans-Serif" font-size="10.00" fill="#000000">ViennaRNA/params/constants.h</text>
</a>
</g>
</g>
<!-- Node5&#45;&gt;Node6 -->
<g id="edge6" class="edge">
<title>Node5&#45;&gt;Node6</title>
<path fill="none" stroke="#191970" d="M718.5236,-258.0388C590.7751,-249.892 321.4726,-224.5613 267,-154 252.8957,-135.7299 261.0196,-108.2087 269.1518,-90.0513"/>
<polygon fill="#191970" stroke="#191970" points="272.3054,-91.5693 273.5293,-81.0454 266.0097,-88.5091 272.3054,-91.5693"/>
</g>
<!-- Node8 -->
<g id="node9" class="node">
<title>Node8</title>
<g id="a_node9"><a xlink:href="fold__compound_8h.html" target="_top" xlink:title="The Basic Fold Compound API. ">
<polygon fill="none" stroke="#000000" points="764,-190.5 764,-209.5 910,-209.5 910,-190.5 764,-190.5"/>
<text text-anchor="middle" x="837" y="-197.5" font-family="Helvetica,sans-Serif" font-size="10.00" fill="#000000">ViennaRNA/fold_compound.h</text>
</a>
</g>
</g>
<!-- Node5&#45;&gt;Node8 -->
<g id="edge8" class="edge">
<title>Node5&#45;&gt;Node8</title>
<path fill="none" stroke="#191970" d="M798.6067,-246.2977C805.7598,-237.672 814.7497,-226.8312 822.2318,-217.8087"/>
<polygon fill="#191970" stroke="#191970" points="825.145,-219.7787 828.8343,-209.8469 819.7567,-215.3103 825.145,-219.7787"/>
</g>
<!-- Node9 -->
<g id="node10" class="node">
<title>Node9</title>
<g id="a_node10"><a xlink:href="model_8h.html" target="_top" xlink:title="The model details data structure and its corresponding modifiers. ">
<polygon fill="none" stroke="#000000" points="873,-62 873,-81 979,-81 979,-62 873,-62"/>
<text text-anchor="middle" x="926" y="-69" font-family="Helvetica,sans-Serif" font-size="10.00" fill="#000000">ViennaRNA/model.h</text>
</a>
</g>
</g>
<!-- Node5&#45;&gt;Node9 -->
<g id="edge32" class="edge">
<title>Node5&#45;&gt;Node9</title>
<path fill="none" stroke="#191970" d="M853.283,-254.9027C964.0402,-242.4973 1177.0203,-211.6089 1222,-154 1230.479,-143.1403 1230.8682,-133.5443 1222,-123 1192.8812,-88.3775 1067.3232,-77.0296 989.3867,-73.3112"/>
<polygon fill="#191970" stroke="#191970" points="989.3366,-69.8056 979.1901,-72.8551 989.0237,-76.7986 989.3366,-69.8056"/>
</g>
<!-- Node5&#45;&gt;Node10 -->
<g id="edge33" class="edge">
<title>Node5&#45;&gt;Node10</title>
<path fill="none" stroke="#191970" d="M718.7742,-250.8848C668.1693,-241.6947 597.5711,-227.1928 537,-210 477.3998,-193.0828 409.8702,-167.7467 372.7304,-152.2164"/>
<polygon fill="#191970" stroke="#191970" points="373.6646,-148.8101 363.0928,-148.1113 370.9214,-155.2502 373.6646,-148.8101"/>
</g>
<!-- Node12 -->
<g id="node13" class="node">
<title>Node12</title>
<g id="a_node13"><a xlink:href="dp__matrices_8h.html" target="_top" xlink:title="Functions to deal with standard dynamic programming (DP) matrices. ">
<polygon fill="none" stroke="#000000" points="432.5,-129 432.5,-148 565.5,-148 565.5,-129 432.5,-129"/>
<text text-anchor="middle" x="499" y="-136" font-family="Helvetica,sans-Serif" font-size="10.00" fill="#000000">ViennaRNA/dp_matrices.h</text>
</a>
</g>
</g>
<!-- Node5&#45;&gt;Node12 -->
<g id="edge34" class="edge">
<title>Node5&#45;&gt;Node12</title>
<path fill="none" stroke="#191970" d="M718.9934,-254.3043C674.8264,-247.357 617.0068,-234.1908 571,-210 545.225,-196.4473 520.9224,-173.0365 507.7931,-156.7089"/>
<polygon fill="#191970" stroke="#191970" points="510.4671,-154.438 501.7102,-148.4742 504.8367,-158.5972 510.4671,-154.438"/>
</g>
<!-- Node5&#45;&gt;Node13 -->
<g id="edge35" class="edge">
<title>Node5&#45;&gt;Node13</title>
<path fill="none" stroke="#191970" d="M853.2313,-259.2232C963.6055,-254.7167 1177.5012,-242.147 1246,-210 1269.3484,-199.0424 1289.8976,-177.7032 1304.9932,-161.1772"/>
<polygon fill="#191970" stroke="#191970" points="1307.8187,-163.2722 1311.954,-153.5177 1302.6383,-158.5643 1307.8187,-163.2722"/>
</g>
<!-- Node5&#45;&gt;Node15 -->
<g id="edge36" class="edge">
<title>Node5&#45;&gt;Node15</title>
<path fill="none" stroke="#191970" d="M853.1188,-259.4231C986.8383,-254.7909 1281.5456,-241.443 1378,-210 1412.2249,-198.8431 1446.9315,-176.1455 1471.5806,-159.3016"/>
<polygon fill="#191970" stroke="#191970" points="1473.5989,-162.1614 1479.8625,-153.6163 1469.6373,-156.3903 1473.5989,-162.1614"/>
</g>
<!-- Node16 -->
<g id="node17" class="node">
<title>Node16</title>
<g id="a_node17"><a xlink:href="grammar_8h.html" target="_top" xlink:title="Implementations for the RNA folding grammar. ">
<polygon fill="none" stroke="#000000" points="640.5,-129 640.5,-148 757.5,-148 757.5,-129 640.5,-129"/>
<text text-anchor="middle" x="699" y="-136" font-family="Helvetica,sans-Serif" font-size="10.00" fill="#000000">ViennaRNA/grammar.h</text>
</a>
</g>
</g>
<!-- Node5&#45;&gt;Node16 -->
<g id="edge37" class="edge">
<title>Node5&#45;&gt;Node16</title>
<path fill="none" stroke="#191970" d="M775.3321,-246.4178C759.2385,-223.6648 728.8107,-180.6461 711.632,-156.3591"/>
<polygon fill="#191970" stroke="#191970" points="714.3865,-154.1923 705.7544,-148.0493 708.6716,-158.2346 714.3865,-154.1923"/>
</g>
<!-- Node17 -->
<g id="node18" class="node">
<title>Node17</title>
<g id="a_node18"><a xlink:href="structured__domains_8h.html" target="_top" xlink:title="This module provides interfaces that deal with additional structured domains in the folding grammar...">
<polygon fill="none" stroke="#000000" points="1097.5,-123.5 1097.5,-153.5 1212.5,-153.5 1212.5,-123.5 1097.5,-123.5"/>
<text text-anchor="start" x="1105.5" y="-141.5" font-family="Helvetica,sans-Serif" font-size="10.00" fill="#000000">ViennaRNA/structured</text>
<text text-anchor="middle" x="1155" y="-130.5" font-family="Helvetica,sans-Serif" font-size="10.00" fill="#000000">_domains.h</text>
</a>
</g>
</g>
<!-- Node5&#45;&gt;Node17 -->
<g id="edge38" class="edge">
<title>Node5&#45;&gt;Node17</title>
<path fill="none" stroke="#191970" d="M838.6186,-246.4511C872.5539,-236.5493 917.5568,-223.0507 957,-210 1008.1272,-193.0834 1065.9957,-171.9527 1105.9066,-157.0636"/>
<polygon fill="#191970" stroke="#191970" points="1107.2583,-160.2949 1115.3987,-153.5138 1104.8063,-153.7384 1107.2583,-160.2949"/>
</g>
<!-- Node18 -->
<g id="node19" class="node">
<title>Node18</title>
<g id="a_node19"><a xlink:href="unstructured__domains_8h.html" target="_top" xlink:title="Functions to modify unstructured domains, e.g. to incorporate ligands binding to unpaired stretches...">
<polygon fill="none" stroke="#000000" points="954.5,-123.5 954.5,-153.5 1079.5,-153.5 1079.5,-123.5 954.5,-123.5"/>
<text text-anchor="start" x="962.5" y="-141.5" font-family="Helvetica,sans-Serif" font-size="10.00" fill="#000000">ViennaRNA/unstructured</text>
<text text-anchor="middle" x="1017" y="-130.5" font-family="Helvetica,sans-Serif" font-size="10.00" fill="#000000">_domains.h</text>
</a>
</g>
</g>
<!-- Node5&#45;&gt;Node18 -->
<g id="edge39" class="edge">
<title>Node5&#45;&gt;Node18</title>
<path fill="none" stroke="#191970" d="M825.546,-246.4991C850.4897,-237.4616 882.836,-224.8354 910,-210 936.3179,-195.6267 963.6759,-175.124 984.3244,-159.7563"/>
<polygon fill="#191970" stroke="#191970" points="986.5087,-162.4939 992.4567,-153.7262 982.3393,-156.871 986.5087,-162.4939"/>
</g>
<!-- Node19 -->
<g id="node20" class="node">
<title>Node19</title>
<g id="a_node20"><a xlink:href="utils_2structures_8h.html" target="_top" xlink:title="Various utility&#45; and helper&#45;functions for secondary structure parsing, converting, etc. ">
<polygon fill="none" stroke="#000000" points="531,-62 531,-81 675,-81 675,-62 531,-62"/>
<text text-anchor="middle" x="603" y="-69" font-family="Helvetica,sans-Serif" font-size="10.00" fill="#000000">ViennaRNA/utils/structures.h</text>
</a>
</g>
</g>
<!-- Node5&#45;&gt;Node19 -->
<g id="edge40" class="edge">
<title>Node5&#45;&gt;Node19</title>
<path fill="none" stroke="#191970" d="M746.8662,-246.4858C709.7824,-228.9176 655.4473,-196.7088 623,-154 608.7686,-135.2678 601.1405,-108.9867 599.3318,-91.1581"/>
<polygon fill="#191970" stroke="#191970" points="602.8257,-90.9246 598.9611,-81.0597 595.8304,-91.1815 602.8257,-90.9246"/>
</g>
<!-- Node7 -->
<g id="node8" class="node">
<title>Node7</title>
<polygon fill="none" stroke="#bfbfbf" points="255,-.5 255,-19.5 303,-19.5 303,-.5 255,-.5"/>
<text text-anchor="middle" x="279" y="-7.5" font-family="Helvetica,sans-Serif" font-size="10.00" fill="#000000">limits.h</text>
</g>
<!-- Node6&#45;&gt;Node7 -->
<g id="edge7" class="edge">
<title>Node6&#45;&gt;Node7</title>
<path fill="none" stroke="#191970" d="M279,-61.8906C279,-53.3657 279,-40.6392 279,-29.9235"/>
<polygon fill="#191970" stroke="#191970" points="282.5001,-29.7448 279,-19.7449 275.5001,-29.7449 282.5001,-29.7448"/>
</g>
<!-- Node8&#45;&gt;Node9 -->
<g id="edge9" class="edge">
<title>Node8&#45;&gt;Node9</title>
<path fill="none" stroke="#191970" d="M860.2652,-190.3548C875.8106,-182.7278 895.4555,-170.5922 907,-154 920.0074,-135.3052 924.2295,-109.0162 925.5359,-91.1755"/>
<polygon fill="#191970" stroke="#191970" points="929.0374,-91.2286 926.0309,-81.0693 922.0458,-90.8861 929.0374,-91.2286"/>
</g>
<!-- Node8&#45;&gt;Node10 -->
<g id="edge10" class="edge">
<title>Node8&#45;&gt;Node10</title>
<path fill="none" stroke="#191970" d="M763.8353,-193.777C680.9099,-186.2818 541.8156,-172.3718 423,-154 415.3251,-152.8133 407.2571,-151.3997 399.3393,-149.9163"/>
<polygon fill="#191970" stroke="#191970" points="399.9124,-146.4624 389.4314,-148.0118 398.5909,-153.3366 399.9124,-146.4624"/>
</g>
<!-- Node11 -->
<g id="node12" class="node">
<title>Node11</title>
<g id="a_node12"><a xlink:href="sequence_8h.html" target="_top" xlink:title="Functions and data structures related to sequence representations ,. ">
<polygon fill="none" stroke="#000000" points="776,-129 776,-148 898,-148 898,-129 776,-129"/>
<text text-anchor="middle" x="837" y="-136" font-family="Helvetica,sans-Serif" font-size="10.00" fill="#000000">ViennaRNA/sequence.h</text>
</a>
</g>
</g>
<!-- Node8&#45;&gt;Node11 -->
<g id="edge14" class="edge">
<title>Node8&#45;&gt;Node11</title>
<path fill="none" stroke="#191970" d="M837,-190.3906C837,-181.8657 837,-169.1392 837,-158.4235"/>
<polygon fill="#191970" stroke="#191970" points="840.5001,-158.2448 837,-148.2449 833.5001,-158.2449 840.5001,-158.2448"/>
</g>
<!-- Node8&#45;&gt;Node12 -->
<g id="edge15" class="edge">
<title>Node8&#45;&gt;Node12</title>
<path fill="none" stroke="#191970" d="M784.5584,-190.4581C724.2751,-179.4894 625.4133,-161.5012 561.2716,-149.8305"/>
<polygon fill="#191970" stroke="#191970" points="561.7516,-146.3604 551.2866,-148.0137 560.4985,-153.2474 561.7516,-146.3604"/>
</g>
<!-- Node8&#45;&gt;Node13 -->
<g id="edge17" class="edge">
<title>Node8&#45;&gt;Node13</title>
<path fill="none" stroke="#191970" d="M910.159,-191.8087C987.6571,-183.003 1113.5548,-168.3309 1222,-154 1233.9938,-152.415 1246.7307,-150.6456 1259.0764,-148.8852"/>
<polygon fill="#191970" stroke="#191970" points="1259.9289,-152.2987 1269.3298,-147.4127 1258.9338,-145.3698 1259.9289,-152.2987"/>
</g>
<!-- Node8&#45;&gt;Node15 -->
<g id="edge21" class="edge">
<title>Node8&#45;&gt;Node15</title>
<path fill="none" stroke="#191970" d="M910.2074,-195.4522C1017.4463,-188.4606 1223.4605,-173.7784 1398,-154 1410.0211,-152.6378 1422.7716,-150.979 1435.1223,-149.2593"/>
<polygon fill="#191970" stroke="#191970" points="1435.9682,-152.6745 1445.378,-147.8056 1434.9857,-145.7438 1435.9682,-152.6745"/>
</g>
<!-- Node8&#45;&gt;Node16 -->
<g id="edge24" class="edge">
<title>Node8&#45;&gt;Node16</title>
<path fill="none" stroke="#191970" d="M810.375,-190.3906C785.4974,-180.1908 748.8837,-163.9763 724.4103,-152.3875"/>
<polygon fill="#191970" stroke="#191970" points="725.8914,-149.2161 715.3618,-148.0419 722.8609,-155.5262 725.8914,-149.2161"/>
</g>
<!-- Node8&#45;&gt;Node17 -->
<g id="edge26" class="edge">
<title>Node8&#45;&gt;Node17</title>
<path fill="none" stroke="#191970" d="M893.7056,-190.4852C942.5845,-182.094 1015.2808,-169.1638 1087.291,-154.305"/>
<polygon fill="#191970" stroke="#191970" points="1088.3657,-157.6566 1097.4448,-152.1959 1086.942,-150.8029 1088.3657,-157.6566"/>
</g>
<!-- Node8&#45;&gt;Node18 -->
<g id="edge27" class="edge">
<title>Node8&#45;&gt;Node18</title>
<path fill="none" stroke="#191970" d="M865.125,-190.3906C891.2903,-181.4508 930.9791,-167.8905 963.2227,-156.8739"/>
<polygon fill="#191970" stroke="#191970" points="964.6358,-160.0898 972.967,-153.5446 962.3725,-153.4658 964.6358,-160.0898"/>
</g>
<!-- Node10&#45;&gt;Node5 -->
<g id="edge12" class="edge">
<title>Node10&#45;&gt;Node5</title>
<path fill="none" stroke="#191970" d="M374.5176,-148.1113C415.1023,-162.9082 489.7964,-191.4923 555,-210 605.7858,-224.4153 663.6206,-236.9389 708.7699,-246.0259"/>
<polygon fill="#191970" stroke="#191970" points="708.2956,-249.5003 718.7876,-248.0281 709.6675,-242.636 708.2956,-249.5003"/>
</g>
<!-- Node10&#45;&gt;Node6 -->
<g id="edge11" class="edge">
<title>Node10&#45;&gt;Node6</title>
<path fill="none" stroke="#191970" d="M335.5438,-128.9005C325.1537,-118.353 308.2662,-101.2096 295.6476,-88.3998"/>
<polygon fill="#191970" stroke="#191970" points="297.9498,-85.7495 288.4386,-81.0817 292.963,-90.6619 297.9498,-85.7495"/>
</g>
<!-- Node10&#45;&gt;Node9 -->
<g id="edge13" class="edge">
<title>Node10&#45;&gt;Node9</title>
<path fill="none" stroke="#191970" d="M389.4212,-128.9214C400.3642,-126.7696 412.0774,-124.6407 423,-123 580.4634,-99.3473 767.3159,-83.3574 862.8548,-76.0462"/>
<polygon fill="#191970" stroke="#191970" points="863.2224,-79.5285 872.9288,-75.2816 862.6926,-72.5485 863.2224,-79.5285"/>
</g>
<!-- Node12&#45;&gt;Node5 -->
<g id="edge16" class="edge">
<title>Node12&#45;&gt;Node5</title>
<path fill="none" stroke="#191970" d="M512.7514,-148.2219C529.6624,-163.7023 558.2858,-193.8502 589,-210 626.2907,-229.6078 671.3422,-241.9725 708.9922,-249.6534"/>
<polygon fill="#191970" stroke="#191970" points="708.4099,-253.1059 718.8975,-251.6022 709.7612,-246.2375 708.4099,-253.1059"/>
</g>
<!-- Node13&#45;&gt;Node5 -->
<g id="edge18" class="edge">
<title>Node13&#45;&gt;Node5</title>
<path fill="none" stroke="#191970" d="M1324.8668,-153.5177C1314.5479,-170.4414 1291.1691,-197.2493 1264,-210 1195.3486,-242.2187 980.6516,-254.7726 863.6842,-259.2532"/>
<polygon fill="#191970" stroke="#191970" points="863.2302,-255.7676 853.3673,-259.6372 863.4906,-262.7628 863.2302,-255.7676"/>
</g>
<!-- Node14 -->
<g id="node15" class="node">
<title>Node14</title>
<g id="a_node15"><a xlink:href="constraints_2basic_8h.html" target="_top" xlink:title="Functions and data structures for constraining secondary structure predictions and evaluation...">
<polygon fill="none" stroke="#000000" points="1357.5,-56.5 1357.5,-86.5 1476.5,-86.5 1476.5,-56.5 1357.5,-56.5"/>
<text text-anchor="start" x="1365.5" y="-74.5" font-family="Helvetica,sans-Serif" font-size="10.00" fill="#000000">ViennaRNA/constraints</text>
<text text-anchor="middle" x="1417" y="-63.5" font-family="Helvetica,sans-Serif" font-size="10.00" fill="#000000">/basic.h</text>
</a>
</g>
</g>
<!-- Node13&#45;&gt;Node14 -->
<g id="edge19" class="edge">
<title>Node13&#45;&gt;Node14</title>
<path fill="none" stroke="#191970" d="M1348.9686,-123.2967C1360.7825,-114.302 1375.9306,-102.7687 1388.9327,-92.8694"/>
<polygon fill="#191970" stroke="#191970" points="1391.2743,-95.4857 1397.1105,-86.6432 1387.0338,-89.9162 1391.2743,-95.4857"/>
</g>
<!-- Node14&#45;&gt;Node5 -->
<g id="edge20" class="edge">
<title>Node14&#45;&gt;Node5</title>
<path fill="none" stroke="#191970" d="M1417.168,-86.7963C1416.5981,-104.6826 1413.1802,-134.339 1398,-154 1365.1974,-196.485 1342.4044,-194.554 1291,-210 1213.0903,-233.4103 984.9102,-249.8394 863.7199,-257.1812"/>
<polygon fill="#191970" stroke="#191970" points="863.1749,-253.7075 853.4023,-257.7999 863.594,-260.6949 863.1749,-253.7075"/>
</g>
<!-- Node15&#45;&gt;Node5 -->
<g id="edge22" class="edge">
<title>Node15&#45;&gt;Node5</title>
<path fill="none" stroke="#191970" d="M1492.7753,-153.6163C1473.1222,-170.6328 1434.2602,-197.5276 1396,-210 1299.5935,-241.4274 1005.1309,-254.7776 863.5264,-259.4162"/>
<polygon fill="#191970" stroke="#191970" points="863.0706,-255.9289 853.1881,-259.7482 863.2953,-262.9253 863.0706,-255.9289"/>
</g>
<!-- Node15&#45;&gt;Node14 -->
<g id="edge23" class="edge">
<title>Node15&#45;&gt;Node14</title>
<path fill="none" stroke="#191970" d="M1485.0314,-123.2967C1473.2175,-114.302 1458.0694,-102.7687 1445.0673,-92.8694"/>
<polygon fill="#191970" stroke="#191970" points="1446.9662,-89.9162 1436.8895,-86.6432 1442.7257,-95.4857 1446.9662,-89.9162"/>
</g>
<!-- Node16&#45;&gt;Node8 -->
<g id="edge25" class="edge">
<title>Node16&#45;&gt;Node8</title>
<path fill="none" stroke="#191970" d="M725.4604,-148.0419C750.286,-158.2151 786.9005,-174.4265 811.4274,-186.0357"/>
<polygon fill="#191970" stroke="#191970" points="809.9702,-189.2185 820.5,-190.3906 812.9994,-182.9078 809.9702,-189.2185"/>
</g>
<!-- Node18&#45;&gt;Node5 -->
<g id="edge28" class="edge">
<title>Node18&#45;&gt;Node5</title>
<path fill="none" stroke="#191970" d="M1005.8953,-153.7262C989.2343,-169.358 957.9439,-193.6464 928,-210 904.0193,-223.0968 875.9997,-234.472 851.1582,-243.1762"/>
<polygon fill="#191970" stroke="#191970" points="849.7782,-239.9492 841.4505,-246.4991 852.0451,-246.572 849.7782,-239.9492"/>
</g>
<!-- Node18&#45;&gt;Node19 -->
<g id="edge29" class="edge">
<title>Node18&#45;&gt;Node19</title>
<path fill="none" stroke="#191970" d="M954.1223,-128.3241C878.1371,-116.027 750.7162,-95.4058 672.0606,-82.6765"/>
<polygon fill="#191970" stroke="#191970" points="672.2009,-79.1537 661.7701,-81.0111 671.0825,-86.0638 672.2009,-79.1537"/>
</g>
<!-- Node19&#45;&gt;Node3 -->
<g id="edge30" class="edge">
<title>Node19&#45;&gt;Node3</title>
<path fill="none" stroke="#191970" d="M582.6875,-61.8906C561.1269,-51.6908 526.8522,-35.4763 502.3556,-23.8875"/>
<polygon fill="#191970" stroke="#191970" points="503.7061,-20.6545 493.1699,-19.5419 500.7126,-26.9822 503.7061,-20.6545"/>
</g>
<!-- Node19&#45;&gt;Node5 -->
<g id="edge31" class="edge">
<title>Node19&#45;&gt;Node5</title>
<path fill="none" stroke="#191970" d="M609.8321,-81.0597C616.1872,-97.4334 623.7334,-131.2728 641,-154 670.6589,-193.0385 718.6052,-223.3041 751.3008,-241.6347"/>
<polygon fill="#191970" stroke="#191970" points="749.6441,-244.718 760.0904,-246.4858 753.0265,-238.5894 749.6441,-244.718"/>
</g>
<!-- Node20&#45;&gt;Node6 -->
<g id="edge42" class="edge">
<title>Node20&#45;&gt;Node6</title>
<path fill="none" stroke="#191970" d="M87.5586,-190.3416C123.3856,-168.1012 211.9188,-113.1422 254.8648,-86.4825"/>
<polygon fill="#191970" stroke="#191970" points="256.893,-89.343 263.5432,-81.0952 253.2011,-83.3957 256.893,-89.343"/>
</g>
</g>
</svg>
        <g id="navigator" transform="translate(0 0)" fill="#404254">
                <rect fill="#f2f5e9" fill-opacity="0.5" stroke="#606060" stroke-width=".5" x="0" y="0" width="60" height="60"/>
                <use id="zoomplus" xlink:href="#zoomPlus" x="17" y="9" onmousedown="handleZoom(evt,'in')"/>
                <use id="zoomminus" xlink:href="#zoomMin" x="42" y="9" onmousedown="handleZoom(evt,'out')"/>
                <use id="reset" xlink:href="#resetDef" x="30" y="36" onmousedown="handleReset()"/>
                <g id="arrowUp" xlink:href="#dirArrow" transform="translate(30 24)" onmousedown="handlePan(0,-1)">
                  <use xlink:href="#rim" fill="#404040">
                        <set attributeName="fill" to="#808080" begin="arrowUp.mouseover" end="arrowUp.mouseout"/>
                  </use>
                  <path fill="none" stroke="white" stroke-width="1.5" d="M0,-3.0v7 M-2.5,-0.5L0,-3.0L2.5,-0.5"/>
                </g>
                <g id="arrowRight" xlink:href="#dirArrow" transform="rotate(90) translate(36 -43)" onmousedown="handlePan(1,0)">
                  <use xlink:href="#rim" fill="#404040">
                        <set attributeName="fill" to="#808080" begin="arrowRight.mouseover" end="arrowRight.mouseout"/>
                  </use>
                  <path fill="none" stroke="white" stroke-width="1.5" d="M0,-3.0v7 M-2.5,-0.5L0,-3.0L2.5,-0.5"/>
                </g>
                <g id="arrowDown" xlink:href="#dirArrow" transform="rotate(180) translate(-30 -48)" onmousedown="handlePan(0,1)">
                  <use xlink:href="#rim" fill="#404040">
                        <set attributeName="fill" to="#808080" begin="arrowDown.mouseover" end="arrowDown.mouseout"/>
                  </use>
                  <path fill="none" stroke="white" stroke-width="1.5" d="M0,-3.0v7 M-2.5,-0.5L0,-3.0L2.5,-0.5"/>
                </g>
                <g id="arrowLeft" xlink:href="#dirArrow" transform="rotate(270) translate(-36 17)" onmousedown="handlePan(-1,0)">
                  <use xlink:href="#rim" fill="#404040">
                        <set attributeName="fill" to="#808080" begin="arrowLeft.mouseover" end="arrowLeft.mouseout"/>
                  </use>
                  <path fill="none" stroke="white" stroke-width="1.5" d="M0,-3.0v7 M-2.5,-0.5L0,-3.0L2.5,-0.5"/>
                </g>
        </g>
        <svg viewBox="0 0 15 15" width="100%" height="30px" preserveAspectRatio="xMaxYMin meet">
         <g id="arrow_out" transform="scale(0.3 0.3)">
          <a xlink:href="interior__loops_8h__incl_org.svg" target="_base">
           <rect id="button" ry="5" rx="5" y="6" x="6" height="38" width="38"
                fill="#f2f5e9" fill-opacity="0.5" stroke="#606060" stroke-width="1.0"/>
           <path id="arrow"
             d="M 11.500037,31.436501 C 11.940474,20.09759 22.043105,11.32322 32.158766,21.979434 L 37.068811,17.246167 C 37.068811,17.246167 37.088388,32 37.088388,32 L 22.160133,31.978069 C 22.160133,31.978069 26.997745,27.140456 26.997745,27.140456 C 18.528582,18.264221 13.291696,25.230495 11.500037,31.436501 z"
             style="fill:#404040;"/>
          </a>
         </g>
        </svg>
</svg>
