<?xml version="1.0" encoding="UTF-8" standalone="no"?>
<!DOCTYPE svg PUBLIC "-//W3C//DTD SVG 1.1//EN"
 "http://www.w3.org/Graphics/SVG/1.1/DTD/svg11.dtd">
<!-- Generated by graphviz version 2.40.1 (20161225.0304)
 -->
<!-- Title: ViennaRNA/Lfold.h Pages: 1 -->
<!--zoomable 397 -->
<svg id="main" version="1.1" xmlns="http://www.w3.org/2000/svg" xmlns:xlink="http://www.w3.org/1999/xlink" xml:space="preserve" onload="init(evt)">
<style type="text/css"><![CDATA[
.edge:hover path { stroke: red; }
.edge:hover polygon { stroke: red; fill: red; }
]]></style>
<script type="text/javascript"><![CDATA[
var edges = document.getElementsByTagName('g');
if (edges && edges.length) {
  for (var i=0;i<edges.length;i++) {
    if (edges[i].id.substr(0,4)=='edge') {
      edges[i].setAttribute('class','edge');
    }
  }
}
]]></script>
        <defs>
                <circle id="rim" cx="0" cy="0" r="7"/>
                <circle id="rim2" cx="0" cy="0" r="3.5"/>
                <g id="zoomPlus">
                        <use xlink:href="#rim" fill="#404040">
                                <set attributeName="fill" to="#808080" begin="zoomplus.mouseover" end="zoomplus.mouseout"/>
                        </use>
                        <path d="M-4,0h8M0,-4v8" fill="none" stroke="white" stroke-width="1.5" pointer-events="none"/>
                </g>
                <g id="zoomMin">
                        <use xlink:href="#rim" fill="#404040">
                                <set attributeName="fill" to="#808080" begin="zoomminus.mouseover" end="zoomminus.mouseout"/>
                        </use>
                        <path d="M-4,0h8" fill="none" stroke="white" stroke-width="1.5" pointer-events="none"/>
                </g>
                <g id="dirArrow">
                        <path fill="none" stroke="white" stroke-width="1.5" d="M0,-3.0v7 M-2.5,-0.5L0,-3.0L2.5,-0.5"/>
                </g>
               <g id="resetDef">
                       <use xlink:href="#rim2" fill="#404040">
                               <set attributeName="fill" to="#808080" begin="reset.mouseover" end="reset.mouseout"/>
                       </use>
               </g>
        </defs>

<script type="text/javascript">
var viewWidth = 1434;
var viewHeight = 397;
var sectionId = 'dynsection-0';
</script>
<script xlink:href="svgpan.js"/>
<svg id="graph" class="graph">
<g id="viewport">
<title>ViennaRNA/Lfold.h</title>
<!-- Node0 -->
<g id="node1" class="node">
<title>Node0</title>
<polygon fill="#bfbfbf" stroke="#000000" points="1117.5,-369.5 1117.5,-388.5 1218.5,-388.5 1218.5,-369.5 1117.5,-369.5"/>
<text text-anchor="middle" x="1168" y="-376.5" font-family="Helvetica,sans-Serif" font-size="10.00" fill="#000000">ViennaRNA/Lfold.h</text>
</g>
<!-- Node1 -->
<g id="node2" class="node">
<title>Node1</title>
<g id="a_node2"><a xlink:href="mfe__window_8h.html" target="_top" xlink:title="Compute local Minimum Free Energy (MFE) using a sliding window approach and backtrace corresponding s...">
<polygon fill="none" stroke="#000000" points="1101,-313.5 1101,-332.5 1235,-332.5 1235,-313.5 1101,-313.5"/>
<text text-anchor="middle" x="1168" y="-320.5" font-family="Helvetica,sans-Serif" font-size="10.00" fill="#000000">ViennaRNA/mfe_window.h</text>
</a>
</g>
</g>
<!-- Node0&#45;&gt;Node1 -->
<g id="edge1" class="edge">
<title>Node0&#45;&gt;Node1</title>
<path fill="none" stroke="#191970" d="M1168,-369.2455C1168,-361.9382 1168,-351.6944 1168,-342.7046"/>
<polygon fill="#191970" stroke="#191970" points="1171.5001,-342.6426 1168,-332.6427 1164.5001,-342.6427 1171.5001,-342.6426"/>
</g>
<!-- Node2 -->
<g id="node3" class="node">
<title>Node2</title>
<polygon fill="none" stroke="#bfbfbf" points="1353,-.5 1353,-19.5 1399,-19.5 1399,-.5 1353,-.5"/>
<text text-anchor="middle" x="1376" y="-7.5" font-family="Helvetica,sans-Serif" font-size="10.00" fill="#000000">stdio.h</text>
</g>
<!-- Node1&#45;&gt;Node2 -->
<g id="edge2" class="edge">
<title>Node1&#45;&gt;Node2</title>
<path fill="none" stroke="#191970" d="M1205.5154,-313.4698C1277.0711,-294.1869 1426,-248.2569 1426,-200 1426,-200 1426,-200 1426,-138.5 1426,-100.8735 1421.9872,-90.5128 1407,-56 1402.6618,-46.01 1396.1066,-35.8691 1390.1398,-27.6603"/>
<polygon fill="#191970" stroke="#191970" points="1392.8629,-25.4589 1384.0289,-19.6098 1387.2873,-29.6912 1392.8629,-25.4589"/>
</g>
<!-- Node3 -->
<g id="node4" class="node">
<title>Node3</title>
<g id="a_node4"><a xlink:href="datastructures_2basic_8h.html" target="_top" xlink:title="Various data structures and pre&#45;processor macros. ">
<polygon fill="none" stroke="#000000" points="870,-246.5 870,-276.5 1004,-276.5 1004,-246.5 870,-246.5"/>
<text text-anchor="start" x="878" y="-264.5" font-family="Helvetica,sans-Serif" font-size="10.00" fill="#000000">ViennaRNA/datastructures</text>
<text text-anchor="middle" x="937" y="-253.5" font-family="Helvetica,sans-Serif" font-size="10.00" fill="#000000">/basic.h</text>
</a>
</g>
</g>
<!-- Node1&#45;&gt;Node3 -->
<g id="edge3" class="edge">
<title>Node1&#45;&gt;Node3</title>
<path fill="none" stroke="#191970" d="M1132.1597,-313.4581C1097.9022,-304.3376 1045.4153,-290.3638 1003.4986,-279.2042"/>
<polygon fill="#191970" stroke="#191970" points="1004.1999,-275.769 993.636,-276.5784 1002.3989,-282.5334 1004.1999,-275.769"/>
</g>
<!-- Node4 -->
<g id="node5" class="node">
<title>Node4</title>
<g id="a_node5"><a xlink:href="constants_8h.html" target="_top" xlink:title="Energy parameter constants. ">
<polygon fill="none" stroke="#000000" points="0,-62 0,-81 158,-81 158,-62 0,-62"/>
<text text-anchor="middle" x="79" y="-69" font-family="Helvetica,sans-Serif" font-size="10.00" fill="#000000">ViennaRNA/params/constants.h</text>
</a>
</g>
</g>
<!-- Node3&#45;&gt;Node4 -->
<g id="edge4" class="edge">
<title>Node3&#45;&gt;Node4</title>
<path fill="none" stroke="#191970" d="M869.8075,-259.8361C712.821,-255.4601 325.7705,-241.7101 200,-210 141.3644,-195.2164 108.7997,-204.8022 76,-154 63.8398,-135.1655 67.6599,-108.5463 72.4717,-90.6875"/>
<polygon fill="#191970" stroke="#191970" points="75.8329,-91.6642 75.3839,-81.0789 69.1338,-89.6338 75.8329,-91.6642"/>
</g>
<!-- Node6 -->
<g id="node7" class="node">
<title>Node6</title>
<g id="a_node7"><a xlink:href="fold__compound_8h.html" target="_top" xlink:title="The Basic Fold Compound API. ">
<polygon fill="none" stroke="#000000" points="643,-190.5 643,-209.5 789,-209.5 789,-190.5 643,-190.5"/>
<text text-anchor="middle" x="716" y="-197.5" font-family="Helvetica,sans-Serif" font-size="10.00" fill="#000000">ViennaRNA/fold_compound.h</text>
</a>
</g>
</g>
<!-- Node3&#45;&gt;Node6 -->
<g id="edge6" class="edge">
<title>Node3&#45;&gt;Node6</title>
<path fill="none" stroke="#191970" d="M882.9373,-246.4554C845.2542,-235.9689 795.6012,-222.1515 760.267,-212.3187"/>
<polygon fill="#191970" stroke="#191970" points="760.8194,-208.8394 750.2472,-209.5303 758.9427,-215.5832 760.8194,-208.8394"/>
</g>
<!-- Node7 -->
<g id="node8" class="node">
<title>Node7</title>
<g id="a_node8"><a xlink:href="model_8h.html" target="_top" xlink:title="The model details data structure and its corresponding modifiers. ">
<polygon fill="none" stroke="#000000" points="198,-62 198,-81 304,-81 304,-62 198,-62"/>
<text text-anchor="middle" x="251" y="-69" font-family="Helvetica,sans-Serif" font-size="10.00" fill="#000000">ViennaRNA/model.h</text>
</a>
</g>
</g>
<!-- Node3&#45;&gt;Node7 -->
<g id="edge30" class="edge">
<title>Node3&#45;&gt;Node7</title>
<path fill="none" stroke="#191970" d="M869.939,-260.3419C717.7882,-256.251 353.1802,-237.7329 270,-154 253.6247,-137.5159 250.2283,-109.9303 250.0257,-91.24"/>
<polygon fill="#191970" stroke="#191970" points="253.5263,-91.2361 250.213,-81.1727 246.5275,-91.1058 253.5263,-91.2361"/>
</g>
<!-- Node8 -->
<g id="node9" class="node">
<title>Node8</title>
<g id="a_node9"><a xlink:href="params_2basic_8h.html" target="_top" xlink:title="Functions to deal with sets of energy parameters. ">
<polygon fill="none" stroke="#000000" points="85,-129 85,-148 223,-148 223,-129 85,-129"/>
<text text-anchor="middle" x="154" y="-136" font-family="Helvetica,sans-Serif" font-size="10.00" fill="#000000">ViennaRNA/params/basic.h</text>
</a>
</g>
</g>
<!-- Node3&#45;&gt;Node8 -->
<g id="edge31" class="edge">
<title>Node3&#45;&gt;Node8</title>
<path fill="none" stroke="#191970" d="M869.9494,-259.1309C704.4248,-252.7415 286.0244,-234.0054 228,-210 200.1224,-198.4667 174.9253,-173.7745 161.9313,-156.6586"/>
<polygon fill="#191970" stroke="#191970" points="164.574,-154.3239 156.0284,-148.061 158.8032,-158.2861 164.574,-154.3239"/>
</g>
<!-- Node10 -->
<g id="node11" class="node">
<title>Node10</title>
<g id="a_node11"><a xlink:href="dp__matrices_8h.html" target="_top" xlink:title="Functions to deal with standard dynamic programming (DP) matrices. ">
<polygon fill="none" stroke="#000000" points="279.5,-129 279.5,-148 412.5,-148 412.5,-129 279.5,-129"/>
<text text-anchor="middle" x="346" y="-136" font-family="Helvetica,sans-Serif" font-size="10.00" fill="#000000">ViennaRNA/dp_matrices.h</text>
</a>
</g>
</g>
<!-- Node3&#45;&gt;Node10 -->
<g id="edge32" class="edge">
<title>Node3&#45;&gt;Node10</title>
<path fill="none" stroke="#191970" d="M869.8932,-255.56C796.0752,-247.9301 674.549,-232.8793 572,-210 500.7571,-194.1053 419.7255,-167.5013 376.5346,-151.6147"/>
<polygon fill="#191970" stroke="#191970" points="377.7454,-148.3308 367.153,-148.1075 375.2942,-154.8876 377.7454,-148.3308"/>
</g>
<!-- Node11 -->
<g id="node12" class="node">
<title>Node11</title>
<g id="a_node12"><a xlink:href="hard_8h.html" target="_top" xlink:title="Functions and data structures for handling of secondary structure hard constraints. ">
<polygon fill="none" stroke="#000000" points="1014.5,-123.5 1014.5,-153.5 1133.5,-153.5 1133.5,-123.5 1014.5,-123.5"/>
<text text-anchor="start" x="1022.5" y="-141.5" font-family="Helvetica,sans-Serif" font-size="10.00" fill="#000000">ViennaRNA/constraints</text>
<text text-anchor="middle" x="1074" y="-130.5" font-family="Helvetica,sans-Serif" font-size="10.00" fill="#000000">/hard.h</text>
</a>
</g>
</g>
<!-- Node3&#45;&gt;Node11 -->
<g id="edge33" class="edge">
<title>Node3&#45;&gt;Node11</title>
<path fill="none" stroke="#191970" d="M949.1846,-246.4178C970.6206,-224.8395 1014.7291,-185.0342 1044.4608,-160.2653"/>
<polygon fill="#191970" stroke="#191970" points="1046.9356,-162.7616 1052.4346,-153.7056 1042.4884,-157.3558 1046.9356,-162.7616"/>
</g>
<!-- Node13 -->
<g id="node14" class="node">
<title>Node13</title>
<g id="a_node14"><a xlink:href="soft_8h.html" target="_top" xlink:title="Functions and data structures for secondary structure soft constraints. ">
<polygon fill="none" stroke="#000000" points="877.5,-123.5 877.5,-153.5 996.5,-153.5 996.5,-123.5 877.5,-123.5"/>
<text text-anchor="start" x="885.5" y="-141.5" font-family="Helvetica,sans-Serif" font-size="10.00" fill="#000000">ViennaRNA/constraints</text>
<text text-anchor="middle" x="937" y="-130.5" font-family="Helvetica,sans-Serif" font-size="10.00" fill="#000000">/soft.h</text>
</a>
</g>
</g>
<!-- Node3&#45;&gt;Node13 -->
<g id="edge34" class="edge">
<title>Node3&#45;&gt;Node13</title>
<path fill="none" stroke="#191970" d="M932.3857,-246.4178C929.9095,-225.8539 929.5865,-188.7363 931.4169,-163.8546"/>
<polygon fill="#191970" stroke="#191970" points="934.9196,-163.9893 932.3709,-153.7056 927.9503,-163.3341 934.9196,-163.9893"/>
</g>
<!-- Node14 -->
<g id="node15" class="node">
<title>Node14</title>
<g id="a_node15"><a xlink:href="grammar_8h.html" target="_top" xlink:title="Implementations for the RNA folding grammar. ">
<polygon fill="none" stroke="#000000" points="430.5,-129 430.5,-148 547.5,-148 547.5,-129 430.5,-129"/>
<text text-anchor="middle" x="489" y="-136" font-family="Helvetica,sans-Serif" font-size="10.00" fill="#000000">ViennaRNA/grammar.h</text>
</a>
</g>
</g>
<!-- Node3&#45;&gt;Node14 -->
<g id="edge35" class="edge">
<title>Node3&#45;&gt;Node14</title>
<path fill="none" stroke="#191970" d="M869.7673,-255.7095C807.4669,-249.0322 712.8084,-235.526 634,-210 589.3785,-195.5471 541.2263,-169.4962 513.1665,-153.1475"/>
<polygon fill="#191970" stroke="#191970" points="514.8459,-150.0746 504.455,-148.0059 511.2879,-156.1029 514.8459,-150.0746"/>
</g>
<!-- Node15 -->
<g id="node16" class="node">
<title>Node15</title>
<g id="a_node16"><a xlink:href="structured__domains_8h.html" target="_top" xlink:title="This module provides interfaces that deal with additional structured domains in the folding grammar...">
<polygon fill="none" stroke="#000000" points="744.5,-123.5 744.5,-153.5 859.5,-153.5 859.5,-123.5 744.5,-123.5"/>
<text text-anchor="start" x="752.5" y="-141.5" font-family="Helvetica,sans-Serif" font-size="10.00" fill="#000000">ViennaRNA/structured</text>
<text text-anchor="middle" x="802" y="-130.5" font-family="Helvetica,sans-Serif" font-size="10.00" fill="#000000">_domains.h</text>
</a>
</g>
</g>
<!-- Node3&#45;&gt;Node15 -->
<g id="edge36" class="edge">
<title>Node3&#45;&gt;Node15</title>
<path fill="none" stroke="#191970" d="M920.4464,-246.4178C896.8641,-224.9317 853.4472,-185.3741 826.2382,-160.5837"/>
<polygon fill="#191970" stroke="#191970" points="828.4383,-157.8533 818.6891,-153.7056 823.7238,-163.0277 828.4383,-157.8533"/>
</g>
<!-- Node16 -->
<g id="node17" class="node">
<title>Node16</title>
<g id="a_node17"><a xlink:href="unstructured__domains_8h.html" target="_top" xlink:title="Functions to modify unstructured domains, e.g. to incorporate ligands binding to unpaired stretches...">
<polygon fill="none" stroke="#000000" points="1190.5,-123.5 1190.5,-153.5 1315.5,-153.5 1315.5,-123.5 1190.5,-123.5"/>
<text text-anchor="start" x="1198.5" y="-141.5" font-family="Helvetica,sans-Serif" font-size="10.00" fill="#000000">ViennaRNA/unstructured</text>
<text text-anchor="middle" x="1253" y="-130.5" font-family="Helvetica,sans-Serif" font-size="10.00" fill="#000000">_domains.h</text>
</a>
</g>
</g>
<!-- Node3&#45;&gt;Node16 -->
<g id="edge37" class="edge">
<title>Node3&#45;&gt;Node16</title>
<path fill="none" stroke="#191970" d="M1004.1775,-255.7085C1051.7894,-249.4926 1115.8998,-236.6233 1167,-210 1190.0796,-197.9755 1211.3477,-177.1495 1227.2137,-161.0653"/>
<polygon fill="#191970" stroke="#191970" points="1230.0319,-163.1915 1234.5527,-153.6096 1225.0432,-158.2809 1230.0319,-163.1915"/>
</g>
<!-- Node17 -->
<g id="node18" class="node">
<title>Node17</title>
<g id="a_node18"><a xlink:href="utils_2structures_8h.html" target="_top" xlink:title="Various utility&#45; and helper&#45;functions for secondary structure parsing, converting, etc. ">
<polygon fill="none" stroke="#000000" points="1254,-62 1254,-81 1398,-81 1398,-62 1254,-62"/>
<text text-anchor="middle" x="1326" y="-69" font-family="Helvetica,sans-Serif" font-size="10.00" fill="#000000">ViennaRNA/utils/structures.h</text>
</a>
</g>
</g>
<!-- Node3&#45;&gt;Node17 -->
<g id="edge38" class="edge">
<title>Node3&#45;&gt;Node17</title>
<path fill="none" stroke="#191970" d="M1004.2262,-253.3081C1059.0001,-245.7574 1137.6935,-232.2725 1204,-210 1256.7565,-192.279 1286.455,-201.1633 1316,-154 1327.783,-135.1905 1325.6682,-108.9257 1324.1588,-91.1219"/>
<polygon fill="#191970" stroke="#191970" points="1327.6414,-90.7558 1323.4163,-81.0399 1320.6603,-91.27 1327.6414,-90.7558"/>
</g>
<!-- Node5 -->
<g id="node6" class="node">
<title>Node5</title>
<polygon fill="none" stroke="#bfbfbf" points="55,-.5 55,-19.5 103,-19.5 103,-.5 55,-.5"/>
<text text-anchor="middle" x="79" y="-7.5" font-family="Helvetica,sans-Serif" font-size="10.00" fill="#000000">limits.h</text>
</g>
<!-- Node4&#45;&gt;Node5 -->
<g id="edge5" class="edge">
<title>Node4&#45;&gt;Node5</title>
<path fill="none" stroke="#191970" d="M79,-61.8906C79,-53.3657 79,-40.6392 79,-29.9235"/>
<polygon fill="#191970" stroke="#191970" points="82.5001,-29.7448 79,-19.7449 75.5001,-29.7449 82.5001,-29.7448"/>
</g>
<!-- Node6&#45;&gt;Node7 -->
<g id="edge7" class="edge">
<title>Node6&#45;&gt;Node7</title>
<path fill="none" stroke="#191970" d="M716.7905,-190.4718C717.5797,-173.9711 716.5316,-140.197 697,-123 668.855,-98.2192 430.9935,-81.5929 314.6188,-74.8646"/>
<polygon fill="#191970" stroke="#191970" points="314.6063,-71.3583 304.423,-74.2825 314.2072,-78.3469 314.6063,-71.3583"/>
</g>
<!-- Node6&#45;&gt;Node8 -->
<g id="edge8" class="edge">
<title>Node6&#45;&gt;Node8</title>
<path fill="none" stroke="#191970" d="M642.9201,-193.1424C554.5182,-184.6901 401.2198,-169.5302 270,-154 257.9001,-152.5679 245.1036,-150.9563 232.6009,-149.3277"/>
<polygon fill="#191970" stroke="#191970" points="233.0266,-145.8536 222.6559,-148.0211 232.1147,-152.794 233.0266,-145.8536"/>
</g>
<!-- Node9 -->
<g id="node10" class="node">
<title>Node9</title>
<g id="a_node10"><a xlink:href="sequence_8h.html" target="_top" xlink:title="Functions and data structures related to sequence representations ,. ">
<polygon fill="none" stroke="#000000" points="566,-129 566,-148 688,-148 688,-129 566,-129"/>
<text text-anchor="middle" x="627" y="-136" font-family="Helvetica,sans-Serif" font-size="10.00" fill="#000000">ViennaRNA/sequence.h</text>
</a>
</g>
</g>
<!-- Node6&#45;&gt;Node9 -->
<g id="edge12" class="edge">
<title>Node6&#45;&gt;Node9</title>
<path fill="none" stroke="#191970" d="M702.0938,-190.3906C687.9862,-180.6421 665.9276,-165.3994 649.3615,-153.9521"/>
<polygon fill="#191970" stroke="#191970" points="651.0253,-150.8474 640.8086,-148.0419 647.0458,-156.6063 651.0253,-150.8474"/>
</g>
<!-- Node6&#45;&gt;Node10 -->
<g id="edge13" class="edge">
<title>Node6&#45;&gt;Node10</title>
<path fill="none" stroke="#191970" d="M648.767,-190.4764C588.8718,-181.7637 498.9082,-168.1159 421,-154 414.3195,-152.7896 407.3201,-151.4454 400.3949,-150.0689"/>
<polygon fill="#191970" stroke="#191970" points="400.8422,-146.5886 390.3473,-148.0409 399.4572,-153.4503 400.8422,-146.5886"/>
</g>
<!-- Node6&#45;&gt;Node11 -->
<g id="edge15" class="edge">
<title>Node6&#45;&gt;Node11</title>
<path fill="none" stroke="#191970" d="M784.1949,-190.4964C840.8047,-182.3063 923.6427,-169.6292 1004.4952,-154.2269"/>
<polygon fill="#191970" stroke="#191970" points="1005.1833,-157.6588 1014.3435,-152.3352 1003.8628,-150.7845 1005.1833,-157.6588"/>
</g>
<!-- Node6&#45;&gt;Node13 -->
<g id="edge19" class="edge">
<title>Node6&#45;&gt;Node13</title>
<path fill="none" stroke="#191970" d="M750.5313,-190.3906C783.2796,-181.2774 833.282,-167.3627 873.2665,-156.2358"/>
<polygon fill="#191970" stroke="#191970" points="874.2417,-159.5975 882.9373,-153.5446 872.365,-152.8537 874.2417,-159.5975"/>
</g>
<!-- Node6&#45;&gt;Node14 -->
<g id="edge22" class="edge">
<title>Node6&#45;&gt;Node14</title>
<path fill="none" stroke="#191970" d="M675.731,-190.4581C634.2919,-179.7984 570.3154,-162.5091 528.9849,-150.8315"/>
<polygon fill="#191970" stroke="#191970" points="529.8246,-147.4316 519.2486,-148.0643 527.9108,-154.1649 529.8246,-147.4316"/>
</g>
<!-- Node6&#45;&gt;Node15 -->
<g id="edge24" class="edge">
<title>Node6&#45;&gt;Node15</title>
<path fill="none" stroke="#191970" d="M729.4375,-190.3906C740.9688,-182.1444 757.9976,-169.9669 772.6611,-159.4807"/>
<polygon fill="#191970" stroke="#191970" points="774.8638,-162.2084 780.962,-153.5446 770.792,-156.5145 774.8638,-162.2084"/>
</g>
<!-- Node6&#45;&gt;Node16 -->
<g id="edge25" class="edge">
<title>Node6&#45;&gt;Node16</title>
<path fill="none" stroke="#191970" d="M789.375,-192.8311C874.5094,-184.3428 1019.0641,-169.4034 1143,-154 1154.9616,-152.5133 1167.6392,-150.8287 1179.97,-149.1314"/>
<polygon fill="#191970" stroke="#191970" points="1180.8,-152.5498 1190.2231,-147.7068 1179.8365,-145.6164 1180.8,-152.5498"/>
</g>
<!-- Node8&#45;&gt;Node3 -->
<g id="edge10" class="edge">
<title>Node8&#45;&gt;Node3</title>
<path fill="none" stroke="#191970" d="M166.8994,-148.061C183.685,-164.1779 212.9599,-196.3309 246,-210 301.8283,-233.0968 691.2696,-251.3157 859.7325,-258.3527"/>
<polygon fill="#191970" stroke="#191970" points="859.6387,-261.8517 869.7754,-258.7699 859.9294,-254.8578 859.6387,-261.8517"/>
</g>
<!-- Node8&#45;&gt;Node4 -->
<g id="edge9" class="edge">
<title>Node8&#45;&gt;Node4</title>
<path fill="none" stroke="#191970" d="M143.2543,-128.9005C131.336,-118.2535 111.8943,-100.8856 97.5132,-88.0385"/>
<polygon fill="#191970" stroke="#191970" points="99.5151,-85.1337 89.7257,-81.0817 94.8516,-90.354 99.5151,-85.1337"/>
</g>
<!-- Node8&#45;&gt;Node7 -->
<g id="edge11" class="edge">
<title>Node8&#45;&gt;Node7</title>
<path fill="none" stroke="#191970" d="M167.8977,-128.9005C183.8164,-117.9052 210.1121,-99.7422 228.8599,-86.7927"/>
<polygon fill="#191970" stroke="#191970" points="230.8892,-89.6448 237.128,-81.0817 226.9108,-83.8852 230.8892,-89.6448"/>
</g>
<!-- Node10&#45;&gt;Node3 -->
<g id="edge14" class="edge">
<title>Node10&#45;&gt;Node3</title>
<path fill="none" stroke="#191970" d="M378.4148,-148.1075C425.0422,-163.2917 513.2076,-192.8671 590,-210 681.9327,-230.5108 789.1168,-244.73 859.8259,-252.9513"/>
<polygon fill="#191970" stroke="#191970" points="859.6529,-256.4544 869.9875,-254.1208 860.4533,-249.5003 859.6529,-256.4544"/>
</g>
<!-- Node11&#45;&gt;Node3 -->
<g id="edge16" class="edge">
<title>Node11&#45;&gt;Node3</title>
<path fill="none" stroke="#191970" d="M1061.6928,-153.7056C1040.1707,-175.3531 996.0465,-215.1643 966.3696,-239.8759"/>
<polygon fill="#191970" stroke="#191970" points="963.9146,-237.3633 958.4131,-246.4178 968.3603,-242.7703 963.9146,-237.3633"/>
</g>
<!-- Node12 -->
<g id="node13" class="node">
<title>Node12</title>
<g id="a_node13"><a xlink:href="constraints_2basic_8h.html" target="_top" xlink:title="Functions and data structures for constraining secondary structure predictions and evaluation...">
<polygon fill="none" stroke="#000000" points="1014.5,-56.5 1014.5,-86.5 1133.5,-86.5 1133.5,-56.5 1014.5,-56.5"/>
<text text-anchor="start" x="1022.5" y="-74.5" font-family="Helvetica,sans-Serif" font-size="10.00" fill="#000000">ViennaRNA/constraints</text>
<text text-anchor="middle" x="1074" y="-63.5" font-family="Helvetica,sans-Serif" font-size="10.00" fill="#000000">/basic.h</text>
</a>
</g>
</g>
<!-- Node11&#45;&gt;Node12 -->
<g id="edge17" class="edge">
<title>Node11&#45;&gt;Node12</title>
<path fill="none" stroke="#191970" d="M1074,-123.2967C1074,-115.5013 1074,-105.7991 1074,-96.9064"/>
<polygon fill="#191970" stroke="#191970" points="1077.5001,-96.6431 1074,-86.6432 1070.5001,-96.6432 1077.5001,-96.6431"/>
</g>
<!-- Node12&#45;&gt;Node3 -->
<g id="edge18" class="edge">
<title>Node12&#45;&gt;Node3</title>
<path fill="none" stroke="#191970" d="M1105.6421,-86.5161C1119.8158,-95.0591 1135.0935,-107.2327 1143,-123 1149.1759,-135.3161 1150.1416,-142.2176 1143,-154 1114.7911,-200.5396 1059.107,-227.8817 1012.7385,-243.3354"/>
<polygon fill="#191970" stroke="#191970" points="1011.4543,-240.0715 1002.9986,-246.4553 1013.5897,-246.7379 1011.4543,-240.0715"/>
</g>
<!-- Node13&#45;&gt;Node3 -->
<g id="edge20" class="edge">
<title>Node13&#45;&gt;Node3</title>
<path fill="none" stroke="#191970" d="M941.6291,-153.7056C944.0967,-174.3355 944.4111,-211.4615 942.5721,-236.2943"/>
<polygon fill="#191970" stroke="#191970" points="939.0719,-236.1325 941.6143,-246.4178 946.0408,-236.792 939.0719,-236.1325"/>
</g>
<!-- Node13&#45;&gt;Node12 -->
<g id="edge21" class="edge">
<title>Node13&#45;&gt;Node12</title>
<path fill="none" stroke="#191970" d="M967.7455,-123.4639C987.2624,-113.9191 1012.7257,-101.4663 1033.8325,-91.144"/>
<polygon fill="#191970" stroke="#191970" points="1035.4375,-94.2552 1042.8831,-86.7177 1032.3622,-87.9669 1035.4375,-94.2552"/>
</g>
<!-- Node14&#45;&gt;Node6 -->
<g id="edge23" class="edge">
<title>Node14&#45;&gt;Node6</title>
<path fill="none" stroke="#191970" d="M529.269,-148.0419C570.6542,-158.6877 634.5182,-175.9459 675.8538,-187.6229"/>
<polygon fill="#191970" stroke="#191970" points="675.0179,-191.0239 685.5938,-190.3906 676.9313,-184.2904 675.0179,-191.0239"/>
</g>
<!-- Node16&#45;&gt;Node3 -->
<g id="edge26" class="edge">
<title>Node16&#45;&gt;Node3</title>
<path fill="none" stroke="#191970" d="M1247.645,-153.6096C1236.2596,-170.0981 1211.8563,-196.0078 1185,-210 1132.0647,-237.5793 1065.168,-250.3992 1014.1296,-256.3527"/>
<polygon fill="#191970" stroke="#191970" points="1013.6983,-252.879 1004.1423,-257.4542 1014.4657,-259.8368 1013.6983,-252.879"/>
</g>
<!-- Node16&#45;&gt;Node17 -->
<g id="edge27" class="edge">
<title>Node16&#45;&gt;Node17</title>
<path fill="none" stroke="#191970" d="M1269.5648,-123.2967C1281.049,-112.7564 1296.3312,-98.7303 1308.0962,-87.9323"/>
<polygon fill="#191970" stroke="#191970" points="1310.5886,-90.3954 1315.5894,-81.055 1305.8553,-85.2382 1310.5886,-90.3954"/>
</g>
<!-- Node17&#45;&gt;Node2 -->
<g id="edge28" class="edge">
<title>Node17&#45;&gt;Node2</title>
<path fill="none" stroke="#191970" d="M1333.8125,-61.8906C1341.254,-52.7376 1352.6334,-38.7409 1361.6992,-27.59"/>
<polygon fill="#191970" stroke="#191970" points="1364.4847,-29.712 1368.0774,-19.7449 1359.0533,-25.2962 1364.4847,-29.712"/>
</g>
<!-- Node17&#45;&gt;Node3 -->
<g id="edge29" class="edge">
<title>Node17&#45;&gt;Node3</title>
<path fill="none" stroke="#191970" d="M1334.2874,-81.0399C1342.1341,-97.3835 1348.296,-131.179 1334,-154 1304.455,-201.1633 1274.7565,-192.279 1222,-210 1153.8915,-232.8778 1072.7136,-246.4838 1014.3782,-253.9106"/>
<polygon fill="#191970" stroke="#191970" points="1013.6185,-250.4779 1004.1254,-255.1822 1014.4801,-257.4247 1013.6185,-250.4779"/>
</g>
</g>
</svg>
        <g id="navigator" transform="translate(0 0)" fill="#404254">
                <rect fill="#f2f5e9" fill-opacity="0.5" stroke="#606060" stroke-width=".5" x="0" y="0" width="60" height="60"/>
                <use id="zoomplus" xlink:href="#zoomPlus" x="17" y="9" onmousedown="handleZoom(evt,'in')"/>
                <use id="zoomminus" xlink:href="#zoomMin" x="42" y="9" onmousedown="handleZoom(evt,'out')"/>
                <use id="reset" xlink:href="#resetDef" x="30" y="36" onmousedown="handleReset()"/>
                <g id="arrowUp" xlink:href="#dirArrow" transform="translate(30 24)" onmousedown="handlePan(0,-1)">
                  <use xlink:href="#rim" fill="#404040">
                        <set attributeName="fill" to="#808080" begin="arrowUp.mouseover" end="arrowUp.mouseout"/>
                  </use>
                  <path fill="none" stroke="white" stroke-width="1.5" d="M0,-3.0v7 M-2.5,-0.5L0,-3.0L2.5,-0.5"/>
                </g>
                <g id="arrowRight" xlink:href="#dirArrow" transform="rotate(90) translate(36 -43)" onmousedown="handlePan(1,0)">
                  <use xlink:href="#rim" fill="#404040">
                        <set attributeName="fill" to="#808080" begin="arrowRight.mouseover" end="arrowRight.mouseout"/>
                  </use>
                  <path fill="none" stroke="white" stroke-width="1.5" d="M0,-3.0v7 M-2.5,-0.5L0,-3.0L2.5,-0.5"/>
                </g>
                <g id="arrowDown" xlink:href="#dirArrow" transform="rotate(180) translate(-30 -48)" onmousedown="handlePan(0,1)">
                  <use xlink:href="#rim" fill="#404040">
                        <set attributeName="fill" to="#808080" begin="arrowDown.mouseover" end="arrowDown.mouseout"/>
                  </use>
                  <path fill="none" stroke="white" stroke-width="1.5" d="M0,-3.0v7 M-2.5,-0.5L0,-3.0L2.5,-0.5"/>
                </g>
                <g id="arrowLeft" xlink:href="#dirArrow" transform="rotate(270) translate(-36 17)" onmousedown="handlePan(-1,0)">
                  <use xlink:href="#rim" fill="#404040">
                        <set attributeName="fill" to="#808080" begin="arrowLeft.mouseover" end="arrowLeft.mouseout"/>
                  </use>
                  <path fill="none" stroke="white" stroke-width="1.5" d="M0,-3.0v7 M-2.5,-0.5L0,-3.0L2.5,-0.5"/>
                </g>
        </g>
        <svg viewBox="0 0 15 15" width="100%" height="30px" preserveAspectRatio="xMaxYMin meet">
         <g id="arrow_out" transform="scale(0.3 0.3)">
          <a xlink:href="Lfold_8h__incl_org.svg" target="_base">
           <rect id="button" ry="5" rx="5" y="6" x="6" height="38" width="38"
                fill="#f2f5e9" fill-opacity="0.5" stroke="#606060" stroke-width="1.0"/>
           <path id="arrow"
             d="M 11.500037,31.436501 C 11.940474,20.09759 22.043105,11.32322 32.158766,21.979434 L 37.068811,17.246167 C 37.068811,17.246167 37.088388,32 37.088388,32 L 22.160133,31.978069 C 22.160133,31.978069 26.997745,27.140456 26.997745,27.140456 C 18.528582,18.264221 13.291696,25.230495 11.500037,31.436501 z"
             style="fill:#404040;"/>
          </a>
         </g>
        </svg>
</svg>
