<?xml version="1.0" encoding="UTF-8" standalone="no"?>
<!DOCTYPE svg PUBLIC "-//W3C//DTD SVG 1.1//EN"
 "http://www.w3.org/Graphics/SVG/1.1/DTD/svg11.dtd">
<!-- Generated by graphviz version 2.40.1 (20161225.0304)
 -->
<!-- Title: ViennaRNA/loop_energies.h Pages: 1 -->
<!--zoomable 509 -->
<svg id="main" version="1.1" xmlns="http://www.w3.org/2000/svg" xmlns:xlink="http://www.w3.org/1999/xlink" xml:space="preserve" onload="init(evt)">
<style type="text/css"><![CDATA[
.edge:hover path { stroke: red; }
.edge:hover polygon { stroke: red; fill: red; }
]]></style>
<script type="text/javascript"><![CDATA[
var edges = document.getElementsByTagName('g');
if (edges && edges.length) {
  for (var i=0;i<edges.length;i++) {
    if (edges[i].id.substr(0,4)=='edge') {
      edges[i].setAttribute('class','edge');
    }
  }
}
]]></script>
        <defs>
                <circle id="rim" cx="0" cy="0" r="7"/>
                <circle id="rim2" cx="0" cy="0" r="3.5"/>
                <g id="zoomPlus">
                        <use xlink:href="#rim" fill="#404040">
                                <set attributeName="fill" to="#808080" begin="zoomplus.mouseover" end="zoomplus.mouseout"/>
                        </use>
                        <path d="M-4,0h8M0,-4v8" fill="none" stroke="white" stroke-width="1.5" pointer-events="none"/>
                </g>
                <g id="zoomMin">
                        <use xlink:href="#rim" fill="#404040">
                                <set attributeName="fill" to="#808080" begin="zoomminus.mouseover" end="zoomminus.mouseout"/>
                        </use>
                        <path d="M-4,0h8" fill="none" stroke="white" stroke-width="1.5" pointer-events="none"/>
                </g>
                <g id="dirArrow">
                        <path fill="none" stroke="white" stroke-width="1.5" d="M0,-3.0v7 M-2.5,-0.5L0,-3.0L2.5,-0.5"/>
                </g>
               <g id="resetDef">
                       <use xlink:href="#rim2" fill="#404040">
                               <set attributeName="fill" to="#808080" begin="reset.mouseover" end="reset.mouseout"/>
                       </use>
               </g>
        </defs>

<script type="text/javascript">
var viewWidth = 1546;
var viewHeight = 509;
var sectionId = 'dynsection-0';
</script>
<script xlink:href="svgpan.js"/>
<svg id="graph" class="graph">
<g id="viewport">
<title>ViennaRNA/loop_energies.h</title>
<!-- Node0 -->
<g id="node1" class="node">
<title>Node0</title>
<polygon fill="#bfbfbf" stroke="#000000" points="387.5,-481.5 387.5,-500.5 527.5,-500.5 527.5,-481.5 387.5,-481.5"/>
<text text-anchor="middle" x="457.5" y="-488.5" font-family="Helvetica,sans-Serif" font-size="10.00" fill="#000000">ViennaRNA/loop_energies.h</text>
</g>
<!-- Node1 -->
<g id="node2" class="node">
<title>Node1</title>
<g id="a_node2"><a xlink:href="all_8h.html" target="_top" xlink:title="Energy evaluation for MFE and partition function calculations. ">
<polygon fill="none" stroke="#000000" points="399.5,-425.5 399.5,-444.5 515.5,-444.5 515.5,-425.5 399.5,-425.5"/>
<text text-anchor="middle" x="457.5" y="-432.5" font-family="Helvetica,sans-Serif" font-size="10.00" fill="#000000">ViennaRNA/loops/all.h</text>
</a>
</g>
</g>
<!-- Node0&#45;&gt;Node1 -->
<g id="edge1" class="edge">
<title>Node0&#45;&gt;Node1</title>
<path fill="none" stroke="#191970" d="M457.5,-481.2455C457.5,-473.9382 457.5,-463.6944 457.5,-454.7046"/>
<polygon fill="#191970" stroke="#191970" points="461.0001,-454.6426 457.5,-444.6427 454.0001,-454.6427 461.0001,-454.6426"/>
</g>
<!-- Node2 -->
<g id="node3" class="node">
<title>Node2</title>
<g id="a_node3"><a xlink:href="external_8h.html" target="_top" xlink:title="Energy evaluation of exterior loops for MFE and partition function calculations. ">
<polygon fill="none" stroke="#000000" points="436.5,-313.5 436.5,-332.5 576.5,-332.5 576.5,-313.5 436.5,-313.5"/>
<text text-anchor="middle" x="506.5" y="-320.5" font-family="Helvetica,sans-Serif" font-size="10.00" fill="#000000">ViennaRNA/loops/external.h</text>
</a>
</g>
</g>
<!-- Node1&#45;&gt;Node2 -->
<g id="edge2" class="edge">
<title>Node1&#45;&gt;Node2</title>
<path fill="none" stroke="#191970" d="M466.6593,-425.1863C474.401,-416.3649 485.2075,-402.7207 491.5,-389 498.2353,-374.3138 502.0627,-356.3637 504.1629,-342.8926"/>
<polygon fill="#191970" stroke="#191970" points="507.6557,-343.1831 505.5467,-332.8003 500.7206,-342.2321 507.6557,-343.1831"/>
</g>
<!-- Node19 -->
<g id="node20" class="node">
<title>Node19</title>
<g id="a_node20"><a xlink:href="hairpin_8h.html" target="_top" xlink:title="Energy evaluation of hairpin loops for MFE and partition function calculations. ">
<polygon fill="none" stroke="#000000" points="142.5,-369.5 142.5,-388.5 276.5,-388.5 276.5,-369.5 142.5,-369.5"/>
<text text-anchor="middle" x="209.5" y="-376.5" font-family="Helvetica,sans-Serif" font-size="10.00" fill="#000000">ViennaRNA/loops/hairpin.h</text>
</a>
</g>
</g>
<!-- Node1&#45;&gt;Node19 -->
<g id="edge40" class="edge">
<title>Node1&#45;&gt;Node19</title>
<path fill="none" stroke="#191970" d="M415.1491,-425.4369C372.7058,-415.8529 307.2881,-401.0812 261.6687,-390.78"/>
<polygon fill="#191970" stroke="#191970" points="262.2016,-387.3123 251.6763,-388.5237 260.6597,-394.1404 262.2016,-387.3123"/>
</g>
<!-- Node24 -->
<g id="node25" class="node">
<title>Node24</title>
<g id="a_node25"><a xlink:href="internal_8h.html" target="_top" xlink:title="Energy evaluation of interior loops for MFE and partition function calculations. ">
<polygon fill="none" stroke="#000000" points="574,-369.5 574,-388.5 711,-388.5 711,-369.5 574,-369.5"/>
<text text-anchor="middle" x="642.5" y="-376.5" font-family="Helvetica,sans-Serif" font-size="10.00" fill="#000000">ViennaRNA/loops/internal.h</text>
</a>
</g>
</g>
<!-- Node1&#45;&gt;Node24 -->
<g id="edge49" class="edge">
<title>Node1&#45;&gt;Node24</title>
<path fill="none" stroke="#191970" d="M489.3026,-425.3733C520.3317,-415.9807 567.6754,-401.6496 601.5147,-391.4064"/>
<polygon fill="#191970" stroke="#191970" points="602.5553,-394.7483 611.1124,-388.5011 600.5272,-388.0485 602.5553,-394.7483"/>
</g>
<!-- Node26 -->
<g id="node27" class="node">
<title>Node26</title>
<g id="a_node27"><a xlink:href="multibranch_8h.html" target="_top" xlink:title="Energy evaluation of multibranch loops for MFE and partition function calculations. ">
<polygon fill="none" stroke="#000000" points="326.5,-369.5 326.5,-388.5 482.5,-388.5 482.5,-369.5 326.5,-369.5"/>
<text text-anchor="middle" x="404.5" y="-376.5" font-family="Helvetica,sans-Serif" font-size="10.00" fill="#000000">ViennaRNA/loops/multibranch.h</text>
</a>
</g>
</g>
<!-- Node1&#45;&gt;Node26 -->
<g id="edge57" class="edge">
<title>Node1&#45;&gt;Node26</title>
<path fill="none" stroke="#191970" d="M448.2681,-425.2455C440.6683,-417.2155 429.7123,-405.6394 420.6632,-396.0781"/>
<polygon fill="#191970" stroke="#191970" points="423.042,-393.4998 413.6261,-388.6427 417.9579,-398.3115 423.042,-393.4998"/>
</g>
<!-- Node3 -->
<g id="node4" class="node">
<title>Node3</title>
<g id="a_node4"><a xlink:href="datastructures_2basic_8h.html" target="_top" xlink:title="Various data structures and pre&#45;processor macros. ">
<polygon fill="none" stroke="#000000" points="613.5,-246.5 613.5,-276.5 747.5,-276.5 747.5,-246.5 613.5,-246.5"/>
<text text-anchor="start" x="621.5" y="-264.5" font-family="Helvetica,sans-Serif" font-size="10.00" fill="#000000">ViennaRNA/datastructures</text>
<text text-anchor="middle" x="680.5" y="-253.5" font-family="Helvetica,sans-Serif" font-size="10.00" fill="#000000">/basic.h</text>
</a>
</g>
</g>
<!-- Node2&#45;&gt;Node3 -->
<g id="edge3" class="edge">
<title>Node2&#45;&gt;Node3</title>
<path fill="none" stroke="#191970" d="M533.6875,-313.3906C558.8716,-304.4893 597.0159,-291.0073 628.1118,-280.0165"/>
<polygon fill="#191970" stroke="#191970" points="629.6728,-283.1771 637.9348,-276.5446 627.34,-276.5772 629.6728,-283.1771"/>
</g>
<!-- Node8 -->
<g id="node9" class="node">
<title>Node8</title>
<g id="a_node9"><a xlink:href="params_2basic_8h.html" target="_top" xlink:title="Functions to deal with sets of energy parameters. ">
<polygon fill="none" stroke="#000000" points="246.5,-129 246.5,-148 384.5,-148 384.5,-129 246.5,-129"/>
<text text-anchor="middle" x="315.5" y="-136" font-family="Helvetica,sans-Serif" font-size="10.00" fill="#000000">ViennaRNA/params/basic.h</text>
</a>
</g>
</g>
<!-- Node2&#45;&gt;Node8 -->
<g id="edge39" class="edge">
<title>Node2&#45;&gt;Node8</title>
<path fill="none" stroke="#191970" d="M502.6583,-313.3553C492.7361,-289.5164 464.0885,-227.0711 422.5,-190 403.2822,-172.8697 377.3532,-160.1974 355.8331,-151.7101"/>
<polygon fill="#191970" stroke="#191970" points="356.8873,-148.3669 346.2957,-148.104 354.4116,-154.9145 356.8873,-148.3669"/>
</g>
<!-- Node4 -->
<g id="node5" class="node">
<title>Node4</title>
<g id="a_node5"><a xlink:href="constants_8h.html" target="_top" xlink:title="Energy parameter constants. ">
<polygon fill="none" stroke="#000000" points="208.5,-62 208.5,-81 366.5,-81 366.5,-62 208.5,-62"/>
<text text-anchor="middle" x="287.5" y="-69" font-family="Helvetica,sans-Serif" font-size="10.00" fill="#000000">ViennaRNA/params/constants.h</text>
</a>
</g>
</g>
<!-- Node3&#45;&gt;Node4 -->
<g id="edge4" class="edge">
<title>Node3&#45;&gt;Node4</title>
<path fill="none" stroke="#191970" d="M613.0689,-255.1531C500.8424,-243.0422 283.485,-212.4785 237.5,-154 220.576,-132.478 245.6559,-104.8008 265.9953,-87.6059"/>
<polygon fill="#191970" stroke="#191970" points="268.4253,-90.1426 274.0101,-81.1392 264.0297,-84.6947 268.4253,-90.1426"/>
</g>
<!-- Node6 -->
<g id="node7" class="node">
<title>Node6</title>
<g id="a_node7"><a xlink:href="fold__compound_8h.html" target="_top" xlink:title="The Basic Fold Compound API. ">
<polygon fill="none" stroke="#000000" points="752.5,-190.5 752.5,-209.5 898.5,-209.5 898.5,-190.5 752.5,-190.5"/>
<text text-anchor="middle" x="825.5" y="-197.5" font-family="Helvetica,sans-Serif" font-size="10.00" fill="#000000">ViennaRNA/fold_compound.h</text>
</a>
</g>
</g>
<!-- Node3&#45;&gt;Node6 -->
<g id="edge6" class="edge">
<title>Node3&#45;&gt;Node6</title>
<path fill="none" stroke="#191970" d="M715.971,-246.4554C739.7402,-236.374 770.768,-223.2139 793.7285,-213.4755"/>
<polygon fill="#191970" stroke="#191970" points="795.1906,-216.6572 803.0301,-209.5303 792.4573,-210.2129 795.1906,-216.6572"/>
</g>
<!-- Node7 -->
<g id="node8" class="node">
<title>Node7</title>
<g id="a_node8"><a xlink:href="model_8h.html" target="_top" xlink:title="The model details data structure and its corresponding modifiers. ">
<polygon fill="none" stroke="#000000" points="511.5,-62 511.5,-81 617.5,-81 617.5,-62 511.5,-62"/>
<text text-anchor="middle" x="564.5" y="-69" font-family="Helvetica,sans-Serif" font-size="10.00" fill="#000000">ViennaRNA/model.h</text>
</a>
</g>
</g>
<!-- Node3&#45;&gt;Node7 -->
<g id="edge30" class="edge">
<title>Node3&#45;&gt;Node7</title>
<path fill="none" stroke="#191970" d="M662.3549,-246.3459C640.5396,-227.1226 604.3869,-191.8849 584.5,-154 574.0486,-134.0898 568.9509,-108.6068 566.5378,-91.2664"/>
<polygon fill="#191970" stroke="#191970" points="569.9937,-90.6911 565.3105,-81.1876 563.0451,-91.5374 569.9937,-90.6911"/>
</g>
<!-- Node3&#45;&gt;Node8 -->
<g id="edge31" class="edge">
<title>Node3&#45;&gt;Node8</title>
<path fill="none" stroke="#191970" d="M639.9398,-246.4641C602.3819,-231.0976 545.2108,-207.1233 494.5,-190 448.4873,-174.4631 394.9836,-160.1618 358.4321,-150.5931"/>
<polygon fill="#191970" stroke="#191970" points="359.1526,-147.164 348.5926,-148.0227 357.3833,-153.9367 359.1526,-147.164"/>
</g>
<!-- Node10 -->
<g id="node11" class="node">
<title>Node10</title>
<g id="a_node11"><a xlink:href="dp__matrices_8h.html" target="_top" xlink:title="Functions to deal with standard dynamic programming (DP) matrices. ">
<polygon fill="none" stroke="#000000" points="403,-129 403,-148 536,-148 536,-129 403,-129"/>
<text text-anchor="middle" x="469.5" y="-136" font-family="Helvetica,sans-Serif" font-size="10.00" fill="#000000">ViennaRNA/dp_matrices.h</text>
</a>
</g>
</g>
<!-- Node3&#45;&gt;Node10 -->
<g id="edge32" class="edge">
<title>Node3&#45;&gt;Node10</title>
<path fill="none" stroke="#191970" d="M648.3955,-246.4704C621.8652,-231.9305 583.7216,-209.3193 550.5,-190 529.2953,-177.6689 505.1665,-163.8746 488.5907,-153.6681"/>
<polygon fill="#191970" stroke="#191970" points="490.1082,-150.4871 479.7831,-148.1114 486.3731,-156.4074 490.1082,-150.4871"/>
</g>
<!-- Node11 -->
<g id="node12" class="node">
<title>Node11</title>
<g id="a_node12"><a xlink:href="hard_8h.html" target="_top" xlink:title="Functions and data structures for handling of secondary structure hard constraints. ">
<polygon fill="none" stroke="#000000" points="1040,-123.5 1040,-153.5 1159,-153.5 1159,-123.5 1040,-123.5"/>
<text text-anchor="start" x="1048" y="-141.5" font-family="Helvetica,sans-Serif" font-size="10.00" fill="#000000">ViennaRNA/constraints</text>
<text text-anchor="middle" x="1099.5" y="-130.5" font-family="Helvetica,sans-Serif" font-size="10.00" fill="#000000">/hard.h</text>
</a>
</g>
</g>
<!-- Node3&#45;&gt;Node11 -->
<g id="edge33" class="edge">
<title>Node3&#45;&gt;Node11</title>
<path fill="none" stroke="#191970" d="M747.7626,-250.2966C797.0462,-241.7231 865.1116,-228.2576 923.5,-210 968.6238,-195.8902 1018.1644,-173.788 1053.2836,-157.8919"/>
<polygon fill="#191970" stroke="#191970" points="1055.1264,-160.8996 1062.7909,-153.5848 1052.2378,-154.5234 1055.1264,-160.8996"/>
</g>
<!-- Node13 -->
<g id="node14" class="node">
<title>Node13</title>
<g id="a_node14"><a xlink:href="soft_8h.html" target="_top" xlink:title="Functions and data structures for secondary structure soft constraints. ">
<polygon fill="none" stroke="#000000" points="1177,-123.5 1177,-153.5 1296,-153.5 1296,-123.5 1177,-123.5"/>
<text text-anchor="start" x="1185" y="-141.5" font-family="Helvetica,sans-Serif" font-size="10.00" fill="#000000">ViennaRNA/constraints</text>
<text text-anchor="middle" x="1236.5" y="-130.5" font-family="Helvetica,sans-Serif" font-size="10.00" fill="#000000">/soft.h</text>
</a>
</g>
</g>
<!-- Node3&#45;&gt;Node13 -->
<g id="edge34" class="edge">
<title>Node3&#45;&gt;Node13</title>
<path fill="none" stroke="#191970" d="M747.6266,-250.8974C806.8486,-241.69 895.1944,-227.1582 971.5,-210 1040.3728,-194.5131 1118.3484,-172.0032 1171.8741,-156.394"/>
<polygon fill="#191970" stroke="#191970" points="1172.957,-159.724 1181.5763,-153.563 1170.9962,-153.0043 1172.957,-159.724"/>
</g>
<!-- Node14 -->
<g id="node15" class="node">
<title>Node14</title>
<g id="a_node15"><a xlink:href="grammar_8h.html" target="_top" xlink:title="Implementations for the RNA folding grammar. ">
<polygon fill="none" stroke="#000000" points="905,-129 905,-148 1022,-148 1022,-129 905,-129"/>
<text text-anchor="middle" x="963.5" y="-136" font-family="Helvetica,sans-Serif" font-size="10.00" fill="#000000">ViennaRNA/grammar.h</text>
</a>
</g>
</g>
<!-- Node3&#45;&gt;Node14 -->
<g id="edge35" class="edge">
<title>Node3&#45;&gt;Node14</title>
<path fill="none" stroke="#191970" d="M747.653,-251.3727C804.6571,-241.8578 881.2575,-226.6263 907.5,-210 928.0157,-197.002 944.1168,-173.7607 953.6885,-157.3081"/>
<polygon fill="#191970" stroke="#191970" points="957.0078,-158.5382 958.7856,-148.0936 950.8825,-155.1499 957.0078,-158.5382"/>
</g>
<!-- Node15 -->
<g id="node16" class="node">
<title>Node15</title>
<g id="a_node16"><a xlink:href="structured__domains_8h.html" target="_top" xlink:title="This module provides interfaces that deal with additional structured domains in the folding grammar...">
<polygon fill="none" stroke="#000000" points="593,-123.5 593,-153.5 708,-153.5 708,-123.5 593,-123.5"/>
<text text-anchor="start" x="601" y="-141.5" font-family="Helvetica,sans-Serif" font-size="10.00" fill="#000000">ViennaRNA/structured</text>
<text text-anchor="middle" x="650.5" y="-130.5" font-family="Helvetica,sans-Serif" font-size="10.00" fill="#000000">_domains.h</text>
</a>
</g>
</g>
<!-- Node3&#45;&gt;Node15 -->
<g id="edge36" class="edge">
<title>Node3&#45;&gt;Node15</title>
<path fill="none" stroke="#191970" d="M676.8214,-246.4178C671.7833,-225.7616 662.6715,-188.4031 656.6026,-163.5206"/>
<polygon fill="#191970" stroke="#191970" points="659.9786,-162.5914 654.2087,-153.7056 653.178,-164.2502 659.9786,-162.5914"/>
</g>
<!-- Node16 -->
<g id="node17" class="node">
<title>Node16</title>
<g id="a_node17"><a xlink:href="unstructured__domains_8h.html" target="_top" xlink:title="Functions to modify unstructured domains, e.g. to incorporate ligands binding to unpaired stretches...">
<polygon fill="none" stroke="#000000" points="1353,-123.5 1353,-153.5 1478,-153.5 1478,-123.5 1353,-123.5"/>
<text text-anchor="start" x="1361" y="-141.5" font-family="Helvetica,sans-Serif" font-size="10.00" fill="#000000">ViennaRNA/unstructured</text>
<text text-anchor="middle" x="1415.5" y="-130.5" font-family="Helvetica,sans-Serif" font-size="10.00" fill="#000000">_domains.h</text>
</a>
</g>
</g>
<!-- Node3&#45;&gt;Node16 -->
<g id="edge37" class="edge">
<title>Node3&#45;&gt;Node16</title>
<path fill="none" stroke="#191970" d="M747.7061,-255.5432C832.4808,-247.8541 982.3063,-232.7046 1109.5,-210 1190.7332,-195.4995 1282.9308,-172.2141 1344.7797,-156.1784"/>
<polygon fill="#191970" stroke="#191970" points="1346.0209,-159.4722 1354.8198,-153.5704 1344.261,-152.697 1346.0209,-159.4722"/>
</g>
<!-- Node17 -->
<g id="node18" class="node">
<title>Node17</title>
<g id="a_node18"><a xlink:href="utils_2structures_8h.html" target="_top" xlink:title="Various utility&#45; and helper&#45;functions for secondary structure parsing, converting, etc. ">
<polygon fill="none" stroke="#000000" points="1393.5,-62 1393.5,-81 1537.5,-81 1537.5,-62 1393.5,-62"/>
<text text-anchor="middle" x="1465.5" y="-69" font-family="Helvetica,sans-Serif" font-size="10.00" fill="#000000">ViennaRNA/utils/structures.h</text>
</a>
</g>
</g>
<!-- Node3&#45;&gt;Node17 -->
<g id="edge38" class="edge">
<title>Node3&#45;&gt;Node17</title>
<path fill="none" stroke="#191970" d="M747.8312,-257.4169C931.7614,-245.9061 1431.6914,-210.3204 1478.5,-154 1493.6093,-135.8204 1481.3579,-108.2769 1472.1456,-90.0899"/>
<polygon fill="#191970" stroke="#191970" points="1475.2016,-88.3784 1467.5334,-81.0675 1468.9688,-91.5646 1475.2016,-88.3784"/>
</g>
<!-- Node5 -->
<g id="node6" class="node">
<title>Node5</title>
<polygon fill="none" stroke="#bfbfbf" points="263.5,-.5 263.5,-19.5 311.5,-19.5 311.5,-.5 263.5,-.5"/>
<text text-anchor="middle" x="287.5" y="-7.5" font-family="Helvetica,sans-Serif" font-size="10.00" fill="#000000">limits.h</text>
</g>
<!-- Node4&#45;&gt;Node5 -->
<g id="edge5" class="edge">
<title>Node4&#45;&gt;Node5</title>
<path fill="none" stroke="#191970" d="M287.5,-61.8906C287.5,-53.3657 287.5,-40.6392 287.5,-29.9235"/>
<polygon fill="#191970" stroke="#191970" points="291.0001,-29.7448 287.5,-19.7449 284.0001,-29.7449 291.0001,-29.7448"/>
</g>
<!-- Node6&#45;&gt;Node7 -->
<g id="edge7" class="edge">
<title>Node6&#45;&gt;Node7</title>
<path fill="none" stroke="#191970" d="M809.8971,-190.3945C795.5028,-181.3822 773.6752,-167.331 755.5,-154 737.9248,-141.1091 736.5806,-133.5353 717.5,-123 685.537,-105.3517 646.4839,-92.3287 615.8339,-83.7938"/>
<polygon fill="#191970" stroke="#191970" points="616.3513,-80.3079 605.784,-81.0712 614.5209,-87.0643 616.3513,-80.3079"/>
</g>
<!-- Node6&#45;&gt;Node8 -->
<g id="edge8" class="edge">
<title>Node6&#45;&gt;Node8</title>
<path fill="none" stroke="#191970" d="M752.4231,-194.1616C666.4913,-186.8433 519.6881,-172.9246 394.5,-154 386.7264,-152.8249 378.5548,-151.4178 370.5355,-149.9375"/>
<polygon fill="#191970" stroke="#191970" points="370.9774,-146.459 360.5005,-148.0352 369.6736,-153.3365 370.9774,-146.459"/>
</g>
<!-- Node9 -->
<g id="node10" class="node">
<title>Node9</title>
<g id="a_node10"><a xlink:href="sequence_8h.html" target="_top" xlink:title="Functions and data structures related to sequence representations ,. ">
<polygon fill="none" stroke="#000000" points="764.5,-129 764.5,-148 886.5,-148 886.5,-129 764.5,-129"/>
<text text-anchor="middle" x="825.5" y="-136" font-family="Helvetica,sans-Serif" font-size="10.00" fill="#000000">ViennaRNA/sequence.h</text>
</a>
</g>
</g>
<!-- Node6&#45;&gt;Node9 -->
<g id="edge12" class="edge">
<title>Node6&#45;&gt;Node9</title>
<path fill="none" stroke="#191970" d="M825.5,-190.3906C825.5,-181.8657 825.5,-169.1392 825.5,-158.4235"/>
<polygon fill="#191970" stroke="#191970" points="829.0001,-158.2448 825.5,-148.2449 822.0001,-158.2449 829.0001,-158.2448"/>
</g>
<!-- Node6&#45;&gt;Node10 -->
<g id="edge13" class="edge">
<title>Node6&#45;&gt;Node10</title>
<path fill="none" stroke="#191970" d="M770.2656,-190.4581C706.6414,-179.4668 602.2167,-161.4272 534.6713,-149.7585"/>
<polygon fill="#191970" stroke="#191970" points="535.0209,-146.2672 524.5711,-148.0137 533.8293,-153.165 535.0209,-146.2672"/>
</g>
<!-- Node6&#45;&gt;Node11 -->
<g id="edge15" class="edge">
<title>Node6&#45;&gt;Node11</title>
<path fill="none" stroke="#191970" d="M868.5182,-190.452C908.0847,-181.6571 968.6585,-168.16 1029.958,-154.3435"/>
<polygon fill="#191970" stroke="#191970" points="1030.8144,-157.7383 1039.7993,-152.1239 1029.2743,-150.9098 1030.8144,-157.7383"/>
</g>
<!-- Node6&#45;&gt;Node13 -->
<g id="edge19" class="edge">
<title>Node6&#45;&gt;Node13</title>
<path fill="none" stroke="#191970" d="M898.7337,-192.1298C966.0728,-184.4482 1068.8672,-171.6031 1166.7888,-154.2235"/>
<polygon fill="#191970" stroke="#191970" points="1167.634,-157.6278 1176.8588,-152.4168 1166.3978,-150.7378 1167.634,-157.6278"/>
</g>
<!-- Node6&#45;&gt;Node14 -->
<g id="edge22" class="edge">
<title>Node6&#45;&gt;Node14</title>
<path fill="none" stroke="#191970" d="M842,-190.3906C863.1746,-180.0554 900.0138,-163.5447 927.6779,-151.9284"/>
<polygon fill="#191970" stroke="#191970" points="929.1459,-155.1087 937.0396,-148.0419 926.4619,-148.6437 929.1459,-155.1087"/>
</g>
<!-- Node6&#45;&gt;Node15 -->
<g id="edge24" class="edge">
<title>Node6&#45;&gt;Node15</title>
<path fill="none" stroke="#191970" d="M798.1563,-190.3906C772.7178,-181.4508 734.1315,-167.8905 702.7835,-156.8739"/>
<polygon fill="#191970" stroke="#191970" points="703.9046,-153.5581 693.3098,-153.5446 701.5837,-160.1622 703.9046,-153.5581"/>
</g>
<!-- Node6&#45;&gt;Node16 -->
<g id="edge25" class="edge">
<title>Node6&#45;&gt;Node16</title>
<path fill="none" stroke="#191970" d="M898.7963,-193.9953C993.0325,-186.0412 1161.6759,-171.0161 1305.5,-154 1317.4702,-152.5838 1330.1521,-150.9352 1342.4847,-149.2521"/>
<polygon fill="#191970" stroke="#191970" points="1343.3121,-152.6711 1352.7386,-147.8346 1342.3535,-145.7371 1343.3121,-152.6711"/>
</g>
<!-- Node8&#45;&gt;Node3 -->
<g id="edge10" class="edge">
<title>Node8&#45;&gt;Node3</title>
<path fill="none" stroke="#191970" d="M362.4407,-148.0227C402.8568,-157.4836 462.1614,-173.0024 512.5,-190 558.6548,-205.5849 610.1611,-226.845 643.9534,-242.1251"/>
<polygon fill="#191970" stroke="#191970" points="642.8716,-245.4794 653.4206,-246.4641 645.7881,-239.1159 642.8716,-245.4794"/>
</g>
<!-- Node8&#45;&gt;Node4 -->
<g id="edge9" class="edge">
<title>Node8&#45;&gt;Node4</title>
<path fill="none" stroke="#191970" d="M311.4883,-128.9005C307.3298,-118.95 300.7182,-103.1292 295.4883,-90.6147"/>
<polygon fill="#191970" stroke="#191970" points="298.5896,-88.9588 291.5043,-81.0817 292.1309,-91.658 298.5896,-88.9588"/>
</g>
<!-- Node8&#45;&gt;Node7 -->
<g id="edge11" class="edge">
<title>Node8&#45;&gt;Node7</title>
<path fill="none" stroke="#191970" d="M350.9112,-128.9717C395.0345,-117.0991 470.5084,-96.7909 518.9111,-83.7669"/>
<polygon fill="#191970" stroke="#191970" points="520.0607,-87.0821 528.8078,-81.1039 518.2418,-80.3225 520.0607,-87.0821"/>
</g>
<!-- Node10&#45;&gt;Node3 -->
<g id="edge14" class="edge">
<title>Node10&#45;&gt;Node3</title>
<path fill="none" stroke="#191970" d="M493.1367,-148.1114C513.5828,-158.4036 543.1336,-175.2487 568.5,-190 597.7354,-207.0012 630.7824,-226.5517 653.5157,-240.9075"/>
<polygon fill="#191970" stroke="#191970" points="651.6811,-243.8888 661.9905,-246.3317 655.4547,-237.993 651.6811,-243.8888"/>
</g>
<!-- Node11&#45;&gt;Node3 -->
<g id="edge16" class="edge">
<title>Node11&#45;&gt;Node3</title>
<path fill="none" stroke="#191970" d="M1076.0585,-153.5848C1045.5188,-169.5614 990.8662,-194.5636 941.5,-210 881.0414,-228.9049 810.2074,-242.6719 757.5298,-251.1901"/>
<polygon fill="#191970" stroke="#191970" points="756.9053,-247.7454 747.5786,-252.7717 758.004,-254.6586 756.9053,-247.7454"/>
</g>
<!-- Node12 -->
<g id="node13" class="node">
<title>Node12</title>
<g id="a_node13"><a xlink:href="constraints_2basic_8h.html" target="_top" xlink:title="Functions and data structures for constraining secondary structure predictions and evaluation...">
<polygon fill="none" stroke="#000000" points="1177,-56.5 1177,-86.5 1296,-86.5 1296,-56.5 1177,-56.5"/>
<text text-anchor="start" x="1185" y="-74.5" font-family="Helvetica,sans-Serif" font-size="10.00" fill="#000000">ViennaRNA/constraints</text>
<text text-anchor="middle" x="1236.5" y="-63.5" font-family="Helvetica,sans-Serif" font-size="10.00" fill="#000000">/basic.h</text>
</a>
</g>
</g>
<!-- Node11&#45;&gt;Node12 -->
<g id="edge17" class="edge">
<title>Node11&#45;&gt;Node12</title>
<path fill="none" stroke="#191970" d="M1130.2455,-123.4639C1149.7624,-113.9191 1175.2257,-101.4663 1196.3325,-91.144"/>
<polygon fill="#191970" stroke="#191970" points="1197.9375,-94.2552 1205.3831,-86.7177 1194.8622,-87.9669 1197.9375,-94.2552"/>
</g>
<!-- Node12&#45;&gt;Node3 -->
<g id="edge18" class="edge">
<title>Node12&#45;&gt;Node3</title>
<path fill="none" stroke="#191970" d="M1264.3841,-86.6583C1291.1975,-103.1713 1324.9994,-130.3887 1305.5,-154 1251.6054,-219.2597 1201.0572,-171.3516 1118.5,-190 1084.0111,-197.7905 1076.1676,-203.0478 1041.5,-210 944.4226,-229.4678 831.2261,-244.3699 757.8361,-253.0192"/>
<polygon fill="#191970" stroke="#191970" points="757.2765,-249.5606 747.7505,-254.1979 758.0892,-256.5133 757.2765,-249.5606"/>
</g>
<!-- Node13&#45;&gt;Node3 -->
<g id="edge20" class="edge">
<title>Node13&#45;&gt;Node3</title>
<path fill="none" stroke="#191970" d="M1194.9725,-153.563C1146.0901,-169.1739 1062.6595,-193.5492 989.5,-210 911.4798,-227.5438 820.8721,-242.3418 757.9611,-251.51"/>
<polygon fill="#191970" stroke="#191970" points="757.1161,-248.0956 747.7187,-252.9884 758.1162,-255.0238 757.1161,-248.0956"/>
</g>
<!-- Node13&#45;&gt;Node12 -->
<g id="edge21" class="edge">
<title>Node13&#45;&gt;Node12</title>
<path fill="none" stroke="#191970" d="M1236.5,-123.2967C1236.5,-115.5013 1236.5,-105.7991 1236.5,-96.9064"/>
<polygon fill="#191970" stroke="#191970" points="1240.0001,-96.6431 1236.5,-86.6432 1233.0001,-96.6432 1240.0001,-96.6431"/>
</g>
<!-- Node14&#45;&gt;Node6 -->
<g id="edge23" class="edge">
<title>Node14&#45;&gt;Node6</title>
<path fill="none" stroke="#191970" d="M947.1382,-148.0419C926.032,-158.3501 889.2071,-174.858 861.5031,-186.4955"/>
<polygon fill="#191970" stroke="#191970" points="860.0176,-183.3226 852.125,-190.3906 862.7026,-189.7872 860.0176,-183.3226"/>
</g>
<!-- Node16&#45;&gt;Node3 -->
<g id="edge26" class="edge">
<title>Node16&#45;&gt;Node3</title>
<path fill="none" stroke="#191970" d="M1368.0657,-153.5704C1311.2301,-169.5943 1213.2555,-194.6923 1127.5,-210 999.0387,-232.9309 847.4924,-248.1553 757.8798,-255.7709"/>
<polygon fill="#191970" stroke="#191970" points="757.4717,-252.2927 747.7997,-256.6175 758.0576,-259.2682 757.4717,-252.2927"/>
</g>
<!-- Node16&#45;&gt;Node17 -->
<g id="edge27" class="edge">
<title>Node16&#45;&gt;Node17</title>
<path fill="none" stroke="#191970" d="M1426.8458,-123.2967C1434.4091,-113.1618 1444.3776,-99.804 1452.2969,-89.1921"/>
<polygon fill="#191970" stroke="#191970" points="1455.1936,-91.1626 1458.3694,-81.055 1449.5835,-86.976 1455.1936,-91.1626"/>
</g>
<!-- Node17&#45;&gt;Node3 -->
<g id="edge29" class="edge">
<title>Node17&#45;&gt;Node3</title>
<path fill="none" stroke="#191970" d="M1478.2901,-81.0675C1493.8821,-97.7545 1514.4073,-132.4538 1496.5,-154 1449.8208,-210.1647 952.5223,-245.7092 757.8923,-257.3208"/>
<polygon fill="#191970" stroke="#191970" points="757.5159,-253.8369 747.7399,-257.9211 757.9291,-260.8247 757.5159,-253.8369"/>
</g>
<!-- Node18 -->
<g id="node19" class="node">
<title>Node18</title>
<polygon fill="none" stroke="#bfbfbf" points="860.5,-.5 860.5,-19.5 906.5,-19.5 906.5,-.5 860.5,-.5"/>
<text text-anchor="middle" x="883.5" y="-7.5" font-family="Helvetica,sans-Serif" font-size="10.00" fill="#000000">stdio.h</text>
</g>
<!-- Node17&#45;&gt;Node18 -->
<g id="edge28" class="edge">
<title>Node17&#45;&gt;Node18</title>
<path fill="none" stroke="#191970" d="M1393.2591,-63.8663C1266.4636,-50.4678 1008.6185,-23.2213 916.8495,-13.524"/>
<polygon fill="#191970" stroke="#191970" points="917.061,-10.027 906.7486,-12.4567 916.3254,-16.9882 917.061,-10.027"/>
</g>
<!-- Node19&#45;&gt;Node3 -->
<g id="edge47" class="edge">
<title>Node19&#45;&gt;Node3</title>
<path fill="none" stroke="#191970" d="M212.0085,-369.4547C216.448,-354.6339 227.1957,-326.4013 247.5,-313 276.479,-293.8733 486.3067,-275.7111 602.8887,-266.9542"/>
<polygon fill="#191970" stroke="#191970" points="603.4698,-270.4207 613.1821,-266.1873 602.9496,-263.4401 603.4698,-270.4207"/>
</g>
<!-- Node19&#45;&gt;Node8 -->
<g id="edge48" class="edge">
<title>Node19&#45;&gt;Node8</title>
<path fill="none" stroke="#191970" d="M211.0864,-369.3884C213.4051,-356.3468 218.2482,-332.4424 225.5,-313 247.6432,-253.6329 285.0804,-188.478 303.9269,-157.2404"/>
<polygon fill="#191970" stroke="#191970" points="307.1353,-158.7012 309.3498,-148.3404 301.1575,-155.0589 307.1353,-158.7012"/>
</g>
<!-- Node20 -->
<g id="node21" class="node">
<title>Node20</title>
<polygon fill="none" stroke="#bfbfbf" points="67,-313.5 67,-332.5 114,-332.5 114,-313.5 67,-313.5"/>
<text text-anchor="middle" x="90.5" y="-320.5" font-family="Helvetica,sans-Serif" font-size="10.00" fill="#000000">math.h</text>
</g>
<!-- Node19&#45;&gt;Node20 -->
<g id="edge41" class="edge">
<title>Node19&#45;&gt;Node20</title>
<path fill="none" stroke="#191970" d="M189.0432,-369.3733C170.0262,-360.4241 141.4825,-346.9917 120.0024,-336.8835"/>
<polygon fill="#191970" stroke="#191970" points="121.2284,-333.5923 110.6899,-332.5011 118.2478,-339.926 121.2284,-333.5923"/>
</g>
<!-- Node21 -->
<g id="node22" class="node">
<title>Node21</title>
<polygon fill="none" stroke="#bfbfbf" points="0,-313.5 0,-332.5 49,-332.5 49,-313.5 0,-313.5"/>
<text text-anchor="middle" x="24.5" y="-320.5" font-family="Helvetica,sans-Serif" font-size="10.00" fill="#000000">string.h</text>
</g>
<!-- Node19&#45;&gt;Node21 -->
<g id="edge42" class="edge">
<title>Node19&#45;&gt;Node21</title>
<path fill="none" stroke="#191970" d="M178.0589,-369.4886C149.3016,-360.7883 105.3239,-347.4811 58.6818,-333.3573"/>
<polygon fill="#191970" stroke="#191970" points="59.5932,-329.9763 49.008,-330.4278 57.5644,-336.6759 59.5932,-329.9763"/>
</g>
<!-- Node22 -->
<g id="node23" class="node">
<title>Node22</title>
<g id="a_node23"><a xlink:href="utils_2basic_8h.html" target="_top" xlink:title="General utility&#45; and helper&#45;functions used throughout the ViennaRNA Package. ">
<polygon fill="none" stroke="#000000" points="256.5,-313.5 256.5,-332.5 380.5,-332.5 380.5,-313.5 256.5,-313.5"/>
<text text-anchor="middle" x="318.5" y="-320.5" font-family="Helvetica,sans-Serif" font-size="10.00" fill="#000000">ViennaRNA/utils/basic.h</text>
</a>
</g>
</g>
<!-- Node19&#45;&gt;Node22 -->
<g id="edge43" class="edge">
<title>Node19&#45;&gt;Node22</title>
<path fill="none" stroke="#191970" d="M228.4864,-369.2455C245.6792,-360.4125 271.2238,-347.2887 290.7132,-337.2758"/>
<polygon fill="#191970" stroke="#191970" points="292.4359,-340.3257 299.7312,-332.6427 289.237,-334.0993 292.4359,-340.3257"/>
</g>
<!-- Node22&#45;&gt;Node3 -->
<g id="edge46" class="edge">
<title>Node22&#45;&gt;Node3</title>
<path fill="none" stroke="#191970" d="M374.6653,-313.4581C436.0876,-303.0231 534.905,-286.2351 603.5243,-274.5774"/>
<polygon fill="#191970" stroke="#191970" points="604.1488,-278.0215 613.4213,-272.896 602.9763,-271.1204 604.1488,-278.0215"/>
</g>
<!-- Node22&#45;&gt;Node18 -->
<g id="edge44" class="edge">
<title>Node22&#45;&gt;Node18</title>
<path fill="none" stroke="#191970" d="M292.2184,-313.4321C252.179,-296.9637 180.5,-259.2128 180.5,-200 180.5,-200 180.5,-200 180.5,-138.5 180.5,-100.8735 170.8626,-80.406 199.5,-56 224.5256,-34.6721 716.1617,-15.8843 850.0698,-11.1475"/>
<polygon fill="#191970" stroke="#191970" points="850.2746,-14.6426 860.1456,-10.7938 850.0289,-7.6469 850.2746,-14.6426"/>
</g>
<!-- Node23 -->
<g id="node24" class="node">
<title>Node23</title>
<polygon fill="none" stroke="#bfbfbf" points="292.5,-252 292.5,-271 344.5,-271 344.5,-252 292.5,-252"/>
<text text-anchor="middle" x="318.5" y="-259" font-family="Helvetica,sans-Serif" font-size="10.00" fill="#000000">stdarg.h</text>
</g>
<!-- Node22&#45;&gt;Node23 -->
<g id="edge45" class="edge">
<title>Node22&#45;&gt;Node23</title>
<path fill="none" stroke="#191970" d="M318.5,-313.3906C318.5,-304.8657 318.5,-292.1392 318.5,-281.4235"/>
<polygon fill="#191970" stroke="#191970" points="322.0001,-281.2448 318.5,-271.2449 315.0001,-281.2449 322.0001,-281.2448"/>
</g>
<!-- Node24&#45;&gt;Node3 -->
<g id="edge53" class="edge">
<title>Node24&#45;&gt;Node3</title>
<path fill="none" stroke="#191970" d="M645.6097,-369.3845C651.4051,-351.4644 664.0266,-312.4375 672.3929,-286.5681"/>
<polygon fill="#191970" stroke="#191970" points="675.8326,-287.3061 675.5796,-276.7143 669.1723,-285.1521 675.8326,-287.3061"/>
</g>
<!-- Node24&#45;&gt;Node8 -->
<g id="edge54" class="edge">
<title>Node24&#45;&gt;Node8</title>
<path fill="none" stroke="#191970" d="M634.982,-369.2534C610.8084,-338.5383 531.6174,-242.6827 445.5,-190 418.14,-173.2624 384.3944,-160.0839 358.142,-151.249"/>
<polygon fill="#191970" stroke="#191970" points="359.0691,-147.8696 348.4763,-148.0772 356.8866,-154.5207 359.0691,-147.8696"/>
</g>
<!-- Node24&#45;&gt;Node11 -->
<g id="edge55" class="edge">
<title>Node24&#45;&gt;Node11</title>
<path fill="none" stroke="#191970" d="M662.9745,-369.4435C716.0786,-344.5113 862.3342,-274.9141 980.5,-210 1010.283,-193.6388 1043.3547,-173.6123 1067.0593,-158.9203"/>
<polygon fill="#191970" stroke="#191970" points="1069.0176,-161.8241 1075.6593,-153.5694 1065.3196,-155.8806 1069.0176,-161.8241"/>
</g>
<!-- Node24&#45;&gt;Node13 -->
<g id="edge56" class="edge">
<title>Node24&#45;&gt;Node13</title>
<path fill="none" stroke="#191970" d="M671.5307,-369.4705C698.404,-360.5106 739.3877,-346.4937 774.5,-333 930.4272,-273.0772 1112.2601,-193.6677 1193.4899,-157.6817"/>
<polygon fill="#191970" stroke="#191970" points="1195.1669,-160.7668 1202.8888,-153.5126 1192.3285,-154.368 1195.1669,-160.7668"/>
</g>
<!-- Node24&#45;&gt;Node22 -->
<g id="edge50" class="edge">
<title>Node24&#45;&gt;Node22</title>
<path fill="none" stroke="#191970" d="M587.1706,-369.4369C530.7885,-359.6918 443.3742,-344.5832 383.673,-334.2645"/>
<polygon fill="#191970" stroke="#191970" points="384.0513,-330.778 373.6012,-332.5237 382.859,-337.6758 384.0513,-330.778"/>
</g>
<!-- Node25 -->
<g id="node26" class="node">
<title>Node25</title>
<g id="a_node26"><a xlink:href="default_8h_source.html" target="_top" xlink:title="ViennaRNA/params/default.h">
<polygon fill="none" stroke="#000000" points="8.5,-190.5 8.5,-209.5 152.5,-209.5 152.5,-190.5 8.5,-190.5"/>
<text text-anchor="middle" x="80.5" y="-197.5" font-family="Helvetica,sans-Serif" font-size="10.00" fill="#000000">ViennaRNA/params/default.h</text>
</a>
</g>
</g>
<!-- Node24&#45;&gt;Node25 -->
<g id="edge51" class="edge">
<title>Node24&#45;&gt;Node25</title>
<path fill="none" stroke="#191970" d="M573.7003,-375.0123C476.8281,-368.7142 305.5628,-354.8827 247.5,-333 181.8763,-308.2677 122.03,-247.4402 95.2697,-217.3844"/>
<polygon fill="#191970" stroke="#191970" points="97.8382,-215.0047 88.6219,-209.7787 92.5677,-219.6114 97.8382,-215.0047"/>
</g>
<!-- Node25&#45;&gt;Node4 -->
<g id="edge52" class="edge">
<title>Node25&#45;&gt;Node4</title>
<path fill="none" stroke="#191970" d="M96.1585,-190.2741C119.6795,-175.6652 165.5305,-147.1893 204.5,-123 224.3157,-110.6999 246.7954,-96.752 263.3576,-86.4768"/>
<polygon fill="#191970" stroke="#191970" points="265.2431,-89.426 271.8956,-81.18 261.5528,-83.4777 265.2431,-89.426"/>
</g>
<!-- Node26&#45;&gt;Node3 -->
<g id="edge59" class="edge">
<title>Node26&#45;&gt;Node3</title>
<path fill="none" stroke="#191970" d="M466.9329,-369.4553C502.8272,-362.4403 548.0772,-350.9403 585.5,-333 612.134,-320.2318 638.6731,-299.3999 656.9029,-283.5072"/>
<polygon fill="#191970" stroke="#191970" points="659.5214,-285.8622 664.6646,-276.5994 654.8677,-280.6331 659.5214,-285.8622"/>
</g>
<!-- Node26&#45;&gt;Node8 -->
<g id="edge60" class="edge">
<title>Node26&#45;&gt;Node8</title>
<path fill="none" stroke="#191970" d="M402.8825,-369.4582C400.561,-356.4958 395.8538,-332.6807 389.5,-313 370.698,-254.7612 340.16,-189.0459 324.8606,-157.4531"/>
<polygon fill="#191970" stroke="#191970" points="327.8294,-155.5563 320.2953,-148.1072 321.5397,-158.6287 327.8294,-155.5563"/>
</g>
<!-- Node26&#45;&gt;Node22 -->
<g id="edge58" class="edge">
<title>Node26&#45;&gt;Node22</title>
<path fill="none" stroke="#191970" d="M389.5199,-369.2455C376.3249,-360.6534 356.8949,-348.0014 341.6921,-338.1018"/>
<polygon fill="#191970" stroke="#191970" points="343.5983,-335.1665 333.3084,-332.6427 339.7785,-341.0325 343.5983,-335.1665"/>
</g>
</g>
</svg>
        <g id="navigator" transform="translate(0 0)" fill="#404254">
                <rect fill="#f2f5e9" fill-opacity="0.5" stroke="#606060" stroke-width=".5" x="0" y="0" width="60" height="60"/>
                <use id="zoomplus" xlink:href="#zoomPlus" x="17" y="9" onmousedown="handleZoom(evt,'in')"/>
                <use id="zoomminus" xlink:href="#zoomMin" x="42" y="9" onmousedown="handleZoom(evt,'out')"/>
                <use id="reset" xlink:href="#resetDef" x="30" y="36" onmousedown="handleReset()"/>
                <g id="arrowUp" xlink:href="#dirArrow" transform="translate(30 24)" onmousedown="handlePan(0,-1)">
                  <use xlink:href="#rim" fill="#404040">
                        <set attributeName="fill" to="#808080" begin="arrowUp.mouseover" end="arrowUp.mouseout"/>
                  </use>
                  <path fill="none" stroke="white" stroke-width="1.5" d="M0,-3.0v7 M-2.5,-0.5L0,-3.0L2.5,-0.5"/>
                </g>
                <g id="arrowRight" xlink:href="#dirArrow" transform="rotate(90) translate(36 -43)" onmousedown="handlePan(1,0)">
                  <use xlink:href="#rim" fill="#404040">
                        <set attributeName="fill" to="#808080" begin="arrowRight.mouseover" end="arrowRight.mouseout"/>
                  </use>
                  <path fill="none" stroke="white" stroke-width="1.5" d="M0,-3.0v7 M-2.5,-0.5L0,-3.0L2.5,-0.5"/>
                </g>
                <g id="arrowDown" xlink:href="#dirArrow" transform="rotate(180) translate(-30 -48)" onmousedown="handlePan(0,1)">
                  <use xlink:href="#rim" fill="#404040">
                        <set attributeName="fill" to="#808080" begin="arrowDown.mouseover" end="arrowDown.mouseout"/>
                  </use>
                  <path fill="none" stroke="white" stroke-width="1.5" d="M0,-3.0v7 M-2.5,-0.5L0,-3.0L2.5,-0.5"/>
                </g>
                <g id="arrowLeft" xlink:href="#dirArrow" transform="rotate(270) translate(-36 17)" onmousedown="handlePan(-1,0)">
                  <use xlink:href="#rim" fill="#404040">
                        <set attributeName="fill" to="#808080" begin="arrowLeft.mouseover" end="arrowLeft.mouseout"/>
                  </use>
                  <path fill="none" stroke="white" stroke-width="1.5" d="M0,-3.0v7 M-2.5,-0.5L0,-3.0L2.5,-0.5"/>
                </g>
        </g>
        <svg viewBox="0 0 15 15" width="100%" height="30px" preserveAspectRatio="xMaxYMin meet">
         <g id="arrow_out" transform="scale(0.3 0.3)">
          <a xlink:href="loop__energies_8h__incl_org.svg" target="_base">
           <rect id="button" ry="5" rx="5" y="6" x="6" height="38" width="38"
                fill="#f2f5e9" fill-opacity="0.5" stroke="#606060" stroke-width="1.0"/>
           <path id="arrow"
             d="M 11.500037,31.436501 C 11.940474,20.09759 22.043105,11.32322 32.158766,21.979434 L 37.068811,17.246167 C 37.068811,17.246167 37.088388,32 37.088388,32 L 22.160133,31.978069 C 22.160133,31.978069 26.997745,27.140456 26.997745,27.140456 C 18.528582,18.264221 13.291696,25.230495 11.500037,31.436501 z"
             style="fill:#404040;"/>
          </a>
         </g>
        </svg>
</svg>
