<?xml version="1.0" encoding="UTF-8" standalone="no"?>
<!DOCTYPE svg PUBLIC "-//W3C//DTD SVG 1.1//EN"
 "http://www.w3.org/Graphics/SVG/1.1/DTD/svg11.dtd">
<!-- Generated by graphviz version 2.40.1 (20161225.0304)
 -->
<!-- Title: ViennaRNA/LPfold.h Pages: 1 -->
<svg width="1407pt" height="408pt"
 viewBox="0.00 0.00 1407.00 408.00" xmlns="http://www.w3.org/2000/svg" xmlns:xlink="http://www.w3.org/1999/xlink">
<g id="graph0" class="graph" transform="scale(1 1) rotate(0) translate(4 404)">
<title>ViennaRNA/LPfold.h</title>
<!-- Node0 -->
<g id="node1" class="node">
<title>Node0</title>
<polygon fill="#bfbfbf" stroke="#000000" points="359,-380.5 359,-399.5 467,-399.5 467,-380.5 359,-380.5"/>
<text text-anchor="middle" x="413" y="-387.5" font-family="Helvetica,sans-Serif" font-size="10.00" fill="#000000">ViennaRNA/LPfold.h</text>
</g>
<!-- Node1 -->
<g id="node2" class="node">
<title>Node1</title>
<g id="a_node2"><a xlink:href="datastructures_2basic_8h.html" target="_top" xlink:title="Various data structures and pre&#45;processor macros. ">
<polygon fill="none" stroke="#000000" points="734,-246.5 734,-276.5 868,-276.5 868,-246.5 734,-246.5"/>
<text text-anchor="start" x="742" y="-264.5" font-family="Helvetica,sans-Serif" font-size="10.00" fill="#000000">ViennaRNA/datastructures</text>
<text text-anchor="middle" x="801" y="-253.5" font-family="Helvetica,sans-Serif" font-size="10.00" fill="#000000">/basic.h</text>
</a>
</g>
</g>
<!-- Node0&#45;&gt;Node1 -->
<g id="edge1" class="edge">
<title>Node0&#45;&gt;Node1</title>
<path fill="none" stroke="#191970" d="M441.8461,-380.4466C506.2107,-359.13 662.4502,-307.3857 746.0583,-279.6959"/>
<polygon fill="#191970" stroke="#191970" points="747.245,-282.9899 755.6376,-276.5234 745.0442,-276.3448 747.245,-282.9899"/>
</g>
<!-- Node6 -->
<g id="node7" class="node">
<title>Node6</title>
<g id="a_node7"><a xlink:href="params_2basic_8h.html" target="_top" xlink:title="Functions to deal with sets of energy parameters. ">
<polygon fill="none" stroke="#000000" points="58,-129 58,-148 196,-148 196,-129 58,-129"/>
<text text-anchor="middle" x="127" y="-136" font-family="Helvetica,sans-Serif" font-size="10.00" fill="#000000">ViennaRNA/params/basic.h</text>
</a>
</g>
</g>
<!-- Node0&#45;&gt;Node6 -->
<g id="edge37" class="edge">
<title>Node0&#45;&gt;Node6</title>
<path fill="none" stroke="#191970" d="M398.4374,-380.4288C385.0201,-371.4402 364.7181,-357.4044 348,-344 267.0562,-279.1001 179.1024,-191.6437 143.416,-155.3598"/>
<polygon fill="#191970" stroke="#191970" points="145.7402,-152.7308 136.2416,-148.0373 140.7401,-157.6297 145.7402,-152.7308"/>
</g>
<!-- Node17 -->
<g id="node18" class="node">
<title>Node17</title>
<g id="a_node18"><a xlink:href="part__func__window_8h.html" target="_top" xlink:title="Partition function and equilibrium probability implementation for the sliding window algorithm...">
<polygon fill="none" stroke="#000000" points="357,-313.5 357,-343.5 469,-343.5 469,-313.5 357,-313.5"/>
<text text-anchor="start" x="365" y="-331.5" font-family="Helvetica,sans-Serif" font-size="10.00" fill="#000000">ViennaRNA/part_func</text>
<text text-anchor="middle" x="413" y="-320.5" font-family="Helvetica,sans-Serif" font-size="10.00" fill="#000000">_window.h</text>
</a>
</g>
</g>
<!-- Node0&#45;&gt;Node17 -->
<g id="edge38" class="edge">
<title>Node0&#45;&gt;Node17</title>
<path fill="none" stroke="#191970" d="M413,-380.3906C413,-373.2234 413,-363.0862 413,-353.671"/>
<polygon fill="#191970" stroke="#191970" points="416.5001,-353.5446 413,-343.5446 409.5001,-353.5446 416.5001,-353.5446"/>
</g>
<!-- Node2 -->
<g id="node3" class="node">
<title>Node2</title>
<g id="a_node3"><a xlink:href="constants_8h.html" target="_top" xlink:title="Energy parameter constants. ">
<polygon fill="none" stroke="#000000" points="0,-62 0,-81 158,-81 158,-62 0,-62"/>
<text text-anchor="middle" x="79" y="-69" font-family="Helvetica,sans-Serif" font-size="10.00" fill="#000000">ViennaRNA/params/constants.h</text>
</a>
</g>
</g>
<!-- Node1&#45;&gt;Node2 -->
<g id="edge2" class="edge">
<title>Node1&#45;&gt;Node2</title>
<path fill="none" stroke="#191970" d="M733.9558,-257.0277C557.7516,-244.5771 92.1652,-206.9184 49,-154 33.4363,-134.9197 49.466,-107.0636 63.4105,-89.1081"/>
<polygon fill="#191970" stroke="#191970" points="66.2902,-91.1168 69.941,-81.1708 60.8846,-86.6693 66.2902,-91.1168"/>
</g>
<!-- Node4 -->
<g id="node5" class="node">
<title>Node4</title>
<g id="a_node5"><a xlink:href="fold__compound_8h.html" target="_top" xlink:title="The Basic Fold Compound API. ">
<polygon fill="none" stroke="#000000" points="527,-190.5 527,-209.5 673,-209.5 673,-190.5 527,-190.5"/>
<text text-anchor="middle" x="600" y="-197.5" font-family="Helvetica,sans-Serif" font-size="10.00" fill="#000000">ViennaRNA/fold_compound.h</text>
</a>
</g>
</g>
<!-- Node1&#45;&gt;Node4 -->
<g id="edge4" class="edge">
<title>Node1&#45;&gt;Node4</title>
<path fill="none" stroke="#191970" d="M751.8299,-246.4554C717.8512,-236.059 673.1719,-222.3884 641.0914,-212.5727"/>
<polygon fill="#191970" stroke="#191970" points="641.7343,-209.1094 631.1479,-209.5303 639.6862,-215.803 641.7343,-209.1094"/>
</g>
<!-- Node5 -->
<g id="node6" class="node">
<title>Node5</title>
<g id="a_node6"><a xlink:href="model_8h.html" target="_top" xlink:title="The model details data structure and its corresponding modifiers. ">
<polygon fill="none" stroke="#000000" points="458,-62 458,-81 564,-81 564,-62 458,-62"/>
<text text-anchor="middle" x="511" y="-69" font-family="Helvetica,sans-Serif" font-size="10.00" fill="#000000">ViennaRNA/model.h</text>
</a>
</g>
</g>
<!-- Node1&#45;&gt;Node5 -->
<g id="edge28" class="edge">
<title>Node1&#45;&gt;Node5</title>
<path fill="none" stroke="#191970" d="M807.036,-246.4905C817.1585,-218.5892 833.6919,-158.366 804,-123 775.2767,-88.7877 651.5894,-77.2965 574.3903,-73.4415"/>
<polygon fill="#191970" stroke="#191970" points="574.4392,-69.94 564.2861,-72.967 574.1109,-76.9323 574.4392,-69.94"/>
</g>
<!-- Node1&#45;&gt;Node6 -->
<g id="edge29" class="edge">
<title>Node1&#45;&gt;Node6</title>
<path fill="none" stroke="#191970" d="M733.7179,-255.5155C654.4598,-247.5179 519.3557,-231.7828 405,-210 317.8056,-193.3909 217.5098,-166.6122 164.3317,-150.9703"/>
<polygon fill="#191970" stroke="#191970" points="165.236,-147.5878 154.6531,-148.0905 163.2396,-154.2971 165.236,-147.5878"/>
</g>
<!-- Node8 -->
<g id="node9" class="node">
<title>Node8</title>
<g id="a_node9"><a xlink:href="dp__matrices_8h.html" target="_top" xlink:title="Functions to deal with standard dynamic programming (DP) matrices. ">
<polygon fill="none" stroke="#000000" points="214.5,-129 214.5,-148 347.5,-148 347.5,-129 214.5,-129"/>
<text text-anchor="middle" x="281" y="-136" font-family="Helvetica,sans-Serif" font-size="10.00" fill="#000000">ViennaRNA/dp_matrices.h</text>
</a>
</g>
</g>
<!-- Node1&#45;&gt;Node8 -->
<g id="edge30" class="edge">
<title>Node1&#45;&gt;Node8</title>
<path fill="none" stroke="#191970" d="M733.9061,-255.2003C666.5185,-247.6356 560.3676,-233.0104 471,-210 410.882,-194.5208 343.3565,-168.2937 307.0349,-152.2718"/>
<polygon fill="#191970" stroke="#191970" points="308.2048,-148.96 297.6499,-148.0408 305.3279,-155.3415 308.2048,-148.96"/>
</g>
<!-- Node9 -->
<g id="node10" class="node">
<title>Node9</title>
<g id="a_node10"><a xlink:href="hard_8h.html" target="_top" xlink:title="Functions and data structures for handling of secondary structure hard constraints. ">
<polygon fill="none" stroke="#000000" points="851.5,-123.5 851.5,-153.5 970.5,-153.5 970.5,-123.5 851.5,-123.5"/>
<text text-anchor="start" x="859.5" y="-141.5" font-family="Helvetica,sans-Serif" font-size="10.00" fill="#000000">ViennaRNA/constraints</text>
<text text-anchor="middle" x="911" y="-130.5" font-family="Helvetica,sans-Serif" font-size="10.00" fill="#000000">/hard.h</text>
</a>
</g>
</g>
<!-- Node1&#45;&gt;Node9 -->
<g id="edge31" class="edge">
<title>Node1&#45;&gt;Node9</title>
<path fill="none" stroke="#191970" d="M809.8739,-246.4178C826.4304,-225.0239 861.3407,-185.7133 885.6132,-160.9037"/>
<polygon fill="#191970" stroke="#191970" points="888.2021,-163.264 892.7725,-153.7056 883.2389,-158.3276 888.2021,-163.264"/>
</g>
<!-- Node11 -->
<g id="node12" class="node">
<title>Node11</title>
<g id="a_node12"><a xlink:href="soft_8h.html" target="_top" xlink:title="Functions and data structures for secondary structure soft constraints. ">
<polygon fill="none" stroke="#000000" points="988.5,-123.5 988.5,-153.5 1107.5,-153.5 1107.5,-123.5 988.5,-123.5"/>
<text text-anchor="start" x="996.5" y="-141.5" font-family="Helvetica,sans-Serif" font-size="10.00" fill="#000000">ViennaRNA/constraints</text>
<text text-anchor="middle" x="1048" y="-130.5" font-family="Helvetica,sans-Serif" font-size="10.00" fill="#000000">/soft.h</text>
</a>
</g>
</g>
<!-- Node1&#45;&gt;Node11 -->
<g id="edge32" class="edge">
<title>Node1&#45;&gt;Node11</title>
<path fill="none" stroke="#191970" d="M826.6728,-246.4178C868.7389,-224.1336 952.3698,-182.4104 1003.996,-157.8839"/>
<polygon fill="#191970" stroke="#191970" points="1005.7,-160.9499 1013.246,-153.513 1002.7093,-154.6209 1005.7,-160.9499"/>
</g>
<!-- Node12 -->
<g id="node13" class="node">
<title>Node12</title>
<g id="a_node13"><a xlink:href="grammar_8h.html" target="_top" xlink:title="Implementations for the RNA folding grammar. ">
<polygon fill="none" stroke="#000000" points="365.5,-129 365.5,-148 482.5,-148 482.5,-129 365.5,-129"/>
<text text-anchor="middle" x="424" y="-136" font-family="Helvetica,sans-Serif" font-size="10.00" fill="#000000">ViennaRNA/grammar.h</text>
</a>
</g>
</g>
<!-- Node1&#45;&gt;Node12 -->
<g id="edge33" class="edge">
<title>Node1&#45;&gt;Node12</title>
<path fill="none" stroke="#191970" d="M733.7586,-252.947C662.6898,-243.2578 555.7571,-226.6418 518,-210 487.737,-196.6613 458.2929,-171.7468 440.6498,-155.1388"/>
<polygon fill="#191970" stroke="#191970" points="443.0423,-152.5837 433.4133,-148.1641 438.1845,-157.6238 443.0423,-152.5837"/>
</g>
<!-- Node13 -->
<g id="node14" class="node">
<title>Node13</title>
<g id="a_node14"><a xlink:href="structured__domains_8h.html" target="_top" xlink:title="This module provides interfaces that deal with additional structured domains in the folding grammar...">
<polygon fill="none" stroke="#000000" points="679.5,-123.5 679.5,-153.5 794.5,-153.5 794.5,-123.5 679.5,-123.5"/>
<text text-anchor="start" x="687.5" y="-141.5" font-family="Helvetica,sans-Serif" font-size="10.00" fill="#000000">ViennaRNA/structured</text>
<text text-anchor="middle" x="737" y="-130.5" font-family="Helvetica,sans-Serif" font-size="10.00" fill="#000000">_domains.h</text>
</a>
</g>
</g>
<!-- Node1&#45;&gt;Node13 -->
<g id="edge34" class="edge">
<title>Node1&#45;&gt;Node13</title>
<path fill="none" stroke="#191970" d="M793.1523,-246.4178C782.3085,-225.5772 762.618,-187.7346 749.6736,-162.8571"/>
<polygon fill="#191970" stroke="#191970" points="752.6325,-160.961 744.9118,-153.7056 746.4228,-164.1921 752.6325,-160.961"/>
</g>
<!-- Node14 -->
<g id="node15" class="node">
<title>Node14</title>
<g id="a_node15"><a xlink:href="unstructured__domains_8h.html" target="_top" xlink:title="Functions to modify unstructured domains, e.g. to incorporate ligands binding to unpaired stretches...">
<polygon fill="none" stroke="#000000" points="1164.5,-123.5 1164.5,-153.5 1289.5,-153.5 1289.5,-123.5 1164.5,-123.5"/>
<text text-anchor="start" x="1172.5" y="-141.5" font-family="Helvetica,sans-Serif" font-size="10.00" fill="#000000">ViennaRNA/unstructured</text>
<text text-anchor="middle" x="1227" y="-130.5" font-family="Helvetica,sans-Serif" font-size="10.00" fill="#000000">_domains.h</text>
</a>
</g>
</g>
<!-- Node1&#45;&gt;Node14 -->
<g id="edge35" class="edge">
<title>Node1&#45;&gt;Node14</title>
<path fill="none" stroke="#191970" d="M868.2002,-255.7982C953.1129,-248.1136 1093.6513,-232.7229 1141,-210 1164.6036,-198.6725 1185.9422,-177.5745 1201.7228,-161.2208"/>
<polygon fill="#191970" stroke="#191970" points="1204.6044,-163.2734 1209.0087,-153.6373 1199.5566,-158.4236 1204.6044,-163.2734"/>
</g>
<!-- Node15 -->
<g id="node16" class="node">
<title>Node15</title>
<g id="a_node16"><a xlink:href="utils_2structures_8h.html" target="_top" xlink:title="Various utility&#45; and helper&#45;functions for secondary structure parsing, converting, etc. ">
<polygon fill="none" stroke="#000000" points="1255,-62 1255,-81 1399,-81 1399,-62 1255,-62"/>
<text text-anchor="middle" x="1327" y="-69" font-family="Helvetica,sans-Serif" font-size="10.00" fill="#000000">ViennaRNA/utils/structures.h</text>
</a>
</g>
</g>
<!-- Node1&#45;&gt;Node15 -->
<g id="edge36" class="edge">
<title>Node1&#45;&gt;Node15</title>
<path fill="none" stroke="#191970" d="M868.0783,-258.8851C944.5844,-254.4349 1072.4995,-242.4205 1178,-210 1231.198,-193.6522 1253.4216,-195.944 1290,-154 1305.633,-136.0739 1312.6254,-109.041 1317.7798,-90.8535"/>
<polygon fill="#191970" stroke="#191970" points="1321.1946,-91.6525 1320.7328,-81.0677 1314.493,-89.6302 1321.1946,-91.6525"/>
</g>
<!-- Node3 -->
<g id="node4" class="node">
<title>Node3</title>
<polygon fill="none" stroke="#bfbfbf" points="55,-.5 55,-19.5 103,-19.5 103,-.5 55,-.5"/>
<text text-anchor="middle" x="79" y="-7.5" font-family="Helvetica,sans-Serif" font-size="10.00" fill="#000000">limits.h</text>
</g>
<!-- Node2&#45;&gt;Node3 -->
<g id="edge3" class="edge">
<title>Node2&#45;&gt;Node3</title>
<path fill="none" stroke="#191970" d="M79,-61.8906C79,-53.3657 79,-40.6392 79,-29.9235"/>
<polygon fill="#191970" stroke="#191970" points="82.5001,-29.7448 79,-19.7449 75.5001,-29.7449 82.5001,-29.7448"/>
</g>
<!-- Node4&#45;&gt;Node5 -->
<g id="edge5" class="edge">
<title>Node4&#45;&gt;Node5</title>
<path fill="none" stroke="#191970" d="M576.7348,-190.3548C561.1894,-182.7278 541.5445,-170.5922 530,-154 516.9926,-135.3052 512.7705,-109.0162 511.4641,-91.1755"/>
<polygon fill="#191970" stroke="#191970" points="514.9542,-90.8861 510.9691,-81.0693 507.9626,-91.2286 514.9542,-90.8861"/>
</g>
<!-- Node4&#45;&gt;Node6 -->
<g id="edge6" class="edge">
<title>Node4&#45;&gt;Node6</title>
<path fill="none" stroke="#191970" d="M526.7904,-193.1665C447.505,-185.3666 317.4187,-171.4076 206,-154 198.3294,-152.8016 190.2682,-151.3935 182.347,-149.9231"/>
<polygon fill="#191970" stroke="#191970" points="182.9059,-146.4668 172.4283,-148.0384 181.5992,-153.3437 182.9059,-146.4668"/>
</g>
<!-- Node7 -->
<g id="node8" class="node">
<title>Node7</title>
<g id="a_node8"><a xlink:href="sequence_8h.html" target="_top" xlink:title="Functions and data structures related to sequence representations ,. ">
<polygon fill="none" stroke="#000000" points="539,-129 539,-148 661,-148 661,-129 539,-129"/>
<text text-anchor="middle" x="600" y="-136" font-family="Helvetica,sans-Serif" font-size="10.00" fill="#000000">ViennaRNA/sequence.h</text>
</a>
</g>
</g>
<!-- Node4&#45;&gt;Node7 -->
<g id="edge10" class="edge">
<title>Node4&#45;&gt;Node7</title>
<path fill="none" stroke="#191970" d="M600,-190.3906C600,-181.8657 600,-169.1392 600,-158.4235"/>
<polygon fill="#191970" stroke="#191970" points="603.5001,-158.2448 600,-148.2449 596.5001,-158.2449 603.5001,-158.2448"/>
</g>
<!-- Node4&#45;&gt;Node8 -->
<g id="edge11" class="edge">
<title>Node4&#45;&gt;Node8</title>
<path fill="none" stroke="#191970" d="M548.2895,-190.4297C499.0676,-181.2683 422.9337,-166.9635 357,-154 350.6701,-152.7555 344.0478,-151.4339 337.4643,-150.1078"/>
<polygon fill="#191970" stroke="#191970" points="337.6937,-146.5833 327.1982,-148.0304 336.3053,-153.4443 337.6937,-146.5833"/>
</g>
<!-- Node4&#45;&gt;Node9 -->
<g id="edge13" class="edge">
<title>Node4&#45;&gt;Node9</title>
<path fill="none" stroke="#191970" d="M648.2525,-190.4581C700.0244,-180.2203 782.7204,-163.8672 841.5,-152.2436"/>
<polygon fill="#191970" stroke="#191970" points="842.3197,-155.6493 851.4507,-150.2758 840.9617,-148.7823 842.3197,-155.6493"/>
</g>
<!-- Node4&#45;&gt;Node11 -->
<g id="edge17" class="edge">
<title>Node4&#45;&gt;Node11</title>
<path fill="none" stroke="#191970" d="M673.1776,-193.4137C747.6907,-186.1925 866.7136,-173.2431 978.2862,-154.2014"/>
<polygon fill="#191970" stroke="#191970" points="979.108,-157.6113 988.3665,-152.4606 977.9168,-150.7134 979.108,-157.6113"/>
</g>
<!-- Node4&#45;&gt;Node12 -->
<g id="edge20" class="edge">
<title>Node4&#45;&gt;Node12</title>
<path fill="none" stroke="#191970" d="M567.4375,-190.3906C535.5678,-179.9652 487.5542,-163.2559 455.9139,-151.6252"/>
<polygon fill="#191970" stroke="#191970" points="456.8506,-148.2397 446.2576,-148.0419 454.4152,-154.8024 456.8506,-148.2397"/>
</g>
<!-- Node4&#45;&gt;Node13 -->
<g id="edge22" class="edge">
<title>Node4&#45;&gt;Node13</title>
<path fill="none" stroke="#191970" d="M621.4063,-190.3906C640.8059,-181.682 669.9729,-168.5888 694.1543,-157.7336"/>
<polygon fill="#191970" stroke="#191970" points="695.7965,-160.833 703.486,-153.5446 692.9297,-154.447 695.7965,-160.833"/>
</g>
<!-- Node4&#45;&gt;Node14 -->
<g id="edge23" class="edge">
<title>Node4&#45;&gt;Node14</title>
<path fill="none" stroke="#191970" d="M673.3221,-194.6655C773.6351,-187.0961 959.2159,-172.124 1117,-154 1128.9749,-152.6245 1141.6592,-150.9967 1153.9928,-149.3219"/>
<polygon fill="#191970" stroke="#191970" points="1154.8188,-152.7412 1164.2472,-147.9085 1153.8629,-145.8068 1154.8188,-152.7412"/>
</g>
<!-- Node6&#45;&gt;Node1 -->
<g id="edge8" class="edge">
<title>Node6&#45;&gt;Node1</title>
<path fill="none" stroke="#191970" d="M165.9695,-148.0905C222.5275,-163.1183 330.186,-192.3205 423,-210 526.5477,-229.7241 647.1072,-244.4896 723.7781,-253.042"/>
<polygon fill="#191970" stroke="#191970" points="723.5096,-256.5336 733.8342,-254.1563 724.2806,-249.5762 723.5096,-256.5336"/>
</g>
<!-- Node6&#45;&gt;Node2 -->
<g id="edge7" class="edge">
<title>Node6&#45;&gt;Node2</title>
<path fill="none" stroke="#191970" d="M120.1228,-128.9005C112.7802,-118.6515 100.9759,-102.1747 91.8938,-89.4976"/>
<polygon fill="#191970" stroke="#191970" points="94.5336,-87.1724 85.8645,-81.0817 88.8432,-91.2492 94.5336,-87.1724"/>
</g>
<!-- Node6&#45;&gt;Node5 -->
<g id="edge9" class="edge">
<title>Node6&#45;&gt;Node5</title>
<path fill="none" stroke="#191970" d="M174.5852,-128.9522C184.9317,-126.9353 195.8252,-124.8568 206,-123 289.446,-107.7716 386.0335,-91.729 447.7766,-81.6745"/>
<polygon fill="#191970" stroke="#191970" points="448.4473,-85.1115 457.7561,-80.0522 447.324,-78.2022 448.4473,-85.1115"/>
</g>
<!-- Node8&#45;&gt;Node1 -->
<g id="edge12" class="edge">
<title>Node8&#45;&gt;Node1</title>
<path fill="none" stroke="#191970" d="M308.8568,-148.0408C348.594,-163.267 423.2299,-193.0655 489,-210 568.1222,-230.3724 660.4002,-244.172 724.0305,-252.3182"/>
<polygon fill="#191970" stroke="#191970" points="723.6304,-255.7954 733.9904,-253.5772 724.5083,-248.8506 723.6304,-255.7954"/>
</g>
<!-- Node9&#45;&gt;Node1 -->
<g id="edge14" class="edge">
<title>Node9&#45;&gt;Node1</title>
<path fill="none" stroke="#191970" d="M902.0306,-153.7056C885.4037,-175.1681 850.4788,-214.4851 826.2472,-239.239"/>
<polygon fill="#191970" stroke="#191970" points="823.6759,-236.8609 819.1024,-246.4178 828.6374,-241.7989 823.6759,-236.8609"/>
</g>
<!-- Node10 -->
<g id="node11" class="node">
<title>Node10</title>
<g id="a_node11"><a xlink:href="constraints_2basic_8h.html" target="_top" xlink:title="Functions and data structures for constraining secondary structure predictions and evaluation...">
<polygon fill="none" stroke="#000000" points="988.5,-56.5 988.5,-86.5 1107.5,-86.5 1107.5,-56.5 988.5,-56.5"/>
<text text-anchor="start" x="996.5" y="-74.5" font-family="Helvetica,sans-Serif" font-size="10.00" fill="#000000">ViennaRNA/constraints</text>
<text text-anchor="middle" x="1048" y="-63.5" font-family="Helvetica,sans-Serif" font-size="10.00" fill="#000000">/basic.h</text>
</a>
</g>
</g>
<!-- Node9&#45;&gt;Node10 -->
<g id="edge15" class="edge">
<title>Node9&#45;&gt;Node10</title>
<path fill="none" stroke="#191970" d="M941.7455,-123.4639C961.2624,-113.9191 986.7257,-101.4663 1007.8325,-91.144"/>
<polygon fill="#191970" stroke="#191970" points="1009.4375,-94.2552 1016.8831,-86.7177 1006.3622,-87.9669 1009.4375,-94.2552"/>
</g>
<!-- Node10&#45;&gt;Node1 -->
<g id="edge16" class="edge">
<title>Node10&#45;&gt;Node1</title>
<path fill="none" stroke="#191970" d="M1076.2005,-86.7535C1102.302,-102.902 1134.6111,-129.4066 1117,-154 1088.725,-193.4852 962.0111,-227.3489 877.8833,-246.0257"/>
<polygon fill="#191970" stroke="#191970" points="877.1171,-242.6104 868.0994,-248.1721 878.6172,-249.4478 877.1171,-242.6104"/>
</g>
<!-- Node11&#45;&gt;Node1 -->
<g id="edge18" class="edge">
<title>Node11&#45;&gt;Node1</title>
<path fill="none" stroke="#191970" d="M1022.4579,-153.513C980.478,-175.7568 896.8571,-217.4777 845.1646,-242.0398"/>
<polygon fill="#191970" stroke="#191970" points="843.4468,-238.9803 835.9013,-246.4178 846.438,-245.3091 843.4468,-238.9803"/>
</g>
<!-- Node11&#45;&gt;Node10 -->
<g id="edge19" class="edge">
<title>Node11&#45;&gt;Node10</title>
<path fill="none" stroke="#191970" d="M1048,-123.2967C1048,-115.5013 1048,-105.7991 1048,-96.9064"/>
<polygon fill="#191970" stroke="#191970" points="1051.5001,-96.6431 1048,-86.6432 1044.5001,-96.6432 1051.5001,-96.6431"/>
</g>
<!-- Node12&#45;&gt;Node4 -->
<g id="edge21" class="edge">
<title>Node12&#45;&gt;Node4</title>
<path fill="none" stroke="#191970" d="M456.3562,-148.0419C488.156,-158.4402 536.1699,-175.1468 567.8808,-186.7993"/>
<polygon fill="#191970" stroke="#191970" points="566.9695,-190.1943 577.5625,-190.3906 569.404,-183.6312 566.9695,-190.1943"/>
</g>
<!-- Node14&#45;&gt;Node1 -->
<g id="edge24" class="edge">
<title>Node14&#45;&gt;Node1</title>
<path fill="none" stroke="#191970" d="M1222.0118,-153.6373C1210.865,-170.408 1186.466,-196.8189 1159,-210 1111.2152,-232.9321 968.5162,-248.3965 878.3055,-256.0086"/>
<polygon fill="#191970" stroke="#191970" points="877.7942,-252.5389 868.1178,-256.8537 878.3729,-259.5149 877.7942,-252.5389"/>
</g>
<!-- Node14&#45;&gt;Node15 -->
<g id="edge25" class="edge">
<title>Node14&#45;&gt;Node15</title>
<path fill="none" stroke="#191970" d="M1249.6915,-123.2967C1266.0283,-112.351 1287.9759,-97.6462 1304.3119,-86.701"/>
<polygon fill="#191970" stroke="#191970" points="1306.3793,-89.5289 1312.7388,-81.055 1302.483,-83.7135 1306.3793,-89.5289"/>
</g>
<!-- Node15&#45;&gt;Node1 -->
<g id="edge27" class="edge">
<title>Node15&#45;&gt;Node1</title>
<path fill="none" stroke="#191970" d="M1331.4895,-81.0677C1333.0965,-97.7551 1326.7889,-132.455 1308,-154 1271.4216,-195.944 1249.198,-193.6522 1196,-210 1089.094,-242.8524 959.1723,-254.7514 878.1914,-259.0589"/>
<polygon fill="#191970" stroke="#191970" points="877.8852,-255.5698 868.075,-259.571 878.2391,-262.5609 877.8852,-255.5698"/>
</g>
<!-- Node16 -->
<g id="node17" class="node">
<title>Node16</title>
<polygon fill="none" stroke="#bfbfbf" points="1304,-.5 1304,-19.5 1350,-19.5 1350,-.5 1304,-.5"/>
<text text-anchor="middle" x="1327" y="-7.5" font-family="Helvetica,sans-Serif" font-size="10.00" fill="#000000">stdio.h</text>
</g>
<!-- Node15&#45;&gt;Node16 -->
<g id="edge26" class="edge">
<title>Node15&#45;&gt;Node16</title>
<path fill="none" stroke="#191970" d="M1327,-61.8906C1327,-53.3657 1327,-40.6392 1327,-29.9235"/>
<polygon fill="#191970" stroke="#191970" points="1330.5001,-29.7448 1327,-19.7449 1323.5001,-29.7449 1330.5001,-29.7448"/>
</g>
<!-- Node17&#45;&gt;Node1 -->
<g id="edge39" class="edge">
<title>Node17&#45;&gt;Node1</title>
<path fill="none" stroke="#191970" d="M469.0042,-318.8292C536.0861,-307.2454 648.8088,-287.7804 724.0377,-274.7899"/>
<polygon fill="#191970" stroke="#191970" points="724.6777,-278.2313 733.9363,-273.0806 723.4865,-271.3333 724.6777,-278.2313"/>
</g>
<!-- Node17&#45;&gt;Node6 -->
<g id="edge40" class="edge">
<title>Node17&#45;&gt;Node6</title>
<path fill="none" stroke="#191970" d="M390.0789,-313.2727C336.4491,-277.6445 203.2983,-189.1877 149.7942,-153.643"/>
<polygon fill="#191970" stroke="#191970" points="151.6051,-150.6441 141.3389,-148.0258 147.7316,-156.4747 151.6051,-150.6441"/>
</g>
</g>
</svg>
