<?xml version="1.0" encoding="UTF-8" standalone="no"?>
<!DOCTYPE svg PUBLIC "-//W3C//DTD SVG 1.1//EN"
 "http://www.w3.org/Graphics/SVG/1.1/DTD/svg11.dtd">
<!-- Generated by graphviz version 2.40.1 (20161225.0304)
 -->
<!-- Title: ViennaRNA/multibranch_loops.h Pages: 1 -->
<svg width="1434pt" height="464pt"
 viewBox="0.00 0.00 1434.00 464.00" xmlns="http://www.w3.org/2000/svg" xmlns:xlink="http://www.w3.org/1999/xlink">
<g id="graph0" class="graph" transform="scale(1 1) rotate(0) translate(4 460)">
<title>ViennaRNA/multibranch_loops.h</title>
<!-- Node0 -->
<g id="node1" class="node">
<title>Node0</title>
<polygon fill="#bfbfbf" stroke="#000000" points="811,-425.5 811,-455.5 933,-455.5 933,-425.5 811,-425.5"/>
<text text-anchor="start" x="819" y="-443.5" font-family="Helvetica,sans-Serif" font-size="10.00" fill="#000000">ViennaRNA/multibranch</text>
<text text-anchor="middle" x="872" y="-432.5" font-family="Helvetica,sans-Serif" font-size="10.00" fill="#000000">_loops.h</text>
</g>
<!-- Node1 -->
<g id="node2" class="node">
<title>Node1</title>
<g id="a_node2"><a xlink:href="multibranch_8h.html" target="_top" xlink:title="Energy evaluation of multibranch loops for MFE and partition function calculations. ">
<polygon fill="none" stroke="#000000" points="794,-369.5 794,-388.5 950,-388.5 950,-369.5 794,-369.5"/>
<text text-anchor="middle" x="872" y="-376.5" font-family="Helvetica,sans-Serif" font-size="10.00" fill="#000000">ViennaRNA/loops/multibranch.h</text>
</a>
</g>
</g>
<!-- Node0&#45;&gt;Node1 -->
<g id="edge1" class="edge">
<title>Node0&#45;&gt;Node1</title>
<path fill="none" stroke="#191970" d="M872,-425.2977C872,-417.3834 872,-407.6043 872,-399.0759"/>
<polygon fill="#191970" stroke="#191970" points="875.5001,-398.8469 872,-388.8469 868.5001,-398.847 875.5001,-398.8469"/>
</g>
<!-- Node2 -->
<g id="node3" class="node">
<title>Node2</title>
<g id="a_node3"><a xlink:href="utils_2basic_8h.html" target="_top" xlink:title="General utility&#45; and helper&#45;functions used throughout the ViennaRNA Package. ">
<polygon fill="none" stroke="#000000" points="910,-313.5 910,-332.5 1034,-332.5 1034,-313.5 910,-313.5"/>
<text text-anchor="middle" x="972" y="-320.5" font-family="Helvetica,sans-Serif" font-size="10.00" fill="#000000">ViennaRNA/utils/basic.h</text>
</a>
</g>
</g>
<!-- Node1&#45;&gt;Node2 -->
<g id="edge2" class="edge">
<title>Node1&#45;&gt;Node2</title>
<path fill="none" stroke="#191970" d="M889.4187,-369.2455C905.0485,-360.4928 928.2019,-347.527 946.0185,-337.5496"/>
<polygon fill="#191970" stroke="#191970" points="947.766,-340.5825 954.7809,-332.6427 944.3457,-334.475 947.766,-340.5825"/>
</g>
<!-- Node5 -->
<g id="node6" class="node">
<title>Node5</title>
<g id="a_node6"><a xlink:href="datastructures_2basic_8h.html" target="_top" xlink:title="Various data structures and pre&#45;processor macros. ">
<polygon fill="none" stroke="#000000" points="805,-246.5 805,-276.5 939,-276.5 939,-246.5 805,-246.5"/>
<text text-anchor="start" x="813" y="-264.5" font-family="Helvetica,sans-Serif" font-size="10.00" fill="#000000">ViennaRNA/datastructures</text>
<text text-anchor="middle" x="872" y="-253.5" font-family="Helvetica,sans-Serif" font-size="10.00" fill="#000000">/basic.h</text>
</a>
</g>
</g>
<!-- Node1&#45;&gt;Node5 -->
<g id="edge41" class="edge">
<title>Node1&#45;&gt;Node5</title>
<path fill="none" stroke="#191970" d="M872,-369.3845C872,-351.544 872,-312.7839 872,-286.9138"/>
<polygon fill="#191970" stroke="#191970" points="875.5001,-286.7143 872,-276.7143 868.5001,-286.7143 875.5001,-286.7143"/>
</g>
<!-- Node10 -->
<g id="node11" class="node">
<title>Node10</title>
<g id="a_node11"><a xlink:href="params_2basic_8h.html" target="_top" xlink:title="Functions to deal with sets of energy parameters. ">
<polygon fill="none" stroke="#000000" points="85,-129 85,-148 223,-148 223,-129 85,-129"/>
<text text-anchor="middle" x="154" y="-136" font-family="Helvetica,sans-Serif" font-size="10.00" fill="#000000">ViennaRNA/params/basic.h</text>
</a>
</g>
</g>
<!-- Node1&#45;&gt;Node10 -->
<g id="edge42" class="edge">
<title>Node1&#45;&gt;Node10</title>
<path fill="none" stroke="#191970" d="M812.2819,-369.4746C667.6502,-345.5401 303.12,-279.7847 203,-210 183.9841,-196.7457 170.1122,-173.5565 162.0783,-157.1861"/>
<polygon fill="#191970" stroke="#191970" points="165.2141,-155.6284 157.8368,-148.0242 158.8618,-158.5693 165.2141,-155.6284"/>
</g>
<!-- Node3 -->
<g id="node4" class="node">
<title>Node3</title>
<polygon fill="none" stroke="#bfbfbf" points="1353,-.5 1353,-19.5 1399,-19.5 1399,-.5 1353,-.5"/>
<text text-anchor="middle" x="1376" y="-7.5" font-family="Helvetica,sans-Serif" font-size="10.00" fill="#000000">stdio.h</text>
</g>
<!-- Node2&#45;&gt;Node3 -->
<g id="edge3" class="edge">
<title>Node2&#45;&gt;Node3</title>
<path fill="none" stroke="#191970" d="M1034.1748,-319.1576C1158.514,-309.7639 1426,-280.2319 1426,-200 1426,-200 1426,-200 1426,-138.5 1426,-100.8735 1421.9872,-90.5128 1407,-56 1402.6618,-46.01 1396.1066,-35.8691 1390.1398,-27.6603"/>
<polygon fill="#191970" stroke="#191970" points="1392.8629,-25.4589 1384.0289,-19.6098 1387.2873,-29.6912 1392.8629,-25.4589"/>
</g>
<!-- Node4 -->
<g id="node5" class="node">
<title>Node4</title>
<polygon fill="none" stroke="#bfbfbf" points="957,-252 957,-271 1009,-271 1009,-252 957,-252"/>
<text text-anchor="middle" x="983" y="-259" font-family="Helvetica,sans-Serif" font-size="10.00" fill="#000000">stdarg.h</text>
</g>
<!-- Node2&#45;&gt;Node4 -->
<g id="edge4" class="edge">
<title>Node2&#45;&gt;Node4</title>
<path fill="none" stroke="#191970" d="M973.7188,-313.3906C975.2435,-304.8657 977.5198,-292.1392 979.4364,-281.4235"/>
<polygon fill="#191970" stroke="#191970" points="982.9416,-281.7049 981.257,-271.2449 976.0509,-280.4724 982.9416,-281.7049"/>
</g>
<!-- Node2&#45;&gt;Node5 -->
<g id="edge5" class="edge">
<title>Node2&#45;&gt;Node5</title>
<path fill="none" stroke="#191970" d="M956.375,-313.3906C942.7159,-304.9903 922.4232,-292.5103 905.1618,-281.8945"/>
<polygon fill="#191970" stroke="#191970" points="906.8143,-278.8019 896.4628,-276.5446 903.1473,-284.7646 906.8143,-278.8019"/>
</g>
<!-- Node6 -->
<g id="node7" class="node">
<title>Node6</title>
<g id="a_node7"><a xlink:href="constants_8h.html" target="_top" xlink:title="Energy parameter constants. ">
<polygon fill="none" stroke="#000000" points="0,-62 0,-81 158,-81 158,-62 0,-62"/>
<text text-anchor="middle" x="79" y="-69" font-family="Helvetica,sans-Serif" font-size="10.00" fill="#000000">ViennaRNA/params/constants.h</text>
</a>
</g>
</g>
<!-- Node5&#45;&gt;Node6 -->
<g id="edge6" class="edge">
<title>Node5&#45;&gt;Node6</title>
<path fill="none" stroke="#191970" d="M804.8171,-259.2075C658.6017,-253.7505 315.6276,-238.2868 203,-210 143.1699,-194.9735 109.6904,-205.6758 76,-154 63.7561,-135.2198 67.5949,-108.5885 72.4338,-90.7122"/>
<polygon fill="#191970" stroke="#191970" points="75.7981,-91.6786 75.3626,-81.0927 69.1016,-89.6397 75.7981,-91.6786"/>
</g>
<!-- Node8 -->
<g id="node9" class="node">
<title>Node8</title>
<g id="a_node9"><a xlink:href="fold__compound_8h.html" target="_top" xlink:title="The Basic Fold Compound API. ">
<polygon fill="none" stroke="#000000" points="625,-190.5 625,-209.5 771,-209.5 771,-190.5 625,-190.5"/>
<text text-anchor="middle" x="698" y="-197.5" font-family="Helvetica,sans-Serif" font-size="10.00" fill="#000000">ViennaRNA/fold_compound.h</text>
</a>
</g>
</g>
<!-- Node5&#45;&gt;Node8 -->
<g id="edge8" class="edge">
<title>Node5&#45;&gt;Node8</title>
<path fill="none" stroke="#191970" d="M829.4348,-246.4554C800.4025,-236.194 762.3459,-222.7429 734.6591,-212.9571"/>
<polygon fill="#191970" stroke="#191970" points="735.5586,-209.5629 724.9638,-209.5303 733.2259,-216.1628 735.5586,-209.5629"/>
</g>
<!-- Node9 -->
<g id="node10" class="node">
<title>Node9</title>
<g id="a_node10"><a xlink:href="model_8h.html" target="_top" xlink:title="The model details data structure and its corresponding modifiers. ">
<polygon fill="none" stroke="#000000" points="198,-62 198,-81 304,-81 304,-62 198,-62"/>
<text text-anchor="middle" x="251" y="-69" font-family="Helvetica,sans-Serif" font-size="10.00" fill="#000000">ViennaRNA/model.h</text>
</a>
</g>
</g>
<!-- Node5&#45;&gt;Node9 -->
<g id="edge32" class="edge">
<title>Node5&#45;&gt;Node9</title>
<path fill="none" stroke="#191970" d="M804.8978,-259.0157C663.8674,-252.3428 343.6325,-229.0958 270,-154 253.7326,-137.4094 250.3109,-109.8488 250.0731,-91.1933"/>
<polygon fill="#191970" stroke="#191970" points="253.5733,-91.2036 250.2389,-81.1471 246.5743,-91.088 253.5733,-91.2036"/>
</g>
<!-- Node5&#45;&gt;Node10 -->
<g id="edge33" class="edge">
<title>Node5&#45;&gt;Node10</title>
<path fill="none" stroke="#191970" d="M804.9061,-258.6292C650.5504,-251.4457 279.9153,-231.7059 228,-210 200.1658,-198.3625 174.9583,-173.6951 161.9502,-156.6134"/>
<polygon fill="#191970" stroke="#191970" points="164.5953,-154.2835 156.0393,-148.0349 158.8311,-158.2553 164.5953,-154.2835"/>
</g>
<!-- Node12 -->
<g id="node13" class="node">
<title>Node12</title>
<g id="a_node13"><a xlink:href="dp__matrices_8h.html" target="_top" xlink:title="Functions to deal with standard dynamic programming (DP) matrices. ">
<polygon fill="none" stroke="#000000" points="1039.5,-129 1039.5,-148 1172.5,-148 1172.5,-129 1039.5,-129"/>
<text text-anchor="middle" x="1106" y="-136" font-family="Helvetica,sans-Serif" font-size="10.00" fill="#000000">ViennaRNA/dp_matrices.h</text>
</a>
</g>
</g>
<!-- Node5&#45;&gt;Node12 -->
<g id="edge34" class="edge">
<title>Node5&#45;&gt;Node12</title>
<path fill="none" stroke="#191970" d="M926.8958,-246.4063C954.6763,-238.0505 988.214,-226.0548 1016,-210 1041.9149,-195.0263 1066.9926,-170.9414 1084.3883,-154.9203"/>
<polygon fill="#191970" stroke="#191970" points="1086.7567,-157.4974 1091.8157,-148.1884 1082.0558,-152.3107 1086.7567,-157.4974"/>
</g>
<!-- Node13 -->
<g id="node14" class="node">
<title>Node13</title>
<g id="a_node14"><a xlink:href="hard_8h.html" target="_top" xlink:title="Functions and data structures for handling of secondary structure hard constraints. ">
<polygon fill="none" stroke="#000000" points="726.5,-123.5 726.5,-153.5 845.5,-153.5 845.5,-123.5 726.5,-123.5"/>
<text text-anchor="start" x="734.5" y="-141.5" font-family="Helvetica,sans-Serif" font-size="10.00" fill="#000000">ViennaRNA/constraints</text>
<text text-anchor="middle" x="786" y="-130.5" font-family="Helvetica,sans-Serif" font-size="10.00" fill="#000000">/hard.h</text>
</a>
</g>
</g>
<!-- Node5&#45;&gt;Node13 -->
<g id="edge35" class="edge">
<title>Node5&#45;&gt;Node13</title>
<path fill="none" stroke="#191970" d="M856.8405,-246.4178C839.6838,-225.485 812.7655,-187.3994 797.3173,-162.5276"/>
<polygon fill="#191970" stroke="#191970" points="800.1609,-160.4651 792.0025,-153.7056 794.1649,-164.0774 800.1609,-160.4651"/>
</g>
<!-- Node15 -->
<g id="node16" class="node">
<title>Node15</title>
<g id="a_node16"><a xlink:href="soft_8h.html" target="_top" xlink:title="Functions and data structures for secondary structure soft constraints. ">
<polygon fill="none" stroke="#000000" points="863.5,-123.5 863.5,-153.5 982.5,-153.5 982.5,-123.5 863.5,-123.5"/>
<text text-anchor="start" x="871.5" y="-141.5" font-family="Helvetica,sans-Serif" font-size="10.00" fill="#000000">ViennaRNA/constraints</text>
<text text-anchor="middle" x="923" y="-130.5" font-family="Helvetica,sans-Serif" font-size="10.00" fill="#000000">/soft.h</text>
</a>
</g>
</g>
<!-- Node5&#45;&gt;Node15 -->
<g id="edge36" class="edge">
<title>Node5&#45;&gt;Node15</title>
<path fill="none" stroke="#191970" d="M873.6393,-246.4178C879.771,-225.5772 895.1639,-187.7346 907.3926,-162.8571"/>
<polygon fill="#191970" stroke="#191970" points="910.6351,-164.2033 912.0662,-153.7056 904.401,-161.0196 910.6351,-164.2033"/>
</g>
<!-- Node16 -->
<g id="node17" class="node">
<title>Node16</title>
<g id="a_node17"><a xlink:href="grammar_8h.html" target="_top" xlink:title="Implementations for the RNA folding grammar. ">
<polygon fill="none" stroke="#000000" points="412.5,-129 412.5,-148 529.5,-148 529.5,-129 412.5,-129"/>
<text text-anchor="middle" x="471" y="-136" font-family="Helvetica,sans-Serif" font-size="10.00" fill="#000000">ViennaRNA/grammar.h</text>
</a>
</g>
</g>
<!-- Node5&#45;&gt;Node16 -->
<g id="edge37" class="edge">
<title>Node5&#45;&gt;Node16</title>
<path fill="none" stroke="#191970" d="M804.9861,-252.8863C752.5986,-244.9979 678.4389,-231.2696 616,-210 571.8402,-194.9571 523.8995,-169.3076 495.7027,-153.1656"/>
<polygon fill="#191970" stroke="#191970" points="497.3387,-150.0685 486.9312,-148.0849 493.8301,-156.1258 497.3387,-150.0685"/>
</g>
<!-- Node17 -->
<g id="node18" class="node">
<title>Node17</title>
<g id="a_node18"><a xlink:href="structured__domains_8h.html" target="_top" xlink:title="This module provides interfaces that deal with additional structured domains in the folding grammar...">
<polygon fill="none" stroke="#000000" points="279.5,-123.5 279.5,-153.5 394.5,-153.5 394.5,-123.5 279.5,-123.5"/>
<text text-anchor="start" x="287.5" y="-141.5" font-family="Helvetica,sans-Serif" font-size="10.00" fill="#000000">ViennaRNA/structured</text>
<text text-anchor="middle" x="337" y="-130.5" font-family="Helvetica,sans-Serif" font-size="10.00" fill="#000000">_domains.h</text>
</a>
</g>
</g>
<!-- Node5&#45;&gt;Node17 -->
<g id="edge38" class="edge">
<title>Node5&#45;&gt;Node17</title>
<path fill="none" stroke="#191970" d="M804.8425,-252.8018C742.6944,-244.13 647.9615,-229.3273 567,-210 504.9162,-195.1792 435.0976,-172.6124 388.8405,-156.806"/>
<polygon fill="#191970" stroke="#191970" points="389.9333,-153.4807 379.3386,-153.541 387.6584,-160.1008 389.9333,-153.4807"/>
</g>
<!-- Node18 -->
<g id="node19" class="node">
<title>Node18</title>
<g id="a_node19"><a xlink:href="unstructured__domains_8h.html" target="_top" xlink:title="Functions to modify unstructured domains, e.g. to incorporate ligands binding to unpaired stretches...">
<polygon fill="none" stroke="#000000" points="1190.5,-123.5 1190.5,-153.5 1315.5,-153.5 1315.5,-123.5 1190.5,-123.5"/>
<text text-anchor="start" x="1198.5" y="-141.5" font-family="Helvetica,sans-Serif" font-size="10.00" fill="#000000">ViennaRNA/unstructured</text>
<text text-anchor="middle" x="1253" y="-130.5" font-family="Helvetica,sans-Serif" font-size="10.00" fill="#000000">_domains.h</text>
</a>
</g>
</g>
<!-- Node5&#45;&gt;Node18 -->
<g id="edge39" class="edge">
<title>Node5&#45;&gt;Node18</title>
<path fill="none" stroke="#191970" d="M925.0497,-246.4142C961.0924,-236.81 1009.5892,-223.6442 1052,-210 1102.3126,-193.8137 1158.9029,-172.3296 1199.2935,-157.1506"/>
<polygon fill="#191970" stroke="#191970" points="1200.5505,-160.4173 1208.6838,-153.6275 1198.0916,-153.8634 1200.5505,-160.4173"/>
</g>
<!-- Node19 -->
<g id="node20" class="node">
<title>Node19</title>
<g id="a_node20"><a xlink:href="utils_2structures_8h.html" target="_top" xlink:title="Various utility&#45; and helper&#45;functions for secondary structure parsing, converting, etc. ">
<polygon fill="none" stroke="#000000" points="1254,-62 1254,-81 1398,-81 1398,-62 1254,-62"/>
<text text-anchor="middle" x="1326" y="-69" font-family="Helvetica,sans-Serif" font-size="10.00" fill="#000000">ViennaRNA/utils/structures.h</text>
</a>
</g>
</g>
<!-- Node5&#45;&gt;Node19 -->
<g id="edge40" class="edge">
<title>Node5&#45;&gt;Node19</title>
<path fill="none" stroke="#191970" d="M937.6408,-246.4517C983.5017,-236.5771 1045.9966,-223.1082 1101,-210 1197.0537,-187.1088 1255.1426,-231.7605 1316,-154 1329.8174,-136.3449 1327.1129,-109.4398 1324.9812,-91.1949"/>
<polygon fill="#191970" stroke="#191970" points="1328.4453,-90.6751 1323.8807,-81.1141 1321.4866,-91.4349 1328.4453,-90.6751"/>
</g>
<!-- Node7 -->
<g id="node8" class="node">
<title>Node7</title>
<polygon fill="none" stroke="#bfbfbf" points="55,-.5 55,-19.5 103,-19.5 103,-.5 55,-.5"/>
<text text-anchor="middle" x="79" y="-7.5" font-family="Helvetica,sans-Serif" font-size="10.00" fill="#000000">limits.h</text>
</g>
<!-- Node6&#45;&gt;Node7 -->
<g id="edge7" class="edge">
<title>Node6&#45;&gt;Node7</title>
<path fill="none" stroke="#191970" d="M79,-61.8906C79,-53.3657 79,-40.6392 79,-29.9235"/>
<polygon fill="#191970" stroke="#191970" points="82.5001,-29.7448 79,-19.7449 75.5001,-29.7449 82.5001,-29.7448"/>
</g>
<!-- Node8&#45;&gt;Node9 -->
<g id="edge9" class="edge">
<title>Node8&#45;&gt;Node9</title>
<path fill="none" stroke="#191970" d="M698.782,-190.4814C699.5581,-173.9956 698.4904,-140.2437 679,-123 652.2297,-99.3155 427.0744,-82.3008 314.5252,-75.1905"/>
<polygon fill="#191970" stroke="#191970" points="314.5217,-71.6836 304.323,-74.5536 314.0855,-78.67 314.5217,-71.6836"/>
</g>
<!-- Node8&#45;&gt;Node10 -->
<g id="edge10" class="edge">
<title>Node8&#45;&gt;Node10</title>
<path fill="none" stroke="#191970" d="M624.8538,-192.7176C539.5886,-184.0945 394.4646,-169.0015 270,-154 258.1017,-152.5659 245.5282,-150.9698 233.2222,-149.3625"/>
<polygon fill="#191970" stroke="#191970" points="233.3401,-145.8479 222.9688,-148.013 232.4266,-152.7881 233.3401,-145.8479"/>
</g>
<!-- Node11 -->
<g id="node12" class="node">
<title>Node11</title>
<g id="a_node12"><a xlink:href="sequence_8h.html" target="_top" xlink:title="Functions and data structures related to sequence representations ,. ">
<polygon fill="none" stroke="#000000" points="548,-129 548,-148 670,-148 670,-129 548,-129"/>
<text text-anchor="middle" x="609" y="-136" font-family="Helvetica,sans-Serif" font-size="10.00" fill="#000000">ViennaRNA/sequence.h</text>
</a>
</g>
</g>
<!-- Node8&#45;&gt;Node11 -->
<g id="edge14" class="edge">
<title>Node8&#45;&gt;Node11</title>
<path fill="none" stroke="#191970" d="M684.0938,-190.3906C669.9862,-180.6421 647.9276,-165.3994 631.3615,-153.9521"/>
<polygon fill="#191970" stroke="#191970" points="633.0253,-150.8474 622.8086,-148.0419 629.0458,-156.6063 633.0253,-150.8474"/>
</g>
<!-- Node8&#45;&gt;Node12 -->
<g id="edge15" class="edge">
<title>Node8&#45;&gt;Node12</title>
<path fill="none" stroke="#191970" d="M761.3023,-190.4581C834.6692,-179.3991 955.374,-161.2047 1032.7351,-149.5436"/>
<polygon fill="#191970" stroke="#191970" points="1033.5183,-152.9652 1042.8849,-148.0137 1032.4748,-146.0434 1033.5183,-152.9652"/>
</g>
<!-- Node8&#45;&gt;Node13 -->
<g id="edge17" class="edge">
<title>Node8&#45;&gt;Node13</title>
<path fill="none" stroke="#191970" d="M711.75,-190.3906C723.5495,-182.1444 740.9742,-169.9669 755.9788,-159.4807"/>
<polygon fill="#191970" stroke="#191970" points="758.281,-162.1419 764.4728,-153.5446 754.2711,-156.4042 758.281,-162.1419"/>
</g>
<!-- Node8&#45;&gt;Node15 -->
<g id="edge21" class="edge">
<title>Node8&#45;&gt;Node15</title>
<path fill="none" stroke="#191970" d="M733.1563,-190.3906C766.4973,-181.2774 817.4047,-167.3627 858.1129,-156.2358"/>
<polygon fill="#191970" stroke="#191970" points="859.2355,-159.5574 867.9588,-153.5446 857.3898,-152.8051 859.2355,-159.5574"/>
</g>
<!-- Node8&#45;&gt;Node16 -->
<g id="edge24" class="edge">
<title>Node8&#45;&gt;Node16</title>
<path fill="none" stroke="#191970" d="M657.731,-190.4581C616.2919,-179.7984 552.3154,-162.5091 510.9849,-150.8315"/>
<polygon fill="#191970" stroke="#191970" points="511.8246,-147.4316 501.2486,-148.0643 509.9108,-154.1649 511.8246,-147.4316"/>
</g>
<!-- Node8&#45;&gt;Node17 -->
<g id="edge26" class="edge">
<title>Node8&#45;&gt;Node17</title>
<path fill="none" stroke="#191970" d="M627.1038,-190.487C569.5233,-182.4066 486.0173,-169.8886 404.4705,-154.2115"/>
<polygon fill="#191970" stroke="#191970" points="405.021,-150.7531 394.5373,-152.2841 403.6875,-157.625 405.021,-150.7531"/>
</g>
<!-- Node8&#45;&gt;Node18 -->
<g id="edge27" class="edge">
<title>Node8&#45;&gt;Node18</title>
<path fill="none" stroke="#191970" d="M771.3184,-195.7842C864.3847,-189.8174 1029.9996,-177.1458 1180.4687,-154.134"/>
<polygon fill="#191970" stroke="#191970" points="1181.0102,-157.5919 1190.357,-152.6032 1179.9393,-150.6743 1181.0102,-157.5919"/>
</g>
<!-- Node10&#45;&gt;Node5 -->
<g id="edge12" class="edge">
<title>Node10&#45;&gt;Node5</title>
<path fill="none" stroke="#191970" d="M166.9103,-148.0349C183.7123,-164.1122 213.0113,-196.2074 246,-210 295.7702,-230.809 638.4659,-249.8111 794.736,-257.6752"/>
<polygon fill="#191970" stroke="#191970" points="794.592,-261.1723 804.7546,-258.177 794.9422,-254.181 794.592,-261.1723"/>
</g>
<!-- Node10&#45;&gt;Node6 -->
<g id="edge11" class="edge">
<title>Node10&#45;&gt;Node6</title>
<path fill="none" stroke="#191970" d="M143.2543,-128.9005C131.336,-118.2535 111.8943,-100.8856 97.5132,-88.0385"/>
<polygon fill="#191970" stroke="#191970" points="99.5151,-85.1337 89.7257,-81.0817 94.8516,-90.354 99.5151,-85.1337"/>
</g>
<!-- Node10&#45;&gt;Node9 -->
<g id="edge13" class="edge">
<title>Node10&#45;&gt;Node9</title>
<path fill="none" stroke="#191970" d="M167.8977,-128.9005C183.8164,-117.9052 210.1121,-99.7422 228.8599,-86.7927"/>
<polygon fill="#191970" stroke="#191970" points="230.8892,-89.6448 237.128,-81.0817 226.9108,-83.8852 230.8892,-89.6448"/>
</g>
<!-- Node12&#45;&gt;Node5 -->
<g id="edge16" class="edge">
<title>Node12&#45;&gt;Node5</title>
<path fill="none" stroke="#191970" d="M1103.1322,-148.1884C1092.6544,-163.3503 1063.8839,-192.7331 1034,-210 1007.9506,-225.0514 976.846,-236.5351 948.8422,-244.7968"/>
<polygon fill="#191970" stroke="#191970" points="947.7338,-241.4734 939.0796,-247.5853 949.6564,-248.2042 947.7338,-241.4734"/>
</g>
<!-- Node13&#45;&gt;Node5 -->
<g id="edge18" class="edge">
<title>Node13&#45;&gt;Node5</title>
<path fill="none" stroke="#191970" d="M801.2606,-153.7056C818.4554,-174.7055 845.3704,-212.7987 860.7735,-237.6186"/>
<polygon fill="#191970" stroke="#191970" points="857.9137,-239.6544 866.069,-246.4178 863.9114,-236.045 857.9137,-239.6544"/>
</g>
<!-- Node14 -->
<g id="node15" class="node">
<title>Node14</title>
<g id="a_node15"><a xlink:href="constraints_2basic_8h.html" target="_top" xlink:title="Functions and data structures for constraining secondary structure predictions and evaluation...">
<polygon fill="none" stroke="#000000" points="863.5,-56.5 863.5,-86.5 982.5,-86.5 982.5,-56.5 863.5,-56.5"/>
<text text-anchor="start" x="871.5" y="-74.5" font-family="Helvetica,sans-Serif" font-size="10.00" fill="#000000">ViennaRNA/constraints</text>
<text text-anchor="middle" x="923" y="-63.5" font-family="Helvetica,sans-Serif" font-size="10.00" fill="#000000">/basic.h</text>
</a>
</g>
</g>
<!-- Node13&#45;&gt;Node14 -->
<g id="edge19" class="edge">
<title>Node13&#45;&gt;Node14</title>
<path fill="none" stroke="#191970" d="M816.7455,-123.4639C836.2624,-113.9191 861.7257,-101.4663 882.8325,-91.144"/>
<polygon fill="#191970" stroke="#191970" points="884.4375,-94.2552 891.8831,-86.7177 881.3622,-87.9669 884.4375,-94.2552"/>
</g>
<!-- Node14&#45;&gt;Node5 -->
<g id="edge20" class="edge">
<title>Node14&#45;&gt;Node5</title>
<path fill="none" stroke="#191970" d="M954.6421,-86.5161C968.8158,-95.0591 984.0935,-107.2327 992,-123 998.1759,-135.3161 997.6198,-141.4205 992,-154 974.9401,-192.187 936.8682,-222.4403 908.1512,-240.9996"/>
<polygon fill="#191970" stroke="#191970" points="906.185,-238.1013 899.573,-246.3797 909.9044,-244.0314 906.185,-238.1013"/>
</g>
<!-- Node15&#45;&gt;Node5 -->
<g id="edge22" class="edge">
<title>Node15&#45;&gt;Node5</title>
<path fill="none" stroke="#191970" d="M921.3243,-153.7056C915.1562,-174.613 899.7514,-212.4634 887.5351,-237.2898"/>
<polygon fill="#191970" stroke="#191970" points="884.3042,-235.9207 882.8679,-246.4178 890.5367,-239.1076 884.3042,-235.9207"/>
</g>
<!-- Node15&#45;&gt;Node14 -->
<g id="edge23" class="edge">
<title>Node15&#45;&gt;Node14</title>
<path fill="none" stroke="#191970" d="M923,-123.2967C923,-115.5013 923,-105.7991 923,-96.9064"/>
<polygon fill="#191970" stroke="#191970" points="926.5001,-96.6431 923,-86.6432 919.5001,-96.6432 926.5001,-96.6431"/>
</g>
<!-- Node16&#45;&gt;Node8 -->
<g id="edge25" class="edge">
<title>Node16&#45;&gt;Node8</title>
<path fill="none" stroke="#191970" d="M511.269,-148.0419C552.6542,-158.6877 616.5182,-175.9459 657.8538,-187.6229"/>
<polygon fill="#191970" stroke="#191970" points="657.0179,-191.0239 667.5938,-190.3906 658.9313,-184.2904 657.0179,-191.0239"/>
</g>
<!-- Node18&#45;&gt;Node5 -->
<g id="edge28" class="edge">
<title>Node18&#45;&gt;Node5</title>
<path fill="none" stroke="#191970" d="M1222.2479,-153.6275C1186.0168,-168.8509 1124.3461,-192.5161 1070,-210 1030.6224,-222.6683 985.9982,-234.9243 949.0368,-244.3"/>
<polygon fill="#191970" stroke="#191970" points="948.1656,-240.91 939.3208,-246.7427 949.8724,-247.6987 948.1656,-240.91"/>
</g>
<!-- Node18&#45;&gt;Node19 -->
<g id="edge29" class="edge">
<title>Node18&#45;&gt;Node19</title>
<path fill="none" stroke="#191970" d="M1269.5648,-123.2967C1281.049,-112.7564 1296.3312,-98.7303 1308.0962,-87.9323"/>
<polygon fill="#191970" stroke="#191970" points="1310.5886,-90.3954 1315.5894,-81.055 1305.8553,-85.2382 1310.5886,-90.3954"/>
</g>
<!-- Node19&#45;&gt;Node3 -->
<g id="edge30" class="edge">
<title>Node19&#45;&gt;Node3</title>
<path fill="none" stroke="#191970" d="M1333.8125,-61.8906C1341.254,-52.7376 1352.6334,-38.7409 1361.6992,-27.59"/>
<polygon fill="#191970" stroke="#191970" points="1364.4847,-29.712 1368.0774,-19.7449 1359.0533,-25.2962 1364.4847,-29.712"/>
</g>
<!-- Node19&#45;&gt;Node5 -->
<g id="edge31" class="edge">
<title>Node19&#45;&gt;Node5</title>
<path fill="none" stroke="#191970" d="M1334.6373,-81.1141C1343.2787,-97.8732 1350.6851,-132.6806 1334,-154 1273.1426,-231.7605 1215.0537,-187.1088 1119,-210 1062.444,-223.4782 997.9676,-237.3377 949.007,-247.2792"/>
<polygon fill="#191970" stroke="#191970" points="948.2255,-243.8662 939.1163,-249.2767 949.6113,-250.7277 948.2255,-243.8662"/>
</g>
</g>
</svg>
