<?xml version="1.0" encoding="UTF-8" standalone="no"?>
<!DOCTYPE svg PUBLIC "-//W3C//DTD SVG 1.1//EN"
 "http://www.w3.org/Graphics/SVG/1.1/DTD/svg11.dtd">
<!-- Generated by graphviz version 2.40.1 (20161225.0304)
 -->
<!-- Title: ViennaRNA/params/basic.h Pages: 1 -->
<svg width="1367pt" height="341pt"
 viewBox="0.00 0.00 1367.00 341.00" xmlns="http://www.w3.org/2000/svg" xmlns:xlink="http://www.w3.org/1999/xlink">
<g id="graph0" class="graph" transform="scale(1 1) rotate(0) translate(4 337)">
<title>ViennaRNA/params/basic.h</title>
<!-- Node0 -->
<g id="node1" class="node">
<title>Node0</title>
<polygon fill="#bfbfbf" stroke="#000000" points="569,-313.5 569,-332.5 707,-332.5 707,-313.5 569,-313.5"/>
<text text-anchor="middle" x="638" y="-320.5" font-family="Helvetica,sans-Serif" font-size="10.00" fill="#000000">ViennaRNA/params/basic.h</text>
</g>
<!-- Node1 -->
<g id="node2" class="node">
<title>Node1</title>
<g id="a_node2"><a xlink:href="constants_8h.html" target="_top" xlink:title="Energy parameter constants. ">
<polygon fill="none" stroke="#000000" points="0,-190.5 0,-209.5 158,-209.5 158,-190.5 0,-190.5"/>
<text text-anchor="middle" x="79" y="-197.5" font-family="Helvetica,sans-Serif" font-size="10.00" fill="#000000">ViennaRNA/params/constants.h</text>
</a>
</g>
</g>
<!-- Node0&#45;&gt;Node1 -->
<g id="edge1" class="edge">
<title>Node0&#45;&gt;Node1</title>
<path fill="none" stroke="#191970" d="M568.6324,-321.104C456.7379,-317.2225 241.8779,-306.1309 172,-277 140.1215,-263.7104 110.7536,-235.631 93.8699,-217.3048"/>
<polygon fill="#191970" stroke="#191970" points="96.304,-214.7763 87.0269,-209.6592 91.0881,-219.4448 96.304,-214.7763"/>
</g>
<!-- Node3 -->
<g id="node4" class="node">
<title>Node3</title>
<g id="a_node4"><a xlink:href="datastructures_2basic_8h.html" target="_top" xlink:title="Various data structures and pre&#45;processor macros. ">
<polygon fill="none" stroke="#000000" points="699,-246.5 699,-276.5 833,-276.5 833,-246.5 699,-246.5"/>
<text text-anchor="start" x="707" y="-264.5" font-family="Helvetica,sans-Serif" font-size="10.00" fill="#000000">ViennaRNA/datastructures</text>
<text text-anchor="middle" x="766" y="-253.5" font-family="Helvetica,sans-Serif" font-size="10.00" fill="#000000">/basic.h</text>
</a>
</g>
</g>
<!-- Node0&#45;&gt;Node3 -->
<g id="edge3" class="edge">
<title>Node0&#45;&gt;Node3</title>
<path fill="none" stroke="#191970" d="M652.9375,-313.3906C669.3635,-304.682 696.1985,-291.5888 719.6587,-280.7336"/>
<polygon fill="#191970" stroke="#191970" points="721.1606,-283.8954 728.7906,-276.5446 718.2419,-277.5329 721.1606,-283.8954"/>
</g>
<!-- Node5 -->
<g id="node6" class="node">
<title>Node5</title>
<g id="a_node6"><a xlink:href="model_8h.html" target="_top" xlink:title="The model details data structure and its corresponding modifiers. ">
<polygon fill="none" stroke="#000000" points="128,-129 128,-148 234,-148 234,-129 128,-129"/>
<text text-anchor="middle" x="181" y="-136" font-family="Helvetica,sans-Serif" font-size="10.00" fill="#000000">ViennaRNA/model.h</text>
</a>
</g>
</g>
<!-- Node0&#45;&gt;Node5 -->
<g id="edge35" class="edge">
<title>Node0&#45;&gt;Node5</title>
<path fill="none" stroke="#191970" d="M581.167,-313.4471C480.2753,-295.5665 275.1957,-254.7832 219,-210 202.4067,-196.7765 192.1703,-174.2908 186.5631,-158.0617"/>
<polygon fill="#191970" stroke="#191970" points="189.8792,-156.9396 183.5266,-148.4606 183.205,-159.0505 189.8792,-156.9396"/>
</g>
<!-- Node2 -->
<g id="node3" class="node">
<title>Node2</title>
<polygon fill="none" stroke="#bfbfbf" points="55,-129 55,-148 103,-148 103,-129 55,-129"/>
<text text-anchor="middle" x="79" y="-136" font-family="Helvetica,sans-Serif" font-size="10.00" fill="#000000">limits.h</text>
</g>
<!-- Node1&#45;&gt;Node2 -->
<g id="edge2" class="edge">
<title>Node1&#45;&gt;Node2</title>
<path fill="none" stroke="#191970" d="M79,-190.3906C79,-181.8657 79,-169.1392 79,-158.4235"/>
<polygon fill="#191970" stroke="#191970" points="82.5001,-158.2448 79,-148.2449 75.5001,-158.2449 82.5001,-158.2448"/>
</g>
<!-- Node3&#45;&gt;Node0 -->
<g id="edge27" class="edge">
<title>Node3&#45;&gt;Node0</title>
<path fill="none" stroke="#191970" d="M740.5848,-276.5446C720.9437,-286.5542 693.7366,-299.5988 672.2054,-309.316"/>
<polygon fill="#191970" stroke="#191970" points="670.7717,-306.123 663.0625,-313.3906 673.6212,-312.5168 670.7717,-306.123"/>
</g>
<!-- Node3&#45;&gt;Node1 -->
<g id="edge4" class="edge">
<title>Node3&#45;&gt;Node1</title>
<path fill="none" stroke="#191970" d="M698.8767,-255.4911C574.4504,-244.3525 307.9952,-220.4996 168.4336,-208.0061"/>
<polygon fill="#191970" stroke="#191970" points="168.4709,-204.4955 158.1986,-207.0898 167.8467,-211.4676 168.4709,-204.4955"/>
</g>
<!-- Node4 -->
<g id="node5" class="node">
<title>Node4</title>
<g id="a_node5"><a xlink:href="fold__compound_8h.html" target="_top" xlink:title="The Basic Fold Compound API. ">
<polygon fill="none" stroke="#000000" points="565,-190.5 565,-209.5 711,-209.5 711,-190.5 565,-190.5"/>
<text text-anchor="middle" x="638" y="-197.5" font-family="Helvetica,sans-Serif" font-size="10.00" fill="#000000">ViennaRNA/fold_compound.h</text>
</a>
</g>
</g>
<!-- Node3&#45;&gt;Node4 -->
<g id="edge5" class="edge">
<title>Node3&#45;&gt;Node4</title>
<path fill="none" stroke="#191970" d="M734.6877,-246.4554C713.9862,-236.509 687.0477,-223.5659 666.8647,-213.8686"/>
<polygon fill="#191970" stroke="#191970" points="668.3648,-210.7064 657.8355,-209.5303 665.3333,-217.0159 668.3648,-210.7064"/>
</g>
<!-- Node3&#45;&gt;Node5 -->
<g id="edge26" class="edge">
<title>Node3&#45;&gt;Node5</title>
<path fill="none" stroke="#191970" d="M698.6989,-260.6333C576.9606,-258.1171 325.5962,-248.2988 248,-210 223.9312,-198.1205 204.0801,-173.724 192.3907,-156.7524"/>
<polygon fill="#191970" stroke="#191970" points="195.1878,-154.6364 186.7613,-148.2143 189.3438,-158.4896 195.1878,-154.6364"/>
</g>
<!-- Node7 -->
<g id="node8" class="node">
<title>Node7</title>
<g id="a_node8"><a xlink:href="dp__matrices_8h.html" target="_top" xlink:title="Functions to deal with standard dynamic programming (DP) matrices. ">
<polygon fill="none" stroke="#000000" points="699.5,-129 699.5,-148 832.5,-148 832.5,-129 699.5,-129"/>
<text text-anchor="middle" x="766" y="-136" font-family="Helvetica,sans-Serif" font-size="10.00" fill="#000000">ViennaRNA/dp_matrices.h</text>
</a>
</g>
</g>
<!-- Node3&#45;&gt;Node7 -->
<g id="edge28" class="edge">
<title>Node3&#45;&gt;Node7</title>
<path fill="none" stroke="#191970" d="M761.3857,-246.4178C758.7062,-224.1659 758.548,-182.5314 760.9111,-157.9908"/>
<polygon fill="#191970" stroke="#191970" points="764.3858,-158.4107 762.1743,-148.0493 757.4417,-157.5283 764.3858,-158.4107"/>
</g>
<!-- Node8 -->
<g id="node9" class="node">
<title>Node8</title>
<g id="a_node9"><a xlink:href="hard_8h.html" target="_top" xlink:title="Functions and data structures for handling of secondary structure hard constraints. ">
<polygon fill="none" stroke="#000000" points="987.5,-123.5 987.5,-153.5 1106.5,-153.5 1106.5,-123.5 987.5,-123.5"/>
<text text-anchor="start" x="995.5" y="-141.5" font-family="Helvetica,sans-Serif" font-size="10.00" fill="#000000">ViennaRNA/constraints</text>
<text text-anchor="middle" x="1047" y="-130.5" font-family="Helvetica,sans-Serif" font-size="10.00" fill="#000000">/hard.h</text>
</a>
</g>
</g>
<!-- Node3&#45;&gt;Node8 -->
<g id="edge29" class="edge">
<title>Node3&#45;&gt;Node8</title>
<path fill="none" stroke="#191970" d="M795.8419,-246.4178C844.368,-223.9949 940.4184,-181.8903 998.7241,-157.428"/>
<polygon fill="#191970" stroke="#191970" points="1000.2179,-160.5971 1008.0961,-153.513 997.5197,-154.138 1000.2179,-160.5971"/>
</g>
<!-- Node10 -->
<g id="node11" class="node">
<title>Node10</title>
<g id="a_node11"><a xlink:href="soft_8h.html" target="_top" xlink:title="Functions and data structures for secondary structure soft constraints. ">
<polygon fill="none" stroke="#000000" points="850.5,-123.5 850.5,-153.5 969.5,-153.5 969.5,-123.5 850.5,-123.5"/>
<text text-anchor="start" x="858.5" y="-141.5" font-family="Helvetica,sans-Serif" font-size="10.00" fill="#000000">ViennaRNA/constraints</text>
<text text-anchor="middle" x="910" y="-130.5" font-family="Helvetica,sans-Serif" font-size="10.00" fill="#000000">/soft.h</text>
</a>
</g>
</g>
<!-- Node3&#45;&gt;Node10 -->
<g id="edge30" class="edge">
<title>Node3&#45;&gt;Node10</title>
<path fill="none" stroke="#191970" d="M779.043,-246.4178C801.8038,-224.7473 848.4776,-184.6937 879.6205,-159.9486"/>
<polygon fill="#191970" stroke="#191970" points="881.8668,-162.6349 887.5693,-153.7056 877.543,-157.1298 881.8668,-162.6349"/>
</g>
<!-- Node11 -->
<g id="node12" class="node">
<title>Node11</title>
<g id="a_node12"><a xlink:href="grammar_8h.html" target="_top" xlink:title="Implementations for the RNA folding grammar. ">
<polygon fill="none" stroke="#000000" points="423.5,-129 423.5,-148 540.5,-148 540.5,-129 423.5,-129"/>
<text text-anchor="middle" x="482" y="-136" font-family="Helvetica,sans-Serif" font-size="10.00" fill="#000000">ViennaRNA/grammar.h</text>
</a>
</g>
</g>
<!-- Node3&#45;&gt;Node11 -->
<g id="edge31" class="edge">
<title>Node3&#45;&gt;Node11</title>
<path fill="none" stroke="#191970" d="M698.8618,-254.1974C655.9256,-247.3755 600.2029,-234.3987 556,-210 531.4548,-196.4518 509.1936,-172.644 495.6404,-156.2472"/>
<polygon fill="#191970" stroke="#191970" points="498.0298,-153.6314 489.0476,-148.0125 492.5653,-158.0063 498.0298,-153.6314"/>
</g>
<!-- Node12 -->
<g id="node13" class="node">
<title>Node12</title>
<g id="a_node13"><a xlink:href="structured__domains_8h.html" target="_top" xlink:title="This module provides interfaces that deal with additional structured domains in the folding grammar...">
<polygon fill="none" stroke="#000000" points="290.5,-123.5 290.5,-153.5 405.5,-153.5 405.5,-123.5 290.5,-123.5"/>
<text text-anchor="start" x="298.5" y="-141.5" font-family="Helvetica,sans-Serif" font-size="10.00" fill="#000000">ViennaRNA/structured</text>
<text text-anchor="middle" x="348" y="-130.5" font-family="Helvetica,sans-Serif" font-size="10.00" fill="#000000">_domains.h</text>
</a>
</g>
</g>
<!-- Node3&#45;&gt;Node12 -->
<g id="edge32" class="edge">
<title>Node3&#45;&gt;Node12</title>
<path fill="none" stroke="#191970" d="M698.9737,-250.4022C650.1717,-241.5451 582.784,-227.6987 525,-210 477.6417,-195.4946 425.255,-173.5576 389.8508,-157.8096"/>
<polygon fill="#191970" stroke="#191970" points="390.8905,-154.4401 380.3337,-153.5432 388.027,-160.8276 390.8905,-154.4401"/>
</g>
<!-- Node13 -->
<g id="node14" class="node">
<title>Node13</title>
<g id="a_node14"><a xlink:href="unstructured__domains_8h.html" target="_top" xlink:title="Functions to modify unstructured domains, e.g. to incorporate ligands binding to unpaired stretches...">
<polygon fill="none" stroke="#000000" points="1124.5,-123.5 1124.5,-153.5 1249.5,-153.5 1249.5,-123.5 1124.5,-123.5"/>
<text text-anchor="start" x="1132.5" y="-141.5" font-family="Helvetica,sans-Serif" font-size="10.00" fill="#000000">ViennaRNA/unstructured</text>
<text text-anchor="middle" x="1187" y="-130.5" font-family="Helvetica,sans-Serif" font-size="10.00" fill="#000000">_domains.h</text>
</a>
</g>
</g>
<!-- Node3&#45;&gt;Node13 -->
<g id="edge33" class="edge">
<title>Node3&#45;&gt;Node13</title>
<path fill="none" stroke="#191970" d="M813.0086,-246.4178C888.2018,-223.6482 1035.5006,-180.5833 1121.1347,-156.3059"/>
<polygon fill="#191970" stroke="#191970" points="1122.3384,-159.6028 1131.0081,-153.513 1120.433,-152.8671 1122.3384,-159.6028"/>
</g>
<!-- Node14 -->
<g id="node15" class="node">
<title>Node14</title>
<g id="a_node15"><a xlink:href="utils_2structures_8h.html" target="_top" xlink:title="Various utility&#45; and helper&#45;functions for secondary structure parsing, converting, etc. ">
<polygon fill="none" stroke="#000000" points="1215,-62 1215,-81 1359,-81 1359,-62 1215,-62"/>
<text text-anchor="middle" x="1287" y="-69" font-family="Helvetica,sans-Serif" font-size="10.00" fill="#000000">ViennaRNA/utils/structures.h</text>
</a>
</g>
</g>
<!-- Node3&#45;&gt;Node14 -->
<g id="edge34" class="edge">
<title>Node3&#45;&gt;Node14</title>
<path fill="none" stroke="#191970" d="M833.4402,-254.3874C951.4986,-241.1205 1188.5915,-208.8612 1250,-154 1268.0095,-137.9106 1274.446,-109.7994 1278.9234,-90.9206"/>
<polygon fill="#191970" stroke="#191970" points="1282.3654,-91.5839 1281.4059,-81.0326 1275.5761,-89.8793 1282.3654,-91.5839"/>
</g>
<!-- Node4&#45;&gt;Node0 -->
<g id="edge7" class="edge">
<title>Node4&#45;&gt;Node0</title>
<path fill="none" stroke="#191970" d="M638,-209.6068C638,-229.686 638,-276.4497 638,-303.2305"/>
<polygon fill="#191970" stroke="#191970" points="634.5001,-303.3484 638,-313.3484 641.5001,-303.3484 634.5001,-303.3484"/>
</g>
<!-- Node4&#45;&gt;Node5 -->
<g id="edge6" class="edge">
<title>Node4&#45;&gt;Node5</title>
<path fill="none" stroke="#191970" d="M564.7672,-191.1208C492.5499,-182.2334 379.0667,-167.9159 281,-154 269.1095,-152.3127 256.4387,-150.4213 244.2523,-148.5551"/>
<polygon fill="#191970" stroke="#191970" points="244.574,-145.0634 234.1573,-146.9985 243.5071,-151.9817 244.574,-145.0634"/>
</g>
<!-- Node6 -->
<g id="node7" class="node">
<title>Node6</title>
<g id="a_node7"><a xlink:href="sequence_8h.html" target="_top" xlink:title="Functions and data structures related to sequence representations ,. ">
<polygon fill="none" stroke="#000000" points="559,-129 559,-148 681,-148 681,-129 559,-129"/>
<text text-anchor="middle" x="620" y="-136" font-family="Helvetica,sans-Serif" font-size="10.00" fill="#000000">ViennaRNA/sequence.h</text>
</a>
</g>
</g>
<!-- Node4&#45;&gt;Node6 -->
<g id="edge8" class="edge">
<title>Node4&#45;&gt;Node6</title>
<path fill="none" stroke="#191970" d="M635.1875,-190.3906C632.6661,-181.776 628.889,-168.8708 625.7324,-158.0858"/>
<polygon fill="#191970" stroke="#191970" points="629.0203,-156.8591 622.8522,-148.2449 622.3021,-158.8254 629.0203,-156.8591"/>
</g>
<!-- Node4&#45;&gt;Node7 -->
<g id="edge9" class="edge">
<title>Node4&#45;&gt;Node7</title>
<path fill="none" stroke="#191970" d="M658,-190.3906C679.2289,-180.1908 712.9762,-163.9763 737.096,-152.3875"/>
<polygon fill="#191970" stroke="#191970" points="738.6426,-155.5275 746.1404,-148.0419 735.6111,-149.2179 738.6426,-155.5275"/>
</g>
<!-- Node4&#45;&gt;Node8 -->
<g id="edge11" class="edge">
<title>Node4&#45;&gt;Node8</title>
<path fill="none" stroke="#191970" d="M711.242,-191.9465C778.0004,-184.1823 879.5268,-171.3173 977.1792,-154.0541"/>
<polygon fill="#191970" stroke="#191970" points="977.9962,-157.4636 987.2251,-152.2599 976.7655,-150.5727 977.9962,-157.4636"/>
</g>
<!-- Node4&#45;&gt;Node10 -->
<g id="edge15" class="edge">
<title>Node4&#45;&gt;Node10</title>
<path fill="none" stroke="#191970" d="M680.2016,-190.4581C722.9386,-180.7951 789.7697,-165.6844 840.366,-154.2445"/>
<polygon fill="#191970" stroke="#191970" points="841.275,-157.6274 850.2569,-152.0081 839.7312,-150.7997 841.275,-157.6274"/>
</g>
<!-- Node4&#45;&gt;Node11 -->
<g id="edge18" class="edge">
<title>Node4&#45;&gt;Node11</title>
<path fill="none" stroke="#191970" d="M608.5625,-190.3906C580.3297,-180.0554 538.2398,-163.5447 510.3724,-151.9284"/>
<polygon fill="#191970" stroke="#191970" points="511.7288,-148.702 501.1545,-148.0419 509.0092,-155.1521 511.7288,-148.702"/>
</g>
<!-- Node4&#45;&gt;Node12 -->
<g id="edge20" class="edge">
<title>Node4&#45;&gt;Node12</title>
<path fill="none" stroke="#191970" d="M589.4144,-190.4324C546.2039,-181.8309 481.0398,-168.6346 415.6417,-154.332"/>
<polygon fill="#191970" stroke="#191970" points="416.0891,-150.8469 405.5712,-152.121 414.588,-157.6841 416.0891,-150.8469"/>
</g>
<!-- Node4&#45;&gt;Node13 -->
<g id="edge21" class="edge">
<title>Node4&#45;&gt;Node13</title>
<path fill="none" stroke="#191970" d="M711.059,-195.5956C802.8309,-189.4723 965.2729,-176.6819 1114.0205,-154.0332"/>
<polygon fill="#191970" stroke="#191970" points="1114.901,-157.4389 1124.2511,-152.4564 1113.8347,-150.5206 1114.901,-157.4389"/>
</g>
<!-- Node7&#45;&gt;Node3 -->
<g id="edge10" class="edge">
<title>Node7&#45;&gt;Node3</title>
<path fill="none" stroke="#191970" d="M769.8257,-148.0493C773.0176,-166.8307 773.5965,-209.1173 771.5624,-236.4249"/>
<polygon fill="#191970" stroke="#191970" points="768.0746,-236.1319 770.6143,-246.4178 775.0433,-236.7931 768.0746,-236.1319"/>
</g>
<!-- Node8&#45;&gt;Node3 -->
<g id="edge12" class="edge">
<title>Node8&#45;&gt;Node3</title>
<path fill="none" stroke="#191970" d="M1017.3079,-153.513C968.8798,-175.8953 872.8395,-217.9978 814.4562,-242.4964"/>
<polygon fill="#191970" stroke="#191970" points="812.9481,-239.3332 805.0704,-246.4178 815.6467,-245.7921 812.9481,-239.3332"/>
</g>
<!-- Node9 -->
<g id="node10" class="node">
<title>Node9</title>
<g id="a_node10"><a xlink:href="constraints_2basic_8h.html" target="_top" xlink:title="Functions and data structures for constraining secondary structure predictions and evaluation...">
<polygon fill="none" stroke="#000000" points="850.5,-56.5 850.5,-86.5 969.5,-86.5 969.5,-56.5 850.5,-56.5"/>
<text text-anchor="start" x="858.5" y="-74.5" font-family="Helvetica,sans-Serif" font-size="10.00" fill="#000000">ViennaRNA/constraints</text>
<text text-anchor="middle" x="910" y="-63.5" font-family="Helvetica,sans-Serif" font-size="10.00" fill="#000000">/basic.h</text>
</a>
</g>
</g>
<!-- Node8&#45;&gt;Node9 -->
<g id="edge13" class="edge">
<title>Node8&#45;&gt;Node9</title>
<path fill="none" stroke="#191970" d="M1016.2545,-123.4639C996.7376,-113.9191 971.2743,-101.4663 950.1675,-91.144"/>
<polygon fill="#191970" stroke="#191970" points="951.6378,-87.9669 941.1169,-86.7177 948.5625,-94.2552 951.6378,-87.9669"/>
</g>
<!-- Node9&#45;&gt;Node3 -->
<g id="edge14" class="edge">
<title>Node9&#45;&gt;Node3</title>
<path fill="none" stroke="#191970" d="M850.4151,-74.2122C697.2012,-81.4726 300.1534,-102.2143 281,-123 271.6636,-133.1321 272.7811,-142.9421 281,-154 328.9146,-218.465 563.8591,-246.031 688.3049,-256.2657"/>
<polygon fill="#191970" stroke="#191970" points="688.2833,-259.7752 698.5317,-257.0882 688.8445,-252.7977 688.2833,-259.7752"/>
</g>
<!-- Node10&#45;&gt;Node3 -->
<g id="edge16" class="edge">
<title>Node10&#45;&gt;Node3</title>
<path fill="none" stroke="#191970" d="M896.8274,-153.7056C873.9761,-175.4456 827.2866,-215.5049 796.2026,-240.1919"/>
<polygon fill="#191970" stroke="#191970" points="793.9763,-237.49 788.2715,-246.4178 798.2986,-242.9961 793.9763,-237.49"/>
</g>
<!-- Node10&#45;&gt;Node9 -->
<g id="edge17" class="edge">
<title>Node10&#45;&gt;Node9</title>
<path fill="none" stroke="#191970" d="M910,-123.2967C910,-115.5013 910,-105.7991 910,-96.9064"/>
<polygon fill="#191970" stroke="#191970" points="913.5001,-96.6431 910,-86.6432 906.5001,-96.6432 913.5001,-96.6431"/>
</g>
<!-- Node11&#45;&gt;Node4 -->
<g id="edge19" class="edge">
<title>Node11&#45;&gt;Node4</title>
<path fill="none" stroke="#191970" d="M511.2531,-148.0419C539.4254,-158.3501 581.516,-174.858 609.4452,-186.4955"/>
<polygon fill="#191970" stroke="#191970" points="608.1131,-189.7322 618.6875,-190.3906 610.8317,-183.2817 608.1131,-189.7322"/>
</g>
<!-- Node13&#45;&gt;Node3 -->
<g id="edge22" class="edge">
<title>Node13&#45;&gt;Node3</title>
<path fill="none" stroke="#191970" d="M1140.22,-153.513C1065.097,-176.2645 917.5859,-219.3921 831.865,-243.6941"/>
<polygon fill="#191970" stroke="#191970" points="830.9068,-240.3278 822.2371,-246.4178 832.8123,-247.0635 830.9068,-240.3278"/>
</g>
<!-- Node13&#45;&gt;Node14 -->
<g id="edge23" class="edge">
<title>Node13&#45;&gt;Node14</title>
<path fill="none" stroke="#191970" d="M1209.6915,-123.2967C1226.0283,-112.351 1247.9759,-97.6462 1264.3119,-86.701"/>
<polygon fill="#191970" stroke="#191970" points="1266.3793,-89.5289 1272.7388,-81.055 1262.483,-83.7135 1266.3793,-89.5289"/>
</g>
<!-- Node14&#45;&gt;Node3 -->
<g id="edge25" class="edge">
<title>Node14&#45;&gt;Node3</title>
<path fill="none" stroke="#191970" d="M1291.9302,-81.0326C1294.5267,-98.302 1289.5441,-134.7529 1268,-154 1206.4438,-208.9932 968.3571,-241.2755 843.4099,-254.4828"/>
<polygon fill="#191970" stroke="#191970" points="842.7306,-251.0345 833.1469,-255.5515 843.4557,-257.9969 842.7306,-251.0345"/>
</g>
<!-- Node15 -->
<g id="node16" class="node">
<title>Node15</title>
<polygon fill="none" stroke="#bfbfbf" points="1264,-.5 1264,-19.5 1310,-19.5 1310,-.5 1264,-.5"/>
<text text-anchor="middle" x="1287" y="-7.5" font-family="Helvetica,sans-Serif" font-size="10.00" fill="#000000">stdio.h</text>
</g>
<!-- Node14&#45;&gt;Node15 -->
<g id="edge24" class="edge">
<title>Node14&#45;&gt;Node15</title>
<path fill="none" stroke="#191970" d="M1287,-61.8906C1287,-53.3657 1287,-40.6392 1287,-29.9235"/>
<polygon fill="#191970" stroke="#191970" points="1290.5001,-29.7448 1287,-19.7449 1283.5001,-29.7449 1290.5001,-29.7448"/>
</g>
</g>
</svg>
