<?xml version="1.0" encoding="UTF-8" standalone="no"?>
<!DOCTYPE svg PUBLIC "-//W3C//DTD SVG 1.1//EN"
 "http://www.w3.org/Graphics/SVG/1.1/DTD/svg11.dtd">
<!-- Generated by graphviz version 2.40.1 (20161225.0304)
 -->
<!-- Title: ViennaRNA/part_func.h Pages: 1 -->
<svg width="1433pt" height="408pt"
 viewBox="0.00 0.00 1433.00 408.00" xmlns="http://www.w3.org/2000/svg" xmlns:xlink="http://www.w3.org/1999/xlink">
<g id="graph0" class="graph" transform="scale(1 1) rotate(0) translate(4 404)">
<title>ViennaRNA/part_func.h</title>
<!-- Node0 -->
<g id="node1" class="node">
<title>Node0</title>
<polygon fill="#bfbfbf" stroke="#000000" points="655,-380.5 655,-399.5 775,-399.5 775,-380.5 655,-380.5"/>
<text text-anchor="middle" x="715" y="-387.5" font-family="Helvetica,sans-Serif" font-size="10.00" fill="#000000">ViennaRNA/part_func.h</text>
</g>
<!-- Node1 -->
<g id="node2" class="node">
<title>Node1</title>
<g id="a_node2"><a xlink:href="datastructures_2basic_8h.html" target="_top" xlink:title="Various data structures and pre&#45;processor macros. ">
<polygon fill="none" stroke="#000000" points="734,-246.5 734,-276.5 868,-276.5 868,-246.5 734,-246.5"/>
<text text-anchor="start" x="742" y="-264.5" font-family="Helvetica,sans-Serif" font-size="10.00" fill="#000000">ViennaRNA/datastructures</text>
<text text-anchor="middle" x="801" y="-253.5" font-family="Helvetica,sans-Serif" font-size="10.00" fill="#000000">/basic.h</text>
</a>
</g>
</g>
<!-- Node0&#45;&gt;Node1 -->
<g id="edge1" class="edge">
<title>Node0&#45;&gt;Node1</title>
<path fill="none" stroke="#191970" d="M715.3752,-380.1868C716.3903,-364.7089 720.1436,-334.2099 734,-313 741.8649,-300.9613 753.5289,-290.5917 764.93,-282.3779"/>
<polygon fill="#191970" stroke="#191970" points="767.2321,-285.0449 773.5299,-276.525 763.2936,-279.2579 767.2321,-285.0449"/>
</g>
<!-- Node6 -->
<g id="node7" class="node">
<title>Node6</title>
<g id="a_node7"><a xlink:href="params_2basic_8h.html" target="_top" xlink:title="Functions to deal with sets of energy parameters. ">
<polygon fill="none" stroke="#000000" points="85,-129 85,-148 223,-148 223,-129 85,-129"/>
<text text-anchor="middle" x="154" y="-136" font-family="Helvetica,sans-Serif" font-size="10.00" fill="#000000">ViennaRNA/params/basic.h</text>
</a>
</g>
</g>
<!-- Node0&#45;&gt;Node6 -->
<g id="edge37" class="edge">
<title>Node0&#45;&gt;Node6</title>
<path fill="none" stroke="#191970" d="M654.7617,-382.9478C565.7853,-370.7824 395.6694,-340.756 265,-277 221.4543,-255.7532 207.2573,-249.3596 179,-210 167.7684,-194.3555 161.2056,-173.2105 157.6457,-157.9786"/>
<polygon fill="#191970" stroke="#191970" points="161.0496,-157.1575 155.5603,-148.0956 154.2004,-158.6028 161.0496,-157.1575"/>
</g>
<!-- Node17 -->
<g id="node18" class="node">
<title>Node17</title>
<g id="a_node18"><a xlink:href="centroid_8h.html" target="_top" xlink:title="Centroid structure computation. ">
<polygon fill="none" stroke="#000000" points="877,-319 877,-338 991,-338 991,-319 877,-319"/>
<text text-anchor="middle" x="934" y="-326" font-family="Helvetica,sans-Serif" font-size="10.00" fill="#000000">ViennaRNA/centroid.h</text>
</a>
</g>
</g>
<!-- Node0&#45;&gt;Node17 -->
<g id="edge38" class="edge">
<title>Node0&#45;&gt;Node17</title>
<path fill="none" stroke="#191970" d="M749.2188,-380.3906C787.2275,-369.7169 848.6911,-352.4566 890.1884,-340.8033"/>
<polygon fill="#191970" stroke="#191970" points="891.3402,-344.1153 900.0215,-338.0419 889.4477,-337.3759 891.3402,-344.1153"/>
</g>
<!-- Node18 -->
<g id="node19" class="node">
<title>Node18</title>
<g id="a_node19"><a xlink:href="equilibrium__probs_8h.html" target="_top" xlink:title="Equilibrium Probability implementations. ">
<polygon fill="none" stroke="#000000" points="569,-313.5 569,-343.5 687,-343.5 687,-313.5 569,-313.5"/>
<text text-anchor="start" x="577" y="-331.5" font-family="Helvetica,sans-Serif" font-size="10.00" fill="#000000">ViennaRNA/equilibrium</text>
<text text-anchor="middle" x="628" y="-320.5" font-family="Helvetica,sans-Serif" font-size="10.00" fill="#000000">_probs.h</text>
</a>
</g>
</g>
<!-- Node0&#45;&gt;Node18 -->
<g id="edge41" class="edge">
<title>Node0&#45;&gt;Node18</title>
<path fill="none" stroke="#191970" d="M701.4063,-380.3906C689.7409,-372.1444 672.5141,-359.9669 657.68,-349.4807"/>
<polygon fill="#191970" stroke="#191970" points="659.4687,-346.459 649.2826,-343.5446 655.428,-352.175 659.4687,-346.459"/>
</g>
<!-- Node19 -->
<g id="node20" class="node">
<title>Node19</title>
<g id="a_node20"><a xlink:href="boltzmann__sampling_8h.html" target="_top" xlink:title="Boltzmann Sampling of secondary structures from the ensemble. ">
<polygon fill="none" stroke="#000000" points="743,-313.5 743,-343.5 859,-343.5 859,-313.5 743,-313.5"/>
<text text-anchor="start" x="751" y="-331.5" font-family="Helvetica,sans-Serif" font-size="10.00" fill="#000000">ViennaRNA/boltzmann</text>
<text text-anchor="middle" x="801" y="-320.5" font-family="Helvetica,sans-Serif" font-size="10.00" fill="#000000">_sampling.h</text>
</a>
</g>
</g>
<!-- Node0&#45;&gt;Node19 -->
<g id="edge44" class="edge">
<title>Node0&#45;&gt;Node19</title>
<path fill="none" stroke="#191970" d="M728.4375,-380.3906C739.9688,-372.1444 756.9976,-359.9669 771.6611,-349.4807"/>
<polygon fill="#191970" stroke="#191970" points="773.8638,-352.2084 779.962,-343.5446 769.792,-346.5145 773.8638,-352.2084"/>
</g>
<!-- Node2 -->
<g id="node3" class="node">
<title>Node2</title>
<g id="a_node3"><a xlink:href="constants_8h.html" target="_top" xlink:title="Energy parameter constants. ">
<polygon fill="none" stroke="#000000" points="0,-62 0,-81 158,-81 158,-62 0,-62"/>
<text text-anchor="middle" x="79" y="-69" font-family="Helvetica,sans-Serif" font-size="10.00" fill="#000000">ViennaRNA/params/constants.h</text>
</a>
</g>
</g>
<!-- Node1&#45;&gt;Node2 -->
<g id="edge2" class="edge">
<title>Node1&#45;&gt;Node2</title>
<path fill="none" stroke="#191970" d="M733.8967,-258.5001C599.5299,-252.0379 301.8667,-235.3083 203,-210 143.2388,-194.702 109.6904,-205.6758 76,-154 63.7561,-135.2198 67.5949,-108.5885 72.4338,-90.7122"/>
<polygon fill="#191970" stroke="#191970" points="75.7981,-91.6786 75.3626,-81.0927 69.1016,-89.6397 75.7981,-91.6786"/>
</g>
<!-- Node4 -->
<g id="node5" class="node">
<title>Node4</title>
<g id="a_node5"><a xlink:href="fold__compound_8h.html" target="_top" xlink:title="The Basic Fold Compound API. ">
<polygon fill="none" stroke="#000000" points="618,-190.5 618,-209.5 764,-209.5 764,-190.5 618,-190.5"/>
<text text-anchor="middle" x="691" y="-197.5" font-family="Helvetica,sans-Serif" font-size="10.00" fill="#000000">ViennaRNA/fold_compound.h</text>
</a>
</g>
</g>
<!-- Node1&#45;&gt;Node4 -->
<g id="edge4" class="edge">
<title>Node1&#45;&gt;Node4</title>
<path fill="none" stroke="#191970" d="M774.091,-246.4554C756.7032,-236.734 734.1951,-224.15 716.9916,-214.5317"/>
<polygon fill="#191970" stroke="#191970" points="718.4826,-211.3554 708.0461,-209.5303 715.0665,-217.4653 718.4826,-211.3554"/>
</g>
<!-- Node5 -->
<g id="node6" class="node">
<title>Node5</title>
<g id="a_node6"><a xlink:href="model_8h.html" target="_top" xlink:title="The model details data structure and its corresponding modifiers. ">
<polygon fill="none" stroke="#000000" points="198,-62 198,-81 304,-81 304,-62 198,-62"/>
<text text-anchor="middle" x="251" y="-69" font-family="Helvetica,sans-Serif" font-size="10.00" fill="#000000">ViennaRNA/model.h</text>
</a>
</g>
</g>
<!-- Node1&#45;&gt;Node5 -->
<g id="edge28" class="edge">
<title>Node1&#45;&gt;Node5</title>
<path fill="none" stroke="#191970" d="M733.8767,-257.1132C605.8486,-247.3228 333.8061,-219.2134 270,-154 253.7504,-137.392 250.3244,-109.8355 250.0809,-91.1856"/>
<polygon fill="#191970" stroke="#191970" points="253.581,-91.1982 250.2431,-81.143 246.5819,-91.0851 253.581,-91.1982"/>
</g>
<!-- Node1&#45;&gt;Node6 -->
<g id="edge29" class="edge">
<title>Node1&#45;&gt;Node6</title>
<path fill="none" stroke="#191970" d="M733.9958,-260.5745C602.7245,-257.9129 317.1066,-247.7872 228,-210 200.3729,-198.2842 175.2719,-173.8496 162.1848,-156.8247"/>
<polygon fill="#191970" stroke="#191970" points="164.8011,-154.4576 156.2105,-148.2566 159.0592,-158.4613 164.8011,-154.4576"/>
</g>
<!-- Node8 -->
<g id="node9" class="node">
<title>Node8</title>
<g id="a_node9"><a xlink:href="dp__matrices_8h.html" target="_top" xlink:title="Functions to deal with standard dynamic programming (DP) matrices. ">
<polygon fill="none" stroke="#000000" points="726.5,-129 726.5,-148 859.5,-148 859.5,-129 726.5,-129"/>
<text text-anchor="middle" x="793" y="-136" font-family="Helvetica,sans-Serif" font-size="10.00" fill="#000000">ViennaRNA/dp_matrices.h</text>
</a>
</g>
</g>
<!-- Node1&#45;&gt;Node8 -->
<g id="edge30" class="edge">
<title>Node1&#45;&gt;Node8</title>
<path fill="none" stroke="#191970" d="M795.4048,-246.4178C791.2966,-224.2662 788.4377,-182.9061 789.1687,-158.3234"/>
<polygon fill="#191970" stroke="#191970" points="792.68,-158.2438 789.7954,-148.0493 785.6929,-157.8176 792.68,-158.2438"/>
</g>
<!-- Node9 -->
<g id="node10" class="node">
<title>Node9</title>
<g id="a_node10"><a xlink:href="hard_8h.html" target="_top" xlink:title="Functions and data structures for handling of secondary structure hard constraints. ">
<polygon fill="none" stroke="#000000" points="1014.5,-123.5 1014.5,-153.5 1133.5,-153.5 1133.5,-123.5 1014.5,-123.5"/>
<text text-anchor="start" x="1022.5" y="-141.5" font-family="Helvetica,sans-Serif" font-size="10.00" fill="#000000">ViennaRNA/constraints</text>
<text text-anchor="middle" x="1074" y="-130.5" font-family="Helvetica,sans-Serif" font-size="10.00" fill="#000000">/hard.h</text>
</a>
</g>
</g>
<!-- Node1&#45;&gt;Node9 -->
<g id="edge31" class="edge">
<title>Node1&#45;&gt;Node9</title>
<path fill="none" stroke="#191970" d="M829.8609,-246.4178C876.8316,-224.0411 969.8559,-182.0638 1026.6039,-157.5795"/>
<polygon fill="#191970" stroke="#191970" points="1028.2653,-160.6752 1036.0726,-153.513 1025.5029,-154.2433 1028.2653,-160.6752"/>
</g>
<!-- Node11 -->
<g id="node12" class="node">
<title>Node11</title>
<g id="a_node12"><a xlink:href="soft_8h.html" target="_top" xlink:title="Functions and data structures for secondary structure soft constraints. ">
<polygon fill="none" stroke="#000000" points="877.5,-123.5 877.5,-153.5 996.5,-153.5 996.5,-123.5 877.5,-123.5"/>
<text text-anchor="start" x="885.5" y="-141.5" font-family="Helvetica,sans-Serif" font-size="10.00" fill="#000000">ViennaRNA/constraints</text>
<text text-anchor="middle" x="937" y="-130.5" font-family="Helvetica,sans-Serif" font-size="10.00" fill="#000000">/soft.h</text>
</a>
</g>
</g>
<!-- Node1&#45;&gt;Node11 -->
<g id="edge32" class="edge">
<title>Node1&#45;&gt;Node11</title>
<path fill="none" stroke="#191970" d="M813.062,-246.4178C834.3225,-224.8395 878.1074,-185.0342 907.6378,-160.2653"/>
<polygon fill="#191970" stroke="#191970" points="910.0891,-162.7797 915.5583,-153.7056 905.6241,-157.3885 910.0891,-162.7797"/>
</g>
<!-- Node12 -->
<g id="node13" class="node">
<title>Node12</title>
<g id="a_node13"><a xlink:href="grammar_8h.html" target="_top" xlink:title="Implementations for the RNA folding grammar. ">
<polygon fill="none" stroke="#000000" points="412.5,-129 412.5,-148 529.5,-148 529.5,-129 412.5,-129"/>
<text text-anchor="middle" x="471" y="-136" font-family="Helvetica,sans-Serif" font-size="10.00" fill="#000000">ViennaRNA/grammar.h</text>
</a>
</g>
</g>
<!-- Node1&#45;&gt;Node12 -->
<g id="edge33" class="edge">
<title>Node1&#45;&gt;Node12</title>
<path fill="none" stroke="#191970" d="M733.6676,-247.2073C696.3123,-238.3472 649.3803,-225.6643 609,-210 567.5937,-193.9378 522.3852,-168.9733 495.3802,-153.1936"/>
<polygon fill="#191970" stroke="#191970" points="497.0142,-150.0939 486.6234,-148.0249 493.456,-156.1222 497.0142,-150.0939"/>
</g>
<!-- Node13 -->
<g id="node14" class="node">
<title>Node13</title>
<g id="a_node14"><a xlink:href="structured__domains_8h.html" target="_top" xlink:title="This module provides interfaces that deal with additional structured domains in the folding grammar...">
<polygon fill="none" stroke="#000000" points="279.5,-123.5 279.5,-153.5 394.5,-153.5 394.5,-123.5 279.5,-123.5"/>
<text text-anchor="start" x="287.5" y="-141.5" font-family="Helvetica,sans-Serif" font-size="10.00" fill="#000000">ViennaRNA/structured</text>
<text text-anchor="middle" x="337" y="-130.5" font-family="Helvetica,sans-Serif" font-size="10.00" fill="#000000">_domains.h</text>
</a>
</g>
</g>
<!-- Node1&#45;&gt;Node13 -->
<g id="edge34" class="edge">
<title>Node1&#45;&gt;Node13</title>
<path fill="none" stroke="#191970" d="M733.919,-248.7241C686.0172,-239.1786 620.2005,-225.2015 563,-210 503.1586,-194.0966 435.5913,-172.1888 390.0508,-156.8281"/>
<polygon fill="#191970" stroke="#191970" points="390.988,-153.4503 380.3937,-153.5575 388.7426,-160.0804 390.988,-153.4503"/>
</g>
<!-- Node14 -->
<g id="node15" class="node">
<title>Node14</title>
<g id="a_node15"><a xlink:href="unstructured__domains_8h.html" target="_top" xlink:title="Functions to modify unstructured domains, e.g. to incorporate ligands binding to unpaired stretches...">
<polygon fill="none" stroke="#000000" points="1190.5,-123.5 1190.5,-153.5 1315.5,-153.5 1315.5,-123.5 1190.5,-123.5"/>
<text text-anchor="start" x="1198.5" y="-141.5" font-family="Helvetica,sans-Serif" font-size="10.00" fill="#000000">ViennaRNA/unstructured</text>
<text text-anchor="middle" x="1253" y="-130.5" font-family="Helvetica,sans-Serif" font-size="10.00" fill="#000000">_domains.h</text>
</a>
</g>
</g>
<!-- Node1&#45;&gt;Node14 -->
<g id="edge35" class="edge">
<title>Node1&#45;&gt;Node14</title>
<path fill="none" stroke="#191970" d="M868.1379,-256.689C958.8787,-249.6447 1115.0357,-234.6182 1167,-210 1190.6601,-198.791 1211.9918,-177.6786 1227.7555,-161.2894"/>
<polygon fill="#191970" stroke="#191970" points="1230.6459,-163.3314 1235.0325,-153.6873 1225.5892,-158.4909 1230.6459,-163.3314"/>
</g>
<!-- Node15 -->
<g id="node16" class="node">
<title>Node15</title>
<g id="a_node16"><a xlink:href="utils_2structures_8h.html" target="_top" xlink:title="Various utility&#45; and helper&#45;functions for secondary structure parsing, converting, etc. ">
<polygon fill="none" stroke="#000000" points="1281,-62 1281,-81 1425,-81 1425,-62 1281,-62"/>
<text text-anchor="middle" x="1353" y="-69" font-family="Helvetica,sans-Serif" font-size="10.00" fill="#000000">ViennaRNA/utils/structures.h</text>
</a>
</g>
</g>
<!-- Node1&#45;&gt;Node15 -->
<g id="edge36" class="edge">
<title>Node1&#45;&gt;Node15</title>
<path fill="none" stroke="#191970" d="M868.1257,-255.3617C965.9192,-246.3757 1142.3389,-228.6695 1204,-210 1257.2653,-193.8726 1279.4216,-195.944 1316,-154 1331.633,-136.0739 1338.6254,-109.041 1343.7798,-90.8535"/>
<polygon fill="#191970" stroke="#191970" points="1347.1946,-91.6525 1346.7328,-81.0677 1340.493,-89.6302 1347.1946,-91.6525"/>
</g>
<!-- Node3 -->
<g id="node4" class="node">
<title>Node3</title>
<polygon fill="none" stroke="#bfbfbf" points="55,-.5 55,-19.5 103,-19.5 103,-.5 55,-.5"/>
<text text-anchor="middle" x="79" y="-7.5" font-family="Helvetica,sans-Serif" font-size="10.00" fill="#000000">limits.h</text>
</g>
<!-- Node2&#45;&gt;Node3 -->
<g id="edge3" class="edge">
<title>Node2&#45;&gt;Node3</title>
<path fill="none" stroke="#191970" d="M79,-61.8906C79,-53.3657 79,-40.6392 79,-29.9235"/>
<polygon fill="#191970" stroke="#191970" points="82.5001,-29.7448 79,-19.7449 75.5001,-29.7449 82.5001,-29.7448"/>
</g>
<!-- Node4&#45;&gt;Node5 -->
<g id="edge5" class="edge">
<title>Node4&#45;&gt;Node5</title>
<path fill="none" stroke="#191970" d="M692.7825,-190.3277C695.1915,-173.9135 697.2961,-140.6694 679,-123 653.2563,-98.1382 427.0389,-81.6775 314.3006,-74.9435"/>
<polygon fill="#191970" stroke="#191970" points="314.272,-71.4358 304.0834,-74.3413 313.8601,-78.4237 314.272,-71.4358"/>
</g>
<!-- Node4&#45;&gt;Node6 -->
<g id="edge6" class="edge">
<title>Node4&#45;&gt;Node6</title>
<path fill="none" stroke="#191970" d="M617.9254,-192.5531C533.9105,-183.8665 391.8919,-168.8007 270,-154 258.1818,-152.565 245.6967,-150.9749 233.469,-149.3758"/>
<polygon fill="#191970" stroke="#191970" points="233.65,-145.8695 223.2786,-148.0337 232.736,-152.8096 233.65,-145.8695"/>
</g>
<!-- Node7 -->
<g id="node8" class="node">
<title>Node7</title>
<g id="a_node8"><a xlink:href="sequence_8h.html" target="_top" xlink:title="Functions and data structures related to sequence representations ,. ">
<polygon fill="none" stroke="#000000" points="548,-129 548,-148 670,-148 670,-129 548,-129"/>
<text text-anchor="middle" x="609" y="-136" font-family="Helvetica,sans-Serif" font-size="10.00" fill="#000000">ViennaRNA/sequence.h</text>
</a>
</g>
</g>
<!-- Node4&#45;&gt;Node7 -->
<g id="edge10" class="edge">
<title>Node4&#45;&gt;Node7</title>
<path fill="none" stroke="#191970" d="M678.1875,-190.3906C665.3099,-180.7324 645.2416,-165.6812 630.028,-154.271"/>
<polygon fill="#191970" stroke="#191970" points="631.8226,-151.2419 621.7225,-148.0419 627.6225,-156.8419 631.8226,-151.2419"/>
</g>
<!-- Node4&#45;&gt;Node8 -->
<g id="edge11" class="edge">
<title>Node4&#45;&gt;Node8</title>
<path fill="none" stroke="#191970" d="M706.9375,-190.3906C723.4051,-180.4616 749.3258,-164.833 768.4204,-153.3201"/>
<polygon fill="#191970" stroke="#191970" points="770.4178,-156.2027 777.1744,-148.0419 766.8034,-150.2081 770.4178,-156.2027"/>
</g>
<!-- Node4&#45;&gt;Node9 -->
<g id="edge13" class="edge">
<title>Node4&#45;&gt;Node9</title>
<path fill="none" stroke="#191970" d="M764.1516,-190.9849C825.8552,-182.9981 916.7036,-170.3461 1004.4931,-154.2068"/>
<polygon fill="#191970" stroke="#191970" points="1005.1581,-157.6432 1014.3515,-152.377 1003.8807,-150.7607 1005.1581,-157.6432"/>
</g>
<!-- Node4&#45;&gt;Node11 -->
<g id="edge17" class="edge">
<title>Node4&#45;&gt;Node11</title>
<path fill="none" stroke="#191970" d="M729.1676,-190.4581C765.929,-181.2677 822.402,-167.1495 867.2069,-155.9483"/>
<polygon fill="#191970" stroke="#191970" points="868.3064,-159.2812 877.1589,-153.4603 866.6086,-152.4902 868.3064,-159.2812"/>
</g>
<!-- Node4&#45;&gt;Node12 -->
<g id="edge20" class="edge">
<title>Node4&#45;&gt;Node12</title>
<path fill="none" stroke="#191970" d="M651.8171,-190.4581C611.6763,-179.8209 549.8448,-162.5822 509.8353,-150.9056"/>
<polygon fill="#191970" stroke="#191970" points="510.7411,-147.5239 500.16,-148.0643 508.7686,-154.2403 510.7411,-147.5239"/>
</g>
<!-- Node4&#45;&gt;Node13 -->
<g id="edge22" class="edge">
<title>Node4&#45;&gt;Node13</title>
<path fill="none" stroke="#191970" d="M622.3796,-190.4649C566.2739,-182.3425 484.6694,-169.7879 404.779,-154.2777"/>
<polygon fill="#191970" stroke="#191970" points="405.0262,-150.7597 394.5398,-152.2715 403.6802,-157.629 405.0262,-150.7597"/>
</g>
<!-- Node4&#45;&gt;Node14 -->
<g id="edge23" class="edge">
<title>Node4&#45;&gt;Node14</title>
<path fill="none" stroke="#191970" d="M764.2949,-193.4169C853.7822,-185.1773 1009.688,-170.1699 1143,-154 1154.966,-152.5486 1167.6457,-150.882 1179.9774,-149.1918"/>
<polygon fill="#191970" stroke="#191970" points="1180.8061,-152.6105 1190.2309,-147.7707 1179.8451,-145.6768 1180.8061,-152.6105"/>
</g>
<!-- Node6&#45;&gt;Node1 -->
<g id="edge8" class="edge">
<title>Node6&#45;&gt;Node1</title>
<path fill="none" stroke="#191970" d="M167.1947,-148.2566C184.0618,-164.3636 213.2567,-196.1146 246,-210 330.5834,-245.8691 592.2341,-256.8137 723.8556,-260.1089"/>
<polygon fill="#191970" stroke="#191970" points="723.7907,-263.6082 733.8724,-260.3512 723.96,-256.6103 723.7907,-263.6082"/>
</g>
<!-- Node6&#45;&gt;Node2 -->
<g id="edge7" class="edge">
<title>Node6&#45;&gt;Node2</title>
<path fill="none" stroke="#191970" d="M143.2543,-128.9005C131.336,-118.2535 111.8943,-100.8856 97.5132,-88.0385"/>
<polygon fill="#191970" stroke="#191970" points="99.5151,-85.1337 89.7257,-81.0817 94.8516,-90.354 99.5151,-85.1337"/>
</g>
<!-- Node6&#45;&gt;Node5 -->
<g id="edge9" class="edge">
<title>Node6&#45;&gt;Node5</title>
<path fill="none" stroke="#191970" d="M167.8977,-128.9005C183.8164,-117.9052 210.1121,-99.7422 228.8599,-86.7927"/>
<polygon fill="#191970" stroke="#191970" points="230.8892,-89.6448 237.128,-81.0817 226.9108,-83.8852 230.8892,-89.6448"/>
</g>
<!-- Node8&#45;&gt;Node1 -->
<g id="edge12" class="edge">
<title>Node8&#45;&gt;Node1</title>
<path fill="none" stroke="#191970" d="M797.4468,-148.0493C801.8407,-166.7476 805.16,-208.7435 804.9347,-236.0615"/>
<polygon fill="#191970" stroke="#191970" points="801.4258,-236.3202 804.6333,-246.4178 808.4229,-236.5239 801.4258,-236.3202"/>
</g>
<!-- Node9&#45;&gt;Node1 -->
<g id="edge14" class="edge">
<title>Node9&#45;&gt;Node1</title>
<path fill="none" stroke="#191970" d="M1045.2844,-153.513C998.4088,-175.8491 905.3947,-217.8243 848.5719,-242.3446"/>
<polygon fill="#191970" stroke="#191970" points="846.8962,-239.2551 839.0894,-246.4178 849.659,-245.6868 846.8962,-239.2551"/>
</g>
<!-- Node10 -->
<g id="node11" class="node">
<title>Node10</title>
<g id="a_node11"><a xlink:href="constraints_2basic_8h.html" target="_top" xlink:title="Functions and data structures for constraining secondary structure predictions and evaluation...">
<polygon fill="none" stroke="#000000" points="1014.5,-56.5 1014.5,-86.5 1133.5,-86.5 1133.5,-56.5 1014.5,-56.5"/>
<text text-anchor="start" x="1022.5" y="-74.5" font-family="Helvetica,sans-Serif" font-size="10.00" fill="#000000">ViennaRNA/constraints</text>
<text text-anchor="middle" x="1074" y="-63.5" font-family="Helvetica,sans-Serif" font-size="10.00" fill="#000000">/basic.h</text>
</a>
</g>
</g>
<!-- Node9&#45;&gt;Node10 -->
<g id="edge15" class="edge">
<title>Node9&#45;&gt;Node10</title>
<path fill="none" stroke="#191970" d="M1074,-123.2967C1074,-115.5013 1074,-105.7991 1074,-96.9064"/>
<polygon fill="#191970" stroke="#191970" points="1077.5001,-96.6431 1074,-86.6432 1070.5001,-96.6432 1077.5001,-96.6431"/>
</g>
<!-- Node10&#45;&gt;Node1 -->
<g id="edge16" class="edge">
<title>Node10&#45;&gt;Node1</title>
<path fill="none" stroke="#191970" d="M1101.8319,-86.5382C1128.1103,-102.7263 1161.0076,-129.4634 1143,-154 1111.4546,-196.9827 968.9533,-230.5817 878.1391,-248.1054"/>
<polygon fill="#191970" stroke="#191970" points="877.3207,-244.6983 868.1524,-250.008 878.6308,-251.5746 877.3207,-244.6983"/>
</g>
<!-- Node11&#45;&gt;Node1 -->
<g id="edge18" class="edge">
<title>Node11&#45;&gt;Node1</title>
<path fill="none" stroke="#191970" d="M924.8164,-153.7056C903.4703,-175.3531 859.6698,-215.1643 830.1938,-239.8759"/>
<polygon fill="#191970" stroke="#191970" points="827.7622,-237.3452 822.2905,-246.4178 832.2257,-242.7376 827.7622,-237.3452"/>
</g>
<!-- Node11&#45;&gt;Node10 -->
<g id="edge19" class="edge">
<title>Node11&#45;&gt;Node10</title>
<path fill="none" stroke="#191970" d="M967.7455,-123.4639C987.2624,-113.9191 1012.7257,-101.4663 1033.8325,-91.144"/>
<polygon fill="#191970" stroke="#191970" points="1035.4375,-94.2552 1042.8831,-86.7177 1032.3622,-87.9669 1035.4375,-94.2552"/>
</g>
<!-- Node12&#45;&gt;Node4 -->
<g id="edge21" class="edge">
<title>Node12&#45;&gt;Node4</title>
<path fill="none" stroke="#191970" d="M510.1829,-148.0419C550.2715,-158.6652 611.9944,-175.873 652.0085,-187.5488"/>
<polygon fill="#191970" stroke="#191970" points="651.1065,-190.9316 661.6875,-190.3906 653.0786,-184.2151 651.1065,-190.9316"/>
</g>
<!-- Node14&#45;&gt;Node1 -->
<g id="edge24" class="edge">
<title>Node14&#45;&gt;Node1</title>
<path fill="none" stroke="#191970" d="M1248.0356,-153.6873C1236.9107,-170.5039 1212.5318,-196.9568 1185,-210 1132.6609,-234.7957 974.6206,-249.8609 878.3094,-256.8402"/>
<polygon fill="#191970" stroke="#191970" points="878.0499,-253.3497 868.3236,-257.5509 878.5468,-260.332 878.0499,-253.3497"/>
</g>
<!-- Node14&#45;&gt;Node15 -->
<g id="edge25" class="edge">
<title>Node14&#45;&gt;Node15</title>
<path fill="none" stroke="#191970" d="M1275.6915,-123.2967C1292.0283,-112.351 1313.9759,-97.6462 1330.3119,-86.701"/>
<polygon fill="#191970" stroke="#191970" points="1332.3793,-89.5289 1338.7388,-81.055 1328.483,-83.7135 1332.3793,-89.5289"/>
</g>
<!-- Node15&#45;&gt;Node1 -->
<g id="edge27" class="edge">
<title>Node15&#45;&gt;Node1</title>
<path fill="none" stroke="#191970" d="M1357.4895,-81.0677C1359.0965,-97.7551 1352.7889,-132.455 1334,-154 1297.4216,-195.944 1275.2653,-193.8726 1222,-210 1159.9892,-228.7754 981.9141,-246.5766 878.2367,-255.5138"/>
<polygon fill="#191970" stroke="#191970" points="877.7997,-252.0383 868.1339,-256.3769 878.3956,-259.0129 877.7997,-252.0383"/>
</g>
<!-- Node16 -->
<g id="node17" class="node">
<title>Node16</title>
<polygon fill="none" stroke="#bfbfbf" points="1330,-.5 1330,-19.5 1376,-19.5 1376,-.5 1330,-.5"/>
<text text-anchor="middle" x="1353" y="-7.5" font-family="Helvetica,sans-Serif" font-size="10.00" fill="#000000">stdio.h</text>
</g>
<!-- Node15&#45;&gt;Node16 -->
<g id="edge26" class="edge">
<title>Node15&#45;&gt;Node16</title>
<path fill="none" stroke="#191970" d="M1353,-61.8906C1353,-53.3657 1353,-40.6392 1353,-29.9235"/>
<polygon fill="#191970" stroke="#191970" points="1356.5001,-29.7448 1353,-19.7449 1349.5001,-29.7449 1356.5001,-29.7448"/>
</g>
<!-- Node17&#45;&gt;Node1 -->
<g id="edge39" class="edge">
<title>Node17&#45;&gt;Node1</title>
<path fill="none" stroke="#191970" d="M914.9443,-318.9005C895.455,-309.0826 864.6212,-293.5498 839.9406,-281.1167"/>
<polygon fill="#191970" stroke="#191970" points="841.3248,-277.895 830.8193,-276.5218 838.1755,-284.1466 841.3248,-277.895"/>
</g>
<!-- Node17&#45;&gt;Node15 -->
<g id="edge40" class="edge">
<title>Node17&#45;&gt;Node15</title>
<path fill="none" stroke="#191970" d="M969.1816,-318.8743C1031.2428,-301.2753 1163.4843,-260.9818 1268,-210 1309.666,-189.6757 1333.6917,-194.6384 1356,-154 1366.6805,-134.5437 1363.3415,-108.4374 1359.0361,-90.8461"/>
<polygon fill="#191970" stroke="#191970" points="1362.3874,-89.8333 1356.3472,-81.1289 1355.641,-91.7002 1362.3874,-89.8333"/>
</g>
<!-- Node18&#45;&gt;Node1 -->
<g id="edge42" class="edge">
<title>Node18&#45;&gt;Node1</title>
<path fill="none" stroke="#191970" d="M666.8246,-313.4639C692.1113,-303.6708 725.3029,-290.8162 752.3468,-280.3426"/>
<polygon fill="#191970" stroke="#191970" points="753.945,-283.477 762.0061,-276.6017 751.417,-276.9494 753.945,-283.477"/>
</g>
<!-- Node18&#45;&gt;Node6 -->
<g id="edge43" class="edge">
<title>Node18&#45;&gt;Node6</title>
<path fill="none" stroke="#191970" d="M568.9752,-324.7174C481.5265,-316.5021 315.7627,-290.6651 203,-210 184.3505,-196.659 170.5421,-173.8684 162.4191,-157.6038"/>
<polygon fill="#191970" stroke="#191970" points="165.5379,-156.0116 158.1035,-148.463 159.2078,-159.0001 165.5379,-156.0116"/>
</g>
<!-- Node19&#45;&gt;Node1 -->
<g id="edge45" class="edge">
<title>Node19&#45;&gt;Node1</title>
<path fill="none" stroke="#191970" d="M801,-313.2967C801,-305.5013 801,-295.7991 801,-286.9064"/>
<polygon fill="#191970" stroke="#191970" points="804.5001,-286.6431 801,-276.6432 797.5001,-286.6432 804.5001,-286.6431"/>
</g>
</g>
</svg>
