<?xml version="1.0" encoding="UTF-8" standalone="no"?>
<!DOCTYPE svg PUBLIC "-//W3C//DTD SVG 1.1//EN"
 "http://www.w3.org/Graphics/SVG/1.1/DTD/svg11.dtd">
<!-- Generated by graphviz version 2.40.1 (20161225.0304)
 -->
<!-- Title: ViennaRNA/part_func_window.h Pages: 1 -->
<svg width="1407pt" height="352pt"
 viewBox="0.00 0.00 1407.00 352.00" xmlns="http://www.w3.org/2000/svg" xmlns:xlink="http://www.w3.org/1999/xlink">
<g id="graph0" class="graph" transform="scale(1 1) rotate(0) translate(4 348)">
<title>ViennaRNA/part_func_window.h</title>
<!-- Node0 -->
<g id="node1" class="node">
<title>Node0</title>
<polygon fill="#bfbfbf" stroke="#000000" points="351,-313.5 351,-343.5 463,-343.5 463,-313.5 351,-313.5"/>
<text text-anchor="start" x="359" y="-331.5" font-family="Helvetica,sans-Serif" font-size="10.00" fill="#000000">ViennaRNA/part_func</text>
<text text-anchor="middle" x="407" y="-320.5" font-family="Helvetica,sans-Serif" font-size="10.00" fill="#000000">_window.h</text>
</g>
<!-- Node1 -->
<g id="node2" class="node">
<title>Node1</title>
<g id="a_node2"><a xlink:href="datastructures_2basic_8h.html" target="_top" xlink:title="Various data structures and pre&#45;processor macros. ">
<polygon fill="none" stroke="#000000" points="756,-246.5 756,-276.5 890,-276.5 890,-246.5 756,-246.5"/>
<text text-anchor="start" x="764" y="-264.5" font-family="Helvetica,sans-Serif" font-size="10.00" fill="#000000">ViennaRNA/datastructures</text>
<text text-anchor="middle" x="823" y="-253.5" font-family="Helvetica,sans-Serif" font-size="10.00" fill="#000000">/basic.h</text>
</a>
</g>
</g>
<!-- Node0&#45;&gt;Node1 -->
<g id="edge1" class="edge">
<title>Node0&#45;&gt;Node1</title>
<path fill="none" stroke="#191970" d="M463.1036,-319.4641C536.0212,-307.7201 663.7,-287.1565 745.7398,-273.9434"/>
<polygon fill="#191970" stroke="#191970" points="746.4435,-277.3752 755.7597,-272.3296 745.3304,-270.4643 746.4435,-277.3752"/>
</g>
<!-- Node6 -->
<g id="node7" class="node">
<title>Node6</title>
<g id="a_node7"><a xlink:href="params_2basic_8h.html" target="_top" xlink:title="Functions to deal with sets of energy parameters. ">
<polygon fill="none" stroke="#000000" points="58,-129 58,-148 196,-148 196,-129 58,-129"/>
<text text-anchor="middle" x="127" y="-136" font-family="Helvetica,sans-Serif" font-size="10.00" fill="#000000">ViennaRNA/params/basic.h</text>
</a>
</g>
</g>
<!-- Node0&#45;&gt;Node6 -->
<g id="edge37" class="edge">
<title>Node0&#45;&gt;Node6</title>
<path fill="none" stroke="#191970" d="M384.5597,-313.2727C332.055,-277.6445 201.6976,-189.1877 149.316,-153.643"/>
<polygon fill="#191970" stroke="#191970" points="151.2781,-150.7447 141.0381,-148.0258 147.3476,-156.5371 151.2781,-150.7447"/>
</g>
<!-- Node2 -->
<g id="node3" class="node">
<title>Node2</title>
<g id="a_node3"><a xlink:href="constants_8h.html" target="_top" xlink:title="Energy parameter constants. ">
<polygon fill="none" stroke="#000000" points="0,-62 0,-81 158,-81 158,-62 0,-62"/>
<text text-anchor="middle" x="79" y="-69" font-family="Helvetica,sans-Serif" font-size="10.00" fill="#000000">ViennaRNA/params/constants.h</text>
</a>
</g>
</g>
<!-- Node1&#45;&gt;Node2 -->
<g id="edge2" class="edge">
<title>Node1&#45;&gt;Node2</title>
<path fill="none" stroke="#191970" d="M755.9438,-257.3286C576.0795,-245.4406 93.5042,-208.6818 49,-154 33.4572,-134.9027 49.4813,-107.0511 63.419,-89.1012"/>
<polygon fill="#191970" stroke="#191970" points="66.2962,-91.1129 69.9461,-81.1666 60.8902,-86.6659 66.2962,-91.1129"/>
</g>
<!-- Node4 -->
<g id="node5" class="node">
<title>Node4</title>
<g id="a_node5"><a xlink:href="fold__compound_8h.html" target="_top" xlink:title="The Basic Fold Compound API. ">
<polygon fill="none" stroke="#000000" points="527,-190.5 527,-209.5 673,-209.5 673,-190.5 527,-190.5"/>
<text text-anchor="middle" x="600" y="-197.5" font-family="Helvetica,sans-Serif" font-size="10.00" fill="#000000">ViennaRNA/fold_compound.h</text>
</a>
</g>
</g>
<!-- Node1&#45;&gt;Node4 -->
<g id="edge4" class="edge">
<title>Node1&#45;&gt;Node4</title>
<path fill="none" stroke="#191970" d="M768.4481,-246.4554C730.2608,-235.9239 679.8912,-222.0328 644.2094,-212.1923"/>
<polygon fill="#191970" stroke="#191970" points="645.1277,-208.8149 634.5571,-209.5303 643.2667,-215.563 645.1277,-208.8149"/>
</g>
<!-- Node5 -->
<g id="node6" class="node">
<title>Node5</title>
<g id="a_node6"><a xlink:href="model_8h.html" target="_top" xlink:title="The model details data structure and its corresponding modifiers. ">
<polygon fill="none" stroke="#000000" points="458,-62 458,-81 564,-81 564,-62 458,-62"/>
<text text-anchor="middle" x="511" y="-69" font-family="Helvetica,sans-Serif" font-size="10.00" fill="#000000">ViennaRNA/model.h</text>
</a>
</g>
</g>
<!-- Node1&#45;&gt;Node5 -->
<g id="edge28" class="edge">
<title>Node1&#45;&gt;Node5</title>
<path fill="none" stroke="#191970" d="M826.0921,-246.1528C830.8496,-217.6888 836.3243,-156.5651 804,-123 773.0988,-90.9127 650.8004,-78.6846 574.3117,-74.1215"/>
<polygon fill="#191970" stroke="#191970" points="574.4812,-70.6256 564.2986,-73.5522 574.0837,-77.6143 574.4812,-70.6256"/>
</g>
<!-- Node1&#45;&gt;Node6 -->
<g id="edge29" class="edge">
<title>Node1&#45;&gt;Node6</title>
<path fill="none" stroke="#191970" d="M755.9559,-254.8049C654.2424,-243.9422 466.1077,-222.4423 400,-210 314.1453,-193.841 215.5703,-166.8771 163.4342,-151.086"/>
<polygon fill="#191970" stroke="#191970" points="164.2305,-147.6694 153.6437,-148.0833 162.1779,-154.3617 164.2305,-147.6694"/>
</g>
<!-- Node8 -->
<g id="node9" class="node">
<title>Node8</title>
<g id="a_node9"><a xlink:href="dp__matrices_8h.html" target="_top" xlink:title="Functions to deal with standard dynamic programming (DP) matrices. ">
<polygon fill="none" stroke="#000000" points="214.5,-129 214.5,-148 347.5,-148 347.5,-129 214.5,-129"/>
<text text-anchor="middle" x="281" y="-136" font-family="Helvetica,sans-Serif" font-size="10.00" fill="#000000">ViennaRNA/dp_matrices.h</text>
</a>
</g>
</g>
<!-- Node1&#45;&gt;Node8 -->
<g id="edge30" class="edge">
<title>Node1&#45;&gt;Node8</title>
<path fill="none" stroke="#191970" d="M755.9886,-256.037C684.4159,-248.967 568.3633,-234.5482 471,-210 410.805,-194.823 343.3043,-168.4988 307.0083,-152.3762"/>
<polygon fill="#191970" stroke="#191970" points="308.1828,-149.0656 297.6305,-148.1171 305.2881,-155.4391 308.1828,-149.0656"/>
</g>
<!-- Node9 -->
<g id="node10" class="node">
<title>Node9</title>
<g id="a_node10"><a xlink:href="hard_8h.html" target="_top" xlink:title="Functions and data structures for handling of secondary structure hard constraints. ">
<polygon fill="none" stroke="#000000" points="851.5,-123.5 851.5,-153.5 970.5,-153.5 970.5,-123.5 851.5,-123.5"/>
<text text-anchor="start" x="859.5" y="-141.5" font-family="Helvetica,sans-Serif" font-size="10.00" fill="#000000">ViennaRNA/constraints</text>
<text text-anchor="middle" x="911" y="-130.5" font-family="Helvetica,sans-Serif" font-size="10.00" fill="#000000">/hard.h</text>
</a>
</g>
</g>
<!-- Node1&#45;&gt;Node9 -->
<g id="edge31" class="edge">
<title>Node1&#45;&gt;Node9</title>
<path fill="none" stroke="#191970" d="M829.1763,-246.4178C841.7965,-225.2084 869.3058,-186.3897 889.1056,-161.5485"/>
<polygon fill="#191970" stroke="#191970" points="891.8918,-163.6699 895.4921,-153.7056 886.4638,-159.2499 891.8918,-163.6699"/>
</g>
<!-- Node11 -->
<g id="node12" class="node">
<title>Node11</title>
<g id="a_node12"><a xlink:href="soft_8h.html" target="_top" xlink:title="Functions and data structures for secondary structure soft constraints. ">
<polygon fill="none" stroke="#000000" points="988.5,-123.5 988.5,-153.5 1107.5,-153.5 1107.5,-123.5 988.5,-123.5"/>
<text text-anchor="start" x="996.5" y="-141.5" font-family="Helvetica,sans-Serif" font-size="10.00" fill="#000000">ViennaRNA/constraints</text>
<text text-anchor="middle" x="1048" y="-130.5" font-family="Helvetica,sans-Serif" font-size="10.00" fill="#000000">/soft.h</text>
</a>
</g>
</g>
<!-- Node1&#45;&gt;Node11 -->
<g id="edge32" class="edge">
<title>Node1&#45;&gt;Node11</title>
<path fill="none" stroke="#191970" d="M845.9752,-246.4178C883.8975,-224.2261 959.5922,-182.7563 1006.8735,-158.1901"/>
<polygon fill="#191970" stroke="#191970" points="1008.6518,-161.211 1015.9313,-153.513 1005.4401,-154.9913 1008.6518,-161.211"/>
</g>
<!-- Node12 -->
<g id="node13" class="node">
<title>Node12</title>
<g id="a_node13"><a xlink:href="grammar_8h.html" target="_top" xlink:title="Implementations for the RNA folding grammar. ">
<polygon fill="none" stroke="#000000" points="365.5,-129 365.5,-148 482.5,-148 482.5,-129 365.5,-129"/>
<text text-anchor="middle" x="424" y="-136" font-family="Helvetica,sans-Serif" font-size="10.00" fill="#000000">ViennaRNA/grammar.h</text>
</a>
</g>
</g>
<!-- Node1&#45;&gt;Node12 -->
<g id="edge33" class="edge">
<title>Node1&#45;&gt;Node12</title>
<path fill="none" stroke="#191970" d="M755.6926,-253.9484C679.2221,-244.7034 559.6386,-228.0368 518,-210 487.6527,-196.8543 458.2306,-171.8896 440.6152,-155.2181"/>
<polygon fill="#191970" stroke="#191970" points="443.0073,-152.6623 433.3915,-148.214 438.1345,-157.6879 443.0073,-152.6623"/>
</g>
<!-- Node13 -->
<g id="node14" class="node">
<title>Node13</title>
<g id="a_node14"><a xlink:href="structured__domains_8h.html" target="_top" xlink:title="This module provides interfaces that deal with additional structured domains in the folding grammar...">
<polygon fill="none" stroke="#000000" points="679.5,-123.5 679.5,-153.5 794.5,-153.5 794.5,-123.5 679.5,-123.5"/>
<text text-anchor="start" x="687.5" y="-141.5" font-family="Helvetica,sans-Serif" font-size="10.00" fill="#000000">ViennaRNA/structured</text>
<text text-anchor="middle" x="737" y="-130.5" font-family="Helvetica,sans-Serif" font-size="10.00" fill="#000000">_domains.h</text>
</a>
</g>
</g>
<!-- Node1&#45;&gt;Node13 -->
<g id="edge34" class="edge">
<title>Node1&#45;&gt;Node13</title>
<path fill="none" stroke="#191970" d="M812.4547,-246.4178C797.7543,-225.3928 770.955,-187.0635 753.5705,-162.1997"/>
<polygon fill="#191970" stroke="#191970" points="756.2301,-159.8955 747.6315,-153.7056 750.4933,-163.9066 756.2301,-159.8955"/>
</g>
<!-- Node14 -->
<g id="node15" class="node">
<title>Node14</title>
<g id="a_node15"><a xlink:href="unstructured__domains_8h.html" target="_top" xlink:title="Functions to modify unstructured domains, e.g. to incorporate ligands binding to unpaired stretches...">
<polygon fill="none" stroke="#000000" points="1164.5,-123.5 1164.5,-153.5 1289.5,-153.5 1289.5,-123.5 1164.5,-123.5"/>
<text text-anchor="start" x="1172.5" y="-141.5" font-family="Helvetica,sans-Serif" font-size="10.00" fill="#000000">ViennaRNA/unstructured</text>
<text text-anchor="middle" x="1227" y="-130.5" font-family="Helvetica,sans-Serif" font-size="10.00" fill="#000000">_domains.h</text>
</a>
</g>
</g>
<!-- Node1&#45;&gt;Node14 -->
<g id="edge35" class="edge">
<title>Node1&#45;&gt;Node14</title>
<path fill="none" stroke="#191970" d="M890.1494,-254.943C969.9419,-246.7303 1097.5143,-231.1291 1141,-210 1164.5484,-198.5581 1185.8936,-177.474 1201.6908,-161.1546"/>
<polygon fill="#191970" stroke="#191970" points="1204.5639,-163.2172 1208.9854,-153.5891 1199.5248,-158.3585 1204.5639,-163.2172"/>
</g>
<!-- Node15 -->
<g id="node16" class="node">
<title>Node15</title>
<g id="a_node16"><a xlink:href="utils_2structures_8h.html" target="_top" xlink:title="Various utility&#45; and helper&#45;functions for secondary structure parsing, converting, etc. ">
<polygon fill="none" stroke="#000000" points="1255,-62 1255,-81 1399,-81 1399,-62 1255,-62"/>
<text text-anchor="middle" x="1327" y="-69" font-family="Helvetica,sans-Serif" font-size="10.00" fill="#000000">ViennaRNA/utils/structures.h</text>
</a>
</g>
</g>
<!-- Node1&#45;&gt;Node15 -->
<g id="edge36" class="edge">
<title>Node1&#45;&gt;Node15</title>
<path fill="none" stroke="#191970" d="M890.239,-258.0228C962.6923,-252.9042 1080.5064,-240.3827 1178,-210 1231.1329,-193.4418 1253.4216,-195.944 1290,-154 1305.633,-136.0739 1312.6254,-109.041 1317.7798,-90.8535"/>
<polygon fill="#191970" stroke="#191970" points="1321.1946,-91.6525 1320.7328,-81.0677 1314.493,-89.6302 1321.1946,-91.6525"/>
</g>
<!-- Node3 -->
<g id="node4" class="node">
<title>Node3</title>
<polygon fill="none" stroke="#bfbfbf" points="55,-.5 55,-19.5 103,-19.5 103,-.5 55,-.5"/>
<text text-anchor="middle" x="79" y="-7.5" font-family="Helvetica,sans-Serif" font-size="10.00" fill="#000000">limits.h</text>
</g>
<!-- Node2&#45;&gt;Node3 -->
<g id="edge3" class="edge">
<title>Node2&#45;&gt;Node3</title>
<path fill="none" stroke="#191970" d="M79,-61.8906C79,-53.3657 79,-40.6392 79,-29.9235"/>
<polygon fill="#191970" stroke="#191970" points="82.5001,-29.7448 79,-19.7449 75.5001,-29.7449 82.5001,-29.7448"/>
</g>
<!-- Node4&#45;&gt;Node5 -->
<g id="edge5" class="edge">
<title>Node4&#45;&gt;Node5</title>
<path fill="none" stroke="#191970" d="M576.7348,-190.3548C561.1894,-182.7278 541.5445,-170.5922 530,-154 516.9926,-135.3052 512.7705,-109.0162 511.4641,-91.1755"/>
<polygon fill="#191970" stroke="#191970" points="514.9542,-90.8861 510.9691,-81.0693 507.9626,-91.2286 514.9542,-90.8861"/>
</g>
<!-- Node4&#45;&gt;Node6 -->
<g id="edge6" class="edge">
<title>Node4&#45;&gt;Node6</title>
<path fill="none" stroke="#191970" d="M526.7904,-193.1665C447.505,-185.3666 317.4187,-171.4076 206,-154 198.3294,-152.8016 190.2682,-151.3935 182.347,-149.9231"/>
<polygon fill="#191970" stroke="#191970" points="182.9059,-146.4668 172.4283,-148.0384 181.5992,-153.3437 182.9059,-146.4668"/>
</g>
<!-- Node7 -->
<g id="node8" class="node">
<title>Node7</title>
<g id="a_node8"><a xlink:href="sequence_8h.html" target="_top" xlink:title="Functions and data structures related to sequence representations ,. ">
<polygon fill="none" stroke="#000000" points="539,-129 539,-148 661,-148 661,-129 539,-129"/>
<text text-anchor="middle" x="600" y="-136" font-family="Helvetica,sans-Serif" font-size="10.00" fill="#000000">ViennaRNA/sequence.h</text>
</a>
</g>
</g>
<!-- Node4&#45;&gt;Node7 -->
<g id="edge10" class="edge">
<title>Node4&#45;&gt;Node7</title>
<path fill="none" stroke="#191970" d="M600,-190.3906C600,-181.8657 600,-169.1392 600,-158.4235"/>
<polygon fill="#191970" stroke="#191970" points="603.5001,-158.2448 600,-148.2449 596.5001,-158.2449 603.5001,-158.2448"/>
</g>
<!-- Node4&#45;&gt;Node8 -->
<g id="edge11" class="edge">
<title>Node4&#45;&gt;Node8</title>
<path fill="none" stroke="#191970" d="M548.2895,-190.4297C499.0676,-181.2683 422.9337,-166.9635 357,-154 350.6701,-152.7555 344.0478,-151.4339 337.4643,-150.1078"/>
<polygon fill="#191970" stroke="#191970" points="337.6937,-146.5833 327.1982,-148.0304 336.3053,-153.4443 337.6937,-146.5833"/>
</g>
<!-- Node4&#45;&gt;Node9 -->
<g id="edge13" class="edge">
<title>Node4&#45;&gt;Node9</title>
<path fill="none" stroke="#191970" d="M648.2525,-190.4581C700.0244,-180.2203 782.7204,-163.8672 841.5,-152.2436"/>
<polygon fill="#191970" stroke="#191970" points="842.3197,-155.6493 851.4507,-150.2758 840.9617,-148.7823 842.3197,-155.6493"/>
</g>
<!-- Node4&#45;&gt;Node11 -->
<g id="edge17" class="edge">
<title>Node4&#45;&gt;Node11</title>
<path fill="none" stroke="#191970" d="M673.1776,-193.4137C747.6907,-186.1925 866.7136,-173.2431 978.2862,-154.2014"/>
<polygon fill="#191970" stroke="#191970" points="979.108,-157.6113 988.3665,-152.4606 977.9168,-150.7134 979.108,-157.6113"/>
</g>
<!-- Node4&#45;&gt;Node12 -->
<g id="edge20" class="edge">
<title>Node4&#45;&gt;Node12</title>
<path fill="none" stroke="#191970" d="M567.4375,-190.3906C535.5678,-179.9652 487.5542,-163.2559 455.9139,-151.6252"/>
<polygon fill="#191970" stroke="#191970" points="456.8506,-148.2397 446.2576,-148.0419 454.4152,-154.8024 456.8506,-148.2397"/>
</g>
<!-- Node4&#45;&gt;Node13 -->
<g id="edge22" class="edge">
<title>Node4&#45;&gt;Node13</title>
<path fill="none" stroke="#191970" d="M621.4063,-190.3906C640.8059,-181.682 669.9729,-168.5888 694.1543,-157.7336"/>
<polygon fill="#191970" stroke="#191970" points="695.7965,-160.833 703.486,-153.5446 692.9297,-154.447 695.7965,-160.833"/>
</g>
<!-- Node4&#45;&gt;Node14 -->
<g id="edge23" class="edge">
<title>Node4&#45;&gt;Node14</title>
<path fill="none" stroke="#191970" d="M673.3221,-194.6655C773.6351,-187.0961 959.2159,-172.124 1117,-154 1128.9749,-152.6245 1141.6592,-150.9967 1153.9928,-149.3219"/>
<polygon fill="#191970" stroke="#191970" points="1154.8188,-152.7412 1164.2472,-147.9085 1153.8629,-145.8068 1154.8188,-152.7412"/>
</g>
<!-- Node6&#45;&gt;Node1 -->
<g id="edge8" class="edge">
<title>Node6&#45;&gt;Node1</title>
<path fill="none" stroke="#191970" d="M164.9055,-148.0833C220.3704,-163.2339 326.4216,-192.7637 418,-210 479.5042,-221.5759 646.6319,-240.9917 745.9827,-252.3875"/>
<polygon fill="#191970" stroke="#191970" points="745.6385,-255.8709 755.972,-253.5326 746.4357,-248.9164 745.6385,-255.8709"/>
</g>
<!-- Node6&#45;&gt;Node2 -->
<g id="edge7" class="edge">
<title>Node6&#45;&gt;Node2</title>
<path fill="none" stroke="#191970" d="M120.1228,-128.9005C112.7802,-118.6515 100.9759,-102.1747 91.8938,-89.4976"/>
<polygon fill="#191970" stroke="#191970" points="94.5336,-87.1724 85.8645,-81.0817 88.8432,-91.2492 94.5336,-87.1724"/>
</g>
<!-- Node6&#45;&gt;Node5 -->
<g id="edge9" class="edge">
<title>Node6&#45;&gt;Node5</title>
<path fill="none" stroke="#191970" d="M174.5852,-128.9522C184.9317,-126.9353 195.8252,-124.8568 206,-123 289.446,-107.7716 386.0335,-91.729 447.7766,-81.6745"/>
<polygon fill="#191970" stroke="#191970" points="448.4473,-85.1115 457.7561,-80.0522 447.324,-78.2022 448.4473,-85.1115"/>
</g>
<!-- Node8&#45;&gt;Node1 -->
<g id="edge12" class="edge">
<title>Node8&#45;&gt;Node1</title>
<path fill="none" stroke="#191970" d="M308.8374,-148.1171C348.5472,-163.4504 423.1457,-193.3961 489,-210 575.7778,-231.8793 677.4019,-245.712 745.6259,-253.4669"/>
<polygon fill="#191970" stroke="#191970" points="745.5346,-256.9784 755.862,-254.6134 746.3138,-250.0219 745.5346,-256.9784"/>
</g>
<!-- Node9&#45;&gt;Node1 -->
<g id="edge14" class="edge">
<title>Node9&#45;&gt;Node1</title>
<path fill="none" stroke="#191970" d="M904.7503,-153.7056C892.0725,-174.9831 864.5494,-213.8086 844.7795,-238.5956"/>
<polygon fill="#191970" stroke="#191970" points="842.009,-236.4548 838.4048,-246.4178 847.4353,-240.877 842.009,-236.4548"/>
</g>
<!-- Node10 -->
<g id="node11" class="node">
<title>Node10</title>
<g id="a_node11"><a xlink:href="constraints_2basic_8h.html" target="_top" xlink:title="Functions and data structures for constraining secondary structure predictions and evaluation...">
<polygon fill="none" stroke="#000000" points="988.5,-56.5 988.5,-86.5 1107.5,-86.5 1107.5,-56.5 988.5,-56.5"/>
<text text-anchor="start" x="996.5" y="-74.5" font-family="Helvetica,sans-Serif" font-size="10.00" fill="#000000">ViennaRNA/constraints</text>
<text text-anchor="middle" x="1048" y="-63.5" font-family="Helvetica,sans-Serif" font-size="10.00" fill="#000000">/basic.h</text>
</a>
</g>
</g>
<!-- Node9&#45;&gt;Node10 -->
<g id="edge15" class="edge">
<title>Node9&#45;&gt;Node10</title>
<path fill="none" stroke="#191970" d="M941.7455,-123.4639C961.2624,-113.9191 986.7257,-101.4663 1007.8325,-91.144"/>
<polygon fill="#191970" stroke="#191970" points="1009.4375,-94.2552 1016.8831,-86.7177 1006.3622,-87.9669 1009.4375,-94.2552"/>
</g>
<!-- Node10&#45;&gt;Node1 -->
<g id="edge16" class="edge">
<title>Node10&#45;&gt;Node1</title>
<path fill="none" stroke="#191970" d="M1079.6421,-86.5161C1093.8158,-95.0591 1109.0935,-107.2327 1117,-123 1123.1759,-135.3161 1124.8943,-142.7081 1117,-154 1091.4308,-190.5742 977.6767,-224.4629 899.4029,-244.0601"/>
<polygon fill="#191970" stroke="#191970" points="898.4302,-240.6952 889.564,-246.4953 900.112,-247.4901 898.4302,-240.6952"/>
</g>
<!-- Node11&#45;&gt;Node1 -->
<g id="edge18" class="edge">
<title>Node11&#45;&gt;Node1</title>
<path fill="none" stroke="#191970" d="M1025.1431,-153.513C987.2995,-175.6646 911.6145,-217.1318 864.2742,-241.7331"/>
<polygon fill="#191970" stroke="#191970" points="862.4825,-238.7192 855.2037,-246.4178 865.6948,-244.9386 862.4825,-238.7192"/>
</g>
<!-- Node11&#45;&gt;Node10 -->
<g id="edge19" class="edge">
<title>Node11&#45;&gt;Node10</title>
<path fill="none" stroke="#191970" d="M1048,-123.2967C1048,-115.5013 1048,-105.7991 1048,-96.9064"/>
<polygon fill="#191970" stroke="#191970" points="1051.5001,-96.6431 1048,-86.6432 1044.5001,-96.6432 1051.5001,-96.6431"/>
</g>
<!-- Node12&#45;&gt;Node4 -->
<g id="edge21" class="edge">
<title>Node12&#45;&gt;Node4</title>
<path fill="none" stroke="#191970" d="M456.3562,-148.0419C488.156,-158.4402 536.1699,-175.1468 567.8808,-186.7993"/>
<polygon fill="#191970" stroke="#191970" points="566.9695,-190.1943 577.5625,-190.3906 569.404,-183.6312 566.9695,-190.1943"/>
</g>
<!-- Node14&#45;&gt;Node1 -->
<g id="edge24" class="edge">
<title>Node14&#45;&gt;Node1</title>
<path fill="none" stroke="#191970" d="M1221.9885,-153.5891C1210.8203,-170.3155 1186.4018,-196.6858 1159,-210 1115.0398,-231.3597 985.1478,-247.0701 900.2754,-255.2093"/>
<polygon fill="#191970" stroke="#191970" points="899.784,-251.74 890.1571,-256.1642 900.4418,-258.709 899.784,-251.74"/>
</g>
<!-- Node14&#45;&gt;Node15 -->
<g id="edge25" class="edge">
<title>Node14&#45;&gt;Node15</title>
<path fill="none" stroke="#191970" d="M1249.6915,-123.2967C1266.0283,-112.351 1287.9759,-97.6462 1304.3119,-86.701"/>
<polygon fill="#191970" stroke="#191970" points="1306.3793,-89.5289 1312.7388,-81.055 1302.483,-83.7135 1306.3793,-89.5289"/>
</g>
<!-- Node15&#45;&gt;Node1 -->
<g id="edge27" class="edge">
<title>Node15&#45;&gt;Node1</title>
<path fill="none" stroke="#191970" d="M1331.4895,-81.0677C1333.0965,-97.7551 1326.7889,-132.455 1308,-154 1271.4216,-195.944 1249.1329,-193.4418 1196,-210 1097.0099,-240.8491 977.0706,-253.2844 900.3348,-258.2533"/>
<polygon fill="#191970" stroke="#191970" points="900.0299,-254.7654 890.266,-258.8784 900.4637,-261.7519 900.0299,-254.7654"/>
</g>
<!-- Node16 -->
<g id="node17" class="node">
<title>Node16</title>
<polygon fill="none" stroke="#bfbfbf" points="1304,-.5 1304,-19.5 1350,-19.5 1350,-.5 1304,-.5"/>
<text text-anchor="middle" x="1327" y="-7.5" font-family="Helvetica,sans-Serif" font-size="10.00" fill="#000000">stdio.h</text>
</g>
<!-- Node15&#45;&gt;Node16 -->
<g id="edge26" class="edge">
<title>Node15&#45;&gt;Node16</title>
<path fill="none" stroke="#191970" d="M1327,-61.8906C1327,-53.3657 1327,-40.6392 1327,-29.9235"/>
<polygon fill="#191970" stroke="#191970" points="1330.5001,-29.7448 1327,-19.7449 1323.5001,-29.7449 1330.5001,-29.7448"/>
</g>
</g>
</svg>
