<?xml version="1.0" encoding="UTF-8" standalone="no"?>
<!DOCTYPE svg PUBLIC "-//W3C//DTD SVG 1.1//EN"
 "http://www.w3.org/Graphics/SVG/1.1/DTD/svg11.dtd">
<!-- Generated by graphviz version 2.40.1 (20161225.0304)
 -->
<!-- Title: ViennaRNA/part_func_co.h Pages: 1 -->
<!--zoomable 464 -->
<svg id="main" version="1.1" xmlns="http://www.w3.org/2000/svg" xmlns:xlink="http://www.w3.org/1999/xlink" xml:space="preserve" onload="init(evt)">
<style type="text/css"><![CDATA[
.edge:hover path { stroke: red; }
.edge:hover polygon { stroke: red; fill: red; }
]]></style>
<script type="text/javascript"><![CDATA[
var edges = document.getElementsByTagName('g');
if (edges && edges.length) {
  for (var i=0;i<edges.length;i++) {
    if (edges[i].id.substr(0,4)=='edge') {
      edges[i].setAttribute('class','edge');
    }
  }
}
]]></script>
        <defs>
                <circle id="rim" cx="0" cy="0" r="7"/>
                <circle id="rim2" cx="0" cy="0" r="3.5"/>
                <g id="zoomPlus">
                        <use xlink:href="#rim" fill="#404040">
                                <set attributeName="fill" to="#808080" begin="zoomplus.mouseover" end="zoomplus.mouseout"/>
                        </use>
                        <path d="M-4,0h8M0,-4v8" fill="none" stroke="white" stroke-width="1.5" pointer-events="none"/>
                </g>
                <g id="zoomMin">
                        <use xlink:href="#rim" fill="#404040">
                                <set attributeName="fill" to="#808080" begin="zoomminus.mouseover" end="zoomminus.mouseout"/>
                        </use>
                        <path d="M-4,0h8" fill="none" stroke="white" stroke-width="1.5" pointer-events="none"/>
                </g>
                <g id="dirArrow">
                        <path fill="none" stroke="white" stroke-width="1.5" d="M0,-3.0v7 M-2.5,-0.5L0,-3.0L2.5,-0.5"/>
                </g>
               <g id="resetDef">
                       <use xlink:href="#rim2" fill="#404040">
                               <set attributeName="fill" to="#808080" begin="reset.mouseover" end="reset.mouseout"/>
                       </use>
               </g>
        </defs>

<script type="text/javascript">
var viewWidth = 1408;
var viewHeight = 464;
var sectionId = 'dynsection-0';
</script>
<script xlink:href="svgpan.js"/>
<svg id="graph" class="graph">
<g id="viewport">
<title>ViennaRNA/part_func_co.h</title>
<!-- Node0 -->
<g id="node1" class="node">
<title>Node0</title>
<polygon fill="#bfbfbf" stroke="#000000" points="1139,-436.5 1139,-455.5 1275,-455.5 1275,-436.5 1139,-436.5"/>
<text text-anchor="middle" x="1207" y="-443.5" font-family="Helvetica,sans-Serif" font-size="10.00" fill="#000000">ViennaRNA/part_func_co.h</text>
</g>
<!-- Node1 -->
<g id="node2" class="node">
<title>Node1</title>
<g id="a_node2"><a xlink:href="datastructures_2basic_8h.html" target="_top" xlink:title="Various data structures and pre&#45;processor macros. ">
<polygon fill="none" stroke="#000000" points="705,-246.5 705,-276.5 839,-276.5 839,-246.5 705,-246.5"/>
<text text-anchor="start" x="713" y="-264.5" font-family="Helvetica,sans-Serif" font-size="10.00" fill="#000000">ViennaRNA/datastructures</text>
<text text-anchor="middle" x="772" y="-253.5" font-family="Helvetica,sans-Serif" font-size="10.00" fill="#000000">/basic.h</text>
</a>
</g>
</g>
<!-- Node0&#45;&gt;Node1 -->
<g id="edge1" class="edge">
<title>Node0&#45;&gt;Node1</title>
<path fill="none" stroke="#191970" d="M1148.7069,-436.4265C1107.5901,-428.7999 1051.5866,-416.6352 1004,-400 949.9581,-381.1081 937.279,-373.1378 888,-344 856.3108,-325.2628 822.2223,-300.3963 799.2575,-282.8786"/>
<polygon fill="#191970" stroke="#191970" points="801.09,-279.8727 791.0288,-276.5527 796.8237,-285.4223 801.09,-279.8727"/>
</g>
<!-- Node6 -->
<g id="node7" class="node">
<title>Node6</title>
<g id="a_node7"><a xlink:href="params_2basic_8h.html" target="_top" xlink:title="Functions to deal with sets of energy parameters. ">
<polygon fill="none" stroke="#000000" points="1240,-129 1240,-148 1378,-148 1378,-129 1240,-129"/>
<text text-anchor="middle" x="1309" y="-136" font-family="Helvetica,sans-Serif" font-size="10.00" fill="#000000">ViennaRNA/params/basic.h</text>
</a>
</g>
</g>
<!-- Node0&#45;&gt;Node6 -->
<g id="edge37" class="edge">
<title>Node0&#45;&gt;Node6</title>
<path fill="none" stroke="#191970" d="M1263.0828,-436.49C1320.0666,-423.2371 1400,-393.1284 1400,-328.5 1400,-328.5 1400,-328.5 1400,-261.5 1400,-215.4795 1358.3219,-175.4143 1331.3777,-154.3213"/>
<polygon fill="#191970" stroke="#191970" points="1333.3072,-151.3925 1323.2188,-148.156 1329.087,-156.9773 1333.3072,-151.3925"/>
</g>
<!-- Node17 -->
<g id="node18" class="node">
<title>Node17</title>
<g id="a_node18"><a xlink:href="part__func_8h.html" target="_top" xlink:title="Partition function implementations. ">
<polygon fill="none" stroke="#000000" points="1013,-380.5 1013,-399.5 1133,-399.5 1133,-380.5 1013,-380.5"/>
<text text-anchor="middle" x="1073" y="-387.5" font-family="Helvetica,sans-Serif" font-size="10.00" fill="#000000">ViennaRNA/part_func.h</text>
</a>
</g>
</g>
<!-- Node0&#45;&gt;Node17 -->
<g id="edge38" class="edge">
<title>Node0&#45;&gt;Node17</title>
<path fill="none" stroke="#191970" d="M1183.9646,-436.3733C1162.2612,-427.3032 1129.5382,-413.6279 1105.245,-403.4755"/>
<polygon fill="#191970" stroke="#191970" points="1106.3111,-400.1278 1095.7348,-399.5011 1103.6119,-406.5865 1106.3111,-400.1278"/>
</g>
<!-- Node19 -->
<g id="node20" class="node">
<title>Node19</title>
<g id="a_node20"><a xlink:href="equilibrium__probs_8h.html" target="_top" xlink:title="Equilibrium Probability implementations. ">
<polygon fill="none" stroke="#000000" points="1148,-313.5 1148,-343.5 1266,-343.5 1266,-313.5 1148,-313.5"/>
<text text-anchor="start" x="1156" y="-331.5" font-family="Helvetica,sans-Serif" font-size="10.00" fill="#000000">ViennaRNA/equilibrium</text>
<text text-anchor="middle" x="1207" y="-320.5" font-family="Helvetica,sans-Serif" font-size="10.00" fill="#000000">_probs.h</text>
</a>
</g>
</g>
<!-- Node0&#45;&gt;Node19 -->
<g id="edge49" class="edge">
<title>Node0&#45;&gt;Node19</title>
<path fill="none" stroke="#191970" d="M1207,-436.3845C1207,-418.544 1207,-379.7839 1207,-353.9138"/>
<polygon fill="#191970" stroke="#191970" points="1210.5001,-353.7143 1207,-343.7143 1203.5001,-353.7143 1210.5001,-353.7143"/>
</g>
<!-- Node21 -->
<g id="node22" class="node">
<title>Node21</title>
<g id="a_node22"><a xlink:href="concentrations_8h.html" target="_top" xlink:title="Concentration computations for RNA&#45;RNA interactions. ">
<polygon fill="none" stroke="#000000" points="1228.5,-252 1228.5,-271 1371.5,-271 1371.5,-252 1228.5,-252"/>
<text text-anchor="middle" x="1300" y="-259" font-family="Helvetica,sans-Serif" font-size="10.00" fill="#000000">ViennaRNA/concentrations.h</text>
</a>
</g>
</g>
<!-- Node0&#45;&gt;Node21 -->
<g id="edge50" class="edge">
<title>Node0&#45;&gt;Node21</title>
<path fill="none" stroke="#191970" d="M1214.7862,-436.4482C1228.6406,-419.0405 1257.7353,-380.5664 1275,-344 1284.697,-323.4619 1291.6826,-298.2821 1295.7637,-281.1812"/>
<polygon fill="#191970" stroke="#191970" points="1299.2197,-281.7674 1298.0255,-271.2401 1292.3942,-280.2144 1299.2197,-281.7674"/>
</g>
<!-- Node2 -->
<g id="node3" class="node">
<title>Node2</title>
<g id="a_node3"><a xlink:href="constants_8h.html" target="_top" xlink:title="Energy parameter constants. ">
<polygon fill="none" stroke="#000000" points="1181,-62 1181,-81 1339,-81 1339,-62 1181,-62"/>
<text text-anchor="middle" x="1260" y="-69" font-family="Helvetica,sans-Serif" font-size="10.00" fill="#000000">ViennaRNA/params/constants.h</text>
</a>
</g>
</g>
<!-- Node1&#45;&gt;Node2 -->
<g id="edge2" class="edge">
<title>Node1&#45;&gt;Node2</title>
<path fill="none" stroke="#191970" d="M839.1154,-254.4338C895.0662,-247.2179 976.2751,-233.6373 1044,-210 1062.0193,-203.7109 1064.4143,-197.4154 1082,-190 1129.7882,-169.849 1150.2297,-183.3339 1193,-154 1217.6195,-137.1148 1237.8821,-108.6186 1249.4608,-89.933"/>
<polygon fill="#191970" stroke="#191970" points="1252.5729,-91.5482 1254.7012,-81.1693 1246.5651,-87.9557 1252.5729,-91.5482"/>
</g>
<!-- Node4 -->
<g id="node5" class="node">
<title>Node4</title>
<g id="a_node5"><a xlink:href="fold__compound_8h.html" target="_top" xlink:title="The Basic Fold Compound API. ">
<polygon fill="none" stroke="#000000" points="856,-190.5 856,-209.5 1002,-209.5 1002,-190.5 856,-190.5"/>
<text text-anchor="middle" x="929" y="-197.5" font-family="Helvetica,sans-Serif" font-size="10.00" fill="#000000">ViennaRNA/fold_compound.h</text>
</a>
</g>
</g>
<!-- Node1&#45;&gt;Node4 -->
<g id="edge4" class="edge">
<title>Node1&#45;&gt;Node4</title>
<path fill="none" stroke="#191970" d="M810.4065,-246.4554C836.3726,-236.284 870.339,-222.9787 895.263,-213.2155"/>
<polygon fill="#191970" stroke="#191970" points="896.636,-216.4366 904.6706,-209.5303 894.0829,-209.9188 896.636,-216.4366"/>
</g>
<!-- Node5 -->
<g id="node6" class="node">
<title>Node5</title>
<g id="a_node6"><a xlink:href="model_8h.html" target="_top" xlink:title="The model details data structure and its corresponding modifiers. ">
<polygon fill="none" stroke="#000000" points="845,-62 845,-81 951,-81 951,-62 845,-62"/>
<text text-anchor="middle" x="898" y="-69" font-family="Helvetica,sans-Serif" font-size="10.00" fill="#000000">ViennaRNA/model.h</text>
</a>
</g>
</g>
<!-- Node1&#45;&gt;Node5 -->
<g id="edge28" class="edge">
<title>Node1&#45;&gt;Node5</title>
<path fill="none" stroke="#191970" d="M782.0981,-246.2727C805.1394,-211.5278 861.4988,-126.5415 886.1409,-89.3828"/>
<polygon fill="#191970" stroke="#191970" points="889.073,-91.2942 891.6829,-81.0258 883.2392,-87.4254 889.073,-91.2942"/>
</g>
<!-- Node1&#45;&gt;Node6 -->
<g id="edge29" class="edge">
<title>Node1&#45;&gt;Node6</title>
<path fill="none" stroke="#191970" d="M839.0007,-252.1625C900.3515,-243.5012 993.2788,-229.0773 1073,-210 1082.3643,-207.7591 1198.4757,-170.8631 1264.3687,-150.9749"/>
<polygon fill="#191970" stroke="#191970" points="1265.5272,-154.2815 1274.0982,-148.0535 1263.5141,-147.5772 1265.5272,-154.2815"/>
</g>
<!-- Node8 -->
<g id="node9" class="node">
<title>Node8</title>
<g id="a_node9"><a xlink:href="dp__matrices_8h.html" target="_top" xlink:title="Functions to deal with standard dynamic programming (DP) matrices. ">
<polygon fill="none" stroke="#000000" points="424.5,-129 424.5,-148 557.5,-148 557.5,-129 424.5,-129"/>
<text text-anchor="middle" x="491" y="-136" font-family="Helvetica,sans-Serif" font-size="10.00" fill="#000000">ViennaRNA/dp_matrices.h</text>
</a>
</g>
</g>
<!-- Node1&#45;&gt;Node8 -->
<g id="edge30" class="edge">
<title>Node1&#45;&gt;Node8</title>
<path fill="none" stroke="#191970" d="M732.9296,-246.4178C675.0755,-222.3617 568.4156,-175.6524 518.2407,-152.378"/>
<polygon fill="#191970" stroke="#191970" points="519.5309,-149.1176 508.9901,-148.0493 516.5641,-155.4577 519.5309,-149.1176"/>
</g>
<!-- Node9 -->
<g id="node10" class="node">
<title>Node9</title>
<g id="a_node10"><a xlink:href="hard_8h.html" target="_top" xlink:title="Functions and data structures for handling of secondary structure hard constraints. ">
<polygon fill="none" stroke="#000000" points="712.5,-123.5 712.5,-153.5 831.5,-153.5 831.5,-123.5 712.5,-123.5"/>
<text text-anchor="start" x="720.5" y="-141.5" font-family="Helvetica,sans-Serif" font-size="10.00" fill="#000000">ViennaRNA/constraints</text>
<text text-anchor="middle" x="772" y="-130.5" font-family="Helvetica,sans-Serif" font-size="10.00" fill="#000000">/hard.h</text>
</a>
</g>
</g>
<!-- Node1&#45;&gt;Node9 -->
<g id="edge31" class="edge">
<title>Node1&#45;&gt;Node9</title>
<path fill="none" stroke="#191970" d="M767.3857,-246.4178C764.9095,-225.8539 764.5865,-188.7363 766.4169,-163.8546"/>
<polygon fill="#191970" stroke="#191970" points="769.9196,-163.9893 767.3709,-153.7056 762.9503,-163.3341 769.9196,-163.9893"/>
</g>
<!-- Node11 -->
<g id="node12" class="node">
<title>Node11</title>
<g id="a_node12"><a xlink:href="soft_8h.html" target="_top" xlink:title="Functions and data structures for secondary structure soft constraints. ">
<polygon fill="none" stroke="#000000" points="575.5,-123.5 575.5,-153.5 694.5,-153.5 694.5,-123.5 575.5,-123.5"/>
<text text-anchor="start" x="583.5" y="-141.5" font-family="Helvetica,sans-Serif" font-size="10.00" fill="#000000">ViennaRNA/constraints</text>
<text text-anchor="middle" x="635" y="-130.5" font-family="Helvetica,sans-Serif" font-size="10.00" fill="#000000">/soft.h</text>
</a>
</g>
</g>
<!-- Node1&#45;&gt;Node11 -->
<g id="edge32" class="edge">
<title>Node1&#45;&gt;Node11</title>
<path fill="none" stroke="#191970" d="M750.5869,-246.4178C724.1817,-225.0239 680.1511,-185.7133 654.6027,-160.9037"/>
<polygon fill="#191970" stroke="#191970" points="656.8839,-158.2376 647.3072,-153.7056 651.9675,-163.2205 656.8839,-158.2376"/>
</g>
<!-- Node12 -->
<g id="node13" class="node">
<title>Node12</title>
<g id="a_node13"><a xlink:href="grammar_8h.html" target="_top" xlink:title="Implementations for the RNA folding grammar. ">
<polygon fill="none" stroke="#000000" points="1066.5,-129 1066.5,-148 1183.5,-148 1183.5,-129 1066.5,-129"/>
<text text-anchor="middle" x="1125" y="-136" font-family="Helvetica,sans-Serif" font-size="10.00" fill="#000000">ViennaRNA/grammar.h</text>
</a>
</g>
</g>
<!-- Node1&#45;&gt;Node12 -->
<g id="edge33" class="edge">
<title>Node1&#45;&gt;Node12</title>
<path fill="none" stroke="#191970" d="M839.0159,-253.425C887.9759,-246.0184 955.2652,-232.6632 1011,-210 1046.1887,-195.6914 1082.6663,-170.715 1104.6,-154.3943"/>
<polygon fill="#191970" stroke="#191970" points="1106.9342,-157.0172 1112.7963,-148.1918 1102.7101,-151.4352 1106.9342,-157.0172"/>
</g>
<!-- Node13 -->
<g id="node14" class="node">
<title>Node13</title>
<g id="a_node14"><a xlink:href="structured__domains_8h.html" target="_top" xlink:title="This module provides interfaces that deal with additional structured domains in the folding grammar...">
<polygon fill="none" stroke="#000000" points="291.5,-123.5 291.5,-153.5 406.5,-153.5 406.5,-123.5 291.5,-123.5"/>
<text text-anchor="start" x="299.5" y="-141.5" font-family="Helvetica,sans-Serif" font-size="10.00" fill="#000000">ViennaRNA/structured</text>
<text text-anchor="middle" x="349" y="-130.5" font-family="Helvetica,sans-Serif" font-size="10.00" fill="#000000">_domains.h</text>
</a>
</g>
</g>
<!-- Node1&#45;&gt;Node13 -->
<g id="edge34" class="edge">
<title>Node1&#45;&gt;Node13</title>
<path fill="none" stroke="#191970" d="M720.1319,-246.4178C641.8266,-223.6482 493.7257,-180.5833 410.235,-156.3059"/>
<polygon fill="#191970" stroke="#191970" points="411.2096,-152.9444 400.6301,-153.513 409.2551,-159.666 411.2096,-152.9444"/>
</g>
<!-- Node14 -->
<g id="node15" class="node">
<title>Node14</title>
<g id="a_node15"><a xlink:href="unstructured__domains_8h.html" target="_top" xlink:title="Functions to modify unstructured domains, e.g. to incorporate ligands binding to unpaired stretches...">
<polygon fill="none" stroke="#000000" points="109.5,-123.5 109.5,-153.5 234.5,-153.5 234.5,-123.5 109.5,-123.5"/>
<text text-anchor="start" x="117.5" y="-141.5" font-family="Helvetica,sans-Serif" font-size="10.00" fill="#000000">ViennaRNA/unstructured</text>
<text text-anchor="middle" x="172" y="-130.5" font-family="Helvetica,sans-Serif" font-size="10.00" fill="#000000">_domains.h</text>
</a>
</g>
</g>
<!-- Node1&#45;&gt;Node14 -->
<g id="edge35" class="edge">
<title>Node1&#45;&gt;Node14</title>
<path fill="none" stroke="#191970" d="M704.905,-260.3214C580.7678,-257.2385 320.8986,-246.4445 240,-210 216.4231,-199.3787 195.3479,-178.5981 182.7604,-162.1652"/>
<polygon fill="#191970" stroke="#191970" points="185.3136,-159.7143 176.6786,-153.5753 179.6006,-163.7592 185.3136,-159.7143"/>
</g>
<!-- Node15 -->
<g id="node16" class="node">
<title>Node15</title>
<g id="a_node16"><a xlink:href="utils_2structures_8h.html" target="_top" xlink:title="Various utility&#45; and helper&#45;functions for secondary structure parsing, converting, etc. ">
<polygon fill="none" stroke="#000000" points="0,-62 0,-81 144,-81 144,-62 0,-62"/>
<text text-anchor="middle" x="72" y="-69" font-family="Helvetica,sans-Serif" font-size="10.00" fill="#000000">ViennaRNA/utils/structures.h</text>
</a>
</g>
</g>
<!-- Node1&#45;&gt;Node15 -->
<g id="edge36" class="edge">
<title>Node1&#45;&gt;Node15</title>
<path fill="none" stroke="#191970" d="M704.9328,-258.4996C576.1795,-252.0225 299.4105,-235.2462 208,-210 152.431,-194.6527 129.2635,-197.1203 91,-154 75.2872,-136.2928 68.3214,-109.3994 67.3371,-91.1713"/>
<polygon fill="#191970" stroke="#191970" points="70.8376,-91.1473 67.4725,-81.1012 63.8383,-91.0532 70.8376,-91.1473"/>
</g>
<!-- Node3 -->
<g id="node4" class="node">
<title>Node3</title>
<polygon fill="none" stroke="#bfbfbf" points="1236,-.5 1236,-19.5 1284,-19.5 1284,-.5 1236,-.5"/>
<text text-anchor="middle" x="1260" y="-7.5" font-family="Helvetica,sans-Serif" font-size="10.00" fill="#000000">limits.h</text>
</g>
<!-- Node2&#45;&gt;Node3 -->
<g id="edge3" class="edge">
<title>Node2&#45;&gt;Node3</title>
<path fill="none" stroke="#191970" d="M1260,-61.8906C1260,-53.3657 1260,-40.6392 1260,-29.9235"/>
<polygon fill="#191970" stroke="#191970" points="1263.5001,-29.7448 1260,-19.7449 1256.5001,-29.7449 1263.5001,-29.7448"/>
</g>
<!-- Node4&#45;&gt;Node5 -->
<g id="edge5" class="edge">
<title>Node4&#45;&gt;Node5</title>
<path fill="none" stroke="#191970" d="M926.3427,-190.1503C923.8546,-180.8502 920.0701,-166.5039 917,-154 911.7605,-132.6605 906.1608,-108.1093 902.4086,-91.3751"/>
<polygon fill="#191970" stroke="#191970" points="905.7264,-90.1724 900.1331,-81.1743 898.8943,-91.6964 905.7264,-90.1724"/>
</g>
<!-- Node4&#45;&gt;Node6 -->
<g id="edge6" class="edge">
<title>Node4&#45;&gt;Node6</title>
<path fill="none" stroke="#191970" d="M987.9581,-190.4581C1056.1505,-179.4217 1168.2524,-161.2789 1240.3215,-149.6151"/>
<polygon fill="#191970" stroke="#191970" points="1240.9039,-153.0664 1250.2163,-148.0137 1239.7855,-146.1564 1240.9039,-153.0664"/>
</g>
<!-- Node7 -->
<g id="node8" class="node">
<title>Node7</title>
<g id="a_node8"><a xlink:href="sequence_8h.html" target="_top" xlink:title="Functions and data structures related to sequence representations ,. ">
<polygon fill="none" stroke="#000000" points="926,-129 926,-148 1048,-148 1048,-129 926,-129"/>
<text text-anchor="middle" x="987" y="-136" font-family="Helvetica,sans-Serif" font-size="10.00" fill="#000000">ViennaRNA/sequence.h</text>
</a>
</g>
</g>
<!-- Node4&#45;&gt;Node7 -->
<g id="edge10" class="edge">
<title>Node4&#45;&gt;Node7</title>
<path fill="none" stroke="#191970" d="M938.0625,-190.3906C946.7793,-181.1478 960.154,-166.966 970.7196,-155.7628"/>
<polygon fill="#191970" stroke="#191970" points="973.495,-157.9213 977.8097,-148.2449 968.4024,-153.1186 973.495,-157.9213"/>
</g>
<!-- Node4&#45;&gt;Node8 -->
<g id="edge11" class="edge">
<title>Node4&#45;&gt;Node8</title>
<path fill="none" stroke="#191970" d="M855.7521,-192.4099C782.2629,-184.3977 665.9472,-170.6348 566,-154 558.8766,-152.8144 551.3999,-151.4342 544.0406,-149.9954"/>
<polygon fill="#191970" stroke="#191970" points="544.6144,-146.5409 534.1219,-148.0097 543.2403,-153.4047 544.6144,-146.5409"/>
</g>
<!-- Node4&#45;&gt;Node9 -->
<g id="edge13" class="edge">
<title>Node4&#45;&gt;Node9</title>
<path fill="none" stroke="#191970" d="M904.4688,-190.3906C881.9419,-181.5664 847.9227,-168.2404 820,-157.3026"/>
<polygon fill="#191970" stroke="#191970" points="820.9942,-153.9331 810.4065,-153.5446 818.441,-160.4509 820.9942,-153.9331"/>
</g>
<!-- Node4&#45;&gt;Node11 -->
<g id="edge17" class="edge">
<title>Node4&#45;&gt;Node11</title>
<path fill="none" stroke="#191970" d="M880.4373,-190.4557C836.8616,-181.815 770.8911,-168.5456 704.8541,-154.3765"/>
<polygon fill="#191970" stroke="#191970" points="705.1993,-150.8707 694.6866,-152.1878 703.7261,-157.7139 705.1993,-150.8707"/>
</g>
<!-- Node4&#45;&gt;Node12 -->
<g id="edge20" class="edge">
<title>Node4&#45;&gt;Node12</title>
<path fill="none" stroke="#191970" d="M954.5625,-190.3906C986.2943,-179.7846 1040.6555,-162.6753 1079.5202,-151.0257"/>
<polygon fill="#191970" stroke="#191970" points="1080.9555,-154.2502 1089.5408,-148.0419 1078.9578,-147.5413 1080.9555,-154.2502"/>
</g>
<!-- Node4&#45;&gt;Node13 -->
<g id="edge22" class="edge">
<title>Node4&#45;&gt;Node13</title>
<path fill="none" stroke="#191970" d="M855.8189,-196.7116C757.8155,-191.582 578.4383,-179.6541 416.9732,-154.1927"/>
<polygon fill="#191970" stroke="#191970" points="417.2829,-150.6978 406.8558,-152.5756 416.178,-157.6101 417.2829,-150.6978"/>
</g>
<!-- Node4&#45;&gt;Node14 -->
<g id="edge23" class="edge">
<title>Node4&#45;&gt;Node14</title>
<path fill="none" stroke="#191970" d="M855.5977,-196.4345C735.4629,-190.2279 489.4504,-175.9639 282,-154 270.0133,-152.7309 257.323,-151.1576 244.9871,-149.5043"/>
<polygon fill="#191970" stroke="#191970" points="245.1136,-145.9891 234.7315,-148.1016 244.1649,-152.9245 245.1136,-145.9891"/>
</g>
<!-- Node6&#45;&gt;Node1 -->
<g id="edge8" class="edge">
<title>Node6&#45;&gt;Node1</title>
<path fill="none" stroke="#191970" d="M1284.0199,-148.0535C1228.6781,-166.9837 1100.8451,-207.6441 1091,-210 1009.6612,-229.4644 914.5748,-244.0847 849.4402,-252.6827"/>
<polygon fill="#191970" stroke="#191970" points="848.7141,-249.2476 839.2504,-254.0107 849.6189,-256.1889 848.7141,-249.2476"/>
</g>
<!-- Node6&#45;&gt;Node2 -->
<g id="edge7" class="edge">
<title>Node6&#45;&gt;Node2</title>
<path fill="none" stroke="#191970" d="M1301.9795,-128.9005C1294.4839,-118.6515 1282.4337,-102.1747 1273.1624,-89.4976"/>
<polygon fill="#191970" stroke="#191970" points="1275.7358,-87.0873 1267.0075,-81.0817 1270.0856,-91.2195 1275.7358,-87.0873"/>
</g>
<!-- Node6&#45;&gt;Node5 -->
<g id="edge9" class="edge">
<title>Node6&#45;&gt;Node5</title>
<path fill="none" stroke="#191970" d="M1250.5502,-128.9717C1173.9828,-116.4899 1040.2212,-94.6845 961.316,-81.8216"/>
<polygon fill="#191970" stroke="#191970" points="961.4627,-78.2994 951.0298,-80.1448 960.3364,-85.2082 961.4627,-78.2994"/>
</g>
<!-- Node8&#45;&gt;Node1 -->
<g id="edge12" class="edge">
<title>Node8&#45;&gt;Node1</title>
<path fill="none" stroke="#191970" d="M516.6415,-148.0493C566.1063,-168.2019 674.3884,-215.4172 732.8724,-242.1515"/>
<polygon fill="#191970" stroke="#191970" points="731.6101,-245.4232 742.1581,-246.4178 734.5326,-239.0624 731.6101,-245.4232"/>
</g>
<!-- Node9&#45;&gt;Node1 -->
<g id="edge14" class="edge">
<title>Node9&#45;&gt;Node1</title>
<path fill="none" stroke="#191970" d="M776.6291,-153.7056C779.0967,-174.3355 779.4111,-211.4615 777.5721,-236.2943"/>
<polygon fill="#191970" stroke="#191970" points="774.0719,-236.1325 776.6143,-246.4178 781.0408,-236.792 774.0719,-236.1325"/>
</g>
<!-- Node10 -->
<g id="node11" class="node">
<title>Node10</title>
<g id="a_node11"><a xlink:href="constraints_2basic_8h.html" target="_top" xlink:title="Functions and data structures for constraining secondary structure predictions and evaluation...">
<polygon fill="none" stroke="#000000" points="575.5,-56.5 575.5,-86.5 694.5,-86.5 694.5,-56.5 575.5,-56.5"/>
<text text-anchor="start" x="583.5" y="-74.5" font-family="Helvetica,sans-Serif" font-size="10.00" fill="#000000">ViennaRNA/constraints</text>
<text text-anchor="middle" x="635" y="-63.5" font-family="Helvetica,sans-Serif" font-size="10.00" fill="#000000">/basic.h</text>
</a>
</g>
</g>
<!-- Node9&#45;&gt;Node10 -->
<g id="edge15" class="edge">
<title>Node9&#45;&gt;Node10</title>
<path fill="none" stroke="#191970" d="M741.2545,-123.4639C721.7376,-113.9191 696.2743,-101.4663 675.1675,-91.144"/>
<polygon fill="#191970" stroke="#191970" points="676.6378,-87.9669 666.1169,-86.7177 673.5625,-94.2552 676.6378,-87.9669"/>
</g>
<!-- Node10&#45;&gt;Node1 -->
<g id="edge16" class="edge">
<title>Node10&#45;&gt;Node1</title>
<path fill="none" stroke="#191970" d="M575.2506,-75.9965C479.6048,-83.8071 300.8875,-101.157 282,-123 272.9883,-133.4219 273.388,-143.2455 282,-154 332.7659,-217.3955 569.6408,-245.4766 694.5029,-256.0507"/>
<polygon fill="#191970" stroke="#191970" points="694.5062,-259.5629 704.7613,-256.9014 695.0848,-252.5868 694.5062,-259.5629"/>
</g>
<!-- Node11&#45;&gt;Node1 -->
<g id="edge18" class="edge">
<title>Node11&#45;&gt;Node1</title>
<path fill="none" stroke="#191970" d="M656.5654,-153.7056C683.038,-175.1681 727.0668,-214.4851 752.5442,-239.239"/>
<polygon fill="#191970" stroke="#191970" points="750.2402,-241.8827 759.8154,-246.4178 755.1582,-236.9014 750.2402,-241.8827"/>
</g>
<!-- Node11&#45;&gt;Node10 -->
<g id="edge19" class="edge">
<title>Node11&#45;&gt;Node10</title>
<path fill="none" stroke="#191970" d="M635,-123.2967C635,-115.5013 635,-105.7991 635,-96.9064"/>
<polygon fill="#191970" stroke="#191970" points="638.5001,-96.6431 635,-86.6432 631.5001,-96.6432 638.5001,-96.6431"/>
</g>
<!-- Node12&#45;&gt;Node4 -->
<g id="edge21" class="edge">
<title>Node12&#45;&gt;Node4</title>
<path fill="none" stroke="#191970" d="M1099.6393,-148.0419C1068.0038,-158.6202 1013.6579,-175.7273 974.7276,-187.4001"/>
<polygon fill="#191970" stroke="#191970" points="973.2722,-184.1815 964.6875,-190.3906 975.2705,-190.8902 973.2722,-184.1815"/>
</g>
<!-- Node14&#45;&gt;Node1 -->
<g id="edge24" class="edge">
<title>Node14&#45;&gt;Node1</title>
<path fill="none" stroke="#191970" d="M189.5914,-153.5753C205.6281,-170.5531 230.057,-197.4118 258,-210 334.4615,-244.4456 570.7995,-255.9773 694.6406,-259.7415"/>
<polygon fill="#191970" stroke="#191970" points="694.7136,-263.2451 704.8123,-260.0409 694.9196,-256.2481 694.7136,-263.2451"/>
</g>
<!-- Node14&#45;&gt;Node15 -->
<g id="edge25" class="edge">
<title>Node14&#45;&gt;Node15</title>
<path fill="none" stroke="#191970" d="M149.3085,-123.2967C132.9717,-112.351 111.0241,-97.6462 94.6881,-86.701"/>
<polygon fill="#191970" stroke="#191970" points="96.517,-83.7135 86.2612,-81.055 92.6207,-89.5289 96.517,-83.7135"/>
</g>
<!-- Node15&#45;&gt;Node1 -->
<g id="edge27" class="edge">
<title>Node15&#45;&gt;Node1</title>
<path fill="none" stroke="#191970" d="M78.2292,-81.1012C83.8067,-97.8403 90.0261,-132.6177 109,-154 147.2635,-197.1203 170.431,-194.6527 226,-210 312.6163,-233.9222 565.6581,-250.2395 694.6286,-257.3958"/>
<polygon fill="#191970" stroke="#191970" points="694.6507,-260.9022 704.8279,-257.957 695.0354,-253.9128 694.6507,-260.9022"/>
</g>
<!-- Node16 -->
<g id="node17" class="node">
<title>Node16</title>
<polygon fill="none" stroke="#bfbfbf" points="49,-.5 49,-19.5 95,-19.5 95,-.5 49,-.5"/>
<text text-anchor="middle" x="72" y="-7.5" font-family="Helvetica,sans-Serif" font-size="10.00" fill="#000000">stdio.h</text>
</g>
<!-- Node15&#45;&gt;Node16 -->
<g id="edge26" class="edge">
<title>Node15&#45;&gt;Node16</title>
<path fill="none" stroke="#191970" d="M72,-61.8906C72,-53.3657 72,-40.6392 72,-29.9235"/>
<polygon fill="#191970" stroke="#191970" points="75.5001,-29.7448 72,-19.7449 68.5001,-29.7449 75.5001,-29.7448"/>
</g>
<!-- Node17&#45;&gt;Node1 -->
<g id="edge39" class="edge">
<title>Node17&#45;&gt;Node1</title>
<path fill="none" stroke="#191970" d="M1049.1143,-380.4935C1026.1903,-371.3186 990.6287,-356.9518 960,-344 909.913,-322.82 852.7519,-297.5825 814.739,-280.6467"/>
<polygon fill="#191970" stroke="#191970" points="816.0617,-277.4044 805.5032,-276.5274 813.2103,-283.7973 816.0617,-277.4044"/>
</g>
<!-- Node17&#45;&gt;Node6 -->
<g id="edge40" class="edge">
<title>Node17&#45;&gt;Node6</title>
<path fill="none" stroke="#191970" d="M1079.7839,-380.0974C1100.9381,-349.6206 1168.4542,-255.3453 1238,-190 1252.5204,-176.3567 1270.7452,-163.2063 1285.0946,-153.6091"/>
<polygon fill="#191970" stroke="#191970" points="1287.0196,-156.5323 1293.4605,-148.12 1283.1795,-150.6796 1287.0196,-156.5323"/>
</g>
<!-- Node18 -->
<g id="node19" class="node">
<title>Node18</title>
<g id="a_node19"><a xlink:href="centroid_8h.html" target="_top" xlink:title="Centroid structure computation. ">
<polygon fill="none" stroke="#000000" points="715,-319 715,-338 829,-338 829,-319 715,-319"/>
<text text-anchor="middle" x="772" y="-326" font-family="Helvetica,sans-Serif" font-size="10.00" fill="#000000">ViennaRNA/centroid.h</text>
</a>
</g>
</g>
<!-- Node17&#45;&gt;Node18 -->
<g id="edge41" class="edge">
<title>Node17&#45;&gt;Node18</title>
<path fill="none" stroke="#191970" d="M1026.299,-380.4581C973.0241,-369.573 885.9155,-351.7751 828.7666,-340.0985"/>
<polygon fill="#191970" stroke="#191970" points="829.3088,-336.637 818.8106,-338.0643 827.9075,-343.4953 829.3088,-336.637"/>
</g>
<!-- Node17&#45;&gt;Node19 -->
<g id="edge44" class="edge">
<title>Node17&#45;&gt;Node19</title>
<path fill="none" stroke="#191970" d="M1093.9375,-380.3906C1112.9124,-371.682 1141.4407,-358.5888 1165.0926,-347.7336"/>
<polygon fill="#191970" stroke="#191970" points="1166.5913,-350.8968 1174.2199,-343.5446 1163.6715,-344.5349 1166.5913,-350.8968"/>
</g>
<!-- Node20 -->
<g id="node21" class="node">
<title>Node20</title>
<g id="a_node21"><a xlink:href="boltzmann__sampling_8h.html" target="_top" xlink:title="Boltzmann Sampling of secondary structures from the ensemble. ">
<polygon fill="none" stroke="#000000" points="969,-313.5 969,-343.5 1085,-343.5 1085,-313.5 969,-313.5"/>
<text text-anchor="start" x="977" y="-331.5" font-family="Helvetica,sans-Serif" font-size="10.00" fill="#000000">ViennaRNA/boltzmann</text>
<text text-anchor="middle" x="1027" y="-320.5" font-family="Helvetica,sans-Serif" font-size="10.00" fill="#000000">_sampling.h</text>
</a>
</g>
</g>
<!-- Node17&#45;&gt;Node20 -->
<g id="edge47" class="edge">
<title>Node17&#45;&gt;Node20</title>
<path fill="none" stroke="#191970" d="M1065.8125,-380.3906C1060.0481,-372.6839 1051.7154,-361.5434 1044.2473,-351.5589"/>
<polygon fill="#191970" stroke="#191970" points="1047.0452,-349.4561 1038.2529,-343.5446 1041.4397,-353.6488 1047.0452,-349.4561"/>
</g>
<!-- Node18&#45;&gt;Node1 -->
<g id="edge42" class="edge">
<title>Node18&#45;&gt;Node1</title>
<path fill="none" stroke="#191970" d="M772,-318.9005C772,-310.5099 772,-297.9451 772,-286.7085"/>
<polygon fill="#191970" stroke="#191970" points="775.5001,-286.5217 772,-276.5218 768.5001,-286.5218 775.5001,-286.5217"/>
</g>
<!-- Node18&#45;&gt;Node15 -->
<g id="edge43" class="edge">
<title>Node18&#45;&gt;Node15</title>
<path fill="none" stroke="#191970" d="M714.9422,-321.5865C580.0719,-304.633 245.3372,-258.8051 144,-210 109.645,-193.4543 96.3422,-187.9599 79,-154 68.9717,-134.3623 68.4482,-108.6368 69.6394,-91.1703"/>
<polygon fill="#191970" stroke="#191970" points="73.1411,-91.3144 70.5871,-81.032 66.1715,-90.6628 73.1411,-91.3144"/>
</g>
<!-- Node19&#45;&gt;Node1 -->
<g id="edge45" class="edge">
<title>Node19&#45;&gt;Node1</title>
<path fill="none" stroke="#191970" d="M1147.8813,-319.3944C1070.4553,-307.469 934.5448,-286.5356 849.1061,-273.3761"/>
<polygon fill="#191970" stroke="#191970" points="849.618,-269.9138 839.2017,-271.8506 848.5523,-276.8322 849.618,-269.9138"/>
</g>
<!-- Node19&#45;&gt;Node6 -->
<g id="edge46" class="edge">
<title>Node19&#45;&gt;Node6</title>
<path fill="none" stroke="#191970" d="M1207.0196,-313.2142C1207.5727,-296.1147 1210.0996,-267.939 1220,-246 1236.6287,-209.1513 1269.3883,-174.6703 1290.1879,-155.1238"/>
<polygon fill="#191970" stroke="#191970" points="1292.7746,-157.5004 1297.773,-148.1587 1288.04,-152.3444 1292.7746,-157.5004"/>
</g>
<!-- Node20&#45;&gt;Node1 -->
<g id="edge48" class="edge">
<title>Node20&#45;&gt;Node1</title>
<path fill="none" stroke="#191970" d="M969.773,-313.4639C931.1112,-303.3057 879.9126,-289.8535 839.2949,-279.1814"/>
<polygon fill="#191970" stroke="#191970" points="840.0377,-275.7579 829.4766,-276.6017 838.2589,-282.5281 840.0377,-275.7579"/>
</g>
<!-- Node21&#45;&gt;Node4 -->
<g id="edge51" class="edge">
<title>Node21&#45;&gt;Node4</title>
<path fill="none" stroke="#191970" d="M1242.4383,-251.9581C1175.9971,-240.9443 1066.8616,-222.8531 996.4841,-211.1867"/>
<polygon fill="#191970" stroke="#191970" points="996.8292,-207.6962 986.3915,-209.5137 995.6844,-214.602 996.8292,-207.6962"/>
</g>
<!-- Node21&#45;&gt;Node6 -->
<g id="edge52" class="edge">
<title>Node21&#45;&gt;Node6</title>
<path fill="none" stroke="#191970" d="M1300.7062,-251.8484C1302.1783,-231.7295 1305.6004,-184.9608 1307.5578,-158.2098"/>
<polygon fill="#191970" stroke="#191970" points="1311.0579,-158.3356 1308.2971,-148.1068 1304.0765,-157.8247 1311.0579,-158.3356"/>
</g>
</g>
</svg>
        <g id="navigator" transform="translate(0 0)" fill="#404254">
                <rect fill="#f2f5e9" fill-opacity="0.5" stroke="#606060" stroke-width=".5" x="0" y="0" width="60" height="60"/>
                <use id="zoomplus" xlink:href="#zoomPlus" x="17" y="9" onmousedown="handleZoom(evt,'in')"/>
                <use id="zoomminus" xlink:href="#zoomMin" x="42" y="9" onmousedown="handleZoom(evt,'out')"/>
                <use id="reset" xlink:href="#resetDef" x="30" y="36" onmousedown="handleReset()"/>
                <g id="arrowUp" xlink:href="#dirArrow" transform="translate(30 24)" onmousedown="handlePan(0,-1)">
                  <use xlink:href="#rim" fill="#404040">
                        <set attributeName="fill" to="#808080" begin="arrowUp.mouseover" end="arrowUp.mouseout"/>
                  </use>
                  <path fill="none" stroke="white" stroke-width="1.5" d="M0,-3.0v7 M-2.5,-0.5L0,-3.0L2.5,-0.5"/>
                </g>
                <g id="arrowRight" xlink:href="#dirArrow" transform="rotate(90) translate(36 -43)" onmousedown="handlePan(1,0)">
                  <use xlink:href="#rim" fill="#404040">
                        <set attributeName="fill" to="#808080" begin="arrowRight.mouseover" end="arrowRight.mouseout"/>
                  </use>
                  <path fill="none" stroke="white" stroke-width="1.5" d="M0,-3.0v7 M-2.5,-0.5L0,-3.0L2.5,-0.5"/>
                </g>
                <g id="arrowDown" xlink:href="#dirArrow" transform="rotate(180) translate(-30 -48)" onmousedown="handlePan(0,1)">
                  <use xlink:href="#rim" fill="#404040">
                        <set attributeName="fill" to="#808080" begin="arrowDown.mouseover" end="arrowDown.mouseout"/>
                  </use>
                  <path fill="none" stroke="white" stroke-width="1.5" d="M0,-3.0v7 M-2.5,-0.5L0,-3.0L2.5,-0.5"/>
                </g>
                <g id="arrowLeft" xlink:href="#dirArrow" transform="rotate(270) translate(-36 17)" onmousedown="handlePan(-1,0)">
                  <use xlink:href="#rim" fill="#404040">
                        <set attributeName="fill" to="#808080" begin="arrowLeft.mouseover" end="arrowLeft.mouseout"/>
                  </use>
                  <path fill="none" stroke="white" stroke-width="1.5" d="M0,-3.0v7 M-2.5,-0.5L0,-3.0L2.5,-0.5"/>
                </g>
        </g>
        <svg viewBox="0 0 15 15" width="100%" height="30px" preserveAspectRatio="xMaxYMin meet">
         <g id="arrow_out" transform="scale(0.3 0.3)">
          <a xlink:href="part__func__co_8h__incl_org.svg" target="_base">
           <rect id="button" ry="5" rx="5" y="6" x="6" height="38" width="38"
                fill="#f2f5e9" fill-opacity="0.5" stroke="#606060" stroke-width="1.0"/>
           <path id="arrow"
             d="M 11.500037,31.436501 C 11.940474,20.09759 22.043105,11.32322 32.158766,21.979434 L 37.068811,17.246167 C 37.068811,17.246167 37.088388,32 37.088388,32 L 22.160133,31.978069 C 22.160133,31.978069 26.997745,27.140456 26.997745,27.140456 C 18.528582,18.264221 13.291696,25.230495 11.500037,31.436501 z"
             style="fill:#404040;"/>
          </a>
         </g>
        </svg>
</svg>
