<?xml version="1.0" encoding="UTF-8" standalone="no"?>
<!DOCTYPE svg PUBLIC "-//W3C//DTD SVG 1.1//EN"
 "http://www.w3.org/Graphics/SVG/1.1/DTD/svg11.dtd">
<!-- Generated by graphviz version 2.40.1 (20161225.0304)
 -->
<!-- Title: ViennaRNA/plotting/structures.h Pages: 1 -->
<svg width="1427pt" height="419pt"
 viewBox="0.00 0.00 1426.50 419.00" xmlns="http://www.w3.org/2000/svg" xmlns:xlink="http://www.w3.org/1999/xlink">
<g id="graph0" class="graph" transform="scale(1 1) rotate(0) translate(4 415)">
<title>ViennaRNA/plotting/structures.h</title>
<!-- Node0 -->
<g id="node1" class="node">
<title>Node0</title>
<polygon fill="#bfbfbf" stroke="#000000" points="0,-380.5 0,-410.5 103,-410.5 103,-380.5 0,-380.5"/>
<text text-anchor="start" x="8" y="-398.5" font-family="Helvetica,sans-Serif" font-size="10.00" fill="#000000">ViennaRNA/plotting</text>
<text text-anchor="middle" x="51.5" y="-387.5" font-family="Helvetica,sans-Serif" font-size="10.00" fill="#000000">/structures.h</text>
</g>
<!-- Node1 -->
<g id="node2" class="node">
<title>Node1</title>
<g id="a_node2"><a xlink:href="model_8h.html" target="_top" xlink:title="The model details data structure and its corresponding modifiers. ">
<polygon fill="none" stroke="#000000" points="269.5,-62 269.5,-81 375.5,-81 375.5,-62 269.5,-62"/>
<text text-anchor="middle" x="322.5" y="-69" font-family="Helvetica,sans-Serif" font-size="10.00" fill="#000000">ViennaRNA/model.h</text>
</a>
</g>
</g>
<!-- Node0&#45;&gt;Node1 -->
<g id="edge1" class="edge">
<title>Node0&#45;&gt;Node1</title>
<path fill="none" stroke="#191970" d="M43.7876,-380.2643C32.1641,-355.8526 11.5,-306.172 11.5,-261.5 11.5,-261.5 11.5,-261.5 11.5,-200 11.5,-157.4214 32.5797,-145.862 68.5,-123 99.5315,-103.2495 194.5352,-87.7199 259.1368,-79.0762"/>
<polygon fill="#191970" stroke="#191970" points="259.7715,-82.5229 269.2295,-77.7484 258.8584,-75.5827 259.7715,-82.5229"/>
</g>
<!-- Node2 -->
<g id="node3" class="node">
<title>Node2</title>
<g id="a_node3"><a xlink:href="layouts_8h.html" target="_top" xlink:title="Secondary structure plot layout algorithms. ">
<polygon fill="none" stroke="#000000" points="324,-313.5 324,-343.5 427,-343.5 427,-313.5 324,-313.5"/>
<text text-anchor="start" x="332" y="-331.5" font-family="Helvetica,sans-Serif" font-size="10.00" fill="#000000">ViennaRNA/plotting</text>
<text text-anchor="middle" x="375.5" y="-320.5" font-family="Helvetica,sans-Serif" font-size="10.00" fill="#000000">/layouts.h</text>
</a>
</g>
</g>
<!-- Node0&#45;&gt;Node2 -->
<g id="edge2" class="edge">
<title>Node0&#45;&gt;Node2</title>
<path fill="none" stroke="#191970" d="M103.197,-384.8096C160.5689,-372.9456 253.0905,-353.8131 314.102,-341.1965"/>
<polygon fill="#191970" stroke="#191970" points="314.9031,-344.605 323.9871,-339.1524 313.4855,-337.75 314.9031,-344.605"/>
</g>
<!-- Node3 -->
<g id="node4" class="node">
<title>Node3</title>
<g id="a_node4"><a xlink:href="datastructures_2basic_8h.html" target="_top" xlink:title="Various data structures and pre&#45;processor macros. ">
<polygon fill="none" stroke="#000000" points="730.5,-246.5 730.5,-276.5 864.5,-276.5 864.5,-246.5 730.5,-246.5"/>
<text text-anchor="start" x="738.5" y="-264.5" font-family="Helvetica,sans-Serif" font-size="10.00" fill="#000000">ViennaRNA/datastructures</text>
<text text-anchor="middle" x="797.5" y="-253.5" font-family="Helvetica,sans-Serif" font-size="10.00" fill="#000000">/basic.h</text>
</a>
</g>
</g>
<!-- Node2&#45;&gt;Node3 -->
<g id="edge3" class="edge">
<title>Node2&#45;&gt;Node3</title>
<path fill="none" stroke="#191970" d="M427.2455,-320.2845C500.5278,-308.6496 635.0834,-287.2865 720.2252,-273.7687"/>
<polygon fill="#191970" stroke="#191970" points="721.0285,-277.1851 730.3559,-272.1603 719.9308,-270.2717 721.0285,-277.1851"/>
</g>
<!-- Node18 -->
<g id="node19" class="node">
<title>Node18</title>
<g id="a_node19"><a xlink:href="plotting_2naview_8h.html" target="_top" xlink:title="ViennaRNA/plotting\l/naview.h">
<polygon fill="none" stroke="#000000" points="324,-246.5 324,-276.5 427,-276.5 427,-246.5 324,-246.5"/>
<text text-anchor="start" x="332" y="-264.5" font-family="Helvetica,sans-Serif" font-size="10.00" fill="#000000">ViennaRNA/plotting</text>
<text text-anchor="middle" x="375.5" y="-253.5" font-family="Helvetica,sans-Serif" font-size="10.00" fill="#000000">/naview.h</text>
</a>
</g>
</g>
<!-- Node2&#45;&gt;Node18 -->
<g id="edge39" class="edge">
<title>Node2&#45;&gt;Node18</title>
<path fill="none" stroke="#191970" d="M375.5,-313.2967C375.5,-305.5013 375.5,-295.7991 375.5,-286.9064"/>
<polygon fill="#191970" stroke="#191970" points="379.0001,-286.6431 375.5,-276.6432 372.0001,-286.6432 379.0001,-286.6431"/>
</g>
<!-- Node3&#45;&gt;Node1 -->
<g id="edge30" class="edge">
<title>Node3&#45;&gt;Node1</title>
<path fill="none" stroke="#191970" d="M730.3795,-254.8683C649.9296,-244.2955 513.6963,-217.8366 415.5,-154 399.706,-143.7324 362.2095,-109.1077 339.9513,-88.1174"/>
<polygon fill="#191970" stroke="#191970" points="342.177,-85.4048 332.5088,-81.0714 337.3645,-90.4881 342.177,-85.4048"/>
</g>
<!-- Node4 -->
<g id="node5" class="node">
<title>Node4</title>
<g id="a_node5"><a xlink:href="constants_8h.html" target="_top" xlink:title="Energy parameter constants. ">
<polygon fill="none" stroke="#000000" points="19.5,-62 19.5,-81 177.5,-81 177.5,-62 19.5,-62"/>
<text text-anchor="middle" x="98.5" y="-69" font-family="Helvetica,sans-Serif" font-size="10.00" fill="#000000">ViennaRNA/params/constants.h</text>
</a>
</g>
</g>
<!-- Node3&#45;&gt;Node4 -->
<g id="edge4" class="edge">
<title>Node3&#45;&gt;Node4</title>
<path fill="none" stroke="#191970" d="M730.4693,-256.8507C557.8417,-244.1638 108.6811,-206.3648 68.5,-154 53.5105,-134.4654 69.3896,-106.7284 83.1449,-88.9227"/>
<polygon fill="#191970" stroke="#191970" points="85.9562,-91.0139 89.5824,-81.0589 80.5396,-86.5798 85.9562,-91.0139"/>
</g>
<!-- Node6 -->
<g id="node7" class="node">
<title>Node6</title>
<g id="a_node7"><a xlink:href="fold__compound_8h.html" target="_top" xlink:title="The Basic Fold Compound API. ">
<polygon fill="none" stroke="#000000" points="585.5,-190.5 585.5,-209.5 731.5,-209.5 731.5,-190.5 585.5,-190.5"/>
<text text-anchor="middle" x="658.5" y="-197.5" font-family="Helvetica,sans-Serif" font-size="10.00" fill="#000000">ViennaRNA/fold_compound.h</text>
</a>
</g>
</g>
<!-- Node3&#45;&gt;Node6 -->
<g id="edge6" class="edge">
<title>Node3&#45;&gt;Node6</title>
<path fill="none" stroke="#191970" d="M763.4968,-246.4554C740.8129,-236.419 711.2327,-223.3314 689.2521,-213.6061"/>
<polygon fill="#191970" stroke="#191970" points="690.6011,-210.3758 680.0401,-209.5303 687.7688,-216.7772 690.6011,-210.3758"/>
</g>
<!-- Node7 -->
<g id="node8" class="node">
<title>Node7</title>
<g id="a_node8"><a xlink:href="params_2basic_8h.html" target="_top" xlink:title="Functions to deal with sets of energy parameters. ">
<polygon fill="none" stroke="#000000" points="77.5,-129 77.5,-148 215.5,-148 215.5,-129 77.5,-129"/>
<text text-anchor="middle" x="146.5" y="-136" font-family="Helvetica,sans-Serif" font-size="10.00" fill="#000000">ViennaRNA/params/basic.h</text>
</a>
</g>
</g>
<!-- Node3&#45;&gt;Node7 -->
<g id="edge31" class="edge">
<title>Node3&#45;&gt;Node7</title>
<path fill="none" stroke="#191970" d="M730.1548,-258.852C639.9539,-254.1039 475.7651,-241.5033 339.5,-210 277.877,-195.7533 209.0104,-168.8939 172.3373,-152.4583"/>
<polygon fill="#191970" stroke="#191970" points="173.4285,-149.1082 162.88,-148.1182 170.5088,-155.4702 173.4285,-149.1082"/>
</g>
<!-- Node9 -->
<g id="node10" class="node">
<title>Node9</title>
<g id="a_node10"><a xlink:href="dp__matrices_8h.html" target="_top" xlink:title="Functions to deal with standard dynamic programming (DP) matrices. ">
<polygon fill="none" stroke="#000000" points="234,-129 234,-148 367,-148 367,-129 234,-129"/>
<text text-anchor="middle" x="300.5" y="-136" font-family="Helvetica,sans-Serif" font-size="10.00" fill="#000000">ViennaRNA/dp_matrices.h</text>
</a>
</g>
</g>
<!-- Node3&#45;&gt;Node9 -->
<g id="edge32" class="edge">
<title>Node3&#45;&gt;Node9</title>
<path fill="none" stroke="#191970" d="M730.3267,-258.3356C626.8821,-252.4643 434.3752,-237.8679 372.5,-210 345.515,-197.8462 321.0243,-173.5136 308.3111,-156.6313"/>
<polygon fill="#191970" stroke="#191970" points="311.0466,-154.4306 302.5188,-148.1434 305.2646,-158.3763 311.0466,-154.4306"/>
</g>
<!-- Node10 -->
<g id="node11" class="node">
<title>Node10</title>
<g id="a_node11"><a xlink:href="hard_8h.html" target="_top" xlink:title="Functions and data structures for handling of secondary structure hard constraints. ">
<polygon fill="none" stroke="#000000" points="738,-123.5 738,-153.5 857,-153.5 857,-123.5 738,-123.5"/>
<text text-anchor="start" x="746" y="-141.5" font-family="Helvetica,sans-Serif" font-size="10.00" fill="#000000">ViennaRNA/constraints</text>
<text text-anchor="middle" x="797.5" y="-130.5" font-family="Helvetica,sans-Serif" font-size="10.00" fill="#000000">/hard.h</text>
</a>
</g>
</g>
<!-- Node3&#45;&gt;Node10 -->
<g id="edge33" class="edge">
<title>Node3&#45;&gt;Node10</title>
<path fill="none" stroke="#191970" d="M792.8857,-246.4178C790.4095,-225.8539 790.0865,-188.7363 791.9169,-163.8546"/>
<polygon fill="#191970" stroke="#191970" points="795.4196,-163.9893 792.8709,-153.7056 788.4503,-163.3341 795.4196,-163.9893"/>
</g>
<!-- Node12 -->
<g id="node13" class="node">
<title>Node12</title>
<g id="a_node13"><a xlink:href="soft_8h.html" target="_top" xlink:title="Functions and data structures for secondary structure soft constraints. ">
<polygon fill="none" stroke="#000000" points="1008,-123.5 1008,-153.5 1127,-153.5 1127,-123.5 1008,-123.5"/>
<text text-anchor="start" x="1016" y="-141.5" font-family="Helvetica,sans-Serif" font-size="10.00" fill="#000000">ViennaRNA/constraints</text>
<text text-anchor="middle" x="1067.5" y="-130.5" font-family="Helvetica,sans-Serif" font-size="10.00" fill="#000000">/soft.h</text>
</a>
</g>
</g>
<!-- Node3&#45;&gt;Node12 -->
<g id="edge34" class="edge">
<title>Node3&#45;&gt;Node12</title>
<path fill="none" stroke="#191970" d="M825.993,-246.4178C872.418,-224.0411 964.4185,-182.0638 1020.5693,-157.5795"/>
<polygon fill="#191970" stroke="#191970" points="1022.159,-160.7051 1029.9387,-153.513 1019.372,-154.2838 1022.159,-160.7051"/>
</g>
<!-- Node13 -->
<g id="node14" class="node">
<title>Node13</title>
<g id="a_node14"><a xlink:href="grammar_8h.html" target="_top" xlink:title="Implementations for the RNA folding grammar. ">
<polygon fill="none" stroke="#000000" points="424,-129 424,-148 541,-148 541,-129 424,-129"/>
<text text-anchor="middle" x="482.5" y="-136" font-family="Helvetica,sans-Serif" font-size="10.00" fill="#000000">ViennaRNA/grammar.h</text>
</a>
</g>
</g>
<!-- Node3&#45;&gt;Node13 -->
<g id="edge35" class="edge">
<title>Node3&#45;&gt;Node13</title>
<path fill="none" stroke="#191970" d="M730.2956,-253.3514C685.1993,-246.1041 625.3407,-232.97 576.5,-210 546.7333,-196.0006 517.3586,-171.4675 499.5748,-155.1012"/>
<polygon fill="#191970" stroke="#191970" points="501.9427,-152.5234 492.2598,-148.2234 497.1477,-157.6233 501.9427,-152.5234"/>
</g>
<!-- Node14 -->
<g id="node15" class="node">
<title>Node14</title>
<g id="a_node15"><a xlink:href="structured__domains_8h.html" target="_top" xlink:title="This module provides interfaces that deal with additional structured domains in the folding grammar...">
<polygon fill="none" stroke="#000000" points="875,-123.5 875,-153.5 990,-153.5 990,-123.5 875,-123.5"/>
<text text-anchor="start" x="883" y="-141.5" font-family="Helvetica,sans-Serif" font-size="10.00" fill="#000000">ViennaRNA/structured</text>
<text text-anchor="middle" x="932.5" y="-130.5" font-family="Helvetica,sans-Serif" font-size="10.00" fill="#000000">_domains.h</text>
</a>
</g>
</g>
<!-- Node3&#45;&gt;Node14 -->
<g id="edge36" class="edge">
<title>Node3&#45;&gt;Node14</title>
<path fill="none" stroke="#191970" d="M814.0536,-246.4178C837.6359,-224.9317 881.0528,-185.3741 908.2618,-160.5837"/>
<polygon fill="#191970" stroke="#191970" points="910.7762,-163.0277 915.8109,-153.7056 906.0617,-157.8533 910.7762,-163.0277"/>
</g>
<!-- Node15 -->
<g id="node16" class="node">
<title>Node15</title>
<g id="a_node16"><a xlink:href="unstructured__domains_8h.html" target="_top" xlink:title="Functions to modify unstructured domains, e.g. to incorporate ligands binding to unpaired stretches...">
<polygon fill="none" stroke="#000000" points="1184,-123.5 1184,-153.5 1309,-153.5 1309,-123.5 1184,-123.5"/>
<text text-anchor="start" x="1192" y="-141.5" font-family="Helvetica,sans-Serif" font-size="10.00" fill="#000000">ViennaRNA/unstructured</text>
<text text-anchor="middle" x="1246.5" y="-130.5" font-family="Helvetica,sans-Serif" font-size="10.00" fill="#000000">_domains.h</text>
</a>
</g>
</g>
<!-- Node3&#45;&gt;Node15 -->
<g id="edge37" class="edge">
<title>Node3&#45;&gt;Node15</title>
<path fill="none" stroke="#191970" d="M864.8264,-256.5783C954.9315,-249.4538 1109.1042,-234.383 1160.5,-210 1184.154,-198.7781 1205.4864,-177.6673 1221.252,-161.282"/>
<polygon fill="#191970" stroke="#191970" points="1224.1414,-163.3251 1228.53,-153.6819 1219.0857,-158.4836 1224.1414,-163.3251"/>
</g>
<!-- Node16 -->
<g id="node17" class="node">
<title>Node16</title>
<g id="a_node17"><a xlink:href="utils_2structures_8h.html" target="_top" xlink:title="Various utility&#45; and helper&#45;functions for secondary structure parsing, converting, etc. ">
<polygon fill="none" stroke="#000000" points="1274.5,-62 1274.5,-81 1418.5,-81 1418.5,-62 1274.5,-62"/>
<text text-anchor="middle" x="1346.5" y="-69" font-family="Helvetica,sans-Serif" font-size="10.00" fill="#000000">ViennaRNA/utils/structures.h</text>
</a>
</g>
</g>
<!-- Node3&#45;&gt;Node16 -->
<g id="edge38" class="edge">
<title>Node3&#45;&gt;Node16</title>
<path fill="none" stroke="#191970" d="M864.5018,-255.2948C961.6433,-246.262 1136.375,-228.5373 1197.5,-210 1250.758,-193.8485 1272.9216,-195.944 1309.5,-154 1325.133,-136.0739 1332.1254,-109.041 1337.2798,-90.8535"/>
<polygon fill="#191970" stroke="#191970" points="1340.6946,-91.6525 1340.2328,-81.0677 1333.993,-89.6302 1340.6946,-91.6525"/>
</g>
<!-- Node5 -->
<g id="node6" class="node">
<title>Node5</title>
<polygon fill="none" stroke="#bfbfbf" points="74.5,-.5 74.5,-19.5 122.5,-19.5 122.5,-.5 74.5,-.5"/>
<text text-anchor="middle" x="98.5" y="-7.5" font-family="Helvetica,sans-Serif" font-size="10.00" fill="#000000">limits.h</text>
</g>
<!-- Node4&#45;&gt;Node5 -->
<g id="edge5" class="edge">
<title>Node4&#45;&gt;Node5</title>
<path fill="none" stroke="#191970" d="M98.5,-61.8906C98.5,-53.3657 98.5,-40.6392 98.5,-29.9235"/>
<polygon fill="#191970" stroke="#191970" points="102.0001,-29.7448 98.5,-19.7449 95.0001,-29.7449 102.0001,-29.7448"/>
</g>
<!-- Node6&#45;&gt;Node1 -->
<g id="edge7" class="edge">
<title>Node6&#45;&gt;Node1</title>
<path fill="none" stroke="#191970" d="M642.8971,-190.3945C628.5028,-181.3822 606.6752,-167.331 588.5,-154 570.9248,-141.1091 570.0954,-132.5437 550.5,-123 498.326,-97.5894 433.294,-84.4977 386.0507,-77.8912"/>
<polygon fill="#191970" stroke="#191970" points="386.3266,-74.397 375.9506,-76.5394 385.3979,-81.3351 386.3266,-74.397"/>
</g>
<!-- Node6&#45;&gt;Node7 -->
<g id="edge8" class="edge">
<title>Node6&#45;&gt;Node7</title>
<path fill="none" stroke="#191970" d="M585.2906,-194.2773C498.8061,-187.0468 350.7208,-173.19 224.5,-154 216.8221,-152.8327 208.7525,-151.43 200.8339,-149.9518"/>
<polygon fill="#191970" stroke="#191970" points="201.4058,-146.4977 190.9254,-148.051 200.0869,-153.3724 201.4058,-146.4977"/>
</g>
<!-- Node8 -->
<g id="node9" class="node">
<title>Node8</title>
<g id="a_node9"><a xlink:href="sequence_8h.html" target="_top" xlink:title="Functions and data structures related to sequence representations ,. ">
<polygon fill="none" stroke="#000000" points="597.5,-129 597.5,-148 719.5,-148 719.5,-129 597.5,-129"/>
<text text-anchor="middle" x="658.5" y="-136" font-family="Helvetica,sans-Serif" font-size="10.00" fill="#000000">ViennaRNA/sequence.h</text>
</a>
</g>
</g>
<!-- Node6&#45;&gt;Node8 -->
<g id="edge12" class="edge">
<title>Node6&#45;&gt;Node8</title>
<path fill="none" stroke="#191970" d="M658.5,-190.3906C658.5,-181.8657 658.5,-169.1392 658.5,-158.4235"/>
<polygon fill="#191970" stroke="#191970" points="662.0001,-158.2448 658.5,-148.2449 655.0001,-158.2449 662.0001,-158.2448"/>
</g>
<!-- Node6&#45;&gt;Node9 -->
<g id="edge13" class="edge">
<title>Node6&#45;&gt;Node9</title>
<path fill="none" stroke="#191970" d="M602.9553,-190.4581C538.9736,-179.4668 433.9623,-161.4272 366.0374,-149.7585"/>
<polygon fill="#191970" stroke="#191970" points="366.3287,-146.2574 355.8804,-148.0137 365.1435,-153.1563 366.3287,-146.2574"/>
</g>
<!-- Node6&#45;&gt;Node10 -->
<g id="edge15" class="edge">
<title>Node6&#45;&gt;Node10</title>
<path fill="none" stroke="#191970" d="M680.2188,-190.3906C699.9016,-181.682 729.4944,-168.5888 754.0288,-157.7336"/>
<polygon fill="#191970" stroke="#191970" points="755.768,-160.7915 763.4968,-153.5446 752.9357,-154.3901 755.768,-160.7915"/>
</g>
<!-- Node6&#45;&gt;Node12 -->
<g id="edge19" class="edge">
<title>Node6&#45;&gt;Node12</title>
<path fill="none" stroke="#191970" d="M731.6374,-192.0643C798.5921,-184.3591 900.6047,-171.5162 997.8568,-154.2127"/>
<polygon fill="#191970" stroke="#191970" points="998.6357,-157.6289 1007.8583,-152.4142 997.3967,-150.7394 998.6357,-157.6289"/>
</g>
<!-- Node6&#45;&gt;Node13 -->
<g id="edge22" class="edge">
<title>Node6&#45;&gt;Node13</title>
<path fill="none" stroke="#191970" d="M625.9375,-190.3906C594.0678,-179.9652 546.0542,-163.2559 514.4139,-151.6252"/>
<polygon fill="#191970" stroke="#191970" points="515.3506,-148.2397 504.7576,-148.0419 512.9152,-154.8024 515.3506,-148.2397"/>
</g>
<!-- Node6&#45;&gt;Node14 -->
<g id="edge24" class="edge">
<title>Node6&#45;&gt;Node14</title>
<path fill="none" stroke="#191970" d="M702.3619,-190.4734C742.3438,-181.7506 803.3057,-168.3537 865.0107,-154.3259"/>
<polygon fill="#191970" stroke="#191970" points="865.9442,-157.703 874.9173,-152.0697 864.3897,-150.8778 865.9442,-157.703"/>
</g>
<!-- Node6&#45;&gt;Node15 -->
<g id="edge25" class="edge">
<title>Node6&#45;&gt;Node15</title>
<path fill="none" stroke="#191970" d="M731.8975,-193.9475C825.8185,-185.9706 993.4801,-170.9498 1136.5,-154 1148.4699,-152.5814 1161.1516,-150.9316 1173.4842,-149.2481"/>
<polygon fill="#191970" stroke="#191970" points="1174.3117,-152.667 1183.7381,-147.8303 1173.3529,-145.733 1174.3117,-152.667"/>
</g>
<!-- Node7&#45;&gt;Node1 -->
<g id="edge11" class="edge">
<title>Node7&#45;&gt;Node1</title>
<path fill="none" stroke="#191970" d="M171.7165,-128.9005C202.1681,-117.3082 253.5485,-97.7486 287.743,-84.7313"/>
<polygon fill="#191970" stroke="#191970" points="289.2298,-87.9105 297.3303,-81.0817 286.7393,-81.3685 289.2298,-87.9105"/>
</g>
<!-- Node7&#45;&gt;Node3 -->
<g id="edge10" class="edge">
<title>Node7&#45;&gt;Node3</title>
<path fill="none" stroke="#191970" d="M173.9762,-148.1182C213.9971,-163.732 290.0834,-194.4139 357.5,-210 482.6926,-238.9434 631.4552,-251.9313 720.0432,-257.5331"/>
<polygon fill="#191970" stroke="#191970" points="720.0812,-261.042 730.2777,-258.1642 720.5121,-254.0552 720.0812,-261.042"/>
</g>
<!-- Node7&#45;&gt;Node4 -->
<g id="edge9" class="edge">
<title>Node7&#45;&gt;Node4</title>
<path fill="none" stroke="#191970" d="M139.6228,-128.9005C132.2802,-118.6515 120.4759,-102.1747 111.3938,-89.4976"/>
<polygon fill="#191970" stroke="#191970" points="114.0336,-87.1724 105.3645,-81.0817 108.3432,-91.2492 114.0336,-87.1724"/>
</g>
<!-- Node9&#45;&gt;Node3 -->
<g id="edge14" class="edge">
<title>Node9&#45;&gt;Node3</title>
<path fill="none" stroke="#191970" d="M313.503,-148.1434C330.0392,-164.0838 358.5177,-195.5955 390.5,-210 448.0755,-235.9314 618.7581,-250.3716 719.9377,-256.9837"/>
<polygon fill="#191970" stroke="#191970" points="719.905,-260.4887 730.1089,-257.6374 720.354,-253.5032 719.905,-260.4887"/>
</g>
<!-- Node10&#45;&gt;Node3 -->
<g id="edge16" class="edge">
<title>Node10&#45;&gt;Node3</title>
<path fill="none" stroke="#191970" d="M802.1291,-153.7056C804.5967,-174.3355 804.9111,-211.4615 803.0721,-236.2943"/>
<polygon fill="#191970" stroke="#191970" points="799.5719,-236.1325 802.1143,-246.4178 806.5408,-236.792 799.5719,-236.1325"/>
</g>
<!-- Node11 -->
<g id="node12" class="node">
<title>Node11</title>
<g id="a_node12"><a xlink:href="constraints_2basic_8h.html" target="_top" xlink:title="Functions and data structures for constraining secondary structure predictions and evaluation...">
<polygon fill="none" stroke="#000000" points="1008,-56.5 1008,-86.5 1127,-86.5 1127,-56.5 1008,-56.5"/>
<text text-anchor="start" x="1016" y="-74.5" font-family="Helvetica,sans-Serif" font-size="10.00" fill="#000000">ViennaRNA/constraints</text>
<text text-anchor="middle" x="1067.5" y="-63.5" font-family="Helvetica,sans-Serif" font-size="10.00" fill="#000000">/basic.h</text>
</a>
</g>
</g>
<!-- Node10&#45;&gt;Node11 -->
<g id="edge17" class="edge">
<title>Node10&#45;&gt;Node11</title>
<path fill="none" stroke="#191970" d="M857.0869,-123.7136C898.5803,-113.4171 954.0684,-99.6478 997.6451,-88.8344"/>
<polygon fill="#191970" stroke="#191970" points="998.7365,-92.1698 1007.5992,-86.3643 997.0506,-85.3758 998.7365,-92.1698"/>
</g>
<!-- Node11&#45;&gt;Node3 -->
<g id="edge18" class="edge">
<title>Node11&#45;&gt;Node3</title>
<path fill="none" stroke="#191970" d="M1095.3196,-86.5292C1121.5878,-102.7097 1154.4766,-129.4407 1136.5,-154 1105.3481,-196.5592 964.7931,-230.1913 874.7329,-247.8567"/>
<polygon fill="#191970" stroke="#191970" points="873.9777,-244.4378 864.8258,-249.7757 875.309,-251.3101 873.9777,-244.4378"/>
</g>
<!-- Node12&#45;&gt;Node3 -->
<g id="edge20" class="edge">
<title>Node12&#45;&gt;Node3</title>
<path fill="none" stroke="#191970" d="M1039.1506,-153.513C992.8198,-175.8491 900.8294,-217.8243 844.6047,-242.3446"/>
<polygon fill="#191970" stroke="#191970" points="843.0009,-239.2252 835.2216,-246.4178 845.7883,-245.6463 843.0009,-239.2252"/>
</g>
<!-- Node12&#45;&gt;Node11 -->
<g id="edge21" class="edge">
<title>Node12&#45;&gt;Node11</title>
<path fill="none" stroke="#191970" d="M1067.5,-123.2967C1067.5,-115.5013 1067.5,-105.7991 1067.5,-96.9064"/>
<polygon fill="#191970" stroke="#191970" points="1071.0001,-96.6431 1067.5,-86.6432 1064.0001,-96.6432 1071.0001,-96.6431"/>
</g>
<!-- Node13&#45;&gt;Node6 -->
<g id="edge23" class="edge">
<title>Node13&#45;&gt;Node6</title>
<path fill="none" stroke="#191970" d="M514.8562,-148.0419C546.656,-158.4402 594.6699,-175.1468 626.3808,-186.7993"/>
<polygon fill="#191970" stroke="#191970" points="625.4695,-190.1943 636.0625,-190.3906 627.904,-183.6312 625.4695,-190.1943"/>
</g>
<!-- Node15&#45;&gt;Node3 -->
<g id="edge26" class="edge">
<title>Node15&#45;&gt;Node3</title>
<path fill="none" stroke="#191970" d="M1241.5331,-153.6819C1230.4058,-170.4935 1206.0247,-196.9418 1178.5,-210 1126.7087,-234.5707 970.5527,-249.6852 874.9243,-256.7414"/>
<polygon fill="#191970" stroke="#191970" points="874.441,-253.2671 864.7201,-257.4807 874.9469,-260.2488 874.441,-253.2671"/>
</g>
<!-- Node15&#45;&gt;Node16 -->
<g id="edge27" class="edge">
<title>Node15&#45;&gt;Node16</title>
<path fill="none" stroke="#191970" d="M1269.1915,-123.2967C1285.5283,-112.351 1307.4759,-97.6462 1323.8119,-86.701"/>
<polygon fill="#191970" stroke="#191970" points="1325.8793,-89.5289 1332.2388,-81.055 1321.983,-83.7135 1325.8793,-89.5289"/>
</g>
<!-- Node16&#45;&gt;Node3 -->
<g id="edge29" class="edge">
<title>Node16&#45;&gt;Node3</title>
<path fill="none" stroke="#191970" d="M1350.9895,-81.0677C1352.5965,-97.7551 1346.2889,-132.455 1327.5,-154 1290.9216,-195.944 1268.758,-193.8485 1215.5,-210 1154.025,-228.6434 977.6388,-246.4649 874.6336,-255.4491"/>
<polygon fill="#191970" stroke="#191970" points="874.2559,-251.9686 864.5945,-256.3169 874.8588,-258.9426 874.2559,-251.9686"/>
</g>
<!-- Node17 -->
<g id="node18" class="node">
<title>Node17</title>
<polygon fill="none" stroke="#bfbfbf" points="1323.5,-.5 1323.5,-19.5 1369.5,-19.5 1369.5,-.5 1323.5,-.5"/>
<text text-anchor="middle" x="1346.5" y="-7.5" font-family="Helvetica,sans-Serif" font-size="10.00" fill="#000000">stdio.h</text>
</g>
<!-- Node16&#45;&gt;Node17 -->
<g id="edge28" class="edge">
<title>Node16&#45;&gt;Node17</title>
<path fill="none" stroke="#191970" d="M1346.5,-61.8906C1346.5,-53.3657 1346.5,-40.6392 1346.5,-29.9235"/>
<polygon fill="#191970" stroke="#191970" points="1350.0001,-29.7448 1346.5,-19.7449 1343.0001,-29.7449 1350.0001,-29.7448"/>
</g>
</g>
</svg>
