<?xml version="1.0" encoding="UTF-8" standalone="no"?>
<!DOCTYPE svg PUBLIC "-//W3C//DTD SVG 1.1//EN"
 "http://www.w3.org/Graphics/SVG/1.1/DTD/svg11.dtd">
<!-- Generated by graphviz version 2.40.1 (20161225.0304)
 -->
<!-- Title: ViennaRNA/plot_structure.h Pages: 1 -->
<!--zoomable 475 -->
<svg id="main" version="1.1" xmlns="http://www.w3.org/2000/svg" xmlns:xlink="http://www.w3.org/1999/xlink" xml:space="preserve" onload="init(evt)">
<style type="text/css"><![CDATA[
.edge:hover path { stroke: red; }
.edge:hover polygon { stroke: red; fill: red; }
]]></style>
<script type="text/javascript"><![CDATA[
var edges = document.getElementsByTagName('g');
if (edges && edges.length) {
  for (var i=0;i<edges.length;i++) {
    if (edges[i].id.substr(0,4)=='edge') {
      edges[i].setAttribute('class','edge');
    }
  }
}
]]></script>
        <defs>
                <circle id="rim" cx="0" cy="0" r="7"/>
                <circle id="rim2" cx="0" cy="0" r="3.5"/>
                <g id="zoomPlus">
                        <use xlink:href="#rim" fill="#404040">
                                <set attributeName="fill" to="#808080" begin="zoomplus.mouseover" end="zoomplus.mouseout"/>
                        </use>
                        <path d="M-4,0h8M0,-4v8" fill="none" stroke="white" stroke-width="1.5" pointer-events="none"/>
                </g>
                <g id="zoomMin">
                        <use xlink:href="#rim" fill="#404040">
                                <set attributeName="fill" to="#808080" begin="zoomminus.mouseover" end="zoomminus.mouseout"/>
                        </use>
                        <path d="M-4,0h8" fill="none" stroke="white" stroke-width="1.5" pointer-events="none"/>
                </g>
                <g id="dirArrow">
                        <path fill="none" stroke="white" stroke-width="1.5" d="M0,-3.0v7 M-2.5,-0.5L0,-3.0L2.5,-0.5"/>
                </g>
               <g id="resetDef">
                       <use xlink:href="#rim2" fill="#404040">
                               <set attributeName="fill" to="#808080" begin="reset.mouseover" end="reset.mouseout"/>
                       </use>
               </g>
        </defs>

<script type="text/javascript">
var viewWidth = 1445;
var viewHeight = 475;
var sectionId = 'dynsection-0';
</script>
<script xlink:href="svgpan.js"/>
<svg id="graph" class="graph">
<g id="viewport">
<title>ViennaRNA/plot_structure.h</title>
<!-- Node0 -->
<g id="node1" class="node">
<title>Node0</title>
<polygon fill="#bfbfbf" stroke="#000000" points="0,-447.5 0,-466.5 139,-466.5 139,-447.5 0,-447.5"/>
<text text-anchor="middle" x="69.5" y="-454.5" font-family="Helvetica,sans-Serif" font-size="10.00" fill="#000000">ViennaRNA/plot_structure.h</text>
</g>
<!-- Node1 -->
<g id="node2" class="node">
<title>Node1</title>
<g id="a_node2"><a xlink:href="plotting_2structures_8h.html" target="_top" xlink:title="Various functions for plotting RNA secondary structures. ">
<polygon fill="none" stroke="#000000" points="18,-380.5 18,-410.5 121,-410.5 121,-380.5 18,-380.5"/>
<text text-anchor="start" x="26" y="-398.5" font-family="Helvetica,sans-Serif" font-size="10.00" fill="#000000">ViennaRNA/plotting</text>
<text text-anchor="middle" x="69.5" y="-387.5" font-family="Helvetica,sans-Serif" font-size="10.00" fill="#000000">/structures.h</text>
</a>
</g>
</g>
<!-- Node0&#45;&gt;Node1 -->
<g id="edge1" class="edge">
<title>Node0&#45;&gt;Node1</title>
<path fill="none" stroke="#191970" d="M69.5,-447.3906C69.5,-440.2234 69.5,-430.0862 69.5,-420.671"/>
<polygon fill="#191970" stroke="#191970" points="73.0001,-420.5446 69.5,-410.5446 66.0001,-420.5446 73.0001,-420.5446"/>
</g>
<!-- Node2 -->
<g id="node3" class="node">
<title>Node2</title>
<g id="a_node3"><a xlink:href="model_8h.html" target="_top" xlink:title="The model details data structure and its corresponding modifiers. ">
<polygon fill="none" stroke="#000000" points="287.5,-62 287.5,-81 393.5,-81 393.5,-62 287.5,-62"/>
<text text-anchor="middle" x="340.5" y="-69" font-family="Helvetica,sans-Serif" font-size="10.00" fill="#000000">ViennaRNA/model.h</text>
</a>
</g>
</g>
<!-- Node1&#45;&gt;Node2 -->
<g id="edge2" class="edge">
<title>Node1&#45;&gt;Node2</title>
<path fill="none" stroke="#191970" d="M61.7876,-380.2643C50.1641,-355.8526 29.5,-306.172 29.5,-261.5 29.5,-261.5 29.5,-261.5 29.5,-200 29.5,-157.4214 50.5797,-145.862 86.5,-123 117.5315,-103.2495 212.5352,-87.7199 277.1368,-79.0762"/>
<polygon fill="#191970" stroke="#191970" points="277.7715,-82.5229 287.2295,-77.7484 276.8584,-75.5827 277.7715,-82.5229"/>
</g>
<!-- Node3 -->
<g id="node4" class="node">
<title>Node3</title>
<g id="a_node4"><a xlink:href="layouts_8h.html" target="_top" xlink:title="Secondary structure plot layout algorithms. ">
<polygon fill="none" stroke="#000000" points="342,-313.5 342,-343.5 445,-343.5 445,-313.5 342,-313.5"/>
<text text-anchor="start" x="350" y="-331.5" font-family="Helvetica,sans-Serif" font-size="10.00" fill="#000000">ViennaRNA/plotting</text>
<text text-anchor="middle" x="393.5" y="-320.5" font-family="Helvetica,sans-Serif" font-size="10.00" fill="#000000">/layouts.h</text>
</a>
</g>
</g>
<!-- Node1&#45;&gt;Node3 -->
<g id="edge3" class="edge">
<title>Node1&#45;&gt;Node3</title>
<path fill="none" stroke="#191970" d="M121.197,-384.8096C178.5689,-372.9456 271.0905,-353.8131 332.102,-341.1965"/>
<polygon fill="#191970" stroke="#191970" points="332.9031,-344.605 341.9871,-339.1524 331.4855,-337.75 332.9031,-344.605"/>
</g>
<!-- Node4 -->
<g id="node5" class="node">
<title>Node4</title>
<g id="a_node5"><a xlink:href="datastructures_2basic_8h.html" target="_top" xlink:title="Various data structures and pre&#45;processor macros. ">
<polygon fill="none" stroke="#000000" points="748.5,-246.5 748.5,-276.5 882.5,-276.5 882.5,-246.5 748.5,-246.5"/>
<text text-anchor="start" x="756.5" y="-264.5" font-family="Helvetica,sans-Serif" font-size="10.00" fill="#000000">ViennaRNA/datastructures</text>
<text text-anchor="middle" x="815.5" y="-253.5" font-family="Helvetica,sans-Serif" font-size="10.00" fill="#000000">/basic.h</text>
</a>
</g>
</g>
<!-- Node3&#45;&gt;Node4 -->
<g id="edge4" class="edge">
<title>Node3&#45;&gt;Node4</title>
<path fill="none" stroke="#191970" d="M445.2455,-320.2845C518.5278,-308.6496 653.0834,-287.2865 738.2252,-273.7687"/>
<polygon fill="#191970" stroke="#191970" points="739.0285,-277.1851 748.3559,-272.1603 737.9308,-270.2717 739.0285,-277.1851"/>
</g>
<!-- Node19 -->
<g id="node20" class="node">
<title>Node19</title>
<g id="a_node20"><a xlink:href="plotting_2naview_8h.html" target="_top" xlink:title="ViennaRNA/plotting\l/naview.h">
<polygon fill="none" stroke="#000000" points="342,-246.5 342,-276.5 445,-276.5 445,-246.5 342,-246.5"/>
<text text-anchor="start" x="350" y="-264.5" font-family="Helvetica,sans-Serif" font-size="10.00" fill="#000000">ViennaRNA/plotting</text>
<text text-anchor="middle" x="393.5" y="-253.5" font-family="Helvetica,sans-Serif" font-size="10.00" fill="#000000">/naview.h</text>
</a>
</g>
</g>
<!-- Node3&#45;&gt;Node19 -->
<g id="edge40" class="edge">
<title>Node3&#45;&gt;Node19</title>
<path fill="none" stroke="#191970" d="M393.5,-313.2967C393.5,-305.5013 393.5,-295.7991 393.5,-286.9064"/>
<polygon fill="#191970" stroke="#191970" points="397.0001,-286.6431 393.5,-276.6432 390.0001,-286.6432 397.0001,-286.6431"/>
</g>
<!-- Node4&#45;&gt;Node2 -->
<g id="edge31" class="edge">
<title>Node4&#45;&gt;Node2</title>
<path fill="none" stroke="#191970" d="M748.3795,-254.8683C667.9296,-244.2955 531.6963,-217.8366 433.5,-154 417.706,-143.7324 380.2095,-109.1077 357.9513,-88.1174"/>
<polygon fill="#191970" stroke="#191970" points="360.177,-85.4048 350.5088,-81.0714 355.3645,-90.4881 360.177,-85.4048"/>
</g>
<!-- Node5 -->
<g id="node6" class="node">
<title>Node5</title>
<g id="a_node6"><a xlink:href="constants_8h.html" target="_top" xlink:title="Energy parameter constants. ">
<polygon fill="none" stroke="#000000" points="37.5,-62 37.5,-81 195.5,-81 195.5,-62 37.5,-62"/>
<text text-anchor="middle" x="116.5" y="-69" font-family="Helvetica,sans-Serif" font-size="10.00" fill="#000000">ViennaRNA/params/constants.h</text>
</a>
</g>
</g>
<!-- Node4&#45;&gt;Node5 -->
<g id="edge5" class="edge">
<title>Node4&#45;&gt;Node5</title>
<path fill="none" stroke="#191970" d="M748.4693,-256.8507C575.8417,-244.1638 126.6811,-206.3648 86.5,-154 71.5105,-134.4654 87.3896,-106.7284 101.1449,-88.9227"/>
<polygon fill="#191970" stroke="#191970" points="103.9562,-91.0139 107.5824,-81.0589 98.5396,-86.5798 103.9562,-91.0139"/>
</g>
<!-- Node7 -->
<g id="node8" class="node">
<title>Node7</title>
<g id="a_node8"><a xlink:href="fold__compound_8h.html" target="_top" xlink:title="The Basic Fold Compound API. ">
<polygon fill="none" stroke="#000000" points="603.5,-190.5 603.5,-209.5 749.5,-209.5 749.5,-190.5 603.5,-190.5"/>
<text text-anchor="middle" x="676.5" y="-197.5" font-family="Helvetica,sans-Serif" font-size="10.00" fill="#000000">ViennaRNA/fold_compound.h</text>
</a>
</g>
</g>
<!-- Node4&#45;&gt;Node7 -->
<g id="edge7" class="edge">
<title>Node4&#45;&gt;Node7</title>
<path fill="none" stroke="#191970" d="M781.4968,-246.4554C758.8129,-236.419 729.2327,-223.3314 707.2521,-213.6061"/>
<polygon fill="#191970" stroke="#191970" points="708.6011,-210.3758 698.0401,-209.5303 705.7688,-216.7772 708.6011,-210.3758"/>
</g>
<!-- Node8 -->
<g id="node9" class="node">
<title>Node8</title>
<g id="a_node9"><a xlink:href="params_2basic_8h.html" target="_top" xlink:title="Functions to deal with sets of energy parameters. ">
<polygon fill="none" stroke="#000000" points="95.5,-129 95.5,-148 233.5,-148 233.5,-129 95.5,-129"/>
<text text-anchor="middle" x="164.5" y="-136" font-family="Helvetica,sans-Serif" font-size="10.00" fill="#000000">ViennaRNA/params/basic.h</text>
</a>
</g>
</g>
<!-- Node4&#45;&gt;Node8 -->
<g id="edge32" class="edge">
<title>Node4&#45;&gt;Node8</title>
<path fill="none" stroke="#191970" d="M748.1548,-258.852C657.9539,-254.1039 493.7651,-241.5033 357.5,-210 295.877,-195.7533 227.0104,-168.8939 190.3373,-152.4583"/>
<polygon fill="#191970" stroke="#191970" points="191.4285,-149.1082 180.88,-148.1182 188.5088,-155.4702 191.4285,-149.1082"/>
</g>
<!-- Node10 -->
<g id="node11" class="node">
<title>Node10</title>
<g id="a_node11"><a xlink:href="dp__matrices_8h.html" target="_top" xlink:title="Functions to deal with standard dynamic programming (DP) matrices. ">
<polygon fill="none" stroke="#000000" points="252,-129 252,-148 385,-148 385,-129 252,-129"/>
<text text-anchor="middle" x="318.5" y="-136" font-family="Helvetica,sans-Serif" font-size="10.00" fill="#000000">ViennaRNA/dp_matrices.h</text>
</a>
</g>
</g>
<!-- Node4&#45;&gt;Node10 -->
<g id="edge33" class="edge">
<title>Node4&#45;&gt;Node10</title>
<path fill="none" stroke="#191970" d="M748.3267,-258.3356C644.8821,-252.4643 452.3752,-237.8679 390.5,-210 363.515,-197.8462 339.0243,-173.5136 326.3111,-156.6313"/>
<polygon fill="#191970" stroke="#191970" points="329.0466,-154.4306 320.5188,-148.1434 323.2646,-158.3763 329.0466,-154.4306"/>
</g>
<!-- Node11 -->
<g id="node12" class="node">
<title>Node11</title>
<g id="a_node12"><a xlink:href="hard_8h.html" target="_top" xlink:title="Functions and data structures for handling of secondary structure hard constraints. ">
<polygon fill="none" stroke="#000000" points="756,-123.5 756,-153.5 875,-153.5 875,-123.5 756,-123.5"/>
<text text-anchor="start" x="764" y="-141.5" font-family="Helvetica,sans-Serif" font-size="10.00" fill="#000000">ViennaRNA/constraints</text>
<text text-anchor="middle" x="815.5" y="-130.5" font-family="Helvetica,sans-Serif" font-size="10.00" fill="#000000">/hard.h</text>
</a>
</g>
</g>
<!-- Node4&#45;&gt;Node11 -->
<g id="edge34" class="edge">
<title>Node4&#45;&gt;Node11</title>
<path fill="none" stroke="#191970" d="M810.8857,-246.4178C808.4095,-225.8539 808.0865,-188.7363 809.9169,-163.8546"/>
<polygon fill="#191970" stroke="#191970" points="813.4196,-163.9893 810.8709,-153.7056 806.4503,-163.3341 813.4196,-163.9893"/>
</g>
<!-- Node13 -->
<g id="node14" class="node">
<title>Node13</title>
<g id="a_node14"><a xlink:href="soft_8h.html" target="_top" xlink:title="Functions and data structures for secondary structure soft constraints. ">
<polygon fill="none" stroke="#000000" points="1026,-123.5 1026,-153.5 1145,-153.5 1145,-123.5 1026,-123.5"/>
<text text-anchor="start" x="1034" y="-141.5" font-family="Helvetica,sans-Serif" font-size="10.00" fill="#000000">ViennaRNA/constraints</text>
<text text-anchor="middle" x="1085.5" y="-130.5" font-family="Helvetica,sans-Serif" font-size="10.00" fill="#000000">/soft.h</text>
</a>
</g>
</g>
<!-- Node4&#45;&gt;Node13 -->
<g id="edge35" class="edge">
<title>Node4&#45;&gt;Node13</title>
<path fill="none" stroke="#191970" d="M843.993,-246.4178C890.418,-224.0411 982.4185,-182.0638 1038.5693,-157.5795"/>
<polygon fill="#191970" stroke="#191970" points="1040.159,-160.7051 1047.9387,-153.513 1037.372,-154.2838 1040.159,-160.7051"/>
</g>
<!-- Node14 -->
<g id="node15" class="node">
<title>Node14</title>
<g id="a_node15"><a xlink:href="grammar_8h.html" target="_top" xlink:title="Implementations for the RNA folding grammar. ">
<polygon fill="none" stroke="#000000" points="442,-129 442,-148 559,-148 559,-129 442,-129"/>
<text text-anchor="middle" x="500.5" y="-136" font-family="Helvetica,sans-Serif" font-size="10.00" fill="#000000">ViennaRNA/grammar.h</text>
</a>
</g>
</g>
<!-- Node4&#45;&gt;Node14 -->
<g id="edge36" class="edge">
<title>Node4&#45;&gt;Node14</title>
<path fill="none" stroke="#191970" d="M748.2956,-253.3514C703.1993,-246.1041 643.3407,-232.97 594.5,-210 564.7333,-196.0006 535.3586,-171.4675 517.5748,-155.1012"/>
<polygon fill="#191970" stroke="#191970" points="519.9427,-152.5234 510.2598,-148.2234 515.1477,-157.6233 519.9427,-152.5234"/>
</g>
<!-- Node15 -->
<g id="node16" class="node">
<title>Node15</title>
<g id="a_node16"><a xlink:href="structured__domains_8h.html" target="_top" xlink:title="This module provides interfaces that deal with additional structured domains in the folding grammar...">
<polygon fill="none" stroke="#000000" points="893,-123.5 893,-153.5 1008,-153.5 1008,-123.5 893,-123.5"/>
<text text-anchor="start" x="901" y="-141.5" font-family="Helvetica,sans-Serif" font-size="10.00" fill="#000000">ViennaRNA/structured</text>
<text text-anchor="middle" x="950.5" y="-130.5" font-family="Helvetica,sans-Serif" font-size="10.00" fill="#000000">_domains.h</text>
</a>
</g>
</g>
<!-- Node4&#45;&gt;Node15 -->
<g id="edge37" class="edge">
<title>Node4&#45;&gt;Node15</title>
<path fill="none" stroke="#191970" d="M832.0536,-246.4178C855.6359,-224.9317 899.0528,-185.3741 926.2618,-160.5837"/>
<polygon fill="#191970" stroke="#191970" points="928.7762,-163.0277 933.8109,-153.7056 924.0617,-157.8533 928.7762,-163.0277"/>
</g>
<!-- Node16 -->
<g id="node17" class="node">
<title>Node16</title>
<g id="a_node17"><a xlink:href="unstructured__domains_8h.html" target="_top" xlink:title="Functions to modify unstructured domains, e.g. to incorporate ligands binding to unpaired stretches...">
<polygon fill="none" stroke="#000000" points="1202,-123.5 1202,-153.5 1327,-153.5 1327,-123.5 1202,-123.5"/>
<text text-anchor="start" x="1210" y="-141.5" font-family="Helvetica,sans-Serif" font-size="10.00" fill="#000000">ViennaRNA/unstructured</text>
<text text-anchor="middle" x="1264.5" y="-130.5" font-family="Helvetica,sans-Serif" font-size="10.00" fill="#000000">_domains.h</text>
</a>
</g>
</g>
<!-- Node4&#45;&gt;Node16 -->
<g id="edge38" class="edge">
<title>Node4&#45;&gt;Node16</title>
<path fill="none" stroke="#191970" d="M882.8264,-256.5783C972.9315,-249.4538 1127.1042,-234.383 1178.5,-210 1202.154,-198.7781 1223.4864,-177.6673 1239.252,-161.282"/>
<polygon fill="#191970" stroke="#191970" points="1242.1414,-163.3251 1246.53,-153.6819 1237.0857,-158.4836 1242.1414,-163.3251"/>
</g>
<!-- Node17 -->
<g id="node18" class="node">
<title>Node17</title>
<g id="a_node18"><a xlink:href="utils_2structures_8h.html" target="_top" xlink:title="Various utility&#45; and helper&#45;functions for secondary structure parsing, converting, etc. ">
<polygon fill="none" stroke="#000000" points="1292.5,-62 1292.5,-81 1436.5,-81 1436.5,-62 1292.5,-62"/>
<text text-anchor="middle" x="1364.5" y="-69" font-family="Helvetica,sans-Serif" font-size="10.00" fill="#000000">ViennaRNA/utils/structures.h</text>
</a>
</g>
</g>
<!-- Node4&#45;&gt;Node17 -->
<g id="edge39" class="edge">
<title>Node4&#45;&gt;Node17</title>
<path fill="none" stroke="#191970" d="M882.5018,-255.2948C979.6433,-246.262 1154.375,-228.5373 1215.5,-210 1268.758,-193.8485 1290.9216,-195.944 1327.5,-154 1343.133,-136.0739 1350.1254,-109.041 1355.2798,-90.8535"/>
<polygon fill="#191970" stroke="#191970" points="1358.6946,-91.6525 1358.2328,-81.0677 1351.993,-89.6302 1358.6946,-91.6525"/>
</g>
<!-- Node6 -->
<g id="node7" class="node">
<title>Node6</title>
<polygon fill="none" stroke="#bfbfbf" points="92.5,-.5 92.5,-19.5 140.5,-19.5 140.5,-.5 92.5,-.5"/>
<text text-anchor="middle" x="116.5" y="-7.5" font-family="Helvetica,sans-Serif" font-size="10.00" fill="#000000">limits.h</text>
</g>
<!-- Node5&#45;&gt;Node6 -->
<g id="edge6" class="edge">
<title>Node5&#45;&gt;Node6</title>
<path fill="none" stroke="#191970" d="M116.5,-61.8906C116.5,-53.3657 116.5,-40.6392 116.5,-29.9235"/>
<polygon fill="#191970" stroke="#191970" points="120.0001,-29.7448 116.5,-19.7449 113.0001,-29.7449 120.0001,-29.7448"/>
</g>
<!-- Node7&#45;&gt;Node2 -->
<g id="edge8" class="edge">
<title>Node7&#45;&gt;Node2</title>
<path fill="none" stroke="#191970" d="M660.8971,-190.3945C646.5028,-181.3822 624.6752,-167.331 606.5,-154 588.9248,-141.1091 588.0954,-132.5437 568.5,-123 516.326,-97.5894 451.294,-84.4977 404.0507,-77.8912"/>
<polygon fill="#191970" stroke="#191970" points="404.3266,-74.397 393.9506,-76.5394 403.3979,-81.3351 404.3266,-74.397"/>
</g>
<!-- Node7&#45;&gt;Node8 -->
<g id="edge9" class="edge">
<title>Node7&#45;&gt;Node8</title>
<path fill="none" stroke="#191970" d="M603.2906,-194.2773C516.8061,-187.0468 368.7208,-173.19 242.5,-154 234.8221,-152.8327 226.7525,-151.43 218.8339,-149.9518"/>
<polygon fill="#191970" stroke="#191970" points="219.4058,-146.4977 208.9254,-148.051 218.0869,-153.3724 219.4058,-146.4977"/>
</g>
<!-- Node9 -->
<g id="node10" class="node">
<title>Node9</title>
<g id="a_node10"><a xlink:href="sequence_8h.html" target="_top" xlink:title="Functions and data structures related to sequence representations ,. ">
<polygon fill="none" stroke="#000000" points="615.5,-129 615.5,-148 737.5,-148 737.5,-129 615.5,-129"/>
<text text-anchor="middle" x="676.5" y="-136" font-family="Helvetica,sans-Serif" font-size="10.00" fill="#000000">ViennaRNA/sequence.h</text>
</a>
</g>
</g>
<!-- Node7&#45;&gt;Node9 -->
<g id="edge13" class="edge">
<title>Node7&#45;&gt;Node9</title>
<path fill="none" stroke="#191970" d="M676.5,-190.3906C676.5,-181.8657 676.5,-169.1392 676.5,-158.4235"/>
<polygon fill="#191970" stroke="#191970" points="680.0001,-158.2448 676.5,-148.2449 673.0001,-158.2449 680.0001,-158.2448"/>
</g>
<!-- Node7&#45;&gt;Node10 -->
<g id="edge14" class="edge">
<title>Node7&#45;&gt;Node10</title>
<path fill="none" stroke="#191970" d="M620.9553,-190.4581C556.9736,-179.4668 451.9623,-161.4272 384.0374,-149.7585"/>
<polygon fill="#191970" stroke="#191970" points="384.3287,-146.2574 373.8804,-148.0137 383.1435,-153.1563 384.3287,-146.2574"/>
</g>
<!-- Node7&#45;&gt;Node11 -->
<g id="edge16" class="edge">
<title>Node7&#45;&gt;Node11</title>
<path fill="none" stroke="#191970" d="M698.2188,-190.3906C717.9016,-181.682 747.4944,-168.5888 772.0288,-157.7336"/>
<polygon fill="#191970" stroke="#191970" points="773.768,-160.7915 781.4968,-153.5446 770.9357,-154.3901 773.768,-160.7915"/>
</g>
<!-- Node7&#45;&gt;Node13 -->
<g id="edge20" class="edge">
<title>Node7&#45;&gt;Node13</title>
<path fill="none" stroke="#191970" d="M749.6374,-192.0643C816.5921,-184.3591 918.6047,-171.5162 1015.8568,-154.2127"/>
<polygon fill="#191970" stroke="#191970" points="1016.6357,-157.6289 1025.8583,-152.4142 1015.3967,-150.7394 1016.6357,-157.6289"/>
</g>
<!-- Node7&#45;&gt;Node14 -->
<g id="edge23" class="edge">
<title>Node7&#45;&gt;Node14</title>
<path fill="none" stroke="#191970" d="M643.9375,-190.3906C612.0678,-179.9652 564.0542,-163.2559 532.4139,-151.6252"/>
<polygon fill="#191970" stroke="#191970" points="533.3506,-148.2397 522.7576,-148.0419 530.9152,-154.8024 533.3506,-148.2397"/>
</g>
<!-- Node7&#45;&gt;Node15 -->
<g id="edge25" class="edge">
<title>Node7&#45;&gt;Node15</title>
<path fill="none" stroke="#191970" d="M720.3619,-190.4734C760.3438,-181.7506 821.3057,-168.3537 883.0107,-154.3259"/>
<polygon fill="#191970" stroke="#191970" points="883.9442,-157.703 892.9173,-152.0697 882.3897,-150.8778 883.9442,-157.703"/>
</g>
<!-- Node7&#45;&gt;Node16 -->
<g id="edge26" class="edge">
<title>Node7&#45;&gt;Node16</title>
<path fill="none" stroke="#191970" d="M749.8975,-193.9475C843.8185,-185.9706 1011.4801,-170.9498 1154.5,-154 1166.4699,-152.5814 1179.1516,-150.9316 1191.4842,-149.2481"/>
<polygon fill="#191970" stroke="#191970" points="1192.3117,-152.667 1201.7381,-147.8303 1191.3529,-145.733 1192.3117,-152.667"/>
</g>
<!-- Node8&#45;&gt;Node2 -->
<g id="edge12" class="edge">
<title>Node8&#45;&gt;Node2</title>
<path fill="none" stroke="#191970" d="M189.7165,-128.9005C220.1681,-117.3082 271.5485,-97.7486 305.743,-84.7313"/>
<polygon fill="#191970" stroke="#191970" points="307.2298,-87.9105 315.3303,-81.0817 304.7393,-81.3685 307.2298,-87.9105"/>
</g>
<!-- Node8&#45;&gt;Node4 -->
<g id="edge11" class="edge">
<title>Node8&#45;&gt;Node4</title>
<path fill="none" stroke="#191970" d="M191.9762,-148.1182C231.9971,-163.732 308.0834,-194.4139 375.5,-210 500.6926,-238.9434 649.4552,-251.9313 738.0432,-257.5331"/>
<polygon fill="#191970" stroke="#191970" points="738.0812,-261.042 748.2777,-258.1642 738.5121,-254.0552 738.0812,-261.042"/>
</g>
<!-- Node8&#45;&gt;Node5 -->
<g id="edge10" class="edge">
<title>Node8&#45;&gt;Node5</title>
<path fill="none" stroke="#191970" d="M157.6228,-128.9005C150.2802,-118.6515 138.4759,-102.1747 129.3938,-89.4976"/>
<polygon fill="#191970" stroke="#191970" points="132.0336,-87.1724 123.3645,-81.0817 126.3432,-91.2492 132.0336,-87.1724"/>
</g>
<!-- Node10&#45;&gt;Node4 -->
<g id="edge15" class="edge">
<title>Node10&#45;&gt;Node4</title>
<path fill="none" stroke="#191970" d="M331.503,-148.1434C348.0392,-164.0838 376.5177,-195.5955 408.5,-210 466.0755,-235.9314 636.7581,-250.3716 737.9377,-256.9837"/>
<polygon fill="#191970" stroke="#191970" points="737.905,-260.4887 748.1089,-257.6374 738.354,-253.5032 737.905,-260.4887"/>
</g>
<!-- Node11&#45;&gt;Node4 -->
<g id="edge17" class="edge">
<title>Node11&#45;&gt;Node4</title>
<path fill="none" stroke="#191970" d="M820.1291,-153.7056C822.5967,-174.3355 822.9111,-211.4615 821.0721,-236.2943"/>
<polygon fill="#191970" stroke="#191970" points="817.5719,-236.1325 820.1143,-246.4178 824.5408,-236.792 817.5719,-236.1325"/>
</g>
<!-- Node12 -->
<g id="node13" class="node">
<title>Node12</title>
<g id="a_node13"><a xlink:href="constraints_2basic_8h.html" target="_top" xlink:title="Functions and data structures for constraining secondary structure predictions and evaluation...">
<polygon fill="none" stroke="#000000" points="1026,-56.5 1026,-86.5 1145,-86.5 1145,-56.5 1026,-56.5"/>
<text text-anchor="start" x="1034" y="-74.5" font-family="Helvetica,sans-Serif" font-size="10.00" fill="#000000">ViennaRNA/constraints</text>
<text text-anchor="middle" x="1085.5" y="-63.5" font-family="Helvetica,sans-Serif" font-size="10.00" fill="#000000">/basic.h</text>
</a>
</g>
</g>
<!-- Node11&#45;&gt;Node12 -->
<g id="edge18" class="edge">
<title>Node11&#45;&gt;Node12</title>
<path fill="none" stroke="#191970" d="M875.0869,-123.7136C916.5803,-113.4171 972.0684,-99.6478 1015.6451,-88.8344"/>
<polygon fill="#191970" stroke="#191970" points="1016.7365,-92.1698 1025.5992,-86.3643 1015.0506,-85.3758 1016.7365,-92.1698"/>
</g>
<!-- Node12&#45;&gt;Node4 -->
<g id="edge19" class="edge">
<title>Node12&#45;&gt;Node4</title>
<path fill="none" stroke="#191970" d="M1113.3196,-86.5292C1139.5878,-102.7097 1172.4766,-129.4407 1154.5,-154 1123.3481,-196.5592 982.7931,-230.1913 892.7329,-247.8567"/>
<polygon fill="#191970" stroke="#191970" points="891.9777,-244.4378 882.8258,-249.7757 893.309,-251.3101 891.9777,-244.4378"/>
</g>
<!-- Node13&#45;&gt;Node4 -->
<g id="edge21" class="edge">
<title>Node13&#45;&gt;Node4</title>
<path fill="none" stroke="#191970" d="M1057.1506,-153.513C1010.8198,-175.8491 918.8294,-217.8243 862.6047,-242.3446"/>
<polygon fill="#191970" stroke="#191970" points="861.0009,-239.2252 853.2216,-246.4178 863.7883,-245.6463 861.0009,-239.2252"/>
</g>
<!-- Node13&#45;&gt;Node12 -->
<g id="edge22" class="edge">
<title>Node13&#45;&gt;Node12</title>
<path fill="none" stroke="#191970" d="M1085.5,-123.2967C1085.5,-115.5013 1085.5,-105.7991 1085.5,-96.9064"/>
<polygon fill="#191970" stroke="#191970" points="1089.0001,-96.6431 1085.5,-86.6432 1082.0001,-96.6432 1089.0001,-96.6431"/>
</g>
<!-- Node14&#45;&gt;Node7 -->
<g id="edge24" class="edge">
<title>Node14&#45;&gt;Node7</title>
<path fill="none" stroke="#191970" d="M532.8562,-148.0419C564.656,-158.4402 612.6699,-175.1468 644.3808,-186.7993"/>
<polygon fill="#191970" stroke="#191970" points="643.4695,-190.1943 654.0625,-190.3906 645.904,-183.6312 643.4695,-190.1943"/>
</g>
<!-- Node16&#45;&gt;Node4 -->
<g id="edge27" class="edge">
<title>Node16&#45;&gt;Node4</title>
<path fill="none" stroke="#191970" d="M1259.5331,-153.6819C1248.4058,-170.4935 1224.0247,-196.9418 1196.5,-210 1144.7087,-234.5707 988.5527,-249.6852 892.9243,-256.7414"/>
<polygon fill="#191970" stroke="#191970" points="892.441,-253.2671 882.7201,-257.4807 892.9469,-260.2488 892.441,-253.2671"/>
</g>
<!-- Node16&#45;&gt;Node17 -->
<g id="edge28" class="edge">
<title>Node16&#45;&gt;Node17</title>
<path fill="none" stroke="#191970" d="M1287.1915,-123.2967C1303.5283,-112.351 1325.4759,-97.6462 1341.8119,-86.701"/>
<polygon fill="#191970" stroke="#191970" points="1343.8793,-89.5289 1350.2388,-81.055 1339.983,-83.7135 1343.8793,-89.5289"/>
</g>
<!-- Node17&#45;&gt;Node4 -->
<g id="edge30" class="edge">
<title>Node17&#45;&gt;Node4</title>
<path fill="none" stroke="#191970" d="M1368.9895,-81.0677C1370.5965,-97.7551 1364.2889,-132.455 1345.5,-154 1308.9216,-195.944 1286.758,-193.8485 1233.5,-210 1172.025,-228.6434 995.6388,-246.4649 892.6336,-255.4491"/>
<polygon fill="#191970" stroke="#191970" points="892.2559,-251.9686 882.5945,-256.3169 892.8588,-258.9426 892.2559,-251.9686"/>
</g>
<!-- Node18 -->
<g id="node19" class="node">
<title>Node18</title>
<polygon fill="none" stroke="#bfbfbf" points="1341.5,-.5 1341.5,-19.5 1387.5,-19.5 1387.5,-.5 1341.5,-.5"/>
<text text-anchor="middle" x="1364.5" y="-7.5" font-family="Helvetica,sans-Serif" font-size="10.00" fill="#000000">stdio.h</text>
</g>
<!-- Node17&#45;&gt;Node18 -->
<g id="edge29" class="edge">
<title>Node17&#45;&gt;Node18</title>
<path fill="none" stroke="#191970" d="M1364.5,-61.8906C1364.5,-53.3657 1364.5,-40.6392 1364.5,-29.9235"/>
<polygon fill="#191970" stroke="#191970" points="1368.0001,-29.7448 1364.5,-19.7449 1361.0001,-29.7449 1368.0001,-29.7448"/>
</g>
</g>
</svg>
        <g id="navigator" transform="translate(0 0)" fill="#404254">
                <rect fill="#f2f5e9" fill-opacity="0.5" stroke="#606060" stroke-width=".5" x="0" y="0" width="60" height="60"/>
                <use id="zoomplus" xlink:href="#zoomPlus" x="17" y="9" onmousedown="handleZoom(evt,'in')"/>
                <use id="zoomminus" xlink:href="#zoomMin" x="42" y="9" onmousedown="handleZoom(evt,'out')"/>
                <use id="reset" xlink:href="#resetDef" x="30" y="36" onmousedown="handleReset()"/>
                <g id="arrowUp" xlink:href="#dirArrow" transform="translate(30 24)" onmousedown="handlePan(0,-1)">
                  <use xlink:href="#rim" fill="#404040">
                        <set attributeName="fill" to="#808080" begin="arrowUp.mouseover" end="arrowUp.mouseout"/>
                  </use>
                  <path fill="none" stroke="white" stroke-width="1.5" d="M0,-3.0v7 M-2.5,-0.5L0,-3.0L2.5,-0.5"/>
                </g>
                <g id="arrowRight" xlink:href="#dirArrow" transform="rotate(90) translate(36 -43)" onmousedown="handlePan(1,0)">
                  <use xlink:href="#rim" fill="#404040">
                        <set attributeName="fill" to="#808080" begin="arrowRight.mouseover" end="arrowRight.mouseout"/>
                  </use>
                  <path fill="none" stroke="white" stroke-width="1.5" d="M0,-3.0v7 M-2.5,-0.5L0,-3.0L2.5,-0.5"/>
                </g>
                <g id="arrowDown" xlink:href="#dirArrow" transform="rotate(180) translate(-30 -48)" onmousedown="handlePan(0,1)">
                  <use xlink:href="#rim" fill="#404040">
                        <set attributeName="fill" to="#808080" begin="arrowDown.mouseover" end="arrowDown.mouseout"/>
                  </use>
                  <path fill="none" stroke="white" stroke-width="1.5" d="M0,-3.0v7 M-2.5,-0.5L0,-3.0L2.5,-0.5"/>
                </g>
                <g id="arrowLeft" xlink:href="#dirArrow" transform="rotate(270) translate(-36 17)" onmousedown="handlePan(-1,0)">
                  <use xlink:href="#rim" fill="#404040">
                        <set attributeName="fill" to="#808080" begin="arrowLeft.mouseover" end="arrowLeft.mouseout"/>
                  </use>
                  <path fill="none" stroke="white" stroke-width="1.5" d="M0,-3.0v7 M-2.5,-0.5L0,-3.0L2.5,-0.5"/>
                </g>
        </g>
        <svg viewBox="0 0 15 15" width="100%" height="30px" preserveAspectRatio="xMaxYMin meet">
         <g id="arrow_out" transform="scale(0.3 0.3)">
          <a xlink:href="plot__structure_8h__incl_org.svg" target="_base">
           <rect id="button" ry="5" rx="5" y="6" x="6" height="38" width="38"
                fill="#f2f5e9" fill-opacity="0.5" stroke="#606060" stroke-width="1.0"/>
           <path id="arrow"
             d="M 11.500037,31.436501 C 11.940474,20.09759 22.043105,11.32322 32.158766,21.979434 L 37.068811,17.246167 C 37.068811,17.246167 37.088388,32 37.088388,32 L 22.160133,31.978069 C 22.160133,31.978069 26.997745,27.140456 26.997745,27.140456 C 18.528582,18.264221 13.291696,25.230495 11.500037,31.436501 z"
             style="fill:#404040;"/>
          </a>
         </g>
        </svg>
</svg>
