<?xml version="1.0" encoding="UTF-8" standalone="no"?>
<!DOCTYPE svg PUBLIC "-//W3C//DTD SVG 1.1//EN"
 "http://www.w3.org/Graphics/SVG/1.1/DTD/svg11.dtd">
<!-- Generated by graphviz version 2.40.1 (20161225.0304)
 -->
<!-- Title: ViennaRNA/PS_dot.h Pages: 1 -->
<svg width="1416pt" height="475pt"
 viewBox="0.00 0.00 1416.00 475.00" xmlns="http://www.w3.org/2000/svg" xmlns:xlink="http://www.w3.org/1999/xlink">
<g id="graph0" class="graph" transform="scale(1 1) rotate(0) translate(4 471)">
<title>ViennaRNA/PS_dot.h</title>
<!-- Node0 -->
<g id="node1" class="node">
<title>Node0</title>
<polygon fill="#bfbfbf" stroke="#000000" points="600,-447.5 600,-466.5 712,-466.5 712,-447.5 600,-447.5"/>
<text text-anchor="middle" x="656" y="-454.5" font-family="Helvetica,sans-Serif" font-size="10.00" fill="#000000">ViennaRNA/PS_dot.h</text>
</g>
<!-- Node1 -->
<g id="node2" class="node">
<title>Node1</title>
<g id="a_node2"><a xlink:href="probabilities_8h.html" target="_top" xlink:title="Various functions for plotting RNA secondary structures, dot&#45;plots and other visualizations. ">
<polygon fill="none" stroke="#000000" points="708.5,-313.5 708.5,-343.5 811.5,-343.5 811.5,-313.5 708.5,-313.5"/>
<text text-anchor="start" x="716.5" y="-331.5" font-family="Helvetica,sans-Serif" font-size="10.00" fill="#000000">ViennaRNA/plotting</text>
<text text-anchor="middle" x="760" y="-320.5" font-family="Helvetica,sans-Serif" font-size="10.00" fill="#000000">/probabilities.h</text>
</a>
</g>
</g>
<!-- Node0&#45;&gt;Node1 -->
<g id="edge1" class="edge">
<title>Node0&#45;&gt;Node1</title>
<path fill="none" stroke="#191970" d="M663.8169,-447.3416C680.155,-427.1547 718.3093,-380.012 741.3507,-351.5427"/>
<polygon fill="#191970" stroke="#191970" points="744.1262,-353.6767 747.6967,-343.7016 738.685,-349.2729 744.1262,-353.6767"/>
</g>
<!-- Node18 -->
<g id="node19" class="node">
<title>Node18</title>
<g id="a_node19"><a xlink:href="layouts_8h.html" target="_top" xlink:title="Secondary structure plot layout algorithms. ">
<polygon fill="none" stroke="#000000" points="579.5,-313.5 579.5,-343.5 682.5,-343.5 682.5,-313.5 579.5,-313.5"/>
<text text-anchor="start" x="587.5" y="-331.5" font-family="Helvetica,sans-Serif" font-size="10.00" fill="#000000">ViennaRNA/plotting</text>
<text text-anchor="middle" x="631" y="-320.5" font-family="Helvetica,sans-Serif" font-size="10.00" fill="#000000">/layouts.h</text>
</a>
</g>
</g>
<!-- Node0&#45;&gt;Node18 -->
<g id="edge39" class="edge">
<title>Node0&#45;&gt;Node18</title>
<path fill="none" stroke="#191970" d="M654.1209,-447.3416C650.2947,-427.6745 641.4907,-382.4221 635.918,-353.7784"/>
<polygon fill="#191970" stroke="#191970" points="639.3029,-352.8491 633.9575,-343.7016 632.4317,-354.186 639.3029,-352.8491"/>
</g>
<!-- Node20 -->
<g id="node21" class="node">
<title>Node20</title>
<g id="a_node21"><a xlink:href="plotting_2structures_8h.html" target="_top" xlink:title="Various functions for plotting RNA secondary structures. ">
<polygon fill="none" stroke="#000000" points="524.5,-380.5 524.5,-410.5 627.5,-410.5 627.5,-380.5 524.5,-380.5"/>
<text text-anchor="start" x="532.5" y="-398.5" font-family="Helvetica,sans-Serif" font-size="10.00" fill="#000000">ViennaRNA/plotting</text>
<text text-anchor="middle" x="576" y="-387.5" font-family="Helvetica,sans-Serif" font-size="10.00" fill="#000000">/structures.h</text>
</a>
</g>
</g>
<!-- Node0&#45;&gt;Node20 -->
<g id="edge42" class="edge">
<title>Node0&#45;&gt;Node20</title>
<path fill="none" stroke="#191970" d="M643.5,-447.3906C632.8735,-439.2215 617.2281,-427.1941 603.675,-416.7752"/>
<polygon fill="#191970" stroke="#191970" points="605.6315,-413.8645 595.5702,-410.5446 601.3651,-419.4142 605.6315,-413.8645"/>
</g>
<!-- Node2 -->
<g id="node3" class="node">
<title>Node2</title>
<g id="a_node3"><a xlink:href="datastructures_2basic_8h.html" target="_top" xlink:title="Various data structures and pre&#45;processor macros. ">
<polygon fill="none" stroke="#000000" points="693,-246.5 693,-276.5 827,-276.5 827,-246.5 693,-246.5"/>
<text text-anchor="start" x="701" y="-264.5" font-family="Helvetica,sans-Serif" font-size="10.00" fill="#000000">ViennaRNA/datastructures</text>
<text text-anchor="middle" x="760" y="-253.5" font-family="Helvetica,sans-Serif" font-size="10.00" fill="#000000">/basic.h</text>
</a>
</g>
</g>
<!-- Node1&#45;&gt;Node2 -->
<g id="edge2" class="edge">
<title>Node1&#45;&gt;Node2</title>
<path fill="none" stroke="#191970" d="M760,-313.2967C760,-305.5013 760,-295.7991 760,-286.9064"/>
<polygon fill="#191970" stroke="#191970" points="763.5001,-286.6431 760,-276.6432 756.5001,-286.6432 763.5001,-286.6431"/>
</g>
<!-- Node16 -->
<g id="node17" class="node">
<title>Node16</title>
<g id="a_node17"><a xlink:href="utils_2structures_8h.html" target="_top" xlink:title="Various utility&#45; and helper&#45;functions for secondary structure parsing, converting, etc. ">
<polygon fill="none" stroke="#000000" points="1264,-62 1264,-81 1408,-81 1408,-62 1264,-62"/>
<text text-anchor="middle" x="1336" y="-69" font-family="Helvetica,sans-Serif" font-size="10.00" fill="#000000">ViennaRNA/utils/structures.h</text>
</a>
</g>
</g>
<!-- Node1&#45;&gt;Node16 -->
<g id="edge38" class="edge">
<title>Node1&#45;&gt;Node16</title>
<path fill="none" stroke="#191970" d="M811.5836,-321.7683C903.0163,-308.603 1098.2608,-274.8965 1251,-210 1293.6672,-191.8714 1316.6917,-194.6384 1339,-154 1349.6805,-134.5437 1346.3415,-108.4374 1342.0361,-90.8461"/>
<polygon fill="#191970" stroke="#191970" points="1345.3874,-89.8333 1339.3472,-81.1289 1338.641,-91.7002 1345.3874,-89.8333"/>
</g>
<!-- Node3 -->
<g id="node4" class="node">
<title>Node3</title>
<g id="a_node4"><a xlink:href="constants_8h.html" target="_top" xlink:title="Energy parameter constants. ">
<polygon fill="none" stroke="#000000" points="951,-62 951,-81 1109,-81 1109,-62 951,-62"/>
<text text-anchor="middle" x="1030" y="-69" font-family="Helvetica,sans-Serif" font-size="10.00" fill="#000000">ViennaRNA/params/constants.h</text>
</a>
</g>
</g>
<!-- Node2&#45;&gt;Node3 -->
<g id="edge3" class="edge">
<title>Node2&#45;&gt;Node3</title>
<path fill="none" stroke="#191970" d="M827.3798,-251.45C922.9226,-235.6654 1090.1839,-201.8489 1126,-154 1134.2563,-142.97 1133.0742,-134.823 1126,-123 1115.117,-104.8117 1095.3655,-92.6784 1076.5956,-84.7845"/>
<polygon fill="#191970" stroke="#191970" points="1077.8023,-81.4985 1067.2136,-81.1377 1075.2662,-88.0229 1077.8023,-81.4985"/>
</g>
<!-- Node5 -->
<g id="node6" class="node">
<title>Node5</title>
<g id="a_node6"><a xlink:href="fold__compound_8h.html" target="_top" xlink:title="The Basic Fold Compound API. ">
<polygon fill="none" stroke="#000000" points="577,-190.5 577,-209.5 723,-209.5 723,-190.5 577,-190.5"/>
<text text-anchor="middle" x="650" y="-197.5" font-family="Helvetica,sans-Serif" font-size="10.00" fill="#000000">ViennaRNA/fold_compound.h</text>
</a>
</g>
</g>
<!-- Node2&#45;&gt;Node5 -->
<g id="edge5" class="edge">
<title>Node2&#45;&gt;Node5</title>
<path fill="none" stroke="#191970" d="M733.091,-246.4554C715.7032,-236.734 693.1951,-224.15 675.9916,-214.5317"/>
<polygon fill="#191970" stroke="#191970" points="677.4826,-211.3554 667.0461,-209.5303 674.0665,-217.4653 677.4826,-211.3554"/>
</g>
<!-- Node6 -->
<g id="node7" class="node">
<title>Node6</title>
<g id="a_node7"><a xlink:href="model_8h.html" target="_top" xlink:title="The model details data structure and its corresponding modifiers. ">
<polygon fill="none" stroke="#000000" points="455,-62 455,-81 561,-81 561,-62 455,-62"/>
<text text-anchor="middle" x="508" y="-69" font-family="Helvetica,sans-Serif" font-size="10.00" fill="#000000">ViennaRNA/model.h</text>
</a>
</g>
</g>
<!-- Node2&#45;&gt;Node6 -->
<g id="edge29" class="edge">
<title>Node2&#45;&gt;Node6</title>
<path fill="none" stroke="#191970" d="M692.7358,-247.3754C628.5411,-233.8154 539.251,-214.7157 523,-210 453.457,-189.8202 411.4802,-213.3536 370,-154 345.3174,-118.6819 400.5777,-95.96 448.346,-83.4851"/>
<polygon fill="#191970" stroke="#191970" points="449.2303,-86.8718 458.0835,-81.0519 447.5333,-80.0806 449.2303,-86.8718"/>
</g>
<!-- Node7 -->
<g id="node8" class="node">
<title>Node7</title>
<g id="a_node8"><a xlink:href="params_2basic_8h.html" target="_top" xlink:title="Functions to deal with sets of energy parameters. ">
<polygon fill="none" stroke="#000000" points="845,-129 845,-148 983,-148 983,-129 845,-129"/>
<text text-anchor="middle" x="914" y="-136" font-family="Helvetica,sans-Serif" font-size="10.00" fill="#000000">ViennaRNA/params/basic.h</text>
</a>
</g>
</g>
<!-- Node2&#45;&gt;Node7 -->
<g id="edge30" class="edge">
<title>Node2&#45;&gt;Node7</title>
<path fill="none" stroke="#191970" d="M774.2692,-246.4178C800.8108,-222.9631 857.1159,-177.9737 889.7011,-154.1668"/>
<polygon fill="#191970" stroke="#191970" points="892.1381,-156.7257 898.2183,-148.0493 888.0544,-151.0403 892.1381,-156.7257"/>
</g>
<!-- Node9 -->
<g id="node10" class="node">
<title>Node9</title>
<g id="a_node10"><a xlink:href="dp__matrices_8h.html" target="_top" xlink:title="Functions to deal with standard dynamic programming (DP) matrices. ">
<polygon fill="none" stroke="#000000" points="693.5,-129 693.5,-148 826.5,-148 826.5,-129 693.5,-129"/>
<text text-anchor="middle" x="760" y="-136" font-family="Helvetica,sans-Serif" font-size="10.00" fill="#000000">ViennaRNA/dp_matrices.h</text>
</a>
</g>
</g>
<!-- Node2&#45;&gt;Node9 -->
<g id="edge31" class="edge">
<title>Node2&#45;&gt;Node9</title>
<path fill="none" stroke="#191970" d="M755.3857,-246.4178C752.7062,-224.1659 752.548,-182.5314 754.9111,-157.9908"/>
<polygon fill="#191970" stroke="#191970" points="758.3858,-158.4107 756.1743,-148.0493 751.4417,-157.5283 758.3858,-158.4107"/>
</g>
<!-- Node10 -->
<g id="node11" class="node">
<title>Node10</title>
<g id="a_node11"><a xlink:href="hard_8h.html" target="_top" xlink:title="Functions and data structures for handling of secondary structure hard constraints. ">
<polygon fill="none" stroke="#000000" points="203.5,-123.5 203.5,-153.5 322.5,-153.5 322.5,-123.5 203.5,-123.5"/>
<text text-anchor="start" x="211.5" y="-141.5" font-family="Helvetica,sans-Serif" font-size="10.00" fill="#000000">ViennaRNA/constraints</text>
<text text-anchor="middle" x="263" y="-130.5" font-family="Helvetica,sans-Serif" font-size="10.00" fill="#000000">/hard.h</text>
</a>
</g>
</g>
<!-- Node2&#45;&gt;Node10 -->
<g id="edge32" class="edge">
<title>Node2&#45;&gt;Node10</title>
<path fill="none" stroke="#191970" d="M692.6415,-248.9892C686.6683,-247.899 680.7234,-246.8784 675,-246 521.7444,-222.4798 468.558,-275.4517 328,-210 305.044,-199.3104 284.8219,-178.5371 272.8722,-162.1244"/>
<polygon fill="#191970" stroke="#191970" points="275.5963,-159.9025 267.1197,-153.5466 269.7826,-163.8013 275.5963,-159.9025"/>
</g>
<!-- Node12 -->
<g id="node13" class="node">
<title>Node12</title>
<g id="a_node13"><a xlink:href="soft_8h.html" target="_top" xlink:title="Functions and data structures for secondary structure soft constraints. ">
<polygon fill="none" stroke="#000000" points="66.5,-123.5 66.5,-153.5 185.5,-153.5 185.5,-123.5 66.5,-123.5"/>
<text text-anchor="start" x="74.5" y="-141.5" font-family="Helvetica,sans-Serif" font-size="10.00" fill="#000000">ViennaRNA/constraints</text>
<text text-anchor="middle" x="126" y="-130.5" font-family="Helvetica,sans-Serif" font-size="10.00" fill="#000000">/soft.h</text>
</a>
</g>
</g>
<!-- Node2&#45;&gt;Node12 -->
<g id="edge33" class="edge">
<title>Node2&#45;&gt;Node12</title>
<path fill="none" stroke="#191970" d="M692.6491,-248.9392C686.6744,-247.8588 680.727,-246.8543 675,-246 508.0864,-221.1029 461.0614,-249.5458 297,-210 247.1009,-197.9722 192.7102,-174.8663 158.8342,-158.1701"/>
<polygon fill="#191970" stroke="#191970" points="160.3503,-155.0149 149.8443,-153.6455 157.2032,-161.2676 160.3503,-155.0149"/>
</g>
<!-- Node13 -->
<g id="node14" class="node">
<title>Node13</title>
<g id="a_node14"><a xlink:href="grammar_8h.html" target="_top" xlink:title="Implementations for the RNA folding grammar. ">
<polygon fill="none" stroke="#000000" points="379.5,-129 379.5,-148 496.5,-148 496.5,-129 379.5,-129"/>
<text text-anchor="middle" x="438" y="-136" font-family="Helvetica,sans-Serif" font-size="10.00" fill="#000000">ViennaRNA/grammar.h</text>
</a>
</g>
</g>
<!-- Node2&#45;&gt;Node13 -->
<g id="edge34" class="edge">
<title>Node2&#45;&gt;Node13</title>
<path fill="none" stroke="#191970" d="M692.9603,-247.7011C655.4851,-238.9577 608.343,-226.2283 568,-210 528.8389,-194.2471 486.544,-169.3633 461.1746,-153.4938"/>
<polygon fill="#191970" stroke="#191970" points="462.953,-150.4773 452.6309,-148.0886 459.2105,-156.3929 462.953,-150.4773"/>
</g>
<!-- Node14 -->
<g id="node15" class="node">
<title>Node14</title>
<g id="a_node15"><a xlink:href="structured__domains_8h.html" target="_top" xlink:title="This module provides interfaces that deal with additional structured domains in the folding grammar...">
<polygon fill="none" stroke="#000000" points="1001.5,-123.5 1001.5,-153.5 1116.5,-153.5 1116.5,-123.5 1001.5,-123.5"/>
<text text-anchor="start" x="1009.5" y="-141.5" font-family="Helvetica,sans-Serif" font-size="10.00" fill="#000000">ViennaRNA/structured</text>
<text text-anchor="middle" x="1059" y="-130.5" font-family="Helvetica,sans-Serif" font-size="10.00" fill="#000000">_domains.h</text>
</a>
</g>
</g>
<!-- Node2&#45;&gt;Node14 -->
<g id="edge35" class="edge">
<title>Node2&#45;&gt;Node14</title>
<path fill="none" stroke="#191970" d="M796.6633,-246.4178C851.1709,-223.9949 953.5229,-181.8903 1012.9881,-157.428"/>
<polygon fill="#191970" stroke="#191970" points="1014.5885,-160.5543 1022.505,-153.513 1011.9254,-154.0806 1014.5885,-160.5543"/>
</g>
<!-- Node15 -->
<g id="node16" class="node">
<title>Node15</title>
<g id="a_node16"><a xlink:href="unstructured__domains_8h.html" target="_top" xlink:title="Functions to modify unstructured domains, e.g. to incorporate ligands binding to unpaired stretches...">
<polygon fill="none" stroke="#000000" points="1173.5,-123.5 1173.5,-153.5 1298.5,-153.5 1298.5,-123.5 1173.5,-123.5"/>
<text text-anchor="start" x="1181.5" y="-141.5" font-family="Helvetica,sans-Serif" font-size="10.00" fill="#000000">ViennaRNA/unstructured</text>
<text text-anchor="middle" x="1236" y="-130.5" font-family="Helvetica,sans-Serif" font-size="10.00" fill="#000000">_domains.h</text>
</a>
</g>
</g>
<!-- Node2&#45;&gt;Node15 -->
<g id="edge36" class="edge">
<title>Node2&#45;&gt;Node15</title>
<path fill="none" stroke="#191970" d="M827.3055,-257.3918C923.2811,-250.936 1093.7944,-236.3487 1150,-210 1173.7054,-198.8871 1195.0316,-177.7631 1210.7817,-161.3451"/>
<polygon fill="#191970" stroke="#191970" points="1213.6793,-163.3785 1218.0517,-153.7279 1208.6155,-158.5455 1213.6793,-163.3785"/>
</g>
<!-- Node2&#45;&gt;Node16 -->
<g id="edge37" class="edge">
<title>Node2&#45;&gt;Node16</title>
<path fill="none" stroke="#191970" d="M827.0779,-255.9541C929.7968,-247.3742 1120.8214,-229.7926 1187,-210 1240.3196,-194.0532 1262.4216,-195.944 1299,-154 1314.633,-136.0739 1321.6254,-109.041 1326.7798,-90.8535"/>
<polygon fill="#191970" stroke="#191970" points="1330.1946,-91.6525 1329.7328,-81.0677 1323.493,-89.6302 1330.1946,-91.6525"/>
</g>
<!-- Node4 -->
<g id="node5" class="node">
<title>Node4</title>
<polygon fill="none" stroke="#bfbfbf" points="1006,-.5 1006,-19.5 1054,-19.5 1054,-.5 1006,-.5"/>
<text text-anchor="middle" x="1030" y="-7.5" font-family="Helvetica,sans-Serif" font-size="10.00" fill="#000000">limits.h</text>
</g>
<!-- Node3&#45;&gt;Node4 -->
<g id="edge4" class="edge">
<title>Node3&#45;&gt;Node4</title>
<path fill="none" stroke="#191970" d="M1030,-61.8906C1030,-53.3657 1030,-40.6392 1030,-29.9235"/>
<polygon fill="#191970" stroke="#191970" points="1033.5001,-29.7448 1030,-19.7449 1026.5001,-29.7449 1033.5001,-29.7448"/>
</g>
<!-- Node5&#45;&gt;Node6 -->
<g id="edge6" class="edge">
<title>Node5&#45;&gt;Node6</title>
<path fill="none" stroke="#191970" d="M652.569,-190.3806C656.1638,-174.6278 660.724,-143.0778 646,-123 635.0106,-108.0148 592.021,-93.4457 556.9073,-83.65"/>
<polygon fill="#191970" stroke="#191970" points="557.8139,-80.2695 547.2454,-81.0173 555.9735,-87.0232 557.8139,-80.2695"/>
</g>
<!-- Node5&#45;&gt;Node7 -->
<g id="edge7" class="edge">
<title>Node5&#45;&gt;Node7</title>
<path fill="none" stroke="#191970" d="M690.9603,-190.4581C737.2995,-179.6632 812.824,-162.0694 862.9606,-150.3899"/>
<polygon fill="#191970" stroke="#191970" points="863.9984,-153.7419 872.9436,-148.0643 862.4102,-146.9244 863.9984,-153.7419"/>
</g>
<!-- Node8 -->
<g id="node9" class="node">
<title>Node8</title>
<g id="a_node9"><a xlink:href="sequence_8h.html" target="_top" xlink:title="Functions and data structures related to sequence representations ,. ">
<polygon fill="none" stroke="#000000" points="515,-129 515,-148 637,-148 637,-129 515,-129"/>
<text text-anchor="middle" x="576" y="-136" font-family="Helvetica,sans-Serif" font-size="10.00" fill="#000000">ViennaRNA/sequence.h</text>
</a>
</g>
</g>
<!-- Node5&#45;&gt;Node8 -->
<g id="edge11" class="edge">
<title>Node5&#45;&gt;Node8</title>
<path fill="none" stroke="#191970" d="M638.4375,-190.3906C626.9921,-180.8786 609.2527,-166.1357 595.603,-154.7917"/>
<polygon fill="#191970" stroke="#191970" points="597.6533,-151.9447 587.7255,-148.2449 593.1792,-157.3283 597.6533,-151.9447"/>
</g>
<!-- Node5&#45;&gt;Node9 -->
<g id="edge12" class="edge">
<title>Node5&#45;&gt;Node9</title>
<path fill="none" stroke="#191970" d="M667.1875,-190.3906C685.1082,-180.3713 713.4095,-164.5483 734.0523,-153.0071"/>
<polygon fill="#191970" stroke="#191970" points="735.9128,-155.9769 742.9332,-148.0419 732.4967,-149.867 735.9128,-155.9769"/>
</g>
<!-- Node5&#45;&gt;Node10 -->
<g id="edge14" class="edge">
<title>Node5&#45;&gt;Node10</title>
<path fill="none" stroke="#191970" d="M589.9559,-190.4581C520.4059,-179.4056 406.0069,-161.2259 332.6225,-149.564"/>
<polygon fill="#191970" stroke="#191970" points="332.9742,-146.0761 322.5488,-147.9632 331.8755,-152.9893 332.9742,-146.0761"/>
</g>
<!-- Node5&#45;&gt;Node12 -->
<g id="edge18" class="edge">
<title>Node5&#45;&gt;Node12</title>
<path fill="none" stroke="#191970" d="M576.9775,-195.4265C488.7427,-189.2743 335.6588,-176.6014 195.677,-154.1612"/>
<polygon fill="#191970" stroke="#191970" points="196.0537,-150.6766 185.622,-152.5286 194.9317,-157.5862 196.0537,-150.6766"/>
</g>
<!-- Node5&#45;&gt;Node13 -->
<g id="edge21" class="edge">
<title>Node5&#45;&gt;Node13</title>
<path fill="none" stroke="#191970" d="M611.8125,-190.3906C573.1825,-179.7846 514.038,-162.6753 475.6172,-151.0257"/>
<polygon fill="#191970" stroke="#191970" points="476.4293,-147.6142 465.8431,-148.0419 474.3855,-154.3092 476.4293,-147.6142"/>
</g>
<!-- Node5&#45;&gt;Node14 -->
<g id="edge23" class="edge">
<title>Node5&#45;&gt;Node14</title>
<path fill="none" stroke="#191970" d="M723.0318,-192.1837C790.1825,-184.5393 892.6828,-171.7203 991.1939,-154.0418"/>
<polygon fill="#191970" stroke="#191970" points="992.1132,-157.4322 1001.3278,-152.2032 990.8636,-150.5447 992.1132,-157.4322"/>
</g>
<!-- Node5&#45;&gt;Node15 -->
<g id="edge24" class="edge">
<title>Node5&#45;&gt;Node15</title>
<path fill="none" stroke="#191970" d="M723.0898,-193.9343C816.617,-185.9435 983.5764,-170.908 1126,-154 1137.9696,-152.579 1150.6512,-150.928 1162.9837,-149.244"/>
<polygon fill="#191970" stroke="#191970" points="1163.8113,-152.6629 1173.2376,-147.8259 1162.8523,-145.7289 1163.8113,-152.6629"/>
</g>
<!-- Node7&#45;&gt;Node2 -->
<g id="edge9" class="edge">
<title>Node7&#45;&gt;Node2</title>
<path fill="none" stroke="#191970" d="M905.8697,-148.0493C884.5574,-167.7449 828.008,-213.2894 791.7882,-240.3014"/>
<polygon fill="#191970" stroke="#191970" points="789.4669,-237.6645 783.4977,-246.4178 793.6226,-243.2974 789.4669,-237.6645"/>
</g>
<!-- Node7&#45;&gt;Node3 -->
<g id="edge8" class="edge">
<title>Node7&#45;&gt;Node3</title>
<path fill="none" stroke="#191970" d="M930.62,-128.9005C950.0012,-117.7062 982.2455,-99.0823 1004.7315,-86.0947"/>
<polygon fill="#191970" stroke="#191970" points="1006.502,-89.114 1013.4109,-81.0817 1003.0009,-83.0525 1006.502,-89.114"/>
</g>
<!-- Node7&#45;&gt;Node6 -->
<g id="edge10" class="edge">
<title>Node7&#45;&gt;Node6</title>
<path fill="none" stroke="#191970" d="M867.4508,-128.9299C857.1111,-126.8935 846.195,-124.8126 836,-123 744.286,-106.6942 637.6566,-90.4523 571.4909,-80.6916"/>
<polygon fill="#191970" stroke="#191970" points="571.6306,-77.1745 561.2276,-79.1816 570.6116,-84.1 571.6306,-77.1745"/>
</g>
<!-- Node9&#45;&gt;Node2 -->
<g id="edge13" class="edge">
<title>Node9&#45;&gt;Node2</title>
<path fill="none" stroke="#191970" d="M763.8257,-148.0493C767.0176,-166.8307 767.5965,-209.1173 765.5624,-236.4249"/>
<polygon fill="#191970" stroke="#191970" points="762.0746,-236.1319 764.6143,-246.4178 769.0433,-236.7931 762.0746,-236.1319"/>
</g>
<!-- Node10&#45;&gt;Node2 -->
<g id="edge15" class="edge">
<title>Node10&#45;&gt;Node2</title>
<path fill="none" stroke="#191970" d="M280.0325,-153.5466C295.4259,-170.4975 318.7929,-197.3308 346,-210 483.5382,-274.0455 537.4187,-224.7012 685.8931,-245.0003"/>
<polygon fill="#191970" stroke="#191970" points="685.4125,-248.4671 695.8116,-246.44 686.4181,-241.5397 685.4125,-248.4671"/>
</g>
<!-- Node11 -->
<g id="node12" class="node">
<title>Node11</title>
<g id="a_node12"><a xlink:href="constraints_2basic_8h.html" target="_top" xlink:title="Functions and data structures for constraining secondary structure predictions and evaluation...">
<polygon fill="none" stroke="#000000" points="66.5,-56.5 66.5,-86.5 185.5,-86.5 185.5,-56.5 66.5,-56.5"/>
<text text-anchor="start" x="74.5" y="-74.5" font-family="Helvetica,sans-Serif" font-size="10.00" fill="#000000">ViennaRNA/constraints</text>
<text text-anchor="middle" x="126" y="-63.5" font-family="Helvetica,sans-Serif" font-size="10.00" fill="#000000">/basic.h</text>
</a>
</g>
</g>
<!-- Node10&#45;&gt;Node11 -->
<g id="edge16" class="edge">
<title>Node10&#45;&gt;Node11</title>
<path fill="none" stroke="#191970" d="M232.2545,-123.4639C212.7376,-113.9191 187.2743,-101.4663 166.1675,-91.144"/>
<polygon fill="#191970" stroke="#191970" points="167.6378,-87.9669 157.1169,-86.7177 164.5625,-94.2552 167.6378,-87.9669"/>
</g>
<!-- Node11&#45;&gt;Node2 -->
<g id="edge17" class="edge">
<title>Node11&#45;&gt;Node2</title>
<path fill="none" stroke="#191970" d="M98.1167,-86.5762C71.7952,-102.7959 38.8624,-129.5593 57,-154 139.0379,-264.5471 526.6052,-227.9376 682.5622,-246.0326"/>
<polygon fill="#191970" stroke="#191970" points="682.5739,-249.5629 692.9391,-247.369 683.4681,-242.6203 682.5739,-249.5629"/>
</g>
<!-- Node12&#45;&gt;Node2 -->
<g id="edge19" class="edge">
<title>Node12&#45;&gt;Node2</title>
<path fill="none" stroke="#191970" d="M162.8474,-153.6455C200.4431,-170.4236 260.4095,-196.8414 315,-210 475.6968,-248.7348 524.1085,-222.2409 685.9038,-244.9968"/>
<polygon fill="#191970" stroke="#191970" points="685.8189,-248.521 696.2176,-246.4919 686.8232,-241.5934 685.8189,-248.521"/>
</g>
<!-- Node12&#45;&gt;Node11 -->
<g id="edge20" class="edge">
<title>Node12&#45;&gt;Node11</title>
<path fill="none" stroke="#191970" d="M126,-123.2967C126,-115.5013 126,-105.7991 126,-96.9064"/>
<polygon fill="#191970" stroke="#191970" points="129.5001,-96.6431 126,-86.6432 122.5001,-96.6432 129.5001,-96.6431"/>
</g>
<!-- Node13&#45;&gt;Node5 -->
<g id="edge22" class="edge">
<title>Node13&#45;&gt;Node5</title>
<path fill="none" stroke="#191970" d="M475.9417,-148.0419C514.4844,-158.6202 573.6292,-175.7273 612.1377,-187.4001"/>
<polygon fill="#191970" stroke="#191970" points="611.3513,-190.8194 621.9375,-190.3906 613.3945,-184.1242 611.3513,-190.8194"/>
</g>
<!-- Node15&#45;&gt;Node2 -->
<g id="edge25" class="edge">
<title>Node15&#45;&gt;Node2</title>
<path fill="none" stroke="#191970" d="M1231.0547,-153.7279C1219.9474,-170.5817 1195.5845,-197.0686 1168,-210 1111.4442,-236.5129 939.152,-251.1173 837.3817,-257.5115"/>
<polygon fill="#191970" stroke="#191970" points="836.9193,-254.0333 827.1534,-258.1414 837.3496,-261.0201 836.9193,-254.0333"/>
</g>
<!-- Node15&#45;&gt;Node16 -->
<g id="edge26" class="edge">
<title>Node15&#45;&gt;Node16</title>
<path fill="none" stroke="#191970" d="M1258.6915,-123.2967C1275.0283,-112.351 1296.9759,-97.6462 1313.3119,-86.701"/>
<polygon fill="#191970" stroke="#191970" points="1315.3793,-89.5289 1321.7388,-81.055 1311.483,-83.7135 1315.3793,-89.5289"/>
</g>
<!-- Node16&#45;&gt;Node2 -->
<g id="edge28" class="edge">
<title>Node16&#45;&gt;Node2</title>
<path fill="none" stroke="#191970" d="M1340.4895,-81.0677C1342.0965,-97.7551 1335.7889,-132.455 1317,-154 1280.4216,-195.944 1258.3196,-194.0532 1205,-210 1138.5904,-229.8617 946.4614,-247.497 837.5498,-256.0437"/>
<polygon fill="#191970" stroke="#191970" points="836.9755,-252.5777 827.2768,-256.8422 837.518,-259.5566 836.9755,-252.5777"/>
</g>
<!-- Node17 -->
<g id="node18" class="node">
<title>Node17</title>
<polygon fill="none" stroke="#bfbfbf" points="1313,-.5 1313,-19.5 1359,-19.5 1359,-.5 1313,-.5"/>
<text text-anchor="middle" x="1336" y="-7.5" font-family="Helvetica,sans-Serif" font-size="10.00" fill="#000000">stdio.h</text>
</g>
<!-- Node16&#45;&gt;Node17 -->
<g id="edge27" class="edge">
<title>Node16&#45;&gt;Node17</title>
<path fill="none" stroke="#191970" d="M1336,-61.8906C1336,-53.3657 1336,-40.6392 1336,-29.9235"/>
<polygon fill="#191970" stroke="#191970" points="1339.5001,-29.7448 1336,-19.7449 1332.5001,-29.7449 1339.5001,-29.7448"/>
</g>
<!-- Node18&#45;&gt;Node2 -->
<g id="edge40" class="edge">
<title>Node18&#45;&gt;Node2</title>
<path fill="none" stroke="#191970" d="M659.9501,-313.4639C678.1625,-304.0047 701.8741,-291.6894 721.6423,-281.4222"/>
<polygon fill="#191970" stroke="#191970" points="723.439,-284.433 730.7002,-276.7177 720.2125,-278.2209 723.439,-284.433"/>
</g>
<!-- Node19 -->
<g id="node20" class="node">
<title>Node19</title>
<g id="a_node20"><a xlink:href="plotting_2naview_8h.html" target="_top" xlink:title="ViennaRNA/plotting\l/naview.h">
<polygon fill="none" stroke="#000000" points="571.5,-246.5 571.5,-276.5 674.5,-276.5 674.5,-246.5 571.5,-246.5"/>
<text text-anchor="start" x="579.5" y="-264.5" font-family="Helvetica,sans-Serif" font-size="10.00" fill="#000000">ViennaRNA/plotting</text>
<text text-anchor="middle" x="623" y="-253.5" font-family="Helvetica,sans-Serif" font-size="10.00" fill="#000000">/naview.h</text>
</a>
</g>
</g>
<!-- Node18&#45;&gt;Node19 -->
<g id="edge41" class="edge">
<title>Node18&#45;&gt;Node19</title>
<path fill="none" stroke="#191970" d="M629.1847,-313.2967C628.2437,-305.4156 627.0699,-295.5857 625.9986,-286.6135"/>
<polygon fill="#191970" stroke="#191970" points="629.4691,-286.1576 624.8081,-276.6432 622.5185,-286.9876 629.4691,-286.1576"/>
</g>
<!-- Node20&#45;&gt;Node6 -->
<g id="edge43" class="edge">
<title>Node20&#45;&gt;Node6</title>
<path fill="none" stroke="#191970" d="M524.3769,-394.4423C382.9971,-390.158 0,-368.6622 0,-261.5 0,-261.5 0,-261.5 0,-200 0,-157.4214 20.1265,-144.2904 57,-123 121.4625,-85.7801 336.3672,-75.4477 444.5859,-72.5884"/>
<polygon fill="#191970" stroke="#191970" points="444.8079,-76.084 454.717,-72.3344 444.6324,-69.0862 444.8079,-76.084"/>
</g>
<!-- Node20&#45;&gt;Node18 -->
<g id="edge44" class="edge">
<title>Node20&#45;&gt;Node18</title>
<path fill="none" stroke="#191970" d="M588.4804,-380.2967C595.4421,-371.816 604.2564,-361.0785 612.0524,-351.5817"/>
<polygon fill="#191970" stroke="#191970" points="614.9293,-353.5932 618.569,-343.6432 609.5188,-349.1517 614.9293,-353.5932"/>
</g>
</g>
</svg>
