<?xml version="1.0" encoding="UTF-8" standalone="no"?>
<!DOCTYPE svg PUBLIC "-//W3C//DTD SVG 1.1//EN"
 "http://www.w3.org/Graphics/SVG/1.1/DTD/svg11.dtd">
<!-- Generated by graphviz version 2.40.1 (20161225.0304)
 -->
<!-- Title: ViennaRNA/utils/strings.h Pages: 1 -->
<!--zoomable 341 -->
<svg id="main" version="1.1" xmlns="http://www.w3.org/2000/svg" xmlns:xlink="http://www.w3.org/1999/xlink" xml:space="preserve" onload="init(evt)">
<style type="text/css"><![CDATA[
.edge:hover path { stroke: red; }
.edge:hover polygon { stroke: red; fill: red; }
]]></style>
<script type="text/javascript"><![CDATA[
var edges = document.getElementsByTagName('g');
if (edges && edges.length) {
  for (var i=0;i<edges.length;i++) {
    if (edges[i].id.substr(0,4)=='edge') {
      edges[i].setAttribute('class','edge');
    }
  }
}
]]></script>
        <defs>
                <circle id="rim" cx="0" cy="0" r="7"/>
                <circle id="rim2" cx="0" cy="0" r="3.5"/>
                <g id="zoomPlus">
                        <use xlink:href="#rim" fill="#404040">
                                <set attributeName="fill" to="#808080" begin="zoomplus.mouseover" end="zoomplus.mouseout"/>
                        </use>
                        <path d="M-4,0h8M0,-4v8" fill="none" stroke="white" stroke-width="1.5" pointer-events="none"/>
                </g>
                <g id="zoomMin">
                        <use xlink:href="#rim" fill="#404040">
                                <set attributeName="fill" to="#808080" begin="zoomminus.mouseover" end="zoomminus.mouseout"/>
                        </use>
                        <path d="M-4,0h8" fill="none" stroke="white" stroke-width="1.5" pointer-events="none"/>
                </g>
                <g id="dirArrow">
                        <path fill="none" stroke="white" stroke-width="1.5" d="M0,-3.0v7 M-2.5,-0.5L0,-3.0L2.5,-0.5"/>
                </g>
               <g id="resetDef">
                       <use xlink:href="#rim2" fill="#404040">
                               <set attributeName="fill" to="#808080" begin="reset.mouseover" end="reset.mouseout"/>
                       </use>
               </g>
        </defs>

<script type="text/javascript">
var viewWidth = 1454;
var viewHeight = 341;
var sectionId = 'dynsection-0';
</script>
<script xlink:href="svgpan.js"/>
<svg id="graph" class="graph">
<g id="viewport">
<title>ViennaRNA/utils/strings.h</title>
<!-- Node0 -->
<g id="node1" class="node">
<title>Node0</title>
<polygon fill="#bfbfbf" stroke="#000000" points="669,-313.5 669,-332.5 799,-332.5 799,-313.5 669,-313.5"/>
<text text-anchor="middle" x="734" y="-320.5" font-family="Helvetica,sans-Serif" font-size="10.00" fill="#000000">ViennaRNA/utils/strings.h</text>
</g>
<!-- Node1 -->
<g id="node2" class="node">
<title>Node1</title>
<polygon fill="none" stroke="#bfbfbf" points="653,-252 653,-271 705,-271 705,-252 653,-252"/>
<text text-anchor="middle" x="679" y="-259" font-family="Helvetica,sans-Serif" font-size="10.00" fill="#000000">stdarg.h</text>
</g>
<!-- Node0&#45;&gt;Node1 -->
<g id="edge1" class="edge">
<title>Node0&#45;&gt;Node1</title>
<path fill="none" stroke="#191970" d="M725.4063,-313.3906C717.1403,-304.1478 704.4574,-289.966 694.4383,-278.7628"/>
<polygon fill="#191970" stroke="#191970" points="696.99,-276.3657 687.7149,-271.2449 691.7722,-281.0321 696.99,-276.3657"/>
</g>
<!-- Node2 -->
<g id="node3" class="node">
<title>Node2</title>
<g id="a_node3"><a xlink:href="datastructures_2basic_8h.html" target="_top" xlink:title="Various data structures and pre&#45;processor macros. ">
<polygon fill="none" stroke="#000000" points="723,-246.5 723,-276.5 857,-276.5 857,-246.5 723,-246.5"/>
<text text-anchor="start" x="731" y="-264.5" font-family="Helvetica,sans-Serif" font-size="10.00" fill="#000000">ViennaRNA/datastructures</text>
<text text-anchor="middle" x="790" y="-253.5" font-family="Helvetica,sans-Serif" font-size="10.00" fill="#000000">/basic.h</text>
</a>
</g>
</g>
<!-- Node0&#45;&gt;Node2 -->
<g id="edge2" class="edge">
<title>Node0&#45;&gt;Node2</title>
<path fill="none" stroke="#191970" d="M742.75,-313.3906C749.9079,-305.5298 760.3188,-294.0964 769.5475,-283.9612"/>
<polygon fill="#191970" stroke="#191970" points="772.156,-286.295 776.3009,-276.5446 766.9802,-281.5821 772.156,-286.295"/>
</g>
<!-- Node3 -->
<g id="node4" class="node">
<title>Node3</title>
<g id="a_node4"><a xlink:href="constants_8h.html" target="_top" xlink:title="Energy parameter constants. ">
<polygon fill="none" stroke="#000000" points="0,-62 0,-81 158,-81 158,-62 0,-62"/>
<text text-anchor="middle" x="79" y="-69" font-family="Helvetica,sans-Serif" font-size="10.00" fill="#000000">ViennaRNA/params/constants.h</text>
</a>
</g>
</g>
<!-- Node2&#45;&gt;Node3 -->
<g id="edge3" class="edge">
<title>Node2&#45;&gt;Node3</title>
<path fill="none" stroke="#191970" d="M722.9455,-247.3228C719.9279,-246.8432 716.9356,-246.3986 714,-246 598.5621,-230.3256 298.752,-254.2844 191,-210 137.0595,-187.8313 101.8107,-123.1616 86.9874,-90.641"/>
<polygon fill="#191970" stroke="#191970" points="90.1156,-89.0594 82.8945,-81.3066 83.7048,-91.8705 90.1156,-89.0594"/>
</g>
<!-- Node5 -->
<g id="node6" class="node">
<title>Node5</title>
<g id="a_node6"><a xlink:href="fold__compound_8h.html" target="_top" xlink:title="The Basic Fold Compound API. ">
<polygon fill="none" stroke="#000000" points="667,-190.5 667,-209.5 813,-209.5 813,-190.5 667,-190.5"/>
<text text-anchor="middle" x="740" y="-197.5" font-family="Helvetica,sans-Serif" font-size="10.00" fill="#000000">ViennaRNA/fold_compound.h</text>
</a>
</g>
</g>
<!-- Node2&#45;&gt;Node5 -->
<g id="edge5" class="edge">
<title>Node2&#45;&gt;Node5</title>
<path fill="none" stroke="#191970" d="M777.6404,-246.2977C770.6276,-237.672 761.814,-226.8312 754.4786,-217.8087"/>
<polygon fill="#191970" stroke="#191970" points="757.0297,-215.3982 748.0056,-209.8469 751.5982,-219.8141 757.0297,-215.3982"/>
</g>
<!-- Node6 -->
<g id="node7" class="node">
<title>Node6</title>
<g id="a_node7"><a xlink:href="model_8h.html" target="_top" xlink:title="The model details data structure and its corresponding modifiers. ">
<polygon fill="none" stroke="#000000" points="176,-62 176,-81 282,-81 282,-62 176,-62"/>
<text text-anchor="middle" x="229" y="-69" font-family="Helvetica,sans-Serif" font-size="10.00" fill="#000000">ViennaRNA/model.h</text>
</a>
</g>
</g>
<!-- Node2&#45;&gt;Node6 -->
<g id="edge29" class="edge">
<title>Node2&#45;&gt;Node6</title>
<path fill="none" stroke="#191970" d="M722.9033,-247.5954C719.8971,-247.042 716.9188,-246.5073 714,-246 585.8601,-223.7264 219.8721,-253.4053 136,-154 113.0365,-126.7836 158.3009,-100.381 193.3876,-85.0479"/>
<polygon fill="#191970" stroke="#191970" points="195.0887,-88.1295 202.9488,-81.0253 192.374,-81.6773 195.0887,-88.1295"/>
</g>
<!-- Node7 -->
<g id="node8" class="node">
<title>Node7</title>
<g id="a_node8"><a xlink:href="params_2basic_8h.html" target="_top" xlink:title="Functions to deal with sets of energy parameters. ">
<polygon fill="none" stroke="#000000" points="145,-129 145,-148 283,-148 283,-129 145,-129"/>
<text text-anchor="middle" x="214" y="-136" font-family="Helvetica,sans-Serif" font-size="10.00" fill="#000000">ViennaRNA/params/basic.h</text>
</a>
</g>
</g>
<!-- Node2&#45;&gt;Node7 -->
<g id="edge30" class="edge">
<title>Node2&#45;&gt;Node7</title>
<path fill="none" stroke="#191970" d="M722.8598,-248.1027C606.2174,-223.8794 368.9025,-173.1863 264.7873,-150.2357"/>
<polygon fill="#191970" stroke="#191970" points="265.3585,-146.7776 254.8388,-148.0373 263.848,-153.6127 265.3585,-146.7776"/>
</g>
<!-- Node9 -->
<g id="node10" class="node">
<title>Node9</title>
<g id="a_node10"><a xlink:href="dp__matrices_8h.html" target="_top" xlink:title="Functions to deal with standard dynamic programming (DP) matrices. ">
<polygon fill="none" stroke="#000000" points="301.5,-129 301.5,-148 434.5,-148 434.5,-129 301.5,-129"/>
<text text-anchor="middle" x="368" y="-136" font-family="Helvetica,sans-Serif" font-size="10.00" fill="#000000">ViennaRNA/dp_matrices.h</text>
</a>
</g>
</g>
<!-- Node2&#45;&gt;Node9 -->
<g id="edge31" class="edge">
<title>Node2&#45;&gt;Node9</title>
<path fill="none" stroke="#191970" d="M733.6403,-246.4178C646.6078,-221.9107 481.971,-173.8929 406.9155,-151.0938"/>
<polygon fill="#191970" stroke="#191970" points="407.5229,-147.6199 396.9368,-148.0493 405.4801,-154.3152 407.5229,-147.6199"/>
</g>
<!-- Node10 -->
<g id="node11" class="node">
<title>Node10</title>
<g id="a_node11"><a xlink:href="hard_8h.html" target="_top" xlink:title="Functions and data structures for handling of secondary structure hard constraints. ">
<polygon fill="none" stroke="#000000" points="1036.5,-123.5 1036.5,-153.5 1155.5,-153.5 1155.5,-123.5 1036.5,-123.5"/>
<text text-anchor="start" x="1044.5" y="-141.5" font-family="Helvetica,sans-Serif" font-size="10.00" fill="#000000">ViennaRNA/constraints</text>
<text text-anchor="middle" x="1096" y="-130.5" font-family="Helvetica,sans-Serif" font-size="10.00" fill="#000000">/hard.h</text>
</a>
</g>
</g>
<!-- Node2&#45;&gt;Node10 -->
<g id="edge32" class="edge">
<title>Node2&#45;&gt;Node10</title>
<path fill="none" stroke="#191970" d="M822.9073,-246.4178C876.2099,-223.9024 981.4629,-181.5427 1044.6577,-157.1263"/>
<polygon fill="#191970" stroke="#191970" points="1045.9695,-160.3717 1054.0447,-153.513 1043.4549,-153.8389 1045.9695,-160.3717"/>
</g>
<!-- Node12 -->
<g id="node13" class="node">
<title>Node12</title>
<g id="a_node13"><a xlink:href="soft_8h.html" target="_top" xlink:title="Functions and data structures for secondary structure soft constraints. ">
<polygon fill="none" stroke="#000000" points="452.5,-123.5 452.5,-153.5 571.5,-153.5 571.5,-123.5 452.5,-123.5"/>
<text text-anchor="start" x="460.5" y="-141.5" font-family="Helvetica,sans-Serif" font-size="10.00" fill="#000000">ViennaRNA/constraints</text>
<text text-anchor="middle" x="512" y="-130.5" font-family="Helvetica,sans-Serif" font-size="10.00" fill="#000000">/soft.h</text>
</a>
</g>
</g>
<!-- Node2&#45;&gt;Node12 -->
<g id="edge33" class="edge">
<title>Node2&#45;&gt;Node12</title>
<path fill="none" stroke="#191970" d="M741.1833,-246.477C713.6743,-236.6393 679.0695,-223.2013 649,-210 611.9672,-193.7416 570.6462,-173.2812 543.0203,-158.4175"/>
<polygon fill="#191970" stroke="#191970" points="544.6572,-155.3236 534.2025,-153.6055 541.3039,-161.4682 544.6572,-155.3236"/>
</g>
<!-- Node13 -->
<g id="node14" class="node">
<title>Node13</title>
<g id="a_node14"><a xlink:href="grammar_8h.html" target="_top" xlink:title="Implementations for the RNA folding grammar. ">
<polygon fill="none" stroke="#000000" points="768.5,-129 768.5,-148 885.5,-148 885.5,-129 768.5,-129"/>
<text text-anchor="middle" x="827" y="-136" font-family="Helvetica,sans-Serif" font-size="10.00" fill="#000000">ViennaRNA/grammar.h</text>
</a>
</g>
</g>
<!-- Node2&#45;&gt;Node13 -->
<g id="edge34" class="edge">
<title>Node2&#45;&gt;Node13</title>
<path fill="none" stroke="#191970" d="M802.2398,-246.2618C809.3488,-236.4993 817.7229,-223.2202 822,-210 827.4402,-193.1845 828.383,-173.0191 828.1441,-158.397"/>
<polygon fill="#191970" stroke="#191970" points="831.628,-157.8932 827.7626,-148.0286 824.6328,-158.1506 831.628,-157.8932"/>
</g>
<!-- Node14 -->
<g id="node15" class="node">
<title>Node14</title>
<g id="a_node15"><a xlink:href="structured__domains_8h.html" target="_top" xlink:title="This module provides interfaces that deal with additional structured domains in the folding grammar...">
<polygon fill="none" stroke="#000000" points="903.5,-123.5 903.5,-153.5 1018.5,-153.5 1018.5,-123.5 903.5,-123.5"/>
<text text-anchor="start" x="911.5" y="-141.5" font-family="Helvetica,sans-Serif" font-size="10.00" fill="#000000">ViennaRNA/structured</text>
<text text-anchor="middle" x="961" y="-130.5" font-family="Helvetica,sans-Serif" font-size="10.00" fill="#000000">_domains.h</text>
</a>
</g>
</g>
<!-- Node2&#45;&gt;Node14 -->
<g id="edge35" class="edge">
<title>Node2&#45;&gt;Node14</title>
<path fill="none" stroke="#191970" d="M810.968,-246.4178C841.3057,-224.5959 897.5586,-184.1333 931.8989,-159.4324"/>
<polygon fill="#191970" stroke="#191970" points="934.054,-162.1937 940.1283,-153.513 929.9664,-156.511 934.054,-162.1937"/>
</g>
<!-- Node15 -->
<g id="node16" class="node">
<title>Node15</title>
<g id="a_node16"><a xlink:href="unstructured__domains_8h.html" target="_top" xlink:title="Functions to modify unstructured domains, e.g. to incorporate ligands binding to unpaired stretches...">
<polygon fill="none" stroke="#000000" points="1173.5,-123.5 1173.5,-153.5 1298.5,-153.5 1298.5,-123.5 1173.5,-123.5"/>
<text text-anchor="start" x="1181.5" y="-141.5" font-family="Helvetica,sans-Serif" font-size="10.00" fill="#000000">ViennaRNA/unstructured</text>
<text text-anchor="middle" x="1236" y="-130.5" font-family="Helvetica,sans-Serif" font-size="10.00" fill="#000000">_domains.h</text>
</a>
</g>
</g>
<!-- Node2&#45;&gt;Node15 -->
<g id="edge36" class="edge">
<title>Node2&#45;&gt;Node15</title>
<path fill="none" stroke="#191970" d="M840.0741,-246.4178C920.0573,-223.6019 1076.5811,-180.4084 1167.0665,-156.1583"/>
<polygon fill="#191970" stroke="#191970" points="1168.2007,-159.478 1176.9567,-153.513 1166.3919,-152.7157 1168.2007,-159.478"/>
</g>
<!-- Node16 -->
<g id="node17" class="node">
<title>Node16</title>
<g id="a_node17"><a xlink:href="utils_2structures_8h.html" target="_top" xlink:title="Various utility&#45; and helper&#45;functions for secondary structure parsing, converting, etc. ">
<polygon fill="none" stroke="#000000" points="1302,-62 1302,-81 1446,-81 1446,-62 1302,-62"/>
<text text-anchor="middle" x="1374" y="-69" font-family="Helvetica,sans-Serif" font-size="10.00" fill="#000000">ViennaRNA/utils/structures.h</text>
</a>
</g>
</g>
<!-- Node2&#45;&gt;Node16 -->
<g id="edge37" class="edge">
<title>Node2&#45;&gt;Node16</title>
<path fill="none" stroke="#191970" d="M857.1916,-257.1034C962.655,-249.8761 1161.6641,-233.864 1229,-210 1272.6958,-194.5141 1284.8779,-187.4262 1317,-154 1335.2132,-135.0474 1349.2847,-107.9069 1359.4954,-90.0021"/>
<polygon fill="#191970" stroke="#191970" points="1362.6758,-91.5011 1364.7726,-81.1158 1356.6571,-87.9268 1362.6758,-91.5011"/>
</g>
<!-- Node4 -->
<g id="node5" class="node">
<title>Node4</title>
<polygon fill="none" stroke="#bfbfbf" points="55,-.5 55,-19.5 103,-19.5 103,-.5 55,-.5"/>
<text text-anchor="middle" x="79" y="-7.5" font-family="Helvetica,sans-Serif" font-size="10.00" fill="#000000">limits.h</text>
</g>
<!-- Node3&#45;&gt;Node4 -->
<g id="edge4" class="edge">
<title>Node3&#45;&gt;Node4</title>
<path fill="none" stroke="#191970" d="M79,-61.8906C79,-53.3657 79,-40.6392 79,-29.9235"/>
<polygon fill="#191970" stroke="#191970" points="82.5001,-29.7448 79,-19.7449 75.5001,-29.7449 82.5001,-29.7448"/>
</g>
<!-- Node5&#45;&gt;Node6 -->
<g id="edge6" class="edge">
<title>Node5&#45;&gt;Node6</title>
<path fill="none" stroke="#191970" d="M740.8093,-190.4503C741.6276,-173.9164 740.623,-140.0925 721,-123 689.3083,-95.3951 418.4244,-79.8952 292.6679,-74.1281"/>
<polygon fill="#191970" stroke="#191970" points="292.5624,-70.6199 282.4145,-73.6648 292.2463,-77.6127 292.5624,-70.6199"/>
</g>
<!-- Node5&#45;&gt;Node7 -->
<g id="edge7" class="edge">
<title>Node5&#45;&gt;Node7</title>
<path fill="none" stroke="#191970" d="M666.7938,-194.6051C577.8698,-187.5634 423.4399,-173.7632 292,-154 284.3202,-152.8453 276.2495,-151.4497 268.3304,-149.9748"/>
<polygon fill="#191970" stroke="#191970" points="268.9016,-146.5206 258.4216,-148.0763 267.5843,-153.3956 268.9016,-146.5206"/>
</g>
<!-- Node8 -->
<g id="node9" class="node">
<title>Node8</title>
<g id="a_node9"><a xlink:href="sequence_8h.html" target="_top" xlink:title="Functions and data structures related to sequence representations ,. ">
<polygon fill="none" stroke="#000000" points="590,-129 590,-148 712,-148 712,-129 590,-129"/>
<text text-anchor="middle" x="651" y="-136" font-family="Helvetica,sans-Serif" font-size="10.00" fill="#000000">ViennaRNA/sequence.h</text>
</a>
</g>
</g>
<!-- Node5&#45;&gt;Node8 -->
<g id="edge11" class="edge">
<title>Node5&#45;&gt;Node8</title>
<path fill="none" stroke="#191970" d="M726.0938,-190.3906C711.9862,-180.6421 689.9276,-165.3994 673.3615,-153.9521"/>
<polygon fill="#191970" stroke="#191970" points="675.0253,-150.8474 664.8086,-148.0419 671.0458,-156.6063 675.0253,-150.8474"/>
</g>
<!-- Node5&#45;&gt;Node9 -->
<g id="edge12" class="edge">
<title>Node5&#45;&gt;Node9</title>
<path fill="none" stroke="#191970" d="M672.0123,-190.4596C611.7093,-181.762 521.3028,-168.146 443,-154 436.3189,-152.793 429.3191,-151.4508 422.3937,-150.0754"/>
<polygon fill="#191970" stroke="#191970" points="422.8406,-146.5952 412.346,-148.0484 421.4563,-153.4569 422.8406,-146.5952"/>
</g>
<!-- Node5&#45;&gt;Node10 -->
<g id="edge14" class="edge">
<title>Node5&#45;&gt;Node10</title>
<path fill="none" stroke="#191970" d="M807.7221,-190.4672C863.8256,-182.2763 945.8714,-169.6237 1026.0655,-154.3108"/>
<polygon fill="#191970" stroke="#191970" points="1027.1852,-157.6596 1036.3428,-152.3316 1025.8613,-150.7859 1027.1852,-157.6596"/>
</g>
<!-- Node5&#45;&gt;Node12 -->
<g id="edge18" class="edge">
<title>Node5&#45;&gt;Node12</title>
<path fill="none" stroke="#191970" d="M704.375,-190.3906C670.518,-181.2581 618.785,-167.3038 577.4907,-156.1653"/>
<polygon fill="#191970" stroke="#191970" points="578.3415,-152.7697 567.7751,-153.5446 576.5185,-159.5282 578.3415,-152.7697"/>
</g>
<!-- Node5&#45;&gt;Node13 -->
<g id="edge21" class="edge">
<title>Node5&#45;&gt;Node13</title>
<path fill="none" stroke="#191970" d="M748.5313,-190.3906C760.5297,-180.5519 782.0831,-165.1167 799.6816,-153.6351"/>
<polygon fill="#191970" stroke="#191970" points="801.9028,-156.3698 808.4524,-148.0419 798.139,-150.4677 801.9028,-156.3698"/>
</g>
<!-- Node5&#45;&gt;Node14 -->
<g id="edge23" class="edge">
<title>Node5&#45;&gt;Node14</title>
<path fill="none" stroke="#191970" d="M774.5313,-190.3906C807.2796,-181.2774 857.282,-167.3627 897.2665,-156.2358"/>
<polygon fill="#191970" stroke="#191970" points="898.2417,-159.5975 906.9373,-153.5446 896.365,-152.8537 898.2417,-159.5975"/>
</g>
<!-- Node5&#45;&gt;Node15 -->
<g id="edge24" class="edge">
<title>Node5&#45;&gt;Node15</title>
<path fill="none" stroke="#191970" d="M813.2677,-194.4698C896.0658,-187.6798 1035.0254,-174.6568 1163.3438,-154.1744"/>
<polygon fill="#191970" stroke="#191970" points="1164.0358,-157.6081 1173.3499,-152.5584 1162.9197,-150.6976 1164.0358,-157.6081"/>
</g>
<!-- Node7&#45;&gt;Node2 -->
<g id="edge9" class="edge">
<title>Node7&#45;&gt;Node2</title>
<path fill="none" stroke="#191970" d="M262.5984,-148.0604C363.128,-168.7765 594.2222,-218.0517 714.399,-244.3196"/>
<polygon fill="#191970" stroke="#191970" points="713.749,-247.7601 724.2661,-246.4793 715.2457,-240.922 713.749,-247.7601"/>
</g>
<!-- Node7&#45;&gt;Node3 -->
<g id="edge8" class="edge">
<title>Node7&#45;&gt;Node3</title>
<path fill="none" stroke="#191970" d="M194.6578,-128.9005C171.8013,-117.5569 133.573,-98.5844 107.3666,-85.5783"/>
<polygon fill="#191970" stroke="#191970" points="108.8198,-82.3922 98.3063,-81.0817 105.7079,-88.6624 108.8198,-82.3922"/>
</g>
<!-- Node7&#45;&gt;Node6 -->
<g id="edge10" class="edge">
<title>Node7&#45;&gt;Node6</title>
<path fill="none" stroke="#191970" d="M216.1491,-128.9005C218.3546,-119.0495 221.8481,-103.4451 224.6363,-90.9912"/>
<polygon fill="#191970" stroke="#191970" points="228.0855,-91.6048 226.8549,-81.0817 221.2546,-90.0754 228.0855,-91.6048"/>
</g>
<!-- Node9&#45;&gt;Node2 -->
<g id="edge13" class="edge">
<title>Node9&#45;&gt;Node2</title>
<path fill="none" stroke="#191970" d="M404.5882,-148.0493C478.3518,-168.5343 644.944,-216.9821 733.0425,-243.4575"/>
<polygon fill="#191970" stroke="#191970" points="732.2842,-246.8844 742.8688,-246.4178 734.3035,-240.1819 732.2842,-246.8844"/>
</g>
<!-- Node10&#45;&gt;Node2 -->
<g id="edge15" class="edge">
<title>Node10&#45;&gt;Node2</title>
<path fill="none" stroke="#191970" d="M1063.2565,-153.513C1010.0606,-175.9876 904.8179,-218.3454 841.5369,-242.7986"/>
<polygon fill="#191970" stroke="#191970" points="840.2107,-239.5587 832.1359,-246.4178 842.7257,-246.0913 840.2107,-239.5587"/>
</g>
<!-- Node11 -->
<g id="node12" class="node">
<title>Node11</title>
<g id="a_node12"><a xlink:href="constraints_2basic_8h.html" target="_top" xlink:title="Functions and data structures for constraining secondary structure predictions and evaluation...">
<polygon fill="none" stroke="#000000" points="1036.5,-56.5 1036.5,-86.5 1155.5,-86.5 1155.5,-56.5 1036.5,-56.5"/>
<text text-anchor="start" x="1044.5" y="-74.5" font-family="Helvetica,sans-Serif" font-size="10.00" fill="#000000">ViennaRNA/constraints</text>
<text text-anchor="middle" x="1096" y="-63.5" font-family="Helvetica,sans-Serif" font-size="10.00" fill="#000000">/basic.h</text>
</a>
</g>
</g>
<!-- Node10&#45;&gt;Node11 -->
<g id="edge16" class="edge">
<title>Node10&#45;&gt;Node11</title>
<path fill="none" stroke="#191970" d="M1096,-123.2967C1096,-115.5013 1096,-105.7991 1096,-96.9064"/>
<polygon fill="#191970" stroke="#191970" points="1099.5001,-96.6431 1096,-86.6432 1092.5001,-96.6432 1099.5001,-96.6431"/>
</g>
<!-- Node11&#45;&gt;Node2 -->
<g id="edge17" class="edge">
<title>Node11&#45;&gt;Node2</title>
<path fill="none" stroke="#191970" d="M1155.7328,-74.6501C1232.8823,-80.9398 1352.3101,-99.5501 1308,-154 1253.3198,-221.1931 997.9549,-247.7313 867.3575,-257.0449"/>
<polygon fill="#191970" stroke="#191970" points="866.761,-253.5779 857.0283,-257.7642 867.2473,-260.561 866.761,-253.5779"/>
</g>
<!-- Node12&#45;&gt;Node2 -->
<g id="edge19" class="edge">
<title>Node12&#45;&gt;Node2</title>
<path fill="none" stroke="#191970" d="M547.8491,-153.6055C579.2493,-168.6017 625.7809,-191.9037 667,-210 693.4283,-221.6027 723.36,-233.3883 747.1652,-242.7516"/>
<polygon fill="#191970" stroke="#191970" points="746.0436,-246.0714 756.6306,-246.477 748.6073,-239.5578 746.0436,-246.0714"/>
</g>
<!-- Node12&#45;&gt;Node11 -->
<g id="edge20" class="edge">
<title>Node12&#45;&gt;Node11</title>
<path fill="none" stroke="#191970" d="M571.753,-124.6115C574.8736,-124.0321 577.9699,-123.49 581,-123 739.064,-97.44 926.6051,-82.5106 1026.003,-75.7968"/>
<polygon fill="#191970" stroke="#191970" points="1026.4748,-79.2731 1036.2195,-75.1147 1026.0085,-72.2887 1026.4748,-79.2731"/>
</g>
<!-- Node13&#45;&gt;Node5 -->
<g id="edge22" class="edge">
<title>Node13&#45;&gt;Node5</title>
<path fill="none" stroke="#191970" d="M818.3034,-148.2449C806.2883,-158.0768 784.891,-173.3968 767.3854,-184.8212"/>
<polygon fill="#191970" stroke="#191970" points="765.204,-182.0613 758.6563,-190.3906 768.9691,-187.9625 765.204,-182.0613"/>
</g>
<!-- Node15&#45;&gt;Node2 -->
<g id="edge25" class="edge">
<title>Node15&#45;&gt;Node2</title>
<path fill="none" stroke="#191970" d="M1186.1685,-153.513C1106.3404,-176.2876 949.8274,-219.4796 859.2085,-243.768"/>
<polygon fill="#191970" stroke="#191970" points="858.0585,-240.4525 849.3026,-246.4178 859.8674,-247.2148 858.0585,-240.4525"/>
</g>
<!-- Node15&#45;&gt;Node16 -->
<g id="edge26" class="edge">
<title>Node15&#45;&gt;Node16</title>
<path fill="none" stroke="#191970" d="M1266.9699,-123.4639C1290.3331,-112.1209 1322.1559,-96.6707 1345.0194,-85.5703"/>
<polygon fill="#191970" stroke="#191970" points="1346.7516,-88.62 1354.2188,-81.1039 1343.6943,-82.323 1346.7516,-88.62"/>
</g>
<!-- Node16&#45;&gt;Node2 -->
<g id="edge28" class="edge">
<title>Node16&#45;&gt;Node2</title>
<path fill="none" stroke="#191970" d="M1375.6437,-81.1158C1372.3543,-97.5741 1356.586,-131.5376 1335,-154 1302.8779,-187.4262 1290.6958,-194.5141 1247,-210 1179.3769,-233.9658 978.9551,-250.0126 867.2422,-257.1954"/>
<polygon fill="#191970" stroke="#191970" points="866.8041,-253.7161 857.0457,-257.8422 867.2473,-260.702 866.8041,-253.7161"/>
</g>
<!-- Node17 -->
<g id="node18" class="node">
<title>Node17</title>
<polygon fill="none" stroke="#bfbfbf" points="1351,-.5 1351,-19.5 1397,-19.5 1397,-.5 1351,-.5"/>
<text text-anchor="middle" x="1374" y="-7.5" font-family="Helvetica,sans-Serif" font-size="10.00" fill="#000000">stdio.h</text>
</g>
<!-- Node16&#45;&gt;Node17 -->
<g id="edge27" class="edge">
<title>Node16&#45;&gt;Node17</title>
<path fill="none" stroke="#191970" d="M1374,-61.8906C1374,-53.3657 1374,-40.6392 1374,-29.9235"/>
<polygon fill="#191970" stroke="#191970" points="1377.5001,-29.7448 1374,-19.7449 1370.5001,-29.7449 1377.5001,-29.7448"/>
</g>
</g>
</svg>
        <g id="navigator" transform="translate(0 0)" fill="#404254">
                <rect fill="#f2f5e9" fill-opacity="0.5" stroke="#606060" stroke-width=".5" x="0" y="0" width="60" height="60"/>
                <use id="zoomplus" xlink:href="#zoomPlus" x="17" y="9" onmousedown="handleZoom(evt,'in')"/>
                <use id="zoomminus" xlink:href="#zoomMin" x="42" y="9" onmousedown="handleZoom(evt,'out')"/>
                <use id="reset" xlink:href="#resetDef" x="30" y="36" onmousedown="handleReset()"/>
                <g id="arrowUp" xlink:href="#dirArrow" transform="translate(30 24)" onmousedown="handlePan(0,-1)">
                  <use xlink:href="#rim" fill="#404040">
                        <set attributeName="fill" to="#808080" begin="arrowUp.mouseover" end="arrowUp.mouseout"/>
                  </use>
                  <path fill="none" stroke="white" stroke-width="1.5" d="M0,-3.0v7 M-2.5,-0.5L0,-3.0L2.5,-0.5"/>
                </g>
                <g id="arrowRight" xlink:href="#dirArrow" transform="rotate(90) translate(36 -43)" onmousedown="handlePan(1,0)">
                  <use xlink:href="#rim" fill="#404040">
                        <set attributeName="fill" to="#808080" begin="arrowRight.mouseover" end="arrowRight.mouseout"/>
                  </use>
                  <path fill="none" stroke="white" stroke-width="1.5" d="M0,-3.0v7 M-2.5,-0.5L0,-3.0L2.5,-0.5"/>
                </g>
                <g id="arrowDown" xlink:href="#dirArrow" transform="rotate(180) translate(-30 -48)" onmousedown="handlePan(0,1)">
                  <use xlink:href="#rim" fill="#404040">
                        <set attributeName="fill" to="#808080" begin="arrowDown.mouseover" end="arrowDown.mouseout"/>
                  </use>
                  <path fill="none" stroke="white" stroke-width="1.5" d="M0,-3.0v7 M-2.5,-0.5L0,-3.0L2.5,-0.5"/>
                </g>
                <g id="arrowLeft" xlink:href="#dirArrow" transform="rotate(270) translate(-36 17)" onmousedown="handlePan(-1,0)">
                  <use xlink:href="#rim" fill="#404040">
                        <set attributeName="fill" to="#808080" begin="arrowLeft.mouseover" end="arrowLeft.mouseout"/>
                  </use>
                  <path fill="none" stroke="white" stroke-width="1.5" d="M0,-3.0v7 M-2.5,-0.5L0,-3.0L2.5,-0.5"/>
                </g>
        </g>
        <svg viewBox="0 0 15 15" width="100%" height="30px" preserveAspectRatio="xMaxYMin meet">
         <g id="arrow_out" transform="scale(0.3 0.3)">
          <a xlink:href="strings_8h__incl_org.svg" target="_base">
           <rect id="button" ry="5" rx="5" y="6" x="6" height="38" width="38"
                fill="#f2f5e9" fill-opacity="0.5" stroke="#606060" stroke-width="1.0"/>
           <path id="arrow"
             d="M 11.500037,31.436501 C 11.940474,20.09759 22.043105,11.32322 32.158766,21.979434 L 37.068811,17.246167 C 37.068811,17.246167 37.088388,32 37.088388,32 L 22.160133,31.978069 C 22.160133,31.978069 26.997745,27.140456 26.997745,27.140456 C 18.528582,18.264221 13.291696,25.230495 11.500037,31.436501 z"
             style="fill:#404040;"/>
          </a>
         </g>
        </svg>
</svg>
