<?xml version="1.0" encoding="UTF-8" standalone="no"?>
<!DOCTYPE svg PUBLIC "-//W3C//DTD SVG 1.1//EN"
 "http://www.w3.org/Graphics/SVG/1.1/DTD/svg11.dtd">
<!-- Generated by graphviz version 2.40.1 (20161225.0304)
 -->
<!-- Title: ViennaRNA/unstructured_domains.h Pages: 1 -->
<svg width="1297pt" height="352pt"
 viewBox="0.00 0.00 1296.50 352.00" xmlns="http://www.w3.org/2000/svg" xmlns:xlink="http://www.w3.org/1999/xlink">
<g id="graph0" class="graph" transform="scale(1 1) rotate(0) translate(4 348)">
<title>ViennaRNA/unstructured_domains.h</title>
<!-- Node0 -->
<g id="node1" class="node">
<title>Node0</title>
<polygon fill="#bfbfbf" stroke="#000000" points="704,-313.5 704,-343.5 829,-343.5 829,-313.5 704,-313.5"/>
<text text-anchor="start" x="712" y="-331.5" font-family="Helvetica,sans-Serif" font-size="10.00" fill="#000000">ViennaRNA/unstructured</text>
<text text-anchor="middle" x="766.5" y="-320.5" font-family="Helvetica,sans-Serif" font-size="10.00" fill="#000000">_domains.h</text>
</g>
<!-- Node1 -->
<g id="node2" class="node">
<title>Node1</title>
<g id="a_node2"><a xlink:href="datastructures_2basic_8h.html" target="_top" xlink:title="Various data structures and pre&#45;processor macros. ">
<polygon fill="none" stroke="#000000" points="699.5,-246.5 699.5,-276.5 833.5,-276.5 833.5,-246.5 699.5,-246.5"/>
<text text-anchor="start" x="707.5" y="-264.5" font-family="Helvetica,sans-Serif" font-size="10.00" fill="#000000">ViennaRNA/datastructures</text>
<text text-anchor="middle" x="766.5" y="-253.5" font-family="Helvetica,sans-Serif" font-size="10.00" fill="#000000">/basic.h</text>
</a>
</g>
</g>
<!-- Node0&#45;&gt;Node1 -->
<g id="edge1" class="edge">
<title>Node0&#45;&gt;Node1</title>
<path fill="none" stroke="#191970" d="M760.7392,-313.2967C759.7895,-305.4156 759.5236,-295.5857 759.9416,-286.6135"/>
<polygon fill="#191970" stroke="#191970" points="763.4304,-286.8924 760.7464,-276.6432 756.4531,-286.3291 763.4304,-286.8924"/>
</g>
<!-- Node14 -->
<g id="node15" class="node">
<title>Node14</title>
<g id="a_node15"><a xlink:href="utils_2structures_8h.html" target="_top" xlink:title="Various utility&#45; and helper&#45;functions for secondary structure parsing, converting, etc. ">
<polygon fill="none" stroke="#000000" points="1144.5,-190.5 1144.5,-209.5 1288.5,-209.5 1288.5,-190.5 1144.5,-190.5"/>
<text text-anchor="middle" x="1216.5" y="-197.5" font-family="Helvetica,sans-Serif" font-size="10.00" fill="#000000">ViennaRNA/utils/structures.h</text>
</a>
</g>
</g>
<!-- Node0&#45;&gt;Node14 -->
<g id="edge35" class="edge">
<title>Node0&#45;&gt;Node14</title>
<path fill="none" stroke="#191970" d="M819.444,-313.3816C909.4363,-287.6837 1090.5157,-235.9755 1173.3554,-212.3202"/>
<polygon fill="#191970" stroke="#191970" points="1174.5398,-215.6219 1183.1944,-209.5106 1172.6177,-208.891 1174.5398,-215.6219"/>
</g>
<!-- Node1&#45;&gt;Node0 -->
<g id="edge31" class="edge">
<title>Node1&#45;&gt;Node0</title>
<path fill="none" stroke="#191970" d="M772.2536,-276.6432C773.2067,-284.5143 773.4761,-294.3414 773.0616,-303.3179"/>
<polygon fill="#191970" stroke="#191970" points="769.572,-303.0487 772.2608,-313.2967 776.5496,-303.6087 769.572,-303.0487"/>
</g>
<!-- Node2 -->
<g id="node3" class="node">
<title>Node2</title>
<g id="a_node3"><a xlink:href="constants_8h.html" target="_top" xlink:title="Energy parameter constants. ">
<polygon fill="none" stroke="#000000" points="968.5,-62 968.5,-81 1126.5,-81 1126.5,-62 968.5,-62"/>
<text text-anchor="middle" x="1047.5" y="-69" font-family="Helvetica,sans-Serif" font-size="10.00" fill="#000000">ViennaRNA/params/constants.h</text>
</a>
</g>
</g>
<!-- Node1&#45;&gt;Node2 -->
<g id="edge2" class="edge">
<title>Node1&#45;&gt;Node2</title>
<path fill="none" stroke="#191970" d="M833.6769,-253.7055C881.0005,-246.517 945.0224,-233.3094 997.5,-210 1036.8323,-192.5295 1056.7378,-192.2322 1076.5,-154 1087.5419,-132.6381 1073.8189,-106.1285 1061.7488,-89.0185"/>
<polygon fill="#191970" stroke="#191970" points="1064.5328,-86.8972 1055.7275,-81.005 1058.9365,-91.1022 1064.5328,-86.8972"/>
</g>
<!-- Node4 -->
<g id="node5" class="node">
<title>Node4</title>
<g id="a_node5"><a xlink:href="fold__compound_8h.html" target="_top" xlink:title="The Basic Fold Compound API. ">
<polygon fill="none" stroke="#000000" points="476.5,-190.5 476.5,-209.5 622.5,-209.5 622.5,-190.5 476.5,-190.5"/>
<text text-anchor="middle" x="549.5" y="-197.5" font-family="Helvetica,sans-Serif" font-size="10.00" fill="#000000">ViennaRNA/fold_compound.h</text>
</a>
</g>
</g>
<!-- Node1&#45;&gt;Node4 -->
<g id="edge4" class="edge">
<title>Node1&#45;&gt;Node4</title>
<path fill="none" stroke="#191970" d="M713.4158,-246.4554C676.4148,-235.9689 627.6604,-222.1515 592.9658,-212.3187"/>
<polygon fill="#191970" stroke="#191970" points="593.7027,-208.8897 583.1273,-209.5303 591.794,-215.6245 593.7027,-208.8897"/>
</g>
<!-- Node5 -->
<g id="node6" class="node">
<title>Node5</title>
<g id="a_node6"><a xlink:href="model_8h.html" target="_top" xlink:title="The model details data structure and its corresponding modifiers. ">
<polygon fill="none" stroke="#000000" points="776.5,-62 776.5,-81 882.5,-81 882.5,-62 776.5,-62"/>
<text text-anchor="middle" x="829.5" y="-69" font-family="Helvetica,sans-Serif" font-size="10.00" fill="#000000">ViennaRNA/model.h</text>
</a>
</g>
</g>
<!-- Node1&#45;&gt;Node5 -->
<g id="edge24" class="edge">
<title>Node1&#45;&gt;Node5</title>
<path fill="none" stroke="#191970" d="M832.6179,-246.4297C910.3134,-227.2247 1032.039,-191.9389 1058.5,-154 1066.3818,-142.6994 1067.1075,-133.7582 1058.5,-123 1048.0486,-109.9371 956.7775,-92.4419 892.6731,-81.5759"/>
<polygon fill="#191970" stroke="#191970" points="893.076,-78.0946 882.6345,-79.8905 891.917,-84.998 893.076,-78.0946"/>
</g>
<!-- Node6 -->
<g id="node7" class="node">
<title>Node6</title>
<g id="a_node7"><a xlink:href="params_2basic_8h.html" target="_top" xlink:title="Functions to deal with sets of energy parameters. ">
<polygon fill="none" stroke="#000000" points="760.5,-129 760.5,-148 898.5,-148 898.5,-129 760.5,-129"/>
<text text-anchor="middle" x="829.5" y="-136" font-family="Helvetica,sans-Serif" font-size="10.00" fill="#000000">ViennaRNA/params/basic.h</text>
</a>
</g>
</g>
<!-- Node1&#45;&gt;Node6 -->
<g id="edge25" class="edge">
<title>Node1&#45;&gt;Node6</title>
<path fill="none" stroke="#191970" d="M769.6108,-246.4178C778.4856,-223.765 800.2622,-181.0248 815.229,-156.6811"/>
<polygon fill="#191970" stroke="#191970" points="818.3154,-158.3527 820.7832,-148.0493 812.4287,-154.5649 818.3154,-158.3527"/>
</g>
<!-- Node8 -->
<g id="node9" class="node">
<title>Node8</title>
<g id="a_node9"><a xlink:href="dp__matrices_8h.html" target="_top" xlink:title="Functions to deal with standard dynamic programming (DP) matrices. ">
<polygon fill="none" stroke="#000000" points="917,-129 917,-148 1050,-148 1050,-129 917,-129"/>
<text text-anchor="middle" x="983.5" y="-136" font-family="Helvetica,sans-Serif" font-size="10.00" fill="#000000">ViennaRNA/dp_matrices.h</text>
</a>
</g>
</g>
<!-- Node1&#45;&gt;Node8 -->
<g id="edge26" class="edge">
<title>Node1&#45;&gt;Node8</title>
<path fill="none" stroke="#191970" d="M788.4942,-246.4178C827.7906,-222.5121 909.4646,-176.2354 953.7211,-152.8171"/>
<polygon fill="#191970" stroke="#191970" points="955.5916,-155.7886 962.8273,-148.0493 952.3446,-149.5872 955.5916,-155.7886"/>
</g>
<!-- Node9 -->
<g id="node10" class="node">
<title>Node9</title>
<g id="a_node10"><a xlink:href="hard_8h.html" target="_top" xlink:title="Functions and data structures for handling of secondary structure hard constraints. ">
<polygon fill="none" stroke="#000000" points="0,-123.5 0,-153.5 119,-153.5 119,-123.5 0,-123.5"/>
<text text-anchor="start" x="8" y="-141.5" font-family="Helvetica,sans-Serif" font-size="10.00" fill="#000000">ViennaRNA/constraints</text>
<text text-anchor="middle" x="59.5" y="-130.5" font-family="Helvetica,sans-Serif" font-size="10.00" fill="#000000">/hard.h</text>
</a>
</g>
</g>
<!-- Node1&#45;&gt;Node9 -->
<g id="edge27" class="edge">
<title>Node1&#45;&gt;Node9</title>
<path fill="none" stroke="#191970" d="M699.2383,-258.7943C545.0025,-251.9998 175.5796,-233.0992 124.5,-210 101.4268,-199.5658 81.2172,-178.7651 69.3021,-162.277"/>
<polygon fill="#191970" stroke="#191970" points="72.0209,-160.0445 63.5705,-153.6539 66.1912,-163.9195 72.0209,-160.0445"/>
</g>
<!-- Node11 -->
<g id="node12" class="node">
<title>Node11</title>
<g id="a_node12"><a xlink:href="soft_8h.html" target="_top" xlink:title="Functions and data structures for secondary structure soft constraints. ">
<polygon fill="none" stroke="#000000" points="490,-123.5 490,-153.5 609,-153.5 609,-123.5 490,-123.5"/>
<text text-anchor="start" x="498" y="-141.5" font-family="Helvetica,sans-Serif" font-size="10.00" fill="#000000">ViennaRNA/constraints</text>
<text text-anchor="middle" x="549.5" y="-130.5" font-family="Helvetica,sans-Serif" font-size="10.00" fill="#000000">/soft.h</text>
</a>
</g>
</g>
<!-- Node1&#45;&gt;Node11 -->
<g id="edge28" class="edge">
<title>Node1&#45;&gt;Node11</title>
<path fill="none" stroke="#191970" d="M735.2773,-246.4178C693.8023,-224.411 621.347,-183.4461 580.1615,-158.8078"/>
<polygon fill="#191970" stroke="#191970" points="581.7514,-155.6794 571.3804,-153.513 578.1368,-161.674 581.7514,-155.6794"/>
</g>
<!-- Node12 -->
<g id="node13" class="node">
<title>Node12</title>
<g id="a_node13"><a xlink:href="grammar_8h.html" target="_top" xlink:title="Implementations for the RNA folding grammar. ">
<polygon fill="none" stroke="#000000" points="176,-129 176,-148 293,-148 293,-129 176,-129"/>
<text text-anchor="middle" x="234.5" y="-136" font-family="Helvetica,sans-Serif" font-size="10.00" fill="#000000">ViennaRNA/grammar.h</text>
</a>
</g>
</g>
<!-- Node1&#45;&gt;Node12 -->
<g id="edge29" class="edge">
<title>Node1&#45;&gt;Node12</title>
<path fill="none" stroke="#191970" d="M699.2062,-252.4085C638.2791,-243.5867 546.2763,-228.7906 467.5,-210 397.2847,-193.2514 317.1801,-167.0732 271.5482,-151.4709"/>
<polygon fill="#191970" stroke="#191970" points="272.4001,-148.0627 261.8055,-148.121 270.124,-154.6824 272.4001,-148.0627"/>
</g>
<!-- Node13 -->
<g id="node14" class="node">
<title>Node13</title>
<g id="a_node14"><a xlink:href="structured__domains_8h.html" target="_top" xlink:title="This module provides interfaces that deal with additional structured domains in the folding grammar...">
<polygon fill="none" stroke="#000000" points="627,-123.5 627,-153.5 742,-153.5 742,-123.5 627,-123.5"/>
<text text-anchor="start" x="635" y="-141.5" font-family="Helvetica,sans-Serif" font-size="10.00" fill="#000000">ViennaRNA/structured</text>
<text text-anchor="middle" x="684.5" y="-130.5" font-family="Helvetica,sans-Serif" font-size="10.00" fill="#000000">_domains.h</text>
</a>
</g>
</g>
<!-- Node1&#45;&gt;Node13 -->
<g id="edge30" class="edge">
<title>Node1&#45;&gt;Node13</title>
<path fill="none" stroke="#191970" d="M756.4452,-246.4178C742.4285,-225.3928 716.8757,-187.0635 700.2998,-162.1997"/>
<polygon fill="#191970" stroke="#191970" points="703.0963,-160.0846 694.6371,-153.7056 697.2719,-163.9676 703.0963,-160.0846"/>
</g>
<!-- Node1&#45;&gt;Node14 -->
<g id="edge32" class="edge">
<title>Node1&#45;&gt;Node14</title>
<path fill="none" stroke="#191970" d="M833.6855,-251.619C913.8764,-240.3672 1047.8126,-222.0571 1134.1519,-210.5387"/>
<polygon fill="#191970" stroke="#191970" points="1134.727,-213.9931 1144.1773,-209.2033 1133.8027,-207.0543 1134.727,-213.9931"/>
</g>
<!-- Node3 -->
<g id="node4" class="node">
<title>Node3</title>
<polygon fill="none" stroke="#bfbfbf" points="1023.5,-.5 1023.5,-19.5 1071.5,-19.5 1071.5,-.5 1023.5,-.5"/>
<text text-anchor="middle" x="1047.5" y="-7.5" font-family="Helvetica,sans-Serif" font-size="10.00" fill="#000000">limits.h</text>
</g>
<!-- Node2&#45;&gt;Node3 -->
<g id="edge3" class="edge">
<title>Node2&#45;&gt;Node3</title>
<path fill="none" stroke="#191970" d="M1047.5,-61.8906C1047.5,-53.3657 1047.5,-40.6392 1047.5,-29.9235"/>
<polygon fill="#191970" stroke="#191970" points="1051.0001,-29.7448 1047.5,-19.7449 1044.0001,-29.7449 1051.0001,-29.7448"/>
</g>
<!-- Node4&#45;&gt;Node0 -->
<g id="edge23" class="edge">
<title>Node4&#45;&gt;Node0</title>
<path fill="none" stroke="#191970" d="M565.662,-209.5706C600.74,-230.3426 684.511,-279.9489 732.0399,-308.0939"/>
<polygon fill="#191970" stroke="#191970" points="730.3672,-311.171 740.7551,-313.2548 733.9339,-305.1478 730.3672,-311.171"/>
</g>
<!-- Node4&#45;&gt;Node5 -->
<g id="edge5" class="edge">
<title>Node4&#45;&gt;Node5</title>
<path fill="none" stroke="#191970" d="M523.9738,-190.3698C508.3579,-182.9914 489.6711,-171.1364 480.5,-154 473.9988,-141.8525 471.4968,-133.4293 480.5,-123 498.8904,-101.6967 670.7805,-84.4361 766.2709,-76.3948"/>
<polygon fill="#191970" stroke="#191970" points="766.7183,-79.8697 776.3937,-75.5527 766.138,-72.8938 766.7183,-79.8697"/>
</g>
<!-- Node4&#45;&gt;Node6 -->
<g id="edge6" class="edge">
<title>Node4&#45;&gt;Node6</title>
<path fill="none" stroke="#191970" d="M592.9428,-190.4581C642.2956,-179.6181 722.8616,-161.9224 776.032,-150.2439"/>
<polygon fill="#191970" stroke="#191970" points="776.939,-153.6282 785.9553,-148.0643 775.4372,-146.7911 776.939,-153.6282"/>
</g>
<!-- Node7 -->
<g id="node8" class="node">
<title>Node7</title>
<g id="a_node8"><a xlink:href="sequence_8h.html" target="_top" xlink:title="Functions and data structures related to sequence representations ,. ">
<polygon fill="none" stroke="#000000" points="311.5,-129 311.5,-148 433.5,-148 433.5,-129 311.5,-129"/>
<text text-anchor="middle" x="372.5" y="-136" font-family="Helvetica,sans-Serif" font-size="10.00" fill="#000000">ViennaRNA/sequence.h</text>
</a>
</g>
</g>
<!-- Node4&#45;&gt;Node7 -->
<g id="edge10" class="edge">
<title>Node4&#45;&gt;Node7</title>
<path fill="none" stroke="#191970" d="M521.8438,-190.3906C491.5789,-179.8749 442.9145,-162.966 409.4089,-151.3243"/>
<polygon fill="#191970" stroke="#191970" points="410.5569,-148.0179 399.962,-148.0419 408.2593,-154.6302 410.5569,-148.0179"/>
</g>
<!-- Node4&#45;&gt;Node8 -->
<g id="edge11" class="edge">
<title>Node4&#45;&gt;Node8</title>
<path fill="none" stroke="#191970" d="M622.7517,-192.1809C695.2725,-184.0653 809.3641,-170.2895 907.5,-154 914.6237,-152.8175 922.0978,-151.4503 929.4628,-150.0277"/>
<polygon fill="#191970" stroke="#191970" points="930.2633,-153.4373 939.3953,-148.0655 928.9066,-146.57 930.2633,-153.4373"/>
</g>
<!-- Node4&#45;&gt;Node9 -->
<g id="edge13" class="edge">
<title>Node4&#45;&gt;Node9</title>
<path fill="none" stroke="#191970" d="M476.3663,-191.7519C399.2428,-182.9284 274.2194,-168.2687 166.5,-154 154.5067,-152.4113 141.77,-150.6401 129.4244,-148.879"/>
<polygon fill="#191970" stroke="#191970" points="129.5671,-145.3636 119.1711,-147.4062 128.5718,-152.2925 129.5671,-145.3636"/>
</g>
<!-- Node4&#45;&gt;Node11 -->
<g id="edge17" class="edge">
<title>Node4&#45;&gt;Node11</title>
<path fill="none" stroke="#191970" d="M549.5,-190.3906C549.5,-183.2234 549.5,-173.0862 549.5,-163.671"/>
<polygon fill="#191970" stroke="#191970" points="553.0001,-163.5446 549.5,-153.5446 546.0001,-163.5446 553.0001,-163.5446"/>
</g>
<!-- Node4&#45;&gt;Node12 -->
<g id="edge20" class="edge">
<title>Node4&#45;&gt;Node12</title>
<path fill="none" stroke="#191970" d="M487.9051,-190.4829C435.7952,-181.5871 359.4927,-167.6606 293.5,-154 287.942,-152.8495 282.1396,-151.6006 276.4238,-150.328"/>
<polygon fill="#191970" stroke="#191970" points="276.8274,-146.8306 266.3004,-148.0278 275.2763,-153.6566 276.8274,-146.8306"/>
</g>
<!-- Node4&#45;&gt;Node13 -->
<g id="edge22" class="edge">
<title>Node4&#45;&gt;Node13</title>
<path fill="none" stroke="#191970" d="M570.5938,-190.3906C589.7102,-181.682 618.4514,-168.5888 642.2798,-157.7336"/>
<polygon fill="#191970" stroke="#191970" points="643.8261,-160.8754 651.4753,-153.5446 640.9241,-154.5052 643.8261,-160.8754"/>
</g>
<!-- Node6&#45;&gt;Node1 -->
<g id="edge8" class="edge">
<title>Node6&#45;&gt;Node1</title>
<path fill="none" stroke="#191970" d="M828.4346,-148.0493C821.893,-167.1631 800.1759,-210.6215 784.06,-237.8606"/>
<polygon fill="#191970" stroke="#191970" points="781.0596,-236.0582 778.8393,-246.4178 787.0353,-239.7039 781.0596,-236.0582"/>
</g>
<!-- Node6&#45;&gt;Node2 -->
<g id="edge7" class="edge">
<title>Node6&#45;&gt;Node2</title>
<path fill="none" stroke="#191970" d="M860.7341,-128.9005C899.1001,-117.1091 964.287,-97.0746 1006.6111,-84.0668"/>
<polygon fill="#191970" stroke="#191970" points="1007.7934,-87.3651 1016.3239,-81.0817 1005.7369,-80.6739 1007.7934,-87.3651"/>
</g>
<!-- Node6&#45;&gt;Node5 -->
<g id="edge9" class="edge">
<title>Node6&#45;&gt;Node5</title>
<path fill="none" stroke="#191970" d="M829.5,-128.9005C829.5,-119.149 829.5,-103.7597 829.5,-91.3695"/>
<polygon fill="#191970" stroke="#191970" points="833.0001,-91.0816 829.5,-81.0817 826.0001,-91.0817 833.0001,-91.0816"/>
</g>
<!-- Node8&#45;&gt;Node1 -->
<g id="edge12" class="edge">
<title>Node8&#45;&gt;Node1</title>
<path fill="none" stroke="#191970" d="M970.4786,-148.0493C938.5484,-168.0773 856.4911,-214.8341 806.6374,-241.6531"/>
<polygon fill="#191970" stroke="#191970" points="804.8922,-238.6172 797.7227,-246.4178 808.1919,-244.7907 804.8922,-238.6172"/>
</g>
<!-- Node9&#45;&gt;Node1 -->
<g id="edge14" class="edge">
<title>Node9&#45;&gt;Node1</title>
<path fill="none" stroke="#191970" d="M76.4832,-153.6539C91.8304,-170.7056 115.1539,-197.6336 142.5,-210 191.4991,-232.1584 533.4374,-250.4532 689.3909,-257.9044"/>
<polygon fill="#191970" stroke="#191970" points="689.2343,-261.4008 699.3892,-258.3794 689.5666,-254.4087 689.2343,-261.4008"/>
</g>
<!-- Node10 -->
<g id="node11" class="node">
<title>Node10</title>
<g id="a_node11"><a xlink:href="constraints_2basic_8h.html" target="_top" xlink:title="Functions and data structures for constraining secondary structure predictions and evaluation...">
<polygon fill="none" stroke="#000000" points="88,-56.5 88,-86.5 207,-86.5 207,-56.5 88,-56.5"/>
<text text-anchor="start" x="96" y="-74.5" font-family="Helvetica,sans-Serif" font-size="10.00" fill="#000000">ViennaRNA/constraints</text>
<text text-anchor="middle" x="147.5" y="-63.5" font-family="Helvetica,sans-Serif" font-size="10.00" fill="#000000">/basic.h</text>
</a>
</g>
</g>
<!-- Node9&#45;&gt;Node10 -->
<g id="edge15" class="edge">
<title>Node9&#45;&gt;Node10</title>
<path fill="none" stroke="#191970" d="M79.4686,-123.2967C91.2825,-114.302 106.4306,-102.7687 119.4327,-92.8694"/>
<polygon fill="#191970" stroke="#191970" points="121.7743,-95.4857 127.6105,-86.6432 117.5338,-89.9162 121.7743,-95.4857"/>
</g>
<!-- Node10&#45;&gt;Node1 -->
<g id="edge16" class="edge">
<title>Node10&#45;&gt;Node1</title>
<path fill="none" stroke="#191970" d="M146.564,-86.8196C146.3189,-105.2911 148.8756,-136.0817 166.5,-154 238.2445,-226.941 543.9063,-251.0239 689.1954,-258.4424"/>
<polygon fill="#191970" stroke="#191970" points="689.2123,-261.9474 699.3737,-258.9481 689.5598,-254.9561 689.2123,-261.9474"/>
</g>
<!-- Node11&#45;&gt;Node1 -->
<g id="edge18" class="edge">
<title>Node11&#45;&gt;Node1</title>
<path fill="none" stroke="#191970" d="M580.5922,-153.513C622.0022,-175.48 694.4577,-216.442 735.7087,-241.1146"/>
<polygon fill="#191970" stroke="#191970" points="734.1346,-244.2524 744.5058,-246.4178 737.7486,-238.2575 734.1346,-244.2524"/>
</g>
<!-- Node11&#45;&gt;Node10 -->
<g id="edge19" class="edge">
<title>Node11&#45;&gt;Node10</title>
<path fill="none" stroke="#191970" d="M489.7506,-128.5418C417.0112,-116.4185 294.3675,-95.9779 217.3396,-83.1399"/>
<polygon fill="#191970" stroke="#191970" points="217.6883,-79.6499 207.249,-81.4582 216.5375,-86.5546 217.6883,-79.6499"/>
</g>
<!-- Node12&#45;&gt;Node4 -->
<g id="edge21" class="edge">
<title>Node12&#45;&gt;Node4</title>
<path fill="none" stroke="#191970" d="M283.8478,-148.0278C293.0886,-150.0666 302.6073,-152.1592 311.5,-154 373.1104,-166.7534 443.7068,-179.7386 491.9942,-188.6456"/>
<polygon fill="#191970" stroke="#191970" points="491.4791,-192.1096 501.9483,-190.4829 492.7497,-185.2259 491.4791,-192.1096"/>
</g>
<!-- Node14&#45;&gt;Node1 -->
<g id="edge34" class="edge">
<title>Node14&#45;&gt;Node1</title>
<path fill="none" stroke="#191970" d="M1151.753,-209.5387C1070.3639,-220.9688 930.9543,-240.0246 843.9916,-251.6088"/>
<polygon fill="#191970" stroke="#191970" points="843.3669,-248.1609 833.9155,-252.9487 844.2897,-255.0999 843.3669,-248.1609"/>
</g>
<!-- Node15 -->
<g id="node16" class="node">
<title>Node15</title>
<polygon fill="none" stroke="#bfbfbf" points="1193.5,-129 1193.5,-148 1239.5,-148 1239.5,-129 1193.5,-129"/>
<text text-anchor="middle" x="1216.5" y="-136" font-family="Helvetica,sans-Serif" font-size="10.00" fill="#000000">stdio.h</text>
</g>
<!-- Node14&#45;&gt;Node15 -->
<g id="edge33" class="edge">
<title>Node14&#45;&gt;Node15</title>
<path fill="none" stroke="#191970" d="M1216.5,-190.3906C1216.5,-181.8657 1216.5,-169.1392 1216.5,-158.4235"/>
<polygon fill="#191970" stroke="#191970" points="1220.0001,-158.2448 1216.5,-148.2449 1213.0001,-158.2449 1220.0001,-158.2448"/>
</g>
</g>
</svg>
