<?xml version="1.0" encoding="UTF-8" standalone="no"?>
<!DOCTYPE svg PUBLIC "-//W3C//DTD SVG 1.1//EN"
 "http://www.w3.org/Graphics/SVG/1.1/DTD/svg11.dtd">
<!-- Generated by graphviz version 2.40.1 (20161225.0304)
 -->
<!-- Title: ViennaRNA/utils/alignments.h Pages: 1 -->
<!--zoomable 397 -->
<svg id="main" version="1.1" xmlns="http://www.w3.org/2000/svg" xmlns:xlink="http://www.w3.org/1999/xlink" xml:space="preserve" onload="init(evt)">
<style type="text/css"><![CDATA[
.edge:hover path { stroke: red; }
.edge:hover polygon { stroke: red; fill: red; }
]]></style>
<script type="text/javascript"><![CDATA[
var edges = document.getElementsByTagName('g');
if (edges && edges.length) {
  for (var i=0;i<edges.length;i++) {
    if (edges[i].id.substr(0,4)=='edge') {
      edges[i].setAttribute('class','edge');
    }
  }
}
]]></script>
        <defs>
                <circle id="rim" cx="0" cy="0" r="7"/>
                <circle id="rim2" cx="0" cy="0" r="3.5"/>
                <g id="zoomPlus">
                        <use xlink:href="#rim" fill="#404040">
                                <set attributeName="fill" to="#808080" begin="zoomplus.mouseover" end="zoomplus.mouseout"/>
                        </use>
                        <path d="M-4,0h8M0,-4v8" fill="none" stroke="white" stroke-width="1.5" pointer-events="none"/>
                </g>
                <g id="zoomMin">
                        <use xlink:href="#rim" fill="#404040">
                                <set attributeName="fill" to="#808080" begin="zoomminus.mouseover" end="zoomminus.mouseout"/>
                        </use>
                        <path d="M-4,0h8" fill="none" stroke="white" stroke-width="1.5" pointer-events="none"/>
                </g>
                <g id="dirArrow">
                        <path fill="none" stroke="white" stroke-width="1.5" d="M0,-3.0v7 M-2.5,-0.5L0,-3.0L2.5,-0.5"/>
                </g>
               <g id="resetDef">
                       <use xlink:href="#rim2" fill="#404040">
                               <set attributeName="fill" to="#808080" begin="reset.mouseover" end="reset.mouseout"/>
                       </use>
               </g>
        </defs>

<script type="text/javascript">
var viewWidth = 1223;
var viewHeight = 397;
var sectionId = 'dynsection-0';
</script>
<script xlink:href="svgpan.js"/>
<svg id="graph" class="graph">
<g id="viewport">
<title>ViennaRNA/utils/alignments.h</title>
<!-- Node0 -->
<g id="node1" class="node">
<title>Node0</title>
<polygon fill="#bfbfbf" stroke="#000000" points="670,-369.5 670,-388.5 818,-388.5 818,-369.5 670,-369.5"/>
<text text-anchor="middle" x="744" y="-376.5" font-family="Helvetica,sans-Serif" font-size="10.00" fill="#000000">ViennaRNA/utils/alignments.h</text>
</g>
<!-- Node1 -->
<g id="node2" class="node">
<title>Node1</title>
<g id="a_node2"><a xlink:href="fold__compound_8h.html" target="_top" xlink:title="The Basic Fold Compound API. ">
<polygon fill="none" stroke="#000000" points="671,-313.5 671,-332.5 817,-332.5 817,-313.5 671,-313.5"/>
<text text-anchor="middle" x="744" y="-320.5" font-family="Helvetica,sans-Serif" font-size="10.00" fill="#000000">ViennaRNA/fold_compound.h</text>
</a>
</g>
</g>
<!-- Node0&#45;&gt;Node1 -->
<g id="edge1" class="edge">
<title>Node0&#45;&gt;Node1</title>
<path fill="none" stroke="#191970" d="M744,-369.2455C744,-361.9382 744,-351.6944 744,-342.7046"/>
<polygon fill="#191970" stroke="#191970" points="747.5001,-342.6426 744,-332.6427 740.5001,-342.6427 747.5001,-342.6426"/>
</g>
<!-- Node2 -->
<g id="node3" class="node">
<title>Node2</title>
<g id="a_node3"><a xlink:href="model_8h.html" target="_top" xlink:title="The model details data structure and its corresponding modifiers. ">
<polygon fill="none" stroke="#000000" points="0,-129 0,-148 106,-148 106,-129 0,-129"/>
<text text-anchor="middle" x="53" y="-136" font-family="Helvetica,sans-Serif" font-size="10.00" fill="#000000">ViennaRNA/model.h</text>
</a>
</g>
</g>
<!-- Node1&#45;&gt;Node2 -->
<g id="edge2" class="edge">
<title>Node1&#45;&gt;Node2</title>
<path fill="none" stroke="#191970" d="M670.8182,-314.5358C611.4036,-306.9318 525.694,-294.2959 452,-277 371.2601,-258.0504 352.4309,-247.9559 274,-221 207.167,-198.0301 130.0205,-168.5422 86.8301,-151.7597"/>
<polygon fill="#191970" stroke="#191970" points="87.9646,-148.4455 77.3762,-148.0782 85.4245,-154.9684 87.9646,-148.4455"/>
</g>
<!-- Node3 -->
<g id="node4" class="node">
<title>Node3</title>
<g id="a_node4"><a xlink:href="params_2basic_8h.html" target="_top" xlink:title="Functions to deal with sets of energy parameters. ">
<polygon fill="none" stroke="#000000" points="540,-257.5 540,-276.5 678,-276.5 678,-257.5 540,-257.5"/>
<text text-anchor="middle" x="609" y="-264.5" font-family="Helvetica,sans-Serif" font-size="10.00" fill="#000000">ViennaRNA/params/basic.h</text>
</a>
</g>
</g>
<!-- Node1&#45;&gt;Node3 -->
<g id="edge3" class="edge">
<title>Node1&#45;&gt;Node3</title>
<path fill="none" stroke="#191970" d="M720.7927,-313.3733C698.8301,-304.2629 665.6668,-290.5062 641.1599,-280.3404"/>
<polygon fill="#191970" stroke="#191970" points="642.4824,-277.0999 631.9045,-276.5011 639.8003,-283.5657 642.4824,-277.0999"/>
</g>
<!-- Node7 -->
<g id="node8" class="node">
<title>Node7</title>
<g id="a_node8"><a xlink:href="dp__matrices_8h.html" target="_top" xlink:title="Functions to deal with standard dynamic programming (DP) matrices. ">
<polygon fill="none" stroke="#000000" points="124.5,-129 124.5,-148 257.5,-148 257.5,-129 124.5,-129"/>
<text text-anchor="middle" x="191" y="-136" font-family="Helvetica,sans-Serif" font-size="10.00" fill="#000000">ViennaRNA/dp_matrices.h</text>
</a>
</g>
</g>
<!-- Node1&#45;&gt;Node7 -->
<g id="edge31" class="edge">
<title>Node1&#45;&gt;Node7</title>
<path fill="none" stroke="#191970" d="M677.6596,-313.4813C631.2161,-305.9124 568.0538,-293.7941 514,-277 400.7691,-241.82 273.3196,-180.2407 218.4875,-152.6144"/>
<polygon fill="#191970" stroke="#191970" points="219.9174,-149.4153 209.4151,-148.0185 216.7541,-155.6598 219.9174,-149.4153"/>
</g>
<!-- Node8 -->
<g id="node9" class="node">
<title>Node8</title>
<g id="a_node9"><a xlink:href="hard_8h.html" target="_top" xlink:title="Functions and data structures for handling of secondary structure hard constraints. ">
<polygon fill="none" stroke="#000000" points="452.5,-123.5 452.5,-153.5 571.5,-153.5 571.5,-123.5 452.5,-123.5"/>
<text text-anchor="start" x="460.5" y="-141.5" font-family="Helvetica,sans-Serif" font-size="10.00" fill="#000000">ViennaRNA/constraints</text>
<text text-anchor="middle" x="512" y="-130.5" font-family="Helvetica,sans-Serif" font-size="10.00" fill="#000000">/hard.h</text>
</a>
</g>
</g>
<!-- Node1&#45;&gt;Node8 -->
<g id="edge32" class="edge">
<title>Node1&#45;&gt;Node8</title>
<path fill="none" stroke="#191970" d="M670.7649,-316.1095C616.8659,-309.4551 549.8329,-297.3288 531,-277 502.6714,-246.4211 503.802,-194.5334 507.6144,-163.6926"/>
<polygon fill="#191970" stroke="#191970" points="511.0882,-164.1242 509.0309,-153.7311 504.1579,-163.1387 511.0882,-164.1242"/>
</g>
<!-- Node10 -->
<g id="node11" class="node">
<title>Node10</title>
<g id="a_node11"><a xlink:href="soft_8h.html" target="_top" xlink:title="Functions and data structures for secondary structure soft constraints. ">
<polygon fill="none" stroke="#000000" points="684.5,-123.5 684.5,-153.5 803.5,-153.5 803.5,-123.5 684.5,-123.5"/>
<text text-anchor="start" x="692.5" y="-141.5" font-family="Helvetica,sans-Serif" font-size="10.00" fill="#000000">ViennaRNA/constraints</text>
<text text-anchor="middle" x="744" y="-130.5" font-family="Helvetica,sans-Serif" font-size="10.00" fill="#000000">/soft.h</text>
</a>
</g>
</g>
<!-- Node1&#45;&gt;Node10 -->
<g id="edge33" class="edge">
<title>Node1&#45;&gt;Node10</title>
<path fill="none" stroke="#191970" d="M744,-313.3402C744,-285.6387 744,-205.2663 744,-163.8429"/>
<polygon fill="#191970" stroke="#191970" points="747.5001,-163.7363 744,-153.7363 740.5001,-163.7364 747.5001,-163.7363"/>
</g>
<!-- Node11 -->
<g id="node12" class="node">
<title>Node11</title>
<g id="a_node12"><a xlink:href="grammar_8h.html" target="_top" xlink:title="Implementations for the RNA folding grammar. ">
<polygon fill="none" stroke="#000000" points="964.5,-129 964.5,-148 1081.5,-148 1081.5,-129 964.5,-129"/>
<text text-anchor="middle" x="1023" y="-136" font-family="Helvetica,sans-Serif" font-size="10.00" fill="#000000">ViennaRNA/grammar.h</text>
</a>
</g>
</g>
<!-- Node1&#45;&gt;Node11 -->
<g id="edge34" class="edge">
<title>Node1&#45;&gt;Node11</title>
<path fill="none" stroke="#191970" d="M747.398,-313.374C763.8363,-285.8548 825.8418,-207.6901 853,-190 871.9518,-177.6553 926.4513,-161.5054 968.7843,-150.6081"/>
<polygon fill="#191970" stroke="#191970" points="969.873,-153.943 978.7065,-148.0932 968.1531,-147.1575 969.873,-153.943"/>
</g>
<!-- Node12 -->
<g id="node13" class="node">
<title>Node12</title>
<g id="a_node13"><a xlink:href="structured__domains_8h.html" target="_top" xlink:title="This module provides interfaces that deal with additional structured domains in the folding grammar...">
<polygon fill="none" stroke="#000000" points="1099.5,-123.5 1099.5,-153.5 1214.5,-153.5 1214.5,-123.5 1099.5,-123.5"/>
<text text-anchor="start" x="1107.5" y="-141.5" font-family="Helvetica,sans-Serif" font-size="10.00" fill="#000000">ViennaRNA/structured</text>
<text text-anchor="middle" x="1157" y="-130.5" font-family="Helvetica,sans-Serif" font-size="10.00" fill="#000000">_domains.h</text>
</a>
</g>
</g>
<!-- Node1&#45;&gt;Node12 -->
<g id="edge35" class="edge">
<title>Node1&#45;&gt;Node12</title>
<path fill="none" stroke="#191970" d="M765.335,-313.469C830.2127,-284.4861 1026.0464,-197.0011 1113.732,-157.8292"/>
<polygon fill="#191970" stroke="#191970" points="1115.422,-160.9076 1123.1247,-153.6331 1112.5668,-154.5164 1115.422,-160.9076"/>
</g>
<!-- Node13 -->
<g id="node14" class="node">
<title>Node13</title>
<g id="a_node14"><a xlink:href="unstructured__domains_8h.html" target="_top" xlink:title="Functions to modify unstructured domains, e.g. to incorporate ligands binding to unpaired stretches...">
<polygon fill="none" stroke="#000000" points="821.5,-123.5 821.5,-153.5 946.5,-153.5 946.5,-123.5 821.5,-123.5"/>
<text text-anchor="start" x="829.5" y="-141.5" font-family="Helvetica,sans-Serif" font-size="10.00" fill="#000000">ViennaRNA/unstructured</text>
<text text-anchor="middle" x="884" y="-130.5" font-family="Helvetica,sans-Serif" font-size="10.00" fill="#000000">_domains.h</text>
</a>
</g>
</g>
<!-- Node1&#45;&gt;Node13 -->
<g id="edge36" class="edge">
<title>Node1&#45;&gt;Node13</title>
<path fill="none" stroke="#191970" d="M746.5286,-313.2941C753.0282,-289.8455 772.2219,-229.1611 806,-190 816.6938,-177.6019 831.0747,-166.9768 844.5751,-158.6529"/>
<polygon fill="#191970" stroke="#191970" points="846.4392,-161.6169 853.272,-153.5198 842.8811,-155.5886 846.4392,-161.6169"/>
</g>
<!-- Node16 -->
<g id="node17" class="node">
<title>Node16</title>
<g id="a_node17"><a xlink:href="sequence_8h.html" target="_top" xlink:title="Functions and data structures related to sequence representations ,. ">
<polygon fill="none" stroke="#000000" points="904,-257.5 904,-276.5 1026,-276.5 1026,-257.5 904,-257.5"/>
<text text-anchor="middle" x="965" y="-264.5" font-family="Helvetica,sans-Serif" font-size="10.00" fill="#000000">ViennaRNA/sequence.h</text>
</a>
</g>
</g>
<!-- Node1&#45;&gt;Node16 -->
<g id="edge30" class="edge">
<title>Node1&#45;&gt;Node16</title>
<path fill="none" stroke="#191970" d="M781.7401,-313.4369C819.2448,-303.9335 876.8799,-289.3291 917.4824,-279.0407"/>
<polygon fill="#191970" stroke="#191970" points="918.5816,-282.3728 927.4155,-276.5237 916.8621,-275.5873 918.5816,-282.3728"/>
</g>
<!-- Node3&#45;&gt;Node2 -->
<g id="edge29" class="edge">
<title>Node3&#45;&gt;Node2</title>
<path fill="none" stroke="#191970" d="M565.9815,-257.4652C480.1175,-238.3665 281.4188,-193.8318 115,-154 110.323,-152.8806 105.4525,-151.6959 100.588,-150.5001"/>
<polygon fill="#191970" stroke="#191970" points="101.2233,-147.0519 90.6753,-148.0475 99.5419,-153.8469 101.2233,-147.0519"/>
</g>
<!-- Node4 -->
<g id="node5" class="node">
<title>Node4</title>
<g id="a_node5"><a xlink:href="constants_8h.html" target="_top" xlink:title="Energy parameter constants. ">
<polygon fill="none" stroke="#000000" points="276,-129 276,-148 434,-148 434,-129 276,-129"/>
<text text-anchor="middle" x="355" y="-136" font-family="Helvetica,sans-Serif" font-size="10.00" fill="#000000">ViennaRNA/params/constants.h</text>
</a>
</g>
</g>
<!-- Node3&#45;&gt;Node4 -->
<g id="edge4" class="edge">
<title>Node3&#45;&gt;Node4</title>
<path fill="none" stroke="#191970" d="M589.9087,-257.3416C545.4863,-234.8681 435.0276,-178.9864 382.9766,-152.6535"/>
<polygon fill="#191970" stroke="#191970" points="384.4694,-149.4864 373.9663,-148.0952 381.3094,-155.7326 384.4694,-149.4864"/>
</g>
<!-- Node6 -->
<g id="node7" class="node">
<title>Node6</title>
<g id="a_node7"><a xlink:href="datastructures_2basic_8h.html" target="_top" xlink:title="Various data structures and pre&#45;processor macros. ">
<polygon fill="none" stroke="#000000" points="579,-190.5 579,-220.5 713,-220.5 713,-190.5 579,-190.5"/>
<text text-anchor="start" x="587" y="-208.5" font-family="Helvetica,sans-Serif" font-size="10.00" fill="#000000">ViennaRNA/datastructures</text>
<text text-anchor="middle" x="646" y="-197.5" font-family="Helvetica,sans-Serif" font-size="10.00" fill="#000000">/basic.h</text>
</a>
</g>
</g>
<!-- Node3&#45;&gt;Node6 -->
<g id="edge6" class="edge">
<title>Node3&#45;&gt;Node6</title>
<path fill="none" stroke="#191970" d="M609.7188,-257.3906C612.8202,-249.761 618.9315,-238.7658 625.3731,-228.8588"/>
<polygon fill="#191970" stroke="#191970" points="628.3019,-230.7764 631.0517,-220.5446 622.5214,-226.8283 628.3019,-230.7764"/>
</g>
<!-- Node5 -->
<g id="node6" class="node">
<title>Node5</title>
<polygon fill="none" stroke="#bfbfbf" points="331,-62 331,-81 379,-81 379,-62 331,-62"/>
<text text-anchor="middle" x="355" y="-69" font-family="Helvetica,sans-Serif" font-size="10.00" fill="#000000">limits.h</text>
</g>
<!-- Node4&#45;&gt;Node5 -->
<g id="edge5" class="edge">
<title>Node4&#45;&gt;Node5</title>
<path fill="none" stroke="#191970" d="M355,-128.9005C355,-119.149 355,-103.7597 355,-91.3695"/>
<polygon fill="#191970" stroke="#191970" points="358.5001,-91.0816 355,-81.0817 351.5001,-91.0817 358.5001,-91.0816"/>
</g>
<!-- Node6&#45;&gt;Node1 -->
<g id="edge8" class="edge">
<title>Node6&#45;&gt;Node1</title>
<path fill="none" stroke="#191970" d="M658.6894,-220.7143C676.8592,-242.4996 710.2067,-282.4825 729.3849,-305.4768"/>
<polygon fill="#191970" stroke="#191970" points="726.8873,-307.9467 735.9802,-313.3845 732.263,-303.4631 726.8873,-307.9467"/>
</g>
<!-- Node6&#45;&gt;Node2 -->
<g id="edge9" class="edge">
<title>Node6&#45;&gt;Node2</title>
<path fill="none" stroke="#191970" d="M578.9338,-202.1912C477.7857,-196.4819 280.4302,-182.5389 115,-154 109.1864,-152.9971 103.113,-151.7421 97.1387,-150.383"/>
<polygon fill="#191970" stroke="#191970" points="97.7802,-146.9379 87.2411,-148.0237 96.157,-153.7472 97.7802,-146.9379"/>
</g>
<!-- Node6&#45;&gt;Node3 -->
<g id="edge10" class="edge">
<title>Node6&#45;&gt;Node3</title>
<path fill="none" stroke="#191970" d="M642.8459,-220.5446C638.6873,-229.1627 632.2489,-240.0307 625.9739,-249.0877"/>
<polygon fill="#191970" stroke="#191970" points="622.9677,-247.2668 619.8438,-257.3906 628.5992,-251.4246 622.9677,-247.2668"/>
</g>
<!-- Node6&#45;&gt;Node4 -->
<g id="edge7" class="edge">
<title>Node6&#45;&gt;Node4</title>
<path fill="none" stroke="#191970" d="M580.6939,-190.4639C527.9725,-178.3253 454.8223,-161.4831 406.2579,-150.3016"/>
<polygon fill="#191970" stroke="#191970" points="406.8145,-146.8383 396.2842,-148.0053 405.2439,-153.6598 406.8145,-146.8383"/>
</g>
<!-- Node6&#45;&gt;Node7 -->
<g id="edge11" class="edge">
<title>Node6&#45;&gt;Node7</title>
<path fill="none" stroke="#191970" d="M578.7647,-198.4824C501.0595,-189.5473 369.785,-172.9727 258,-154 251.0424,-152.8191 243.7485,-151.4722 236.6248,-150.0766"/>
<polygon fill="#191970" stroke="#191970" points="236.8626,-146.5543 226.3684,-148.0109 235.4805,-153.4165 236.8626,-146.5543"/>
</g>
<!-- Node6&#45;&gt;Node8 -->
<g id="edge13" class="edge">
<title>Node6&#45;&gt;Node8</title>
<path fill="none" stroke="#191970" d="M610.1873,-190.4639C590.1134,-181.0047 565.3192,-168.6894 545.6135,-158.4222"/>
<polygon fill="#191970" stroke="#191970" points="547.1524,-155.277 536.6729,-153.7177 543.8927,-161.4718 547.1524,-155.277"/>
</g>
<!-- Node6&#45;&gt;Node10 -->
<g id="edge17" class="edge">
<title>Node6&#45;&gt;Node10</title>
<path fill="none" stroke="#191970" d="M662.4769,-190.2967C674.7794,-181.1306 691.8627,-169.3285 707.2686,-159.3055"/>
<polygon fill="#191970" stroke="#191970" points="709.569,-161.9882 716.0967,-153.6432 705.7897,-156.096 709.569,-161.9882"/>
</g>
<!-- Node6&#45;&gt;Node11 -->
<g id="edge20" class="edge">
<title>Node6&#45;&gt;Node11</title>
<path fill="none" stroke="#191970" d="M713.0407,-195.6051C775.9771,-186.0223 872.6541,-170.5469 956,-154 961.7766,-152.8532 967.8147,-151.5728 973.799,-150.2529"/>
<polygon fill="#191970" stroke="#191970" points="974.7758,-153.6207 983.7637,-148.011 973.2393,-146.7914 974.7758,-153.6207"/>
</g>
<!-- Node6&#45;&gt;Node12 -->
<g id="edge22" class="edge">
<title>Node6&#45;&gt;Node12</title>
<path fill="none" stroke="#191970" d="M713.0674,-200.1687C798.4266,-192.8414 950.5457,-177.9716 1089.5063,-154.1498"/>
<polygon fill="#191970" stroke="#191970" points="1090.2326,-157.5762 1099.4876,-152.4192 1089.0367,-150.6791 1090.2326,-157.5762"/>
</g>
<!-- Node6&#45;&gt;Node13 -->
<g id="edge23" class="edge">
<title>Node6&#45;&gt;Node13</title>
<path fill="none" stroke="#191970" d="M693.6713,-190.4639C728.4411,-180.3272 776.0017,-166.9104 814.9133,-156.2491"/>
<polygon fill="#191970" stroke="#191970" points="815.8822,-159.6128 824.6067,-153.6017 814.0378,-152.8601 815.8822,-159.6128"/>
</g>
<!-- Node14 -->
<g id="node15" class="node">
<title>Node14</title>
<g id="a_node15"><a xlink:href="utils_2structures_8h.html" target="_top" xlink:title="Various utility&#45; and helper&#45;functions for secondary structure parsing, converting, etc. ">
<polygon fill="none" stroke="#000000" points="634,-62 634,-81 778,-81 778,-62 634,-62"/>
<text text-anchor="middle" x="706" y="-69" font-family="Helvetica,sans-Serif" font-size="10.00" fill="#000000">ViennaRNA/utils/structures.h</text>
</a>
</g>
</g>
<!-- Node6&#45;&gt;Node14 -->
<g id="edge28" class="edge">
<title>Node6&#45;&gt;Node14</title>
<path fill="none" stroke="#191970" d="M643.7536,-190.2293C646.3682,-173.3856 655.3315,-145.6651 666,-123 671.5687,-111.1693 679.1124,-98.5825 686.4191,-88.8138"/>
<polygon fill="#191970" stroke="#191970" points="689.1403,-91.015 692.7235,-81.0445 683.7046,-86.6043 689.1403,-91.015"/>
</g>
<!-- Node7&#45;&gt;Node6 -->
<g id="edge12" class="edge">
<title>Node7&#45;&gt;Node6</title>
<path fill="none" stroke="#191970" d="M243.8593,-148.0109C254.5441,-150.1169 265.6446,-152.2424 276,-154 376.8234,-171.1122 493.5015,-186.2737 568.5102,-195.6384"/>
<polygon fill="#191970" stroke="#191970" points="568.4558,-199.1586 578.8117,-196.921 569.3207,-192.2122 568.4558,-199.1586"/>
</g>
<!-- Node8&#45;&gt;Node6 -->
<g id="edge14" class="edge">
<title>Node8&#45;&gt;Node6</title>
<path fill="none" stroke="#191970" d="M548.198,-153.7177C568.3318,-163.2132 593.1232,-175.5335 612.7635,-185.7743"/>
<polygon fill="#191970" stroke="#191970" points="611.1894,-188.901 621.6683,-190.4639 614.4512,-182.7073 611.1894,-188.901"/>
</g>
<!-- Node9 -->
<g id="node10" class="node">
<title>Node9</title>
<g id="a_node10"><a xlink:href="constraints_2basic_8h.html" target="_top" xlink:title="Functions and data structures for constraining secondary structure predictions and evaluation...">
<polygon fill="none" stroke="#000000" points="496.5,-56.5 496.5,-86.5 615.5,-86.5 615.5,-56.5 496.5,-56.5"/>
<text text-anchor="start" x="504.5" y="-74.5" font-family="Helvetica,sans-Serif" font-size="10.00" fill="#000000">ViennaRNA/constraints</text>
<text text-anchor="middle" x="556" y="-63.5" font-family="Helvetica,sans-Serif" font-size="10.00" fill="#000000">/basic.h</text>
</a>
</g>
</g>
<!-- Node8&#45;&gt;Node9 -->
<g id="edge15" class="edge">
<title>Node8&#45;&gt;Node9</title>
<path fill="none" stroke="#191970" d="M521.9843,-123.2967C527.4412,-114.9873 534.3208,-104.5115 540.4629,-95.1587"/>
<polygon fill="#191970" stroke="#191970" points="543.4914,-96.9231 546.0552,-86.6432 537.6404,-93.0806 543.4914,-96.9231"/>
</g>
<!-- Node9&#45;&gt;Node6 -->
<g id="edge16" class="edge">
<title>Node9&#45;&gt;Node6</title>
<path fill="none" stroke="#191970" d="M566.2502,-86.7614C581.8415,-109.9751 611.6456,-154.3502 630.0742,-181.7882"/>
<polygon fill="#191970" stroke="#191970" points="627.3697,-184.039 635.8508,-190.389 633.1807,-180.1361 627.3697,-184.039"/>
</g>
<!-- Node10&#45;&gt;Node6 -->
<g id="edge18" class="edge">
<title>Node10&#45;&gt;Node6</title>
<path fill="none" stroke="#191970" d="M727.5038,-153.7177C715.1615,-162.9124 698.0148,-174.7558 682.5767,-184.7951"/>
<polygon fill="#191970" stroke="#191970" points="680.2635,-182.1205 673.7336,-190.4639 684.0413,-188.0136 680.2635,-182.1205"/>
</g>
<!-- Node10&#45;&gt;Node9 -->
<g id="edge19" class="edge">
<title>Node10&#45;&gt;Node9</title>
<path fill="none" stroke="#191970" d="M701.8091,-123.4639C674.0889,-113.5849 637.6269,-100.5905 608.0999,-90.0675"/>
<polygon fill="#191970" stroke="#191970" points="608.9696,-86.6619 598.3749,-86.6017 606.6196,-93.2557 608.9696,-86.6619"/>
</g>
<!-- Node11&#45;&gt;Node1 -->
<g id="edge21" class="edge">
<title>Node11&#45;&gt;Node1</title>
<path fill="none" stroke="#191970" d="M991.7544,-148.0932C953.4181,-158.8915 891.4712,-176.6656 871,-190 846.0696,-206.239 791.7746,-273.4378 762.633,-305.6406"/>
<polygon fill="#191970" stroke="#191970" points="759.695,-303.6615 755.462,-313.374 764.8279,-308.4211 759.695,-303.6615"/>
</g>
<!-- Node13&#45;&gt;Node6 -->
<g id="edge24" class="edge">
<title>Node13&#45;&gt;Node6</title>
<path fill="none" stroke="#191970" d="M836.1037,-153.6017C801.2789,-163.7525 753.7095,-177.1704 714.8353,-187.8198"/>
<polygon fill="#191970" stroke="#191970" points="713.8771,-184.4532 705.1524,-190.4639 715.7212,-191.2059 713.8771,-184.4532"/>
</g>
<!-- Node13&#45;&gt;Node14 -->
<g id="edge25" class="edge">
<title>Node13&#45;&gt;Node14</title>
<path fill="none" stroke="#191970" d="M844.0533,-123.4639C813.0189,-111.7824 770.4119,-95.7449 740.7721,-84.5884"/>
<polygon fill="#191970" stroke="#191970" points="741.8448,-81.2525 731.2529,-81.0053 739.3788,-87.8037 741.8448,-81.2525"/>
</g>
<!-- Node14&#45;&gt;Node6 -->
<g id="edge27" class="edge">
<title>Node14&#45;&gt;Node6</title>
<path fill="none" stroke="#191970" d="M706.1621,-81.0445C701.7015,-91.1436 691.1999,-107.7038 684,-123 675.1652,-141.7695 667.4997,-164.006 660.9037,-180.6612"/>
<polygon fill="#191970" stroke="#191970" points="657.5334,-179.6514 656.9341,-190.2293 663.9991,-182.334 657.5334,-179.6514"/>
</g>
<!-- Node15 -->
<g id="node16" class="node">
<title>Node15</title>
<polygon fill="none" stroke="#bfbfbf" points="683,-.5 683,-19.5 729,-19.5 729,-.5 683,-.5"/>
<text text-anchor="middle" x="706" y="-7.5" font-family="Helvetica,sans-Serif" font-size="10.00" fill="#000000">stdio.h</text>
</g>
<!-- Node14&#45;&gt;Node15 -->
<g id="edge26" class="edge">
<title>Node14&#45;&gt;Node15</title>
<path fill="none" stroke="#191970" d="M706,-61.8906C706,-53.3657 706,-40.6392 706,-29.9235"/>
<polygon fill="#191970" stroke="#191970" points="709.5001,-29.7448 706,-19.7449 702.5001,-29.7449 709.5001,-29.7448"/>
</g>
</g>
</svg>
        <g id="navigator" transform="translate(0 0)" fill="#404254">
                <rect fill="#f2f5e9" fill-opacity="0.5" stroke="#606060" stroke-width=".5" x="0" y="0" width="60" height="60"/>
                <use id="zoomplus" xlink:href="#zoomPlus" x="17" y="9" onmousedown="handleZoom(evt,'in')"/>
                <use id="zoomminus" xlink:href="#zoomMin" x="42" y="9" onmousedown="handleZoom(evt,'out')"/>
                <use id="reset" xlink:href="#resetDef" x="30" y="36" onmousedown="handleReset()"/>
                <g id="arrowUp" xlink:href="#dirArrow" transform="translate(30 24)" onmousedown="handlePan(0,-1)">
                  <use xlink:href="#rim" fill="#404040">
                        <set attributeName="fill" to="#808080" begin="arrowUp.mouseover" end="arrowUp.mouseout"/>
                  </use>
                  <path fill="none" stroke="white" stroke-width="1.5" d="M0,-3.0v7 M-2.5,-0.5L0,-3.0L2.5,-0.5"/>
                </g>
                <g id="arrowRight" xlink:href="#dirArrow" transform="rotate(90) translate(36 -43)" onmousedown="handlePan(1,0)">
                  <use xlink:href="#rim" fill="#404040">
                        <set attributeName="fill" to="#808080" begin="arrowRight.mouseover" end="arrowRight.mouseout"/>
                  </use>
                  <path fill="none" stroke="white" stroke-width="1.5" d="M0,-3.0v7 M-2.5,-0.5L0,-3.0L2.5,-0.5"/>
                </g>
                <g id="arrowDown" xlink:href="#dirArrow" transform="rotate(180) translate(-30 -48)" onmousedown="handlePan(0,1)">
                  <use xlink:href="#rim" fill="#404040">
                        <set attributeName="fill" to="#808080" begin="arrowDown.mouseover" end="arrowDown.mouseout"/>
                  </use>
                  <path fill="none" stroke="white" stroke-width="1.5" d="M0,-3.0v7 M-2.5,-0.5L0,-3.0L2.5,-0.5"/>
                </g>
                <g id="arrowLeft" xlink:href="#dirArrow" transform="rotate(270) translate(-36 17)" onmousedown="handlePan(-1,0)">
                  <use xlink:href="#rim" fill="#404040">
                        <set attributeName="fill" to="#808080" begin="arrowLeft.mouseover" end="arrowLeft.mouseout"/>
                  </use>
                  <path fill="none" stroke="white" stroke-width="1.5" d="M0,-3.0v7 M-2.5,-0.5L0,-3.0L2.5,-0.5"/>
                </g>
        </g>
        <svg viewBox="0 0 15 15" width="100%" height="30px" preserveAspectRatio="xMaxYMin meet">
         <g id="arrow_out" transform="scale(0.3 0.3)">
          <a xlink:href="utils_2alignments_8h__incl_org.svg" target="_base">
           <rect id="button" ry="5" rx="5" y="6" x="6" height="38" width="38"
                fill="#f2f5e9" fill-opacity="0.5" stroke="#606060" stroke-width="1.0"/>
           <path id="arrow"
             d="M 11.500037,31.436501 C 11.940474,20.09759 22.043105,11.32322 32.158766,21.979434 L 37.068811,17.246167 C 37.068811,17.246167 37.088388,32 37.088388,32 L 22.160133,31.978069 C 22.160133,31.978069 26.997745,27.140456 26.997745,27.140456 C 18.528582,18.264221 13.291696,25.230495 11.500037,31.436501 z"
             style="fill:#404040;"/>
          </a>
         </g>
        </svg>
</svg>
