<?xml version="1.0" encoding="UTF-8" standalone="no"?>
<!DOCTYPE svg PUBLIC "-//W3C//DTD SVG 1.1//EN"
 "http://www.w3.org/Graphics/SVG/1.1/DTD/svg11.dtd">
<!-- Generated by graphviz version 2.40.1 (20161225.0304)
 -->
<!-- Title: ViennaRNA/utils.h Pages: 1 -->
<svg width="1387pt" height="397pt"
 viewBox="0.00 0.00 1386.62 397.00" xmlns="http://www.w3.org/2000/svg" xmlns:xlink="http://www.w3.org/1999/xlink">
<g id="graph0" class="graph" transform="scale(1 1) rotate(0) translate(4 393)">
<title>ViennaRNA/utils.h</title>
<!-- Node0 -->
<g id="node1" class="node">
<title>Node0</title>
<polygon fill="#bfbfbf" stroke="#000000" points="330.1795,-369.5 330.1795,-388.5 428.1795,-388.5 428.1795,-369.5 330.1795,-369.5"/>
<text text-anchor="middle" x="379.1795" y="-376.5" font-family="Helvetica,sans-Serif" font-size="10.00" fill="#000000">ViennaRNA/utils.h</text>
</g>
<!-- Node1 -->
<g id="node2" class="node">
<title>Node1</title>
<g id="a_node2"><a xlink:href="utils_2basic_8h.html" target="_top" xlink:title="General utility&#45; and helper&#45;functions used throughout the ViennaRNA Package. ">
<polygon fill="none" stroke="#000000" points="317.1795,-313.5 317.1795,-332.5 441.1795,-332.5 441.1795,-313.5 317.1795,-313.5"/>
<text text-anchor="middle" x="379.1795" y="-320.5" font-family="Helvetica,sans-Serif" font-size="10.00" fill="#000000">ViennaRNA/utils/basic.h</text>
</a>
</g>
</g>
<!-- Node0&#45;&gt;Node1 -->
<g id="edge1" class="edge">
<title>Node0&#45;&gt;Node1</title>
<path fill="none" stroke="#191970" d="M379.1795,-369.2455C379.1795,-361.9382 379.1795,-351.6944 379.1795,-342.7046"/>
<polygon fill="#191970" stroke="#191970" points="382.6796,-342.6426 379.1795,-332.6427 375.6796,-342.6427 382.6796,-342.6426"/>
</g>
<!-- Node18 -->
<g id="node19" class="node">
<title>Node18</title>
<g id="a_node19"><a xlink:href="utils_2structures_8h.html" target="_top" xlink:title="Various utility&#45; and helper&#45;functions for secondary structure parsing, converting, etc. ">
<polygon fill="none" stroke="#000000" points="23.1795,-62 23.1795,-81 167.1795,-81 167.1795,-62 23.1795,-62"/>
<text text-anchor="middle" x="95.1795" y="-69" font-family="Helvetica,sans-Serif" font-size="10.00" fill="#000000">ViennaRNA/utils/structures.h</text>
</a>
</g>
</g>
<!-- Node0&#45;&gt;Node18 -->
<g id="edge43" class="edge">
<title>Node0&#45;&gt;Node18</title>
<path fill="none" stroke="#191970" d="M330.1791,-373.7977C229.8039,-361.7776 10.1795,-327.8916 10.1795,-261.5 10.1795,-261.5 10.1795,-261.5 10.1795,-200 10.1795,-153.1386 49.9887,-110.2348 75.1198,-87.8191"/>
<polygon fill="#191970" stroke="#191970" points="77.7111,-90.2062 83.0011,-81.0265 73.1412,-84.9038 77.7111,-90.2062"/>
</g>
<!-- Node19 -->
<g id="node20" class="node">
<title>Node19</title>
<g id="a_node20"><a xlink:href="strings_8h.html" target="_top" xlink:title="General utility&#45; and helper&#45;functions for RNA sequence and structure strings used throughout the Vien...">
<polygon fill="none" stroke="#000000" points="459.1795,-313.5 459.1795,-332.5 589.1795,-332.5 589.1795,-313.5 459.1795,-313.5"/>
<text text-anchor="middle" x="524.1795" y="-320.5" font-family="Helvetica,sans-Serif" font-size="10.00" fill="#000000">ViennaRNA/utils/strings.h</text>
</a>
</g>
</g>
<!-- Node0&#45;&gt;Node19 -->
<g id="edge40" class="edge">
<title>Node0&#45;&gt;Node19</title>
<path fill="none" stroke="#191970" d="M404.1059,-369.3733C427.7997,-360.2226 463.6306,-346.3844 489.9863,-336.2057"/>
<polygon fill="#191970" stroke="#191970" points="491.5109,-339.3689 499.5784,-332.5011 488.9889,-332.8389 491.5109,-339.3689"/>
</g>
<!-- Node20 -->
<g id="node21" class="node">
<title>Node20</title>
<g id="a_node21"><a xlink:href="io_2utils_8h.html" target="_top" xlink:title="Several utilities for file handling. ">
<polygon fill="none" stroke="#000000" points="607.1795,-313.5 607.1795,-332.5 715.1795,-332.5 715.1795,-313.5 607.1795,-313.5"/>
<text text-anchor="middle" x="661.1795" y="-320.5" font-family="Helvetica,sans-Serif" font-size="10.00" fill="#000000">ViennaRNA/io/utils.h</text>
</a>
</g>
</g>
<!-- Node0&#45;&gt;Node20 -->
<g id="edge44" class="edge">
<title>Node0&#45;&gt;Node20</title>
<path fill="none" stroke="#191970" d="M427.3366,-369.4369C476.0043,-359.7724 551.237,-344.8326 603.1616,-334.5213"/>
<polygon fill="#191970" stroke="#191970" points="604.0943,-337.9045 613.221,-332.5237 602.7308,-331.0386 604.0943,-337.9045"/>
</g>
<!-- Node21 -->
<g id="node22" class="node">
<title>Node21</title>
<g id="a_node22"><a xlink:href="alphabet_8h.html" target="_top" xlink:title="Functions to process, convert, and generally handle different nucleotide and/or base pair alphabets...">
<polygon fill="none" stroke="#000000" points="38.1795,-190.5 38.1795,-209.5 154.1795,-209.5 154.1795,-190.5 38.1795,-190.5"/>
<text text-anchor="middle" x="96.1795" y="-197.5" font-family="Helvetica,sans-Serif" font-size="10.00" fill="#000000">ViennaRNA/alphabet.h</text>
</a>
</g>
</g>
<!-- Node0&#45;&gt;Node21 -->
<g id="edge45" class="edge">
<title>Node0&#45;&gt;Node21</title>
<path fill="none" stroke="#191970" d="M363.9642,-369.3762C317.4174,-339.9349 176.6771,-250.9154 120.1048,-215.133"/>
<polygon fill="#191970" stroke="#191970" points="121.7923,-212.059 111.47,-209.6714 118.0504,-217.975 121.7923,-212.059"/>
</g>
<!-- Node2 -->
<g id="node3" class="node">
<title>Node2</title>
<polygon fill="none" stroke="#bfbfbf" points="11.1795,-.5 11.1795,-19.5 57.1795,-19.5 57.1795,-.5 11.1795,-.5"/>
<text text-anchor="middle" x="34.1795" y="-7.5" font-family="Helvetica,sans-Serif" font-size="10.00" fill="#000000">stdio.h</text>
</g>
<!-- Node1&#45;&gt;Node2 -->
<g id="edge2" class="edge">
<title>Node1&#45;&gt;Node2</title>
<path fill="none" stroke="#191970" d="M328.0461,-313.4637C240.5096,-296.0568 67.6359,-256.6017 29.1795,-210 -14.5903,-156.9595 .1762,-123.3275 14.1795,-56 16.1209,-46.6655 20.0599,-36.9017 23.9326,-28.783"/>
<polygon fill="#191970" stroke="#191970" points="27.0698,-30.3353 28.485,-19.8354 20.8309,-27.161 27.0698,-30.3353"/>
</g>
<!-- Node3 -->
<g id="node4" class="node">
<title>Node3</title>
<polygon fill="none" stroke="#bfbfbf" points="609.1795,-252 609.1795,-271 661.1795,-271 661.1795,-252 609.1795,-252"/>
<text text-anchor="middle" x="635.1795" y="-259" font-family="Helvetica,sans-Serif" font-size="10.00" fill="#000000">stdarg.h</text>
</g>
<!-- Node1&#45;&gt;Node3 -->
<g id="edge3" class="edge">
<title>Node1&#45;&gt;Node3</title>
<path fill="none" stroke="#191970" d="M441.5331,-313.6498C486.3106,-306.0627 547.7594,-293.8527 600.1795,-277 602.0775,-276.3898 604.0113,-275.7098 605.9465,-274.9846"/>
<polygon fill="#191970" stroke="#191970" points="607.537,-278.1159 615.474,-271.0977 604.8927,-271.6345 607.537,-278.1159"/>
</g>
<!-- Node4 -->
<g id="node5" class="node">
<title>Node4</title>
<g id="a_node5"><a xlink:href="datastructures_2basic_8h.html" target="_top" xlink:title="Various data structures and pre&#45;processor macros. ">
<polygon fill="none" stroke="#000000" points="457.1795,-246.5 457.1795,-276.5 591.1795,-276.5 591.1795,-246.5 457.1795,-246.5"/>
<text text-anchor="start" x="465.1795" y="-264.5" font-family="Helvetica,sans-Serif" font-size="10.00" fill="#000000">ViennaRNA/datastructures</text>
<text text-anchor="middle" x="524.1795" y="-253.5" font-family="Helvetica,sans-Serif" font-size="10.00" fill="#000000">/basic.h</text>
</a>
</g>
</g>
<!-- Node1&#45;&gt;Node4 -->
<g id="edge4" class="edge">
<title>Node1&#45;&gt;Node4</title>
<path fill="none" stroke="#191970" d="M401.8357,-313.3906C422.4591,-304.6435 453.5118,-291.4728 479.1713,-280.5897"/>
<polygon fill="#191970" stroke="#191970" points="480.869,-283.6715 488.7085,-276.5446 478.1357,-277.2272 480.869,-283.6715"/>
</g>
<!-- Node5 -->
<g id="node6" class="node">
<title>Node5</title>
<g id="a_node6"><a xlink:href="constants_8h.html" target="_top" xlink:title="Energy parameter constants. ">
<polygon fill="none" stroke="#000000" points="951.1795,-62 951.1795,-81 1109.1795,-81 1109.1795,-62 951.1795,-62"/>
<text text-anchor="middle" x="1030.1795" y="-69" font-family="Helvetica,sans-Serif" font-size="10.00" fill="#000000">ViennaRNA/params/constants.h</text>
</a>
</g>
</g>
<!-- Node4&#45;&gt;Node5 -->
<g id="edge5" class="edge">
<title>Node4&#45;&gt;Node5</title>
<path fill="none" stroke="#191970" d="M591.2849,-247.6451C594.2888,-247.0782 597.2642,-246.5272 600.1795,-246 702.7624,-227.4501 995.6914,-235.9063 1060.1795,-154 1075.4115,-134.6538 1059.4688,-106.8675 1045.6336,-88.9996"/>
<polygon fill="#191970" stroke="#191970" points="1048.2055,-86.6164 1039.1568,-81.1053 1042.7938,-91.0564 1048.2055,-86.6164"/>
</g>
<!-- Node7 -->
<g id="node8" class="node">
<title>Node7</title>
<g id="a_node8"><a xlink:href="fold__compound_8h.html" target="_top" xlink:title="The Basic Fold Compound API. ">
<polygon fill="none" stroke="#000000" points="589.1795,-190.5 589.1795,-209.5 735.1795,-209.5 735.1795,-190.5 589.1795,-190.5"/>
<text text-anchor="middle" x="662.1795" y="-197.5" font-family="Helvetica,sans-Serif" font-size="10.00" fill="#000000">ViennaRNA/fold_compound.h</text>
</a>
</g>
</g>
<!-- Node4&#45;&gt;Node7 -->
<g id="edge7" class="edge">
<title>Node4&#45;&gt;Node7</title>
<path fill="none" stroke="#191970" d="M557.9381,-246.4554C580.4588,-236.419 609.8262,-223.3314 631.6487,-213.6061"/>
<polygon fill="#191970" stroke="#191970" points="633.0851,-216.7979 640.7944,-209.5303 630.2356,-210.4041 633.0851,-216.7979"/>
</g>
<!-- Node8 -->
<g id="node9" class="node">
<title>Node8</title>
<g id="a_node9"><a xlink:href="model_8h.html" target="_top" xlink:title="The model details data structure and its corresponding modifiers. ">
<polygon fill="none" stroke="#000000" points="541.1795,-62 541.1795,-81 647.1795,-81 647.1795,-62 541.1795,-62"/>
<text text-anchor="middle" x="594.1795" y="-69" font-family="Helvetica,sans-Serif" font-size="10.00" fill="#000000">ViennaRNA/model.h</text>
</a>
</g>
</g>
<!-- Node4&#45;&gt;Node8 -->
<g id="edge31" class="edge">
<title>Node4&#45;&gt;Node8</title>
<path fill="none" stroke="#191970" d="M506.2562,-246.1317C477.5962,-219.6712 427.4621,-164.3689 456.1795,-123 466.7097,-107.8307 509.279,-93.3863 544.3864,-83.6768"/>
<polygon fill="#191970" stroke="#191970" points="545.315,-87.0515 554.0578,-81.067 543.4913,-80.2932 545.315,-87.0515"/>
</g>
<!-- Node9 -->
<g id="node10" class="node">
<title>Node9</title>
<g id="a_node10"><a xlink:href="params_2basic_8h.html" target="_top" xlink:title="Functions to deal with sets of energy parameters. ">
<polygon fill="none" stroke="#000000" points="913.1795,-129 913.1795,-148 1051.1795,-148 1051.1795,-129 913.1795,-129"/>
<text text-anchor="middle" x="982.1795" y="-136" font-family="Helvetica,sans-Serif" font-size="10.00" fill="#000000">ViennaRNA/params/basic.h</text>
</a>
</g>
</g>
<!-- Node4&#45;&gt;Node9 -->
<g id="edge32" class="edge">
<title>Node4&#45;&gt;Node9</title>
<path fill="none" stroke="#191970" d="M591.1087,-246.4521C660.9701,-231.6815 760.8318,-211.1898 765.1795,-210 827.8799,-192.8409 899.1711,-166.8845 942.5467,-151.4193"/>
<polygon fill="#191970" stroke="#191970" points="943.9058,-154.6508 952.1575,-148.0054 941.5627,-148.0546 943.9058,-154.6508"/>
</g>
<!-- Node11 -->
<g id="node12" class="node">
<title>Node11</title>
<g id="a_node12"><a xlink:href="dp__matrices_8h.html" target="_top" xlink:title="Functions to deal with standard dynamic programming (DP) matrices. ">
<polygon fill="none" stroke="#000000" points="275.6795,-129 275.6795,-148 408.6795,-148 408.6795,-129 275.6795,-129"/>
<text text-anchor="middle" x="342.1795" y="-136" font-family="Helvetica,sans-Serif" font-size="10.00" fill="#000000">ViennaRNA/dp_matrices.h</text>
</a>
</g>
</g>
<!-- Node4&#45;&gt;Node11 -->
<g id="edge33" class="edge">
<title>Node4&#45;&gt;Node11</title>
<path fill="none" stroke="#191970" d="M481.4276,-246.3779C460.2603,-237.0456 435.0103,-224.1706 414.1795,-210 390.3634,-193.7986 365.9738,-171.3067 352.211,-155.9007"/>
<polygon fill="#191970" stroke="#191970" points="354.8315,-153.5784 345.7294,-148.1558 349.4633,-158.0709 354.8315,-153.5784"/>
</g>
<!-- Node12 -->
<g id="node13" class="node">
<title>Node12</title>
<g id="a_node13"><a xlink:href="hard_8h.html" target="_top" xlink:title="Functions and data structures for handling of secondary structure hard constraints. ">
<polygon fill="none" stroke="#000000" points="1107.6795,-123.5 1107.6795,-153.5 1226.6795,-153.5 1226.6795,-123.5 1107.6795,-123.5"/>
<text text-anchor="start" x="1115.6795" y="-141.5" font-family="Helvetica,sans-Serif" font-size="10.00" fill="#000000">ViennaRNA/constraints</text>
<text text-anchor="middle" x="1167.1795" y="-130.5" font-family="Helvetica,sans-Serif" font-size="10.00" fill="#000000">/hard.h</text>
</a>
</g>
</g>
<!-- Node4&#45;&gt;Node12 -->
<g id="edge34" class="edge">
<title>Node4&#45;&gt;Node12</title>
<path fill="none" stroke="#191970" d="M587.9572,-246.4588C589.0376,-246.3003 590.1123,-246.1472 591.1795,-246 699.9969,-230.9935 983.9041,-254.8471 1084.1795,-210 1107.7238,-199.47 1128.248,-178.0761 1143.2844,-161.4211"/>
<polygon fill="#191970" stroke="#191970" points="1146.1433,-163.4756 1150.2143,-153.6941 1140.932,-158.8019 1146.1433,-163.4756"/>
</g>
<!-- Node14 -->
<g id="node15" class="node">
<title>Node14</title>
<g id="a_node15"><a xlink:href="soft_8h.html" target="_top" xlink:title="Functions and data structures for secondary structure soft constraints. ">
<polygon fill="none" stroke="#000000" points="1244.6795,-123.5 1244.6795,-153.5 1363.6795,-153.5 1363.6795,-123.5 1244.6795,-123.5"/>
<text text-anchor="start" x="1252.6795" y="-141.5" font-family="Helvetica,sans-Serif" font-size="10.00" fill="#000000">ViennaRNA/constraints</text>
<text text-anchor="middle" x="1304.1795" y="-130.5" font-family="Helvetica,sans-Serif" font-size="10.00" fill="#000000">/soft.h</text>
</a>
</g>
</g>
<!-- Node4&#45;&gt;Node14 -->
<g id="edge35" class="edge">
<title>Node4&#45;&gt;Node14</title>
<path fill="none" stroke="#191970" d="M587.9561,-246.451C589.0369,-246.2949 590.1119,-246.1444 591.1795,-246 825.5868,-214.2949 891.8562,-263.881 1122.1795,-210 1170.9811,-198.5835 1223.7677,-174.9742 1259.9952,-158.0055"/>
<polygon fill="#191970" stroke="#191970" points="1261.7378,-161.0537 1269.2958,-153.629 1258.7573,-154.7199 1261.7378,-161.0537"/>
</g>
<!-- Node15 -->
<g id="node16" class="node">
<title>Node15</title>
<g id="a_node16"><a xlink:href="grammar_8h.html" target="_top" xlink:title="Implementations for the RNA folding grammar. ">
<polygon fill="none" stroke="#000000" points="465.6795,-129 465.6795,-148 582.6795,-148 582.6795,-129 465.6795,-129"/>
<text text-anchor="middle" x="524.1795" y="-136" font-family="Helvetica,sans-Serif" font-size="10.00" fill="#000000">ViennaRNA/grammar.h</text>
</a>
</g>
</g>
<!-- Node4&#45;&gt;Node15 -->
<g id="edge36" class="edge">
<title>Node4&#45;&gt;Node15</title>
<path fill="none" stroke="#191970" d="M524.1795,-246.4178C524.1795,-224.2662 524.1795,-182.9061 524.1795,-158.3234"/>
<polygon fill="#191970" stroke="#191970" points="527.6796,-158.0492 524.1795,-148.0493 520.6796,-158.0493 527.6796,-158.0492"/>
</g>
<!-- Node16 -->
<g id="node17" class="node">
<title>Node16</title>
<g id="a_node17"><a xlink:href="structured__domains_8h.html" target="_top" xlink:title="This module provides interfaces that deal with additional structured domains in the folding grammar...">
<polygon fill="none" stroke="#000000" points="779.6795,-123.5 779.6795,-153.5 894.6795,-153.5 894.6795,-123.5 779.6795,-123.5"/>
<text text-anchor="start" x="787.6795" y="-141.5" font-family="Helvetica,sans-Serif" font-size="10.00" fill="#000000">ViennaRNA/structured</text>
<text text-anchor="middle" x="837.1795" y="-130.5" font-family="Helvetica,sans-Serif" font-size="10.00" fill="#000000">_domains.h</text>
</a>
</g>
</g>
<!-- Node4&#45;&gt;Node16 -->
<g id="edge37" class="edge">
<title>Node4&#45;&gt;Node16</title>
<path fill="none" stroke="#191970" d="M591.1945,-247.3103C650.6741,-234.4711 730.2671,-216.5955 744.1795,-210 770.5113,-197.5168 796.4612,-176.6513 814.2301,-160.6735"/>
<polygon fill="#191970" stroke="#191970" points="816.7968,-163.0682 821.7905,-153.724 812.0596,-157.9146 816.7968,-163.0682"/>
</g>
<!-- Node17 -->
<g id="node18" class="node">
<title>Node17</title>
<g id="a_node18"><a xlink:href="unstructured__domains_8h.html" target="_top" xlink:title="Functions to modify unstructured domains, e.g. to incorporate ligands binding to unpaired stretches...">
<polygon fill="none" stroke="#000000" points="132.6795,-123.5 132.6795,-153.5 257.6795,-153.5 257.6795,-123.5 132.6795,-123.5"/>
<text text-anchor="start" x="140.6795" y="-141.5" font-family="Helvetica,sans-Serif" font-size="10.00" fill="#000000">ViennaRNA/unstructured</text>
<text text-anchor="middle" x="195.1795" y="-130.5" font-family="Helvetica,sans-Serif" font-size="10.00" fill="#000000">_domains.h</text>
</a>
</g>
</g>
<!-- Node4&#45;&gt;Node17 -->
<g id="edge38" class="edge">
<title>Node4&#45;&gt;Node17</title>
<path fill="none" stroke="#191970" d="M479.2234,-246.4178C416.4174,-223.9487 303.3201,-181.7165 240.3849,-157.2769"/>
<polygon fill="#191970" stroke="#191970" points="241.3186,-153.8844 230.7303,-153.513 238.776,-160.4063 241.3186,-153.8844"/>
</g>
<!-- Node4&#45;&gt;Node18 -->
<g id="edge39" class="edge">
<title>Node4&#45;&gt;Node18</title>
<path fill="none" stroke="#191970" d="M456.887,-252.1925C353.6374,-236.0031 163.2304,-199.9493 114.1795,-154 96.7291,-137.653 90.1534,-110.0352 89.7954,-91.3002"/>
<polygon fill="#191970" stroke="#191970" points="93.2963,-91.368 90.3005,-81.2055 86.305,-91.0181 93.2963,-91.368"/>
</g>
<!-- Node6 -->
<g id="node7" class="node">
<title>Node6</title>
<polygon fill="none" stroke="#bfbfbf" points="1006.1795,-.5 1006.1795,-19.5 1054.1795,-19.5 1054.1795,-.5 1006.1795,-.5"/>
<text text-anchor="middle" x="1030.1795" y="-7.5" font-family="Helvetica,sans-Serif" font-size="10.00" fill="#000000">limits.h</text>
</g>
<!-- Node5&#45;&gt;Node6 -->
<g id="edge6" class="edge">
<title>Node5&#45;&gt;Node6</title>
<path fill="none" stroke="#191970" d="M1030.1795,-61.8906C1030.1795,-53.3657 1030.1795,-40.6392 1030.1795,-29.9235"/>
<polygon fill="#191970" stroke="#191970" points="1033.6796,-29.7448 1030.1795,-19.7449 1026.6796,-29.7449 1033.6796,-29.7448"/>
</g>
<!-- Node7&#45;&gt;Node8 -->
<g id="edge8" class="edge">
<title>Node7&#45;&gt;Node8</title>
<path fill="none" stroke="#191970" d="M688.0645,-190.4647C703.9022,-183.1252 722.8589,-171.2779 732.1795,-154 738.7208,-141.8741 740.0362,-134.3181 732.1795,-123 721.6493,-107.8307 679.08,-93.3863 643.9725,-83.6768"/>
<polygon fill="#191970" stroke="#191970" points="644.8677,-80.2932 634.3011,-81.067 643.044,-87.0515 644.8677,-80.2932"/>
</g>
<!-- Node7&#45;&gt;Node9 -->
<g id="edge9" class="edge">
<title>Node7&#45;&gt;Node9</title>
<path fill="none" stroke="#191970" d="M713.1916,-190.4311C762.1834,-181.2109 838.2704,-166.8125 904.1795,-154 910.7356,-152.7255 917.5992,-151.3792 924.4199,-150.0338"/>
<polygon fill="#191970" stroke="#191970" points="925.2107,-153.4453 934.3416,-148.0716 923.8526,-146.5783 925.2107,-153.4453"/>
</g>
<!-- Node10 -->
<g id="node11" class="node">
<title>Node10</title>
<g id="a_node11"><a xlink:href="sequence_8h.html" target="_top" xlink:title="Functions and data structures related to sequence representations ,. ">
<polygon fill="none" stroke="#000000" points="601.1795,-129 601.1795,-148 723.1795,-148 723.1795,-129 601.1795,-129"/>
<text text-anchor="middle" x="662.1795" y="-136" font-family="Helvetica,sans-Serif" font-size="10.00" fill="#000000">ViennaRNA/sequence.h</text>
</a>
</g>
</g>
<!-- Node7&#45;&gt;Node10 -->
<g id="edge13" class="edge">
<title>Node7&#45;&gt;Node10</title>
<path fill="none" stroke="#191970" d="M662.1795,-190.3906C662.1795,-181.8657 662.1795,-169.1392 662.1795,-158.4235"/>
<polygon fill="#191970" stroke="#191970" points="665.6796,-158.2448 662.1795,-148.2449 658.6796,-158.2449 665.6796,-158.2448"/>
</g>
<!-- Node7&#45;&gt;Node11 -->
<g id="edge14" class="edge">
<title>Node7&#45;&gt;Node11</title>
<path fill="none" stroke="#191970" d="M612.5306,-190.4581C555.5751,-179.512 462.2457,-161.5752 401.5101,-149.9026"/>
<polygon fill="#191970" stroke="#191970" points="402.1624,-146.464 391.6816,-148.0137 400.8413,-153.3382 402.1624,-146.464"/>
</g>
<!-- Node7&#45;&gt;Node12 -->
<g id="edge16" class="edge">
<title>Node7&#45;&gt;Node12</title>
<path fill="none" stroke="#191970" d="M735.2467,-192.193C815.1347,-183.5085 946.8879,-168.7496 1060.1795,-154 1072.1763,-152.4381 1084.9147,-150.6802 1097.2609,-148.9239"/>
<polygon fill="#191970" stroke="#191970" points="1098.1128,-152.3377 1107.5146,-147.4534 1097.119,-145.4086 1098.1128,-152.3377"/>
</g>
<!-- Node7&#45;&gt;Node14 -->
<g id="edge20" class="edge">
<title>Node7&#45;&gt;Node14</title>
<path fill="none" stroke="#191970" d="M735.5108,-197.507C843.0481,-193.102 1049.9182,-181.7867 1234.4089,-154.1415"/>
<polygon fill="#191970" stroke="#191970" points="1235.2074,-157.5604 1244.5686,-152.5989 1234.1565,-150.6398 1235.2074,-157.5604"/>
</g>
<!-- Node7&#45;&gt;Node15 -->
<g id="edge23" class="edge">
<title>Node7&#45;&gt;Node15</title>
<path fill="none" stroke="#191970" d="M635.5545,-190.3906C610.6769,-180.1908 574.0632,-163.9763 549.5897,-152.3875"/>
<polygon fill="#191970" stroke="#191970" points="551.0709,-149.2161 540.5413,-148.0419 548.0404,-155.5262 551.0709,-149.2161"/>
</g>
<!-- Node7&#45;&gt;Node16 -->
<g id="edge25" class="edge">
<title>Node7&#45;&gt;Node16</title>
<path fill="none" stroke="#191970" d="M689.5232,-190.3906C714.9617,-181.4508 753.548,-167.8905 784.896,-156.8739"/>
<polygon fill="#191970" stroke="#191970" points="786.0957,-160.1622 794.3697,-153.5446 783.7748,-153.5581 786.0957,-160.1622"/>
</g>
<!-- Node7&#45;&gt;Node17 -->
<g id="edge26" class="edge">
<title>Node7&#45;&gt;Node17</title>
<path fill="none" stroke="#191970" d="M588.8877,-193.6835C511.3499,-186.504 385.2679,-173.417 267.7257,-154.1694"/>
<polygon fill="#191970" stroke="#191970" points="268.2715,-150.7122 257.8341,-152.5315 267.1279,-157.6182 268.2715,-150.7122"/>
</g>
<!-- Node9&#45;&gt;Node4 -->
<g id="edge11" class="edge">
<title>Node9&#45;&gt;Node4</title>
<path fill="none" stroke="#191970" d="M963.5283,-148.0054C928.3297,-162.7874 850.764,-191.5043 783.1795,-210 778.7693,-211.2069 676.0814,-232.2742 601.2897,-247.085"/>
<polygon fill="#191970" stroke="#191970" points="600.5278,-243.6678 591.3959,-249.0397 601.8846,-250.535 600.5278,-243.6678"/>
</g>
<!-- Node9&#45;&gt;Node5 -->
<g id="edge10" class="edge">
<title>Node9&#45;&gt;Node5</title>
<path fill="none" stroke="#191970" d="M989.0567,-128.9005C996.3993,-118.6515 1008.2036,-102.1747 1017.2857,-89.4976"/>
<polygon fill="#191970" stroke="#191970" points="1020.3363,-91.2492 1023.315,-81.0817 1014.6459,-87.1724 1020.3363,-91.2492"/>
</g>
<!-- Node9&#45;&gt;Node8 -->
<g id="edge12" class="edge">
<title>Node9&#45;&gt;Node8</title>
<path fill="none" stroke="#191970" d="M935.6181,-128.9978C925.2791,-126.9575 914.3663,-124.8578 904.1795,-123 818.893,-107.4457 720.0441,-91.3586 657.3297,-81.3931"/>
<polygon fill="#191970" stroke="#191970" points="657.6251,-77.8962 647.2003,-79.7868 656.5287,-84.8099 657.6251,-77.8962"/>
</g>
<!-- Node11&#45;&gt;Node4 -->
<g id="edge15" class="edge">
<title>Node11&#45;&gt;Node4</title>
<path fill="none" stroke="#191970" d="M357.2615,-148.1558C374.921,-162.7607 403.953,-190.7984 432.1795,-210 449.7555,-221.9564 470.4776,-232.9905 487.8873,-241.7525"/>
<polygon fill="#191970" stroke="#191970" points="486.6658,-245.0541 497.1776,-246.3779 489.7857,-238.7878 486.6658,-245.0541"/>
</g>
<!-- Node12&#45;&gt;Node4 -->
<g id="edge17" class="edge">
<title>Node12&#45;&gt;Node4</title>
<path fill="none" stroke="#191970" d="M1163.1271,-153.6941C1152.8841,-170.7836 1129.5766,-197.747 1102.1795,-210 1001.9041,-254.8471 717.9969,-230.9935 609.1795,-246 606.6699,-246.3461 604.1188,-246.725 601.5422,-247.1301"/>
<polygon fill="#191970" stroke="#191970" points="600.7971,-243.706 591.5116,-248.8079 601.952,-250.6101 600.7971,-243.706"/>
</g>
<!-- Node13 -->
<g id="node14" class="node">
<title>Node13</title>
<g id="a_node14"><a xlink:href="constraints_2basic_8h.html" target="_top" xlink:title="Functions and data structures for constraining secondary structure predictions and evaluation...">
<polygon fill="none" stroke="#000000" points="1244.6795,-56.5 1244.6795,-86.5 1363.6795,-86.5 1363.6795,-56.5 1244.6795,-56.5"/>
<text text-anchor="start" x="1252.6795" y="-74.5" font-family="Helvetica,sans-Serif" font-size="10.00" fill="#000000">ViennaRNA/constraints</text>
<text text-anchor="middle" x="1304.1795" y="-63.5" font-family="Helvetica,sans-Serif" font-size="10.00" fill="#000000">/basic.h</text>
</a>
</g>
</g>
<!-- Node12&#45;&gt;Node13 -->
<g id="edge18" class="edge">
<title>Node12&#45;&gt;Node13</title>
<path fill="none" stroke="#191970" d="M1197.925,-123.4639C1217.4418,-113.9191 1242.9052,-101.4663 1264.012,-91.144"/>
<polygon fill="#191970" stroke="#191970" points="1265.617,-94.2552 1273.0626,-86.7177 1262.5417,-87.9669 1265.617,-94.2552"/>
</g>
<!-- Node13&#45;&gt;Node4 -->
<g id="edge19" class="edge">
<title>Node13&#45;&gt;Node4</title>
<path fill="none" stroke="#191970" d="M1332.0981,-86.6025C1358.4491,-102.8443 1391.4063,-129.6258 1373.1795,-154 1271.4528,-290.0358 789.5396,-225.7623 601.3172,-246.0873"/>
<polygon fill="#191970" stroke="#191970" points="600.7426,-242.6311 591.2305,-247.2969 601.5761,-249.5813 600.7426,-242.6311"/>
</g>
<!-- Node14&#45;&gt;Node4 -->
<g id="edge21" class="edge">
<title>Node14&#45;&gt;Node4</title>
<path fill="none" stroke="#191970" d="M1282.2086,-153.629C1251.2337,-170.6573 1193.3421,-197.5633 1140.1795,-210 909.8562,-263.881 843.5868,-214.2949 609.1795,-246 606.669,-246.3396 604.1172,-246.7129 601.5399,-247.1133"/>
<polygon fill="#191970" stroke="#191970" points="600.8,-243.6881 591.5073,-248.7769 601.9452,-250.5938 600.8,-243.6881"/>
</g>
<!-- Node14&#45;&gt;Node13 -->
<g id="edge22" class="edge">
<title>Node14&#45;&gt;Node13</title>
<path fill="none" stroke="#191970" d="M1304.1795,-123.2967C1304.1795,-115.5013 1304.1795,-105.7991 1304.1795,-96.9064"/>
<polygon fill="#191970" stroke="#191970" points="1307.6796,-96.6431 1304.1795,-86.6432 1300.6796,-96.6432 1307.6796,-96.6431"/>
</g>
<!-- Node15&#45;&gt;Node7 -->
<g id="edge24" class="edge">
<title>Node15&#45;&gt;Node7</title>
<path fill="none" stroke="#191970" d="M550.6399,-148.0419C575.4655,-158.2151 612.08,-174.4265 636.6069,-186.0357"/>
<polygon fill="#191970" stroke="#191970" points="635.1497,-189.2185 645.6795,-190.3906 638.1789,-182.9078 635.1497,-189.2185"/>
</g>
<!-- Node17&#45;&gt;Node4 -->
<g id="edge27" class="edge">
<title>Node17&#45;&gt;Node4</title>
<path fill="none" stroke="#191970" d="M239.9421,-153.513C302.6446,-175.9414 415.7416,-218.1715 478.7798,-242.6477"/>
<polygon fill="#191970" stroke="#191970" points="477.8635,-246.047 488.4519,-246.4178 480.4058,-239.5249 477.8635,-246.047"/>
</g>
<!-- Node17&#45;&gt;Node18 -->
<g id="edge28" class="edge">
<title>Node17&#45;&gt;Node18</title>
<path fill="none" stroke="#191970" d="M172.4879,-123.2967C156.1511,-112.351 134.2036,-97.6462 117.8676,-86.701"/>
<polygon fill="#191970" stroke="#191970" points="119.6965,-83.7135 109.4406,-81.055 115.8002,-89.5289 119.6965,-83.7135"/>
</g>
<!-- Node18&#45;&gt;Node2 -->
<g id="edge29" class="edge">
<title>Node18&#45;&gt;Node2</title>
<path fill="none" stroke="#191970" d="M85.6482,-61.8906C76.3916,-52.5581 62.1405,-38.1902 50.9792,-26.9374"/>
<polygon fill="#191970" stroke="#191970" points="53.3723,-24.38 43.8451,-19.7449 48.4023,-29.3095 53.3723,-24.38"/>
</g>
<!-- Node18&#45;&gt;Node4 -->
<g id="edge30" class="edge">
<title>Node18&#45;&gt;Node4</title>
<path fill="none" stroke="#191970" d="M100.9416,-81.2055C105.9416,-98.425 111.2063,-134.353 132.1795,-154 177.8854,-196.8158 346.3253,-231.0397 446.9896,-248.6064"/>
<polygon fill="#191970" stroke="#191970" points="446.6634,-252.1019 457.1135,-250.3571 447.8562,-245.2042 446.6634,-252.1019"/>
</g>
<!-- Node19&#45;&gt;Node3 -->
<g id="edge41" class="edge">
<title>Node19&#45;&gt;Node3</title>
<path fill="none" stroke="#191970" d="M541.5232,-313.3906C559.6068,-303.3713 588.1654,-287.5483 608.9959,-276.0071"/>
<polygon fill="#191970" stroke="#191970" points="610.9066,-278.9498 617.9575,-271.0419 607.5141,-272.8268 610.9066,-278.9498"/>
</g>
<!-- Node19&#45;&gt;Node4 -->
<g id="edge42" class="edge">
<title>Node19&#45;&gt;Node4</title>
<path fill="none" stroke="#191970" d="M524.1795,-313.3906C524.1795,-306.2234 524.1795,-296.0862 524.1795,-286.671"/>
<polygon fill="#191970" stroke="#191970" points="527.6796,-286.5446 524.1795,-276.5446 520.6796,-286.5446 527.6796,-286.5446"/>
</g>
<!-- Node21&#45;&gt;Node8 -->
<g id="edge46" class="edge">
<title>Node21&#45;&gt;Node8</title>
<path fill="none" stroke="#191970" d="M96.4515,-190.3598C97.4887,-173.6858 102.2139,-139.6519 123.1795,-123 154.4739,-98.1443 409.679,-81.3478 530.8084,-74.6983"/>
<polygon fill="#191970" stroke="#191970" points="531.2533,-78.1794 541.049,-74.1428 530.8741,-71.1897 531.2533,-78.1794"/>
</g>
</g>
</svg>
