<?xml version="1.0" encoding="UTF-8" standalone="no"?>
<!DOCTYPE svg PUBLIC "-//W3C//DTD SVG 1.1//EN"
 "http://www.w3.org/Graphics/SVG/1.1/DTD/svg11.dtd">
<!-- Generated by graphviz version 2.40.1 (20161225.0304)
 -->
<!-- Title: ViennaRNA/utils/structures.h Pages: 1 -->
<svg width="1234pt" height="341pt"
 viewBox="0.00 0.00 1234.33 341.00" xmlns="http://www.w3.org/2000/svg" xmlns:xlink="http://www.w3.org/1999/xlink">
<g id="graph0" class="graph" transform="scale(1 1) rotate(0) translate(4 337)">
<title>ViennaRNA/utils/structures.h</title>
<!-- Node0 -->
<g id="node1" class="node">
<title>Node0</title>
<polygon fill="#bfbfbf" stroke="#000000" points="662.7148,-313.5 662.7148,-332.5 806.7148,-332.5 806.7148,-313.5 662.7148,-313.5"/>
<text text-anchor="middle" x="734.7148" y="-320.5" font-family="Helvetica,sans-Serif" font-size="10.00" fill="#000000">ViennaRNA/utils/structures.h</text>
</g>
<!-- Node1 -->
<g id="node2" class="node">
<title>Node1</title>
<polygon fill="none" stroke="#bfbfbf" points="603.7148,-252 603.7148,-271 649.7148,-271 649.7148,-252 603.7148,-252"/>
<text text-anchor="middle" x="626.7148" y="-259" font-family="Helvetica,sans-Serif" font-size="10.00" fill="#000000">stdio.h</text>
</g>
<!-- Node0&#45;&gt;Node1 -->
<g id="edge1" class="edge">
<title>Node0&#45;&gt;Node1</title>
<path fill="none" stroke="#191970" d="M717.8398,-313.3906C700.245,-303.3713 672.4583,-287.5483 652.1907,-276.0071"/>
<polygon fill="#191970" stroke="#191970" points="653.8932,-272.9489 643.4713,-271.0419 650.4293,-279.0318 653.8932,-272.9489"/>
</g>
<!-- Node2 -->
<g id="node3" class="node">
<title>Node2</title>
<g id="a_node3"><a xlink:href="datastructures_2basic_8h.html" target="_top" xlink:title="Various data structures and pre&#45;processor macros. ">
<polygon fill="none" stroke="#000000" points="667.7148,-246.5 667.7148,-276.5 801.7148,-276.5 801.7148,-246.5 667.7148,-246.5"/>
<text text-anchor="start" x="675.7148" y="-264.5" font-family="Helvetica,sans-Serif" font-size="10.00" fill="#000000">ViennaRNA/datastructures</text>
<text text-anchor="middle" x="734.7148" y="-253.5" font-family="Helvetica,sans-Serif" font-size="10.00" fill="#000000">/basic.h</text>
</a>
</g>
</g>
<!-- Node0&#45;&gt;Node2 -->
<g id="edge2" class="edge">
<title>Node0&#45;&gt;Node2</title>
<path fill="none" stroke="#191970" d="M729.6523,-313.3906C728.2538,-306.2234 727.7246,-296.0862 728.0646,-286.671"/>
<polygon fill="#191970" stroke="#191970" points="731.5663,-286.7767 728.8178,-276.5446 724.5856,-286.2574 731.5663,-286.7767"/>
</g>
<!-- Node2&#45;&gt;Node0 -->
<g id="edge35" class="edge">
<title>Node2&#45;&gt;Node0</title>
<path fill="none" stroke="#191970" d="M740.6119,-276.5446C741.5741,-284.6241 741.7222,-294.681 741.0562,-303.3693"/>
<polygon fill="#191970" stroke="#191970" points="737.5715,-303.028 739.7773,-313.3906 744.5152,-303.9142 737.5715,-303.028"/>
</g>
<!-- Node3 -->
<g id="node4" class="node">
<title>Node3</title>
<g id="a_node4"><a xlink:href="constants_8h.html" target="_top" xlink:title="Energy parameter constants. ">
<polygon fill="none" stroke="#000000" points="5.7148,-62 5.7148,-81 163.7148,-81 163.7148,-62 5.7148,-62"/>
<text text-anchor="middle" x="84.7148" y="-69" font-family="Helvetica,sans-Serif" font-size="10.00" fill="#000000">ViennaRNA/params/constants.h</text>
</a>
</g>
</g>
<!-- Node2&#45;&gt;Node3 -->
<g id="edge3" class="edge">
<title>Node2&#45;&gt;Node3</title>
<path fill="none" stroke="#191970" d="M667.6543,-247.3663C664.6384,-246.8749 661.648,-246.4159 658.7148,-246 513.6222,-225.4252 94.7853,-270.3687 5.7148,-154 -2.6594,-143.0593 -.8487,-135.1139 5.7148,-123 14.908,-106.033 32.3826,-93.7726 48.5639,-85.4815"/>
<polygon fill="#191970" stroke="#191970" points="50.3439,-88.5106 57.8695,-81.053 47.3358,-82.1899 50.3439,-88.5106"/>
</g>
<!-- Node5 -->
<g id="node6" class="node">
<title>Node5</title>
<g id="a_node6"><a xlink:href="fold__compound_8h.html" target="_top" xlink:title="The Basic Fold Compound API. ">
<polygon fill="none" stroke="#000000" points="522.7148,-190.5 522.7148,-209.5 668.7148,-209.5 668.7148,-190.5 522.7148,-190.5"/>
<text text-anchor="middle" x="595.7148" y="-197.5" font-family="Helvetica,sans-Serif" font-size="10.00" fill="#000000">ViennaRNA/fold_compound.h</text>
</a>
</g>
</g>
<!-- Node2&#45;&gt;Node5 -->
<g id="edge5" class="edge">
<title>Node2&#45;&gt;Node5</title>
<path fill="none" stroke="#191970" d="M700.7116,-246.4554C678.0277,-236.419 648.4475,-223.3314 626.4669,-213.6061"/>
<polygon fill="#191970" stroke="#191970" points="627.816,-210.3758 617.2549,-209.5303 624.9836,-216.7772 627.816,-210.3758"/>
</g>
<!-- Node6 -->
<g id="node7" class="node">
<title>Node6</title>
<g id="a_node7"><a xlink:href="model_8h.html" target="_top" xlink:title="The model details data structure and its corresponding modifiers. ">
<polygon fill="none" stroke="#000000" points="279.7148,-62 279.7148,-81 385.7148,-81 385.7148,-62 279.7148,-62"/>
<text text-anchor="middle" x="332.7148" y="-69" font-family="Helvetica,sans-Serif" font-size="10.00" fill="#000000">ViennaRNA/model.h</text>
</a>
</g>
</g>
<!-- Node2&#45;&gt;Node6 -->
<g id="edge27" class="edge">
<title>Node2&#45;&gt;Node6</title>
<path fill="none" stroke="#191970" d="M667.5832,-247.7824C664.5865,-247.1783 661.6197,-246.5819 658.7148,-246 519.4678,-218.1044 443.1881,-263.4646 352.7148,-154 338.0195,-136.2199 333.8174,-109.3427 332.7706,-91.1383"/>
<polygon fill="#191970" stroke="#191970" points="336.2672,-90.9706 332.4611,-81.0831 329.2706,-91.1861 336.2672,-90.9706"/>
</g>
<!-- Node7 -->
<g id="node8" class="node">
<title>Node7</title>
<g id="a_node8"><a xlink:href="params_2basic_8h.html" target="_top" xlink:title="Functions to deal with sets of energy parameters. ">
<polygon fill="none" stroke="#000000" points="166.7148,-129 166.7148,-148 304.7148,-148 304.7148,-129 166.7148,-129"/>
<text text-anchor="middle" x="235.7148" y="-136" font-family="Helvetica,sans-Serif" font-size="10.00" fill="#000000">ViennaRNA/params/basic.h</text>
</a>
</g>
</g>
<!-- Node2&#45;&gt;Node7 -->
<g id="edge28" class="edge">
<title>Node2&#45;&gt;Node7</title>
<path fill="none" stroke="#191970" d="M667.3544,-249.0018C661.3816,-247.909 655.4373,-246.8844 649.7148,-246 499.542,-222.7905 449.1797,-270.3334 309.7148,-210 282.173,-198.0852 257.0521,-173.6969 243.9373,-156.7368"/>
<polygon fill="#191970" stroke="#191970" points="246.558,-154.3784 237.9474,-148.2052 240.829,-158.4006 246.558,-154.3784"/>
</g>
<!-- Node9 -->
<g id="node10" class="node">
<title>Node9</title>
<g id="a_node10"><a xlink:href="dp__matrices_8h.html" target="_top" xlink:title="Functions to deal with standard dynamic programming (DP) matrices. ">
<polygon fill="none" stroke="#000000" points="15.2148,-129 15.2148,-148 148.2148,-148 148.2148,-129 15.2148,-129"/>
<text text-anchor="middle" x="81.7148" y="-136" font-family="Helvetica,sans-Serif" font-size="10.00" fill="#000000">ViennaRNA/dp_matrices.h</text>
</a>
</g>
</g>
<!-- Node2&#45;&gt;Node9 -->
<g id="edge29" class="edge">
<title>Node2&#45;&gt;Node9</title>
<path fill="none" stroke="#191970" d="M667.3633,-248.9437C661.3887,-247.8624 655.4416,-246.8564 649.7148,-246 484.1234,-221.2362 438.1867,-246.2042 274.7148,-210 212.6308,-196.2502 143.3983,-168.9859 106.9204,-152.3841"/>
<polygon fill="#191970" stroke="#191970" points="108.0755,-149.0609 97.5335,-148.0044 105.1158,-155.4044 108.0755,-149.0609"/>
</g>
<!-- Node10 -->
<g id="node11" class="node">
<title>Node10</title>
<g id="a_node11"><a xlink:href="hard_8h.html" target="_top" xlink:title="Functions and data structures for handling of secondary structure hard constraints. ">
<polygon fill="none" stroke="#000000" points="675.2148,-123.5 675.2148,-153.5 794.2148,-153.5 794.2148,-123.5 675.2148,-123.5"/>
<text text-anchor="start" x="683.2148" y="-141.5" font-family="Helvetica,sans-Serif" font-size="10.00" fill="#000000">ViennaRNA/constraints</text>
<text text-anchor="middle" x="734.7148" y="-130.5" font-family="Helvetica,sans-Serif" font-size="10.00" fill="#000000">/hard.h</text>
</a>
</g>
</g>
<!-- Node2&#45;&gt;Node10 -->
<g id="edge30" class="edge">
<title>Node2&#45;&gt;Node10</title>
<path fill="none" stroke="#191970" d="M730.1006,-246.4178C727.6243,-225.8539 727.3014,-188.7363 729.1317,-163.8546"/>
<polygon fill="#191970" stroke="#191970" points="732.6344,-163.9893 730.0858,-153.7056 725.6651,-163.3341 732.6344,-163.9893"/>
</g>
<!-- Node12 -->
<g id="node13" class="node">
<title>Node12</title>
<g id="a_node13"><a xlink:href="soft_8h.html" target="_top" xlink:title="Functions and data structures for secondary structure soft constraints. ">
<polygon fill="none" stroke="#000000" points="945.2148,-123.5 945.2148,-153.5 1064.2148,-153.5 1064.2148,-123.5 945.2148,-123.5"/>
<text text-anchor="start" x="953.2148" y="-141.5" font-family="Helvetica,sans-Serif" font-size="10.00" fill="#000000">ViennaRNA/constraints</text>
<text text-anchor="middle" x="1004.7148" y="-130.5" font-family="Helvetica,sans-Serif" font-size="10.00" fill="#000000">/soft.h</text>
</a>
</g>
</g>
<!-- Node2&#45;&gt;Node12 -->
<g id="edge31" class="edge">
<title>Node2&#45;&gt;Node12</title>
<path fill="none" stroke="#191970" d="M763.2079,-246.4178C809.6328,-224.0411 901.6333,-182.0638 957.7841,-157.5795"/>
<polygon fill="#191970" stroke="#191970" points="959.3738,-160.7051 967.1536,-153.513 956.5868,-154.2838 959.3738,-160.7051"/>
</g>
<!-- Node13 -->
<g id="node14" class="node">
<title>Node13</title>
<g id="a_node14"><a xlink:href="grammar_8h.html" target="_top" xlink:title="Implementations for the RNA folding grammar. ">
<polygon fill="none" stroke="#000000" points="361.2148,-129 361.2148,-148 478.2148,-148 478.2148,-129 361.2148,-129"/>
<text text-anchor="middle" x="419.7148" y="-136" font-family="Helvetica,sans-Serif" font-size="10.00" fill="#000000">ViennaRNA/grammar.h</text>
</a>
</g>
</g>
<!-- Node2&#45;&gt;Node13 -->
<g id="edge32" class="edge">
<title>Node2&#45;&gt;Node13</title>
<path fill="none" stroke="#191970" d="M667.6882,-247.3651C607.9133,-234.5167 527.7298,-216.5913 513.7148,-210 483.9481,-196.0006 454.5735,-171.4675 436.7897,-155.1012"/>
<polygon fill="#191970" stroke="#191970" points="439.1576,-152.5234 429.4746,-148.2234 434.3626,-157.6233 439.1576,-152.5234"/>
</g>
<!-- Node14 -->
<g id="node15" class="node">
<title>Node14</title>
<g id="a_node15"><a xlink:href="structured__domains_8h.html" target="_top" xlink:title="This module provides interfaces that deal with additional structured domains in the folding grammar...">
<polygon fill="none" stroke="#000000" points="812.2148,-123.5 812.2148,-153.5 927.2148,-153.5 927.2148,-123.5 812.2148,-123.5"/>
<text text-anchor="start" x="820.2148" y="-141.5" font-family="Helvetica,sans-Serif" font-size="10.00" fill="#000000">ViennaRNA/structured</text>
<text text-anchor="middle" x="869.7148" y="-130.5" font-family="Helvetica,sans-Serif" font-size="10.00" fill="#000000">_domains.h</text>
</a>
</g>
</g>
<!-- Node2&#45;&gt;Node14 -->
<g id="edge33" class="edge">
<title>Node2&#45;&gt;Node14</title>
<path fill="none" stroke="#191970" d="M751.2685,-246.4178C774.8508,-224.9317 818.2677,-185.3741 845.4767,-160.5837"/>
<polygon fill="#191970" stroke="#191970" points="847.991,-163.0277 853.0258,-153.7056 843.2766,-157.8533 847.991,-163.0277"/>
</g>
<!-- Node15 -->
<g id="node16" class="node">
<title>Node15</title>
<g id="a_node16"><a xlink:href="unstructured__domains_8h.html" target="_top" xlink:title="Functions to modify unstructured domains, e.g. to incorporate ligands binding to unpaired stretches...">
<polygon fill="none" stroke="#000000" points="1082.2148,-123.5 1082.2148,-153.5 1207.2148,-153.5 1207.2148,-123.5 1082.2148,-123.5"/>
<text text-anchor="start" x="1090.2148" y="-141.5" font-family="Helvetica,sans-Serif" font-size="10.00" fill="#000000">ViennaRNA/unstructured</text>
<text text-anchor="middle" x="1144.7148" y="-130.5" font-family="Helvetica,sans-Serif" font-size="10.00" fill="#000000">_domains.h</text>
</a>
</g>
</g>
<!-- Node2&#45;&gt;Node15 -->
<g id="edge34" class="edge">
<title>Node2&#45;&gt;Node15</title>
<path fill="none" stroke="#191970" d="M780.3746,-246.4178C853.5315,-223.6482 996.979,-180.5833 1080.4419,-156.3059"/>
<polygon fill="#191970" stroke="#191970" points="1081.4374,-159.6615 1090.0656,-153.513 1079.4863,-152.9389 1081.4374,-159.6615"/>
</g>
<!-- Node4 -->
<g id="node5" class="node">
<title>Node4</title>
<polygon fill="none" stroke="#bfbfbf" points="60.7148,-.5 60.7148,-19.5 108.7148,-19.5 108.7148,-.5 60.7148,-.5"/>
<text text-anchor="middle" x="84.7148" y="-7.5" font-family="Helvetica,sans-Serif" font-size="10.00" fill="#000000">limits.h</text>
</g>
<!-- Node3&#45;&gt;Node4 -->
<g id="edge4" class="edge">
<title>Node3&#45;&gt;Node4</title>
<path fill="none" stroke="#191970" d="M84.7148,-61.8906C84.7148,-53.3657 84.7148,-40.6392 84.7148,-29.9235"/>
<polygon fill="#191970" stroke="#191970" points="88.2149,-29.7448 84.7148,-19.7449 81.2149,-29.7449 88.2149,-29.7448"/>
</g>
<!-- Node5&#45;&gt;Node6 -->
<g id="edge6" class="edge">
<title>Node5&#45;&gt;Node6</title>
<path fill="none" stroke="#191970" d="M580.112,-190.3945C565.7177,-181.3822 543.89,-167.331 525.7148,-154 508.1397,-141.1091 506.816,-133.498 487.7148,-123 455.3128,-105.1918 415.7078,-92.1641 384.6427,-83.6669"/>
<polygon fill="#191970" stroke="#191970" points="385.4406,-80.2575 374.8767,-81.067 383.6397,-87.0219 385.4406,-80.2575"/>
</g>
<!-- Node5&#45;&gt;Node7 -->
<g id="edge7" class="edge">
<title>Node5&#45;&gt;Node7</title>
<path fill="none" stroke="#191970" d="M539.8598,-190.4581C475.5207,-179.4668 369.9227,-161.4272 301.6184,-149.7585"/>
<polygon fill="#191970" stroke="#191970" points="301.8513,-146.2477 291.4047,-148.0137 300.6725,-153.1477 301.8513,-146.2477"/>
</g>
<!-- Node8 -->
<g id="node9" class="node">
<title>Node8</title>
<g id="a_node9"><a xlink:href="sequence_8h.html" target="_top" xlink:title="Functions and data structures related to sequence representations ,. ">
<polygon fill="none" stroke="#000000" points="534.7148,-129 534.7148,-148 656.7148,-148 656.7148,-129 534.7148,-129"/>
<text text-anchor="middle" x="595.7148" y="-136" font-family="Helvetica,sans-Serif" font-size="10.00" fill="#000000">ViennaRNA/sequence.h</text>
</a>
</g>
</g>
<!-- Node5&#45;&gt;Node8 -->
<g id="edge11" class="edge">
<title>Node5&#45;&gt;Node8</title>
<path fill="none" stroke="#191970" d="M595.7148,-190.3906C595.7148,-181.8657 595.7148,-169.1392 595.7148,-158.4235"/>
<polygon fill="#191970" stroke="#191970" points="599.2149,-158.2448 595.7148,-148.2449 592.2149,-158.2449 599.2149,-158.2448"/>
</g>
<!-- Node5&#45;&gt;Node9 -->
<g id="edge12" class="edge">
<title>Node5&#45;&gt;Node9</title>
<path fill="none" stroke="#191970" d="M522.5878,-194.4923C435.4005,-187.4248 285.4243,-173.6822 157.7148,-154 150.3117,-152.8591 142.5376,-151.4821 134.9033,-150.0257"/>
<polygon fill="#191970" stroke="#191970" points="135.4777,-146.5717 124.9906,-148.0783 134.1283,-153.4404 135.4777,-146.5717"/>
</g>
<!-- Node5&#45;&gt;Node10 -->
<g id="edge14" class="edge">
<title>Node5&#45;&gt;Node10</title>
<path fill="none" stroke="#191970" d="M617.4336,-190.3906C637.1165,-181.682 666.7093,-168.5888 691.2437,-157.7336"/>
<polygon fill="#191970" stroke="#191970" points="692.9829,-160.7915 700.7116,-153.5446 690.1506,-154.3901 692.9829,-160.7915"/>
</g>
<!-- Node5&#45;&gt;Node12 -->
<g id="edge18" class="edge">
<title>Node5&#45;&gt;Node12</title>
<path fill="none" stroke="#191970" d="M668.8522,-192.0643C735.8069,-184.3591 837.8196,-171.5162 935.0717,-154.2127"/>
<polygon fill="#191970" stroke="#191970" points="935.8505,-157.6289 945.0731,-152.4142 934.6115,-150.7394 935.8505,-157.6289"/>
</g>
<!-- Node5&#45;&gt;Node13 -->
<g id="edge21" class="edge">
<title>Node5&#45;&gt;Node13</title>
<path fill="none" stroke="#191970" d="M563.1523,-190.3906C531.2826,-179.9652 483.2691,-163.2559 451.6287,-151.6252"/>
<polygon fill="#191970" stroke="#191970" points="452.5654,-148.2397 441.9724,-148.0419 450.1301,-154.8024 452.5654,-148.2397"/>
</g>
<!-- Node5&#45;&gt;Node14 -->
<g id="edge23" class="edge">
<title>Node5&#45;&gt;Node14</title>
<path fill="none" stroke="#191970" d="M639.5768,-190.4734C679.5586,-181.7506 740.5205,-168.3537 802.2256,-154.3259"/>
<polygon fill="#191970" stroke="#191970" points="803.1591,-157.703 812.1322,-152.0697 801.6046,-150.8778 803.1591,-157.703"/>
</g>
<!-- Node5&#45;&gt;Node15 -->
<g id="edge24" class="edge">
<title>Node5&#45;&gt;Node15</title>
<path fill="none" stroke="#191970" d="M668.9374,-195.6706C760.9123,-189.6249 923.7061,-176.9161 1071.8815,-154.1822"/>
<polygon fill="#191970" stroke="#191970" points="1072.7271,-157.5929 1082.0712,-152.5992 1071.6524,-150.6759 1072.7271,-157.5929"/>
</g>
<!-- Node7&#45;&gt;Node2 -->
<g id="edge9" class="edge">
<title>Node7&#45;&gt;Node2</title>
<path fill="none" stroke="#191970" d="M248.9316,-148.2052C265.8311,-164.2365 295.0726,-195.8788 327.7148,-210 464.0472,-268.9782 515.2347,-224.8718 660.3706,-244.9547"/>
<polygon fill="#191970" stroke="#191970" points="660.1242,-248.4559 670.526,-246.4428 661.1391,-241.5299 660.1242,-248.4559"/>
</g>
<!-- Node7&#45;&gt;Node3 -->
<g id="edge8" class="edge">
<title>Node7&#45;&gt;Node3</title>
<path fill="none" stroke="#191970" d="M214.0802,-128.9005C188.2905,-117.4574 145.0042,-98.2509 115.6752,-85.2374"/>
<polygon fill="#191970" stroke="#191970" points="116.8695,-81.9383 106.3093,-81.0817 114.0304,-88.3367 116.8695,-81.9383"/>
</g>
<!-- Node7&#45;&gt;Node6 -->
<g id="edge10" class="edge">
<title>Node7&#45;&gt;Node6</title>
<path fill="none" stroke="#191970" d="M249.6126,-128.9005C265.5312,-117.9052 291.8269,-99.7422 310.5747,-86.7927"/>
<polygon fill="#191970" stroke="#191970" points="312.604,-89.6448 318.8429,-81.0817 308.6257,-83.8852 312.604,-89.6448"/>
</g>
<!-- Node9&#45;&gt;Node2 -->
<g id="edge13" class="edge">
<title>Node9&#45;&gt;Node2</title>
<path fill="none" stroke="#191970" d="M108.5177,-148.0044C148.3171,-163.7398 224.7938,-194.9575 292.7148,-210 452.8342,-245.4617 500.1898,-222.2345 660.6995,-245.0016"/>
<polygon fill="#191970" stroke="#191970" points="660.532,-248.5141 670.9322,-246.4931 661.5416,-241.5873 660.532,-248.5141"/>
</g>
<!-- Node10&#45;&gt;Node2 -->
<g id="edge15" class="edge">
<title>Node10&#45;&gt;Node2</title>
<path fill="none" stroke="#191970" d="M739.3439,-153.7056C741.8116,-174.3355 742.1259,-211.4615 740.287,-236.2943"/>
<polygon fill="#191970" stroke="#191970" points="736.7867,-236.1325 739.3291,-246.4178 743.7556,-236.792 736.7867,-236.1325"/>
</g>
<!-- Node11 -->
<g id="node12" class="node">
<title>Node11</title>
<g id="a_node12"><a xlink:href="constraints_2basic_8h.html" target="_top" xlink:title="Functions and data structures for constraining secondary structure predictions and evaluation...">
<polygon fill="none" stroke="#000000" points="945.2148,-56.5 945.2148,-86.5 1064.2148,-86.5 1064.2148,-56.5 945.2148,-56.5"/>
<text text-anchor="start" x="953.2148" y="-74.5" font-family="Helvetica,sans-Serif" font-size="10.00" fill="#000000">ViennaRNA/constraints</text>
<text text-anchor="middle" x="1004.7148" y="-63.5" font-family="Helvetica,sans-Serif" font-size="10.00" fill="#000000">/basic.h</text>
</a>
</g>
</g>
<!-- Node10&#45;&gt;Node11 -->
<g id="edge16" class="edge">
<title>Node10&#45;&gt;Node11</title>
<path fill="none" stroke="#191970" d="M794.3017,-123.7136C835.7952,-113.4171 891.2833,-99.6478 934.8599,-88.8344"/>
<polygon fill="#191970" stroke="#191970" points="935.9514,-92.1698 944.814,-86.3643 934.2654,-85.3758 935.9514,-92.1698"/>
</g>
<!-- Node11&#45;&gt;Node2 -->
<g id="edge17" class="edge">
<title>Node11&#45;&gt;Node2</title>
<path fill="none" stroke="#191970" d="M1064.3343,-74.5585C1141.3499,-80.7401 1260.6205,-99.2234 1216.7148,-154 1166.8409,-216.2226 934.9475,-244.7791 811.8947,-255.7417"/>
<polygon fill="#191970" stroke="#191970" points="811.4388,-252.2681 801.7812,-256.6249 812.0478,-259.2416 811.4388,-252.2681"/>
</g>
<!-- Node12&#45;&gt;Node2 -->
<g id="edge19" class="edge">
<title>Node12&#45;&gt;Node2</title>
<path fill="none" stroke="#191970" d="M976.3654,-153.513C930.0346,-175.8491 838.0443,-217.8243 781.8195,-242.3446"/>
<polygon fill="#191970" stroke="#191970" points="780.2157,-239.2252 772.4364,-246.4178 783.0031,-245.6463 780.2157,-239.2252"/>
</g>
<!-- Node12&#45;&gt;Node11 -->
<g id="edge20" class="edge">
<title>Node12&#45;&gt;Node11</title>
<path fill="none" stroke="#191970" d="M1004.7148,-123.2967C1004.7148,-115.5013 1004.7148,-105.7991 1004.7148,-96.9064"/>
<polygon fill="#191970" stroke="#191970" points="1008.2149,-96.6431 1004.7148,-86.6432 1001.2149,-96.6432 1008.2149,-96.6431"/>
</g>
<!-- Node13&#45;&gt;Node5 -->
<g id="edge22" class="edge">
<title>Node13&#45;&gt;Node5</title>
<path fill="none" stroke="#191970" d="M452.071,-148.0419C483.8709,-158.4402 531.8848,-175.1468 563.5957,-186.7993"/>
<polygon fill="#191970" stroke="#191970" points="562.6843,-190.1943 573.2773,-190.3906 565.1188,-183.6312 562.6843,-190.1943"/>
</g>
<!-- Node15&#45;&gt;Node0 -->
<g id="edge26" class="edge">
<title>Node15&#45;&gt;Node0</title>
<path fill="none" stroke="#191970" d="M1111.0856,-153.6331C1032.9779,-188.7816 840.2527,-275.508 765.2626,-309.2535"/>
<polygon fill="#191970" stroke="#191970" points="763.5778,-306.1736 755.8949,-313.469 766.4504,-312.557 763.5778,-306.1736"/>
</g>
<!-- Node15&#45;&gt;Node2 -->
<g id="edge25" class="edge">
<title>Node15&#45;&gt;Node2</title>
<path fill="none" stroke="#191970" d="M1099.2774,-153.513C1026.2633,-176.2414 882.8263,-219.3047 799.2419,-243.6201"/>
<polygon fill="#191970" stroke="#191970" points="798.2312,-240.269 789.6031,-246.4178 800.1824,-246.9915 798.2312,-240.269"/>
</g>
</g>
</svg>
